<svg id="Vrstva_1" xmlns="http://www.w3.org/2000/svg" xmlns:xlink="http://www.w3.org/1999/xlink" viewBox="0 0 73.9 73.9"><style>.st0{fill:#1d1d1b}.st1{fill:#fff}.st2,.st3,.st4{clip-path:url(#SVGID_2_);fill:#1d1d1b}.st3,.st4{fill:#fff}.st4{clip-path:url(#SVGID_4_)}</style><path class="st0" d="M36.9 0L0 36.9l36.9 37 37-37z"/><path transform="rotate(-45.001 36.942 38.469)" class="st1" d="M21.8 23.3h30.3v30.3H21.8z"/><path class="st1" d="M1.9 37l35-35 35 35-35 35-35-35zM1 37l35.9 35.9L72.8 37 36.9 1.1 1 37z"/><defs><path id="SVGID_1_" d="M0 0h73.9v73.9H0z"/></defs><clipPath id="SVGID_2_"><use xlink:href="#SVGID_1_" overflow="visible"/></clipPath><path class="st2" d="M37.4 24.8c-.5-.2-1.9.5-2.1-.1-.4.1-.9.5-1.2.9l-.2 4.6c0 1.1.2 2.9.7 3.8-.7.9-2.5 7.2-3 8.4-.6 1.4-.6 2.4-1 2.7-.7-1-1.2-1-1.5-.7 0 2.4 1.2 3.3 2.2 3.3.9-1.8 2.6-9.3 3.4-10.1.4-.3 1.7-2.6 1.7-.2-.1 0 3 8.3 3.3 8.9.4 0 .3 1 .9 1.8.9-.4 1.3-.6 1.4-1.2-.4-2.2-.8-3.7-1.7-2-1-2.7-2.5-6.4-3.2-9.3-.1-.9-.2-1.8-.1-2.5.7-1.9.8-7.2.4-8.3"/><path class="st2" d="M37.1 22.9c.6-2.3-.7-1.5-1.2-1l-.3.3c-.1.4 0 .7-.3.8-.3 1.6.7 1.8 1.6 1.6.2-.5.1-1.5.2-1.7m-3.9 10.7c-3.5.1-7.1.3-10.6.4.4 1.5.2 4.3.3 6.6l4.8 7.2c.1.2.2.5.3.7l1.2.6c-.2-.5-.5-1-.7-1.5-.2-.2-.4-.4-.5-.6-.3-.4-.6-.9-.9-1.3.2-1.7.4-3.3.6-5 .2 0 .5-.1.8-.1.7.8 1.5 2 1.8 1.9.1-.2.2-.3.3-.5-.5-.4-1.3-.9-1.4-1.5h2.9v-.6c-1 0-2.2-.1-2.9-.1-.5-1.9-.4-3.7-.6-5.6.8-.1 1.7-.2 2.6-.1.1 1.8.2 3.7.3 5.6l.6-.3c-.3-1.5-.3-3.4-.3-5.3h1.4c-.1-.2-.1-.4 0-.5m-8 .7c.1.5 0 1.1 0 1.8-.5-.5-1.1-1.1-1.5-1.7.6 0 .3-.3 1.5-.1m-1.4 5.9c-.1 0-.2-.1-.3-.1 0-.3-.1-.7-.1-1.1 0-.3-.1-.8-.2-1.1v-1.2c.1-.3-.1-.7 0-1.2.2-.6-.1-.9.6.1.2-.1.5 0 .6 1-.3.9 0 1.1-.2 1.5-.1.7-.1 1.3-.2 1.9 0 .2-.1.2-.2.2m2.7 4.6c-.6-.8-1.2-1.8-1.8-2.7-.4-.5-.5-1-.8-1.2.1-.2.4-.1 1-.2.7-.1 1.4-.1 2.1 0-.1 1.6-.3 3-.5 4.1m.8-4.7c-.4.2-1.2.1-1.4 0 0 .2-.8.1-1 .1.1-.2-.1-.1-.1-.5 0-.2 0-1.2.1-1.8-.2-.8.1-.6.1-.8l.2.2c.1.6 0 1 .2 2.6h.4l-.1-.5v-1.2c1 .5.9 1.1 1.4 1.2.1.1.2.2.2.5s.1.1 0 .2m-1.6-3.5c.2-.8 0-1.4.3-2.3.7-.1 1.4-.2 2.1 0 .2 2.1.3 4 .3 5.5-.9-1-1.8-2.2-2.7-3.2m25.8 2.8l-.7-6.3c-4 .1-8.1.1-12.2.2 0 .1.1.3.1.4l.6.1.2 5.9-.5.2.2.5 6.2-.1-2.1 2.9c.1 2.7.3 5.3 1.1 7.7l1.8-2.8h.6c1.1-2.4 2.6-4.8 4.6-7.1l.1-1.6zm-11.4.1c-.1-1.9-.2-3.8-.2-5.7.7-.3 1.4-.3 2.4-.1.3 2.6.3 5.4.4 6-.9-.1-2.6.1-2.6-.2m3.1.1c-.2-2-.3-4-.5-5.9.8-.2 1.7-.2 2.5 0-.1 2 0 4 .3 5.9h-2.3m6.8-6c-.3.5-.7 1.1-1.1 1.7-.1-.3-.2-.6-.1-1-.1-.2-.1-.5-.1-.7.8-.1.8 0 1.3 0m-1.4 5.1c.1.2.2.5.2.7-.8.1-.8 0-1.3 0 .2-1.1.7-1.6 1-2.1.1.5.2.9.1 1.4m-.4-5.2c.1 1 .2 1.9.2 2.7-.7 1.2-1.4 2.1-2.1 3.2-.8-.4-.7-3.7-.7-5.8.9-.1 1.7-.2 2.6-.1m-3.3 15.8c-.1 0-.2-.1-.2-.1-.1-2-.7-3.9-.6-6.1.4-.6.8-1.1 1.2-1.5-.1-.4.6-.3.6-.3 0-.4.5-.4.5-.3 0 .8.1 1.6.1 1.6.2.9.4 1.8.5 2.6-.5 1.3-1.2 2.4-2.1 4.1m3.8-6.4c.2-.2.1 1.2-.8 1.8-.3-.5.2.2-.2-.6-.3 0-.1-.5-.2-.6-.4-.5-.3-1.1-.3-1.5-.1-.8-.2-1.4-.2-1.9.4-.1 1-.1 1.1-.1.9-.1 1.1.5 1 .6.2.3-.1.8.2 1 .1.7-.5.9-.6 1.3m.3-6.1c-.1-.2.2-.2.1-.7.4-.7.9-1.3 1.3-1.8.2.3.3 2.7.5 5.1-.4.1-.9.1-1.3.1-.7-1.9.2-2.9-.6-2.7m1.2 4.4c-.1-.1-.3-.2-.3-.3v-.7c.7-.1.7 0 1.1 0-.3.3-.5.6-.8 1"/><path class="st3" d="M12.8 37.5c-.2.2-.3.4-.6.7-1.8 1.8-3.3 1.5-4.1.8-.9-.9-1.2-2.8.3-5.1l1.3.8c-.9 1.3-.9 2.3-.4 2.8.4.4 1.2.3 1.9-.4l.5-.5 1.1.9zm-1.7-6.1c.1.1 1.2 1.3 1.9 2l1 1 1.2-1.2 1 1c-.1.1-2.1 2-2.5 2.4-.3-.3-1.4-1.5-1.6-1.6l-.7-.7c-.1-.1-1.5-1.4-1.6-1.5l1.3-1.4zm3.7.5c-1.1-1.1-1.4-2.9.2-4.6 1.3-1.3 2.8-1.4 4-.2.8.8 1.6 2.7-.3 4.5-1.4 1.5-3 1.1-3.9.3m3-3.4c-.7-.7-1.4-.8-2-.3-.6.6-.4 1.6.3 2.2.7.7 1.5.7 1.9.3.6-.6.6-1.4-.2-2.2m4.7-7.5c.1.5 1.1 4.9 1.3 5.9l-.1.1c-1.4-.3-5.2-1.3-5.7-1.4l.5-1.8c.4.1 2.8 1 3.3 1.2-.2-.5-1.1-3.1-1.2-3.4l1.9-.6zm6.5.4c-.2.2-2.2 2.1-2.5 2.4-.3-.3-1.4-1.5-1.6-1.6l-.7-.7c-.1-.1-1.4-1.4-1.6-1.5.3-.3 2.1-2.2 2.2-2.4l.9.9c-.2.2-1 1.1-1.1 1.2l.7.7c.1-.1.7-.8.9-1l.9.9c-.1.1-.9.8-1 1l.6.6 1.2-1.2 1.1.7zm1-1l-1.7-1.7-.6-.6-1.7-1.7 1.3-1.3c.1.1 1.1 1.2 1.6 1.7l.1.2c-.1-.7-.3-3-.4-3.3l1.7-.1v2.3c.4 0 2 .1 2.5.1l-.1 1.8c-.2 0-2.5-.3-3.4-.5l.1.1c.4.4 1.7 1.6 1.8 1.7L30 20.4zm12.4-1.8c.2-.1.9-.9 1.5-1.5l1.4-1.4c-.3-.3-1.1-1-1.2-1.2l1-1c.2.3 1.5 1.6 1.6 1.6l.5.5c.1.1 1.3 1.3 1.6 1.5l-1 1-1.2-1.2-1.6 1.6-1.4 1.4-1.2-1.3zm6.1 2.8c-.6.6-1.5 1.6-1.7 1.7l-1.3-1.3c.3-.2 1.5-1.5 1.7-1.6l.6-.6 1.6-1.6 1.3 1.3c-.1.1-1 1-1.7 1.6l-.5.5zm3.5-3.6l-.2.9-1.5-.6.2-.6 1.5.3zm-3.2 5.6c.5.5 1.2 1 1.5.7.1-.1.1-.3-.1-1-.1-.5-.3-1.2.2-1.7.6-.6 2.1-.5 3.6.8l-.8 1.1c-.7-.7-1.1-.9-1.4-.7-.1.1 0 .4.1.9.1.4.4 1.1-.1 1.6-.6.6-2 .7-3.8-.7l.8-1zm2.4 4.1c.4-.4 3.3-3 4.1-3.7h.1c.2 1.3.6 4.4.7 4.8.3-.3 1.7-1.8 2-2l1.1 1.1c-.5.4-1.3 1.2-2.2 1.9-.8.7-1.6 1.5-2 1.8h-.1c-.2-1.1-.6-4.6-.6-4.8l-2 2-1.1-1.1zm8.2 4.9c-.5.5-1.5 1.5-1.6 1.7l-1.3-1.3c.3-.2 1.5-1.5 1.7-1.6l.6-.6 1.6-1.6 1.3 1.3c-.1.1-1 1-1.7 1.6l-.6.5zM40.2 9.8c-.3.4-2.7 4.2-3.2 5.1h-.1c-.8-1.2-2.8-4.7-3-5.1l1.6-.8c.2.3 1.3 2.7 1.5 3.2.2-.5 1.4-2.9 1.5-3.2l1.7.8z"/><path class="st1" d="M21.9 18.8l-.1-.7 1-.2.1-1 .7.2-.3 1.4zM5.4 35.3l-.2-.7 1.1-.2.1-1 .7.2-.3 1.3z"/><defs><path id="SVGID_3_" d="M0 0h73.9v73.9H0z"/></defs><clipPath id="SVGID_4_"><use xlink:href="#SVGID_3_" overflow="visible"/></clipPath><path class="st4" d="M15.1 47c-.2-.1-.3-.3-.5-.4-1.3-1.3-1.2-2.5-.7-3 .6-.6 2-.8 3.7.4l-.6.8c-1-.7-1.6-.7-2-.3-.3.3-.2.8.3 1.3l.4.4-.6.8zm2.1-4.9l.6-.1.2.8.7.1-.1.5-1.1-.2-.3-1.1zm1.4 8.4c-.2-.2-1.6-1.7-1.8-1.9l1.1-1.1.5-.5 1.1-1.1c.3.3 1.7 1.6 1.8 1.7l-.6.7c-.2-.2-.8-.8-.9-.8l-.5.5c.1.1.6.5.8.7l-.6.6c-.1-.1-.6-.7-.7-.7l-.4.4.9.9-.7.6zm2.3 1c.4.4 1 .8 1.1.7.1-.1.1-.2-.1-.7-.1-.4-.3-.9.1-1.3.5-.5 1.6-.3 2.7.7l-.6.8c-.6-.6-.9-.8-1-.6-.1.1 0 .3.2.7.1.3.4.9 0 1.2-.5.5-1.5.5-2.9-.7l.5-.8zm2.9 4.2c.1-.1.8-.7 1.2-1.2l.4-.4 1.2-1.2 1 1c-.1.1-.8.7-1.1 1.1l-.1.1c.4 0 2.1-.2 2.3-.2l.1 1.3h-1.6v1.7l-1.4-.1c0-.1.2-1.8.3-2.3l-.1.1c-.3.3-1.1 1.1-1.1 1.2l-1.1-1.1zm4.3 3.6c.3-.1 3.2-.8 4.2-.9l.1.1c-.2 1.2-.7 3.8-.8 4.2l-1.3-.4c.1-.3.2-.9.2-.9l-1.2-1.1c-.1 0-.5.2-.8.3l-.4-1.3zm2.7 1.3c.1-.3.2-.7.3-1-.3.1-.7.2-1 .3l.7.7zm3-2.6l-.2.7-1.2-.4.1-.5 1.3.2zm3.1 8.7c.1.1 1.1 1.1 1.2 1.1l-1 1-1.1-1.1-.6-.6-1-1c.6-.6 1.1-1.1 1.6-1.5.7-.5 1.2-.6 1.6-.3.3.3.4.7.3 1.3h1.6l-.3 1.4c-.2 0-2-.4-2.3-.4.1-.3.2-.7-.1-1-.2-.2-.4-.2-.8.2l.9.9zm6-3.6c-.2.2-1.7 1.6-1.9 1.8l-1.1-1.1-.5-.5-1.1-1.1c.3-.3 1.6-1.7 1.7-1.8l.7.6c-.2.2-.8.8-.8.9l.5.5c.1-.1.5-.6.7-.8l.6.6c-.1.1-.7.6-.7.7l.4.4.9-.9.6.7zm1.4-1.5c-.2-.2-1.1-1.1-1.3-1.4l-.4-.4-.9-.9c.9-.9 1.4-1.3 1.8-1.6.5-.3 1.1-.4 1.5 0 .5.5.5 1.6-.3 2.7l.1.1c.1.1.5.5.6.5l-1.1 1zm-.3-2.1c.2-.2.3-.7 0-1.1-.2-.2-.5-.2-.9.1l.9 1zm3.1-4.2c.6.6.9.8 1.2.9.2 0 .3-.1.4-.2.1-.1.2-.3.2-.5 0-.3-.2-.4-1-1.3l-.2-.2c-.3-.3-.5-.5-.7-.6l1-1 .7.7.2.2c.7.7 1.1 1.2 1.2 1.9 0 .5-.2 1.1-.7 1.5-.3.3-.9.8-1.6.7-.5-.1-.8-.3-1.7-1.2l-.2-.2-.6-.6 1-1c.1.1.3.3.6.7l.2.2zm3.3-3.4l-.9-.9c.6-.6 1-1 1.4-1.3.9-.7 1.4-.5 1.6-.3.1.1.3.5 0 1.1.3-.3.9-.5 1.3-.1s.3 1.4-1.1 2.8l-.4.5c-.2-.2-1.3-1.4-1.4-1.4l-.5-.4zm1.1-.7c.2-.2.3-.5 0-.8-.3-.3-.6 0-.7.2l.7.6zm1.1 1.1c.2-.2.4-.7.2-.9-.2-.2-.6-.1-.9.2l.7.7zm1.6-6c.1.1.8.9 1.3 1.4l.7.7.9-.9.7.7c-.1.1-1.6 1.5-1.9 1.8l-1.1-1.1-.5-.5-1.1-1.1 1-1zm4.7-1.6c.4.4 1.1 1 1.2 1.1l-1 1c-.2-.2-1-1.1-1.1-1.2l-.4-.4-1.1-1.1 1-1c.1.1.7.7 1.1 1.2l.3.4zm2.7-.4c-.1-.1-.7-.8-1.2-1.2l-.4-.4-1.2-1.2 1-1c.1.1.7.8 1.1 1.1l.1.1c0-.4-.2-2.1-.2-2.3l1.3-.1v1.6h1.7l-.1 1.4c-.1 0-1.8-.2-2.3-.3l.1.1c.3.3 1.1 1.1 1.2 1.1l-1.1 1.1zm3.3-3.9c-.1-.3-.8-3.2-.9-4.2l.1-.1c1.2.2 3.8.7 4.2.8l-.4 1.3c-.3 0-.8-.2-.9-.2l-1.1 1.2c0 .1.2.5.3.8l-1.3.4zm1.3-2.7c-.3-.1-.7-.2-1-.3.1.3.2.7.3 1l.7-.7z"/></svg>