<svg id="Vrstva_1" xmlns="http://www.w3.org/2000/svg" viewBox="0 0 19.5 18"><style>.st0{fill:#bb133e}</style><path class="st0" d="M19.5 13v4c0 .2 0 .5-.3.7s-.5.3-.8.3H1c-.2 0-.5 0-.7-.3S0 17.2 0 17v-4c0-.2 0-.5.3-.7s.5-.3.8-.3h5.5L8 13.6c.6.4 1 .7 1.7.7s1-.2 1.6-.7L13 12h5.3c.3 0 .6 0 .8.3s.5.5.5.8zm-3.8-6.5c0 .3 0 .6-.2.8l-5.2 5.2-.5.2-.5-.2L4 7.3c-.3-.2-.3-.5-.2-.8 0-.3.4-.5.7-.5h3V.8c0-.2 0-.4.2-.5S8 0 8.2 0h3c.2 0 .4 0 .5.2s.3.3.3.6V6h3c.3 0 .6.2.7.5zm-1 9.8c.2 0 .3-.3.3-.5l-.2-.5s-.3-.3-.6-.3-.4 0-.5.2l-.2.5.2.5.5.2h.6zm3 0c.2 0 .3-.3.3-.5l-.2-.5s-.3-.3-.6-.3-.4 0-.5.2l-.2.5.2.5.5.2h.6z"/></svg>