<svg id="Vrstva_1" xmlns="http://www.w3.org/2000/svg" viewBox="0 0 21 18.1"><style>.st0{fill:#fff}</style><path class="st0" d="M16.5 10.9v3.8c0 .9-.3 1.7-1 2.4s-1.5 1-2.4 1H3.4c-.9 0-1.7-.3-2.4-1s-1-1.5-1-2.4V4.9c0-.9.3-1.7 1-2.4s1.5-1 2.4-1h8.2c.1 0 .2 0 .3.1s.1.2.1.3v.8c0 .1 0 .2-.1.3s-.2 0-.3 0H3.4c-.5 0-1 .2-1.3.6s-.6.8-.6 1.3v9.8c0 .5.2 1 .6 1.3s.8.6 1.3.6h9.8c.5 0 1-.2 1.3-.6.3-.4.6-.8.6-1.3v-3.8c0-.1 0-.2.1-.3s.2-.1.3-.1h.8c.1 0 .2 0 .3.1s-.1.2-.1.3zM21 .8v6c0 .2-.1.4-.2.5s-.3.2-.5.2-.4-.1-.5-.2l-2.1-2.1-7.6 7.6c-.1.1-.2.1-.3.1s-.2 0-.3-.1l-1.3-1.3c-.1-.1-.1-.2-.1-.3s0-.2.1-.3l7.6-7.6-2.1-2.1c-.1-.1-.2-.2-.2-.4s.1-.4.2-.5.3-.3.6-.3h6c.2 0 .4.1.5.2s.2.3.2.6z"/></svg>