<svg id="Vrstva_1" xmlns="http://www.w3.org/2000/svg" viewBox="0 0 157 74.5"><style>.st0{fill:#428e9b}.st1{fill:#878787}</style><path class="st0" d="M94 28.2V23h-5.6l-4.6 5.9c-1.9-.5-3.6-1.4-4.9-2.7l-2.3.9c1.5 1.4 3.7 2.4 6.3 2.9l-8.8 11.4H74L59.7 23.2 76 2.6v20h4.8v-5.5c2.5 1 6 1.7 9.5 2.5 5.2 1.1 6.7 3.1 6.7 5-.1 1.4-1.1 2.7-3 3.6m1.9 1.3c3.4-1.1 5.9-3 6.2-5.7 0-3.8-4.4-5.3-8.7-6.2-6.3-1.3-10.8-2.3-11.5-5-.1-.4-.1-.6-.1-.9.1-2.9 4.2-4.7 8-4.7s6.3.5 8.7 2.8l2.1-.7C97.9 6.7 94.2 6 89.8 6c-3.7 0-6.8.6-9.1 1.7V0h-5.6L60.9 18.5h-.1L46.3 0h-5.4v22.6h2.7V2.9L59.4 23h-4.9v22.6h2.2V25.9l16.1 20.4h.2l16.3-20.7v20H94v-15h8.4v21.1h4.9V30.6h10.1v-1.1H95.9zM92.1 4.6L99.8 0h-2.4l-7.1 3.2L83 0h-2.3l7.8 4.6h3.6z"/><path class="st1" d="M0 57.4h1.1l3.1 6.4 3-6.4h1.1v7.1h-.7V58l-3 6.5h-.9L.6 58l.1 6.5H0zm11 0h.7v7.1H11zm3.4 0h.9l5 6.4v-6.4h.7v7.1h-.9l-5-6.4v6.4h-.7zm9.3 0h.7v7.1h-.7zm3.9 4.7c0 1.1.9 1.8 2.3 1.8s2.2-.6 2.2-1.5c0-.8-.6-1-1.8-1.2l-1.5-.2c-1.1-.2-1.7-.8-1.7-1.8 0-1.2 1-2.1 2.7-2.1 1.7 0 2.8.8 2.8 2.2h-.7c-.1-1-.8-1.5-2.1-1.5s-2 .6-2 1.4c0 .7.6 1 1.8 1.2l1.4.2c1.3.2 1.9.8 1.9 1.8 0 1.4-1.1 2.2-2.9 2.2-1.9 0-3.1-.9-3.1-2.4v-.1h.7zm9.6-4.1h-2.7v-.6h6.2v.6h-2.8v6.5h-.7zm5.3-.6H48v.6h-4.7v2.5h4.4v.7h-4.4v2.6H48v.7h-5.5zm8.5.6v2.7h2.6c1.3 0 1.9-.4 1.9-1.4 0-1.1-.6-1.4-2-1.4H51zm-.7-.6h3.4c1.7 0 2.6.6 2.6 1.9 0 .9-.4 1.5-1.2 1.8.8.1 1 .5 1.1 1.4.1.9 0 1.7.3 2.1h-.8c-.2-.7-.2-1.4-.2-2.1-.1-.7-.5-1-1.4-1h-3v3.1h-.7v-7.2zm9 4.7c0 1.1.9 1.8 2.3 1.8s2.2-.6 2.2-1.5c0-.8-.6-1-1.8-1.2l-1.6-.2c-1.1-.2-1.7-.8-1.7-1.8 0-1.2 1-2.1 2.7-2.1 1.7 0 2.8.8 2.8 2.2h-.7c-.1-1-.8-1.5-2.1-1.5s-2 .6-2 1.4c0 .7.6 1 1.8 1.2l1.4.2c1.3.2 1.9.8 1.9 1.8 0 1.4-1.1 2.2-2.9 2.2-1.9 0-3.1-.9-3.1-2.4v-.1h.8zm9.5-4.1h-2.7v-.6h6.2v.6h-2.8v6.5h-.7zm4.6-.6h.7l2.9 6.5 2.9-6.5h.8l-3.2 7.1h-.9zm15.4 3.5c0-1.9-1.1-3.1-3-3.1s-3 1.1-3 3.1c0 1.9 1.1 3.1 3 3.1 1.8 0 3-1.2 3-3.1m-3 3.8c-2.3 0-3.7-1.4-3.7-3.8 0-2.3 1.4-3.8 3.7-3.8 2.3 0 3.8 1.4 3.8 3.8-.1 2.4-1.5 3.8-3.8 3.8m13.9-9.5h.8l-1.4 1.5h-.8l-1.4-1.5h.8l1 1.1 1-1.1zm-3.2 6.9c0 1.1.9 1.8 2.3 1.8s2.2-.6 2.2-1.5c0-.8-.6-1-1.8-1.2l-1.5-.2c-1.1-.2-1.7-.8-1.7-1.8 0-1.2 1-2.1 2.7-2.1 1.7 0 2.8.8 2.8 2.2h-.7c-.1-1-.8-1.5-2.1-1.5s-2 .6-2 1.4c0 .7.6 1 1.8 1.2l1.4.2c1.3.2 1.9.8 1.9 1.8 0 1.4-1.1 2.2-2.9 2.2-1.9 0-3.1-.9-3.1-2.4v-.1h.7zm7.6-4.7h.7v3.9l4.5-3.9h1l-3.4 2.9 3.4 4.2h-1l-2.9-3.7-1.6 1.3v2.4h-.7zm14.1 3.5c0-1.9-1.1-3.1-3-3.1s-3 1.1-3 3.1c0 1.9 1.1 3.1 3 3.1s3-1.2 3-3.1m-3 3.8c-2.3 0-3.7-1.4-3.7-3.8 0-2.3 1.4-3.8 3.7-3.8 2.3 0 3.8 1.4 3.8 3.8s-1.4 3.8-3.8 3.8m6.1-7.3h.7v6.4h4.5v.7h-5.2zm7.8 4.7c0 1.1.9 1.8 2.3 1.8s2.2-.6 2.2-1.5c0-.8-.6-1-1.8-1.2l-1.5-.3c-1.1-.2-1.7-.8-1.7-1.8 0-1.2 1-2.1 2.7-2.1 1.7 0 2.8.8 2.8 2.2h-.7c-.1-1-.8-1.5-2.1-1.5s-2 .6-2 1.4c0 .7.6 1 1.8 1.2l1.4.2c1.3.2 1.9.8 1.9 1.8 0 1.4-1.1 2.2-2.9 2.2-1.9 0-3.1-.9-3.1-2.4V62h.7zm9.5-4.1h-2.7v-.6h6.2v.6h-2.7v6.5h-.8zm4.6-.6h.8l2.8 6.5 2.9-6.5h.8l-3.2 7.1h-.9zm10.1-2.2h.9l-1.2 1.5h-.6l.9-1.5zm-.9 2.2h.7v7.1h-.7v-7.1zm3.8 6.2h.8v1.2c0 .7-.2 1-.8 1.3v-.5c.3-.1.4-.3.4-.7v-.4h-.4v-.9zM12.1 68.5h.9l2.5 5.3 2.6-5.3h.8v5.9h-.5V69l-2.5 5.4h-.7L12.6 69l.1 5.4h-.6zm8.9 0h.6v5.3h3.7v.6H21zm8.8-1.9h.7l-1 1.2H29l.8-1.2zm.9 5.4l-1.4-3-1.3 3h2.7zM29 68.5h.7l2.7 5.9h-.6l-.8-1.9h-3.2l-.8 1.8h-.6l2.6-5.8zm5.4.5v4.8H36c.8 0 1.5-.1 1.9-.4.6-.4.8-1.1.8-2.1s-.3-1.6-.8-2c-.5-.3-1.1-.3-2.1-.3h-1.4zm4 0c.7.5 1 1.3 1 2.4 0 1.1-.3 1.9-1 2.4-.6.5-1.4.5-2.4.5h-2.2v-5.9H36c1 .1 1.8.1 2.4.6m2.7-.5h4.6v.5h-4v2.1h3.7v.5h-3.7v2.2h4v.6h-4.6zm9.7-1.9h.6l-1.1 1.2h-.7l-1.1-1.2h.6l.8.9.9-.9zM47 73.8l4.4-4.8h-4.1v-.6h5v.6l-4.4 4.8h4.4v.6H47v-.6zm6.8-5.3h4.5v.5h-3.9v2.1H58v.5h-3.6v2.2h3.9v.6h-4.5zM67.2 72l-1.4-3-1.4 3h2.8zm-1.7-3.5h.7l2.7 5.9h-.6l-.8-1.8h-3.2l-.8 1.8h-.6l2.6-5.9zm9.7.5H73v-.5h5.1v.5h-2.3v5.4h-.6zm7.5-2.4h.6l-1.1 1.2h-.7l-1.1-1.2h.6l.8.9.9-.9zm-3.2 1.9h4.6v.5h-4v2.1h3.7v.6h-3.7v2.2h4v.6h-4.6v-6zm6.3 0h.6v5.3h3.7v.6h-4.3zm10.6 2.9c0-1.6-.9-2.5-2.5-2.5s-2.5 1-2.5 2.5c0 1.6.9 2.5 2.5 2.5 1.6.1 2.5-.9 2.5-2.5m-2.5 3.1c-1.9 0-3.1-1.2-3.1-3.1 0-1.9 1.2-3.1 3.1-3.1 1.9 0 3.1 1.2 3.1 3.1 0 1.9-1.1 3.1-3.1 3.1m4.1-6h.6l2.4 5.4 2.4-5.4h.6l-2.6 5.9h-.8zm10.3-1.9h.7l-1 1.2h-.5l.8-1.2zm-.9 5.2l-2.6-3.4h.8l2.1 2.9 2.1-2.9h.7l-2.6 3.4v2.6h-.6v-2.6zm7.4-2.9c-1.6 0-2.5 1-2.5 2.5 0 1.6 1 2.5 2.4 2.5 1.2 0 2.1-.7 2.3-1.8h.6c-.3 1.5-1.4 2.4-3 2.4-1.8 0-3-1.2-3-3.1 0-1.9 1.2-3.1 3.1-3.1 1.5 0 2.6.8 2.7 2.1h-.4c-.3-1-1-1.5-2.2-1.5m4.5-.4h.6v2.4h3.9v-2.4h.5v5.9h-.5v-2.9h-3.9v2.9h-.6zm12.4 2.9c0-1.6-.9-2.5-2.5-2.5s-2.5 1-2.5 2.5c0 1.6.9 2.5 2.5 2.5 1.6.1 2.5-.9 2.5-2.5m-2.5 3.1c-1.9 0-3.1-1.2-3.1-3.1 0-1.9 1.2-3.1 3.1-3.1 1.9 0 3.1 1.2 3.1 3.1.1 1.9-1.1 3.1-3.1 3.1m4.1-6h.7l2.3 5.4 2.4-5.4h.7l-2.7 5.9h-.7zm9.4 3.3l-2.5-3.3h.7l2.1 2.8 2.1-2.8h.8l-2.6 3.3v2.6h-.6z"/></svg>