<svg id="Vrstva_1" xmlns="http://www.w3.org/2000/svg" viewBox="0 0 74.2 74.2">
    <style>.st0{fill:url(#SVGID_1_)}.st1{fill:url(#SVGID_2_)}.st2{fill:url(#SVGID_3_)}</style>
    <linearGradient id="SVGID_1_" gradientUnits="userSpaceOnUse" x1=".669" y1="73.5" x2="68.05" y2="6.119">
        <stop offset=".05" stop-color="#fff"/>
        <stop offset=".501" stop-color="#fff"/>
        <stop offset=".95" stop-color="#fff"/>
    </linearGradient>
    <path class="st0" d="M61.3 17.3c0-2.5-2-4.5-4.5-4.5s-4.5 2-4.5 4.5 2 4.4 4.5 4.4 4.5-2 4.5-4.4"/>
    <linearGradient id="SVGID_2_" gradientUnits="userSpaceOnUse" x1=".669" y1="73.499" x2="68.05" y2="6.118">
        <stop offset=".05" stop-color="#fff"/>
        <stop offset=".501" stop-color="#fff"/>
        <stop offset=".95" stop-color="#fff"/>
    </linearGradient>
    <path class="st1" d="M73.9 21.8c-.2-4-.8-6.7-1.7-9-.9-2.4-2.2-4.5-4.3-6.6-2.1-2.1-4.1-3.3-6.6-4.3-2.4-.9-5.1-1.5-9-1.7C48.4 0 47.2 0 37.1 0S25.7 0 21.8.2c-3.9.2-6.6.8-9 1.7-2.4 1-4.5 2.2-6.6 4.3-2.1 2.1-3.3 4.1-4.3 6.6-.9 2.4-1.5 5.1-1.7 9C0 25.8 0 27 0 37.1c0 10.1 0 11.3.2 15.3.2 3.9.8 6.6 1.7 9 1 2.4 2.2 4.5 4.3 6.6 2.1 2.1 4.1 3.3 6.6 4.3 2.4.9 5.1 1.5 9 1.7 4 .2 5.2.2 15.3.2 10.1 0 11.3 0 15.3-.2s6.6-.8 9-1.7c2.4-1 4.5-2.2 6.6-4.3 2.1-2.1 3.3-4.1 4.3-6.6.9-2.4 1.5-5.1 1.7-9 .2-4 .2-5.2.2-15.3 0-10.1-.1-11.3-.3-15.3zm-6.6 30.3c-.2 3.6-.8 5.6-1.3 6.9-.7 1.7-1.5 3-2.8 4.3-1.3 1.3-2.5 2.1-4.3 2.8-1.3.5-3.3 1.1-6.9 1.3-3.9.2-5.1.2-15 .2s-11.1 0-15-.2c-3.6-.2-5.6-.8-6.9-1.3-1.7-.7-3-1.5-4.3-2.8C9.5 62 8.7 60.8 8 59c-.5-1.3-1.1-3.3-1.3-6.9-.2-3.9-.2-5.1-.2-15s0-11.1.2-15c.2-3.6.8-5.6 1.3-6.9.7-1.7 1.5-3 2.8-4.3 1.3-1.3 2.5-2.1 4.3-2.8 1.3-.5 3.3-1.1 6.9-1.3 3.9-.2 5.1-.2 15-.2s11.1 0 15 .2c3.6.2 5.6.8 6.9 1.3 1.7.7 3 1.5 4.3 2.8 1.3 1.3 2.1 2.5 2.8 4.3.5 1.3 1.1 3.3 1.3 6.9.2 3.9.2 5.1.2 15s0 11.1-.2 15z"/>
    <linearGradient id="SVGID_3_" gradientUnits="userSpaceOnUse" x1=".669" y1="73.5" x2="68.05" y2="6.119">
        <stop offset=".05" stop-color="#fff"/>
        <stop offset=".501" stop-color="#fff"/>
        <stop offset=".95" stop-color="#fff"/>
    </linearGradient>
    <path class="st2" d="M37.1 18c-10.5 0-19 8.5-19 19.1 0 10.5 8.5 19 19 19s19-8.5 19-19S47.6 18 37.1 18zm0 31.4c-6.8 0-12.4-5.5-12.4-12.4 0-6.8 5.5-12.4 12.4-12.4 6.8 0 12.4 5.5 12.4 12.4s-5.6 12.4-12.4 12.4z"/>
</svg>