<svg id="Vrstva_1" xmlns="http://www.w3.org/2000/svg" viewBox="0 0 75 75"><style>.st0{fill:#0076b2}.st1{fill:#fff}</style><path class="st0" d="M69.5 0h-64C2.5 0 0 2.4 0 5.4v64.2c0 3 2.5 5.4 5.5 5.4h63.9c3.1 0 5.5-2.4 5.5-5.4V5.4c.1-3-2.4-5.4-5.4-5.4z"/><path class="st1" d="M11.1 28.1h11.1v35.8H11.1V28.1zm5.6-17.8c3.6 0 6.4 2.9 6.4 6.5s-2.9 6.5-6.4 6.5c-3.6 0-6.5-2.9-6.5-6.5s2.9-6.5 6.5-6.5m12.5 17.8h10.7V33h.1c1.5-2.8 5.1-5.8 10.5-5.8 11.3 0 13.3 7.4 13.3 17.1v19.6h-11V46.5c0-4.2-.1-9.5-5.8-9.5-5.8 0-6.7 4.5-6.7 9.2v17.7H29.2V28.1z"/></svg>