<svg id="Vrstva_1" xmlns="http://www.w3.org/2000/svg" viewBox="0 0 92.5 74"><style>.st0{fill:#1a171b}.st1{fill:#009335}</style><path class="st0" d="M2.1 53.7c-.2.4-.2 1.1-.2 1.6 0 .9.1 2.4 1.4 2.4.6 0 .9-.3 1.1-.9.2-.5.2-1.1.2-1.6 0-.6-.1-1.2-.3-1.7-.2-.5-.5-.7-1.1-.7-.6 0-.9.4-1.1.9M.8 58c-.6-.8-.8-1.8-.8-2.7 0-2 1-3.9 3.2-3.9 1 0 1.8.3 2.4 1.1.5.7.8 1.8.8 2.7 0 .9-.2 1.9-.7 2.6-.6.9-1.5 1.3-2.5 1.3S1.4 58.8.8 58zm9.6-3.1c.4 0 .8 0 1.1-.3.2-.2.2-.4.2-.7 0-.3-.1-.6-.4-.8-.3-.2-.6-.2-1-.2h-1v2h1.1m-1 4.1H7.7v-7.5h2.8c.7 0 1.4 0 2 .4.6.4 1 1.1 1 1.9 0 .7-.3 1.4-.8 1.9-.6.5-1.3.5-2.1.5H9.4V59zm12.1 0h-1.9l-2.3-7.5h1.9l1.5 5.4 1.6-5.4h1.5L21.5 59m6.8-7l-2.5.9-.3-.7 2.4-1.2.4 1m-.9 6.7c-.4 1.2-.7 2.3-2.2 2.3l-.8-.1v-1.3l.8.1c.5 0 .7-.2.9-.7l-2-5.6h1.7l1.1 3.3 1-3.3h1.2l-1.7 5.3zm6.2-4.2l-2.5 3.3h2.6V59h-4.4v-1.2l2.5-3.2h-2.3v-1.1h4.1v1m6.5 4.5h-1.8l-1.2-2.5-.9 1.1V59h-1.6v-7.5h1.6V56l.5-.7 1.6-1.8h1.6l-1.6 1.9 1.8 3.6m4 0v-1c-.3.7-.8 1.1-1.6 1.1-.6 0-1-.1-1.4-.6-.3-.5-.3-1-.3-1.5v-3.5h1.6V57c0 .4 0 .9.6.9.4 0 .7-.2.8-.5.1-.2.1-.6.1-.9v-3h1.6V59h-1.4m4.2-5.5v.9c.3-.7.8-1 1.5-1s1.2.3 1.5 1c.3-.7.9-1 1.6-1 .5 0 1 .2 1.4.6.4.4.3 1.1.3 1.6V59H53v-3.9c-.1-.4-.4-.4-.7-.4-.3 0-.6.2-.7.4-.1.3-.1.7-.1 1V59h-1.6v-2.9c0-.6.1-1.4-.7-1.4-.8 0-.8.8-.8 1.4V59h-1.6v-5.6h1.5m14.2 3c-.6.1-1.7.2-1.7 1 0 .4.3.7.7.7.3 0 .6-.2.8-.5.2-.4.2-.7.2-1.1v-.1m.2 2.6c-.1-.3-.1-.6-.1-.9-.5.7-.9 1-1.8 1-1 0-1.8-.5-1.8-1.6 0-.8.5-1.4 1.2-1.7.6-.2 1.5-.3 2.2-.4v-.1c0-.2 0-.5-.1-.7-.1-.2-.4-.3-.7-.3-.5 0-1 .3-1 .8l-1.5-.1c.2-1.3 1.5-1.7 2.7-1.7.6 0 1.3.1 1.8.5.6.5.5 1.1.5 1.7v2.6c0 .3 0 .6.1.8h-1.5zm8.7 0h-1.2l-1.9-5.5H70l1 3.5 1.1-3.5h1.2L71.4 59m6.5-7l-2.5.9-.3-.7 2.4-1.2.4 1m-.9 6.7c-.4 1.3-.6 2.3-2.2 2.3l-.8-.1v-1.3l.8.1c.5 0 .7-.2.9-.7l-2-5.6h1.7l1.1 3.3 1-3.3h1.2L77 58.7zm5.2.3h-1.3L79 53.5h1.7l1.1 3.5 1.1-3.5h1.2L82.2 59m4.1-2.9c0 .6 0 2 .9 2s1-1.1 1-1.8c0-.4 0-1-.2-1.4-.1-.4-.4-.5-.8-.5-.8 0-.9 1-.9 1.7m3.6.2c0 1.6-1 2.8-2.7 2.8-1.7 0-2.6-1.3-2.6-2.9 0-1.6.9-2.9 2.6-2.9 1.7.1 2.7 1.4 2.7 3zm2.6-3.3h-1.6v-1.6h1.6V53m0 .5v5.1c0 .5.1 1.1-.2 1.6-.3.6-1 .8-1.6.8-.3 0-.6-.1-.9-.1v-1.3h.4c.7 0 .7-.6.7-1.1v-5.1h1.6zM19.8 69.6c0 .4 0 .8.2 1.1.2.2.4.4.7.4.8 0 .9-1.2.9-1.8 0-.6 0-1.7-.9-1.7-.3 0-.6.2-.7.4-.2.3-.2.6-.2 1v.6m-.1-3v.8c.3-.6.7-.9 1.4-.9s1.3.3 1.6 1c.4.6.4 1.3.4 1.9 0 1.4-.5 2.9-2.1 2.9-.5 0-1.1-.2-1.3-.7V74h-1.6v-7.4h1.6zm6.1 0v1c.2-.6.5-1.2 1.2-1.2h.3V68c-1.3 0-1.4 1-1.4 2v2.1h-1.6v-5.6h1.5m3.8 2.7c0 .6 0 2 .9 2s1-1.1 1-1.8c0-.4 0-1-.2-1.4-.1-.4-.4-.5-.8-.5-.8 0-.9 1-.9 1.7m3.6.2c0 1.6-1 2.8-2.7 2.8-1.7 0-2.6-1.3-2.6-2.9 0-1.6.9-2.9 2.6-2.9 1.8.1 2.7 1.3 2.7 3zm5.9 2.7h-1.6v-5.6h1.6v5.6m0-6h-1.6v-1.6h1.6v1.6zm2.9.5v.9c.3-.7.8-1.1 1.6-1.1.5 0 1 .2 1.4.6.3.4.3 1.1.3 1.6V72h-1.6v-3c0-.6.1-1.4-.7-1.4-.3 0-.5.2-.7.4-.2.3-.2.6-.2 1v3h-1.6v-5.6H42m5.9 2.8c0 .6 0 2 .9 2s1-1.1 1-1.8c0-.4 0-1-.2-1.4-.1-.4-.4-.5-.8-.5-.8 0-.9 1-.9 1.7m3.6.2c0 1.6-1 2.8-2.7 2.8-1.7 0-2.6-1.3-2.6-2.9 0-1.6.9-2.9 2.6-2.9 1.8.1 2.7 1.3 2.7 3zm3.7 2.7h-1.3L52 66.6h1.7l1.1 3.5 1.1-3.5h1.2l-1.9 5.5m5.9-2.6c-.6.1-1.7.2-1.7 1 0 .4.3.7.7.7.3 0 .6-.2.8-.5.2-.4.2-.7.2-1.1v-.1m.1 2.6c-.1-.3-.1-.6-.1-.9-.5.7-.9 1-1.8 1-1 0-1.8-.5-1.8-1.6 0-.8.5-1.4 1.3-1.7.6-.2 1.5-.3 2.2-.4v-.1c0-.2 0-.5-.1-.7-.1-.2-.4-.3-.7-.3-.5 0-1 .3-1 .8l-1.5-.1c.2-1.3 1.5-1.7 2.7-1.7.6 0 1.3.1 1.8.5.6.5.5 1.1.5 1.7v2.6c0 .3 0 .6.1.8h-1.6zm6.1-3.4c0-.5-.3-1-.8-1-.9 0-1 .9-1 1.6 0 .7 0 1.6.9 1.6.6 0 .9-.4.9-1l1.5.1c-.1 1.4-1.2 2.2-2.5 2.2-1.7 0-2.7-1.2-2.7-2.8 0-1.7 1-3 2.8-3 1.3 0 2.3.8 2.4 2.1l-1.5.2m6 0c0-.6-.2-1.2-.9-1.2s-1 .5-1 1.2h1.9m-1.9.9v.3c0 .7.4 1.2 1.1 1.2.5 0 1-.4 1-.9l1.5.1c0 .3-.6 1.9-2.5 1.9-1.7 0-2.7-1.2-2.7-2.8 0-1.6 1-3 2.7-3 .8 0 1.6.4 2 1 .5.6.6 1.4.6 2.2h-3.7zM24.6 41.7c0-1.6-1.3-2.9-2.9-2.9-1.6 0-2.9 1.3-2.9 2.9s1.3 2.9 2.9 2.9c1.6.1 2.9-1.2 2.9-2.9M34 23c0-1.6-1.3-2.9-2.9-2.9s-2.9 1.3-2.9 2.9c0 1.6 1.3 2.9 2.9 2.9S34 24.7 34 23m-5 8.1c0-1.6-1.3-2.9-2.9-2.9-1.6 0-2.9 1.3-2.9 2.9v.3c1.4.7 3 1.4 4.6 2.1.7-.6 1.2-1.4 1.2-2.4zM50.1 7.9c0-1.6-1.3-2.9-2.9-2.9-1.6 0-2.9 1.3-2.9 2.9 0 .2 0 .3.1.5 1.8.3 3.6.6 5.4 1 .1-.4.3-.9.3-1.5zm-10 6.6c-.5-1-1.5-1.6-2.6-1.6-.8 0-1.5.3-2 .8-.6.5-.9 1.3-.9 2.1 0 1.6 1.3 2.9 2.9 2.9 1.6 0 2.9-1.3 2.9-2.9 0-.4-.1-.9-.3-1.3zM58.9 2.9C58.9 1.3 57.6 0 56 0c-1.7 0-3 1.3-3 2.9s1.3 2.9 2.9 2.9c1.7 0 3-1.3 3-2.9"/><path class="st1" d="M57.3 11.2c-2.6-.7-5.1-1.3-7.6-1.8-1.8-.4-3.6-.7-5.4-1-18.4-2.9-35-.8-39.9 5.7-6 8 7.9 19.7 31.1 26.1 11.7 3.2 23.5 4.5 33.1 3.9-9.9-1-22-3.7-33.5-7.9-2.6-.9-5-1.9-7.3-2.8-1.6-.7-3.1-1.4-4.6-2.1C9.6 24.8 3.6 17.9 9.6 14.4c4.4-2.5 14.2-2.6 25.9-.7.5-.5 1.2-.8 2-.8 1.1 0 2.1.7 2.6 1.6 7.2 1.4 14.9 3.5 22.3 6.2 13.8 5 23.5 10.8 26.6 15.5 4.1-8-9.6-18.9-31.7-25z"/><path class="st1" d="M59.8 40.2h-3.2v-1l1.4-1.1c.3-.2.6-.5.6-.8 0-.2-.1-.4-.4-.4-.4 0-.5.4-.5.7l-1.1-.2c.1-.9.8-1.5 1.7-1.5.8 0 1.6.5 1.6 1.4 0 .5-.2.8-.5 1.1l-1 .7-.1.1h1.6l-.1 1m1.8-2.1c0 1.2.3 1.2.5 1.2s.5 0 .5-1.2c0-1.4-.3-1.3-.5-1.3s-.5-.1-.5 1.3m2.1 0c0 1-.5 2.1-1.7 2.1s-1.7-1.1-1.7-2.1c0-1.1.4-2.2 1.7-2.2 1.3 0 1.7 1.2 1.7 2.2zm1.7 0c0 1.2.3 1.2.5 1.2s.5 0 .5-1.2c0-1.4-.3-1.3-.5-1.3s-.5-.1-.5 1.3m2.2 0c0 1-.5 2.1-1.7 2.1s-1.7-1.1-1.7-2.1c0-1.1.4-2.2 1.7-2.2 1.2 0 1.7 1.2 1.7 2.2zm3.6-1.3c-.7.8-1.1 2.1-1.1 3.2v.2h-1.4c0-1.2.6-2.3 1.3-3.2h-2l.1-1.1h3v.9m3.6 2.2h-3.1v-1h3.1v1m3.6 1.2h-3.2v-.9h1v-2l-.9.3v-.9c.4-.1 1-.3 1.2-.7h.9v3.3h1v.9zm1.6-1.4c0 .3.3.6.6.6s.5-.1.5-.4c0-.1-.1-.3-.2-.4-.1-.1-.3-.1-.4-.1H80v-.9h.8c.1-.1.2-.2.2-.3 0-.3-.2-.4-.4-.4-.3 0-.5.2-.5.5l-1-.2c.2-.8.9-1.2 1.7-1.2.3 0 .7.1 1 .2.3.2.5.5.5.9s-.2.8-.6.9c.5.1.8.5.8 1 0 .9-.9 1.3-1.7 1.3-.9 0-1.6-.4-1.8-1.3l.9-.2"/></svg>