<svg id="Vrstva_1" xmlns="http://www.w3.org/2000/svg" viewBox="0 0 106.4 74.8">
    <style>.st0{fill:none}.st1{fill:#fff}</style>
    <path id="Triangle" class="st0" d="M42.2 51.2l28.7-14.9-28.7-15v29.9z"/>
    <path class="st1" d="M105.3 16.1s-1-7.3-4.2-10.6c-4-4.2-8.6-4.3-10.7-4.5-14.9-1-37.2-1-37.2-1S30.9 0 16 1.1c-2.1.2-6.7.2-10.7 4.5-3.2 3.2-4.2 10.5-4.2 10.5S0 24.7 0 33.4v8.1C0 50 1.1 58.6 1.1 58.6s1 7.3 4.2 10.6c4 4.2 9.4 4.1 11.7 4.5 8.5.8 36.2 1.1 36.2 1.1s22.4 0 37.2-1.1c2.1-.2 6.6-.3 10.7-4.5 3.2-3.2 4.2-10.6 4.2-10.6s1.1-8.6 1.1-17.2v-8.1c0-8.6-1.1-17.2-1.1-17.2zM42.2 51.2V21.3l28.7 15-28.7 14.9z" id="Lozenge"/>
</svg>