<svg id="Vrstva_1" xmlns="http://www.w3.org/2000/svg" xmlns:xlink="http://www.w3.org/1999/xlink" viewBox="0 0 77.3 50.8"><style>.st0{clip-path:url(#SVGID_2_)}.st1{fill:#00247d}.st2{fill:#fff}.st3{fill:#cf1b2b}</style><defs><path id="SVGID_1_" d="M70.2 50.8H7.1c-3.9 0-7.1-3.2-7.1-7.1V7.1C0 3.2 3.2 0 7.1 0h63.2c3.9 0 7.1 3.2 7.1 7.1v36.6c-.1 3.9-3.3 7.1-7.2 7.1z"/></defs><clipPath id="SVGID_2_"><use xlink:href="#SVGID_1_" overflow="visible"/></clipPath><g class="st0"><path class="st1" d="M0 0h77.3v50.8H0z"/><path class="st2" d="M77.3 0h-9.7L47.5 13.2V0H29.8v13.7L8.5 0H0v6.9l15.3 9.9H0v17.6h15.1L0 44.3v6.4h10l19.7-13v13h17.7V37.5l20.4 13.2h9.4v-6.4l-15.4-9.9h15.5V16.8H61.9L77.3 6.6V0z"/><path class="st3" d="M24.9 16.8L0 0v4.4l18.6 12.3c2.2.1 4.4.1 6.3.1zm27.5 17.6l24.8 16.4v-4.1L58.7 34.4h-6.3zm-22.6 0h-5.1L0 50.8h5.9l23.9-15.6v-.8zm17.7-17.6h4.8L77.3.4V0h-5.6L47.5 15.7v1.1z"/><path class="st3" d="M77.3 20.5H43.7V0H33.6v20.5H0v10.1h33.6v20.2h10.1V30.6h33.6z"/></g></svg>