<svg id="Vrstva_1" xmlns="http://www.w3.org/2000/svg" viewBox="0 0 24 24"><style>.st0{fill:#f6f6f6}.st1{opacity:.1}</style><circle class="st0" cx="12" cy="12" r="12"/><path d="M19.4 17.4c0 .8-.3 1.5-.8 2s-1.2.7-2 .7H7.4c-.8 0-1.5-.2-2-.7-.5-.5-.8-1.2-.8-2v-1.1c0-.4.1-.7.1-1.1s.2-.8.3-1.1.3-.7.5-1 .4-.6.7-.9c.2-.2.5-.4.9-.6s.7-.2 1.2-.2c.1 0 .2.1.4.2.2.2.5.3.8.5.3.2.7.4 1.1.5.5.2.9.2 1.4.2.5 0 .9-.1 1.4-.2.5-.2.8-.3 1.1-.5.3-.2.6-.4.8-.5.2-.2.4-.2.4-.2.4 0 .8.1 1.2.2.4.1.7.3.9.6.2.2.5.5.7.9.2.3.3.7.5 1 .1.4.2.7.3 1.1.1.4.1.8.1 1.1v1.1zM14.9 5.1c.7.8 1.1 1.7 1.1 2.9 0 1.1-.4 2.1-1.2 2.9-.7.7-1.7 1.1-2.8 1.1-1.1 0-2.1-.4-2.9-1.2C8.4 10 8 9.1 8 8c0-1.1.4-2.1 1.2-2.9s1.7-1.2 2.9-1.2c1 0 2 .4 2.8 1.2z" class="st1"/></svg>