<?xml version="1.0" encoding="utf-8"?>
<!-- Generator: Adobe Illustrator 21.1.0, SVG Export Plug-In . SVG Version: 6.00 Build 0)  -->
<svg version="1.1" id="Layer_1" xmlns="http://www.w3.org/2000/svg" xmlns:xlink="http://www.w3.org/1999/xlink" x="0px" y="0px"
	 viewBox="0 0 330.6 99.6" style="enable-background:new 0 0 330.6 99.6;" xml:space="preserve">
<style type="text/css">
	.st0{clip-path:url(#SVGID_2_);fill:#C6093B;}
	.st1{clip-path:url(#SVGID_2_);fill:#FFFFFF;}
	.st2{fill:#C6093B;}
</style>
<g>
	<defs>
		<rect id="SVGID_1_" y="0" width="99.6" height="99.6"/>
	</defs>
	<clipPath id="SVGID_2_">
		<use xlink:href="#SVGID_1_"  style="overflow:visible;"/>
	</clipPath>
	<path class="st0" d="M50,98.9C22.9,98.9,0.9,77.1,0.8,50C0.8,22.9,22.7,0.9,49.7,0.9c27.1-0.1,49.1,21.8,49.1,48.9
		C98.9,76.5,77,98.8,50,98.9 M49.7,0C22.2,0.1-0.1,22.4,0,49.9c0.1,27.5,22.4,49.8,49.9,49.7c27.5-0.1,49.8-22.4,49.7-49.9
		C99.5,22.2,77.2-0.1,49.7,0"/>
	<path class="st0" d="M48.4,5.6c0.2,0,0.4,0.2,0.4,0.7c0,0.7-0.1,1.5-0.3,2c0.7,0,1,0,1.7,0c-0.3-0.7-0.4-1.6-0.4-2
		c-0.1-0.5,0.2-0.7,0.5-0.7c0.2,0,1.3,0,1.8,0.3l0-1.6c-0.6,0.3-1.2,0.4-1.8,0.4c-0.3,0-0.5-0.1-0.6-0.5c-0.1-0.7,0-1.6,0.2-2.2
		c-0.6,0-0.9-0.1-1.5,0c0.4,0.6,0.4,1.8,0.4,2.1c0,0.2-0.2,0.6-0.5,0.6c-0.6,0-1.2-0.1-1.8-0.3l0,1.5C47,5.6,47.8,5.5,48.4,5.6"/>
	<path class="st1" d="M74.9,29.8c0,0.2-0.2,0.4-0.4,0.4c-0.2,0-0.4-0.2-0.4-0.4c0-0.2,0.2-0.4,0.4-0.4
		C74.7,29.4,74.9,29.6,74.9,29.8"/>
	<path class="st1" d="M19.7,28.4c0,0.2-0.2,0.4-0.4,0.4c-0.2,0-0.4-0.2-0.4-0.4c0-0.2,0.2-0.4,0.4-0.4C19.5,28,19.7,28.2,19.7,28.4"
		/>
	<path class="st0" d="M42.4,7.4c0.1-0.2,0.2-0.4,0.4-0.9c0.4,0.3,1.7,0.7,1.1,1.6c-0.2,0.4-0.9,0.1-1.3,0C42.2,8,42.2,7.8,42.4,7.4
		 M41.9,3.8c0.2-0.4,1.1-0.2,1.5,0.2c0.2,0.2,0.1,0.4,0,0.5l-0.5,0.8C41.7,4.6,41.6,4.3,41.9,3.8 M36.2,4.9c0.5-0.1,0.7-0.3,0.8,0.1
		c0.4,1.3,0.7,2.2,1,3.7c0.2,0.7-0.4,0.6-0.6,0.7c-0.4,0.2-0.2,0.8,0.2,0.7c1.1-0.4,2.1-0.6,3.3-0.8c0.3,0,0.5-0.3,0.7-0.5
		c0.2-0.2,0.4,0,0.8,0.1c0.5,0.2,2.4,0.6,2.9-0.9c0.4-1-0.7-1.9-1.7-2.5c0.4-0.8,1.2-2.2,1.6-2.7c0.2-0.2-0.3-0.6-0.5-0.4
		c-0.1,0.1-0.3,0.4-0.4,0.5c-0.2,0.2-0.3,0.3-0.8,0c-0.8-0.5-2.5-0.4-3,0.8c-0.3,0.7,0.2,1.6,1.4,2.3C42.1,6.2,42,6.4,42,6.6
		c-0.3,0.8-0.6,1.1-1.1,1.9c-0.1,0.2-1.2,0.6-1.5-0.3c-0.5-1.4-0.6-1.9-1-3.4c-0.1-0.5,0.7-0.6,1-0.6c0.4-0.1,0.2-0.7-0.1-0.7
		c-1.2,0.3-2.1,0.5-3.3,0.9C35.8,4.4,35.9,5,36.2,4.9"/>
	<path class="st0" d="M58.3,7.8c0.1-0.1,0.3-0.3,0.4-0.5c0.3-0.2,0.5-0.4,0.7-0.2c0.4,0.4,1.2,1.1,0.5,1.7c-0.5,0.4-1.1,0.1-1.5-0.4
		C58.2,8.2,58.1,8,58.3,7.8 M59.6,4.2c0.3-0.3,0.8-0.2,1.1,0.1c0.2,0.1,0.1,0,0.2,0.2C61.1,4.7,61.2,5,61,5.1
		c-0.2,0.2-0.3,0.3-0.5,0.4c-0.2,0.1-0.4,0.5-0.7,0.2l-0.3-0.3C59.3,5.1,59.3,4.5,59.6,4.2 M56.9,9.1c0.3-0.2,0.5-0.5,1.1,0
		c1.5,1.3,2.8,0.6,3.3-0.1c0.4-0.6,0.3-1.6-0.8-2.6l2.6-2.1c0.2-0.2-0.1-0.6-0.3-0.5c-0.4,0.3-0.9,0.4-1.2,0.1
		C59,1.7,57,4.3,58.6,6.4l-2.1,2.3C56.2,8.9,56.7,9.3,56.9,9.1"/>
	<path class="st0" d="M32.1,6.5c0.1-0.6,2.1-0.7,2,0c0,0.3-0.2,0.7-0.2,0.9C33.4,7.3,32,7.5,32.1,6.5 M35,9.8
		c-0.1,0.9-1.5,0.6-1.7,0.6c-0.1,0-0.2-0.1-0.1-0.3c0-0.3,0.2-1.2,0.2-1.2C34.1,8.9,35.1,9,35,9.8 M32.5,8.7
		c-0.1,0.9-0.4,2.2-0.6,3.2c-0.1,0.4,0.5,0.5,0.6,0.2c0.1-0.3,0.2-0.6,0.4-0.8c1.4,0.3,3.3,0.2,3.5-1.6c0.2-1.6-1.2-1.8-1.8-2
		c0.1-0.9,0.3-2.2,0.6-3c0.1-0.3-0.4-0.5-0.6-0.1c-0.1,0.2-0.2,0.4-0.3,0.8c-2.5-0.3-3.5,0.5-3.6,1.5C30.5,7.6,31.1,8.4,32.5,8.7"/>
	<path class="st0" d="M62.2,9.6c-0.3,0-0.4,0.5-0.2,0.5c1.1,0.3,1.9,0.6,3.1,1.1c0.3,0.1,0.4-0.4,0.2-0.5c-0.3-0.2-0.9-0.5-0.7-1.2
		c0.3-1.2,0.6-2,1.1-3.3c0.2-0.5,0.6-0.2,1-0.2c0.3,0,0.4-0.4,0.2-0.5c-0.6-0.3-2.3-0.8-3-1c-0.3-0.1-0.5,0.4-0.2,0.6
		c0.2,0.1,0.8,0.2,0.7,0.7c-0.4,1.3-0.6,2.3-1.1,3.5C63.2,9.7,62.5,9.6,62.2,9.6"/>
	<path class="st0" d="M67.7,12.5c0.5,0.3,1.5,0.6,2.4,0.1c0.8-0.4,1.8-2.2,0.6-2.8c-0.3-0.2-1-0.5-1.6-0.7c-0.3-0.1-0.6,0.4-0.2,0.6
		c1.8,0.7,0.7,2.6-0.7,2.1c-0.3-0.1-0.6-0.3-0.5-0.8c0.1-0.7,0.9-2.7,1.4-3.3c1-0.8,2.1,0,2.3,0.7c0.1,0.3,0,0.4-0.2,0.6
		c-0.2,0.1,0,0.6,0.3,0.5c0.8-0.4,1.3-0.7,2.1-1c0.2-0.1,0-0.6-0.3-0.5c-0.3,0.1-1.1,0.4-1.4-0.2c-0.8-1.5-3.3-2.3-4.8,0.7
		C65.7,11.1,67,12.2,67.7,12.5"/>
	<path class="st0" d="M20,13.3c1.2-0.9,1.7,0.1,1.8,0.3c0.2,0.2,0.2,0.3,0,0.5c-0.3,0.2-0.6,0.5-0.8,0.7c-0.2,0.2-0.5,0.4-0.7,0.3
		C20,14.9,19.3,13.8,20,13.3 M22.7,14.7c0.3,0.3,0.5,0.6,0.8,1c0.2,0.2,0.2,0.4,0.1,0.6c-0.1,0.2-0.8,1.8-2.3-0.1
		c-0.1-0.2-0.2-0.3,0-0.6c0.3-0.3,0.6-0.6,0.9-0.9C22.4,14.6,22.6,14.6,22.7,14.7 M20.6,17.7c0.7,0.5,1.5,0.9,2.3,0.5
		c0.7-0.4,1.4-1.2,1.7-1.9c0,0,0.6-0.1,1.1-0.3c0.3-0.2,2.3-1.5,3.5-2.2c0.3-0.2,0-0.6-0.3-0.6c-0.4,0.1-0.7,0.3-1,0.1
		c-0.3-0.3-1.4-2.2-2.1-3.5c-0.2-0.3,0.2-0.4,0.7-0.7c0.4-0.2,1-0.4,1.2,0c0.9,1.9,1.7,3.7,2.2,3.9c0.4,0.2,1.2-0.1,1.4-0.6
		c0.2-0.5-0.2-0.7-0.5-0.6c-0.3,0.2-0.5,0.2-0.7-0.1c-0.6-0.8,0-2.1-0.3-2.8c-0.2-0.5-1.9-1.3-2.3-1.3c-0.6,0.1-2.4,1.1-4.2,2.5
		c-0.3,0.2,0,0.6,0.3,0.5c0.3-0.1,0.7-0.4,0.9-0.1l2.1,3.3c0.2,0.4-0.3,0.8-0.8,1.1c-1.1,0.7-1.7-0.3-2.4-1.2
		c-0.9-1.3-1-2.1-0.8-2.5c0.2-0.3,0-0.5-0.2-0.5c-0.4,0.1-0.7,0.5-0.8,1c-0.1,0.3-0.2,0.3-0.5,0.4c-1.1,0.3-2.4,0.7-2.5,1.8
		C18.5,15.4,19.3,16.7,20.6,17.7"/>
	<path class="st0" d="M74.1,10.4c-0.6,1.2-1,2-1.7,3c-0.4,0.5-0.7,0.2-1.3-0.1c-0.3-0.1-0.5,0.4-0.3,0.5c0.5,0.3,1.8,1.2,2.8,1.8
		c0.2,0.2,0.6-0.2,0.4-0.5c-0.2-0.2-0.7-0.4-0.4-1c0.7-1.3,1-2,1.8-3.1c0.3-0.5,0.9-0.2,1.1-0.1c0.3,0.1,0.5-0.4,0.3-0.5
		c-0.9-0.5-1.8-1.1-2.7-1.6c-0.3-0.2-0.7,0.2-0.4,0.5C74,9.7,74.3,9.9,74.1,10.4"/>
	<path class="st0" d="M77.7,12.8c-0.9,1.3-1.2,1.8-2.3,3.2c-0.2,0.2-0.5-0.1-0.7-0.1c-0.2-0.1-0.5,0.4-0.3,0.6c0.4,0.3,2.6,2,3.7,3
		c0.2,0.2,0.6,0,0.4-0.4c-0.1-0.3-0.5-0.7,0-1.2c1-1,1.7-1.4,2.8-2c0.4-0.3,0.6,0,0.9-0.1c0.3,0,0.3-0.4,0.1-0.6
		c-1.3-0.8-3.6,1.1-5,1.9c-0.4,0.3-0.9-0.1-0.6-0.6c0.8-1.1,1.3-1.8,2.2-2.9c0.4-0.4,0.7-0.1,0.9,0c0.2,0.1,0.6-0.3,0.4-0.4
		c-0.9-0.7-1.3-1.1-2.2-1.8c-0.3-0.3-0.7,0.2-0.4,0.4C77.5,12,78.1,12.3,77.7,12.8"/>
	<path class="st0" d="M19.3,21.9c0.9-0.9,1.4-2.2,0.4-3.3c-0.9-1.1-2.4-0.4-2.9,0.5c-0.3,0.5,0,0.8,0.3,0.6c0.6-0.3,0.9-0.6,1.5,0.1
		c0.5,0.7,0.7,1,0.3,1.5c-0.4,0.4-1.1,0.3-1.6,0.1c-0.7-0.3-1.6-1.1-2.3-2.1c-0.4-0.5-0.2-1.3,0.2-1.7c1.4-1.1,1.6,0.1,3-0.1
		c0.3,0,0.4-0.4,0.2-0.5c-1.1-0.6-1.3-1.1-1.5-1.9c-0.1-0.4-0.6-0.2-0.6,0.1c0,0.4,0.1,0.7-0.3,1c-1,0.6-1.4,0.8-1.9,1.5
		c-0.9,1-0.4,2.6,0.8,3.9C16.2,22.8,17.8,23.3,19.3,21.9"/>
	<path class="st0" d="M82.7,17.2c-0.9,1-1.4,1.6-2.6,2.7c-0.2,0.2-0.4,0-0.6,0c-0.3-0.1-0.6,0.2-0.4,0.5c1,1.2,2.4,2.6,3.2,3.6
		c0.2,0.3,0.6,0,0.5-0.4c-0.2-0.5-0.5-0.6,0-1.1c0.7-0.7,1.6-1.2,2.8-1.8c0.7-0.3,1.2,0.7,0.9,1.3c-0.9,1.6-1.5,2.5-2.3,4.2
		c-0.1,0.1,0.1,0.3,0.2,0.4c2.6,0.2,4.9-0.5,5.7-0.1c0.3,0.3,0.8,0,0.6-0.3c-0.5-0.9-0.7-1.2-1.3-2.2c-0.2-0.3-0.6-0.1-0.6,0.2
		c0,0.3,0.2,0.4-0.2,0.6c-1.1,0.6-1.8,0.8-3.2,1c-0.3,0-0.4,0-0.2-0.2c0.8-1,1.5-1.8,2.4-2.5c0.2-0.2,0.4-0.1,0.5,0.1
		c0.2,0.2,0.6-0.1,0.5-0.4c-0.7-1-1-1.6-1.8-2.6c-0.8-1.2-3.5,0.5-4.9,1.1c-0.5,0.2-1.1-0.2-0.6-0.7c1-1,1.4-1.4,2.4-2.4
		c0.5-0.4,0.7,0.1,0.9,0.2c0.3,0.2,0.7-0.2,0.4-0.5c0,0-1.6-1.5-1.8-1.8c-0.2-0.2-0.6,0-0.5,0.3C82.8,16.8,83,16.9,82.7,17.2"/>
	<path class="st0" d="M11,23.5c0.2-0.2,0.5-0.6,0.7-0.4c0.2,0.2,1,0.7,1.2,0.9c0.3,0.2-0.1,0.6-0.2,0.7c0,0-0.4,0.6-0.5,0.7
		c-0.1,0.2-0.3,0.3-0.4,0.2c-0.4-0.3-0.5-0.5-0.8-1C10.8,24.3,10.7,24,11,23.5 M9.2,26.3c0.3-0.6,0.5-0.9,0.7-1.2
		c0.2-0.2,0.3,0.1,0.3,0.1c0,0.2,0,1.3,0.4,1.8c0.6,0.6,1.8,0.1,2.2,0.6c0.3,0.3,0.4,0.7,0.3,1c-0.2,0.8,0.8,1.2,1,0.3
		c0.3-1.1-0.7-1.5-1.2-2.3c-0.2-0.2-0.1-0.2,0.1-0.5c0.1-0.2,0.7-1.1,0.9-1.4c0.5,0.3,0.5,0.3,0.9,0.7c0.5,0.5-0.2,1.1-0.4,1.5
		c-0.1,0.3,0.4,0.7,0.6,0.4c0.7-1.2,1.6-2.5,2.2-3.3c0.3-0.4-0.3-0.7-0.6-0.5c-0.4,0.3-0.7,0.9-1.2,0.6c-1.1-0.8-1.8-1.2-3-2.1
		c-0.4-0.3,0.2-0.9,0.4-1.4c0.1-0.3-0.3-0.6-0.5-0.4C11,22,9.7,23.9,8.6,25.9C8.4,26.2,9,26.7,9.2,26.3"/>
	<path class="st0" d="M7,30.4c0.2-0.5,0.5-1.1,1.1-0.9c1,0.5,0.2,1.8,0,2.2c0,0-1-0.3-1.2-0.4C6.8,31.2,6.9,30.6,7,30.4 M5.6,32.9
		c0.2-0.3,0.3-0.5,0.7-0.4c1.5,0.5,3.5,1.3,3.5,1.3c0.6,0.2,0.5,0.5,0.3,1.4c-0.1,0.3,0.5,0.6,0.6,0.3c0.4-1.2,1.3-3.2,1.3-3.2
		c0.1-0.2-0.4-0.5-0.6-0.3c-0.1,0.2-0.4,0.8-0.8,0.7L9,32.1c0.7-2.1,2.1-0.5,3.3-0.8c0.7-0.2,0.9-0.7,0.8-1.5
		c-0.1-0.5-0.6-0.4-0.6-0.1c0,0.4-0.3,0.5-0.5,0.5c-0.4,0-0.8-0.5-1.2-0.6c-0.4-0.1-0.8,0-1,0.3c-0.1,0.2-0.3,0.2-0.3,0
		c0.1-0.8-0.2-1.4-0.8-1.7c-0.5-0.2-1.3-0.1-1.8,0.9c0,0-1.1,2.4-1.7,3.8C4.9,33,5.4,33.2,5.6,32.9"/>
	<path class="st0" d="M89.1,26.9c-0.9,0.3-1.5,2.1-2.2,2.2c-0.5,0.1-0.5-1.2-1-0.7c-0.5,0.5,0.4,2,1.6,1.3c1.2-0.6,1.7-0.8,2.9-1.4
		c0.3-0.1,0.7-0.4,0.9,0c0.2,0.4-0.3,0.7-0.6,0.9c-0.8,0.4-1.6,0.8-2.4,1.2c-0.3,0.1-0.4,0.3-0.7,0.1c-0.2-0.1-0.4,0.1-0.4,0.3
		c0.2,0.4,0.3,0.7,0.4,0.9c0.1,0.2,0.5,0.1,0.4-0.1c0-0.2,0.1-0.1,0.3-0.3c1.3-0.7,1.5-0.9,2.8-1.4c0.7-0.3,1.4,0.3,0.5,0.7
		c-1.3,0.6-1.9,0.9-3.2,1.5c-1,0.5-0.3,2,0.1,1.9c0.6-0.2,0-1.1,0.5-1.4c0.3-0.2,2.2,0,2.8-0.1c0.5-0.2,1.3-2.2,1.2-2.5
		c-0.1-0.2-1-0.9-1-1.1c-0.1-0.2,0-1.2-0.1-1.4C91.9,27.2,89.8,26.7,89.1,26.9"/>
	<path class="st0" d="M4.7,36.3c0.3-0.9,0.3-1.2,1.4-1c1.1,0.2,0.9,1,0.8,1.6c0,0.3-0.2,0.5-0.3,0.4c-0.8-0.2-1-0.3-1.8-0.5
		C4.6,36.8,4.6,36.6,4.7,36.3 M4,38.8c0.1-0.4,0.3-0.7,0.6-0.6c1.6,0.4,2.1,0.6,3.6,1.1c0.6,0.1,0.3,0.9,0.2,1.4
		c-0.1,0.3,0.6,0.5,0.6,0.1c0.1-0.5,0.7-2.9,1.1-3.9c0.2-0.4-0.5-0.5-0.6-0.2c-0.3,0.5-0.4,1.4-1,1.3c-0.5-0.1-0.6-0.2-1.1-0.3
		c0.2-1.1,1-3.2-1-3.6c-1-0.2-1.7,0-2,0.6c-0.6,1.3-0.9,2.9-1.1,4.1C3.3,38.9,3.9,39,4,38.8"/>
	<path class="st0" d="M92.6,34c-0.4,0.2-0.5,0.6-0.4,1c0.2,0.4,0.6,0.4,0.9,0.3c0.3-0.1,0.6-0.4,0.4-0.9C93.4,34.1,93,33.9,92.6,34"
		/>
	<path class="st0" d="M90.1,35.1c-0.4,0.2-0.5,0.6-0.3,1c0.2,0.4,0.7,0.4,1,0.2c0.2-0.2,0.5-0.5,0.3-1
		C90.8,34.9,90.4,34.9,90.1,35.1"/>
	<path class="st0" d="M96.8,49.1c0,0.4-0.1,1.1-0.6,1.1c0,0-2.9,0.1-3.5,0.1c-0.4,0-0.6-0.3-0.6-0.7c-0.1-1,0.1-1.7,0.7-1.8
		c1.2-0.2,1.5,0.7,2.3,0.7c0.5,0,2.4-1,2.3-2c-0.2-2.1-0.3-4.4-0.9-6.3c-0.1-0.3-0.2-0.3-0.5-0.3c-1.3,0.3-2.3,0.2-3.7,0.1
		c-0.5,0-0.4-0.2-0.2-0.4c1.1-0.8,1.9-1.2,2.8-1.6c1.1-0.4,1.1,0,0.9-0.7c-0.3-1-0.3-1.3-0.6-1.9c-0.1-0.3-0.6-0.2-0.6,0.1
		c0.1,1.4-2.4,2.7-3.9,4.2c-0.2,0.2-0.1,0.5,0.1,0.5c2,0.7,2.9,0.4,4.8,1.3c0.3,0.2,0.5,0.5,0.6,1c0,0.3,0.2,0.6-0.4,0.7
		c-1.2,0.1-2.1,0.2-3.6,0.2c-0.5,0-0.6-0.7-0.8-1.5c-0.1-0.3-0.6-0.2-0.6,0.1c0,0.3,0.4,4.1,0.4,4.1c0,0.3,0.6,0.3,0.6,0
		c0.1-0.5-0.2-1.3,0.4-1.3c1.4-0.2,2.1-0.2,3.6-0.3c0.6,0,0.5,0.2,0.6,0.6c0,0.2,0,0.3,0,0.4c0,0.4-0.3,0.8-0.6,0.8
		c-0.4,0-3,0.2-3,0.2c-2.4,0.3-1.1,2.4-1.7,6.3c-0.1,0.5,0.6,0.5,0.7,0c0.1-0.6,0.2-1.5,0.7-1.5c0.4,0,3-0.1,3.5-0.1
		c0.4,0,0.4,0.4,0.5,0.8c0,0.2,0,0.4,0,0.8c-0.1,0.2-0.1,0.4-0.4,0.6c-1.6,0.6-5,1.4-5.1,1.9C91,56,93.9,57.6,95.2,59
		c0.4,0.3,0.4,0.8,0.4,1.1c0.1,0.3,0.5,0.3,0.6-0.1c0.3-1.3,0.5-2.5,0.5-2.9c0-0.4-0.5-0.3-0.6-0.1c-0.1,0.3,0,0.5-0.6,0.3
		c-0.7-0.2-3-1.2-3.4-1.5c-0.3-0.2-0.3-0.3,0.1-0.3c1.5-0.2,3.8-0.3,4.3-0.1c0.2,0.1,0.3,0.4,0.5-0.4c0.3-2.3,0.3-5.4,0.3-5.9
		C97.4,48.7,96.8,48.8,96.8,49.1"/>
	<path class="st0" d="M4.2,40.8c-0.2,0.4-0.2,0.8,0.1,1c0.3,0.3,0.9,0.2,1.1-0.1c0.2-0.3,0.2-1-0.2-1.2C4.8,40.4,4.3,40.6,4.2,40.8"
		/>
	<path class="st0" d="M2.9,46.3c0-0.4,0.1-1.1,0.2-1.3c0.4,0.2,0.5,1.1,1.3,1.2c0.6,0.1,1.5-0.7,2.3-0.7c0.8,0.1,0.9,0.8,1,1.3
		c0,0.2,0.4,0.2,0.5,0c0.2-0.5,0.3-1.5-0.4-2c-0.8-0.5-1.6-0.3-3.1-0.4c-1-0.1-1.5-0.8-1.5-1.7c0-0.3-0.5-0.4-0.6-0.1
		c-0.1,0.3-0.4,2.8-0.3,3.5C2.3,46.5,2.9,46.6,2.9,46.3"/>
	<path class="st0" d="M6.7,41.3c-0.4,0.2-0.5,0.5-0.4,0.9c0.2,0.4,0.6,0.5,1,0.3c0.3-0.2,0.4-0.6,0.3-1C7.5,41.3,7.1,41.1,6.7,41.3"
		/>
	<path class="st0" d="M2.9,50.8c0.1-0.5,0-0.8,0.4-0.8c1.4-0.1,2.2-0.1,3.6,0c0.4,0,0.3,0.6,0.4,1.1c0.1,0.3,0.6,0.3,0.6,0
		c0-0.7,0-2.4,0.1-3.1c0-0.5-0.6-0.5-0.7,0c-0.1,0.3,0.1,0.8-0.5,0.8c-1,0-2.5-0.1-3.5-0.1c-0.5,0-0.3-0.7-0.5-1.1
		c-0.1-0.3-0.6-0.3-0.6,0.1c0,0.6,0.1,2.3,0,3.3C2.3,51.1,2.8,51.1,2.9,50.8"/>
	<path class="st0" d="M3.3,55c-0.1-0.4-0.1-0.8-0.1-1.1c0-0.2,0.1-0.6,0.4-0.7c1.2-0.1,2-0.2,3.2-0.2c0.4,0,0.6,0.5,0.7,0.7
		c0,0.2,0.1,0.5,0.1,0.9C6.2,54.9,4.7,55,3.3,55 M4.8,64c0.3-1.7,2.8-2.6,4.4-4.1c0.1-0.1,0.1-0.4-0.1-0.4c-2-0.7-3.9-0.8-4.8-1.2
		c-0.8-0.3-0.8-0.8-0.8-1.3c0-0.2,0-0.5,0.3-0.6c1.3-0.2,2.3-0.2,3.6-0.2c0.6,0,0.5,0.3,0.7,1.1c0.1,0.3,0.6,0.3,0.6-0.1
		c-0.3-2.4-0.2-3.4-0.7-4.4c-0.8-1.4-5.3-1.5-5.5,0.5c-0.2,1.1,0.3,3.9,0.8,6.9c0,0.3,0.5,0.2,0.6-0.1c0.1-0.6,0.4-0.5,0.6-0.5
		c0.8,0,2.3,0,3.4,0.2c0.4,0,0.4,0.1,0.1,0.3c-1.2,0.7-2,1.2-3.3,1.6c-0.2,0.1-0.3,0.1-0.5-0.2c-0.2-0.2-0.6,0.1-0.5,0.3
		c0.3,1,0.4,1.3,0.7,2.3C4.3,64.3,4.8,64.4,4.8,64"/>
	<path class="st0" d="M8.5,68.6c-0.4-0.1-0.6-0.1-1.1-0.2c-0.2,0-0.5,0-0.6-0.4c-0.2-0.5,0.2-0.6,0.5-0.7c0.6-0.3,2-0.9,2.7-1.2
		c0.6-0.3,0.7,0.4,1.3,1.1c0.2,0.3,0.8,0,0.6-0.3c-0.8-1.3-1.2-2.5-1.8-3.9c-0.2-0.4-0.7-0.1-0.6,0.2c0.3,1.1,0.6,1.5,0,1.7
		c-1.1,0.4-2.4,1-2.8,1.2C6.4,66.3,6,66.4,5.9,66c-0.2-0.4,0-0.5,0.2-0.7c0.3-0.4,0.7-0.7,0.8-0.9c0.1-0.2,0-0.6-0.4-0.4
		c-0.5,0.2-1.2,0.4-2,0.9c0.6,1.7,1.3,3.1,2,4.8c0.9-0.2,1.2-0.3,2.1-0.5C9,69.1,9,68.6,8.5,68.6"/>
	<path class="st0" d="M94.6,63.3c-0.6,0-1.1-0.2-1.6-0.4c0.1-0.4,0.4-1.5,0.5-2C94.7,61.2,95.6,62.1,94.6,63.3 M92.3,62.6
		c-0.6-0.1-1.1-0.3-1.8-0.5c-0.4-1.8,0.9-1.9,2.2-1.5C92.7,61.2,92.4,62.2,92.3,62.6 M91.4,67.2l1.6,0.6
		C92.4,70.5,90,69.5,91.4,67.2 M87.8,72.5c-0.9,0.5-1.6,0.8-1.9,0.1c-0.1-0.3,0-1,0.7-1.2C86.9,71.3,87.3,71.4,87.8,72.5 M90.1,73.7
		c0.1,0.3-0.2,0.9-0.9,1.1c-0.8,0.2-1.1-0.3-1.3-0.9C88.5,73.7,89.8,72.7,90.1,73.7 M95.5,60.8c-1.1-1.6-3.5-2.4-4.9-1.5
		c-1.3,0.7-0.6,2.9-1,3.5c-0.6,0.9-1,2.2-1.5,3.5c-0.1,0.4,0.3,0.6,0.5,0.3c0.2-0.3,0.4-0.3,0.6-0.2c0.4,0.2,0.9,0.4,1.5,0.6
		c-0.5,1.3-1.1,1.3-1.9,0.9c-0.7-0.4-2.4,0.2-2,2.2c0.1,0.7-0.3,0.7-0.6,0.9c-0.3,0.1-2.2,1-1.1,2.8c0.5,0.9,1.3,1,2.4,0.6
		c0.3,0.7,0.6,1.2,0.9,2c0.1,0.3-0.1,0.6-0.4,1c-0.3,0.3-0.8,0.9-1.2,0.7l-2.6-2c-0.5-0.3,0-0.7,0.2-1.5c0.1-0.3-0.3-0.6-0.5-0.3
		c-0.9,1.2-1.4,1.8-2.4,3c-0.3,0.3,0.2,0.6,0.5,0.4c0.8-0.6,0.9-1.1,1.5-0.6l2.4,1.8c0.4,0.3,0,0.9-0.3,1.4
		c-0.1,0.3,0.2,0.7,0.6,0.3c1-1.1,1.9-2.4,2.8-3.6c0-0.3-0.1-0.4-0.1-0.7c-0.1-0.6,0.4-0.6,0.9-0.8c0.6-0.2,1.8-1.3,1.2-2.7
		c-0.5-1.1-1.8-0.9-2.6-0.5c-0.4-0.8-1.5-2.4-0.8-2.9c0.5-0.4,1.5,0.6,2.2,0c0.4-0.4,0.5-0.4,0.5,0.2c0,0.6,0.3,1.1,0.9,1.3
		c0.7,0.2,1.5,0,2.1-1.2c0.4-0.9,0.8-1.6,1.3-3.3c0.1-0.4-0.3-0.6-0.5-0.2c-0.3,0.3-0.7,0.5-1.1,0.3c-1.3-0.5-1.7-0.6-3-1.2
		c-0.4-0.2-0.5-0.5-0.1-1.2c0.3-0.6,0.8-1.1,2.8-0.3c2,0.7,1.5,0.8,1.9,1.5c0.2,0.4,0.7,0.3,0.6-0.1C94.8,62.7,96.7,62.5,95.5,60.8"
		/>
	<path class="st0" d="M12.2,72.2c-0.8,0-1.1,0-1-0.5c0.1-0.6,0.2-1,0.8-1.1c0.6,0,0.8,0.4,0.9,1C13,72.3,12.8,72.2,12.2,72.2
		 M9,72.5c-0.4,0-0.6-0.8-0.5-1.3c0-0.3,0.5-0.5,1.5-0.3C9.9,71.6,10.1,72.7,9,72.5 M14.5,72.4c-1.8-0.1-0.1-2.7-2.4-3.1
		c-1-0.2-1.6,0.1-1.9,0.8c-1.1,0.1-2.1-0.1-3.1,0c-0.2,0-0.4,0-0.4,0.2c0,0.3,0.1,0.5,0.3,0.4c1.5,0-0.3,2.6,1.9,3.3
		c1.2,0.3,1.8-0.6,2.1-1.1c1.3-0.1,2.4,0.1,3.6,0.1C15,73.1,14.9,72.4,14.5,72.4"/>
	<path class="st0" d="M13,75.5c0.3-0.1,0.5-0.5,0.3-0.9c-0.2-0.5-0.7-0.5-1-0.4c-0.3,0.2-0.5,0.6-0.3,0.9
		C12.1,75.6,12.6,75.7,13,75.5"/>
	<path class="st0" d="M17.4,79.2c0.1-0.8,1-0.4,1.2-0.4c0.2,0.1,0.7,0,0.3-0.7c-0.2-0.4-0.7-0.5-1.2-0.2c-1.3,0.6-2.1,2.2-2.7,2.7
		c-0.4,0.4-0.8,0-0.9-0.1c-0.2-0.3,0-0.3,0.1-0.4c1-0.9,1.7-1.6,2.7-2.5c0.1-0.1,0.2-0.1,0.2-0.1c0.2,0.1,0.4-0.1,0.3-0.3
		c-0.1-0.1-0.3-0.4-0.4-0.6c-0.2-0.4-0.5-0.1-0.5,0c0.1,0.1,0,0.2-0.1,0.3c-0.9,0.9-1.7,1.6-2.7,2.5c-0.2,0.2-0.2,0.3-0.4,0.1
		c-0.2-0.3-0.2-0.6,0-0.8c0.9-1,1.8-1.4,2.8-2.3c0.2-0.2,0.4-0.7-0.1-1.3c-0.6-0.6-1,0.3-0.7,0.5c0.2,0.1,0.4,0.2,0.1,0.5
		c-0.8,0.7-1.9,0.3-2.3,0.5c-0.4,0.2-0.8,1.6-0.7,2.5c0.1,0.5,0.5,1,0.9,1.5c0.4,0.5,0.7,1,1.2,1c0.7,0.1,2.3-0.1,2.5-0.4
		C17.3,80.8,17.2,80.2,17.4,79.2"/>
	<path class="st0" d="M27.2,90.5c-0.1,0.2-0.4,0.1-0.6,0c-0.3-0.2-1.4-0.6-0.8-1.4c0.5-0.6,1.6,0,2,0.2C27.5,89.9,27.4,90,27.2,90.5
		 M28.3,90.9l1.4-2.9c0.2-0.3,0.4-0.5,0.9-0.3c0.2,0.1,0.4-0.3,0.2-0.5c-0.5-0.4-1.4-0.9-1.9-1.2c-0.4-0.3-0.7,0.2-0.4,0.4
		c0.2,0.2,0.4,0.4,0.2,0.8L28,88.6c-2.1-1.1-0.1-2.3-0.6-3.3c-0.3-0.5-0.9-0.5-2-1.4c-0.9-0.6-1.6-1.2-2-1.7
		c-0.2-0.2-0.6,0.2-0.4,0.5c0.3,0.3,0.9,0.9,0.5,1.5c-0.4,0.7-0.8,1.2-1.1,1.7c-0.4,0.6-0.8,1.1-1.5,0.5c-0.5-0.4-0.4-0.5-0.2-1.3
		c0.3-1,0.7-2.3,1.1-4.2c0-0.2-0.2-0.4-0.4-0.3c-1.7,0.6-3.1,1.1-3.7,1.3c-0.5,0.2-1.2,0.4-1.7,0.2c-0.3-0.1-0.7,0.2-0.4,0.5
		c0.6,0.7,1.1,1.1,1.6,1.6c0.2,0.2,0.6-0.1,0.5-0.3c-0.1-0.2,0.1-0.4,0.2-0.5c0.8-0.8,1.5-1.2,2.8-1.8c0.2-0.1,0.3-0.1,0.2,0.2
		c-0.5,1.4-1,2.7-2.2,3.7c1.3,1.3,3.8,3.2,4.3,3.5c0.2,0.2,0.6-0.2,0.4-0.5c-0.3-0.3-0.6-0.6-0.4-1l1.5-2.4c0.3-0.5,0.8-0.3,1.3,0.1
		c1.5,1.1-1,1.4,0.2,2.7c0.3,0.3,0.1,0.3-0.1,0.2c-0.3-0.1-1-0.1-1.3,0.3c-1.3,1.8,3.5,3.8,4,4.1c0.2,0.1,0.5-0.4,0.3-0.6
		C28.4,91.5,28.2,91.4,28.3,90.9"/>
	<path class="st0" d="M83.4,79.8c0.1,0.3,0.2,0.5,0.4,1.1c0.2,0.5,0.2,0.5-0.1,0.9c-0.4,0.4-0.5,0.3-1.1-0.2c-0.8-0.8-1.1-1.1-2-1.9
		c-0.3-0.3,0.3-0.8,0.5-1.2c0.2-0.3-0.1-0.7-0.4-0.4c-1,0.9-1.7,1.5-2.7,2.3c-0.2,0.2,0,0.6,0.4,0.5c0.9-0.2,1-0.6,1.4-0.3
		c0,0,1.7,1.7,1.9,1.9c0.5,0.5,0.6,0.6,0.3,0.8c-0.4,0.3-0.5,0.1-1,0c-0.4-0.1-0.4-0.1-1.1-0.3c-0.2,0-0.5,0.3-0.2,0.5
		c0.9,0.6,1,0.7,1.9,1.2c1.4-1,2.2-2,3.5-3.2c-0.5-0.8-1.1-1.8-1.4-2C83.7,79.4,83.4,79.5,83.4,79.8"/>
	<path class="st0" d="M77.7,87c-0.2,0.4-0.7,0.8-1,0.3c-0.2-0.4-0.5-0.8-0.9-1.5l1.5-1.5C77.7,85.2,78.2,85.8,77.7,87 M80.5,85
		c-0.6,0.4-1,0.8-1.5,1c-0.1-0.6,0.4-1.3,0.1-1.7c-0.3-0.4-2.3-0.9-1.6-2.5c0.3-0.5-0.1-0.8-0.6-0.4c-0.9,0.6-0.3,1.4-0.1,2.3
		c-0.3,0.4-1,1.1-1.5,1.6c-0.4-0.6-0.8-1.1-1.1-1.7c-0.5,0.3-1.6,1.1-1.7,1.2c-0.3,0.2-0.1,0.6,0.2,0.5c0.4-0.2,0.7-0.5,1-0.1
		c0.8,1.2,1.2,1.9,2,3.1c0.2,0.3,0.1,0.5-0.2,0.7c-0.2,0.2,0.1,0.7,0.4,0.5c0.2-0.2,5.1-3.9,5.1-3.9C81.3,85.3,80.8,84.8,80.5,85"/>
	<path class="st0" d="M31.6,92.7c-0.6-0.3-0.4-0.8,0.2-1.7c0.1-0.1,0.3-0.1,0.6-0.1l1.1,0.4C33.2,91.7,32.7,93.2,31.6,92.7
		 M41.3,90.9c-1.5-0.4-2.3-0.6-3.8-1.1c-0.4-0.2-0.7,0.4-0.4,0.5c0.2,0.2,0.2,0.4,0.2,0.5c-0.5,1.2-0.8,1.7-1.8,2.8
		c-0.5,0.5-1.3,0.1-2-0.1c-0.2-0.1-0.2-0.2,0-0.3c0.4-0.1,0.8-0.1,1.2-0.7c0.5-0.6,0-1.8,0.5-2.4c0.4-0.4,1.1,0.1,1.3-0.5
		c0.1-0.4-0.4-0.6-0.5-0.6c-1.2-0.3-1.7,1.1-2,1.6c-0.5-0.2-1.2-0.4-1.2-0.4c-0.3-0.1-0.5-0.2-0.3-0.6c0.2-0.4,0.5-0.9,0.6-1.4
		c-0.6-0.3-0.9-0.4-1.4-0.7c-0.3-0.2-0.5,0.2-0.4,0.3c0.3,0.4,0.2,0.6,0.1,0.9c-0.4,1-1.2,2.5-1.5,3c-0.2,0.4-0.3,0.3-0.6,0.2
		c-0.3,0-0.4,0.4-0.2,0.5c1.8,1,4.5,1.9,5.4,2.1c1.2,0.3,2.9-1.6,3.9-3.3c0.2-0.3,0.8-0.1,0.7,0.2c-0.3,1.3-0.3,1.8-0.6,3.1
		c-0.1,0.5-0.4,0.5-1,0.4c-0.3,0-0.4,0.5-0.1,0.6c1.1,0.3,1.9,0.5,3.1,0.7c0.3,0,0.4-0.5,0.1-0.6c-0.7-0.2-1-0.3-0.9-0.9
		c0.1-0.6,0.6-2.9,0.6-2.9c0.1-0.5,0.4-0.4,0.7-0.4C41.5,91.5,41.7,91,41.3,90.9"/>
	<path class="st0" d="M62.9,91.7c-0.1,0.5-0.3,0.8-0.6,0.6c-0.8-0.5-1.4-0.7-1.1-1.4C61.6,90.2,63.1,90.6,62.9,91.7 M62.8,94.8
		c-0.2,0.5-0.7,0.4-1.1,0.4c-0.6-0.1-0.6-0.2-0.4-0.8c0.2-0.8,0.3-1,0.8-0.8C62.7,93.9,63,94.2,62.8,94.8 M68.9,92.6
		c-0.8,0.2-0.9,0.5-1.2-0.1c-0.7-1.3-0.6-1.1-1.2-2.6c-0.4-1,0.3-1.1,0.7-1.4c0.3-0.2,0.1-0.8-0.3-0.6c-0.7,0.4-1.9,0.8-2.7,1.2
		c-0.5,0.2-0.7,0.3-0.9,0.7c-0.2,0.5-0.4,0.4-1.3,0c-0.7-0.3-2-0.1-2.4,0.9c-0.3,1,0.2,1.7,1.3,2.3c-0.2,1-0.8,2.3-1,3.2
		c-0.1,0.4,0.4,0.5,0.6,0.1c0.4-0.8,0.5-0.8,1.3-0.6c0.8,0.2,2.1,0,2.4-1.2c0.2-0.9-0.3-1.3-1-1.8c0.2-0.8,0.5-1.6,0.8-2.4
		c0.2-0.6,1-0.9,1.3-0.3c0.5,1.1,0.7,1.7,1.1,2.8c0.3,0.9-0.4,0.9-0.7,1.2c-0.3,0.3,0,0.8,0.3,0.6c1.3-0.5,2.7-1.2,3.2-1.4
		C69.6,93.2,69.4,92.5,68.9,92.6"/>
	<path class="st0" d="M44.7,96c-0.1,0.5-0.4,0.6-0.9,0.5c-0.4,0-0.8-0.1-0.8-0.6c-0.1-1.3,0-2.1,0.2-3.3c0.1-0.5,0.3-0.6,0.9-0.6
		c0.6,0.1,0.8,0.3,0.8,0.7C45,94.1,44.9,94.7,44.7,96 M44.3,91.3c-2.1-0.2-2.4,1.1-2.6,2.6c-0.1,1.1-0.3,3,2,3.3
		c2.1,0.2,2.6-1.1,2.7-2.9C46.3,93.2,46.4,91.4,44.3,91.3"/>
	<path class="st0" d="M55.7,92.8c-0.2,0.3-0.4,1-0.8,0.7c-0.4-0.3-0.9-0.6-0.7-1.2c0.3-0.6,1-0.4,1.3-0.2
		C55.8,92.4,55.9,92.4,55.7,92.8 M55.4,96c-0.2,0.6-1,0.5-1.6,0.2c-0.4-0.2,0.2-1.3,0.3-1.6C55.1,95.1,55.5,95.4,55.4,96 M56.8,91.1
		c-0.5,0.5-0.5,0.7-1.4,0.3c-1-0.4-2.1-0.2-2.5,0.6c-0.5,0.9-0.2,1.6,0.6,2.3c0,0.6-1.2,2.6-1.4,3c-0.2,0.4,0.4,0.6,0.6,0.3
		c0.2-0.4,0.6-0.9,1.2-0.5c1.1,0.7,2,0.5,2.7-0.4c0.6-1,0.1-2.1-0.7-2.5c0.4-1,0.8-1.8,1.3-2.6C57.5,91.1,57,90.8,56.8,91.1"/>
	<path class="st0" d="M49,96.6c-0.3,0-0.5,0-0.5-0.8c0-1.2,0-1.5,0-2.4c0-0.6,0.2-0.7,0.6-0.8c0.8-0.2,1.4-0.4,1.4,2
		C50.5,96.9,49.6,96.7,49,96.6 M49,91.8c-0.6,0.3-0.8,0.4-1.9-0.2c-0.2-0.2-0.6,0.3-0.3,0.5c0.5,0.3,0.6,0.5,0.6,1.1
		c0,0.9,0.1,1.5,0,2.4c-0.1,0.5-0.3,0.8-0.8,1.1c-0.3,0.2-0.1,0.6,0.3,0.5c0.8-0.2,1.1-0.2,1.6,0.1c2.5,1,3.4-0.4,3.4-2.8
		C51.8,91.5,50.3,91.2,49,91.8"/>
	<path class="st0" d="M58.1,93.6c-0.3,0.2-0.5,0.5-0.3,0.9c0.1,0.3,0.5,0.4,0.8,0.3c0.3-0.1,0.5-0.5,0.4-0.9
		C58.9,93.6,58.5,93.4,58.1,93.6"/>
	<path class="st0" d="M74.8,89.2c-0.4-0.2-0.7-0.2-0.9-0.1c-0.3,0.2-0.5,0.2-0.6,0c-0.3-1.7-1.1-3.8-3.5-2.7c-2.4,1.2-1.8,4.3,0,4
		c1.1-0.2,0.5-0.6,0.1-0.9c-0.5-0.4-0.7-2,0.4-2.4c1-0.3,1.5,1.6,1.7,2.4c0.2,0.8,0.2,1.3-0.5,1.7c-0.5,0.4-0.8,0.2-1.5,0.6
		c-0.5,0.3-0.6,0.7-0.1,0.7c0.4,0.1,1.9-0.1,2.5-0.4c0.9-0.5,1.3-2.5,2.5-2.2C75.1,89.9,75.4,89.5,74.8,89.2"/>
	<path class="st0" d="M86.7,51c0.8-2.7,1.3-4.1,0.9-11c-0.8,0.1-3.8,0.1-5,0.1c0,0-2.1-1.6-2.3-1.7c0,0,0-0.2,0-0.2l5.9-4.3
		c2.1,4.9,3.3,10.3,3.3,15.8c0,1.4,0,2.2-0.1,3.5L86.7,51z M88.9,56.4l-3.1,2.1c-0.2-0.1-0.3-0.1-0.4,0l-2.2-1.6
		c1.5-2,2.1-2.9,3.3-5.6l2.8,2.2C89.3,54.5,89,55.8,88.9,56.4 M88,60.5L86,59l0-0.1l2.9-2C88.6,58.3,88.4,59.1,88,60.5 M85.5,67.1
		L80.2,63l0-0.1l5.2-3.7c0,0,0.2,0,0.3,0l2.1,1.6C87.5,62.2,86.5,65.1,85.5,67.1 M81.6,73.4l-2.2-1.8l5.9-4.3
		C84.1,69.8,83.1,71.5,81.6,73.4 M79.1,76.4L79,71.7l2.4,2C80.6,74.7,80,75.5,79.1,76.4 M78.9,68.7l-2.6,0l-1.9-1.5
		c0-0.1,0-0.2,0-0.2l5.4-3.8c0.1,0.1,0.2,0,0.2,0l5.1,3.9L79,71.6L78.9,68.7z M77.7,77.2c0,0,0.1-0.5-0.1-0.9
		c0.3-0.2,0.4-0.3,0.7-0.6l0,1L77.7,77.2z M76.8,78.5c-0.9,0.4-1.2-0.5-1.4-0.8c-0.4,0.4-1.3,0.5-1.5-0.5c-0.2-1.1,0.3-1.2,0.8-1.5
		c-0.1-0.7-0.2-1.7,0.5-2.2c0.8-0.5,1.2,0.4,1.3,0.8c0.6-0.7,1.7-0.7,1.8,0.1c0.1,1-0.7,1.5-1,1.8C77.2,76.7,77.7,78.1,76.8,78.5
		 M72.8,81.5l-1,0c0.8-0.4,1-1.1,0.9-1.8c0.6,0,1.2-0.4,1.3-1.3c0.3,0.2,0.9,0.1,1.2,0c0.2,0.2,0.3,0.4,0.6,0.6
		C75.8,79,74.3,80.5,72.8,81.5 M67.3,85.5l-4.1-3.2l9.2,0C70.9,83.5,68.7,84.7,67.3,85.5 M59.5,88.5l-2.3-1.8c0-0.1,0-0.1,0-0.1
		l5.6-4.1l4.1,3.3C64.2,87,62.3,87.7,59.5,88.5 M53.1,89.6l3.7-2.7c0.1,0.1,0.2,0,0.3,0l2.1,1.7C57.6,89,55,89.4,53.1,89.6
		 M48.9,89.7l-3.8-3c0,0,0-0.1,0-0.1l5.9-4.2l5.4,4.2c0,0,0,0.1,0,0.1l-4.1,3C51.2,89.7,50,89.7,48.9,89.7 M41.8,88.9l2.8-2
		c0,0,0.2,0.1,0.3,0l3.5,2.8C46.4,89.6,43.8,89.3,41.8,88.9 M33.6,86.2l5.7-3.9l5.2,4.2c0,0,0,0.1,0,0.1l-3.1,2.2
		C38.8,88.2,36.3,87.4,33.6,86.2 M27.2,82.6l11.1,0l-5,3.4C31.2,85.1,29.1,84,27.2,82.6 M23.4,79.1c0.5-0.1,0.7-0.3,0.9-0.8
		c0.4,0.3,0.7,0.3,1.2,0.1c0,0.8,0.3,2,1.7,1.8c-0.1,1.1,0.6,1.5,0.9,1.6l-1.3,0C26,81.3,23.4,79.1,23.4,79.1 M22.3,76.3
		c-0.4-0.2-1.6-0.7-1.4-1.7c0.4-1.3,1.5-0.5,1.9-0.4c0.4-1.1,1-1.1,1.5-0.7c0.9,0.6,0.6,1.5,0.5,2.1c0.4,0.2,1.5,0.7,1,1.8
		c-0.6,1.2-1.6,0.5-1.8,0.3C24,78,23.8,79,22.6,78.6C21.7,78.1,22.1,76.6,22.3,76.3 M21.6,77.6l-0.5-0.5l0-0.9c0,0,0.2,0.2,0.6,0.4
		C21.6,76.9,21.6,77.2,21.6,77.6 M23.7,72.8c-0.7,0-1,0.3-1.2,0.8c-0.5-0.2-1-0.4-1.4,0l0-3.5L23.7,72.8z M18.1,74.1l2.4-1.7l0,4.6
		C19.7,76.1,18.8,75,18.1,74.1 M14.1,67.9l3.2-2.3c0,0,0.2,0,0.3,0l4.8,3.3l-2.1,0l0,3.1l-2.5,1.8C16.5,72.1,15.3,70.1,14.1,67.9
		 M11.5,61.2l5.7,3.9l0,0.1L14,67.6C13.1,65.9,12.3,64,11.5,61.2 M10,53.7l2.9-1.9c1.2,2.4,2.7,4,4.2,5.4l-5.6,4
		C11,59.4,10.3,56.5,10,53.7 M12.5,35.5l1.3,1c0,0,0,0.1,0,0.2L12,38c-0.8,3.8-1.2,8.7,0.8,13.5L10,53.3
		C9.6,48.3,10.1,41.3,12.5,35.5 M15.3,29.7l3.8,3l0,0.1l-4.9,3.5c-0.1-0.1-0.2-0.1-0.3,0l-1.3-1.1C13.3,33.3,14.2,31.4,15.3,29.7
		 M19,24.4l5.7,4.5l0,0.1l-5.1,3.6c0,0-0.1-0.1-0.3,0l-3.8-3.1C16.5,27.7,17.7,25.9,19,24.4 M21.4,21.7C28.9,14.2,38.8,10,49.6,10
		c1.4,0,4.1,0.2,4.1,0.2c0,0.2,0,0.5,0,0.7c-9.3-0.4-15.4,0.4-24.2,6.2l-10.1,7C20,23.3,20.7,22.5,21.4,21.7 M54.5,2.9l-0.4,6.1
		l-0.5-3.4L54.5,2.9z M68.3,14.6l-1.7,1.1C65,13,62.2,12,60.4,12.1c-3,0.1-5.8,2.2-5.9,5.9c0,2.4,0.8,4.5,3,5.8
		c-0.3,0.8-0.6,1.5-1,2c-0.9,0.9-2.1,1.5-3,1.9c0-0.5,0-0.8,0.2-1.2c0.8-0.8,2.2-1.8,1.3-2.8c0.2-0.4,0.2-0.7-0.1-0.9
		c0.4-0.7-0.1-1.1-0.2-1.2c0.3-0.9-0.4-1.1-0.7-1.1l0-0.7c0.2,0,0.4-0.1,0.4-0.4c0-0.3-0.2-0.4-0.4-0.4l0.2-3.4
		c0.2,0,0.4-0.1,0.4-0.4c0-0.3-0.2-0.4-0.4-0.4l0.2-3c0.2,0,0.4-0.1,0.4-0.4c0-0.2-0.1-0.4-0.4-0.4c0-0.2,0-0.6,0-0.6
		C59.4,10.9,64,12.4,68.3,14.6 M74.2,18.5l-4.4,3.2c-0.1,0-0.2,0-0.3,0l-2.4-1.8c0.2-1.4,0.1-2.6-0.4-3.8c0,0,1.9-1.3,1.9-1.3
		C70.6,15.9,72.5,17.1,74.2,18.5 M77.7,21.6c0.4,0.4,0.7,0.7,1.1,1.1L75,25.5c-0.1,0-0.2-0.1-0.3,0L70,22l0-0.1l4.5-3.2
		C75.6,19.6,76.7,20.6,77.7,21.6 M82.8,27.7c-0.4,0.3-2.4,1.7-2.4,1.7c-0.1-0.1-0.2,0-0.3,0l-4.9-3.6l0-0.1l3.9-2.8
		C80.4,24.4,81.6,26,82.8,27.7 M79.7,38l-5.2-3.8l0-0.1l5.6-4c0.1,0,0.2,0,0.3,0l5.3,3.9L80.1,38C80,37.9,79.8,37.9,79.7,38
		 M77.6,40.2l2.1-1.6c0.1,0,0.2,0.1,0.3,0l2,1.5L77.6,40.2z M87.1,43c-0.1-0.5-0.3-0.8-0.7-1.1c-0.7,0.6-1.2,1.6-0.5,2.5
		c0,0.7-0.3,1.6-2,3.1c-0.3-0.6-0.5-1.7-0.3-2.5c1-0.5,0.6-1.8,0.1-2.3c-0.4,0.2-0.7,0.6-0.9,1.2c0-1-0.4-2.2-0.7-3.1l5-0.1
		C87.1,41.1,87.1,42.4,87.1,43 M86,43.3c0-0.4,0.2-0.7,0.4-0.7c0.2,0,0.4,0.3,0.3,0.8c0,0.4-0.3,0.7-0.4,0.7
		C86.1,44,86,43.7,86,43.3 M81,58.5c-0.5-0.5,0-1.6,0.5-2.2c-0.5-0.7-0.8-1.5-0.6-2.6c0.5,0.1,0.7,0.7,1.6,0.4
		c0.4-0.1,0.7-0.3,1.2-0.4c-0.1-0.3-0.1-0.5-0.3-0.7c2.5-1.5,1.3-4,0.7-4.9c1.1-0.9,2-1.8,2.4-3.6c0,0,0.4,0,0.6-0.9
		C87.1,46.8,87,52.5,81,58.5 M74.5,58.5l0-0.1l2-1.4c0.6,0.7,2.3,2.2,3.8,3.2c1-0.9,2.8-3,2.8-3l2.2,1.7l0,0.2l-5.2,3.6
		c-0.1-0.1-0.2-0.1-0.4,0C79.7,62.6,76.3,59.9,74.5,58.5 M73.9,66.7c0,0-2.6-2.1-2.8-2.3c0.8,0.6,1.7,0,1.6-0.6
		c0-0.7-0.9-3.6-0.9-3.6l2.2-1.5c0.1,0.1,0.2,0.1,0.3,0l5.3,4.2l0,0.1l-5.4,3.8C74.1,66.7,74,66.7,73.9,66.7 M71.9,68.8l1.9-1.4
		c0.1,0,0.2,0,0.2,0l1.7,1.3L71.9,68.8z M67.3,79.8c0.6,0,1-0.3,1.1-0.6c0.1,0.3,0.6,0.7,1.3,0.6c0,0.8,0.3,1.3,0.9,1.6h-3.9
		C67,81.2,67.4,80.7,67.3,79.8 M64.8,79.5c-0.9-0.1-1.3-0.1-1.3-1.2c0-0.9,0.8-1.2,1.5-1.2c0-0.6,0.1-1.4,1-1.4c1,0,0.9,0.9,0.9,1.5
		c0.6,0,1.4,0.2,1.4,1c0,0.9-0.4,1.1-1.3,1.2c0,0.5,0.2,1.7-0.9,1.7C64.8,81,64.8,79.9,64.8,79.5 M61.3,81.5
		c0.5-0.3,0.9-0.7,0.8-1.6c0.5,0,0.9-0.2,1.1-0.6c0.3,0.4,0.5,0.6,1.1,0.6c0,0.6,0.2,1.2,1,1.6L61.3,81.5z M62.2,82.4L57,86.3
		c-0.1-0.1-0.2-0.1-0.4,0l-4.9-3.8L62.2,82.4z M52.1,80c0.5-0.1,0.7-0.1,0.9-0.5c0.3,0.5,0.5,0.5,1.1,0.5c0,0.9,0.3,1.4,1.1,1.6
		l-4,0C51.8,81.3,52.1,80.7,52.1,80 M49.4,79.6c-0.5,0-1.4,0.1-1.4-1.1c-0.1-1.2,1.1-1.2,1.5-1.3c0-0.4,0-1.6,1-1.5
		c1.1,0.1,0.9,1.2,1,1.6c0.5,0,1.3,0,1.3,1c0.1,1.1-0.8,1.2-1.2,1.2c0,0.4,0.3,1.7-0.9,1.7C49.4,81.3,49.5,80,49.4,79.6 M50.2,82.5
		l-5.2,3.7c-0.2-0.1-0.3,0-0.3,0L40,82.5L50.2,82.5z M38.5,79.6c-0.5,0-1.3-0.1-1.3-1.2c0-1.2,1.1-1.2,1.4-1.2
		c0-0.3-0.3-1.4,0.9-1.5c1.3-0.1,1.1,1.2,1.1,1.6c0.3,0,1.4-0.1,1.5,1.1c0,1.1-1.1,1.2-1.5,1.2c0,0.7,0.1,1.7-1,1.7
		C38.4,81.4,38.5,80.1,38.5,79.6 M35.8,79.9c0.4,0,0.8-0.1,1.1-0.6c0.2,0.4,0.6,0.7,1.1,0.6c0,0.9,0.3,1.6,0.9,1.7h-4.2
		C35.5,81.5,35.9,80.8,35.8,79.9 M33.1,79.6c-0.5,0-1.4,0-1.4-1.1c0-1.1,1.2-1.1,1.6-1.1c0-0.5-0.1-1.6,1.1-1.6c1.1,0.1,1,1.2,1,1.6
		c0.5,0,1.3-0.1,1.4,1c0.1,1.2-0.9,1.3-1.5,1.3c0,0.5,0.2,1.7-0.9,1.8C33.2,81.5,33.1,80.2,33.1,79.6 M30.4,80.1
		c0.6-0.1,0.8-0.3,1.1-0.6c0.4,0.3,0.7,0.5,1.2,0.5c0,0.6,0.1,1.5,0.9,1.8l-3.8,0C30.1,81.5,30.4,81.2,30.4,80.1 M27.7,77.2
		c0-0.6-0.1-1.5,1.1-1.6c1.3-0.1,1.1,1.2,1.1,1.6c0.4,0,1.3-0.1,1.4,1.1c0,1.1-0.9,1.2-1.4,1.3c0,0.5,0.2,1.8-1,1.7
		c-1.2,0-1.1-1.2-1.1-1.7c-0.2,0-1.7,0.4-1.6-1.4C26.1,77.5,26.9,77.2,27.7,77.2 M25.4,74.4l1.1,1.1l1.4,0c-0.7,0.3-0.8,0.9-0.8,1.3
		c-0.2,0-0.4,0.1-0.7,0.2c0-0.9-0.7-1.4-1.1-1.6C25.5,75.1,25.5,74.8,25.4,74.4 M24.8,69.5c-1.3,1.4-0.1,2.8,1.7,3.9
		c1.1,0.7,0.8,1.3,1.8,1.5l-1.5,0c-2-1.8-5.4-5.3-5.4-5.3L24.8,69.5z M17.9,65.1l5.7-4.1c0,0,0.2,0,0.3,0l2.5,2
		c-0.5,1.8-1.2,3.8-1.2,5.8l-2.2,0l-5.1-3.5L17.9,65.1z M17.4,57.4c0.5,0.4,1.2,1,1.6,1.2c0.5-0.3,0.8-0.6,1-0.7l3.4,2.7l0,0.1
		l-5.6,4.1c0,0-0.2-0.1-0.4,0L12,61.2L17.4,57.4z M17.2,51.7c0-0.3,0-0.6,0.1-0.9l-0.5-0.1l0.8-1.5c0.6,0.7,0.9,2,0.9,2.9
		c-0.4,0-0.7,0.1-0.7,0.4c0,0.3,0.5,0.3,0.7,0.4c0.1,1.6-1.6,1-2.1,0.4c-0.3,0.9,0.8,1.3,1.4,1.3c-0.3,0.6-0.8,1.6-0.8,1.6
		c-0.5-0.4-1.6-1.7-1.9-2.2C14.6,51,16.8,50.9,17.2,51.7 M15.5,51.2c-0.5,0.4-1,1-1.2,1.6c-0.2-0.3-0.4-0.7-0.6-1
		C14.3,51.5,14.9,51.3,15.5,51.2 M15.3,50.9c-0.3,0.1-1.4,0.3-1.9,0.4c-0.2-0.3-0.2-0.5-0.3-0.9C13.6,50.4,14.6,50.8,15.3,50.9
		 M12.4,39.1c4.6,0.6,9.7,1.2,14.4,1.5c-0.2,4.1-0.6,7-2,9.9c-0.4,0.3-2.6,0.3-3.6,0.4L20.8,48c0.2,0.3,0.6,0.5,0.9,0.5
		c0.4,1.8,2.1,1.6,2.5,1.4c-0.3-0.7-0.6-1.6-0.6-2.3c0.4,0.3,1.1,0.4,1.5,0.4c-0.2-0.6-0.4-1.5-0.5-2.3c0.2,0.2,0.8,0.3,1.1,0.3
		c-0.2-1.6,0.1-2.4,0.1-3.9c0-0.4-0.4-1-1.1-1.1c-0.7,0-1.3,0.4-1.3,0.9c0,0.3,0,0.7,0.2,0.9c-0.9,0.8-2.3,1.5-3.2,1.7
		c-0.1-0.1-0.2-0.4-0.2-0.6l0.7,0c-0.1-0.2-0.3-0.5-0.4-0.6c0-1.4,0.1-1.9-1.2-2.6c-0.2-0.1-0.3,0-0.6,0.2c-0.4-0.5-1.5-1.7-2.2-0.5
		c0.2-0.1,0.5-0.1,0.6-0.1c0.2,1.2,1.1,2.4,1,2.7c-0.1,0.3-0.2,0.5-0.6,0.9c0.2,0,0.7,0,0.7,0c0,0.3-0.1,0.4-0.2,0.6
		c-0.7,0-3-0.8-3.5-2.1c0.3-0.3,0.4-0.4,0.4-1c0-0.5-0.4-1.2-1.1-1.3c-0.7-0.1-1.3,0.4-1.3,1c-0.1,0.9,0.1,2.7-0.3,3.7
		c0.5,0,0.9-0.2,1.2-0.5c-0.1,1.1-0.1,2.3-0.8,3.3c0.6,0,1,0,1.4-0.1c-0.1,0.5-0.3,1.2-0.8,1.7c0.8,0.3,2-0.1,2.6-1.1
		c0.6-0.1,1-0.3,1.3-0.6c0.1,0.5-0.5,2.5-0.8,2.9c-1.2,0-2.4-0.4-3.5-0.9C12,47,11.5,43.7,12.4,39.1 M16.7,39c0,0-3.2-0.4-4.7-0.6
		l1.9-1.4c0.1,0,0.2,0,0.3,0L16.7,39z M24.6,37.1l0,0.1l-3,2.2c-1.5-0.1-3.2-0.3-4.3-0.5l-2.8-2.3l0-0.1l4.9-3.5c0,0,0.2,0.1,0.3,0
		L24.6,37.1z M24.9,29.2c0,0,0.1,0.1,0.3,0l2.4,1.9C26.9,32,28,33,29,32.6c0,0,0.2,0.4-0.1,1.6l-3.7,2.7c-0.1-0.1-0.3,0-0.3,0l-5-4
		l0-0.1L24.9,29.2z M27.6,22.4c-0.5,1.8-0.9,2.9-1.3,4.4l0.8-0.7c0.4-1.1,0.6-2,1.2-3.2l2.1,1.7l0,0.1l-5.3,3.7
		c-0.2-0.1-0.4,0-0.4,0l-5.4-4.2l5.6-3.9L27.6,22.4z M27.8,22.1l-2.3-1.9l4.5-3.1C29,18.4,28.2,20.7,27.8,22.1 M36.3,16.2
		c-2.6,0.6-4.9,2.1-7.7,5.3C29.8,18.2,30.5,14.8,36.3,16.2 M40.3,14.4c-0.1,0.2-2.5-0.2-2.9-0.2c-0.5,0-0.7,0.2-0.7,0.5
		c0,0.2,0.3,0.5,0.7,0.4c0.4-0.1,2.7-0.5,2.9-0.3c0.1,0.1-1.5,0.9-1.9,1.3c-1.6-0.4-3.3-0.8-4.7-0.8c1.6-1,3.3-1.6,4.8-2.1
		C38.7,13.6,40.4,14.3,40.3,14.4 M40.5,16.7c-0.4-0.1-0.9-0.3-1.3-0.4c0.5-0.6,1.5-1.6,1.7-1.4C41.1,15.1,40.1,16.2,40.5,16.7
		 M49.6,19.8l-1.5,1c0,0-0.1-0.1-0.3,0L47,20.2c0.2-0.2,0.1-0.3-0.1-0.3c-0.9-0.1-1.1-0.1-1.9-0.3c0,0-0.3-0.2-0.3,0.3
		c0,1.6-0.1,2.4-0.7,3.7c-0.1,0.3-0.4,0.3-0.5,0c-0.4-1.4-0.6-2.7-0.5-4.2c0,0,0.1-0.4-0.3-0.2c-0.4,0.1-0.7,0.2-1.3,0.3
		c0.2,0.6,0.4,1.1,0.5,1.5c-0.3,0.9-0.5,1.4-0.8,2.1c-0.2,0.3-0.4,0.3-0.5,0c-1-3.8-0.5-4.3-0.2-4.5c0.3-0.2,0.2-0.4-0.1-0.4
		c-0.4,0.1-1.9-0.2-2.5-0.4c-0.3-0.1-0.4,0.1-0.2,0.3c0.4,0.3,0.5,0.5,0.7,1l-1.8,1.3c-0.2-0.1-0.3,0-0.3,0l-3-2.3
		c1.6-1,3.5-1.7,6.1-0.9C45.2,18.9,46.4,19.3,49.6,19.8 M48.8,13.1l-0.3,0.4l-2.6,0l0,0.4l2.3,0l-0.4,0.5c0,0-0.8,0-2,0
		c-1.5-0.5-2.9-1.9-2.9-1.9l-0.2,0.4c0,0,0.8,1,2.1,1.6c-1,0.1-2.8-0.1-2.8-0.1c-1.2-0.1-1.3-1.5-0.7-2.1c1.6-0.4,2.8-0.5,3.3-0.6
		C45.1,13.3,46.3,13,48.8,13.1 M49.4,12.3l-0.3,0.4c-2.1,0-3.6,0.2-3.8-1.1l1.1-0.1C46.5,12.2,47,12.3,49.4,12.3 M46.3,17.5l2.3,0
		L49,18c-2.2,0-2.5-0.2-2.8,0.4L45,18.1C45.3,17.6,45.7,17.5,46.3,17.5 M42.7,16.9c0,0,1.3-1.2,3-1.4c0.6,0.1,2.1,0.1,2.1,0.1
		l0.3,0.5h-2.2l0,0.4l2.4,0l0.2,0.5c-2.5,0-3.7-0.2-4.3,0.8c-0.7-0.2-1.7-0.5-2.9-0.9c-0.5-0.8-0.4-2.1,0.7-2.1c0,0,1.8,0.1,2.7,0.4
		c-1.2,0.4-2.2,1.3-2.2,1.3L42.7,16.9z M52,13.4c0,1.1,0.7,1.7,1.3,1.9c-0.7,0.2-1.3,1.1-1.3,1.9c0,0.9,0.3,1.7,1.2,2.1
		c-1.4,0.2-4.6-0.1-6.1-0.6c0.1-0.3,0.3-0.3,1.2-0.3c0.3,0,0.6,0,0.9,0c0.6,0,1,0.1,1.2-0.2c0.3-0.4-0.2-0.9-0.7-0.7
		c-0.4-0.4-0.6-0.9-0.7-1.1c-0.4-0.7,0.2-1,0.5-1c0.7,0,1.4,0.2,2.1,1.2c0.3-0.2,0.1-0.4,0-0.8c-0.2-0.6,0.3-0.4-0.2-1.1
		c-0.2-0.3-0.3-0.4-0.6-0.4c-0.8-0.1-0.4,0.3-1.2,0.4c-0.6,0.1-0.9-0.2-0.5-0.8c0.2-0.2,0.5-0.7,0.9-1c0.3,0.3,0.9,0.2,0.9-0.3
		c0-0.5-0.5-0.7-1.1-0.7c-0.5,0-1,0-1.3,0c-0.9,0-1.1-0.2-1.1-0.4c1.4-0.1,4.3-0.1,6.2,0.1C52.7,11.6,52,12.4,52,13.4 M53.4,14.8
		c-1.3-0.3-1.2-2.8,0.2-2.9L53.4,14.8z M53.4,15.7l-0.2,3.2C52.2,18.5,52.1,16,53.4,15.7 M55.8,29.1l-2.4,1.5l0.1-2.1l0.8-0.4
		C54.6,28.7,55.1,29.1,55.8,29.1 M57,28.5c-0.8,0.3-1.8,0.4-2.3-0.7c0.5-0.3,1.3-0.8,1.6-1C56.6,27.1,56.8,27.8,57,28.5 M58.3,26.9
		c0,0.6-0.4,1.3-0.9,1.4c-0.1-0.7-0.3-1.2-0.6-1.8l0.4-0.4C57.5,26.5,57.9,26.7,58.3,26.9 M58.4,23.6c2.6,1.2,3.8-0.6,4.1-1.5l0.6,0
		c0,1.2,0.3,2.1,0.8,3c-0.9,1.3-3.7,2.6-6.4,0.7C57.7,25.3,58,24.5,58.4,23.6 M60.8,20.2c-0.1-0.5-0.1-1,0.9-1c0.6,0,0.9,0,0.8,0.6
		c-0.2,0.7-0.2,1-0.5,1.3C61.5,21.5,61,21.1,60.8,20.2 M59.5,21.3c0.3,0,0.8,0,1.1,0c0.1,0.2,0.3,0.2,0.3,0.4c0,0.2,0,0.4-0.3,0.4
		c-0.3,0.1-0.8,0.1-1.1,0c-0.2-0.1-0.4-0.2-0.4-0.4C59.1,21.5,59.4,21.5,59.5,21.3 M60.5,20.9l-1,0c0-0.3,0.1-0.5,0.6-0.4
		C60.2,20.6,60.5,20.6,60.5,20.9 M57.9,18.7c0.3-0.6,1.3-0.4,1.3-0.1C59.2,19.1,58.2,19.1,57.9,18.7 M62.1,18.6
		c-0.2,0.5-1.2,0.5-1.4,0.1C60.7,18.3,61.7,18.1,62.1,18.6 M56.5,15.9c0-1.6,1.6-1.6,3-1.7c-0.1-0.6,0.3-0.9,0.9-0.9
		c0.8,0,0.8,0.8,0.8,1c0.9,0.1,2.2-0.2,2.7,0.6c0.3,0.5,0,1.2,0.2,1.6c0.2,0.3,0.2,0.6-0.1,0.6c-0.6,0-0.3-0.2-2.2-0.2
		c-1.4,0-1.8-0.2-2.8-0.2c-0.8,0-1.4,0.4-2,0.3l-0.5,0c0-0.1,0-0.2,0-0.3C56.6,16.8,56.5,16.3,56.5,15.9 M56.7,17.7
		c0.3,0.1,0.6,0.1,0.8,0.1c-0.1,0.6-0.5,1.4,0,2.3c0.2,0.3,0.2,0.2,0.4,0.1c0-0.2-0.3-1,0.4-1c1,0,1.3-0.1,1.3-0.1
		c0,0.1,0-0.5-0.1-0.7c-0.2-0.5-1-0.5-1.6-0.5c0-0.5,0.5-0.6,1-0.7c0.5-0.1,2.6,0,2.6,0.5c-0.9,0.1-1.3,0.4-1.3,0.9
		c0,0.6,0,0.9,0.1,1.4c-0.3,0-1,0-1,0c-0.1,0.3,0,1.2-0.8,1.2c-0.3,0-0.3-0.2-0.5-0.5c-0.3,0-0.7,0.1-1,0.1
		c-0.3-0.1-0.5-0.4-0.3-0.6c0.1,0,0.2-0.1,0.3-0.2C56.6,19.5,56.5,19.6,56.7,17.7 M62.3,17.9c-0.2-0.2-0.1-0.4,0.2-0.3
		c0.4,0,1-0.1,1.7,0c0.1,0.2,0.7,1.8-0.2,2.1c0,0-0.3,0.1-0.5,0.2c-0.2,0.1-0.5,0.2,0,0.6c0.1,0.1,0.4,0.4,0.6,0.5
		c-0.3,0.4-1,0.7-1.6,0.6c0.1-0.6,0.2-1.6,0.5-1.8C63.6,19.3,62.6,18.1,62.3,17.9 M63.8,23.2c-0.1-0.4-0.1-0.6-0.2-1.1
		c0.4-0.2,0.7-0.6,1-1c0.1-0.3,0.1-0.3-0.2-0.6c-0.4-0.3,0-0.5,0-0.5c0.7-0.5,0.8-0.7,0.6-1.6c-0.1-0.4-0.2-0.8-0.3-1.2
		c0.3-0.7-0.3-0.8-0.2-1.2c0.1-1.2-0.3-1.6-0.5-1.8c-0.8-0.5-1.5-0.3-2.4-0.4c-0.1-1.3-2.1-1.3-2.5-0.1c-0.5,0.1-0.8,0.1-1.8,0.4
		c-0.5,0.2-0.9,0.5-1.1,1.2c-0.2,1.2-0.3,1-0.4,1.3c-0.2,0.4-0.1,0.9,0.4,1c0,1.5-0.2,1.7,0.4,2.4c-0.3,0.4-0.6,0.6,0.1,1.1
		c0.5,0.3,1,0.2,1.5,0.2c0.1,0.2,0.2,0.7,0.4,0.9c0.4,0.5,1.6,1.2,3.2,0.2c-0.9,1.6-3.2,0.8-3.8,0.3l-0.2,0.5
		c-2.1-1.1-3.1-3.4-2.8-6.1c0.3-2.7,2.8-4.6,5.5-4.7c3.8-0.1,6.2,3.1,6.2,5.8C66.6,21.8,64.7,22.7,63.8,23.2 M69.3,22l-4.6,3.3
		c-0.1-0.2-0.5-0.8-0.7-1.4c1.5-0.8,2.5-1.7,3-3.6L69.3,22L69.3,22z M70.2,28.9c-0.1-1.4-0.4-4.1-0.4-4.1c-1.1,0.5-2.5,1.3-3.5,2.1
		c0,0-0.7-0.4-1.4-1.3l4.5-3.2c0.1,0,0.3,0.1,0.3,0l4.6,3.4l0,0.1C74.5,25.8,70.2,28.9,70.2,28.9 M74,33.8l-3.4-2.5l-0.2-2l4.4-3.1
		c0.1,0,0.2,0,0.2,0l5,3.6l0,0.1l-5.6,4C74.2,33.7,74,33.8,74,33.8 M71.4,40.3L70.8,40l0-3.3l3.2-2.3c0.1,0,0.2,0,0.3,0l5.3,3.9
		c0,0,0,0,0,0.1l-2.5,1.8L71.4,40.3z M81.1,41.4l-0.4-0.6l-0.3,0.6l-0.6-0.6l0,0.6l-0.4,0.4l-1,0c-0.2,0-0.4,0.1-0.4,0.3l0,0.8
		c0.9,0,2.2-0.1,2,1.1l-0.2,0c-0.4-1.3-2.2-0.4-2.8-0.9l0,0.4c0.3,0.3,0.5,0.2,0.8,0.2c0.6,0,1.3-0.2,1.5,0.4l-0.9-0.1l0,0.5
		c0,0,0.9,0.1,1.4,0.1c-0.4,0.6-1.4,0.2-2.8,0.6l-0.5-0.3c-0.1-0.6-0.8-1.3-0.8-1.3c0.3-0.4,0.2-0.7-0.3-1.3
		c-0.1,0.4-0.1,0.5-0.2,0.7c-0.4-0.5-0.7-0.5-1.3-0.2c0.2,0.3,0.2,0.5,0.3,0.7c0.2,0.2,0.8,0.3,0.7,0.5c-0.3-0.1-0.8-0.1-1.1,0.4
		c0.5,0.1,0.4,0.3,1,0.3c0.1,1,0.7,0.7,0.8,1.7l-0.9,0c-0.8-0.6-1.2-0.8-1.2-0.8c0-0.6-0.3-0.9-0.9-1c0,0,0.1,0.5,0.1,0.7
		c-0.2-0.1-0.5-0.3-0.9,0.1c-0.2-1.5-0.1-4.4-0.1-4.4l9.6-0.2L81.1,41.4z M81.4,46.4l-0.5-0.5c-0.8,0.4-1.1,0.9-0.8,3.1
		c-0.8,0-1.7-0.4-2.4-0.8c-0.4,0.2-0.7,0.4-1.2,0.7c-0.6-1.2,0-2.4,0.6-2.8c1.6-1,2.9,0,3.4-1.3c0,0,0.1-0.2,0.1-0.5
		c0-0.9-0.3-1.4-2-1.4l0-0.5l1,0l0.5-0.4l1.2,0l0.4-0.5C81.7,41.4,83.2,44.9,81.4,46.4 M79.9,57.6c0.7,0.3-0.4,0.8,0.5,1.3l-0.3,0.2
		c-0.5-0.3-1-0.7-1.3-1C79.1,58.2,79.6,58.3,79.9,57.6 M75.5,54.8c0.1-0.1,1-0.7,2.1,0.8c0.3-0.5,1-1,1.3-1.2
		c1.4,1.8,0.6,2.5,0.6,2.5c-0.7-0.4-1.1-0.1-1.3,0.2c0.2,0.2,0.7,0.3,0.7,0.3c-0.3,0.1-0.6,0.2-0.9,0.3
		C77.5,57.1,76.3,55.8,75.5,54.8 M70.9,55.6l0-4.1l1.5-1.1c1,2.4,1.8,4,3.8,6.2l-2,1.4c0,0-0.1-0.1-0.3,0L70.9,55.6z M77.2,49
		l0.4-0.3c0.6,0.3,1.4,0.7,2,0.8c0,0.5,0,0.9,0.2,1.3L79,51.4C78.4,50.6,77.7,49.8,77.2,49 M77.6,54.9c-0.4-0.3-0.9-1-1.9-0.7
		c0.2-0.3,0.5-0.5,0.9-0.5c0.3,0.2,0.6,0.4,0.9,0.6c0.4-0.3,0.6-0.7,0.5-1.1c-0.1-0.6-1.4-2.1,0.4-2.1c0.2,0.2,0.3,0.4,0.4,0.6
		C77.9,53.2,79.6,53.4,77.6,54.9 M75.6,43.9c0.4,0.5,0.6,0.8,0.8,1.4l0.5,0.3c-0.3,0.2-0.6,0.6-0.6,0.6C76,45.1,75,44.9,75.6,43.9
		 M75.8,47.7l-0.6,0l-1.7-1.1c0,0-0.1-0.4-0.2-0.7c0.6,0.2,1.5,1,1.5,1l1,0C75.7,47.1,75.8,47.7,75.8,47.7 M72.4,47.1
		c0.4-0.1,0.7-0.1,1-0.2l1.8,1.3l0.6,0c0.1,0.5,0.3,0.9,0.4,1.2c0.2-0.1,0.6-0.3,0.6-0.3c0.3,0.5,0.7,1,1,1.4c-0.3,0.2-0.9,0.3-1,1
		c-0.1,0.9,1.1,1.9,0.5,2.2c-0.3-0.2-0.4-0.3-0.6-0.4c0,0,0-0.9-0.9-1.2c-0.1,0.4,0,0.7,0,0.8c-0.7-0.2-1,0-1.3,0.2
		c0.4,0.5,0.6,0.5,1,0.7c-0.3,0.1-0.3,0.3-0.5,0.5c-1.7-2.6-2.7-5.3-3-8.4c0.3,0.1,0.2,0.2,0.5,0.3c0.3,0.1,0.5-0.1,0.6,0.1
		C72.8,46.3,72.3,46.5,72.4,47.1 M72.3,50.2l-1.4,1c-0.1-3.8-0.1-7.2-0.1-10.8l0.5,0.3C71.3,44.9,71.4,47.4,72.3,50.2 M70.9,56
		l2.9,2.3l0,0.1l-2.1,1.5C71.3,58.9,70.8,57.2,70.9,56 M70.5,31.7l3.2,2.4l0,0.1l-3,2.2C70.7,34.7,70.7,33.6,70.5,31.7 M63.7,44.7
		c1-0.2,1.6,0.3,2.1,1.5c2.1,5.4,5.1,13.3,6.1,17.1c0.3,1-0.4,1.2-0.8,0.3C69.6,60.3,66.2,51.7,63.7,44.7 M70.2,64.2l3.5,2.8l0,0.1
		l-2.3,1.6l-1.2,0L70.2,64.2z M65.5,70.1c-0.9-0.5-1.3-1.2-0.9-2.5c0.8-3,0.8-3.7,0.7-5c0.1-0.3,0.2-1.4,0.2-2
		c0.3-0.7,0.5-0.7,0.6-2.8c0,0,0.6-0.3,0.6-0.3l-1.2,10c-0.1,1,0,1.3,0.8,1.7l3.1,1.3c0.8,0.3,1.2,0.6,1.5,1.3l0.7,1.9
		c0,0,0.3,0.9,0.4,1.2C72.2,74.9,69,72.2,65.5,70.1 M26.3,70c2.1,0.3,6.1-0.2,7.4-0.3c0,0.5-0.1,1.9-0.4,2.8
		c-1.7-0.2-4.7-0.4-4.7-0.4c0.7,0.6,1.2,1.6,1.8,1.8c0.8,0.3,0.7,1,0.5,1c-3.6,0-2.6-1-4.3-2.1C24.5,71.7,24.5,69.7,26.3,70
		 M29.3,69.4c-1,0.1-2.2,0.1-2.7,0c-0.1-0.4,0.2-0.5,0.7-0.5C28.1,69,29,69.4,29.3,69.4 M29.3,68.7c-0.8,0-1.7-0.6-2.4-0.3
		c0.5-1.3,2.3-6.5,2.4-6.8C29.2,65.2,29.3,67.4,29.3,68.7 M29.6,56.6c0,0-0.2,2.4-0.2,3.2c-0.8,2.2-1.9,5.4-3,8.4
		c-0.3,0.9-0.7,0.7-0.5-0.1C26.2,65.9,28.1,59.8,29.6,56.6 M24.1,60.6l4.3-3.1c-1,2.4-1.9,5.2-1.9,5.2l-2.4-1.9L24.1,60.6z M24.4,53
		l4.4,3.5l-0.2,0.4l-4.7,3.4c0,0-0.2-0.1-0.4,0l-3.4-2.6C21.7,56.4,23,55,24.4,53 M19.2,54.7c0.2,0.4,0.8,1.3,1.5,1.7l-1.6,1.4
		C19.1,57,19.3,55.7,19.2,54.7 M23.9,52.5c0,0-0.5,0.8-0.7,1.1c-0.2-0.6-0.7-1.3-1.1-1.9C22.6,51.8,23.4,52.1,23.9,52.5 M24.2,52
		c-0.6-0.3-1.4-0.6-2-0.7c0.5-0.1,1.8-0.2,2.4-0.1C24.5,51.4,24.4,51.6,24.2,52 M29.4,49l-4.7,3.3c0.8-1.5,1.6-3.2,2.1-5.3L29.4,49z
		 M28.2,40c3.5-3.6,0.6-3.3,1.4-6.2l0.4-0.1c-0.1,0.2-0.1,0.7-0.1,0.7c0.2-0.2,0.3-0.4,0.6-0.7l0.6-0.1c-0.4,0.6-0.7,1.2-0.7,2
		l0.3,0c0.4-1.3,0.9-1.8,2-2.2c0.6-0.1,0.7,0,0.4,0.4c-0.5,0.7-0.7,1.5-0.7,2.2c0,0.8,0.3,1.3,0.1,1.5c-0.4,0.4-1.1,0.4-1.7,0.9
		c-0.7,0.5-0.5,1.4-0.2,3c0,0,1.6,0.6,1.9,3.1c0.4,2.5-2,3.9-3.6,1.1c-0.8-1.3-0.2-4,0.9-4.4c0-0.6,0-0.9,0-1.7
		c-1.8,2.2-2.3,4.2-1.8,5.8c0.5,1.4,0.8,1.3,1.8,3.4l-2.7-2.1c0.3-1.8,0.7-4.5,0.7-6.7c-1.7-0.1-3.8-0.3-5.5-0.4l2.7-2
		c0.1,0.1,0.3,0,0.3,0L28.2,40z M29.3,37.3c0,0.5-0.5,1.6-1.6,2c-0.7-0.6-1.4-1.1-2.5-2l0-0.1l3.5-2.5
		C28.8,35.8,29.3,36.7,29.3,37.3 M28.7,30.6c-0.1-0.2-0.4-1-0.1-1.4c0.4-0.1,0.8,0.3,1.1,0.8c0.6-0.5,1.1-0.5,1.4,0
		c0.3,0.6-0.1,1.2-0.9,1c0.6,1.2,2.8,0.9,2.9-0.5c-1,0.4-1.2-0.1-1.3-0.5c0-0.5,0.5-0.9,1.2-0.7c0-0.5,0.1-1,0.5-1.2
		c0.3,0.1,0.6,0.7,0.6,1.2c0.6-0.2,1.2,0.1,1.2,0.5c0,0.5-0.3,1.3-1.3,0.7c0.1,1,0.7,1.3,1.4,1.4c0.9,0,1.3-0.3,1.5-0.6
		c-0.5,0.2-1.2-0.2-1.1-0.8c0.2-0.8,1.1-0.6,1.5-0.2c0.2-0.3,0.6-0.7,1.3-0.6c0.1,0.5-0.1,1-0.3,1.3c0.7,0.2,0.7,1,0.5,1.2
		c-0.5,0.4-1.1,0.1-1.3-0.3c-0.4,0.5-0.5,0.8-0.7,1.4c-2.2-0.4-4.8-0.1-7,0.2c0-0.7,0-1.1-0.3-1.7c-0.1,0.4-0.8,0.7-1.3,0.2
		C27.7,31.2,28.3,30.8,28.7,30.6 M31,25.1l5.2,4.1l-0.4,0.3c-0.2-0.4-0.6-0.7-1.1-0.7c-0.1-0.8-0.7-1.2-1.2-1.5
		c-0.3,0.1-0.9,0.7-1,1.4c-0.6,0-0.9,0.4-1.1,0.8c-0.5-0.5-1.1-0.4-1.5-0.2c-0.6-0.5-1.1-0.6-1.6-0.6c-0.3,0.6-0.4,1.2-0.2,1.8
		l-0.3,0.3l-2.3-1.8c0-0.1,0-0.2,0-0.2l5.2-3.7C30.6,25.1,30.9,25.1,31,25.1 M31,24.4c0,0-0.2-0.1-0.3,0l-2.1-1.7
		c0.9-1.6,3.8-4.1,4.6-4.6l3.1,2.4l0,0.1L31,24.4z M42.4,24.8c-0.1,0-0.2-0.1-0.3,0l-0.8-0.7l0.9-1.9c0.1-0.2,0.3-0.2,0.3,0l0.7,2
		L42.4,24.8z M51.1,23.4l-2.8-2.2v-0.1l1.8-1.2c0.9,0.1,1.7,0.1,3.1,0l0,0.9C52.1,21.5,51.5,22.4,51.1,23.4 M52.8,27.2
		c-0.1,1.9-0.5,7.5-0.5,7.4c-0.1,1.4-2.9,1.6-2.4-4.4c0.1-1.7,0.5-3.5,1.1-5.1c0.4,0.7,0.8,1,1.5,1.4C52.9,26.6,52.8,26.8,52.8,27.2
		 M57,30.7c-1,0.7-1.4,1-2.4,1.7l-0.1-1.8l2.6-1.7C57.1,29.5,57,30.2,57,30.7 M58,31.6c0,0.5-0.5,1.7-1.2,1.7c0.2-0.5,0.4-1.4,0.5-2
		C57.5,31.5,57.7,31.5,58,31.6 M59.5,29.3c-1.1-0.3-1.1-1.7-0.6-2.2c0.8,0.3,1.4,0.3,2.5,0.1C61.6,28.4,61.1,29.7,59.5,29.3
		 M62.3,31.1c-0.5,0.4-2.2,0.6-2.2-1.2c1.6,0,1.8-1.6,1.8-1.6C62.6,28.5,63.8,30,62.3,31.1 M63.4,28.3c-1.1,0.3-1.4-0.8-1.6-1.3
		c0.9-0.3,1.7-0.7,2.2-1.4C64.8,26.4,64.5,28,63.4,28.3 M62.6,41.6c1.8-0.2,1.9,0.3,2.5,2.1l-1.6,0.5L62.6,41.6z M62.3,47.9L62.1,45
		l1.1-0.2l1.1,3.1L62.3,47.9z M63.8,51.8l-0.3-3.3c0,0,0.5,0,0.9,0l1.2,3.2C65.7,51.7,64.9,51.6,63.8,51.8 M55.6,47l-0.4,3.3
		l-1.4-0.9c0,0,0-1.9,0.3-3.4C54.5,46.4,55.2,46.8,55.6,47 M54.6,42.5l0.8,0.7L55,46.1c-0.4-0.2-0.5-0.3-0.8-0.6
		C54.3,44.2,54.6,42.5,54.6,42.5 M58.4,48.2c0.7,0.1,1.2,0.2,2,0.2l0,3.6c-1.5,0-2.2-0.4-2.2-0.4L58.4,48.2z M57.4,47.4l0.4-2.7
		c0,0,0.9,0.4,1.7,0.4l-0.2,2.7C58.8,47.7,57.9,47.5,57.4,47.4 M55.4,46.3l0.5-2.8c0,0,0.9,0.8,1.5,1c0,0.1-0.4,2.7-0.4,2.7
		C56.1,46.9,55.7,46.6,55.4,46.3 M56,47.3c0.5,0.3,1.3,0.6,1.9,0.7l-0.3,3.4c-1-0.3-1.9-0.9-1.9-0.9L56,47.3z M63,48.5l0.3,3.4
		C62.1,52.1,61,52,61,52l0-3.6C61.7,48.4,62.3,48.4,63,48.5 M59.8,47.8l0.1-2.7c0,0,1,0.1,1.7,0l0.1,2.9
		C61.1,47.9,60.3,47.9,59.8,47.8 M62.3,42.3c0.1,0.3,0.5,1.5,0.8,2.1c-2.9,0.6-6.1,0.3-8.5-3.1l0.4-1.9C56.7,42,59.4,43.1,62.3,42.3
		 M56.7,38.3c0.3,0.4,0.4,0.5,0.8,0.8c-0.2,1.3-1,1.3-1.7,0.9c-0.6-0.4-0.6-1-0.5-1.7C55.6,38.5,56.4,38.5,56.7,38.3 M58.5,41.7
		c-1.2-0.3-0.8-1.7-0.7-2.3c0.6,0.4,1.3,0.7,2.1,0.8C60,41.1,60,42.1,58.5,41.7 M56.6,37.4c0.5,0,0.8-0.1,1-0.3
		c0.1,0.3,0.5,1.5,1.6,1.7c1,0.2,1.4-0.1,1.8-0.5l0.3,1.4c0,0-0.3,0.1-0.8,0.2c-0.9,0.1-2.7-0.4-3.8-2c-0.4,0.1-1.1,0.3-1.4,0.1
		l0.2-1.1C55.9,37.1,56.2,37.3,56.6,37.4 M54.7,34.8l-0.1-1.9l2.3-1.6C56.5,32.9,55.9,34.3,54.7,34.8 M57.7,36c0,0.7-1,1.4-1.9,0.4
		l0.5-1.8C56.4,35.4,57,35.9,57.7,36 M59.8,34.2c0,0.7-0.6,1.7-1.8,1.4c-1.3-0.3-1.4-1.2-1.4-1.9c0.6,0,1.1-0.3,1.5-0.9
		C58.2,33.6,58.8,34.2,59.8,34.2 M59.9,33.8c-1.6,0-1.4-1.7-1.4-2.1c0.7-0.1,1-0.3,1.4-0.8c0.2,0.6,0.8,1,1.4,1
		C61.2,32.4,61.4,33.8,59.9,33.8 M59.6,38.2c-1.2-0.2-1.5-1.1-1.4-2.1c0.5,0.1,1.3,0,1.6-0.6c0.1,0.6,0.6,0.8,1.1,0.9
		C60.9,36.8,61.1,38.3,59.6,38.2 M62.6,34.7c0.1,0.5-0.2,1-0.8,1.2c-1,0.2-1.4-0.2-1.5-0.6c-0.1-0.5,0.1-1.2,0.8-1.3
		C61.7,33.8,62.4,34,62.6,34.7 M62.6,33.8c-0.3,0-1.1-0.2-1-2c0.3,0,0.9-0.1,1.3-0.5C62.7,32,62.6,32.9,62.6,33.8 M62.9,40.2
		c0.3-0.1,0.7-0.2,1-0.4c0.1,0.3,0.2,0.7,0.3,1C63,41,62,41.4,60.8,42c-0.1-0.4-0.3-1-0.4-1.4c0.6-0.1,1.2,0,1.9-0.3
		c-0.4-1.3-0.8-2.5-1-3.9c0.9-0.1,1.6,0.5,1.9,1.5C63.7,39.5,62.7,39.4,62.9,40.2 M57.3,54.3C56,54,54.4,54,53.6,53.9
		c0,0,0-2.1,0.1-3.7c1,0.6,3.5,2,5.8,2.4c1.9,0.3,4.5-0.5,6.4-0.2l0.8,2.2C63.4,53.9,60.9,55.2,57.3,54.3 M59.5,56.8
		c-1.6,0-2.3-1.7-6,0.2l0-2.5c3.3-0.4,4.4,0.7,7.1,0.6c1.8-0.1,3.9-0.7,6.3,0.1l-0.1,1.3C61.5,55.7,61.4,56.9,59.5,56.8 M64.9,60.3
		l-0.7,0c0.2-1.1,0.3-2.3,0.1-3.4c0.4,0.1,0.8,0.2,1.2,0.6C65.4,58.2,65.5,59.3,64.9,60.3 M62.7,56.8c0.2,0,0.7,0,1,0.1
		c0.2,0.7,0.1,2.8,0.1,3.5c-0.5,0.1-0.9,0.1-0.9,0.1C62.7,59.5,62.6,57.8,62.7,56.8 M62.3,61.6l-0.8,0l0-1.1
		c0.9,0.6,2.3,0.1,3.4,0.3l-0.1,1.3C63.9,62.5,63.5,61.6,62.3,61.6 M62.4,60.4c-0.4-0.1-0.6-0.3-0.9-0.4c-0.1-0.8-0.4-1.8-0.2-2.7
		c0.4-0.2,0.4-0.3,0.9-0.4C62.1,57.9,62,59.4,62.4,60.4 M58.9,71.3c0.6-1.3,0.3-1.8-0.1-9.4c0-0.3,0-0.9,0.1-1.5
		c0.4-0.8,0.5-1.8,0.5-2.5l1.3-0.4c-0.1,1.7,0.3,3.2,0.4,4.5c-0.2,0.7-0.3,1.4-0.4,1.9c0,1.8,1.3,2.5,0.8,6.3
		c-0.3,2.3,1.9,1.3,2.6,2.5c0.1,0.2,0.5,0.4,0.7,0.5C60.8,73.4,60.9,71.8,58.9,71.3 M58.7,72.5c-0.1-0.4,0.1-0.7,0.6-0.4
		c0.5,0.2,1.2,0.8,1.2,0.8c-0.3,0.4-0.5,0.7-1,0.9C59.2,73.5,58.8,72.8,58.7,72.5 M57.6,71.9c0.2-0.8-0.3-1.3,0.1-3.1
		c0.2-0.8,0.4-1.6,0.9-2.4c0.2,5.3-0.3,4.2-0.5,5.3c-0.1,0.8,0.4,1.3,0.8,2c-1.2,0-2.1-0.6-2.9-0.8C56.5,72.5,57.3,72.5,57.6,71.9
		 M51.7,73.1c1.3-0.7,1.2-1.1,1.9-1.7c0.6-0.5,1.5-0.9,1.7-1.6c0.3-1.4-0.5-4.4-0.4-6.4c0-1.8,0.8-1.8,2.3-1.3
		c1.6,0.6,1.5,2.5,0.6,4.3c-0.4,0.9-0.7,2.3-0.7,3.2c0,0.8,0.7,2-0.6,2.5c-2.3,0.6-1.6,1.9-4.4,2C50.8,74.1,50.5,73.6,51.7,73.1
		 M55.4,59.7c-0.3-0.2-0.6-0.5-0.8-0.7c-0.1-0.3-0.2-1.3-0.2-1.6c0.4-0.4,0.7-0.5,1.2-0.6C55.2,57.9,55.2,58.3,55.4,59.7 M57.3,56.7
		c0.5,0.1,1,0.5,1.4,1c0.1,0.7,0,1.4-0.3,2.3l-1.1,0.2C57.6,59,57.6,57.9,57.3,56.7 M56,56.8l0.8-0.1c0.2,1.3,0.3,2.4,0.1,3.5
		c-0.3,0-0.8-0.1-1.1-0.3C55.7,58.9,55.8,57.9,56,56.8 M58.3,60.7l0,0.7c-1.3,0.2-2.3,0-3.4-0.3l-0.2-1.3
		C55.6,60.6,56.9,60.8,58.3,60.7 M53.2,68.7c0.3-0.6,0.5-1.5,0.5-2.4c0-2-0.2-8.5-0.2-8.5l0.4,0.2c0,0,0.5,4,0.5,3.9
		c-0.2,2.9,0.1,3.9,0.4,5.8c0.1,1.3,0.3,2-0.5,2.6c-2.4,1.7-1.3,1.7-3.2,2.6L53.2,68.7z M52.8,68.2c0.1,0.5-2.1,4-2.8,5.2
		c-0.3-0.2-0.8-0.7-1.2-1.5c-0.1-0.3-0.3-0.4-0.7-0.4c-0.5,0-0.9,0-1.1-0.1C48.9,70.5,50.7,69.7,52.8,68.2 M50.8,65.2l-0.2,3.6
		l-4.9,0L50.8,65.2z M41.2,58.1l4,2.9l0,0.1l-3.3,2.3C41.7,61.8,41.4,59.8,41.2,58.1 M41.2,64.5l0.1,1.5c-4-0.1-7.2,1.5-11.4,0.6
		l0-2.9C36.7,66.6,37.4,64.2,41.2,64.5 M29,56.2l-4.4-3.4l5.1-3.6C30.7,51.9,29.7,54.3,29,56.2 M32,49c0.2,2-1.1,1.7-1.1,1.7
		c-0.1-0.8-0.5-2.2-0.8-3C30.6,48.1,31.6,48.7,32,49 M34.3,48.6L34,49.5l-2.8-1.7c0.7-0.1,1-0.3,1.3-0.7L34.3,48.6z M35.4,45.3
		L35,46.3l-2-1.5c0-0.7-0.4-1.6-0.8-2.3L35.4,45.3z M33.5,39.3c0.8,0.4,1.5,0.5,2.1,0.4c0.1,2,1.2,2.9,2.1,3.9
		c-0.6,0.6-1.7,0.7-2.5,0.5c-1.4-0.4-2.8-2.3-4.3-3.1c-0.3-1-0.6-2.2,1.3-2.7C32.4,38.6,32.8,39,33.5,39.3 M35,35.6
		c-0.1,1-1.2,2.7-1.2,2.7c0.3,0,1.2-0.7,1.5-1l0.8,0c0,0.1,0.3,0.5-0.4,0.6c1.2,1.3-0.4,1.5-1.9,0.9c-0.3-0.1-0.5-0.3-0.6-0.7
		c-0.2-0.5-0.3-1.4-0.2-1.7C33.4,35.3,34.3,36.3,35,35.6 M34.9,35.2c-0.3,0.3-0.9,0.4-1.5,0C33.7,34.8,34.8,34.5,34.9,35.2
		 M36.4,34.4c-0.2,0.1-0.2,0.4-0.2,0.6c0,0.5,0.1,1.3,0.1,1.7l-1-0.1c-0.2-0.2,0.2-0.1,0.2-0.8c0-0.2,0-0.5,0-0.9
		c0-0.3,0-0.4-0.5-0.7c-0.4-0.1-1.1-0.1-1.6-0.1c0-0.4,0.3-0.6,0.8-0.7c0.5-0.1,1.4-0.1,1.7,0.1c0.4,0.2,0.5,0.2,0.5,0.5
		C36.5,34.1,36.5,34.3,36.4,34.4 M36.9,38.5l4,3.1l0,0.2l-2.4,1.7c-1.1-0.9-2.2-2.1-2.2-3.7C36.6,39.6,37.2,39.4,36.9,38.5
		 M41.6,33.7c0,0,0.1,0,0.3,0l3.9,3.1l0,1.6l-4.3,3c-0.1-0.1-0.3-0.1-0.4,0L36.8,38c0-0.2,0-0.8,0-0.8L41.6,33.7z M39.3,31.6
		l2.1,1.7l0,0.1l-4.6,3.3c-0.1-1.7,0.3-3,0.8-4.1C38.3,33.2,39.5,32.8,39.3,31.6 M45.9,61l5.3-3.7l-0.4,7.4L45.9,61L45.9,61z
		 M45.6,53.8c0,0,0.2,0.1,0.4,0l2,1.5c-0.1,1.2,0.8,2,2.1,1.5l0.6,0.4l-5,3.5c0,0-0.1-0.1-0.3,0l-4-3l-0.1-0.8L45.6,53.8z M41,55.5
		l-0.3-0.2l-0.2-2l2.4-1.7l2.5,1.8l0,0.1l-4.2,3L41,55.5z M40.9,61.5l0.3,2.4c0,0-1.2-0.1-2.1,0l-0.3-2.8
		C39.4,61.3,40.1,61.3,40.9,61.5 M37.3,60.7l-0.2-2.3l1.9,0l0.2,2.2C38.5,60.7,37.9,60.7,37.3,60.7 M38.2,61.2l0.3,2.9
		c0,0-1.2,0.4-2.2,0.3l-0.2-3.1C36.6,61.3,37.7,61.3,38.2,61.2 M34.6,60.9l-0.2-2.5c0.7,0.1,2.1,0.1,2.1,0.1l0.1,2.3
		C35.9,60.8,35.3,60.9,34.6,60.9 M35.5,61.4l0.2,3.1c-1,0-2-0.2-2-0.2l-0.1-2.9C34.2,61.4,34.8,61.4,35.5,61.4 M32.2,60.8l0-3
		c0.7,0.3,1.8,0.5,1.8,0.5l0.1,2.6C33.5,60.9,32.9,60.9,32.2,60.8 M31.4,61.2c0.5,0.1,1.2,0.2,1.7,0.2l0.1,2.9c0,0-1.1-0.3-1.8-0.6
		L31.4,61.2z M40.8,61c-0.4-0.1-0.6-0.2-1.2-0.2l-0.3-2.3l1.1-0.1L40.8,61z M40.3,55.8c0.1,0.7,0.2,1.4,0.2,2.1c-5,0-7.8,0-10.4-2
		l0.4-1.6C33,56.1,36.3,56.2,40.3,55.8 M33,53.2c0.5,1.2,1.8,1.4,2.7,1.5c0.7,0,1.7-0.3,2.2-1c0.4,0.5,1.2,0.6,1.9,0.3l0.2,1.4
		c-0.4,0-0.8-0.1-1.3-0.3l-0.3-0.2l-0.2,0.1c-1.5,1-3.8,0.7-4.8-0.5c0-0.1-0.1-0.1-0.1-0.2c0,0-0.1,0.1-0.2,0.1
		c-0.7,0.2-1.8,0.1-2.4-0.6l0.2-0.9C31.1,53.3,32.3,54.1,33,53.2 M34.6,50.5c0,1-0.8,1.2-1.5,1c-0.6-0.2-0.9-0.8-0.7-2.2
		C32.9,49.7,34.1,50.3,34.6,50.5 M34.5,48.1l-1.7-1.4l0.2-1.2l1.9,1.4L34.5,48.1z M35.8,52.7c0.6,0.1,1.5,0.1,1.8-0.8
		c0.1,0.7,0.2,1.9-0.9,2.1C35.6,54.2,35.7,53.1,35.8,52.7 M35.4,52.5c0,0.9-0.3,1.5-1.1,1.3c-0.7-0.2-1-0.8-0.8-1.7
		c0.7,0.1,0.8-0.1,1.2-0.4C34.6,51.7,34.8,52.3,35.4,52.5 M35.1,50.8c0.5,0.3,1.2,0.6,2.1,0.9C37,52.8,34.5,52.2,35.1,50.8
		 M38.9,53.6c-0.9-0.1-0.8-1-0.8-1.6c0.4,0.2,1.3,0.3,1.8,0.2C39.9,53,39.8,53.8,38.9,53.6 M38.8,46.8c-0.5,0.6-0.8,0.2-0.9-0.1
		c-0.2-0.9-0.2-1.8,0.3-2.6C39.1,45.1,39.7,45.4,38.8,46.8 M42.6,42.9c-1,0.7-1.7,1.5-2.6,2.3c-0.3-0.7-0.9-1.1-1.3-1.5l2.4-1.7
		c0,0,0.2,0.1,0.3,0L42.6,42.9z M45.8,39.7c-1.2,1.5-1.3,2-2.9,3l-1.2-1l0-0.1l4.2-2.9L45.8,39.7z M49.4,48.8c0,0,0.2-1.6,0.2-2.4
		c-0.3-0.2-1.2-0.1-1.4,0.6c-0.2-0.2-0.6-0.2-0.8,0.2c-0.3-0.2-0.7-0.2-0.8,0.2c-0.1,0-0.2-0.1-0.3-0.1c0-0.3,0-1.4,0-1.7
		c0.8-0.1,1.9-0.5,1.3-1.4c0.6-0.3,0.5-0.9,0.2-1c0.4-0.3,0.4-0.5,0.5-0.9c0.1-0.3,0.1-0.6,0.1-1c0-0.7-0.1-0.7-0.4-0.8
		c0.4-1.5-0.1-2-0.8-1c-0.2,0.2-0.8,1.2-0.8,1.2l0-3.4l4.1,0L50,48.8L49.4,48.8z M42.8,47.9c0.6-1.1,0.9-2.4,2.9-2.3
		c0,0.5,0,1.3,0,1.8C45.2,47.8,43.9,47.8,42.8,47.9 M45.3,48.3c0.2,0,0.4,0,0.5,0.3c0.1,0.3,0.4,0.3,0.4,0c0-0.3,0-0.4-0.1-0.5
		c-0.1-0.4,0.3-0.4,0.4-0.2c0.1,0.3,0.1,0.4,0.1,0.7c0,0.3,0.3,0.3,0.3,0c0-0.3-0.1-0.5-0.1-0.7c-0.1-0.4,0.4-0.4,0.4-0.1
		c0,0.2,0.1,0.6,0.1,0.9c0,0.2,0.3,0.3,0.3,0c0-0.3-0.1-0.6-0.1-0.9c0-0.4,0.5-0.4,0.5,0c0,0.3,0,0.7,0,1c0,0.3,0.3,0.3,0.3,0
		c0-0.3,0-0.7,0.1-1.2c0.1-0.3,0.2-0.6,0.6-0.6c-0.1,1.1-0.2,1.9-0.3,2.8c-0.1,0.8-0.6,0.7-1.4,0.6c-0.7-0.1-2.8-0.4-3.5-1.1l0,0.9
		c-0.9,0.7-2.9,2-3.3,2.2l1.9-3.7C43.6,48.5,44.1,48.4,45.3,48.3 M49.5,50.7l-3.6,2.5c0,0-0.2-0.1-0.3,0l-2.4-1.8l1.1-0.8l0-0.6
		c0.8,0.4,1.7,0.6,2.8,0.8c1.9,0.3,2-0.3,2.1-1.3l0.3,0L49.5,50.7z M48,54.9l-1.9-1.4l0-0.1l3.4-2.4c0,0,0,1.6-0.1,2.5
		c0,0.3-0.1,0.4-0.3,0.4C48.7,54,48.1,54.5,48,54.9 M49.2,54.4c0.7-0.1,1.1,0.5,1.1,0.9c0,0.6-0.3,1-0.9,1c-0.5,0.1-1-0.2-1-0.9
		C48.4,54.9,48.8,54.4,49.2,54.4 M45.5,42.2c0.1,0.1,0.8-0.5,0.9-0.8c0.3-0.6,0.5-1.1,0.9-1.7c0.2-0.3,0.4-0.2,0.4,0.2
		c-0.1,0.3-0.7,1.8-0.9,2.1c-0.2,0.2-0.4,0.3-0.7,0.5l0.3,0.3l0.8-0.7l0.4-1.1c0.1-0.2,0.4-0.4,0.4,0.1c0,0.5-0.2,1-0.2,1.3
		c0,0-0.4,0.4-0.7,0.6c-0.2,0.2-0.4,0.2-0.3,0.3c0.1,0.2,0.2,0,0.4,0c0.3-0.1,0.7,0.3,0,0.6c-0.3,0.1-0.4,0.1-0.4,0.2
		c0,0.2,0.2,0.1,0.3,0.1c0.3,0,0.4,0.4-0.1,0.6c-1.1,0.2-2.5-0.1-3.2,0.2c-1.1,0.4-1.6-0.5-1.8-0.9c0.4-0.5,1-0.9,1.5-1.2
		c1-0.5,1.7-1.6,2.1-2.4C46.1,41,45.4,42.1,45.5,42.2 M35.6,44.7c0.7,0.1,1.4,0,1.9-0.2c-0.1,0.3-0.3,1.1-0.2,1.9L35.6,44.7z
		 M35.8,45.9c0.5,0.5,1.1,1,1.7,1.4c0.7,0.6,1.2,0.5,1.7-0.1c0,0,1.5-1.8,2.6-2.7c0,0,0.9,1.1,1.3,1.6c-0.8,1.9-1.3,3-2.2,4.4
		c-1,1.7-2.4,1-3,0.8c-1.1-0.4-2.3-0.9-3.3-1.6L35.8,45.9z M31,51.3c0.3,0,0.7-0.1,1.1-0.4c0.1,0.5,0.4,1,0.9,1.1c0.1,1-1,1.6-2,0.5
		C30.9,52,31,51.8,31,51.3 M31,61.1l0,2.3l-1-0.4l0-2.3L31,61.1z M30,60.2c0-0.8,0.2-3.4,0.2-3.4c0.7,0.4,1.5,0.8,1.5,0.8l0,3.1
		C31.2,60.6,30.6,60.5,30,60.2 M51.1,57.2l-0.8-0.6c1.2-1,0.5-2.2,0-2.5c-0.3-0.1-0.4-0.1-0.4-0.5c0-0.3,0.2-2.7,0.2-4.1l0.5,0
		l0.5-12.8l-2.5,0l1.6-1.1c0.6,0.5,1.1,0.5,2.1,0.5L51.1,57.2z M47.8,29.2l1.7-1.2c0,0-0.2,1.1-0.3,2.4L47.8,29.2L47.8,29.2z
		 M49.2,30.8c0,1.8,0.1,3.6,0.8,4.5l-1.9,1.4l-1.9,0l-4.1-3.2c0,0,0-0.1,0-0.1l5.2-3.7c0.1,0.1,0.3,0,0.3,0L49.2,30.8z M38.7,29
		c-0.6,0-1.1,0.1-1.6,0.4l-0.4-0.2l5.3-3.7c0,0,0.2,0.1,0.4,0l4.7,3.7l0,0.2l-5.2,3.7c-0.2-0.1-0.3,0-0.3,0l-2.7-2.1
		C39,30.3,39,29.6,38.7,29 M35.1,69.4c0,1.2-0.1,2.4-0.5,3.3l-0.8-0.1c0.2-1.1,0.3-2.3,0.4-3.3L35.1,69.4z M30.1,69.4l0-2.2
		c5.6,0.6,6.8-0.7,11.4-0.6l0.1,1.5C37.7,67.3,37.8,69,30.1,69.4 M35.5,70.8l0.1-1.4c1.1-0.2,2-0.6,2.5,0.3
		C37.4,70.2,36.4,70.6,35.5,70.8 M37.9,72.3c-0.5,0.8-1.9,0.6-2.7,0.5l0.2-0.7C36.3,72.3,37.1,72.3,37.9,72.3 M35.4,71.7l0.1-0.3
		c1-0.3,1.9-0.5,2.7-1.2c0.3,0.3,0.2,1.2,0,1.5C37.3,72.1,36.2,71.9,35.4,71.7 M38.9,69.9c-0.1-1.4,0.8-1.6,2.7-1.1
		c0.5,2.6-1.7,2.6-2.6,2.4C39.1,70.6,38.9,70.4,38.9,69.9 M45.5,68.8l-3.1,0l-0.2-2.2L45.5,68.8z M42.1,66.2c0-0.7-0.2-1.7-0.2-2.4
		l3.5-2.4c0,0,0.1,0.1,0.3,0l4.9,3.6l-5,3.5L42.1,66.2z M64,69.4c0.4,0.9,1.4,1,2.4,1.9c0.4,0.4,0.7,1,1.1,1.5
		c0.4,0.4-0.1,0.8-0.8,0.5c-0.6-0.4-0.9-0.1-1.5-0.4c-0.5-0.3-1-0.9-1.5-1.3c-0.8-0.5-2.1,0.4-1.8-2.1c0-0.4,0.4-1.9-0.5-4.2
		c-0.3-1-0.2-2.2,0.3-3.1c0.9,0,2,0.3,2.5,1C65.4,65,63.4,67.7,64,69.4 M69.4,61.1l0.1,7.7c-1-1.4-1.5-2.7-1.5-4.8
		C68.3,63.3,68.9,62,69.4,61.1 M68.7,61l-1.4,3.7c-0.5,1.1-0.8,2.1-0.7,3.3l0.6-0.1c-0.1-0.5,0-2,0.4-2.7c0.1,1.8,1,3.5,2,4.7
		c0,0-2-0.7-2.7-1c-0.9-0.4-1-0.6-0.9-1.8l1.5-10.5C68.6,58.8,69,59.9,68.7,61 M70.1,42.7l-0.5-0.2c-0.2-1-0.5-2.4-0.5-2.4l-0.4-2.6
		l-0.6,0l0.3,2.3c0.1,0.7-0.5,0.8-0.8,0.8c-0.1-1.3-0.2-3.1-0.2-3.1l-0.6-0.5l0.3,3.9c0.1,1.7,0.1,3.1-1.3,3.5L65.2,42
		c1.4-0.4,1.4-1.7,1.2-3.5l-0.2-2L65.6,36l0.3,2.5c0.1,1.1,0.4,2.8-0.8,3.1l-0.5-1.8c0.7-0.3,0.8-0.8,0.6-2.3l-0.2-1.6l-0.6-0.7
		l0.3,2.4c0.1,1.4,0.1,1.5-0.3,1.7c-0.9-2.7-1.1-4.7-1.1-4.7c-0.2-3.5,0.4-4,1.3-4c0.5,0,1,0.5,0.9,1c-0.1,0.9-1.2,0.7-1.2,0.7
		s-0.1,1.1,0.5,1.9c0.8,1.1,2.5,1.7,4.1,1.7c0.7-2.1,1-2.9,1.1-3.5C70.1,36.8,70.1,42.7,70.1,42.7 M68.1,46.3l-1.4,0.3
		c-0.2-0.7-0.4-1.2-0.4-1.2C66.7,45.6,67.8,46.1,68.1,46.3 M67.7,41.1c0,0,0.6,0.1,1-0.4c0,0,0.3,1.2,0.4,2.1c0.1,0.9-0.2,2-0.5,3.3
		l-0.7-1.5l-0.4,0.2c0,0,0.4,0.8,0.5,1l-1.8-0.9C67.6,44.4,67.9,43.3,67.7,41.1 M67.8,49.7c-0.2-0.5-0.6-1.7-1-2.7l2.9-0.6v-0.5
		l-0.7,0.1c0.2-0.8,0.4-1.7,0.7-2.8l0.3,0.1c0,1,0,3.7,0,3.7c-0.3,0-0.7,0.1-0.7,0.4c0,0.3,0.3,0.4,0.7,0.3
		C70.1,49,69.5,49.7,67.8,49.7 M70.1,55.9c-0.5-1.3-0.8-2.1-1.2-3.5l1.3-1.7C70.3,51.2,70.3,54.4,70.1,55.9 M70.2,49.9l-1.5,1.9
		c-0.2-0.6-0.4-1-0.6-1.5c0.8,0,1.5-0.1,2.1-1L70.2,49.9z M69.5,31.3c-0.4,1.2-0.8,2.8-1.2,3.8c-1.3,0.1-3.6-0.8-3.6-2.5
		c1,0.1,1.4-0.8,1.2-1.5c-0.2-1.1-1.2-1.4-2.1-1.1c1.5-1.6,3.1-2.9,5.4-4.3C67.7,29,70.2,29.1,69.5,31.3 M64.9,26.5
		c0.2,0.3,0.6,0.6,0.9,0.9c-0.8,0.6-1.7,1.5-2.4,2.2c0-0.3-0.1-0.5-0.2-0.8C64.3,28.6,65,28,64.9,26.5 M57.5,28.7
		c0,0,0.4-0.1,0.6-0.3c0.2,0.8,0.8,1.3,1.4,1.4c0,1.2-1.1,1.6-2.1,1C57.5,30.3,57.6,29.5,57.5,28.7 M53.2,35.3l0.2-4.1l0.6-0.4
		c0.1,1.3,0.2,4.1,0.2,4.1C53.8,35.1,53.6,35.2,53.2,35.3 M55.4,35.3c-0.2,0.6-0.5,2.3-0.7,3l-0.4,0.4l-0.5,3c0,0,0.2,0.3,0.3,0.5
		c-1.9,8.6-1.1,18.4-1.1,23.3c0,2.2-0.3,2.1-1.5,2.9l1.7-32.2C53.8,36,54.7,35.7,55.4,35.3 M44.9,23.1c0.4-0.9,1.2-2.1,1.9-2.7
		l0.8,0.7l0,0.1L44.9,23.1z M47.8,21.4c0.1,0,0.2,0,0.3,0l2.8,2.3c-0.5,1.3-0.9,2-1.3,3.9l-2,1.4c-0.1-0.1-0.3,0-0.3,0l-4.8-3.8
		l0-0.1l0.7-0.5l0.3,0.6c0.1,0.2,0.2,0.3,0.4,0c0.3-0.5,0.4-0.9,0.9-1.6L47.8,21.4z M36.9,20.7L36.9,20.7l1.8-1.4
		c0.5,1.2,1.1,2.9,1.4,3.9L36.9,20.7z M40.1,23.7c0,0,0.3,0.8,0.4,1.2c0.1,0.3,0.2,0.3,0.3,0l0.2-0.5c0,0,0.8,0.6,0.8,0.6l0,0.1
		L36.5,29l-5.3-4.2c0-0.1,0-0.1,0-0.1l5.2-3.7c0,0,0.2,0,0.3,0L40.1,23.7z M19.1,52.1c0-0.9,0.4-1.9,1.3-2.8l0.4,1.6
		c-0.2,0-0.7,0.1-0.7,0.1l0,0.9c1-1.3,2.6,0.5,2.4,2.5c-0.4,0.5-1.1,1.3-1.6,1.8c-0.2-0.2-0.8-1.3-1-1.7c0.7,0,1.5-0.2,1.2-1.4
		c-0.5,0.8-2.1,1.3-2.1-0.2c0.2,0,0.7,0.1,0.7-0.4C19.7,52.1,19.4,52.1,19.1,52.1 M21.7,48.1c-0.4-0.1-0.7-0.3-0.9-1
		c0-0.3-0.1-0.5-0.1-0.9c0.3-0.1,0.7-0.2,1-0.3L21.7,48.1z M23.6,49.6c-0.5,0-1.3,0-1.4-1.8c0-0.6-0.1-1.2-0.1-2.1
		c0.3-0.1,0.6-0.3,0.9-0.4C23.1,46.6,23.1,48.5,23.6,49.6 M23.9,42.2c0-0.4,0.4-0.7,0.8-0.6c0.7,0.1,0.7,0.8,0.7,1.5
		c0,0.6-0.1,1.3,0,2.5c-0.5,0-0.8-0.2-0.8-1l0-1.1l-0.4,0.3c0,1.3,0.1,2.6,0.4,3.7c-1.3,0-1.1-1.7-1.1-3.2c-1,0.6-2,1.1-3,1.4
		l-0.2-0.7c1.5-0.4,2.9-1.1,4.1-2.2C23.9,42.7,23.9,42.5,23.9,42.2 M17.5,40.5c0.4,0.2,0.7,0.6,1.1,0.9c0.2-0.1,0.4-0.3,0.7-0.1
		c0.9,0.6,0.6,2.1-0.2,2.1C18.6,43.4,18,41.7,17.5,40.5 M17.3,46c0,0.9-0.3,1.7-1.3,1.8c0.1-0.5,0.3-1.3,0.3-2.1
		C16.5,45.7,16.9,45.9,17.3,46 M18.8,57.8c0,0-1.3-0.9-1.7-1.5c0.5-0.4,1.1-1,1.4-1.6C18.5,55.6,18.6,57,18.8,57.8 M18.7,49.9
		c-0.6-0.3-1.1-1.6-1.1-2.3c0-0.5,0.1-1.4,0.5-2.1c-0.8,0.2-1.4-0.2-2.1-0.5c-0.3,1.8-0.3,4.1-1.8,4c0.5-1,0.8-2.4,1-4.3l-0.4-0.3
		c-0.1,0.7-0.2,1.6-0.4,2.4c-0.1,0.4-0.6,0.5-0.9,0.4c0.4-1,0.5-2.3,0.5-3.7l-0.4-0.3c-0.1,0.5-0.2,0.9-0.7,1.1
		c0.2-0.6,0.1-1.9,0.1-2.8c0-0.7,0.4-0.9,0.8-0.9c0.4,0,0.7,0.4,0.7,0.8c0,0.4-0.2,0.7-0.8,0.8c1.1,1.6,2.8,2.5,4.6,2.7
		c0.2-0.5,0.2-0.5,0.2-1.1l1,0c-0.1,1.9,0.6,1.7,0.8,3.4C20.5,48.6,19.3,50.3,18.7,49.9 M29.7,75.5l4,0c-0.8,0.2-0.8,0.7-0.9,1.5
		c-0.2,0-1.1,0.1-1.4,0.5c-0.1-0.4-0.4-0.6-1.1-0.5C30.4,76.3,30.2,75.7,29.7,75.5 M38.1,76.8c0,0-0.7,0-1.2,0.6
		c-0.2-0.3-0.5-0.5-1.1-0.5c0-0.9-0.4-1.2-0.9-1.4l3.9,0C38,75.7,38.1,76.8,38.1,76.8 M46.6,79.9c0.7,0,0.9-0.1,1.2-0.5
		c0.2,0.5,0.7,0.7,1.2,0.6c0,0.6,0.3,1.3,1.1,1.6l-4.3,0C46.5,81.3,46.6,80.5,46.6,79.9 M43.9,79.7c-0.5,0-1.4-0.1-1.4-1.2
		c-0.1-1.1,0.9-1.2,1.4-1.3c0-0.4-0.2-1.6,1-1.6c1.2,0,1.1,1.2,1.2,1.6c0.4,0,1.4,0,1.5,1c0.2,1.6-1,1.3-1.4,1.3
		c0,0.6,0.3,1.8-0.9,1.8C43.9,81.4,43.9,80.1,43.9,79.7 M41.1,77c0-1-0.3-1.2-0.6-1.5l3.6,0c-0.6,0.2-0.7,0.8-0.7,1.4
		c-0.5,0-0.9,0.3-1.2,0.6C41.8,77.1,41.6,76.9,41.1,77 M41,80c0.7,0,1-0.2,1.2-0.6c0.2,0.4,0.7,0.7,1.3,0.7c0,0.8,0.2,1.3,1,1.6
		l-4.2,0C40.8,81.5,41.1,80.7,41,80 M49,76.8c-0.6,0-0.9,0.3-1.3,0.6c-0.3-0.4-0.6-0.5-1.2-0.5c0-0.7-0.2-1-0.6-1.5l3.7,0
		C49.2,75.7,48.9,76.1,49,76.8 M57.1,79.8c0.4,0,0.7-0.2,0.9-0.5c0.3,0.4,0.5,0.6,1,0.6c0,0.7,0.3,1.4,1,1.7l-3.8,0
		C56.9,81.3,57.1,80.5,57.1,79.8 M59.1,76.8c-0.4,0-0.9,0.2-1.1,0.5c-0.4-0.4-0.6-0.5-1.1-0.5c0-0.7-0.2-1-0.6-1.4l3.2,0
		C59.3,75.7,59.1,76.3,59.1,76.8 M52.9,77.3c-0.3-0.3-0.6-0.4-1-0.3c0-0.8-0.2-1.1-0.7-1.5l3.6,0c-0.5,0.3-0.7,0.8-0.7,1.4
		C53.7,76.8,53.3,76.9,52.9,77.3 M54.5,77.3c0-0.4-0.1-1.6,0.9-1.6c1.1-0.1,1,1.3,1,1.5c0.3,0,1.4,0,1.4,1.1c0,1.2-1.3,1-1.3,1
		c0,0.5,0.2,2-1,1.9c-1.1-0.2-0.9-1.2-1-1.7c-0.5,0-1.3,0.1-1.4-1.2C53.1,77.3,54.2,77.3,54.5,77.3 M60.6,81.1
		c-1.2,0-1.2-1.4-1.2-1.8c-0.3,0-1.1,0.1-1.2-1c-0.1-1.1,0.9-1,1.4-1.1c0-0.5-0.2-1.5,0.9-1.6c1.1-0.1,1,1.2,1.1,1.6
		c0.5,0,1.3-0.1,1.3,1.1c0,1.1-1,1.1-1.3,1.1C61.6,79.9,61.8,81.1,60.6,81.1 M64.4,76.6c-0.6,0-1,0.3-1.3,0.7
		c-0.2-0.2-0.4-0.5-1-0.5c0-0.7-0.3-1.2-0.7-1.5l3.6,0C64.5,75.7,64.4,76.2,64.4,76.6 M70.2,75.4c-0.4,0.4-0.5,0.8-0.5,1.2
		c-0.5,0-1,0.1-1.4,0.7c-0.3-0.5-0.5-0.6-1.1-0.6c0-0.8-0.3-1.1-0.6-1.4L70.2,75.4z M31.6,74.9c0.1-1.3-1.4-1.2-1.6-2.1
		c5.3,0.3,7.7,2,8.8-0.9c1.4,0.3,3.4-0.2,3.5-2.2l6.6-0.1c0,0-2.1,1.1-3.5,1.9c0.9,0.9,1.9,0.4,2.6,0.9c0.5,0.4,0.6,1.3,2.1,1.9
		c3.1,1.2,3.9-0.3,5.1-0.9c0.5,0.1,2.1,1,4.1,1.1l1.5-1.2c1.5,0.5,2.8,0.7,5.1,0.4c1.2,0.6,2.8,0.3,2-1.3l3.1,2.4L31.6,74.9z
		 M80.9,56.1c-0.1,0.4-0.3,0.8-0.5,1.2c-0.6-0.2-0.1-0.4-0.1-1.1c-0.2-2.1-2.7-3.3-0.3-4.9C81.1,53.2,79.6,54.3,80.9,56.1
		 M83.6,48.4c0,0,2,2.8-0.6,4C82,51.8,81.4,49.7,83.6,48.4 M83.1,44c0-0.3,0.2-0.7,0.4-0.7s0.3,0.3,0.3,0.6c0,0.3-0.2,0.6-0.4,0.6
		C83.2,44.6,83.1,44.3,83.1,44 M83.4,47.9c-1.2,0.9-1.8,1.5-1.8,2.7c0,1.9,1.7,2.2,0.7,2.9c-0.6,0.3-0.8-0.5-1.4-0.6
		c0.1-1-0.9-2-0.7-3.3l0.5,0c-0.2-1.1-0.4-2.8,0.1-3.1l0.4,0.6c1.4-0.9,1.4-2.5,1.4-2.5l0.2,0.3C82.8,45.9,83,46.9,83.4,47.9
		 M53.8,22.3c0.3,0.3,0.4-0.5,0.7-0.2c0.4,0.5-0.8,0.9-0.5,1.2c0.2,0.1,0.4-0.4,0.6-0.1c0.3,0.4-0.4,0.7-0.3,0.9
		c0.2,0.4,0.4-0.3,0.6,0.1c0.2,0.4-0.6,1.2-1.2,1.6c-0.9,0.5-2.4,0-1.8-2.2c0.4-1.1,1.1-1.9,1.9-2.6c0.4-0.3,0.9,0,0.5,0.4
		C53.9,21.8,53.6,22.1,53.8,22.3 M40.8,14.3c-0.2,0.1-1.3-0.9-1.7-1.5c0.5-0.1,0.9-0.3,1.3-0.4C39.9,13,41.1,14.1,40.8,14.3
		 M71.1,81.1c-1.1,0-1-1.2-1-1.7c-0.5,0-1.5,0-1.4-1.2s1.1-1.2,1.5-1.2c0-0.3,0-1.4,0.9-1.5c1,0,0.9,1.1,1,1.5c0,0,1.3-0.1,1.4,1
		c0.1,1.1-0.9,1.2-1.3,1.2C72.2,79.9,72.2,81.1,71.1,81.1 M74.1,75.4c-0.4,0.3-0.8,0.9-0.8,1.4c-0.2-0.1-0.4-0.2-0.7-0.2
		c0-0.5-0.1-1.1-0.6-1.3l1,0l1.1-1.3C74,74.4,74,75,74.1,75.4 M78,69.7l0.1,3.9c-0.4-0.4-1-0.4-1.6,0c-0.1-0.4-0.7-0.9-1.4-0.6
		L78,69.7z M72.8,74.7c0,0-1.2-3.1-1.3-3.4c-0.3-0.7-0.4-0.9-1.3-1.2v-0.6l7.4,0L72.8,74.7z M86.2,33.9l-5.6-4.1l0-0.1l2.3-1.7
		C84.1,29.7,85.3,32,86.2,33.9 M77.9,21.3C71.5,14.9,63.3,11,54.5,9.9c0.3-1.2,0.8-2.7,1.2-4c-0.3-1.4-0.7-2.7-1-4.1l-0.3,0
		c-0.5,1.4-1,2.5-1.6,3.8c0.3,1.7,0.7,2.9,0.8,4.2c0,0-2.7-0.2-4.1-0.2c-22.1,0-40.1,18.1-40,40.2c0,10.7,4.2,20.8,11.8,28.4
		C28.9,85.8,39,89.9,49.7,90c10.8,0.1,20.8-4.4,28.3-12c7.6-7.7,11.8-17.7,11.7-28.4C89.8,38.9,85.5,28.9,77.9,21.3"/>
	<path class="st0" d="M28.7,79.2c0.4,0,0.7-0.3,0.7-0.7c0-0.4-0.3-0.7-0.7-0.7c-0.4,0-0.7,0.3-0.7,0.7C28,78.9,28.3,79.2,28.7,79.2"
		/>
	<path class="st0" d="M60.5,77.7c-0.4,0-0.7,0.3-0.7,0.7c0,0.4,0.3,0.7,0.7,0.7c0.4,0,0.7-0.3,0.7-0.7S60.9,77.7,60.5,77.7"/>
	<path class="st0" d="M55.5,79.1c0.4,0,0.7-0.3,0.7-0.7c0-0.4-0.3-0.7-0.7-0.7c-0.4,0-0.7,0.3-0.7,0.7
		C54.8,78.8,55.1,79.1,55.5,79.1"/>
	<path class="st0" d="M50.4,77.8c-0.4,0-0.7,0.3-0.7,0.7c0,0.4,0.3,0.7,0.7,0.7c0.4,0,0.7-0.3,0.7-0.7
		C51.1,78.1,50.8,77.8,50.4,77.8"/>
	<path class="st0" d="M44.8,79.2c0.4,0,0.7-0.3,0.7-0.7c0-0.4-0.3-0.7-0.7-0.7c-0.4,0-0.7,0.3-0.7,0.7
		C44.1,78.9,44.4,79.2,44.8,79.2"/>
	<path class="st0" d="M40.3,78.5c0-0.4-0.3-0.7-0.7-0.7c-0.4,0-0.7,0.3-0.7,0.7c0,0.4,0.3,0.7,0.7,0.7
		C39.9,79.2,40.3,78.9,40.3,78.5"/>
	<path class="st0" d="M34.9,78.6c0-0.4-0.3-0.7-0.7-0.7c-0.4,0-0.7,0.3-0.7,0.7c0,0.4,0.3,0.7,0.7,0.7
		C34.6,79.3,34.9,78.9,34.9,78.6"/>
	<path class="st0" d="M75.9,75.1c-0.3,0.1-0.6,0.4-0.6,0.8c0,0.5,0.4,0.8,0.8,0.7c0.4-0.1,0.5-0.4,0.5-0.7
		C76.6,75.4,76.3,75.1,75.9,75.1"/>
	<path class="st0" d="M24.2,76c0-0.3-0.3-0.7-0.6-0.7c-0.4,0-0.6,0.4-0.6,0.7c0,0.3,0.3,0.7,0.7,0.7C24,76.7,24.2,76.3,24.2,76"/>
	<path class="st0" d="M71.1,77.6c-0.4,0-0.7,0.3-0.7,0.7c0,0.4,0.3,0.7,0.7,0.7c0.4,0,0.7-0.3,0.7-0.7
		C71.8,77.9,71.5,77.6,71.1,77.6"/>
	<path class="st0" d="M66.4,78.3c0-0.4-0.3-0.7-0.7-0.7c-0.4,0-0.7,0.3-0.7,0.7c0,0.4,0.3,0.7,0.7,0.7C66.1,79,66.4,78.7,66.4,78.3"
		/>
	<path class="st0" d="M55.8,33.2c0,0.2-0.2,0.3-0.3,0.3c-0.2,0-0.3-0.2-0.3-0.3c0-0.2,0.2-0.3,0.3-0.3C55.6,32.8,55.8,33,55.8,33.2"
		/>
	<path class="st0" d="M54.4,29.2c0,0.2-0.2,0.3-0.3,0.3c-0.2,0-0.3-0.2-0.3-0.3c0-0.2,0.2-0.3,0.3-0.3C54.3,28.8,54.4,29,54.4,29.2"
		/>
	<path class="st0" d="M55.7,30.9c0,0.2-0.2,0.3-0.3,0.3c-0.2,0-0.3-0.2-0.3-0.3c0-0.2,0.2-0.3,0.3-0.3
		C55.5,30.6,55.7,30.7,55.7,30.9"/>
	<path class="st0" d="M34.3,46.9c0,0.2-0.2,0.3-0.3,0.3c-0.2,0-0.3-0.2-0.3-0.3c0-0.2,0.1-0.3,0.3-0.3
		C34.1,46.5,34.3,46.7,34.3,46.9"/>
	<path class="st0" d="M33.5,48.4c0,0.2-0.2,0.3-0.3,0.3c-0.2,0-0.3-0.2-0.3-0.3c0-0.2,0.2-0.3,0.3-0.3C33.4,48,33.5,48.2,33.5,48.4"
		/>
	<path class="st0" d="M34.9,45.2c0,0.2-0.2,0.3-0.3,0.3c-0.2,0-0.3-0.2-0.3-0.3c0-0.2,0.2-0.3,0.3-0.3C34.7,44.9,34.9,45,34.9,45.2"
		/>
	<path class="st0" d="M36,59.6c0,0.2-0.2,0.4-0.4,0.4c-0.2,0-0.4-0.2-0.4-0.4c0-0.2,0.2-0.4,0.4-0.4C35.8,59.2,36,59.4,36,59.6"/>
	<path class="st0" d="M33.6,59.5c0,0.2-0.2,0.4-0.4,0.4c-0.2,0-0.4-0.2-0.4-0.4c0-0.2,0.2-0.4,0.4-0.4
		C33.4,59.1,33.6,59.3,33.6,59.5"/>
	<path class="st0" d="M38.5,59.6c0,0.2-0.2,0.4-0.4,0.4c-0.2,0-0.4-0.2-0.4-0.4c0-0.2,0.2-0.4,0.4-0.4
		C38.3,59.2,38.5,59.4,38.5,59.6"/>
	<path class="st0" d="M32.6,62.6c0,0.2-0.2,0.4-0.4,0.4c-0.2,0-0.4-0.2-0.4-0.4c0-0.2,0.2-0.4,0.4-0.4
		C32.5,62.2,32.6,62.4,32.6,62.6"/>
	<path class="st0" d="M40.3,62.6c0,0.2-0.2,0.4-0.4,0.4c-0.2,0-0.4-0.2-0.4-0.4c0-0.2,0.2-0.4,0.4-0.4
		C40.2,62.2,40.3,62.4,40.3,62.6"/>
	<path class="st0" d="M37.7,62.7c0,0.2-0.2,0.4-0.4,0.4c-0.2,0-0.4-0.2-0.4-0.4c0-0.2,0.2-0.4,0.4-0.4
		C37.5,62.3,37.7,62.5,37.7,62.7"/>
	<path class="st0" d="M35,62.9c0,0.2-0.2,0.4-0.4,0.4c-0.2,0-0.4-0.2-0.4-0.4c0-0.2,0.2-0.4,0.4-0.4C34.9,62.5,35,62.7,35,62.9"/>
	<path class="st0" d="M31.2,58.9c0,0.2-0.2,0.4-0.4,0.4s-0.4-0.2-0.4-0.4s0.2-0.4,0.4-0.4S31.2,58.7,31.2,58.9"/>
	<path class="st0" d="M59.8,50c0,0.2-0.2,0.4-0.4,0.4c-0.2,0-0.4-0.2-0.4-0.4c0-0.2,0.2-0.4,0.4-0.4C59.6,49.6,59.8,49.8,59.8,50"/>
	<path class="st0" d="M57.2,49.2c0,0.2-0.2,0.4-0.4,0.4c-0.2,0-0.4-0.2-0.4-0.4c0-0.2,0.2-0.4,0.4-0.4C57.1,48.8,57.2,49,57.2,49.2"
		/>
	<path class="st0" d="M62.4,50.1c0,0.2-0.2,0.4-0.4,0.4c-0.2,0-0.4-0.2-0.4-0.4c0-0.2,0.2-0.4,0.4-0.4
		C62.3,49.7,62.4,49.9,62.4,50.1"/>
	<path class="st0" d="M61.2,46.4c0,0.2-0.2,0.4-0.4,0.4c-0.2,0-0.4-0.2-0.4-0.4s0.2-0.4,0.4-0.4C61,46,61.2,46.2,61.2,46.4"/>
	<path class="st0" d="M58.9,46.2c0,0.2-0.2,0.4-0.4,0.4c-0.2,0-0.4-0.2-0.4-0.4s0.2-0.4,0.4-0.4C58.7,45.9,58.9,46,58.9,46.2"/>
	<path class="st0" d="M56.7,45.5c0,0.2-0.2,0.4-0.4,0.4c-0.2,0-0.4-0.2-0.4-0.4s0.2-0.4,0.4-0.4C56.6,45.1,56.7,45.2,56.7,45.5"/>
	<path class="st0" d="M54.9,48.2c0,0.2-0.2,0.4-0.4,0.4s-0.4-0.2-0.4-0.4c0-0.2,0.2-0.4,0.4-0.4S54.9,47.9,54.9,48.2"/>
	<path class="st0" d="M63.4,46.4c0,0.2-0.2,0.4-0.4,0.4c-0.2,0-0.4-0.2-0.4-0.4s0.2-0.4,0.4-0.4C63.3,46,63.4,46.2,63.4,46.4"/>
	<path class="st0" d="M31.5,55.6c0,0.2-0.2,0.4-0.4,0.4c-0.2,0-0.4-0.2-0.4-0.4s0.2-0.4,0.4-0.4C31.3,55.2,31.5,55.4,31.5,55.6"/>
	<path class="st0" d="M33,56.3c0,0.2-0.2,0.4-0.4,0.4s-0.4-0.2-0.4-0.4s0.2-0.4,0.4-0.4S33,56,33,56.3"/>
	<path class="st0" d="M34.6,56.7c0,0.2-0.2,0.4-0.4,0.4s-0.4-0.2-0.4-0.4c0-0.2,0.2-0.4,0.4-0.4S34.6,56.5,34.6,56.7"/>
	<path class="st0" d="M36.3,56.9c0,0.2-0.2,0.4-0.4,0.4s-0.4-0.2-0.4-0.4c0-0.2,0.2-0.4,0.4-0.4S36.3,56.7,36.3,56.9"/>
	<path class="st0" d="M38,57c0,0.2-0.2,0.4-0.4,0.4s-0.4-0.2-0.4-0.4s0.2-0.4,0.4-0.4S38,56.7,38,57"/>
	<path class="st0" d="M39.7,56.9c0,0.2-0.2,0.4-0.4,0.4s-0.4-0.2-0.4-0.4s0.2-0.4,0.4-0.4S39.7,56.6,39.7,56.9"/>
	<path class="st0" d="M58.7,43.2c0,0.2-0.2,0.4-0.4,0.4c-0.2,0-0.4-0.2-0.4-0.4s0.2-0.4,0.4-0.4C58.5,42.8,58.7,42.9,58.7,43.2"/>
	<path class="st0" d="M57.2,42.4c0,0.2-0.2,0.4-0.4,0.4s-0.4-0.2-0.4-0.4s0.2-0.4,0.4-0.4S57.2,42.1,57.2,42.4"/>
	<path class="st0" d="M55.9,41.2c0,0.2-0.2,0.4-0.4,0.4c-0.2,0-0.4-0.2-0.4-0.4c0-0.2,0.2-0.4,0.4-0.4C55.7,40.8,55.9,41,55.9,41.2"
		/>
	<path class="st0" d="M60.4,43.5c0,0.2-0.2,0.4-0.4,0.4c-0.2,0-0.4-0.2-0.4-0.4s0.2-0.4,0.4-0.4C60.2,43.1,60.4,43.3,60.4,43.5"/>
	<path class="st0" d="M62.2,43.5c0,0.2-0.2,0.4-0.4,0.4s-0.4-0.2-0.4-0.4c0-0.2,0.2-0.4,0.4-0.4S62.2,43.3,62.2,43.5"/>
	<path class="st0" d="M64.3,42.9c0,0.2-0.2,0.4-0.4,0.4c-0.2,0-0.4-0.2-0.4-0.4s0.2-0.4,0.4-0.4C64.1,42.5,64.3,42.7,64.3,42.9"/>
	<path class="st0" d="M46.4,64.9c0,0.4-0.4,0.8-0.8,0.8s-0.8-0.4-0.8-0.8c0-0.4,0.4-0.8,0.8-0.8S46.4,64.5,46.4,64.9"/>
	<path class="st1" d="M46.1,64.9c0,0.2-0.2,0.4-0.4,0.4c-0.2,0-0.4-0.2-0.4-0.4c0-0.2,0.2-0.4,0.4-0.4
		C45.9,64.4,46.1,64.7,46.1,64.9"/>
	<path class="st0" d="M18.2,69.6c0,0.4-0.4,0.8-0.8,0.8c-0.4,0-0.8-0.4-0.8-0.8c0-0.4,0.4-0.8,0.8-0.8
		C17.9,68.8,18.2,69.1,18.2,69.6"/>
	<path class="st1" d="M17.9,69.6c0,0.2-0.2,0.4-0.4,0.4c-0.2,0-0.4-0.2-0.4-0.4c0-0.2,0.2-0.4,0.4-0.4
		C17.7,69.1,17.9,69.3,17.9,69.6"/>
	<path class="st0" d="M18.5,61c0,0.4-0.4,0.8-0.8,0.8s-0.8-0.4-0.8-0.8c0-0.4,0.4-0.8,0.8-0.8S18.5,60.6,18.5,61"/>
	<path class="st1" d="M18.1,61c0,0.2-0.2,0.4-0.4,0.4c-0.2,0-0.4-0.2-0.4-0.4c0-0.2,0.2-0.4,0.4-0.4C17.9,60.6,18.1,60.8,18.1,61"/>
	<path class="st0" d="M24.7,56.6c0,0.4-0.4,0.8-0.8,0.8c-0.4,0-0.8-0.4-0.8-0.8c0-0.4,0.4-0.8,0.8-0.8
		C24.4,55.8,24.7,56.1,24.7,56.6"/>
	<path class="st1" d="M24.4,56.6c0,0.2-0.2,0.4-0.4,0.4c-0.2,0-0.4-0.2-0.4-0.4s0.2-0.4,0.4-0.4C24.2,56.1,24.4,56.3,24.4,56.6"/>
	<path class="st0" d="M24.3,65.1c0,0.4-0.4,0.8-0.8,0.8c-0.4,0-0.8-0.4-0.8-0.8c0-0.4,0.4-0.8,0.8-0.8C24,64.3,24.3,64.7,24.3,65.1"
		/>
	<path class="st1" d="M24,65.1c0,0.2-0.2,0.4-0.4,0.4c-0.2,0-0.4-0.2-0.4-0.4c0-0.2,0.2-0.4,0.4-0.4C23.8,64.7,24,64.9,24,65.1"/>
	<path class="st0" d="M39.7,86.5c0,0.4-0.4,0.8-0.8,0.8c-0.4,0-0.8-0.4-0.8-0.8c0-0.4,0.4-0.8,0.8-0.8C39.4,85.7,39.7,86,39.7,86.5"
		/>
	<path class="st1" d="M39.4,86.5c0,0.2-0.2,0.4-0.4,0.4c-0.2,0-0.4-0.2-0.4-0.4c0-0.2,0.2-0.4,0.4-0.4C39.2,86,39.4,86.2,39.4,86.5"
		/>
	<path class="st0" d="M63.5,86.4c0,0.4-0.4,0.8-0.8,0.8c-0.4,0-0.8-0.4-0.8-0.8c0-0.4,0.4-0.8,0.8-0.8C63.1,85.6,63.5,86,63.5,86.4"
		/>
	<path class="st1" d="M63.1,86.4c0,0.2-0.2,0.4-0.4,0.4c-0.2,0-0.4-0.2-0.4-0.4c0-0.2,0.2-0.4,0.4-0.4C62.9,86,63.1,86.2,63.1,86.4"
		/>
	<path class="st0" d="M51.6,86.5c0,0.4-0.4,0.8-0.8,0.8c-0.4,0-0.8-0.4-0.8-0.8c0-0.4,0.4-0.8,0.8-0.8
		C51.2,85.7,51.6,86.1,51.6,86.5"/>
	<path class="st1" d="M51.2,86.5c0,0.2-0.2,0.4-0.4,0.4c-0.2,0-0.4-0.2-0.4-0.4c0-0.2,0.2-0.4,0.4-0.4C51,86,51.2,86.2,51.2,86.5"/>
	<path class="st0" d="M70.3,18.1c0,0.4-0.4,0.8-0.8,0.8c-0.4,0-0.8-0.4-0.8-0.8c0-0.4,0.4-0.8,0.8-0.8C70,17.3,70.3,17.7,70.3,18.1"
		/>
	<path class="st1" d="M70,18.1c0,0.2-0.2,0.4-0.4,0.4c-0.2,0-0.4-0.2-0.4-0.4c0-0.2,0.2-0.4,0.4-0.4C69.8,17.6,70,17.8,70,18.1"/>
	<path class="st0" d="M75.5,21.9c0,0.4-0.4,0.8-0.8,0.8c-0.4,0-0.8-0.4-0.8-0.8c0-0.4,0.4-0.8,0.8-0.8
		C75.2,21.1,75.5,21.5,75.5,21.9"/>
	<path class="st1" d="M75.2,21.9c0,0.2-0.2,0.4-0.4,0.4c-0.2,0-0.4-0.2-0.4-0.4c0-0.2,0.2-0.4,0.4-0.4C75,21.5,75.2,21.7,75.2,21.9"
		/>
	<path class="st0" d="M75.2,29.8c0,0.4-0.4,0.8-0.8,0.8c-0.4,0-0.8-0.4-0.8-0.8c0-0.4,0.4-0.8,0.8-0.8C74.9,29,75.2,29.4,75.2,29.8"
		/>
	<path class="st1" d="M74.9,29.8c0,0.2-0.2,0.4-0.4,0.4c-0.2,0-0.4-0.2-0.4-0.4c0-0.2,0.2-0.4,0.4-0.4
		C74.7,29.4,74.9,29.6,74.9,29.8"/>
	<path class="st0" d="M80.9,25.9c0,0.4-0.4,0.8-0.8,0.8c-0.4,0-0.8-0.4-0.8-0.8c0-0.4,0.4-0.8,0.8-0.8
		C80.5,25.1,80.9,25.4,80.9,25.9"/>
	<path class="st1" d="M80.6,25.9c0,0.2-0.2,0.4-0.4,0.4c-0.2,0-0.4-0.2-0.4-0.4c0-0.2,0.2-0.4,0.4-0.4
		C80.4,25.4,80.6,25.6,80.6,25.9"/>
	<path class="st0" d="M86.7,38.3c0,0.4-0.4,0.8-0.8,0.8s-0.8-0.4-0.8-0.8c0-0.4,0.4-0.8,0.8-0.8S86.7,37.8,86.7,38.3"/>
	<path class="st1" d="M86.3,38.3c0,0.2-0.2,0.4-0.4,0.4c-0.2,0-0.4-0.2-0.4-0.4c0-0.2,0.2-0.4,0.4-0.4C86.1,37.8,86.3,38,86.3,38.3"
		/>
	<path class="st0" d="M80.8,34.1c0,0.4-0.4,0.8-0.8,0.8c-0.4,0-0.8-0.4-0.8-0.8c0-0.4,0.4-0.8,0.8-0.8
		C80.5,33.3,80.8,33.7,80.8,34.1"/>
	<path class="st1" d="M80.5,34.1c0,0.2-0.2,0.4-0.4,0.4c-0.2,0-0.4-0.2-0.4-0.4c0-0.2,0.2-0.4,0.4-0.4
		C80.3,33.7,80.5,33.9,80.5,34.1"/>
	<path class="st0" d="M74.9,38.1c0,0.4-0.4,0.8-0.8,0.8c-0.4,0-0.8-0.4-0.8-0.8c0-0.4,0.4-0.8,0.8-0.8
		C74.5,37.3,74.9,37.7,74.9,38.1"/>
	<path class="st1" d="M74.5,38.1c0,0.2-0.2,0.4-0.4,0.4c-0.2,0-0.4-0.2-0.4-0.4c0-0.2,0.2-0.4,0.4-0.4
		C74.3,37.7,74.5,37.9,74.5,38.1"/>
	<path class="st0" d="M86.8,54.9c0,0.4-0.4,0.8-0.8,0.8c-0.4,0-0.8-0.4-0.8-0.8c0-0.4,0.4-0.8,0.8-0.8
		C86.5,54.1,86.8,54.4,86.8,54.9"/>
	<path class="st1" d="M86.5,54.9c0,0.2-0.2,0.4-0.4,0.4c-0.2,0-0.4-0.2-0.4-0.4c0-0.2,0.2-0.4,0.4-0.4
		C86.3,54.4,86.5,54.6,86.5,54.9"/>
	<path class="st0" d="M80.5,67.2c0,0.4-0.4,0.8-0.8,0.8c-0.4,0-0.8-0.4-0.8-0.8c0-0.4,0.4-0.8,0.8-0.8
		C80.1,66.4,80.5,66.8,80.5,67.2"/>
	<path class="st1" d="M80.1,67.2c0,0.2-0.2,0.4-0.4,0.4s-0.4-0.2-0.4-0.4c0-0.2,0.2-0.4,0.4-0.4S80.1,67,80.1,67.2"/>
	<path class="st0" d="M74.9,62.6c0,0.4-0.4,0.8-0.8,0.8c-0.4,0-0.8-0.4-0.8-0.8c0-0.4,0.4-0.8,0.8-0.8
		C74.5,61.8,74.9,62.2,74.9,62.6"/>
	<path class="st1" d="M74.6,62.6c0,0.2-0.2,0.4-0.4,0.4c-0.2,0-0.4-0.2-0.4-0.4c0-0.2,0.2-0.4,0.4-0.4
		C74.4,62.2,74.6,62.4,74.6,62.6"/>
	<path class="st0" d="M42.3,37.5c0,0.4-0.4,0.8-0.8,0.8c-0.4,0-0.8-0.4-0.8-0.8s0.4-0.8,0.8-0.8C41.9,36.7,42.3,37,42.3,37.5"/>
	<path class="st1" d="M41.9,37.5c0,0.2-0.2,0.4-0.4,0.4c-0.2,0-0.4-0.2-0.4-0.4c0-0.2,0.2-0.4,0.4-0.4C41.7,37,41.9,37.2,41.9,37.5"
		/>
	<path class="st0" d="M20,36.8c0,0.4-0.4,0.8-0.8,0.8c-0.4,0-0.8-0.4-0.8-0.8c0-0.4,0.4-0.8,0.8-0.8C19.7,36,20,36.4,20,36.8"/>
	<path class="st1" d="M19.7,36.8c0,0.2-0.2,0.4-0.4,0.4c-0.2,0-0.4-0.2-0.4-0.4c0-0.2,0.2-0.4,0.4-0.4
		C19.5,36.3,19.7,36.5,19.7,36.8"/>
	<path class="st0" d="M12.3,56.5c0,0.4-0.4,0.8-0.8,0.8c-0.4,0-0.8-0.4-0.8-0.8c0-0.4,0.4-0.8,0.8-0.8
		C11.9,55.7,12.3,56.1,12.3,56.5"/>
	<path class="st1" d="M11.9,56.5c0,0.2-0.2,0.4-0.4,0.4c-0.2,0-0.4-0.2-0.4-0.4c0-0.2,0.2-0.4,0.4-0.4
		C11.7,56.1,11.9,56.3,11.9,56.5"/>
	<path class="st0" d="M46.4,57.3c0,0.4-0.4,0.8-0.8,0.8c-0.4,0-0.8-0.4-0.8-0.8c0-0.4,0.4-0.8,0.8-0.8C46,56.5,46.4,56.8,46.4,57.3"
		/>
	<path class="st1" d="M46.1,57.3c0,0.2-0.2,0.4-0.4,0.4s-0.4-0.2-0.4-0.4c0-0.2,0.2-0.4,0.4-0.4S46.1,57,46.1,57.3"/>
	<path class="st0" d="M25.7,33c0,0.4-0.4,0.8-0.8,0.8c-0.4,0-0.8-0.4-0.8-0.8c0-0.4,0.4-0.8,0.8-0.8C25.3,32.2,25.7,32.6,25.7,33"/>
	<path class="st1" d="M25.3,33c0,0.2-0.2,0.4-0.4,0.4c-0.2,0-0.4-0.2-0.4-0.4c0-0.2,0.2-0.4,0.4-0.4C25.1,32.6,25.3,32.8,25.3,33"/>
	<path class="st0" d="M37.3,24.9c0,0.4-0.4,0.8-0.8,0.8c-0.4,0-0.8-0.4-0.8-0.8c0-0.4,0.4-0.8,0.8-0.8C37,24.1,37.3,24.5,37.3,24.9"
		/>
	<path class="st1" d="M37,24.9c0,0.2-0.2,0.4-0.4,0.4c-0.2,0-0.4-0.2-0.4-0.4c0-0.2,0.2-0.4,0.4-0.4C36.8,24.5,37,24.7,37,24.9"/>
	<path class="st0" d="M48.1,33.5c0,0.4-0.4,0.8-0.8,0.8s-0.8-0.4-0.8-0.8c0-0.4,0.4-0.8,0.8-0.8S48.1,33.1,48.1,33.5"/>
	<path class="st1" d="M47.7,33.5c0,0.2-0.2,0.4-0.4,0.4c-0.2,0-0.4-0.2-0.4-0.4c0-0.2,0.2-0.4,0.4-0.4C47.5,33,47.7,33.2,47.7,33.5"
		/>
	<path class="st0" d="M48.5,25c0,0.4-0.4,0.8-0.8,0.8c-0.4,0-0.8-0.4-0.8-0.8c0-0.4,0.4-0.8,0.8-0.8C48.2,24.2,48.5,24.6,48.5,25"/>
	<path class="st1" d="M48.2,25c0,0.2-0.2,0.4-0.4,0.4c-0.2,0-0.4-0.2-0.4-0.4c0-0.2,0.2-0.4,0.4-0.4C48,24.6,48.2,24.8,48.2,25"/>
	<path class="st0" d="M42.8,29.3c0,0.4-0.4,0.8-0.8,0.8c-0.4,0-0.8-0.4-0.8-0.8c0-0.4,0.4-0.8,0.8-0.8
		C42.5,28.5,42.8,28.8,42.8,29.3"/>
	<path class="st1" d="M42.5,29.3c0,0.2-0.2,0.4-0.4,0.4c-0.2,0-0.4-0.2-0.4-0.4c0-0.2,0.2-0.4,0.4-0.4C42.3,28.8,42.5,29,42.5,29.3"
		/>
	<path class="st0" d="M20,28.6c0,0.4-0.4,0.8-0.8,0.8c-0.4,0-0.8-0.4-0.8-0.8c0-0.4,0.4-0.8,0.8-0.8C19.7,27.8,20,28.2,20,28.6"/>
	<path class="st1" d="M19.7,28.6c0,0.2-0.2,0.4-0.4,0.4s-0.4-0.2-0.4-0.4c0-0.2,0.2-0.4,0.4-0.4S19.7,28.4,19.7,28.6"/>
	<path class="st0" d="M15,32.7c0,0.4-0.4,0.8-0.8,0.8c-0.4,0-0.8-0.4-0.8-0.8c0-0.4,0.4-0.8,0.8-0.8C14.7,31.9,15,32.3,15,32.7"/>
	<path class="st1" d="M14.7,32.7c0,0.2-0.2,0.4-0.4,0.4c-0.2,0-0.4-0.2-0.4-0.4c0-0.2,0.2-0.4,0.4-0.4
		C14.5,32.3,14.7,32.5,14.7,32.7"/>
	<path class="st0" d="M25.8,24.5c0,0.4-0.4,0.8-0.8,0.8c-0.4,0-0.8-0.4-0.8-0.8s0.4-0.8,0.8-0.8C25.4,23.7,25.8,24.1,25.8,24.5"/>
	<path class="st1" d="M25.5,24.5c0,0.2-0.2,0.4-0.4,0.4c-0.2,0-0.4-0.2-0.4-0.4c0-0.2,0.2-0.4,0.4-0.4
		C25.3,24.1,25.5,24.3,25.5,24.5"/>
	<path class="st0" d="M31.7,20.6c0,0.4-0.4,0.8-0.8,0.8c-0.4,0-0.8-0.4-0.8-0.8s0.4-0.8,0.8-0.8C31.4,19.8,31.7,20.1,31.7,20.6"/>
	<path class="st1" d="M31.4,20.6c0,0.2-0.2,0.4-0.4,0.4c-0.2,0-0.4-0.2-0.4-0.4c0-0.2,0.2-0.4,0.4-0.4
		C31.2,20.1,31.4,20.3,31.4,20.6"/>
	<path class="st0" d="M86.3,62.8c0,0.4-0.4,0.8-0.8,0.8c-0.4,0-0.8-0.4-0.8-0.8S85,62,85.5,62C85.9,62,86.3,62.4,86.3,62.8"/>
	<path class="st1" d="M85.9,62.8c0,0.2-0.2,0.4-0.4,0.4c-0.2,0-0.4-0.2-0.4-0.4c0-0.2,0.2-0.4,0.4-0.4
		C85.7,62.4,85.9,62.6,85.9,62.8"/>
</g>
<path d="M224.8,30.1h-4.4l2.2-6.1L224.8,30.1z M224.9,30.5l1.5,4.3h-2v0.4h6.3v-0.4h-1.6l-5-14.2h-0.7l-5.3,14.2H217v0.4h3.8v-0.4
	h-2l1.5-4.3H224.9z M207.3,34.8h-2.2v0.4h6.9v-0.4h-2.2V21h0.8c1.6,0,2.1,0.2,2.7,0.9c0.7,0.9,1.1,1.8,1.4,3.3h0.3l-0.2-4.6h-12.7
	l-0.2,4.6h0.3c0.3-1.5,0.7-2.4,1.4-3.3c0.7-0.8,1.1-0.9,2.7-0.9h0.8V34.8z M189.9,34.8H188v0.4h11.6l0.4-4.5h-0.3
	c-0.4,1.8-0.8,2.6-1.4,3.3c-0.6,0.7-1.2,0.8-3.1,0.8h-2.8V21h1.9v-0.4H188V21h1.9V34.8z M181.6,21v8.4c0,2.4-0.1,2.9-0.5,3.8
	c-0.6,1.2-1.7,1.8-3.2,1.8c-1.3,0-2.4-0.5-2.9-1.3c-0.6-0.8-0.7-1.2-0.7-4.3V21h1.9v-0.4H170V21h1.9v8.4c0,2.9,0.2,3.8,1.2,4.7
	c0.9,0.9,2.6,1.4,4.4,1.4c1.8,0,3.1-0.5,3.9-1.6c0.7-1,0.8-1.7,0.8-4.5V21h1.9v-0.4h-4.4V21H181.6z M159.1,26.3l5-5.3h2v-0.4h-5V21
	h2.3l-6.2,6.6l5.7,7.2h-2v0.4h6.1v-0.4h-1.1L159.1,26.3z M154.3,34.8h-1.9v0.4h6.4v-0.4h-1.9V21h1.9v-0.4h-6.4V21h1.9V34.8z
	 M142.8,30.1h-4.4l2.2-6.1L142.8,30.1z M143,30.5l1.5,4.3h-2v0.4h6.3v-0.4h-1.6l-5-14.2h-0.7l-5.3,14.2H135v0.4h3.8v-0.4h-2l1.5-4.3
	H143z M124.2,34.8h-1.9v0.4h6.4v-0.4h-1.9V28h0.7c1.4,0,2,0.2,2.3,0.9c0.2,0.4,0.3,0.7,0.4,2h0.3v-6.1h-0.3c0,2.4-0.5,2.8-3.4,2.7
	V21h1.4c1.9,0,2,0,2.4,0.1c0.7,0.1,1.1,0.4,1.6,0.9c0.6,0.6,0.9,1.3,1.2,2.7h0.3l-0.3-4.1h-11.1V21h1.9V34.8z"/>
<path d="M321,56.7V42.9h0.9c1.3,0,1.7,0,2.2,0.1c1.1,0.2,1.9,0.5,2.4,1.1c0.8,0.9,1.1,2.2,1.1,5.4c0,2.3-0.1,3.8-0.4,4.8
	c-0.3,0.9-1.1,1.8-2.1,2.1c-0.8,0.3-1.2,0.3-3.1,0.3H321z M318.5,56.7h-1.9v0.4h5.5c3,0,4-0.2,5.3-1.1c2-1.4,3.2-3.7,3.2-6.3
	c0-2.4-0.9-4.4-2.7-5.8c-1.4-1.2-2.6-1.5-6-1.5h-5.3v0.4h1.9V56.7z M307,41.3l3.9-2.5l-0.1-0.2l-3.7,1.1l-3.8-1.1l-0.1,0.2L307,41.3
	z M302.5,56.7h-1.9v0.4h11.6l0.4-4.6h-0.3c-0.7,2.4-1.1,3.1-2,3.7c-0.5,0.4-0.7,0.4-2.3,0.4h-3v-6.8h0.7c1.4,0,2,0.2,2.3,0.9
	c0.2,0.4,0.3,0.7,0.4,2h0.3v-6.1h-0.3c0,2.4-0.5,2.8-3.4,2.7v-6.6h1.8c1.2,0,1.5,0,1.8,0.1c0.8,0.1,1.5,0.5,1.9,1
	c0.5,0.6,0.8,1.3,1.1,2.5h0.3l-0.2-4h-11.2v0.4h1.9V56.7z M295.4,42.9h1.5v-0.4h-4.4v0.4h2.3l-3.8,10.8l-3.9-10.8h2.1v-0.4h-6.2v0.4
	h1.4l5.3,14.5h0.5L295.4,42.9z M267.8,49.9v6.8h-1.9v0.4h6.4v-0.4h-1.9V42.9h1.9v-0.4h-6.4v0.4h1.9v6.5h-6.2v-6.5h1.9v-0.4h-6.4v0.4
	h1.9v13.8h-1.9v0.4h6.4v-0.4h-1.9v-6.8H267.8z M253,53h-0.3c-1,2.6-2.4,3.9-4.5,3.9c-1.3,0-2.5-0.5-3.1-1.4
	c-0.6-0.8-0.7-2.1-0.7-5.1c0-3.2,0.2-5.1,0.7-6c0.6-1.1,1.8-1.7,3.3-1.7c2.2,0,3.7,1.3,4.3,3.6h0.3v-3.9h-0.3l-0.8,1
	c-1.1-0.8-2.4-1.3-3.6-1.3c-1.3,0-2.8,0.5-3.9,1.4c-1.8,1.4-2.9,3.7-2.9,6.2c0,4.1,3,7.5,6.6,7.5c1.3,0,2.5-0.4,3.8-1.3l0.8,1.1h0.3
	V53z M235.7,38.7l-2.6,2.3l0.2,0.3l4.7-2c0.3-0.1,0.4-0.2,0.4-0.3c0-0.2-0.1-0.2-0.4-0.2H235.7z M233.3,56.7h-1.9v0.4h6.4v-0.4h-1.9
	V42.9h1.9v-0.4h-6.4v0.4h1.9V56.7z M214.8,56.7h-1.9v0.4h4.4v-0.4h-2V43.3l9.5,13.8h0.5V42.9h1.9v-0.4h-4.4v0.4h2v9.9
	c-0.7-1.2-0.8-1.3-2.6-3.9l-4.5-6.4h-4.9v0.4h1.9V56.7z M199.1,56.7h-1.9v0.4h11.6l0.4-4.5h-0.3c-0.4,1.8-0.8,2.6-1.4,3.3
	c-0.6,0.7-1.2,0.8-3.1,0.8h-2.8V42.9h1.9v-0.4h-6.4v0.4h1.9V56.7z M188.1,38.7l-3.2,2.3l0.2,0.3l5.4-2c0.3-0.1,0.3-0.2,0.3-0.3
	c0-0.2-0.1-0.2-0.4-0.2H188.1z M187.6,52h-4.4l2.2-6.1L187.6,52z M187.7,52.4l1.5,4.3h-2v0.4h6.3v-0.4h-1.6l-5-14.2h-0.7l-5.3,14.2
	h-1.1v0.4h3.8v-0.4h-2l1.5-4.3H187.7z M171.6,56.7h-1.9v0.4h6.4v-0.4h-1.9V42.9h1.9v-0.4h-6.4v0.4h1.9V56.7z M165.5,53h-0.3
	c-1,2.6-2.4,3.9-4.5,3.9c-1.3,0-2.5-0.5-3.1-1.4c-0.6-0.8-0.7-2.1-0.7-5.1c0-3.2,0.2-5.1,0.7-6c0.6-1.1,1.8-1.7,3.3-1.7
	c2.2,0,3.7,1.3,4.3,3.6h0.3v-3.9h-0.3l-0.8,1c-1.1-0.8-2.4-1.3-3.6-1.3c-1.3,0-2.8,0.5-3.9,1.4c-1.8,1.4-2.9,3.7-2.9,6.2
	c0,4.1,3,7.5,6.6,7.5c1.3,0,2.5-0.4,3.8-1.3l0.8,1.1h0.3V53z M142.8,42.8c1.2,0,2.3,0.5,2.9,1.3c0.7,0.9,0.9,2.4,0.9,5.9
	c0,3-0.2,4.6-0.7,5.4c-0.6,1-1.7,1.5-3.1,1.5c-1.2,0-2.3-0.5-2.9-1.3c-0.7-0.9-0.9-2.4-0.9-5.7c0-3.1,0.2-4.7,0.7-5.5
	C140.3,43.3,141.5,42.8,142.8,42.8 M142.8,42.2c-3.6,0-6.8,3.5-6.8,7.5c0,4.1,3.1,7.6,6.8,7.6c1.7,0,3.3-0.7,4.5-2
	c1.4-1.5,2.3-3.6,2.3-5.5C149.6,45.7,146.5,42.2,142.8,42.2 M130.8,42.2h-0.3l-0.8,0.9c-1-0.6-1.9-0.9-2.9-0.9c-2.4,0-4.3,2-4.3,4.5
	c0,1.1,0.4,2,1.1,2.6c0.6,0.5,1.3,0.8,3.2,1.3c1.8,0.4,2.2,0.6,2.7,0.9c0.7,0.5,1,1.3,1,2.2c0,1.9-1.4,3.1-3.4,3.1
	c-1.4,0-2.7-0.6-3.5-1.7c-0.5-0.7-0.8-1.3-1-2.6h-0.3v4.5h0.5l0.9-1.1c1.1,0.9,2.2,1.3,3.5,1.3c2.7,0,4.6-2.1,4.6-5
	c0-1.4-0.5-2.5-1.4-3.3c-0.6-0.5-1.1-0.7-3-1.2c-1.5-0.4-2.2-0.6-2.6-0.8c-0.7-0.4-1-0.9-1-1.7c0-1.5,1.3-2.6,3.1-2.6
	c1.1,0,2.1,0.5,2.8,1.3c0.5,0.6,0.7,1.1,0.9,2.1h0.3V42.2z"/>
<path class="st2" d="M298.1,75.3c0,1.1-0.1,1.7-0.4,2.1c-0.4,0.6-0.9,0.9-1.6,0.9c-0.8,0-1.3-0.5-1.3-1.4c0-0.7,0.3-1.2,1-1.6
	c0.5-0.3,1.1-0.4,2.3-0.5V75.3z M301.2,78.3c-0.4,0.3-0.4,0.3-0.7,0.3c-0.2,0-0.3-0.1-0.4-0.3c-0.1-0.2-0.1-0.2-0.1-2.2v-2.3
	c0-1.8,0-2-0.5-2.4c-0.5-0.5-1.5-0.9-2.6-0.9c-1.8,0-3.5,1-3.5,2.1c0,0.5,0.4,0.9,1,0.9c0.5,0,0.9-0.4,0.9-0.9
	c0-0.2-0.1-0.4-0.3-0.7c-0.1-0.1-0.1-0.1-0.1-0.2c0-0.4,0.9-0.9,1.7-0.9c0.5,0,1,0.2,1.2,0.4c0.2,0.3,0.3,0.5,0.3,1.7v1.4
	c-1.5,0-2.4,0.2-3.2,0.5c-1.3,0.5-2,1.3-2,2.4c0,1.2,1,2,2.4,2c1.2,0,2.2-0.6,2.9-1.6c0.1,1.1,0.8,1.6,1.9,1.6c0.6,0,1-0.2,1.5-0.6
	L301.2,78.3z M290.4,71.2h0.9v-0.4h-3.2v0.4h1.7l-2.3,5.6l-2.3-5.6h1.6v-0.4H282v0.4h0.9l3.4,8h0.8L290.4,71.2z M276.1,71.1
	c0.9,0,1.4,0.2,1.8,0.7c0.3,0.4,0.4,0.7,0.4,3.2c0,2.1,0,2.5-0.2,2.9c-0.4,0.6-1,0.9-1.9,0.9c-0.8,0-1.4-0.2-1.8-0.7
	c-0.3-0.5-0.4-0.7-0.4-3.1c0-2.2,0-2.5,0.2-3C274.6,71.4,275.2,71.1,276.1,71.1 M276.1,70.6c-2.5,0-4.5,2-4.5,4.3
	c0,2.4,2,4.3,4.5,4.3c2.4,0,4.5-1.9,4.5-4.3C280.6,72.5,278.6,70.6,276.1,70.6 M266.2,78.6h-1.5V79h5v-0.4h-1.5V65h-3.5v0.4h1.5
	V78.6z M257.5,78.6H256V79h5v-0.4h-1.5v-2c0-2.4,0.2-3.6,0.9-4.7c0.2-0.3,0.4-0.5,0.6-0.5c0.1,0,0.2,0.1,0.2,0.3
	c0,0.4,0,0.4,0.1,0.6c0.2,0.4,0.5,0.6,0.9,0.6c0.6,0,1.1-0.5,1.1-1.1c0-0.7-0.6-1.2-1.4-1.2c-1,0-1.8,0.7-2.4,2.2v-2H256v0.4h1.5
	V78.6z M250.2,75.3c0,1.1-0.1,1.7-0.4,2.1c-0.4,0.6-0.9,0.9-1.6,0.9c-0.8,0-1.3-0.5-1.3-1.4c0-0.7,0.3-1.2,1-1.6
	c0.5-0.3,1.1-0.4,2.3-0.5V75.3z M253.4,78.3c-0.4,0.3-0.4,0.3-0.7,0.3c-0.2,0-0.3-0.1-0.4-0.3c-0.1-0.2-0.1-0.2-0.1-2.2v-2.3
	c0-1.8,0-2-0.5-2.4c-0.5-0.5-1.5-0.9-2.6-0.9c-1.8,0-3.5,1-3.5,2.1c0,0.5,0.4,0.9,1,0.9c0.5,0,0.9-0.4,0.9-0.9
	c0-0.2-0.1-0.4-0.3-0.7c-0.1-0.1-0.1-0.1-0.1-0.2c0-0.4,0.9-0.9,1.7-0.9c0.5,0,1,0.2,1.2,0.4c0.2,0.3,0.3,0.5,0.3,1.7v1.4
	c-1.5,0-2.4,0.2-3.2,0.5c-1.3,0.5-2,1.3-2,2.4c0,1.2,1,2,2.4,2c1.2,0,2.2-0.6,2.9-1.6c0.1,1.1,0.8,1.6,1.9,1.6c0.6,0,1-0.2,1.5-0.6
	L253.4,78.3z M235.3,70.5l4.7-5h1.9V65h-4.7v0.4h2.2l-6,6.3l5.5,6.9h-1.9V79h5.9v-0.4h-1.1L235.3,70.5z M230.8,78.6h-1.8V79h6.1
	v-0.4h-1.8V65.5h1.8V65h-6.1v0.4h1.8V78.6z M216.7,75.3c0,1.1-0.1,1.7-0.4,2.1c-0.4,0.6-0.9,0.9-1.6,0.9c-0.8,0-1.3-0.5-1.3-1.4
	c0-0.7,0.3-1.2,1-1.6c0.5-0.3,1.1-0.4,2.3-0.5V75.3z M219.8,78.3c-0.4,0.3-0.4,0.3-0.7,0.3c-0.2,0-0.3-0.1-0.4-0.3
	c-0.1-0.2-0.1-0.2-0.1-2.2v-2.3c0-1.8,0-2-0.5-2.4c-0.5-0.5-1.5-0.9-2.6-0.9c-1.8,0-3.5,1-3.5,2.1c0,0.5,0.4,0.9,1,0.9
	c0.5,0,0.9-0.4,0.9-0.9c0-0.2-0.1-0.4-0.3-0.7c-0.1-0.1-0.1-0.1-0.1-0.2c0-0.4,0.9-0.9,1.7-0.9c0.5,0,1,0.2,1.2,0.4
	c0.2,0.3,0.3,0.5,0.3,1.7v1.4c-1.5,0-2.4,0.2-3.2,0.5c-1.3,0.5-2,1.3-2,2.4c0,1.2,1,2,2.4,2c1.2,0,2.2-0.6,2.9-1.6
	c0.1,1.1,0.8,1.6,1.9,1.6c0.6,0,1-0.2,1.5-0.6L219.8,78.3z M206.6,67.6h-0.4c-0.5,1.5-1.5,2.6-3,3.3v0.3h1.4v5.3c0,1.3,0,1.5,0.4,2
	c0.4,0.5,1.1,0.8,1.9,0.8c1.3,0,2.1-0.6,2.3-1.8h-0.4c-0.2,0.8-0.5,1.1-1.2,1.1c-0.4,0-0.7-0.1-0.8-0.4c-0.2-0.2-0.2-0.4-0.2-1v-6
	h2.2v-0.4h-2.2V67.6z M199.2,65.3c-0.7,0-1.2,0.5-1.2,1.2c0,0.7,0.5,1.2,1.2,1.2c0.7,0,1.3-0.5,1.3-1.2
	C200.4,65.9,199.9,65.3,199.2,65.3 M198.2,78.6h-1.5V79h5v-0.4h-1.5v-7.8h-3.5v0.4h1.5V78.6z M194.4,70.8h-7.2V74h0.3
	c0.5-1.6,0.6-1.8,1-2.2c0.4-0.4,0.8-0.5,2-0.5h1.2l-5.4,7.8h7.7l0-3.5h-0.3c-0.2,0.8-0.5,1.7-0.7,2.1c-0.4,0.8-1,1-2.4,1h-1.8
	L194.4,70.8z M178.8,78.6h-1.5V79h5v-0.4h-1.5v-2c0-2.4,0.2-3.6,0.9-4.7c0.2-0.3,0.4-0.5,0.6-0.5c0.1,0,0.2,0.1,0.2,0.3
	c0,0.4,0,0.4,0.1,0.6c0.2,0.4,0.5,0.6,0.9,0.6c0.6,0,1.1-0.5,1.1-1.1c0-0.7-0.6-1.2-1.4-1.2c-1,0-1.8,0.7-2.4,2.2v-2h-3.5v0.4h1.5
	V78.6z M169.5,73.8v-0.4c0-1,0.1-1.4,0.4-1.8c0.3-0.4,0.8-0.5,1.4-0.5c0.7,0,1.2,0.3,1.4,0.8c0.2,0.4,0.2,0.5,0.2,1.9H169.5z
	 M175.2,74.2c0-0.9-0.2-1.4-0.6-2c-0.7-1.1-1.9-1.7-3.3-1.7c-2.2,0-4.2,2-4.2,4.3c0,2.3,2,4.3,4.3,4.3c1.8,0,3.3-1.2,3.6-3h-0.5
	c-0.4,1.6-1.5,2.5-3,2.5c-0.8,0-1.5-0.4-1.8-1c-0.2-0.4-0.3-0.9-0.3-3v-0.6H175.2z M164.9,71.2h0.9v-0.4h-3.2v0.4h1.7l-2.3,5.6
	l-2.3-5.6h1.6v-0.4h-4.7v0.4h0.9l3.4,8h0.8L164.9,71.2z M152.7,65.3c-0.7,0-1.2,0.5-1.2,1.2c0,0.7,0.5,1.2,1.2,1.2
	c0.7,0,1.3-0.5,1.3-1.2C154,65.9,153.4,65.3,152.7,65.3 M151.8,78.6h-1.5V79h5v-0.4h-1.5v-7.8h-3.5v0.4h1.5V78.6z M138.8,78.6h-1.5
	V79h4.8v-0.4h-1.3v-2.5c0-2.6,0.1-3.5,0.6-4.1c0.4-0.5,1-0.8,1.6-0.8c0.4,0,0.8,0.2,1.1,0.5c0.3,0.4,0.4,1.2,0.4,3.7v3.2h-1.3V79
	h4.8v-0.4h-1.5V74c0-1.6-0.1-2-0.6-2.6c-0.5-0.5-1.4-0.8-2.3-0.8c-1.2,0-2.1,0.4-2.8,1.3v-1.1h-3.5v0.4h1.5V78.6z M133.4,65.5v8
	c0,2.3-0.1,2.8-0.4,3.6c-0.5,1.1-1.6,1.7-3,1.7c-1.2,0-2.2-0.4-2.8-1.2c-0.6-0.8-0.6-1.1-0.6-4.1v-8h1.8V65h-6.1v0.4h1.8v8
	c0,2.8,0.2,3.6,1.1,4.5c0.9,0.8,2.4,1.3,4.2,1.3c1.7,0,3-0.5,3.7-1.5c0.7-0.9,0.8-1.6,0.8-4.3v-8h1.8V65h-4.2v0.4H133.4z"/>
</svg>
