<?xml version="1.0" encoding="utf-8"?>
<!-- Generator: Adobe Illustrator 21.1.0, SVG Export Plug-In . SVG Version: 6.00 Build 0)  -->
<svg version="1.1" id="Vrstva_1" xmlns="http://www.w3.org/2000/svg" xmlns:xlink="http://www.w3.org/1999/xlink" x="0px" y="0px"
	 viewBox="0 0 260 260" style="enable-background:new 0 0 260 260;" xml:space="preserve">
<style type="text/css">
	.st0{fill:url(#SVGID_1_);}
	.st1{fill:#FFFFFF;}
</style>
<g id="_x35_ROEfY_1_">
	
		<image style="overflow:visible;" width="200" height="200" id="_x35_ROEfY_2_" xlink:href="4F6AC792076E7D8F.jpg"  transform="matrix(1.3 0 0 1.3 0 0)">
	</image>
</g>
<radialGradient id="SVGID_1_" cx="130" cy="130" r="130" gradientUnits="userSpaceOnUse">
	<stop  offset="0" style="stop-color:#E73160"/>
	<stop  offset="0.786" style="stop-color:#BC163F"/>
</radialGradient>
<rect x="0" y="0" class="st0" width="260" height="260"/>
<g>
	<path class="st1" d="M29.5,152.6v-45.2h28.9v8H38.7v13.3h16.1v8H38.7v16H29.5z"/>
	<path class="st1" d="M78.4,114.6c-4.8,0-7.3,1.6-7.3,4.8c0,1.4,0.6,2.5,1.8,3.3c1.2,0.8,4,1.8,8.4,3.3c4.4,1.4,7.5,3,9.3,4.8
		c1.8,1.8,2.7,4.6,2.7,8.3c0,4.7-1.4,8.3-4.3,10.8c-2.9,2.4-6.7,3.7-11.3,3.7c-3.5,0-7.7-0.5-12.7-1.6l-2.4-0.5l0.9-7.1
		c5.9,0.8,10.5,1.2,13.6,1.2c4.7,0,7.1-2,7.1-5.9c0-1.4-0.5-2.5-1.6-3.3c-1.1-0.8-3.2-1.7-6.5-2.6c-5.1-1.5-8.8-3.2-10.9-5.2
		c-2.1-2-3.2-4.8-3.2-8.4c0-4.5,1.4-7.9,4.1-10.1c2.7-2.2,6.5-3.3,11.3-3.3c3.3,0,7.5,0.4,12.5,1.3l2.4,0.5l-0.7,7.3
		C85.4,114.9,81,114.6,78.4,114.6z"/>
	<path class="st1" d="M124.8,107.4h9.6L124,152.6h-17l-10.5-45.2h9.6l7.8,37.3h3L124.8,107.4z"/>
	<path class="st1" d="M163.9,137.5c0,5.3,2.7,7.9,8,7.9c5.4,0,8-2.6,8-7.9v-30.1h9.2v29.9c0,5.5-1.4,9.6-4.3,12.2
		c-2.9,2.6-7.2,3.9-12.9,3.9c-5.8,0-10.1-1.3-12.9-3.9c-2.9-2.6-4.3-6.7-4.3-12.2v-29.9h9.2V137.5z"/>
	<path class="st1" d="M206.2,152.6H197v-45.2h9.2v19.9l6.1-0.7l7.5-19.2h10.4l-9.8,22.7l10.1,22.6h-10.6l-7.6-18l-6.1,0.7V152.6z"/>
</g>
</svg>
