<?xml version="1.0" encoding="utf-8"?>
<!-- Generator: Adobe Illustrator 21.1.0, SVG Export Plug-In . SVG Version: 6.00 Build 0)  -->
<svg version="1.1" id="Vrstva_1" xmlns="http://www.w3.org/2000/svg" xmlns:xlink="http://www.w3.org/1999/xlink" x="0px" y="0px"
	 viewBox="0 0 24 24" style="enable-background:new 0 0 24 24;" xml:space="preserve">
<style type="text/css">
	.st0{fill:#F6F6F6;}
	.st1{opacity:0.1;}
</style>
<circle class="st0" cx="12" cy="12" r="12"/>
<g class="st1">
	<path d="M19.4,17.4c0,0.8-0.3,1.5-0.8,2c-0.5,0.5-1.2,0.7-2,0.7H7.4c-0.8,0-1.5-0.2-2-0.7c-0.5-0.5-0.8-1.2-0.8-2
		c0-0.4,0-0.7,0-1.1c0-0.4,0.1-0.7,0.1-1.1s0.2-0.8,0.3-1.1s0.3-0.7,0.5-1s0.4-0.6,0.7-0.9c0.2-0.2,0.5-0.4,0.9-0.6s0.7-0.2,1.2-0.2
		c0.1,0,0.2,0.1,0.4,0.2c0.2,0.2,0.5,0.3,0.8,0.5c0.3,0.2,0.7,0.4,1.1,0.5c0.5,0.2,0.9,0.2,1.4,0.2c0.5,0,0.9-0.1,1.4-0.2
		c0.5-0.2,0.8-0.3,1.1-0.5c0.3-0.2,0.6-0.4,0.8-0.5c0.2-0.2,0.4-0.2,0.4-0.2c0.4,0,0.8,0.1,1.2,0.2c0.4,0.1,0.7,0.3,0.9,0.6
		c0.2,0.2,0.5,0.5,0.7,0.9c0.2,0.3,0.3,0.7,0.5,1c0.1,0.4,0.2,0.7,0.3,1.1c0.1,0.4,0.1,0.8,0.1,1.1C19.4,16.6,19.4,17,19.4,17.4z
		 M14.9,5.1C15.6,5.9,16,6.8,16,8c0,1.1-0.4,2.1-1.2,2.9C14.1,11.6,13.1,12,12,12c-1.1,0-2.1-0.4-2.9-1.2C8.4,10,8,9.1,8,8
		c0-1.1,0.4-2.1,1.2-2.9s1.7-1.2,2.9-1.2C13.1,3.9,14.1,4.3,14.9,5.1z"/>
</g>
</svg>
