<svg id="Vrstva_1" xmlns="http://www.w3.org/2000/svg" viewBox="0 0 21 16.6"><style>.st0{fill:#bb133e}</style><path class="st0" d="M21 1.9c0 .6-.2 1.2-.6 1.8s-.9 1-1.4 1.4c-2.9 2-4.8 3.3-5.5 3.8-.1.1-.2.2-.5.4s-.5.3-.6.4-.4.2-.6.4c-.2.2-.5.2-.7.3s-.4.1-.6.1c-.2 0-.4 0-.6-.1s-.4-.2-.7-.3-.4-.3-.6-.4c-.2-.1-.4-.3-.6-.4-.2-.1-.4-.3-.5-.4-.7-.5-1.7-1.2-3.1-2.1S2.3 5.3 2 5.1c-.5-.3-.9-.8-1.4-1.3S0 2.7 0 2.2C0 1.6.2 1.1.5.6S1.3 0 1.9 0h17.2c.5 0 .9.2 1.3.6s.6.8.6 1.3zm0 3.5v9.3c0 .5-.2 1-.6 1.3s-.8.6-1.3.6H1.9c-.5 0-1-.2-1.3-.6s-.6-.8-.6-1.3V5.4c.3.4.7.7 1.2 1C4 8.3 6 9.7 7 10.4c.4.3.8.6 1.1.8.3.2.6.4 1.1.6s.9.3 1.3.3.8-.1 1.3-.3.8-.4 1.1-.6.6-.4 1.1-.8c1.3-1 3.3-2.3 5.8-4 .5-.3.9-.7 1.2-1z"/></svg>