<svg id="Vrstva_1" xmlns="http://www.w3.org/2000/svg" viewBox="0 0 19.6 18"><style>.st0{fill:#f49800}</style><path class="st0" d="M19.6 9.7v4.9c0 .1 0 .2-.1.3s-.2.1-.3.1h-2.6v1.9c0 .3-.1.6-.3.8s-.5.3-.8.3H4.2c-.3 0-.6-.1-.8-.3s-.3-.5-.3-.8V15H.4c-.1 0-.2 0-.3-.1s-.1-.2-.1-.3V9.7c0-.6.2-1.1.7-1.6s1-.7 1.6-.7h.8V1.1c0-.3.1-.6.3-.8s.5-.3.8-.3h7.9c.3 0 .7.1 1 .2s.7.3.9.6l1.8 1.7c.2.2.4.5.6.9s.2.7.2 1v3h.8c.6 0 1.1.2 1.6.7s.6 1 .6 1.6zm-15-.8h10.5V4.4h-1.9c-.3 0-.6-.1-.8-.3s-.3-.5-.3-.8V1.4H4.6v7.5zm0 7.5h10.5v-3H4.6v3zm13.2-6.2c.1-.1.2-.3.2-.5s-.1-.4-.2-.5-.3-.2-.5-.2-.4 0-.5.2-.2.3-.2.5.1.4.2.5.3.2.5.2.4 0 .5-.2z"/></svg>