<?xml version="1.0" encoding="utf-8"?>
<!-- Generator: Adobe Illustrator 21.1.0, SVG Export Plug-In . SVG Version: 6.00 Build 0)  -->
<svg version="1.1" id="Vrstva_1" xmlns="http://www.w3.org/2000/svg" xmlns:xlink="http://www.w3.org/1999/xlink" x="0px" y="0px"
	 viewBox="0 0 77.3 50.8" style="enable-background:new 0 0 77.3 50.8;" xml:space="preserve">
<style type="text/css">
	.st0{clip-path:url(#SVGID_2_);}
	.st1{fill:#00247D;}
	.st2{fill:#FFFFFF;}
	.st3{fill:#CF1B2B;}
</style>
<g>
	<defs>
		<path id="SVGID_1_" d="M70.2,50.8H7.1c-3.9,0-7.1-3.2-7.1-7.1V7.1C0,3.2,3.2,0,7.1,0h63.2c3.9,0,7.1,3.2,7.1,7.1v36.6
			C77.3,47.6,74.1,50.8,70.2,50.8z"/>
	</defs>
	<clipPath id="SVGID_2_">
		<use xlink:href="#SVGID_1_"  style="overflow:visible;"/>
	</clipPath>
	<g class="st0">
		<rect y="0" class="st1" width="77.3" height="50.8"/>
		<path class="st2" d="M77.3,0h-9.7L47.5,13.2c0-5.6,0-13.2,0-13.2H29.8c0,0,0,8.1,0,13.7L8.5,0H0v6.9l15.3,9.9
			c-7.7,0-15.3,0-15.3,0v17.6c0,0,7.5,0,15.1,0L0,44.3v6.4h10l19.7-13c0,5.5,0,13,0,13h17.7c0,0,0-7.7,0-13.2l20.4,13.2h9.4v-6.4
			L61.8,34.4c7.8,0,15.5,0,15.5,0V16.8c0,0-7.7,0-15.4,0L77.3,6.6V0z"/>
		<g>
			<path class="st3" d="M24.9,16.8L0,0v4.4l18.6,12.3C20.8,16.8,23,16.8,24.9,16.8z"/>
			<path class="st3" d="M52.4,34.4l24.8,16.4l0,0v-4.1L58.7,34.4C56.5,34.4,54.3,34.4,52.4,34.4z"/>
			<path class="st3" d="M29.8,34.4c-1.1,0-3,0-5.1,0L0,50.8l0,0h5.9l23.9-15.6C29.8,34.9,29.8,34.6,29.8,34.4z"/>
			<path class="st3" d="M47.5,16.8c1.1,0,2.8,0,4.8,0l25-16.4V0h-5.6L47.5,15.7C47.5,16.1,47.5,16.5,47.5,16.8z"/>
		</g>
		<polygon class="st3" points="77.3,20.5 43.7,20.5 43.7,0 33.6,0 33.6,20.5 0,20.5 0,30.6 33.6,30.6 33.6,50.8 43.7,50.8 
			43.7,30.6 77.3,30.6 		"/>
	</g>
</g>
</svg>
