<?xml version="1.0" encoding="utf-8"?>
<!-- Generator: Adobe Illustrator 21.1.0, SVG Export Plug-In . SVG Version: 6.00 Build 0)  -->
<svg version="1.1" id="Vrstva_1" xmlns="http://www.w3.org/2000/svg" xmlns:xlink="http://www.w3.org/1999/xlink" x="0px" y="0px"
	 viewBox="0 0 94 62.7" style="enable-background:new 0 0 94 62.7;" xml:space="preserve">
<style type="text/css">
	.st0{fill:#FFFFFF;}
	.st1{fill:#164194;}
	.st2{fill:#FFED00;}
</style>
<g>
	<path class="st0" d="M47,32"/>
</g>
<g>
	<rect class="st1" width="94" height="62.7"/>
	<path class="st1" d="M47,31.3"/>
</g>
<g>
	<polygon class="st2" points="45,13.7 47,12.2 49,13.7 48.2,11.3 50.2,9.9 47.8,9.9 47,7.5 46.2,9.9 43.8,9.9 45.8,11.3 	"/>
	<polygon class="st2" points="34.7,16.4 36.7,15 38.7,16.4 38,14.1 40,12.6 37.5,12.6 36.7,10.3 36,12.6 33.5,12.6 35.5,14.1 	"/>
	<polygon class="st2" points="29.2,17.8 28.5,20.2 26,20.2 28,21.6 27.2,23.9 29.2,22.5 31.2,23.9 30.4,21.6 32.5,20.2 30,20.2 	"/>
	<polygon class="st2" points="26.5,32.8 28.4,34.2 27.7,31.9 29.7,30.4 27.2,30.4 26.5,28 25.7,30.4 23.2,30.4 25.2,31.9 24.5,34.2 
			"/>
	<polygon class="st2" points="30,40.7 29.2,38.3 28.5,40.7 26,40.7 28,42.2 27.2,44.5 29.2,43 31.2,44.5 30.4,42.2 32.5,40.7 	"/>
	<polygon class="st2" points="37.5,48.2 36.7,45.9 36,48.2 33.5,48.2 35.5,49.7 34.8,52 36.7,50.6 38.7,52 38,49.7 40,48.2 	"/>
	<polygon class="st2" points="47.8,51 47,48.6 46.2,51 43.8,51 45.8,52.4 45,54.7 47,53.3 49,54.7 48.2,52.4 50.2,51 	"/>
	<polygon class="st2" points="58,48.2 57.3,45.9 56.5,48.2 54,48.2 56,49.7 55.3,52 57.3,50.6 59.2,52 58.5,49.7 60.5,48.2 	"/>
	<polygon class="st2" points="65.5,40.7 64.8,38.3 64,40.7 61.5,40.7 63.6,42.2 62.8,44.5 64.8,43 66.8,44.5 66,42.2 68,40.7 	"/>
	<polygon class="st2" points="70.8,30.4 68.3,30.4 67.5,28 66.8,30.4 64.3,30.4 66.3,31.8 65.5,34.2 67.5,32.7 69.5,34.2 68.7,31.8 
			"/>
	<polygon class="st2" points="62.8,23.9 64.8,22.5 66.8,23.9 66,21.6 68,20.1 65.5,20.1 64.8,17.8 64,20.1 61.5,20.1 63.6,21.6 	"/>
	<polygon class="st2" points="57.3,10.3 56.5,12.6 54,12.6 56.1,14.1 55.3,16.4 57.3,15 59.3,16.4 58.5,14.1 60.5,12.6 58,12.6 	"/>
</g>
</svg>
