<?xml version="1.0" encoding="utf-8"?>
<!-- Generator: Adobe Illustrator 21.1.0, SVG Export Plug-In . SVG Version: 6.00 Build 0)  -->
<svg version="1.1" id="Vrstva_1" xmlns="http://www.w3.org/2000/svg" xmlns:xlink="http://www.w3.org/1999/xlink" x="0px" y="0px"
	 viewBox="0 0 21 18.1" style="enable-background:new 0 0 21 18.1;" xml:space="preserve">
<style type="text/css">
	.st0{fill:#BB133E;}
</style>
<g>
	<path class="st0" d="M16.5,10.9v3.8c0,0.9-0.3,1.7-1,2.4s-1.5,1-2.4,1H3.4c-0.9,0-1.7-0.3-2.4-1s-1-1.5-1-2.4V4.9
		C0,4,0.3,3.2,1,2.5s1.5-1,2.4-1h8.2c0.1,0,0.2,0,0.3,0.1S12,1.8,12,1.9v0.8c0,0.1,0,0.2-0.1,0.3s-0.2,0-0.3,0H3.4
		c-0.5,0-1,0.2-1.3,0.6S1.5,4.4,1.5,4.9v9.8c0,0.5,0.2,1,0.6,1.3s0.8,0.6,1.3,0.6h9.8c0.5,0,1-0.2,1.3-0.6c0.3-0.4,0.6-0.8,0.6-1.3
		v-3.8c0-0.1,0-0.2,0.1-0.3s0.2-0.1,0.3-0.1h0.8c0.1,0,0.2,0,0.3,0.1S16.5,10.8,16.5,10.9z M21,0.8v6c0,0.2-0.1,0.4-0.2,0.5
		s-0.3,0.2-0.5,0.2s-0.4-0.1-0.5-0.2l-2.1-2.1l-7.6,7.6c-0.1,0.1-0.2,0.1-0.3,0.1s-0.2,0-0.3-0.1l-1.3-1.3c-0.1-0.1-0.1-0.2-0.1-0.3
		s0-0.2,0.1-0.3l7.6-7.6l-2.1-2.1c-0.1-0.1-0.2-0.2-0.2-0.4s0.1-0.4,0.2-0.5S14,0,14.3,0h6c0.2,0,0.4,0.1,0.5,0.2S21,0.5,21,0.8z"/>
</g>
</svg>
