<?xml version="1.0" encoding="utf-8"?>
<!-- Generator: Adobe Illustrator 21.1.0, SVG Export Plug-In . SVG Version: 6.00 Build 0)  -->
<svg version="1.1" id="Vrstva_1" xmlns="http://www.w3.org/2000/svg" xmlns:xlink="http://www.w3.org/1999/xlink" x="0px" y="0px"
	 viewBox="0 0 18.9 15" style="enable-background:new 0 0 18.9 15;" xml:space="preserve">
<style type="text/css">
	.st0{fill:#222222;}
</style>
<g>
	<path class="st0" d="M18.8,7.9l-0.7,0.9c-0.1,0.1-0.1,0.1-0.2,0.1h0c-0.1,0-0.2,0-0.2-0.1L9.4,2L1.3,8.8C1.2,8.8,1.1,8.9,1.1,8.8
		C1,8.8,0.9,8.8,0.8,8.7L0.1,7.9C0,7.8,0,7.7,0,7.6s0.1-0.2,0.1-0.3l8.4-7C8.8,0.1,9.1,0,9.4,0s0.6,0.1,0.9,0.3l2.9,2.4V0.4
		c0-0.1,0-0.2,0.1-0.3S13.5,0,13.6,0h2.2c0.1,0,0.2,0,0.3,0.1s0.1,0.2,0.1,0.3v4.8l2.6,2.1c0.1,0.1,0.1,0.1,0.1,0.3
		S18.9,7.8,18.8,7.9z M16.2,8.7v5.6c0,0.2-0.1,0.4-0.2,0.5C15.8,15,15.6,15,15.4,15h-4.5v-4.5h-3V15H3.4c-0.2,0-0.4-0.1-0.5-0.2
		s-0.2-0.3-0.2-0.5V8.7c0,0,0,0,0,0s0,0,0,0L9.4,3L16.2,8.7C16.2,8.6,16.2,8.6,16.2,8.7z"/>
</g>
</svg>
