<?xml version="1.0" encoding="utf-8"?>
<!-- Generator: Adobe Illustrator 21.1.0, SVG Export Plug-In . SVG Version: 6.00 Build 0)  -->
<svg version="1.1" id="Vrstva_1" xmlns="http://www.w3.org/2000/svg" xmlns:xlink="http://www.w3.org/1999/xlink" x="0px" y="0px"
	 viewBox="0 0 74.2 74.2" style="enable-background:new 0 0 74.2 74.2;" xml:space="preserve">
<style type="text/css">
	.st0{fill:url(#SVGID_1_);}
	.st1{fill:url(#SVGID_2_);}
	.st2{fill:url(#SVGID_3_);}
</style>
<g>
	<linearGradient id="SVGID_1_" gradientUnits="userSpaceOnUse" x1="0.6692" y1="73.4997" x2="68.0504" y2="6.1185">
		<stop  offset="5.000000e-02" style="stop-color:#FFD521"/>
		<stop  offset="0.5011" style="stop-color:#F50000"/>
		<stop  offset="0.95" style="stop-color:#B900B4"/>
	</linearGradient>
	<path class="st0" d="M61.3,17.3c0-2.5-2-4.5-4.5-4.5c-2.5,0-4.5,2-4.5,4.5c0,2.5,2,4.4,4.5,4.4C59.3,21.7,61.3,19.7,61.3,17.3"/>
	<linearGradient id="SVGID_2_" gradientUnits="userSpaceOnUse" x1="0.669" y1="73.4995" x2="68.0502" y2="6.1182">
		<stop  offset="5.000000e-02" style="stop-color:#FFD521"/>
		<stop  offset="0.5011" style="stop-color:#F50000"/>
		<stop  offset="0.95" style="stop-color:#B900B4"/>
	</linearGradient>
	<path class="st1" d="M73.9,21.8c-0.2-4-0.8-6.7-1.7-9c-0.9-2.4-2.2-4.5-4.3-6.6c-2.1-2.1-4.1-3.3-6.6-4.3c-2.4-0.9-5.1-1.5-9-1.7
		C48.4,0,47.2,0,37.1,0C27,0,25.7,0,21.8,0.2c-3.9,0.2-6.6,0.8-9,1.7c-2.4,1-4.5,2.2-6.6,4.3c-2.1,2.1-3.3,4.1-4.3,6.6
		c-0.9,2.4-1.5,5.1-1.7,9C0,25.8,0,27,0,37.1c0,10.1,0,11.3,0.2,15.3c0.2,3.9,0.8,6.6,1.7,9c1,2.4,2.2,4.5,4.3,6.6
		c2.1,2.1,4.1,3.3,6.6,4.3c2.4,0.9,5.1,1.5,9,1.7c4,0.2,5.2,0.2,15.3,0.2c10.1,0,11.3,0,15.3-0.2c4-0.2,6.6-0.8,9-1.7
		c2.4-1,4.5-2.2,6.6-4.3c2.1-2.1,3.3-4.1,4.3-6.6c0.9-2.4,1.5-5.1,1.7-9c0.2-4,0.2-5.2,0.2-15.3C74.2,27,74.1,25.8,73.9,21.8z
		 M67.3,52.1c-0.2,3.6-0.8,5.6-1.3,6.9c-0.7,1.7-1.5,3-2.8,4.3c-1.3,1.3-2.5,2.1-4.3,2.8c-1.3,0.5-3.3,1.1-6.9,1.3
		c-3.9,0.2-5.1,0.2-15,0.2c-9.9,0-11.1,0-15-0.2c-3.6-0.2-5.6-0.8-6.9-1.3c-1.7-0.7-3-1.5-4.3-2.8c-1.3-1.3-2.1-2.5-2.8-4.3
		c-0.5-1.3-1.1-3.3-1.3-6.9c-0.2-3.9-0.2-5.1-0.2-15c0-9.9,0-11.1,0.2-15c0.2-3.6,0.8-5.6,1.3-6.9c0.7-1.7,1.5-3,2.8-4.3
		c1.3-1.3,2.5-2.1,4.3-2.8c1.3-0.5,3.3-1.1,6.9-1.3c3.9-0.2,5.1-0.2,15-0.2c9.9,0,11.1,0,15,0.2c3.6,0.2,5.6,0.8,6.9,1.3
		c1.7,0.7,3,1.5,4.3,2.8c1.3,1.3,2.1,2.5,2.8,4.3c0.5,1.3,1.1,3.3,1.3,6.9c0.2,3.9,0.2,5.1,0.2,15C67.5,47,67.5,48.2,67.3,52.1z"/>
	<linearGradient id="SVGID_3_" gradientUnits="userSpaceOnUse" x1="0.6692" y1="73.4997" x2="68.0505" y2="6.1185">
		<stop  offset="5.000000e-02" style="stop-color:#FFD521"/>
		<stop  offset="0.5011" style="stop-color:#F50000"/>
		<stop  offset="0.95" style="stop-color:#B900B4"/>
	</linearGradient>
	<path class="st2" d="M37.1,18c-10.5,0-19,8.5-19,19.1c0,10.5,8.5,19,19,19c10.5,0,19-8.5,19-19C56.1,26.6,47.6,18,37.1,18z
		 M37.1,49.4c-6.8,0-12.4-5.5-12.4-12.4c0-6.8,5.5-12.4,12.4-12.4c6.8,0,12.4,5.5,12.4,12.4C49.5,43.9,43.9,49.4,37.1,49.4z"/>
</g>
</svg>
