<?xml version="1.0" encoding="utf-8"?>
<!-- Generator: Adobe Illustrator 21.1.0, SVG Export Plug-In . SVG Version: 6.00 Build 0)  -->
<svg version="1.1" id="Vrstva_1" xmlns="http://www.w3.org/2000/svg" xmlns:xlink="http://www.w3.org/1999/xlink" x="0px" y="0px"
	 viewBox="0 0 75 75" style="enable-background:new 0 0 75 75;" xml:space="preserve">
<style type="text/css">
	.st0{fill:#0076B2;}
	.st1{fill:#FFFFFF;}
</style>
<g>
	<path class="st0" d="M69.5,0H5.5C2.5,0,0,2.4,0,5.4v64.2c0,3,2.5,5.4,5.5,5.4h63.9c3.1,0,5.5-2.4,5.5-5.4V5.4C75,2.4,72.5,0,69.5,0
		z"/>
	<path class="st1" d="M11.1,28.1h11.1v35.8H11.1V28.1z M16.7,10.3c3.6,0,6.4,2.9,6.4,6.5c0,3.6-2.9,6.5-6.4,6.5
		c-3.6,0-6.5-2.9-6.5-6.5C10.2,13.2,13.1,10.3,16.7,10.3"/>
	<path class="st1" d="M29.2,28.1h10.7V33H40c1.5-2.8,5.1-5.8,10.5-5.8c11.3,0,13.3,7.4,13.3,17.1v19.6H52.8V46.5
		c0-4.2-0.1-9.5-5.8-9.5c-5.8,0-6.7,4.5-6.7,9.2v17.7H29.2V28.1z"/>
</g>
</svg>
