<?xml version="1.0" encoding="utf-8"?>
<!-- Generator: Adobe Illustrator 21.1.0, SVG Export Plug-In . SVG Version: 6.00 Build 0)  -->
<svg version="1.1" id="Vrstva_1" xmlns="http://www.w3.org/2000/svg" xmlns:xlink="http://www.w3.org/1999/xlink" x="0px" y="0px"
	 viewBox="0 0 92.5 74" style="enable-background:new 0 0 92.5 74;" xml:space="preserve">
<style type="text/css">
	.st0{fill:#1A171B;}
	.st1{fill:#009335;}
</style>
<g>
	<path class="st0" d="M2.1,53.7c-0.2,0.4-0.2,1.1-0.2,1.6c0,0.9,0.1,2.4,1.4,2.4c0.6,0,0.9-0.3,1.1-0.9c0.2-0.5,0.2-1.1,0.2-1.6
		c0-0.6-0.1-1.2-0.3-1.7c-0.2-0.5-0.5-0.7-1.1-0.7C2.6,52.8,2.3,53.2,2.1,53.7 M0.8,58C0.2,57.2,0,56.2,0,55.3c0-2,1-3.9,3.2-3.9
		c1,0,1.8,0.3,2.4,1.1c0.5,0.7,0.8,1.8,0.8,2.7c0,0.9-0.2,1.9-0.7,2.6c-0.6,0.9-1.5,1.3-2.5,1.3C2.2,59.1,1.4,58.8,0.8,58z"/>
	<path class="st0" d="M10.4,54.9c0.4,0,0.8,0,1.1-0.3c0.2-0.2,0.2-0.4,0.2-0.7c0-0.3-0.1-0.6-0.4-0.8c-0.3-0.2-0.6-0.2-1-0.2h-1v2
		H10.4 M9.4,59H7.7v-7.5h2.8c0.7,0,1.4,0,2,0.4c0.6,0.4,1,1.1,1,1.9c0,0.7-0.3,1.4-0.8,1.9c-0.6,0.5-1.3,0.5-2.1,0.5H9.4V59z"/>
	<polyline class="st0" points="21.5,59 19.6,59 17.3,51.5 19.2,51.5 20.7,56.9 22.3,51.5 23.8,51.5 21.5,59 	"/>
	<path class="st0" d="M28.3,52l-2.5,0.9l-0.3-0.7l2.4-1.2L28.3,52 M27.4,58.7C27,59.9,26.7,61,25.2,61l-0.8-0.1v-1.3l0.8,0.1
		c0.5,0,0.7-0.2,0.9-0.7l-2-5.6h1.7l1.1,3.3l1-3.3h1.2L27.4,58.7z"/>
	<polyline class="st0" points="33.6,54.5 31.1,57.8 33.7,57.8 33.7,59 29.3,59 29.3,57.8 31.8,54.6 29.5,54.6 29.5,53.5 33.6,53.5 
		33.6,54.5 	"/>
	<polyline class="st0" points="40.1,59 38.3,59 37.1,56.5 36.2,57.6 36.2,59 34.6,59 34.6,51.5 36.2,51.5 36.2,56 36.7,55.3 
		38.3,53.5 39.9,53.5 38.3,55.4 40.1,59 	"/>
	<path class="st0" d="M44.1,59v-1h0c-0.3,0.7-0.8,1.1-1.6,1.1c-0.6,0-1-0.1-1.4-0.6c-0.3-0.5-0.3-1-0.3-1.5v-3.5h1.6V57
		c0,0.4,0,0.9,0.6,0.9c0.4,0,0.7-0.2,0.8-0.5c0.1-0.2,0.1-0.6,0.1-0.9v-3h1.6V59H44.1"/>
	<path class="st0" d="M48.3,53.5v0.9h0c0.3-0.7,0.8-1,1.5-1c0.7,0,1.2,0.3,1.5,1c0.3-0.7,0.9-1,1.6-1c0.5,0,1,0.2,1.4,0.6
		c0.4,0.4,0.3,1.1,0.3,1.6V59h-1.6v-2.9c0-0.2,0-0.8,0-1c-0.1-0.4-0.4-0.4-0.7-0.4c-0.3,0-0.6,0.2-0.7,0.4c-0.1,0.3-0.1,0.7-0.1,1
		V59h-1.6v-2.9c0-0.6,0.1-1.4-0.7-1.4c-0.8,0-0.8,0.8-0.8,1.4V59h-1.6v-5.6H48.3"/>
	<path class="st0" d="M62.5,56.4c-0.6,0.1-1.7,0.2-1.7,1c0,0.4,0.3,0.7,0.7,0.7c0.3,0,0.6-0.2,0.8-0.5c0.2-0.4,0.2-0.7,0.2-1.1V56.4
		 M62.7,59c-0.1-0.3-0.1-0.6-0.1-0.9c-0.5,0.7-0.9,1-1.8,1c-1,0-1.8-0.5-1.8-1.6c0-0.8,0.5-1.4,1.2-1.7c0.6-0.2,1.5-0.3,2.2-0.4
		v-0.1c0-0.2,0-0.5-0.1-0.7c-0.1-0.2-0.4-0.3-0.7-0.3c-0.5,0-1,0.3-1,0.8l-1.5-0.1c0.2-1.3,1.5-1.7,2.7-1.7c0.6,0,1.3,0.1,1.8,0.5
		c0.6,0.5,0.5,1.1,0.5,1.7v2.6c0,0.3,0,0.6,0.1,0.8H62.7z"/>
	<polyline class="st0" points="71.4,59 70.2,59 68.3,53.5 70,53.5 71,57 72.1,53.5 73.3,53.5 71.4,59 	"/>
	<path class="st0" d="M77.9,52l-2.5,0.9l-0.3-0.7l2.4-1.2L77.9,52 M77,58.7c-0.4,1.3-0.6,2.3-2.2,2.3L74,60.9v-1.3l0.8,0.1
		c0.5,0,0.7-0.2,0.9-0.7l-2-5.6h1.7l1.1,3.3l1-3.3h1.2L77,58.7z"/>
	<polyline class="st0" points="82.2,59 80.9,59 79,53.5 80.7,53.5 81.8,57 82.9,53.5 84.1,53.5 82.2,59 	"/>
	<path class="st0" d="M86.3,56.1c0,0.6,0,2,0.9,2c0.9,0,1-1.1,1-1.8c0-0.4,0-1-0.2-1.4c-0.1-0.4-0.4-0.5-0.8-0.5
		C86.4,54.4,86.3,55.4,86.3,56.1 M89.9,56.3c0,1.6-1,2.8-2.7,2.8c-1.7,0-2.6-1.3-2.6-2.9c0-1.6,0.9-2.9,2.6-2.9
		C88.9,53.4,89.9,54.7,89.9,56.3z"/>
	<path class="st0" d="M92.5,53h-1.6v-1.6h1.6V53 M92.5,53.5v5.1c0,0.5,0.1,1.1-0.2,1.6c-0.3,0.6-1,0.8-1.6,0.8
		c-0.3,0-0.6-0.1-0.9-0.1v-1.3l0.4,0c0.7,0,0.7-0.6,0.7-1.1v-5.1H92.5z"/>
	<path class="st0" d="M19.8,69.6c0,0.4,0,0.8,0.2,1.1c0.2,0.2,0.4,0.4,0.7,0.4c0.8,0,0.9-1.2,0.9-1.8c0-0.6,0-1.7-0.9-1.7
		c-0.3,0-0.6,0.2-0.7,0.4c-0.2,0.3-0.2,0.6-0.2,1V69.6 M19.7,66.6v0.8h0c0.3-0.6,0.7-0.9,1.4-0.9c0.7,0,1.3,0.3,1.6,1
		c0.4,0.6,0.4,1.3,0.4,1.9c0,1.4-0.5,2.9-2.1,2.9c-0.5,0-1.1-0.2-1.3-0.7h0V74h-1.6v-7.4H19.7z"/>
	<path class="st0" d="M25.8,66.6v1h0c0.2-0.6,0.5-1.2,1.2-1.2l0.3,0v1.6C26,68,25.9,69,25.9,70v2.1h-1.6v-5.6H25.8"/>
	<path class="st0" d="M29.6,69.2c0,0.6,0,2,0.9,2c0.9,0,1-1.1,1-1.8c0-0.4,0-1-0.2-1.4c-0.1-0.4-0.4-0.5-0.8-0.5
		C29.7,67.5,29.6,68.5,29.6,69.2 M33.2,69.4c0,1.6-1,2.8-2.7,2.8c-1.7,0-2.6-1.3-2.6-2.9c0-1.6,0.9-2.9,2.6-2.9
		C32.3,66.5,33.2,67.7,33.2,69.4z"/>
	<path class="st0" d="M39.1,72.1h-1.6v-5.6h1.6V72.1 M39.1,66.1h-1.6v-1.6h1.6V66.1z"/>
	<path class="st0" d="M42,66.6v0.9h0c0.3-0.7,0.8-1.1,1.6-1.1c0.5,0,1,0.2,1.4,0.6c0.3,0.4,0.3,1.1,0.3,1.6v3.4h-1.6v-3
		c0-0.6,0.1-1.4-0.7-1.4c-0.3,0-0.5,0.2-0.7,0.4c-0.2,0.3-0.2,0.6-0.2,1v3h-1.6v-5.6H42"/>
	<path class="st0" d="M47.9,69.2c0,0.6,0,2,0.9,2c0.9,0,1-1.1,1-1.8c0-0.4,0-1-0.2-1.4c-0.1-0.4-0.4-0.5-0.8-0.5
		C48,67.5,47.9,68.5,47.9,69.2 M51.5,69.4c0,1.6-1,2.8-2.7,2.8c-1.7,0-2.6-1.3-2.6-2.9c0-1.6,0.9-2.9,2.6-2.9
		C50.6,66.5,51.5,67.7,51.5,69.4z"/>
	<polyline class="st0" points="55.2,72.1 53.9,72.1 52,66.6 53.7,66.6 54.8,70.1 55.9,66.6 57.1,66.6 55.2,72.1 	"/>
	<path class="st0" d="M61.1,69.5c-0.6,0.1-1.7,0.2-1.7,1c0,0.4,0.3,0.7,0.7,0.7c0.3,0,0.6-0.2,0.8-0.5c0.2-0.4,0.2-0.7,0.2-1.1V69.5
		 M61.2,72.1c-0.1-0.3-0.1-0.6-0.1-0.9c-0.5,0.7-0.9,1-1.8,1c-1,0-1.8-0.5-1.8-1.6c0-0.8,0.5-1.4,1.3-1.7c0.6-0.2,1.5-0.3,2.2-0.4
		v-0.1c0-0.2,0-0.5-0.1-0.7c-0.1-0.2-0.4-0.3-0.7-0.3c-0.5,0-1,0.3-1,0.8l-1.5-0.1c0.2-1.3,1.5-1.7,2.7-1.7c0.6,0,1.3,0.1,1.8,0.5
		c0.6,0.5,0.5,1.1,0.5,1.7v2.6c0,0.3,0,0.6,0.1,0.8H61.2z"/>
	<path class="st0" d="M67.3,68.7c0-0.5-0.3-1-0.8-1c-0.9,0-1,0.9-1,1.6c0,0.7,0,1.6,0.9,1.6c0.6,0,0.9-0.4,0.9-1l1.5,0.1
		c-0.1,1.4-1.2,2.2-2.5,2.2c-1.7,0-2.7-1.2-2.7-2.8c0-1.7,1-3,2.8-3c1.3,0,2.3,0.8,2.4,2.1L67.3,68.7"/>
	<path class="st0" d="M73.3,68.7c0-0.6-0.2-1.2-0.9-1.2c-0.7,0-1,0.5-1,1.2H73.3 M71.4,69.6l0,0.3c0,0.7,0.4,1.2,1.1,1.2
		c0.5,0,1-0.4,1-0.9l1.5,0.1c0,0.3-0.6,1.9-2.5,1.9c-1.7,0-2.7-1.2-2.7-2.8c0-1.6,1-3,2.7-3c0.8,0,1.6,0.4,2,1
		c0.5,0.6,0.6,1.4,0.6,2.2H71.4z"/>
	<path class="st0" d="M24.6,41.7c0-1.6-1.3-2.9-2.9-2.9c-1.6,0-2.9,1.3-2.9,2.9s1.3,2.9,2.9,2.9C23.3,44.7,24.6,43.4,24.6,41.7"/>
	<path class="st0" d="M34,23c0-1.6-1.3-2.9-2.9-2.9s-2.9,1.3-2.9,2.9c0,1.6,1.3,2.9,2.9,2.9S34,24.7,34,23"/>
	<path class="st0" d="M29,31.1c0-1.6-1.3-2.9-2.9-2.9c-1.6,0-2.9,1.3-2.9,2.9c0,0.1,0,0.2,0,0.3c1.4,0.7,3,1.4,4.6,2.1
		C28.5,32.9,29,32.1,29,31.1z"/>
	<path class="st0" d="M50.1,7.9c0-1.6-1.3-2.9-2.9-2.9c-1.6,0-2.9,1.3-2.9,2.9c0,0.2,0,0.3,0.1,0.5c1.8,0.3,3.6,0.6,5.4,1
		C49.9,9,50.1,8.5,50.1,7.9z"/>
	<path class="st0" d="M40.1,14.5c-0.5-1-1.5-1.6-2.6-1.6c-0.8,0-1.5,0.3-2,0.8c-0.6,0.5-0.9,1.3-0.9,2.1c0,1.6,1.3,2.9,2.9,2.9
		c1.6,0,2.9-1.3,2.9-2.9C40.4,15.4,40.3,14.9,40.1,14.5z"/>
	<path class="st0" d="M58.9,2.9C58.9,1.3,57.6,0,56,0C54.3,0,53,1.3,53,2.9s1.3,2.9,2.9,2.9C57.6,5.8,58.9,4.5,58.9,2.9"/>
</g>
<g>
	<path class="st1" d="M57.3,11.2c-2.6-0.7-5.1-1.3-7.6-1.8c-1.8-0.4-3.6-0.7-5.4-1c-18.4-2.9-35-0.8-39.9,5.7
		c-6,8,7.9,19.7,31.1,26.1c11.7,3.2,23.5,4.5,33.1,3.9c-9.9-1-22-3.7-33.5-7.9c-2.6-0.9-5-1.9-7.3-2.8c-1.6-0.7-3.1-1.4-4.6-2.1
		C9.6,24.8,3.6,17.9,9.6,14.4c4.4-2.5,14.2-2.6,25.9-0.7c0.5-0.5,1.2-0.8,2-0.8c1.1,0,2.1,0.7,2.6,1.6c7.2,1.4,14.9,3.5,22.3,6.2
		c13.8,5,23.5,10.8,26.6,15.5C93.1,28.2,79.4,17.3,57.3,11.2z"/>
	<path class="st1" d="M59.8,40.2h-3.2v-1l1.4-1.1c0.3-0.2,0.6-0.5,0.6-0.8c0-0.2-0.1-0.4-0.4-0.4c-0.4,0-0.5,0.4-0.5,0.7l-1.1-0.2
		c0.1-0.9,0.8-1.5,1.7-1.5c0.8,0,1.6,0.5,1.6,1.4c0,0.5-0.2,0.8-0.5,1.1l-1,0.7l-0.1,0.1l1.6,0L59.8,40.2"/>
	<path class="st1" d="M61.6,38.1c0,1.2,0.3,1.2,0.5,1.2c0.2,0,0.5,0,0.5-1.2c0-1.4-0.3-1.3-0.5-1.3C61.9,36.8,61.6,36.7,61.6,38.1
		 M63.7,38.1c0,1-0.5,2.1-1.7,2.1c-1.2,0-1.7-1.1-1.7-2.1c0-1.1,0.4-2.2,1.7-2.2C63.3,35.9,63.7,37.1,63.7,38.1z"/>
	<path class="st1" d="M65.4,38.1c0,1.2,0.3,1.2,0.5,1.2c0.2,0,0.5,0,0.5-1.2c0-1.4-0.3-1.3-0.5-1.3C65.7,36.8,65.4,36.7,65.4,38.1
		 M67.6,38.1c0,1-0.5,2.1-1.7,2.1c-1.2,0-1.7-1.1-1.7-2.1c0-1.1,0.4-2.2,1.7-2.2C67.1,35.9,67.6,37.1,67.6,38.1z"/>
	<path class="st1" d="M71.2,36.8c-0.7,0.8-1.1,2.1-1.1,3.2l0,0.2h-1.4c0-1.2,0.6-2.3,1.3-3.2h-2l0.1-1.1l3,0V36.8"/>
	<polyline class="st1" points="74.7,39 71.6,39 71.6,38 74.7,38 74.7,39 	"/>
	<path class="st1" d="M78.3,40.2h-3.2v-0.9l1,0l0-2l0,0c-0.3,0.1-0.6,0.2-0.9,0.3l0-0.9c0.4-0.1,1-0.3,1.2-0.7h0.9v3.3l1,0
		L78.3,40.2z"/>
	<path class="st1" d="M79.9,38.8c0,0.3,0.3,0.6,0.6,0.6c0.3,0,0.5-0.1,0.5-0.4c0-0.1-0.1-0.3-0.2-0.4c-0.1-0.1-0.3-0.1-0.4-0.1
		l-0.4,0v-0.9l0.4,0c0.1,0,0.3,0,0.4,0c0.1-0.1,0.2-0.2,0.2-0.3c0-0.3-0.2-0.4-0.4-0.4c-0.3,0-0.5,0.2-0.5,0.5l-1-0.2
		c0.2-0.8,0.9-1.2,1.7-1.2c0.3,0,0.7,0.1,1,0.2c0.3,0.2,0.5,0.5,0.5,0.9c0,0.4-0.2,0.8-0.6,0.9c0.5,0.1,0.8,0.5,0.8,1
		c0,0.9-0.9,1.3-1.7,1.3c-0.9,0-1.6-0.4-1.8-1.3L79.9,38.8"/>
</g>
</svg>
