<?xml version="1.0" encoding="utf-8"?>
<!-- Generator: Adobe Illustrator 21.1.0, SVG Export Plug-In . SVG Version: 6.00 Build 0)  -->
<svg version="1.1" id="Vrstva_1" xmlns="http://www.w3.org/2000/svg" xmlns:xlink="http://www.w3.org/1999/xlink" x="0px" y="0px"
	 viewBox="0 0 18 15" style="enable-background:new 0 0 18 15;" xml:space="preserve">
<style type="text/css">
	.st0{fill:#BB133E;}
</style>
<g>
	<path class="st0" d="M13.9,7.5c0,0.2-0.1,0.4-0.2,0.5l-6.4,6.4c-0.1,0.1-0.3,0.2-0.5,0.2s-0.4,0-0.6-0.2S6,14.1,6,13.9v-3.4H0.8
		c-0.2,0-0.4-0.1-0.5-0.2S0,10,0,9.8V5.3c0-0.2,0.1-0.4,0.2-0.5s0.3-0.2,0.5-0.2H6V1.2C6,1,6.1,0.8,6.2,0.6s0.3-0.2,0.5-0.2
		s0.4,0.1,0.5,0.2L13.6,7C13.8,7.2,13.9,7.3,13.9,7.5z M18,3.4v8.2c0,0.9-0.3,1.7-1,2.4s-1.5,1-2.4,1h-3.8c-0.1,0-0.2,0-0.3-0.1
		s-0.1-0.2-0.1-0.3c0,0,0-0.1,0-0.2s0-0.2,0-0.3s0-0.2,0-0.3s0.1-0.2,0.1-0.2s0.1-0.1,0.2-0.1h3.8c0.5,0,1-0.2,1.3-0.6
		s0.6-0.8,0.6-1.3V3.4c0-0.5-0.2-1-0.6-1.3S15,1.5,14.5,1.5h-3.4H11c0,0-0.1,0-0.2,0s-0.1,0-0.1,0h-0.1c0,0-0.1,0-0.1-0.1
		s-0.1-0.1-0.1-0.1s0-0.1,0-0.2c0,0,0-0.1,0-0.2s0-0.2,0-0.3s0-0.2,0-0.3s0.1-0.2,0.1-0.2S10.6,0,10.7,0h3.8c0.9,0,1.7,0.3,2.4,1
		S18,2.5,18,3.4z"/>
</g>
</svg>
