<?xml version="1.0" encoding="utf-8"?>
<!-- Generator: Adobe Illustrator 21.1.0, SVG Export Plug-In . SVG Version: 6.00 Build 0)  -->
<svg version="1.1" id="Vrstva_1" xmlns="http://www.w3.org/2000/svg" xmlns:xlink="http://www.w3.org/1999/xlink" x="0px" y="0px"
	 viewBox="0 0 19.6 18" style="enable-background:new 0 0 19.6 18;" xml:space="preserve">
<style type="text/css">
	.st0{fill:#BB133E;}
</style>
<g>
	<path class="st0" d="M19.6,9.7v4.9c0,0.1,0,0.2-0.1,0.3S19.3,15,19.2,15h-2.6v1.9c0,0.3-0.1,0.6-0.3,0.8S15.8,18,15.5,18H4.2
		c-0.3,0-0.6-0.1-0.8-0.3s-0.3-0.5-0.3-0.8V15H0.4c-0.1,0-0.2,0-0.3-0.1S0,14.7,0,14.6V9.7c0-0.6,0.2-1.1,0.7-1.6s1-0.7,1.6-0.7h0.8
		V1.1c0-0.3,0.1-0.6,0.3-0.8S3.9,0,4.2,0h7.9c0.3,0,0.7,0.1,1,0.2s0.7,0.3,0.9,0.6l1.8,1.7C16,2.7,16.2,3,16.4,3.4s0.2,0.7,0.2,1v3
		h0.8c0.6,0,1.1,0.2,1.6,0.7S19.6,9.1,19.6,9.7z M4.6,8.9h10.5V4.4h-1.9c-0.3,0-0.6-0.1-0.8-0.3s-0.3-0.5-0.3-0.8V1.4H4.6V8.9z
		 M4.6,16.4h10.5v-3H4.6V16.4z M17.8,10.2c0.1-0.1,0.2-0.3,0.2-0.5s-0.1-0.4-0.2-0.5S17.5,9,17.3,9s-0.4,0-0.5,0.2s-0.2,0.3-0.2,0.5
		s0.1,0.4,0.2,0.5s0.3,0.2,0.5,0.2S17.7,10.4,17.8,10.2z"/>
</g>
</svg>
