<?xml version="1.0" encoding="utf-8"?>
<!-- Generator: Adobe Illustrator 21.1.0, SVG Export Plug-In . SVG Version: 6.00 Build 0)  -->
<svg version="1.1" id="Vrstva_1" xmlns="http://www.w3.org/2000/svg" xmlns:xlink="http://www.w3.org/1999/xlink" x="0px" y="0px"
	 viewBox="0 0 23.2 15.4" style="enable-background:new 0 0 23.2 15.4;" xml:space="preserve">
<style type="text/css">
	.st0{fill:#222222;}
</style>
<g>
	<path class="st0" d="M3.6,5.2C3.3,5.1,3,5,2.7,4.9C1.9,4.7,1.1,4.4,0.3,4.2C0.1,4.1,0,3.9,0,3.7c0-0.1,0.1-0.2,0.3-0.2
		c0.6-0.2,1.2-0.4,1.8-0.6C5.2,2,8.3,1,11.4,0c0.1,0,0.2,0,0.3,0c3.7,1.2,7.4,2.3,11.1,3.5c0.3,0.1,0.3,0.3,0.2,0.5
		c0,0.1-0.1,0.2-0.2,0.2c-0.5,0.1-0.9,0.3-1.4,0.4c-3.2,1-6.5,2-9.7,3.1c-0.1,0-0.3,0-0.4,0C9.3,7,7.1,6.3,5,5.6c-0.1,0-0.1,0-0.1,0
		C4.6,6,4.4,6.3,4.2,6.7C4,7.2,3.9,7.8,3.9,8.4c0,0,0,0,0,0.1c0,0.1,0,0.1,0.1,0.1C4.6,9,4.6,9.9,4.3,10.4c-0.1,0.1-0.2,0.2-0.3,0.3
		c0,0,0,0.1,0,0.1C4,11.2,4,11.6,4.1,12.1c0.1,0.4,0.1,0.9,0.2,1.3c0.1,0.4,0.1,0.8,0.2,1.3c0,0.1,0,0.3,0.1,0.4
		c0,0.2-0.1,0.4-0.3,0.4c-0.6,0-1.3,0-1.9,0c-0.2,0-0.4-0.2-0.3-0.4c0.1-0.7,0.2-1.4,0.3-2c0.1-0.7,0.2-1.3,0.3-2c0-0.1,0-0.2,0-0.3
		c0-0.1,0-0.1-0.1-0.1C2.2,10.5,2,10.2,1.9,9.8C1.9,9.3,2,8.9,2.5,8.6c0.1,0,0.1-0.1,0.1-0.2c0.1-1,0.3-2,0.8-3
		C3.5,5.4,3.5,5.3,3.6,5.2z"/>
	<path class="st0" d="M17.8,7.1c0,0.2,0,0.5,0,0.7c0,0.5,0.1,1,0.1,1.5c0,0.3,0,0.7,0.1,1c0,0.3-0.1,0.6-0.4,0.8
		c-0.3,0.3-0.7,0.6-1.1,0.7c-0.7,0.3-1.3,0.5-2.1,0.6c-0.5,0.1-1,0.2-1.5,0.2c-0.7,0.1-1.4,0.1-2.1,0c-0.4,0-0.8,0-1.2-0.1
		c-1.2-0.1-2.3-0.4-3.3-0.9c-0.3-0.2-0.6-0.4-0.9-0.7c-0.3-0.3-0.4-0.6-0.3-1c0-0.4,0-0.8,0.1-1.2c0-0.5,0.1-1,0.1-1.4
		c0-0.1,0-0.3,0-0.4C5.6,7.2,5.8,7.3,6,7.3c1.7,0.5,3.4,1.1,5.1,1.6c0.3,0.1,0.7,0.1,1,0c1.9-0.6,3.8-1.2,5.6-1.8
		C17.8,7.1,17.8,7.1,17.8,7.1z"/>
</g>
</svg>
