<?xml version="1.0" encoding="utf-8"?>
<!-- Generator: Adobe Illustrator 21.1.0, SVG Export Plug-In . SVG Version: 6.00 Build 0)  -->
<svg version="1.1" id="Vrstva_1" xmlns="http://www.w3.org/2000/svg" xmlns:xlink="http://www.w3.org/1999/xlink" x="0px" y="0px"
	 viewBox="0 0 92 74.8" style="enable-background:new 0 0 92 74.8;" xml:space="preserve">
<style type="text/css">
	.st0{fill:#1DA1F2;}
</style>
<path class="st0" d="M28.9,74.8c34.7,0,53.7-28.8,53.7-53.7c0-0.8,0-1.6-0.1-2.4c3.7-2.7,6.9-6,9.4-9.8c-3.4,1.5-7,2.5-10.8,3
	c3.9-2.3,6.9-6,8.3-10.4c-3.6,2.2-7.7,3.7-12,4.6C74,2.3,69.1,0,63.7,0C53.3,0,44.8,8.5,44.8,18.9c0,1.5,0.2,2.9,0.5,4.3
	C29.6,22.4,15.7,14.9,6.4,3.5c-1.6,2.8-2.6,6-2.6,9.5c0,6.5,3.3,12.3,8.4,15.7c-3.1-0.1-6-0.9-8.5-2.4c0,0.1,0,0.2,0,0.2
	c0,9.1,6.5,16.8,15.1,18.5c-1.6,0.4-3.3,0.7-5,0.7c-1.2,0-2.4-0.1-3.5-0.3c2.4,7.5,9.4,13,17.6,13.1c-6.5,5.1-14.6,8.1-23.4,8.1
	c-1.5,0-3-0.1-4.5-0.3C8.4,71.6,18.3,74.8,28.9,74.8"/>
</svg>
