<?xml version="1.0" encoding="utf-8"?>
<!-- Generator: Adobe Illustrator 21.1.0, SVG Export Plug-In . SVG Version: 6.00 Build 0)  -->
<svg version="1.1" id="Vrstva_1" xmlns="http://www.w3.org/2000/svg" xmlns:xlink="http://www.w3.org/1999/xlink" x="0px" y="0px"
	 viewBox="0 0 106.4 74.8" style="enable-background:new 0 0 106.4 74.8;" xml:space="preserve">
<style type="text/css">
	.st0{fill:#FFFFFF;}
	.st1{fill:#D5291A;}
</style>
<path id="Triangle" class="st0" d="M42.2,51.2l28.7-14.9l-28.7-15V51.2z"/>
<g id="Lozenge">
	<g>
		<path class="st1" d="M105.3,16.1c0,0-1-7.3-4.2-10.6c-4-4.2-8.6-4.3-10.7-4.5C75.5,0,53.2,0,53.2,0h0c0,0-22.3,0-37.2,1.1
			C13.9,1.3,9.3,1.3,5.3,5.6C2.1,8.8,1.1,16.1,1.1,16.1S0,24.7,0,33.4v8.1C0,50,1.1,58.6,1.1,58.6s1,7.3,4.2,10.6
			c4,4.2,9.4,4.1,11.7,4.5c8.5,0.8,36.2,1.1,36.2,1.1s22.4,0,37.2-1.1c2.1-0.2,6.6-0.3,10.7-4.5c3.2-3.2,4.2-10.6,4.2-10.6
			s1.1-8.6,1.1-17.2v-8.1C106.4,24.7,105.3,16.1,105.3,16.1z M42.2,51.2l0-29.9l28.7,15L42.2,51.2z"/>
	</g>
</g>
</svg>
