<?xml version="1.0" standalone="no"?>
<!DOCTYPE svg PUBLIC "-//W3C//DTD SVG 20010904//EN"
 "http://www.w3.org/TR/2001/REC-SVG-20010904/DTD/svg10.dtd">
<svg version="1.0" xmlns="http://www.w3.org/2000/svg"
 width="700.000000pt" height="700.000000pt" viewBox="0 0 700.000000 700.000000"
 preserveAspectRatio="xMidYMid meet">
<metadata>
Created by potrace 1.11, written by Peter Selinger 2001-2013
</metadata>
<g transform="translate(0.000000,700.000000) scale(0.100000,-0.100000)"
fill="#000000" stroke="none">
<path d="M0 3500 l0 -3500 3500 0 3500 0 0 3500 0 3500 -3500 0 -3500 0 0
-3500z m3775 1535 c151 -21 407 -64 412 -69 5 -5 -32 -385 -38 -390 -2 -3
-105 4 -229 14 -503 40 -639 37 -756 -20 -90 -44 -134 -112 -134 -205 0 -143
67 -191 455 -325 343 -119 478 -184 591 -285 108 -95 152 -213 161 -425 11
-285 -65 -491 -234 -633 -257 -215 -597 -248 -1258 -122 -97 18 -178 35 -180
37 -4 3 44 380 49 385 1 1 99 -9 217 -23 250 -29 490 -42 606 -32 196 16 303
126 303 310 0 70 -28 136 -74 175 -48 41 -154 86 -363 152 -370 119 -532 203
-642 336 -89 108 -125 224 -126 410 0 139 13 220 52 319 81 207 274 348 553
401 99 19 468 13 635 -10z m-1465 -240 l0 -215 -537 -2 -538 -3 -3 -362 -2
-363 440 0 440 0 0 -220 0 -220 -440 0 -440 0 0 -435 0 -435 -250 0 -250 0 0
1235 0 1235 790 0 790 0 0 -215z m2644 88 c15 -71 112 -526 215 -1013 l187
-885 84 0 84 0 207 980 c114 539 210 995 214 1013 l6 32 266 0 c208 0 264 -3
261 -12 -3 -7 -133 -563 -289 -1235 l-283 -1223 -466 0 -466 0 -284 1223
c-156 672 -285 1228 -288 1235 -3 9 53 12 261 12 l264 0 27 -127z"/>
</g>
</svg>
