<svg id="Vrstva_1" xmlns="http://www.w3.org/2000/svg" xmlns:xlink="http://www.w3.org/1999/xlink" viewBox="0 0 260 260"><style>.st0{fill:url(#SVGID_1_)}.st1{fill:#fff}</style><g id="_x35_ROEfY_1_"><image width="200" height="200" id="_x35_ROEfY_2_" xlink:href="4F6AC792076E7D8F.jpg" transform="scale(1.3)" overflow="visible"/></g><radialGradient id="SVGID_1_" cx="130" cy="130" r="130" gradientUnits="userSpaceOnUse"><stop offset="0" stop-color="#e73160"/><stop offset=".786" stop-color="#bc163f"/></radialGradient><path class="st0" d="M0 0h260v260H0z"/><path class="st1" d="M29.5 152.6v-45.2h28.9v8H38.7v13.3h16.1v8H38.7v16h-9.2zm48.9-38c-4.8 0-7.3 1.6-7.3 4.8 0 1.4.6 2.5 1.8 3.3 1.2.8 4 1.8 8.4 3.3 4.4 1.4 7.5 3 9.3 4.8 1.8 1.8 2.7 4.6 2.7 8.3 0 4.7-1.4 8.3-4.3 10.8-2.9 2.4-6.7 3.7-11.3 3.7-3.5 0-7.7-.5-12.7-1.6l-2.4-.5.9-7.1c5.9.8 10.5 1.2 13.6 1.2 4.7 0 7.1-2 7.1-5.9 0-1.4-.5-2.5-1.6-3.3-1.1-.8-3.2-1.7-6.5-2.6-5.1-1.5-8.8-3.2-10.9-5.2-2.1-2-3.2-4.8-3.2-8.4 0-4.5 1.4-7.9 4.1-10.1 2.7-2.2 6.5-3.3 11.3-3.3 3.3 0 7.5.4 12.5 1.3l2.4.5-.7 7.3c-6.2-1-10.6-1.3-13.2-1.3zm46.4-7.2h9.6L124 152.6h-17l-10.5-45.2h9.6l7.8 37.3h3l7.9-37.3zm39.1 30.1c0 5.3 2.7 7.9 8 7.9 5.4 0 8-2.6 8-7.9v-30.1h9.2v29.9c0 5.5-1.4 9.6-4.3 12.2-2.9 2.6-7.2 3.9-12.9 3.9-5.8 0-10.1-1.3-12.9-3.9-2.9-2.6-4.3-6.7-4.3-12.2v-29.9h9.2v30.1zm42.3 15.1H197v-45.2h9.2v19.9l6.1-.7 7.5-19.2h10.4l-9.8 22.7 10.1 22.6h-10.6l-7.6-18-6.1.7v17.2z"/></svg>