<svg id="Vrstva_1" xmlns="http://www.w3.org/2000/svg" viewBox="0 0 457 113.4"><style>.st0{fill:#bb133e}.st1{fill:#fff}</style><path d="M140.8 12.1h-2.1v-.5h6.8v.5h-2.1v15.7h2.9c2 0 2.7-.2 3.3-.9.6-.8 1.1-1.7 1.5-3.7h.4l-.4 5.1h-12.4v-.5h2.1V12.1zm18 0h-2.1v-.5h6.8v.5h-2.1v15.7h2.1v.5h-6.8v-.5h2.1V12.1zm12.1 0h-2.1v-.5h5.5c3.1 0 4.4.3 5.7 1.2.9.7 1.4 1.7 1.4 2.8 0 2-1.5 3.3-4.3 3.9 3.2.3 5 1.8 5 4.3 0 1.3-.6 2.5-1.9 3.3-1.1.8-2.4 1-5.5 1h-6v-.5h2.1l.1-15.5zm2.7 7.2h1.4c2.7 0 3.8-1 3.8-3.5 0-1.4-.4-2.5-1.1-3-.7-.5-1.4-.7-3.4-.7h-.7v7.2zm1.5 8.5c1.7 0 2.5-.2 3.1-.8.7-.7 1-1.7 1-3.2 0-3-1.1-4-4.1-4-.4 0-.8 0-1.4.1v7.9h1.4zm14.2-15.7h-2.1v-.5h5.8c3.4 0 4.3.2 5.5.9 1.1.7 1.6 1.6 1.6 2.9 0 2.3-2 3.8-5.1 4 1.8.2 3.1 1.1 3.9 2.3.5.8.7 1.7.7 2.9v1.2c0 1.3.4 1.9 1.1 1.9.2 0 .5-.1 1-.3l.2.4c-.6.3-1.2.4-1.8.4-1.3 0-2.4-.7-3-1.8-.4-.8-.5-1.3-.5-3.2 0-1.6-.2-2.3-.7-2.9-.6-.7-1.4-.9-3.1-.9h-.8v8.1h2.1v.5h-6.8v-.5h2.1l-.1-15.4zm3.6 7c1.8 0 2.6-.2 3.2-.6.7-.5 1.1-1.6 1.1-2.9 0-1.2-.4-2.3-1.1-2.8-.7-.5-1.4-.7-3.1-.7h-1v7h.9zm17.3 3.8l-1.6 4.9h2.2v.5h-4v-.5h1.2l5.6-16.2h.8l5.4 16.2h1.8v.5h-6.8v-.5h2.2l-1.6-4.9h-5.2zm2.5-7.4l-2.4 6.9h4.7l-2.3-6.9zm15.7-3.4h-2.1v-.5h5.8c3.4 0 4.3.2 5.5.9 1.1.7 1.6 1.6 1.6 2.9 0 2.3-2 3.8-5.1 4 1.8.2 3.1 1.1 3.9 2.3.5.8.7 1.7.7 2.9v1.2c0 1.3.4 1.9 1.1 1.9.2 0 .5-.1 1-.3l.2.4c-.6.3-1.2.4-1.8.4-1.3 0-2.4-.7-3-1.8-.4-.8-.5-1.3-.5-3.2 0-1.6-.2-2.3-.7-2.9-.6-.7-1.4-.9-3.1-.9h-.8v8.1h2.1v.5h-6.8v-.5h2.1l-.1-15.4zm3.6 7c1.8 0 2.6-.2 3.2-.6.7-.5 1.1-1.6 1.1-2.9 0-1.2-.4-2.3-1.1-2.8-.7-.5-1.4-.7-3.1-.7h-1v7h.9zm18.1 1.3l-4.8-8.3H244v-.5h6.5v.5h-2.1l3.8 6.6c.2.3.3.5.4.7l3.9-7.3H254v-.5h4.9v.5h-1.8l-3.5 6.6c-.2.4-.4.7-.4.8-.1.2-.2.4-.2.6l-.1.3v7.4h2.3v.5h-7.3v-.5h2.3l-.1-7.4zm33.5 2V24h-14.5v-1.6h14.5zm20.8-6.6h-.4c-.3-2.4-1.8-3.8-4-3.8-1.9 0-3.3 1.2-3.3 3 0 .9.4 1.6 1.1 2 .5.2 1.2.5 2.8.9 2 .6 2.6.8 3.2 1.4.9.9 1.4 2.1 1.4 3.6 0 3.3-2.1 5.7-5 5.7-1.4 0-2.5-.4-3.7-1.4l-.9 1.2h-.5v-5.1h.4c.2 1.4.5 2.2 1 2.9.9 1.2 2.2 1.9 3.8 1.9 2.1 0 3.6-1.4 3.6-3.6 0-1.1-.4-2-1.2-2.5-.5-.3-1-.5-2.8-1-2.1-.6-2.8-.9-3.5-1.5-.7-.7-1.1-1.7-1.1-2.9 0-2.9 2-5.1 4.6-5.1 1.1 0 2 .3 3.1 1l.9-1h.4l.1 4.3zm19.1 12.5h-.4l-.9-1.2c-1.4 1-2.7 1.5-4.1 1.5-3.9 0-7.1-3.9-7.1-8.5 0-4.7 3.3-8.6 7.3-8.6 1.3 0 2.7.5 3.9 1.4l.9-1.2h.4V16h-.4c-.6-2.6-2.3-4.1-4.6-4.1-1.6 0-2.9.7-3.6 2-.5 1-.7 3.1-.7 6.7 0 3.5.2 5 .9 5.8.7.9 1.9 1.5 3.2 1.5 2.2 0 3.8-1.5 4.8-4.4h.4v4.8zm7.5-16.2h-2.1v-.5h6.8v.5h-2.1v15.7h2.1v.5h-6.8v-.5h2.1V12.1zm12.1 0H341v-.5h12l.2 4.6h-.3c-.3-1.4-.6-2.2-1.1-2.8-.5-.7-1.2-1-2.1-1.2-.3-.1-.6-.1-1.9-.1h-1.9v7.5c3.1 0 3.6-.4 3.6-3.1h.3v6.9h-.3c-.1-1.5-.1-1.8-.4-2.3-.4-.7-1-1-2.4-1h-.8v7.7h3.2c1.7 0 1.9-.1 2.5-.5.9-.7 1.4-1.5 2.1-4.2h.3l-.5 5.2h-12.4v-.5h2.1l-.1-15.7zm18 0H359v-.5h5.2l4.8 7.3c1.9 3 2 3.1 2.8 4.4V12.1h-2.1v-.5h4.7v.5h-2.1v16.2h-.6l-10.2-15.7v15.2h2.1v.5h-4.7v-.5h2.1l.1-15.7zm24 0h-.9c-1.7 0-2.2.2-2.9 1.1-.8 1-1.2 2-1.5 3.7h-.4l.2-5.3h13.6l.2 5.3h-.4c-.3-1.7-.7-2.7-1.5-3.7-.7-.9-1.2-1.1-2.9-1.1h-.9v15.7h2.3v.5h-7.4v-.5h2.4V12.1zm15.5 0h-2.1v-.5h6.8v.5h-2.1v15.7h2.1v.5h-6.8v-.5h2.1V12.1zm12.1 0h-2.1v-.5h11.9l.3 4.6h-.3c-.4-1.7-.6-2.4-1.3-3.1-.5-.6-1-.8-1.6-.9-.4-.1-.5-.1-2.7-.1h-1.5v7.5c3.1 0 3.6-.4 3.6-3.1h.3v6.9h-.3c-.1-1.5-.1-1.8-.4-2.3-.4-.7-1-1-2.4-1h-.8v7.7h2.1v.5h-6.8v-.5h2.1l-.1-15.7zm17.2 0h-2.1v-.5h6.8v.5h-2.1v15.7h2.1v.5h-6.8v-.5h2.1V12.1zM452 28.3h-.4l-.8-1.2c-1.4 1-2.7 1.5-4.1 1.5-3.9 0-7.1-3.9-7.1-8.5 0-4.7 3.3-8.6 7.3-8.6 1.3 0 2.7.5 3.9 1.4l.8-1.2h.4V16h-.4c-.6-2.6-2.3-4.1-4.6-4.1-1.6 0-2.9.7-3.6 2-.5 1-.7 3.1-.7 6.7 0 3.5.2 5 .9 5.8.7.9 1.9 1.5 3.2 1.5 2.2 0 3.8-1.5 4.8-4.4h.4v4.8zm-311.2 8.8h-2.1v-.5h6.8v.5h-2.1v15.7h2.1v.5h-6.8v-.5h2.1V37.1zm12.1 0h-2.1v-.5h5.2l4.8 7.3c1.9 3 2 3.1 2.8 4.4V37.1h-2.1v-.5h4.7v.5h-2.1v16.2h-.6l-10.2-15.7v15.2h2.1v.5h-4.7v-.5h2.1l.1-15.7zm20.7 0h-2.1v-.5h11.9l.3 4.6h-.3c-.4-1.7-.6-2.4-1.3-3.1-.5-.6-1-.8-1.6-.9-.4-.1-.5-.1-2.7-.1h-1.5v7.5c3.1 0 3.6-.4 3.6-3.1h.3v6.9h-.2c-.1-1.5-.1-1.8-.4-2.3-.4-.7-1-1-2.4-1h-.8v7.7h2.1v.5h-6.8v-.5h2.1l-.2-15.7zm29.6 8c0 2.2-.9 4.5-2.4 6.2-1.3 1.4-3 2.2-4.8 2.2-3.9 0-7.3-3.9-7.3-8.6 0-4.6 3.3-8.6 7.2-8.6 4.1.1 7.3 4 7.3 8.8zm-10.6-6.3c-.5 1-.8 2.7-.8 6.2 0 3.9.2 5.6 1 6.6.7.9 1.8 1.4 3.1 1.4 1.5 0 2.7-.7 3.3-1.8.5-.9.8-2.7.8-6 0-4.1-.2-5.7-1-6.7-.7-.9-1.8-1.4-3-1.4-1.5-.2-2.8.5-3.4 1.7zm17.6-1.7h-2.1v-.5h5.8c3.4 0 4.3.2 5.5.9 1.1.7 1.6 1.6 1.6 2.9 0 2.3-2 3.8-5.1 4 1.8.2 3.1 1.1 3.9 2.3.5.8.7 1.7.7 2.9v1.2c0 1.3.4 1.9 1.1 1.9.2 0 .5-.1 1-.3l.2.4c-.6.3-1.2.4-1.8.4-1.3 0-2.4-.7-3-1.8-.4-.8-.5-1.3-.5-3.2 0-1.6-.2-2.3-.7-2.9-.6-.7-1.4-.9-3.1-.9h-.8v8.1h2.1v.5h-6.8v-.5h2.1l-.1-15.4zm3.6 7c1.8 0 2.6-.2 3.2-.6.7-.5 1.1-1.6 1.1-2.9 0-1.2-.4-2.3-1.1-2.8-.7-.5-1.4-.7-3.1-.7h-1v7h.9zm16.2-7h-2.1v-.5h5.2l3.7 12.3 3.7-12.3h5v.5h-2.1v15.7h2.1v.5h-6.8v-.5h2.1V37.5l-4.7 15.7h-.6l-4.9-15.9v15.4h2.1v.5H228v-.5h2.1l-.1-15.6zm24.1 10.8l-1.6 4.9h2.2v.5h-4v-.5h1.2l5.6-16.2h.8l5.4 16.2h1.8v.5h-6.8v-.5h2.2l-1.6-4.9h-5.2zm2.6-7.4l-2.3 6.9h4.7l-2.4-6.9zm17.2-3.4h-.9c-1.7 0-2.2.2-2.9 1.1-.8 1-1.2 2-1.5 3.7h-.4l.2-5.3H282l.2 5.3h-.4c-.3-1.7-.7-2.7-1.5-3.7-.7-.9-1.2-1.1-2.9-1.1h-.9v15.7h2.3v.5h-7.4v-.5h2.3l.2-15.7zm15.5 0h-2.1v-.5h6.8v.5H292v15.7h2.1v.5h-6.8v-.5h2.1V37.1zm24.2 8c0 2.2-.9 4.5-2.4 6.2-1.3 1.4-3 2.2-4.8 2.2-3.9 0-7.3-3.9-7.3-8.6 0-4.6 3.3-8.6 7.2-8.6 4 .1 7.3 4 7.3 8.8zM303 38.8c-.5 1-.8 2.7-.8 6.2 0 3.9.2 5.6 1 6.6.7.9 1.8 1.4 3.1 1.4 1.4 0 2.7-.7 3.3-1.8.5-.9.7-2.7.7-6 0-4.1-.2-5.7-1-6.7-.7-.9-1.8-1.4-3-1.4-1.5-.2-2.7.5-3.3 1.7zm17.5-1.7h-2.1v-.5h5.2l4.8 7.3c1.9 3 2 3.1 2.8 4.4V37.1h-2.1v-.5h4.7v.5h-2.1v16.2h-.6L321 37.6v15.2h2.1v.5h-4.7v-.5h2.1V37.1zm41 16.2h-.4l-.9-1.2c-1.4 1-2.7 1.5-4.1 1.5-3.9 0-7.1-3.9-7.1-8.5 0-4.7 3.3-8.6 7.3-8.6 1.3 0 2.7.5 3.9 1.4l.9-1.2h.4V41h-.4c-.6-2.6-2.3-4.1-4.6-4.1-1.6 0-2.9.7-3.6 2-.5 1-.7 3.1-.7 6.7 0 3.5.2 5 .9 5.8.7.9 1.9 1.5 3.2 1.5 2.2 0 3.8-1.5 4.8-4.4h.4v4.8zm7.5-16.2h-2.1v-.5h12l.2 4.6h-.3c-.3-1.4-.6-2.2-1.1-2.8-.5-.7-1.2-1-2.1-1.2-.3-.1-.6-.1-1.9-.1h-1.9v7.5c3.1 0 3.6-.4 3.6-3.1h.3v6.9h-.3c-.1-1.5-.1-1.8-.4-2.3-.4-.7-1-1-2.4-1h-.8v7.7h3.2c1.7 0 1.9-.1 2.5-.5.9-.6 1.4-1.5 2.1-4.2h.3l-.5 5.2H367v-.5h2.1l-.1-15.7zm18 0h-2.1v-.5h5.2l4.8 7.3c1.9 3 2 3.1 2.8 4.4V37.1h-2.1v-.5h4.7v.5h-2.1v16.2h-.6l-10.2-15.7v15.2h2.1v.5h-4.7v-.5h2.1l.1-15.7zm24 0h-.9c-1.7 0-2.2.2-2.9 1.1-.8 1-1.2 2-1.5 3.7h-.4l.2-5.3h13.6l.2 5.3h-.4c-.3-1.7-.7-2.7-1.5-3.7-.7-.9-1.2-1.1-2.9-1.1h-.9v15.7h2.3v.5h-7.4v-.5h2.4V37.1zm15.4 0h-2.1v-.5h5.8c3.4 0 4.3.2 5.5.9 1.1.7 1.6 1.6 1.6 2.9 0 2.3-2 3.8-5.1 4 1.8.2 3.1 1.1 3.9 2.3.5.8.7 1.7.7 2.9v1.2c0 1.3.4 1.9 1.1 1.9.2 0 .4-.1.9-.3l.3.6c-.6.3-1.2.4-1.8.4-1.3 0-2.4-.7-3-1.8-.4-.8-.5-1.3-.5-3.2-.1-1.6-.2-2.3-.7-2.9-.6-.7-1.4-.9-3.1-.9h-.8v8.1h2.1v.5h-6.8v-.5h2.1l-.1-15.6zm3.6 7c1.8 0 2.6-.2 3.2-.6.7-.5 1.1-1.6 1.1-2.9 0-1.2-.4-2.3-1.1-2.8-.7-.5-1.4-.7-3.1-.7h-1v7h.9zm16.2-7h-2.1v-.5h12l.2 4.6h-.3c-.3-1.4-.6-2.2-1.1-2.8-.5-.7-1.2-1-2.1-1.2-.3-.1-.6-.1-1.9-.1H449v7.5c3.1 0 3.6-.4 3.6-3.1h.3v6.9h-.3c-.1-1.5-.2-1.8-.4-2.3-.3-.7-1-1-2.4-1h-.8v7.7h3.2c1.7 0 1.9-.1 2.5-.5.9-.6 1.3-1.5 2.1-4.2h.3l-.5 5.2h-12.4v-.5h2.1l-.1-15.7zm-305.4 25h-2.1v-.5h11.9l.3 4.6h-.3c-.4-1.6-.6-2.4-1.3-3.1-.5-.6-1-.8-1.6-.9-.4-.1-.5-.1-2.7-.1h-1.5v7.5c3.1 0 3.6-.4 3.6-3.1h.3v6.9h-.3c-.1-1.5-.1-1.8-.4-2.3-.4-.7-1-1-2.4-1h-.8v7.7h2.1v.5h-6.8v-.5h2.1l-.1-15.7zm21.1 15.7c-.6.6-1.1.8-1.7.8-1.2 0-1.9-.7-2.1-1.9-.7 1.2-1.9 1.9-3.2 1.9-1.6 0-2.6-.9-2.6-2.3 0-1.3.9-2.3 2.4-2.9.9-.3 1.9-.5 3.5-.5v-1.7c0-1.4-.1-1.7-.4-2-.2-.3-.8-.5-1.3-.5-.9 0-1.9.6-1.9 1.1 0 .1 0 .1.1.3.3.3.4.5.4.8 0 .6-.4 1.1-1 1.1s-1.1-.4-1.1-1.1c0-1.3 1.9-2.5 3.9-2.5 1.2 0 2.3.4 2.9 1.1.6.6.6.7.6 2.9v2.7c0 2.4 0 2.4.1 2.6.1.2.2.3.4.3s.3 0 .8-.4l.2.2zm-3.8-4.5c-1.4.1-2 .2-2.6.6-.7.5-1.1 1.1-1.1 1.9 0 1.1.6 1.7 1.5 1.7.8 0 1.4-.4 1.8-1.2.2-.5.4-1.2.4-2.5v-.5zm15.1 1.8c-.9 2.3-2.2 3.4-4.1 3.4-2.6 0-4.8-2.4-4.8-5.1 0-2.8 2.3-5.2 5-5.2 1.9 0 3.5 1.2 3.5 2.6 0 .8-.5 1.3-1.2 1.3-.6 0-1.1-.5-1.1-1.2 0-.4.2-.8.5-1.2.1-.1.1-.1.1-.2 0-.4-.9-.8-1.7-.8-.9 0-1.6.4-2 1.1-.3.6-.5 2.1-.5 4.2 0 1.9.1 2.6.6 3.1.4.5 1 .7 1.8.7 1.5 0 2.7-1 3.3-2.8l.6.1zm12.7 2.7h1.6v.5h-3.9v-1.4c-.7 1.1-1.8 1.6-3.3 1.6-1.1 0-2-.3-2.6-.9-.6-.6-.8-1.2-.8-3.4V69h-1.7v-.5h3.9v5.8c0 2.5.1 2.9.4 3.3.2.2.7.4 1.2.4.9 0 1.8-.5 2.2-1.2.5-.8.6-1.6.6-4.3V69H182v-.5h3.9v9.3zm6.1-15.7h-1.7v-.5h3.9v16.2h1.6v.5h-5.6v-.5h1.7l.1-15.7zm9.6 6.4h2.5v.5h-2.5v7.1c0 .7 0 .9.2 1.2.2.3.5.5 1 .5.8 0 1.1-.4 1.4-1.4h.5c-.2 1.4-1.1 2.1-2.6 2.1-.9 0-1.6-.3-2.1-.9-.5-.5-.5-.8-.5-2.4V69H198v-.4c1.6-.9 2.8-2.2 3.4-4h.4l-.2 3.9zm9.5 13.8c-.7 1.9-1.4 2.6-2.5 2.6-.8 0-1.4-.5-1.4-1.2s.5-1.2 1.2-1.2c.5 0 .8.2 1 .5.1.2.2.3.4.3.3 0 .3-.1.8-1.3l1.4-3.7-4.2-9.3h-1.1v-.5h5.3v.5h-1.8l2.8 6.4 2.3-6.4h-2v-.5h3.6v.5h-1l-4.8 13.3zm26.1-8.9c0 2.8-2.3 5.1-5.1 5.1s-5-2.3-5-5.2c0-2.8 2.3-5.1 5-5.1 2.8 0 5.1 2.3 5.1 5.2zm-7.2-3.5c-.2.5-.2.9-.2 3.4 0 2.9 0 3.2.4 3.8.4.6 1 .8 2 .8s1.8-.4 2.1-1.1c.2-.5.2-.9.2-3.4 0-3 0-3.2-.4-3.8-.4-.6-1-.8-2-.8-1.1 0-1.8.4-2.1 1.1zm13.7 7.9h2v.5h-6v-.5h1.7V69h-1.7v-.5h1.7v-2c0-1.9.3-2.8 1-3.8.7-.9 1.6-1.3 2.6-1.3 1.2 0 2.2.8 2.2 1.6 0 .6-.5 1.1-1 1.1-.6 0-1-.5-1-1.1 0-.4.1-.7.5-1.1-.2-.1-.4-.2-.7-.2-.5 0-.9.3-1.1.8-.2.4-.2.5-.2 2.5v3.4h2.3v.6h-2.3v8.8zm22.6-12h-.3c-.3-2.4-1.8-3.8-4-3.8-1.9 0-3.3 1.2-3.3 3 0 .9.4 1.6 1.1 2 .5.2 1.2.5 2.8.9 2 .6 2.6.8 3.2 1.4.9.9 1.4 2.1 1.4 3.6 0 3.3-2.1 5.7-5 5.7-1.4 0-2.5-.4-3.7-1.4l-.9 1.2h-.5v-5.1h.4c.2 1.4.5 2.1 1 2.9.9 1.2 2.2 1.9 3.8 1.9 2.1 0 3.6-1.4 3.6-3.6 0-1.1-.4-2-1.2-2.5-.5-.3-1-.5-2.8-1-2.1-.6-2.8-.9-3.5-1.6-.7-.7-1.1-1.7-1.1-2.9 0-2.9 2-5.1 4.6-5.1 1.1 0 2 .3 3.1 1l.9-1h.4v4.4zm14.7 7.6c0 2.8-2.3 5.1-5.1 5.1s-5-2.3-5-5.2c0-2.8 2.3-5.1 5-5.1 2.8 0 5.1 2.3 5.1 5.2zm-7.2-3.5c-.2.5-.2.9-.2 3.4 0 2.9 0 3.2.4 3.8.4.6 1 .8 2 .8s1.8-.4 2.1-1.1c.2-.5.2-.9.2-3.4 0-3 0-3.2-.4-3.8-.4-.6-1-.8-2-.8-1.1 0-1.8.4-2.1 1.1zm19.2 5.2c-.9 2.3-2.2 3.4-4.1 3.4-2.6 0-4.8-2.4-4.8-5.1 0-2.8 2.3-5.2 5-5.2 1.9 0 3.5 1.2 3.5 2.6 0 .8-.5 1.3-1.2 1.3-.6 0-1.1-.5-1.1-1.2 0-.4.2-.8.5-1.2.1-.1.1-.1.1-.2 0-.4-.9-.8-1.7-.8-.9 0-1.6.4-2 1.1-.3.6-.5 2.1-.5 4.2 0 1.9.1 2.6.5 3.1s1 .7 1.8.7c1.5 0 2.7-1 3.3-2.8l.7.1zm4.1-6.1h-1.7v-.5h3.9v9.3h1.6v.5h-5.6v-.5h1.7V69zm2.5-5.6c0 .8-.6 1.4-1.4 1.4s-1.4-.6-1.4-1.4.6-1.4 1.4-1.4 1.4.6 1.4 1.4zm13.9 14.4c-.6.6-1.1.8-1.7.8-1.2 0-1.9-.7-2.1-1.9-.7 1.2-1.9 1.9-3.2 1.9-1.6 0-2.6-.9-2.6-2.3 0-1.3.9-2.3 2.4-2.9.9-.3 1.9-.5 3.5-.5v-1.7c0-1.4 0-1.7-.4-2-.2-.3-.8-.5-1.3-.5-.9 0-1.9.6-1.9 1.1 0 .1 0 .1.1.3.3.3.4.5.4.8 0 .6-.4 1.1-1 1.1s-1.1-.4-1.1-1.1c0-1.3 1.9-2.5 3.9-2.5 1.2 0 2.4.4 2.9 1.1.5.6.6.7.6 2.9v2.7c0 2.4 0 2.4.1 2.6.1.2.2.3.4.3s.3 0 .8-.4l.2.2zm-3.8-4.5c-1.4.1-2 .2-2.6.6-.7.5-1 1.1-1 1.9 0 1.1.5 1.7 1.5 1.7.8 0 1.4-.4 1.8-1.2.2-.5.4-1.2.4-2.5l-.1-.5zm8.2-11.2h-1.7v-.5h3.9v16.2h1.6v.5h-5.6v-.5h1.7V62.1zm24 3.7h-.4c-.3-2.4-1.8-3.8-4-3.8-1.9 0-3.3 1.2-3.3 3 0 .9.4 1.6 1.1 2 .5.2 1.2.5 2.8.9 2 .6 2.6.8 3.2 1.4.9.9 1.4 2.1 1.4 3.6 0 3.3-2.1 5.7-5 5.7-1.4 0-2.5-.4-3.7-1.4l-.9 1.2h-.5v-5.1h.4c.2 1.4.5 2.1 1 2.9.9 1.2 2.2 1.9 3.8 1.9 2.1 0 3.6-1.4 3.6-3.6 0-1.1-.4-2-1.2-2.5-.5-.3-1-.5-2.8-1-2.1-.6-2.8-.9-3.5-1.6-.7-.7-1.1-1.7-1.1-2.9 0-2.9 2-5.1 4.6-5.1 1.1 0 2 .3 3.1 1l.9-1h.4l.1 4.4zm13.4 9.3c-.9 2.3-2.2 3.4-4.1 3.4-2.6 0-4.8-2.4-4.8-5.1 0-2.8 2.3-5.2 5-5.2 1.9 0 3.5 1.2 3.5 2.6 0 .8-.5 1.3-1.2 1.3-.6 0-1.1-.5-1.1-1.2 0-.4.2-.8.5-1.2.1-.1.1-.1.1-.2 0-.4-.9-.8-1.7-.8-.9 0-1.6.4-2 1.1-.3.6-.5 2.1-.5 4.2 0 1.9.1 2.6.5 3.1s1 .7 1.7.7c1.5 0 2.7-1 3.3-2.8l.8.1zm4.1-6.1h-1.7v-.5h3.9v9.3h1.6v.5h-5.6v-.5h1.7V69zm2.5-5.6c0 .8-.6 1.4-1.4 1.4s-1.4-.6-1.4-1.4.6-1.4 1.4-1.4 1.4.6 1.4 1.4zm6.4 9.2v.7c0 2.6 0 3.1.4 3.6.4.7 1.1 1.1 2 1.1 1.6 0 2.9-1.1 3.3-3h.6c-.4 2.1-2.1 3.5-4.1 3.5-2.5 0-4.8-2.4-4.8-5.2s2.2-5.1 4.7-5.1c1.6 0 3 .8 3.8 2.1.4.6.5 1.2.6 2.2l-6.5.1zm3.9-.5c0-1.6 0-1.9-.2-2.3-.2-.6-.8-1-1.6-1-.7 0-1.3.2-1.6.7-.4.4-.4.9-.4 2v.6h3.8zM379 69h-1.7v-.5h3.9v1.3c.8-1.1 1.8-1.6 3.1-1.6 1 0 2 .4 2.5 1 .6.6.7 1.2.7 3v5.5h1.6v.5h-5.4v-.5h1.5v-3.8c0-3.1-.1-3.9-.5-4.4-.3-.4-.7-.6-1.2-.6-.6 0-1.4.4-1.8 1-.5.7-.6 1.8-.6 4.8v3h1.5v.5h-5.4v-.5h1.7l.1-8.7zm21.6 6.1c-.9 2.3-2.2 3.4-4.1 3.4-2.6 0-4.8-2.4-4.8-5.1 0-2.8 2.3-5.2 5-5.2 1.9 0 3.5 1.2 3.5 2.6 0 .8-.5 1.3-1.2 1.3-.6 0-1.1-.5-1.1-1.2 0-.4.2-.8.5-1.2.1-.1.1-.1.1-.2 0-.4-.9-.8-1.7-.8-.9 0-1.6.4-2 1.1-.3.6-.5 2.1-.5 4.2 0 1.9.1 2.6.5 3.1s1 .7 1.7.7c1.5 0 2.7-1 3.3-2.8l.8.1zm5.4-2.5v.7c0 2.6 0 3.1.4 3.6.4.7 1.1 1.1 2 1.1 1.6 0 2.9-1.1 3.3-3h.6c-.4 2.1-2.1 3.5-4.1 3.5-2.5 0-4.8-2.4-4.8-5.2s2.2-5.1 4.7-5.1c1.6 0 3 .8 3.8 2.1.4.6.5 1.2.6 2.2l-6.5.1zm3.8-.5c0-1.6 0-1.9-.2-2.3-.2-.6-.8-1-1.6-1-.7 0-1.3.2-1.6.7-.4.4-.4.9-.4 2v.6h3.8zm12.3-.8h-.4c-.2-1.5-1.4-2.5-2.9-2.5-1.2 0-2.1.8-2.1 1.7 0 .8.5 1.1 2.4 1.4 1.6.3 2.2.6 2.8 1.2.4.5.6 1.2.6 2 0 1.9-1.4 3.4-3.2 3.4-1 0-1.6-.3-2.6-1.1l-.6.8h-.3l-.1-3.7h.4c.6 2.4 1.6 3.4 3.2 3.4 1.3 0 2.2-.8 2.2-1.9 0-.9-.6-1.4-2.4-1.6-1.6-.3-2.2-.5-2.7-1.1-.4-.5-.7-1.2-.7-2.1 0-1.7 1.3-3.1 2.9-3.1.9 0 1.6.3 2.4.9l.4-.8h.4l.3 3.1z"/><path class="st0" d="M151.5 103.3h-.4l-.9-1.2c-1.4 1-2.7 1.5-4.1 1.5-3.9 0-7.1-3.9-7.1-8.5 0-4.7 3.3-8.6 7.3-8.6 1.3 0 2.7.5 3.9 1.4l.9-1.2h.4V91h-.4c-.6-2.6-2.3-4.1-4.6-4.1-1.6 0-2.9.7-3.6 2-.5 1-.7 3.1-.7 6.7s.2 5 .9 5.8c.7.9 1.9 1.5 3.2 1.5 2.2 0 3.8-1.5 4.8-4.4h.4v4.8zm4.7-16.2h-1.7v-.5h3.9v8.6c.9-1.4 2-2 3.7-2 1.2 0 2.1.4 2.6 1 .4.5.5.9.5 2.6v5.9h1.7v.5h-5.4v-.5h1.5v-5.9c0-1.8 0-2-.3-2.4-.2-.3-.7-.5-1.3-.5-1.1 0-2.1.7-2.5 1.8-.3.8-.4 1.6-.4 3.4v3.6h1.5v.5h-5.4v-.5h1.7l-.1-15.6zm23.3 15.7c-.6.6-1.1.8-1.7.8-1.2 0-1.9-.7-2.1-1.9-.7 1.2-1.9 1.9-3.2 1.9-1.6 0-2.6-.9-2.6-2.3 0-1.3.9-2.3 2.4-2.9.9-.3 1.9-.5 3.5-.5v-1.7c0-1.4-.1-1.7-.4-2-.2-.3-.8-.5-1.3-.5-.9 0-1.9.6-1.9 1.1 0 .1 0 .1.1.3.3.3.4.5.4.8 0 .6-.4 1.1-1 1.1s-1.1-.4-1.1-1.1c0-1.3 1.9-2.5 3.9-2.5 1.2 0 2.3.4 2.9 1.1.6.6.6.7.6 2.9v2.7c0 2.4 0 2.4.1 2.6.1.2.2.3.4.3s.3 0 .8-.4l.2.2zm-3.8-4.5c-1.4.1-2 .2-2.6.6-.7.5-1 1.1-1 1.9 0 1.1.6 1.7 1.5 1.7.8 0 1.4-.4 1.8-1.2.2-.5.4-1.2.4-2.5l-.1-.5zM184 94h-1.7v-.5h3.9v2.4c.7-1.8 1.6-2.6 2.7-2.6.9 0 1.6.6 1.6 1.4 0 .7-.5 1.3-1.2 1.3-.4 0-.8-.2-1-.7-.1-.2-.1-.2-.1-.7 0-.2-.1-.4-.2-.4-.2 0-.4.2-.7.6-.8 1.3-1 2.7-1 5.6v2.3h1.6v.5h-5.6v-.5h1.7V94zm10-6.9h-1.7v-.5h3.9v16.2h1.6v.5h-5.6v-.5h1.7l.1-15.7zm8.9 10.5v.7c0 2.6 0 3.1.4 3.6.4.7 1.1 1.1 2 1.1 1.6 0 2.8-1.1 3.3-3h.6c-.4 2.1-2.1 3.5-4.1 3.5-2.5 0-4.8-2.4-4.8-5.2s2.2-5.1 4.7-5.1c1.6 0 3 .8 3.8 2.1.4.6.5 1.2.6 2.2l-6.5.1zm3.9-.5c0-1.6 0-1.9-.2-2.3-.2-.6-.8-1-1.6-1-.7 0-1.3.2-1.6.7-.4.4-.4.9-.4 2v.6h3.8zm12.2-.8h-.4c-.2-1.5-1.4-2.5-2.8-2.5-1.2 0-2.1.8-2.1 1.7 0 .8.5 1.1 2.4 1.4 1.6.3 2.2.6 2.8 1.2.4.5.6 1.2.6 2 0 1.9-1.4 3.4-3.2 3.4-1 0-1.6-.3-2.6-1.1l-.6.8h-.3l-.1-3.7h.4c.6 2.4 1.6 3.4 3.2 3.4 1.3 0 2.2-.8 2.2-1.9 0-.9-.6-1.4-2.4-1.6-1.6-.3-2.2-.5-2.7-1.1-.5-.5-.7-1.2-.7-2.1 0-1.7 1.3-3.1 3-3.1.9 0 1.6.3 2.4.9l.4-.8h.4l.1 3.1zm21.3-9.2v-.5h4.7v.5h-2v9.5c0 3.2-.1 4-.9 5.1-.8 1.1-2.2 1.8-4.1 1.8-1.9 0-3.7-.6-4.7-1.6s-1.3-2-1.3-5.3v-9.5h-2.1v-.5h6.8v.5h-2.1v9.5c0 3.5 0 3.9.7 4.9.6.9 1.8 1.4 3.1 1.4 1.7 0 2.8-.7 3.4-2.1.4-.9.5-1.5.5-4.2v-9.5h-2zm8.3 6.9H247v-.5h3.9v1.3c.8-1.1 1.8-1.6 3.1-1.6 1 0 2 .4 2.5 1 .6.6.7 1.2.7 3v5.5h1.6v.5h-5.4v-.5h1.5v-3.8c0-3.1-.1-3.9-.5-4.4-.3-.4-.7-.6-1.2-.6-.6 0-1.4.4-1.8 1-.5.7-.6 1.8-.6 4.8v3h1.5v.5H247v-.5h1.7l-.1-8.7zm14.9 0h-1.7v-.5h3.9v9.3h1.6v.5h-5.6v-.5h1.7V94zm2.5-5.6c0 .8-.6 1.4-1.4 1.4s-1.4-.6-1.4-1.4.6-1.4 1.4-1.4 1.4.6 1.4 1.4zm8.8 15.1h-.9l-3.8-9.6h-1v-.5h5.3v.6h-1.8l2.6 6.7 2.6-6.7h-1.9v-.5h3.5v.5h-1l-3.6 9.5zm9-5.9v.7c0 2.6 0 3.1.4 3.6.4.7 1.1 1.1 2 1.1 1.6 0 2.9-1.1 3.3-3h.6c-.4 2.1-2.1 3.5-4.1 3.5-2.5 0-4.8-2.4-4.8-5.2s2.2-5.1 4.7-5.1c1.6 0 3 .8 3.8 2.1.4.6.5 1.2.6 2.2l-6.5.1zm3.8-.5c0-1.6 0-1.9-.2-2.3-.2-.6-.8-1-1.6-1-.7 0-1.3.2-1.6.7-.4.4-.4.9-.4 2v.6h3.8zm6.8-3.1h-1.7v-.5h3.9v2.4c.7-1.8 1.5-2.6 2.7-2.6.9 0 1.6.6 1.6 1.4 0 .7-.5 1.3-1.2 1.3-.4 0-.8-.2-1-.7-.1-.2-.1-.2-.1-.7 0-.2-.1-.4-.2-.4-.2 0-.5.2-.7.6-.8 1.3-1 2.7-1 5.6v2.3h1.6v.5h-5.6v-.5h1.7V94zm15.7 2.3h-.4c-.2-1.5-1.4-2.5-2.9-2.5-1.2 0-2.1.8-2.1 1.7 0 .8.5 1.1 2.4 1.4 1.6.3 2.2.6 2.8 1.2.4.5.6 1.2.6 2 0 1.9-1.4 3.4-3.2 3.4-1 0-1.6-.3-2.6-1.1l-.6.8h-.3l-.1-3.7h.4c.6 2.4 1.6 3.4 3.2 3.4 1.3 0 2.2-.8 2.2-1.9 0-.9-.6-1.4-2.4-1.6-1.6-.3-2.2-.5-2.7-1.1-.4-.5-.7-1.2-.7-2.1 0-1.7 1.3-3.1 2.9-3.1.9 0 1.6.3 2.4.9l.4-.8h.4l.3 3.1zM315 94h-1.7v-.5h3.9v9.3h1.6v.5h-5.6v-.5h1.7V94zm2.5-5.6c0 .8-.6 1.4-1.4 1.4s-1.4-.6-1.4-1.4.6-1.4 1.4-1.4 1.4.6 1.4 1.4zm7.1 5.1h2.5v.5h-2.5v7.1c0 .7 0 .9.2 1.2.2.3.5.5 1 .5.7 0 1.1-.4 1.4-1.4h.5c-.2 1.4-1.1 2.1-2.6 2.1-.9 0-1.6-.3-2.1-.9-.5-.5-.5-.8-.5-2.4V94H321v-.4c1.6-.9 2.8-2.2 3.4-4h.4l-.2 3.9zm9.4 13.8c-.7 1.9-1.4 2.6-2.5 2.6-.8 0-1.4-.5-1.4-1.2s.5-1.2 1.2-1.2c.5 0 .8.2 1 .5.1.2.2.3.4.3.3 0 .3-.1.8-1.3l1.4-3.7-4.2-9.3h-1.1v-.5h5.3v.5h-1.7l2.8 6.4 2.3-6.4h-1.9v-.5h3.6v.5h-1l-5 13.3z"/><circle class="st1" cx="56.7" cy="56.7" r="56.5"/><path class="st0" d="M56.9 112.6C26.1 112.6 1 87.7 1 56.9.9 26.1 25.8 1.1 56.6 1c30.8-.1 55.8 24.9 55.9 55.7.1 30.4-24.9 55.8-55.6 55.9M56.6 0C25.3.1-.1 25.5 0 56.8c.1 31.3 25.5 56.6 56.8 56.6 31.3-.1 56.6-25.5 56.6-56.8C113.3 25.3 87.9-.1 56.6 0"/><path class="st0" d="M55.1 6.3c.2.1.5.2.5.8 0 .8-.1 1.7-.3 2.3.8 0 1.2 0 1.9-.1-.3-.8-.4-1.8-.5-2.3-.1-.6.2-.8.5-.8.2 0 1.5 0 2 .4V4.8c-.7.3-1.3.5-2 .4-.3 0-.6-.1-.7-.5-.1-.8 0-1.9.2-2.5-.6 0-1-.1-1.7 0 .4.7.4 2 .4 2.4 0 .3-.3.7-.5.7-.7 0-1.4-.2-2-.4v1.7c.6-.2 1.6-.4 2.2-.3m29.6 26.8c-.5 0-.9.4-.9.9s.4.9.9.9.9-.4.9-.9-.4-.9-.9-.9zm0 1.4c-.3 0-.5-.2-.5-.5s.2-.5.5-.5.5.2.5.5c.1.2-.2.5-.5.5zm-36.5-26c.1-.3.2-.5.4-1 .5.3 1.9.8 1.3 1.9-.3.5-1.1.1-1.5 0-.3-.3-.3-.6-.2-.9m-.5-4.2c.3-.4 1.2-.3 1.7.2.2.2.1.4 0 .6l-.5.9c-1.4-.8-1.6-1.1-1.2-1.7m-6.4 1.3c.5-.1.8-.4.9.1.5 1.5.8 2.5 1.2 4.2.2.8-.4.7-.7.8-.4.2-.2.9.2.8 1.3-.4 2.3-.6 3.7-.9.4-.1.6-.3.8-.6.2-.2.5 0 .9.1.5.2 2.7.7 3.3-1 .4-1.1-.8-2.1-2-2.7.5-.9 1.4-2.5 1.9-3.1.2-.2-.3-.7-.6-.4-.1.1-.4.4-.5.6-.2.2-.4.4-.9.1-.9-.6-2.9-.5-3.4.9-.3.9.2 1.8 1.6 2.6.2.1.2.3.1.5-.4.9-.7 1.3-1.2 2.2-.1.2-1.4.7-1.7-.3-.5-1.6-.7-2.2-1.1-3.9-.2-.6.8-.6 1.2-.7.4-.1.3-.8-.1-.8-1.3.3-2.4.5-3.7 1-.5-.1-.3.6.1.5m25.1 3.2c.1-.1.3-.4.5-.5.3-.2.6-.5.8-.2.4.4 1.4 1.2.6 2-.6.5-1.3.1-1.7-.4-.4-.4-.5-.6-.2-.9m1.4-4c.4-.3.9-.2 1.2.1.2.2.1.1.3.2.3.2.3.6.2.8-.2.2-.3.3-.5.4-.2.1-.5.5-.8.2l-.4-.3c-.3-.4-.3-1.1 0-1.4m-3.1 5.6c.3-.2.6-.6 1.2 0 1.7 1.4 3.2.7 3.8-.1.5-.7.3-1.8-.9-3l2.9-2.4c.3-.2-.1-.7-.4-.5-.5.3-1 .4-1.3.2-3-2.6-5.2.4-3.4 2.7l-2.4 2.6c-.2.2.3.7.5.5m-28.2-3c.1-.7 2.4-.8 2.3 0 0 .4-.2.8-.2 1-.6-.1-2.2.1-2.1-1m3.4 3.7c-.1 1.1-1.7.7-1.9.7-.1 0-.2-.1-.2-.4 0-.3.2-1.4.2-1.4.9.1 2 .2 1.9 1.1M37 9.9c-.1 1.1-.5 2.5-.7 3.6-.1.5.6.5.7.2.1-.4.3-.7.4-1 1.6.4 3.7.2 4-1.9.2-1.8-1.4-2.1-2-2.3.1-1 .4-2.5.7-3.5.1-.3-.5-.5-.7-.1-.1.2-.2.5-.4.9-2.8-.3-4 .6-4.2 1.7 0 1.2.6 2 2.2 2.4m33.8 1c-.4 0-.5.5-.2.6 1.3.4 2.2.7 3.5 1.2.3.1.5-.5.2-.6-.4-.2-1-.6-.8-1.4.5-1.4.8-2.3 1.3-3.7.2-.5.7-.2 1.1-.2.3.1.5-.5.2-.6-.7-.3-2.7-.9-3.4-1.1-.3-.1-.6.4-.2.6.2.2 1 .2.8.9-.4 1.5-.7 2.6-1.3 4-.1.5-.8.3-1.2.3m6.2 3.4c.6.3 1.7.6 2.7.1.9-.4 2.1-2.5.7-3.2-.4-.2-1.2-.6-1.8-.8-.4-.2-.6.5-.3.6 2 .8.8 3-.8 2.4-.3-.1-.6-.4-.6-.9.2-.8 1-3.1 1.6-3.7 1.1-.9 2.4 0 2.6.8.1.4 0 .4-.3.7-.2.2 0 .7.3.5.9-.5 1.5-.8 2.4-1.2.2-.1 0-.7-.3-.6-.4.1-1.2.4-1.6-.3-.9-1.8-3.8-2.7-5.5.8-1.3 3.1.2 4.4.9 4.8m-54.3.9c1.3-1 1.9.1 2.1.3.2.3.3.4 0 .6-.3.3-.6.5-.9.8-.3.2-.6.5-.8.3-.3-.3-1.2-1.4-.4-2m3.1 1.6c.4.4.6.7.9 1.1.2.2.2.5.1.7-.1.2-.9 2-2.6-.1-.2-.2-.2-.4 0-.6l1-1c.3-.3.5-.3.6-.1m-2.4 3.3c.8.6 1.7 1 2.6.5.8-.4 1.6-1.4 1.9-2.1 0 0 .7-.1 1.2-.4.4-.2 2.6-1.7 4-2.5.3-.2 0-.7-.3-.6-.4.1-.8.4-1.1.1-.3-.3-1.6-2.5-2.4-4-.2-.3.3-.5.8-.8.4-.3 1.1-.4 1.4 0 1 2.1 2 4.2 2.5 4.4.5.2 1.3-.1 1.6-.7.3-.5-.2-.8-.5-.6s-.5.2-.8-.1c-.6-.9 0-2.3-.3-3.2-.2-.5-2.2-1.5-2.6-1.4-.6.1-2.7 1.3-4.7 2.8-.3.2 0 .7.3.6.3-.1.8-.5 1-.1l2.4 3.8c.2.5-.4.9-.9 1.2-1.2.8-1.9-.4-2.7-1.4-1.1-1.4-1.1-2.4-.9-2.8.2-.3 0-.6-.3-.5-.4.1-.8.6-.9 1.1-.1.3-.2.4-.6.4-1.3.4-2.7.8-2.8 2-.2 1.7.7 3.2 2.1 4.3m61-8.3c-.7 1.4-1.1 2.2-1.9 3.5-.4.5-.8.2-1.5-.1-.3-.1-.6.4-.3.6.6.4 2.1 1.4 3.2 2.1.3.2.6-.2.4-.6-.2-.2-.8-.4-.5-1.2.8-1.5 1.2-2.3 2-3.5.3-.5 1-.2 1.2-.1.4.1.6-.4.3-.6-1.1-.5-2.1-1.2-3.1-1.9-.4-.3-.8.2-.5.5.5.6.9.8.7 1.3m4 2.8c-1 1.5-1.4 2-2.6 3.6-.3.3-.6-.1-.8-.1-.3-.1-.6.4-.3.6.5.3 3 2.2 4.2 3.5.2.3.7 0 .5-.4-.2-.3-.6-.8 0-1.3 1.1-1.1 1.9-1.6 3.2-2.3.5-.3.7 0 1-.1.3 0 .3-.5.1-.6-1.5-1-4.1 1.2-5.7 2.1-.5.3-1.1-.2-.7-.6.9-1.2 1.5-2.1 2.5-3.3.4-.5.8-.1 1.1 0 .2.1.6-.3.4-.5-1-.8-1.5-1.2-2.5-2.1-.4-.3-.7.2-.5.5-.1.1.6.3.1 1M22 24.9c1-1 1.6-2.5.5-3.8-1.1-1.3-2.8-.4-3.3.6-.3.5 0 .9.3.7.7-.4 1.1-.6 1.7.2.6.8.8 1.2.3 1.7s-1.2.4-1.8.1c-.8-.4-1.9-1.2-2.6-2.4-.4-.6-.2-1.5.3-1.9 1.6-1.3 1.8.1 3.4-.1.4 0 .5-.5.3-.6-1.2-.7-1.5-1.2-1.7-2.2-.1-.5-.6-.2-.7.1-.1.4.1.8-.3 1.1-1.1.7-1.6.9-2.2 1.7-1 1.1-.5 2.9.9 4.4 1.4 1.5 3.2 2.1 4.9.4m72.2-5.3c-1 1.2-1.6 1.8-3 3-.3.2-.5.1-.6 0-.3-.2-.7.2-.4.5 1.2 1.4 2.7 3 3.7 4.2.2.3.7-.1.5-.4-.2-.6-.6-.7 0-1.3.8-.8 1.8-1.3 3.1-2.1.9-.4 1.3.8 1 1.5-1 1.9-1.7 2.9-2.6 4.8-.1.2.1.4.3.4 3 .2 5.5-.6 6.4-.1.4.4.9 0 .7-.3-.6-1.1-.8-1.3-1.5-2.5-.2-.4-.7-.1-.6.2 0 .4.2.5-.2.7-1.2.7-2.1.9-3.6 1.1-.3.1-.4 0-.2-.3.9-1.1 1.7-2.1 2.7-2.8.2-.2.4-.1.6.1.2.2.7-.2.5-.4-.8-1.2-1.2-1.8-2-2.9-.9-1.3-4 .6-5.6 1.2-.6.3-1.2-.2-.6-.8 1.1-1.1 1.5-1.6 2.7-2.7.5-.4.8.1 1 .2.4.3.8-.3.5-.5 0 0-1.8-1.7-2-2-.2-.3-.7 0-.6.4-.2.3.1.4-.2.8"/><path class="st0" d="M12.5 26.8c.2-.3.6-.7.8-.5.2.2 1.2.8 1.4 1 .3.2-.1.6-.3.8 0 0-.5.7-.6.9s-.3.3-.5.2c-.4-.4-.6-.6-.9-1.1-.2-.5-.2-.8.1-1.3m-2 3.1c.4-.7.5-1 .8-1.4.2-.3.3.1.3.1 0 .2 0 1.5.5 2 .7.7 2 .2 2.5.7.3.4.5.8.4 1.1-.3.9.9 1.3 1.2.3.3-1.3-.8-1.7-1.4-2.7-.2-.2-.1-.3.1-.6.1-.2.9-1.3 1.1-1.6.6.4.6.3 1 .7.5.6-.3 1.3-.4 1.8-.1.4.5.8.7.5.8-1.4 1.9-2.9 2.6-3.8.3-.4-.3-.8-.6-.5-.4.3-.8 1-1.4.7-1.3-.9-2.1-1.4-3.4-2.4-.4-.3.2-1 .5-1.6.1-.3-.4-.7-.6-.4-1.6 2.1-3.1 4.3-4.3 6.5-.6.6.1 1.1.4.6M8 34.6c.3-.5.6-1.3 1.3-1 1.1.5.3 2 .1 2.5 0 0-1.2-.4-1.4-.5-.3-.1-.1-.7 0-1m-1.6 2.9c.2-.3.3-.6.8-.5 1.7.5 4 1.5 4 1.5.7.3.6.5.3 1.6-.1.4.6.6.7.3.5-1.4 1.5-3.7 1.5-3.7.1-.3-.5-.6-.7-.3-.2.3-.4.9-.9.8l-1.9-.8c.8-2.4 2.4-.5 3.7-.9.7-.2 1.1-.9.9-1.8-.1-.5-.7-.4-.7-.1 0 .4-.3.5-.6.5-.4 0-.9-.6-1.4-.7-.4-.2-.9 0-1.1.3-.1.3-.4.2-.3 0 .1-.9-.2-1.6-.9-1.9-.5-.2-1.5-.1-2.1 1.1 0 0-1.3 2.8-2 4.3-.1.3.5.6.7.3m95-6.9c-1 .3-1.7 2.4-2.5 2.5-.6.1-.5-1.3-1.2-.8-.6.6.4 2.3 1.9 1.5 1.4-.7 1.9-.9 3.3-1.6.3-.1.8-.4 1 0 .2.5-.3.8-.7 1-.9.5-1.8.9-2.7 1.3-.3.1-.5.4-.8.1-.2-.1-.5.2-.4.3.2.4.4.8.5 1.1.1.2.5.1.5-.1s.1-.2.4-.3c1.4-.8 1.7-1 3.2-1.6.8-.3 1.6.3.6.8-1.5.7-2.1 1-3.7 1.7-1.1.5-.4 2.3.1 2.1.7-.2 0-1.2.6-1.5.4-.2 2.6 0 3.1-.1.6-.2 1.5-2.5 1.4-2.9-.1-.3-1.1-1-1.2-1.2-.1-.2 0-1.4-.2-1.6 0-.3-2.3-1-3.2-.7"/><path class="st0" d="M5.3 41.3c.3-1 .4-1.4 1.6-1.1 1.2.3 1 1.2.9 1.8-.1.3-.2.6-.4.5-.9-.2-1.2-.3-2-.6-.2 0-.2-.3-.1-.6m-.8 2.8c.1-.4.4-.8.7-.7 1.8.5 2.4.7 4.1 1.2.6.1.3 1 .2 1.6-.1.3.6.6.7.2.1-.5.8-3.3 1.3-4.4.2-.4-.5-.6-.7-.2-.3.6-.5 1.6-1.2 1.4-.4-.2-.5-.2-1.1-.4.2-1.3 1.2-3.6-1.1-4.1-1.1-.2-1.9 0-2.3.7-.7 1.5-1 3.3-1.3 4.6-.1.3.6.4.7.1m100.9-5.4c-.4.2-.6.7-.4 1.1.2.4.7.5 1 .4.3-.1.7-.5.5-1-.2-.4-.7-.6-1.1-.5m-2.8 1.2c-.4.2-.5.7-.3 1.2.3.5.8.4 1.1.3.3-.2.6-.6.3-1.1-.3-.6-.8-.5-1.1-.4m7.6 16c0 .4-.1 1.2-.7 1.2 0 0-3.3.1-4 .1-.4 0-.7-.3-.7-.7-.1-1.2.2-2 .8-2 1.3-.2 1.8.8 2.6.8.6 0 2.7-1.1 2.7-2.3-.2-2.4-.4-5-1-7.2-.1-.3-.2-.4-.6-.3-1.5.3-2.6.3-4.2.1-.6 0-.5-.2-.2-.4 1.3-.9 2.1-1.4 3.2-1.8 1.2-.4 1.2 0 1-.8-.3-1.1-.4-1.4-.6-2.1-.2-.4-.7-.2-.7.1.1 1.6-2.7 3.1-4.4 4.8-.3.3-.1.5.2.6 2.3.8 3.3.4 5.5 1.5.4.2.5.5.6 1.2 0 .4.3.7-.4.7-1.4.1-2.4.2-4.1.3-.6 0-.7-.8-.9-1.7-.1-.4-.7-.2-.7.1 0 .3.5 4.7.5 4.7 0 .4.6.3.7 0 .1-.5-.2-1.4.5-1.5 1.5-.2 2.4-.3 4-.3.7 0 .6.2.7.7v.5c0 .5-.3.9-.7.9-.5 0-3.4.2-3.4.2-2.8.3-1.3 2.7-1.9 7.1-.1.6.7.5.8 0 .1-.6.2-1.7.9-1.7.4-.1 3.4-.1 4-.1.5 0 .5.5.5.9v.9c-.1.3-.1.5-.4.7-1.9.6-5.7 1.6-5.8 2.2-.1.6 3.2 2.4 4.7 4 .4.4.4.9.5 1.2.1.3.6.4.7-.1.4-1.4.6-2.8.6-3.2 0-.4-.6-.4-.7-.1-.1.3 0 .6-.6.4-.8-.3-3.4-1.4-3.9-1.8-.3-.2-.3-.3.1-.4 1.7-.2 4.3-.3 4.9-.1.2.1.4.5.5-.5.4-2.6.4-6.2.4-6.7-.3-.6-1-.5-1-.1M4.8 46.5c-.2.4-.2.9.1 1.2.3.3 1 .2 1.3-.1.3-.3.2-1.1-.2-1.3-.6-.3-1.1-.1-1.2.2m-1.5 6.2c0-.4.1-1.2.2-1.5.5.3.6 1.3 1.5 1.4.7.1 1.7-.8 2.6-.8.9.1 1 .9 1.1 1.5 0 .3.5.2.6 0 .2-.6.3-1.7-.5-2.2-1-.6-1.8-.3-3.5-.4-1.2-.1-1.7-.9-1.7-1.9 0-.4-.6-.4-.7-.1-.1.3-.4 3.1-.4 4 .1.3.8.3.8 0M7.6 47c-.4.2-.6.6-.4 1 .2.4.6.6 1.2.4.4-.2.5-.7.3-1.1-.2-.3-.6-.5-1.1-.3M3.3 57.8c.1-.6 0-.9.5-1 1.6-.1 2.4-.1 4.1 0 .4 0 .3.7.5 1.2.1.3.7.4.7-.1 0-.8 0-2.8.1-3.5 0-.5-.7-.5-.8 0-.1.3.1.9-.6.9-1.2 0-2.9-.1-4-.2-.6 0-.3-.8-.5-1.2-.1-.4-.7-.4-.7.1 0 .7.1 2.6 0 3.7 0 .5.6.4.7.1m.4 4.8c-.1-.5-.1-.9-.1-1.3 0-.3.1-.7.5-.7 1.4-.2 2.3-.2 3.7-.2.4 0 .7.5.8.8 0 .3.1.6.1 1.1-1.7.1-3.4.3-5 .3m1.8 10.3c.4-1.9 3.2-2.9 5-4.7.1-.1.1-.4-.1-.5-2.3-.8-4.4-.9-5.5-1.4-.9-.4-.9-.9-.9-1.5 0-.2 0-.6.3-.7 1.4-.2 2.7-.2 4.1-.3.7 0 .6.3.8 1.2.1.4.7.3.7-.1-.3-2.7-.2-3.9-.8-5-.9-1.6-6-1.7-6.3.6-.2 1.3.3 4.5.9 7.9 0 .3.6.3.7-.1.1-.7.5-.6.6-.6.9 0 2.6 0 3.8.2.4 0 .5.1.1.3-1.4.8-2.2 1.4-3.7 1.8-.2.3-.3.3-.5 0-.2-.2-.7.1-.6.4.4 1.2.5 1.4.7 2.6.1.2.6.3.7-.1m4.2 5.2c-.5-.1-.6-.1-1.2-.2-.3 0-.5 0-.7-.5-.2-.5.2-.6.5-.8.7-.4 2.3-1 3.1-1.3.7-.3.8.4 1.5 1.3.2.3.9 0 .7-.4-.9-1.5-1.4-2.8-2.1-4.4-.2-.5-.8-.1-.7.3.3 1.3.7 1.7.1 1.9-1.3.4-2.8 1.2-3.2 1.4-.3.1-.7.3-.9-.1-.2-.5 0-.6.2-.8.3-.4.8-.8 1-1 .2-.2-.1-.6-.4-.5-.5.2-1.3.5-2.2 1 .7 2 1.5 3.5 2.3 5.5 1-.2 1.4-.3 2.3-.6.2-.2.2-.8-.3-.8m98-6.1c-.7.1-1.2-.2-1.8-.5.1-.5.4-1.7.6-2.3 1.3.5 2.3 1.5 1.2 2.8m-2.7-.7c-.7-.1-1.3-.3-2-.6-.4-2 1-2.1 2.5-1.7 0 .6-.3 1.8-.5 2.3m-1 5.2l1.9.7c-.7 3.1-3.4 1.9-1.9-.7m-4.1 6.1c-1 .6-1.8.9-2.1.1-.2-.4 0-1.1.8-1.4.3-.1.8-.1 1.3 1.3m2.6 1.3c.1.3-.3 1.1-1 1.3-.9.3-1.2-.3-1.5-1 .7-.3 2.2-1.4 2.5-.3m6.2-14.7c-1.3-1.9-3.9-2.8-5.5-1.7-1.5.8-.7 3.3-1.2 4-.6 1-1.2 2.5-1.8 4-.2.4.3.7.6.3.2-.3.4-.4.7-.3.5.2 1.1.4 1.7.7-.5 1.5-1.2 1.5-2.2 1.1-.8-.4-2.7.2-2.3 2.5.1.8-.3.8-.7 1-.4.2-2.5 1.1-1.3 3.2.6 1 1.5 1.1 2.7.6.3.8.7 1.3 1 2.2.1.3-.1.7-.4 1.1-.3.3-.9 1-1.3.8l-2.9-2.2c-.5-.4 0-.8.3-1.7.1-.4-.3-.7-.6-.4-1 1.4-1.6 2.1-2.7 3.4-.3.4.2.7.5.5.9-.6 1-1.2 1.7-.7l2.7 2c.5.4-.1 1.1-.3 1.6-.2.3.3.9.7.4 1.1-1.3 2.2-2.7 3.2-4 0-.3-.1-.5-.1-.8-.1-.6.5-.6 1.1-.9.7-.3 2.1-1.5 1.4-3.1-.5-1.2-2-1-3-.5-.5-.9-1.7-2.7-1-3.3.6-.5 1.7.7 2.5 0 .5-.4.6-.4.6.3s.4 1.3 1 1.5c.8.2 1.7-.1 2.4-1.4.5-1 .9-1.8 1.5-3.8.2-.5-.3-.7-.6-.2-.3.4-.8.6-1.2.4-1.5-.6-1.9-.7-3.4-1.4-.4-.2-.5-.6-.1-1.4.3-.7.9-1.2 3.2-.4 2.3.8 1.8.9 2.1 1.8.2.4.8.4.7-.1-.5-2.9 1.6-3.2.3-5.1m-94.8 13c-1 0-1.3 0-1.2-.6.1-.7.3-1.2.9-1.2.6 0 .9.5 1 1.1.2.8-.1.7-.7.7m-3.7.4c-.5 0-.6-.9-.5-1.5.1-.3.6-.5 1.7-.4-.1.8.1 2-1.2 1.9m6.3-.2c-2-.1-.2-3.1-2.7-3.6-1.1-.2-1.8.2-2.2.9-1.2.1-2.3-.1-3.5 0-.3 0-.4 0-.4.3s.1.5.4.5c1.7 0-.3 3 2.2 3.8 1.4.3 2.1-.6 2.4-1.2 1.5-.1 2.7.1 4 .1.4 0 .2-.8-.2-.8M14.7 86c.4-.1.6-.6.4-1-.2-.6-.7-.6-1.2-.4-.4.2-.5.7-.4 1.1.3.4.9.4 1.2.3m5.1 4.1c.2-1 1.2-.5 1.4-.4.2.1.8 0 .4-.8-.2-.4-.8-.5-1.4-.2-1.4.7-2.4 2.5-3.1 3-.5.4-.9 0-1-.1-.3-.3 0-.4.2-.5 1.1-1 1.9-1.9 3.1-2.8.1-.1.2-.2.3-.1.2.1.5-.2.3-.4-.1-.1-.3-.4-.5-.6-.3-.4-.6-.1-.5 0 .1.1 0 .3-.2.4-1 1-2 1.8-3.1 2.8-.3.2-.3.3-.5.1-.2-.3-.2-.6 0-.9 1.1-1.1 2.1-1.5 3.2-2.7.2-.2.5-.9-.1-1.5-.7-.7-1.2.4-.8.6.2.1.4.3.1.5-.9.7-2.1.3-2.6.6s-1 1.8-.8 2.9c.1.6.6 1.1 1 1.7.5.6.8 1.1 1.4 1.2.8.1 2.6-.1 2.9-.5.2-.4.1-1.1.3-2.3M30.9 103c-.1.2-.5.1-.7 0-.3-.2-1.6-.7-.9-1.6.6-.7 1.9 0 2.2.2-.3.7-.3.8-.6 1.4m1.4.5l1.6-3.3c.2-.3.5-.5 1-.4.3.1.5-.4.3-.5-.6-.5-1.6-1.1-2.2-1.4-.4-.3-.8.2-.5.5.2.2.4.5.2.9l-.8 1.6c-2.4-1.3-.1-2.6-.7-3.8-.4-.6-1-.5-2.3-1.6-1-.7-1.8-1.4-2.3-1.9-.3-.3-.7.3-.5.5.3.4 1 1 .6 1.7-.5.8-.9 1.4-1.3 2-.4.7-.9 1.3-1.7.5-.6-.5-.5-.6-.3-1.5.3-1.2.8-2.6 1.2-4.8 0-.2-.3-.4-.5-.4-1.9.7-3.5 1.2-4.2 1.5-.6.3-1.4.5-2 .2-.3-.1-.8.3-.5.6.7.8 1.3 1.3 1.8 1.8.2.2.6-.1.5-.3-.1-.3.1-.5.3-.6.9-.9 1.7-1.3 3.2-2.1.3-.1.4-.1.2.2-.5 1.6-1.2 3-2.5 4.2 1.5 1.5 4.3 3.6 4.9 4 .3.2.7-.3.5-.6-.3-.4-.7-.7-.4-1.2l1.7-2.7c.4-.5.9-.3 1.4.1 1.7 1.3-1.1 1.6.2 3.1.3.3.1.4-.2.2-.4-.2-1.1-.2-1.5.4-1.5 2 4 4.3 4.6 4.6.3.1.5-.5.3-.6-.1-.3-.3-.4-.1-.9M95 90.9c.1.4.2.5.5 1.3.2.5.3.6-.1 1s-.6.3-1.2-.2c-1-.9-1.3-1.2-2.2-2.2-.3-.3.3-.9.6-1.3.2-.3-.1-.8-.5-.5-1.1 1-1.9 1.7-3.1 2.6-.3.2 0 .7.4.5 1.1-.3 1.2-.7 1.5-.3l2.1 2.1c.5.5.7.7.4 1-.4.3-.6.1-1.1 0-.4-.1-.5-.1-1.3-.3-.2 0-.5.4-.2.6 1 .6 1.1.8 2.2 1.3 1.6-1.2 2.5-2.3 4-3.6-.6-.9-1.3-2-1.5-2.2-.3-.3-.6-.2-.5.2"/><path class="st0" d="M88.4 99.1c-.2.5-.8.9-1.1.4-.3-.4-.6-.9-1.1-1.7l1.8-1.7c.5.9 1 1.6.4 3m3.3-2.3c-.7.4-1.1.9-1.7 1.2-.1-.7.5-1.5.1-2-.3-.5-2.6-1-1.8-2.8.3-.5-.1-.9-.6-.4-1 .7-.4 1.6-.1 2.6-.4.4-1.1 1.2-1.7 1.8-.4-.7-.9-1.3-1.3-2-.5.3-1.8 1.2-2 1.4-.4.2-.1.7.3.5.5-.2.8-.5 1.1-.1 1 1.4 1.4 2.2 2.2 3.6.2.3.1.5-.2.8-.3.2.2.8.5.6.3-.2 5.8-4.5 5.8-4.5.2-.4-.3-.9-.6-.7m-55.8 8.7c-.7-.3-.4-.9.2-2 .1-.1.4-.2.7-.1l1.3.4c-.3.6-.9 2.3-2.2 1.7m11.1-2.1c-1.7-.4-2.7-.7-4.3-1.3-.4-.2-.7.4-.5.6.3.2.3.4.2.6-.6 1.4-.9 2-2.1 3.2-.5.6-1.5.1-2.2-.1-.2-.1-.2-.2 0-.3.4-.2.9-.1 1.4-.8.5-.7 0-2.1.6-2.7.4-.5 1.3.1 1.5-.5.1-.5-.4-.6-.6-.7-1.3-.4-1.9 1.2-2.3 1.8-.5-.2-1.3-.5-1.3-.5-.4-.1-.6-.2-.3-.7.3-.5.6-1.1.7-1.6-.7-.3-1-.5-1.6-.8-.4-.2-.6.2-.4.4.3.4.3.7.2 1.1-.5 1.2-1.4 2.9-1.7 3.4-.2.4-.3.3-.7.3-.3 0-.4.5-.2.6 2 1.1 5.1 2.1 6.1 2.4 1.4.4 3.3-1.8 4.5-3.8.2-.3.9-.1.8.2-.3 1.5-.4 2.1-.7 3.6-.1.6-.5.5-1.1.4-.3-.1-.5.6-.2.7 1.3.4 2.2.6 3.6.8.3 0 .5-.6.1-.7-.8-.3-1.1-.3-1-1 .1-.6.7-3.3.7-3.3.1-.6.5-.4.8-.4.2-.2.4-.7 0-.9m24.6.9c-.1.6-.3.9-.6.7-1-.5-1.5-.8-1.2-1.6.3-.7 2.1-.2 1.8.9m-.1 3.6c-.2.6-.7.5-1.2.4-.7-.1-.7-.2-.5-.9.3-.9.4-1.1.9-.9.6.4 1.1.7.8 1.4m7-2.4c-.9.2-1 .6-1.3-.1-.8-1.5-.7-1.3-1.3-2.9-.4-1.2.3-1.2.8-1.6.4-.2.1-1-.4-.7-.8.5-2.2.9-3.1 1.4-.5.2-.8.3-1 .8-.2.6-.5.5-1.5 0-.8-.4-2.3-.1-2.7 1-.4 1.1.2 1.9 1.5 2.6-.3 1.1-.9 2.6-1.2 3.7-.1.4.4.6.6.2.4-.9.5-.9 1.5-.7.9.2 2.3 0 2.8-1.3.3-1-.4-1.5-1.1-2.1.2-.9.6-1.8.9-2.7.2-.7 1.1-1.1 1.4-.4.6 1.3.8 1.9 1.3 3.1.4 1-.5 1-.8 1.3-.4.3-.1.9.4.7 1.4-.6 3.1-1.4 3.6-1.6.3-.1.1-.9-.4-.7m-27.6 3.8c-.1.5-.4.6-1.1.6-.5 0-.9-.1-.9-.7-.1-1.5-.1-2.4.2-3.7.1-.6.4-.7 1-.7.7.1.9.3 1 .8.1 1.5.1 2.2-.2 3.7m-.5-5.4c-2.4-.2-2.7 1.2-3 3-.2 1.3-.3 3.4 2.2 3.8 2.4.2 3-1.3 3-3.3.1-1.4.2-3.3-2.2-3.5m13 1.8c-.3.4-.5 1.1-1 .8-.5-.3-1.1-.7-.7-1.3.3-.7 1.1-.5 1.5-.3.3.2.5.3.2.8m-.4 3.6c-.2.7-1.2.6-1.8.3-.4-.3.2-1.5.4-1.8 1.2.5 1.6.8 1.4 1.5m1.6-5.6c-.6.6-.6.7-1.6.3-1.1-.5-2.3-.2-2.8.6-.6 1.1-.3 1.8.7 2.6 0 .7-1.4 2.9-1.6 3.4-.2.5.5.7.7.4.3-.5.7-1 1.3-.6 1.3.8 2.3.6 3.1-.4.7-1.1.1-2.3-.8-2.9.5-1.2.9-2.1 1.5-3 .4-.4-.2-.7-.5-.4m-8.9 6.3c-.4 0-.6 0-.6-.9v-2.8c0-.6.2-.8.7-.9 1-.2 1.5-.5 1.6 2.2.1 2.7-1 2.4-1.7 2.4m0-5.5c-.6.3-.9.5-2.1-.2-.3-.2-.7.4-.3.6.5.4.7.6.7 1.2 0 1 .1 1.7 0 2.7-.1.5-.3.9-1 1.2-.4.2-.2.7.3.6.9-.3 1.3-.2 1.9.1 2.8 1.1 3.9-.4 3.9-3.2-.1-3.3-1.9-3.6-3.4-3m10.4 2c-.4.2-.6.6-.4 1.1.2.3.5.4.9.3.3-.1.6-.5.5-1-.1-.3-.5-.5-1-.4"/><path class="st0" d="M85.1 101.5c-.5-.3-.7-.2-1-.1-.3.2-.6.3-.6 0-.3-1.9-1.2-4.4-4-3.1-2.7 1.3-2.1 4.9 0 4.5 1.2-.2.6-.7.1-1-.6-.4-.8-2.3.4-2.7 1.2-.3 1.7 1.8 1.9 2.7.2.9.2 1.4-.5 1.9-.6.4-.9.2-1.7.7-.6.3-.7.8-.1.8.5.1 2.2-.2 2.8-.5 1.1-.6 1.5-2.8 2.8-2.5.3.2.6-.3-.1-.7m13.5-43.4c.9-3.1 1.4-4.7 1.1-12.6-.9.1-4.4.1-5.7.2 0 0-2.4-1.8-2.6-1.9v-.2l6.7-4.9c2.4 5.6 3.7 11.7 3.7 18 0 1.6 0 2.5-.1 4l-3.1-2.6zm2.6 6.2l-3.5 2.4c-.2-.1-.3-.1-.5 0l-2.5-1.9c1.7-2.2 2.4-3.2 3.7-6.3l3.2 2.5c0 1.1-.2 2.5-.4 3.3m-1 4.5l-2.3-1.7V67l3.3-2.3c-.4 1.7-.6 2.6-1 4.1m-2.9 7.5l-6-4.6v-.1l6-4.2s.2.1.3 0l2.4 1.8c-.4 1.6-1.5 4.9-2.7 7.1m-4.4 7.3l-2.5-2 6.7-4.8c-1.4 2.7-2.5 4.6-4.2 6.8M90.1 87l-.2-5.4 2.8 2.3c-.9 1.1-1.7 2-2.6 3.1m-.3-8.8h-2.9l-2.2-1.7v-.2l6.2-4.3c.1.1.3 0 .3 0l5.8 4.4-7 5.1-.2-3.3zm-1.3 9.7s.1-.6-.1-1c.3-.2.5-.4.7-.7v1.1l-.6.6zm-1.1 1.5c-1 .4-1.4-.6-1.6-.9-.4.5-1.5.6-1.8-.5-.2-1.2.4-1.4.9-1.8-.1-.8-.2-1.9.6-2.5.9-.6 1.3.4 1.5.9.7-.8 1.9-.8 2 .1.1 1.2-.7 1.7-1.2 2.1.1.5.6 2.2-.4 2.6m-4.5 3.3h-1.1c.9-.5 1.1-1.3 1-2.1.6 0 1.4-.5 1.5-1.4.4.3 1.1.2 1.4 0 .2.3.4.5.7.7-.1 0-1.8 1.7-3.5 2.8m-6.3 4.7L72 93.8h10.5c-1.8 1.2-4.3 2.6-5.9 3.6m-8.9 3.3l-2.6-2.1v-.2l6.3-4.6 4.7 3.7c-3 1.5-5.2 2.4-8.4 3.2m-7.3 1.3l4.2-3.1c.1.1.2 0 .3 0l2.4 1.9c-1.8.5-4.7 1-6.9 1.2m-4.7.1l-4.3-3.5v-.1l6.7-4.8 6.2 4.8v.1l-4.6 3.4c-1.4.1-2.8.1-4 .1m-8.2-.9l3.2-2.3s.2.1.4 0l3.9 3.2c-2.2-.1-5.2-.5-7.5-.9m-9.3-3.1l6.5-4.4 5.9 4.8v.1l-3.5 2.5c-2.9-.6-5.8-1.6-8.9-3M31 94h12.6l-5.7 3.9c-2.4-1.1-4.7-2.3-6.9-3.9m-4.3-4c.6-.1.8-.3 1-.9.5.3.8.3 1.4.1 0 .9.3 2.3 1.9 2-.1 1.2.6 1.7 1 1.8h-1.5c-.9-.5-3.8-3-3.8-3m-1.3-3.1c-.5-.3-1.8-.8-1.6-1.9.5-1.5 1.7-.6 2.1-.4.4-1.3 1.2-1.2 1.7-.8 1 .7.7 1.8.6 2.3.5.3 1.7.8 1.2 2-.7 1.4-1.8.5-2 .4-.1.4-.3 1.5-1.8 1-.9-.6-.5-2.3-.2-2.6m-.8 1.4l-.6-.6v-1.1s.2.3.7.4c-.1.5-.1.9-.1 1.3m2.4-5.4c-.8 0-1.2.4-1.4.9-.6-.3-1.1-.4-1.5 0v-4l2.9 3.1zm-6.4 1.4l2.7-1.9.1 5.2c-1-1-2-2.2-2.8-3.3m-4.5-7l3.7-2.7h.4l5.4 3.8h-2.4V82l-2.9 2.1c-1.5-2.1-2.9-4.3-4.2-6.8m-3-7.6l6.4 4.5v.1L15.8 77c-.9-2-1.8-4.2-2.7-7.3m-1.7-8.6l3.3-2.2c1.4 2.7 3.1 4.5 4.8 6.2l-6.4 4.5c-.6-1.9-1.4-5.3-1.7-8.5m2.8-20.7l1.4 1.2v.2l-2 1.4c-.9 4.3-1.3 9.9.9 15.4l-3.2 2.1c-.4-5.7.2-13.7 2.9-20.3m3.2-6.6l4.4 3.5v.2l-5.5 3.9c-.1-.1-.3-.1-.4 0l-1.5-1.2c.8-2.3 1.8-4.4 3-6.4m4.3-6.1l6.4 5.1v.1L22.3 37s-.2-.1-.3 0l-4.4-3.5c1.2-2 2.6-4 4.1-5.8m2.7-3c8.5-8.6 19.8-13.3 32-13.3 1.6 0 4.6.2 4.6.2v.8c-10.6-.5-17.5.4-27.6 7l-11.5 8c.8-.9 1.6-1.8 2.5-2.7M62 3.3l-.4 6.9-.6-3.9 1-3zm15.7 13.3l-2 1.3c-1.7-3.1-5-4.2-7.1-4.1-3.4.1-6.6 2.5-6.7 6.7 0 2.8.9 5.1 3.4 6.6-.3 1-.6 1.7-1.1 2.2-1 1-2.4 1.7-3.4 2.2 0-.6 0-1 .2-1.3.9-.9 2.5-2.1 1.5-3.2.2-.4.3-.8-.1-1 .4-.8-.1-1.3-.2-1.4.3-1-.4-1.3-.8-1.2v-.8c.2 0 .5-.1.5-.5 0-.3-.2-.4-.4-.4l.2-3.9c.2 0 .5-.1.5-.4 0-.4-.2-.5-.4-.5l.2-3.4c.3 0 .5-.1.5-.5 0-.3-.1-.5-.5-.5 0-.2 0-.7.1-.7 5.5.6 10.8 2.3 15.6 4.8m6.8 4.4l-5 3.6h-.3l-2.7-2c.2-1.6.1-3-.5-4.4l2.1-1.5c2.2 1.4 4.4 2.7 6.4 4.3m4 3.6l1.2 1.2-4.4 3.2c-.1 0-.2-.1-.3 0l-5.3-3.9V25l5.1-3.7c1.3 1 2.5 2.1 3.7 3.3m5.7 6.9c-.4.3-2.7 2-2.7 2-.1-.1-.2 0-.3 0l-5.6-4.1v-.1l4.4-3.2c1.5 1.7 2.9 3.5 4.2 5.4m-3.5 11.8l-5.9-4.4v-.1l6.4-4.6c.1.1.2.1.3 0l6 4.4-6.3 4.6c-.1 0-.4 0-.5.1m-2.3 2.5l2.4-1.8c.1 0 .2.1.3 0l2.3 1.7-5 .1zM99.1 49c-.1-.6-.4-.9-.8-1.3-.8.6-1.3 1.8-.6 2.8-.1.8-.4 1.9-2.3 3.6-.3-.6-.6-2-.3-2.9 1.2-.6.7-2.1.1-2.6-.5.2-.9.7-1 1.4 0-1.1-.4-2.4-.8-3.6l5.7-.1c0 .4.1 2 0 2.7m-1.2.3c0-.5.2-.8.4-.8s.4.4.4.9-.3.8-.5.8-.4-.5-.3-.9m-5.7 17.2c-.5-.5 0-1.8.5-2.5-.6-.8-1-1.8-.7-3 .5.1.8.8 1.8.5.4-.2.8-.4 1.4-.4-.1-.3-.2-.5-.4-.8 2.8-1.7 1.5-4.5.8-5.6 1.2-1 2.3-2 2.7-4.1 0 0 .5 0 .7-1 .1 3.6 0 10.1-6.8 16.9m-7.4.1v-.2l2.3-1.6c.7.8 2.6 2.5 4.3 3.7 1.1-1 3.1-3.4 3.1-3.4L97 67v.2l-5.9 4.1c-.1-.1-.3-.1-.5 0 .1-.1-3.8-3.1-5.8-4.7m-.7 9.4s-3-2.4-3.2-2.6c.9.7 1.9 0 1.9-.7s-1-4.1-1-4.1l2.5-1.7c.1.1.2.1.4 0l6 4.7v.1L84.5 76c-.1-.1-.3-.1-.4 0m-2.2 2.3l2.2-1.6h.3l1.9 1.5-4.4.1zm-5.3 12.6c.6 0 1.1-.3 1.2-.7.2.4.7.7 1.5.7 0 1 .3 1.4 1 1.8h-4.5c.5-.2 1-.8.8-1.8m-2.9-.5c-1-.1-1.5-.2-1.5-1.3s.9-1.4 1.7-1.4c0-.7.1-1.6 1.1-1.6 1.1 0 1.1 1 1.1 1.7.7 0 1.6.2 1.6 1.2s-.5 1.2-1.5 1.3c0 .6.2 2-1 1.9-1.5 0-1.4-1.2-1.5-1.8m-3.9 2.4c.6-.4 1-.8.9-1.8.6 0 1-.2 1.3-.7.3.5.6.7 1.3.7 0 .7.2 1.3 1.1 1.8h-4.6zm1.1 1L65 98.2c-.1-.1-.3-.1-.4 0L59 93.9l11.9-.1zm-11.6-2.7c.6-.1.8-.2 1-.6.3.5.6.6 1.3.6 0 1 .4 1.6 1.2 1.8h-4.6c.8-.3 1.1-1.1 1.1-1.8m-3.1-.5c-.5 0-1.6.2-1.6-1.2-.1-1.4 1.3-1.4 1.7-1.5 0-.4-.1-1.8 1.2-1.7 1.2.1 1.1 1.3 1.1 1.9.6 0 1.4 0 1.5 1.1.1 1.3-.9 1.3-1.4 1.4 0 .4.3 1.9-1 2-1.5-.1-1.4-1.5-1.5-2m.9 3.3l-6 4.2c-.2-.1-.4 0-.4 0l-5.2-4.2h11.6zm-13.3-3.3c-.5 0-1.5-.1-1.5-1.4 0-1.3 1.3-1.3 1.6-1.4 0-.3-.3-1.6 1-1.7 1.4-.1 1.3 1.4 1.2 1.8.4 0 1.6-.1 1.7 1.2.1 1.3-1.3 1.3-1.7 1.3 0 .8.1 1.9-1.1 2-1.3.2-1.2-1.3-1.2-1.8m-3 .4c.5 0 .9-.1 1.2-.6.3.5.7.8 1.3.7 0 1.1.4 1.8 1.1 1.9h-4.7c.7-.3 1.1-1 1.1-2m-3.1-.4c-.6-.1-1.6-.1-1.6-1.3C36 88 37.5 88 37.9 88c0-.6-.1-1.8 1.2-1.8 1.3.1 1.1 1.4 1.1 1.8.5 0 1.5-.1 1.6 1.1.1 1.3-1 1.4-1.7 1.4 0 .6.2 1.9-1.1 2-1.3.3-1.3-1.2-1.3-1.9m-3.1.6c.6-.1.9-.3 1.2-.7.4.3.8.6 1.4.6 0 .7.1 1.7 1 2h-4.3c.3-.4.7-.7.7-1.9m-3.1-3.3c0-.7-.1-1.7 1.2-1.8 1.4-.1 1.2 1.3 1.3 1.8.4 0 1.5-.1 1.5 1.3.1 1.2-1 1.4-1.6 1.4 0 .5.2 2-1.2 2s-1.2-1.4-1.3-1.9c-.2 0-1.9.5-1.8-1.6.1-.9 1.1-1.3 1.9-1.2m-2.6-3.2l1.3 1.2h1.6c-.8.3-.9 1.1-.9 1.5-.2 0-.5.1-.7.2 0-1-.8-1.6-1.3-1.9.1-.3.1-.6 0-1m-.7-5.5c-1.5 1.6-.1 3.2 1.9 4.4 1.2.8.9 1.4 2 1.7h-1.7c-2.2-2-6.1-6.1-6.1-6.1h3.9zm-7.8-5.1l6.5-4.7s.2.1.4 0l2.9 2.3c-.6 2.1-1.3 4.3-1.4 6.6h-2.5l-5.8-4-.1-.2zm-.6-8.7c.5.5 1.3 1.1 1.8 1.4.6-.4.9-.7 1.1-.8l3.9 3.1v.2L20.2 74s-.3-.1-.4 0l-6-4.2 6-4.4zm-.2-6.5c0-.4 0-.6.1-1l-.5-.1.8-1.8c.7.8 1.1 2.2 1 3.3-.5 0-.8.1-.8.5s.5.4.8.4c.1 1.8-1.9 1.1-2.4.4-.3 1.1.9 1.5 1.6 1.4-.3.7-1 1.9-1 1.9-.5-.5-1.8-1.9-2.2-2.5-.4-3.3 2.1-3.5 2.6-2.5m-2-.6c-.6.4-1.1 1.2-1.4 1.9-.2-.3-.5-.8-.6-1.2.6-.4 1.4-.6 2-.7m-.2-.3c-.4.1-1.6.3-2.1.4-.2-.3-.3-.6-.4-1 .6 0 1.7.4 2.5.6m-3.3-13.5c5.3.7 11.1 1.3 16.4 1.7-.2 4.6-.7 8-2.2 11.2-.4.3-2.9.4-4.1.4l-.5-3.1c.3.3.7.5 1.1.6.4 2 2.4 1.8 2.8 1.6-.4-.8-.7-1.8-.7-2.6.4.4 1.3.5 1.8.4-.2-.6-.5-1.7-.5-2.6.3.3.9.4 1.3.3-.2-1.8.2-2.8.1-4.5 0-.5-.4-1.2-1.3-1.2-.8 0-1.5.5-1.5 1.1 0 .3 0 .8.2 1.1-1 .9-2.6 1.7-3.7 2-.1-.1-.2-.4-.2-.7h.8c-.1-.2-.3-.5-.4-.7 0-1.6.1-2.2-1.3-3-.2-.1-.4 0-.7.2-.5-.6-1.7-1.9-2.5-.5.3-.1.5-.1.7-.1.2 1.4 1.2 2.8 1.1 3.1-.1.3-.3.6-.7 1h.8c-.1.4-.1.4-.2.7-.8 0-3.4-.9-3.9-2.4.3-.4.5-.5.5-1.1 0-.6-.4-1.4-1.2-1.5-.8-.1-1.4.4-1.5 1.2-.1 1 .1 3.1-.3 4.2.6 0 1-.2 1.4-.5-.1 1.3-.2 2.6-.9 3.8.7 0 1.2 0 1.6-.1-.1.6-.4 1.4-.9 2 1 .4 2.3-.1 2.9-1.3.7-.1 1.2-.3 1.4-.7.1.5-.6 2.8-.9 3.3-1.3 0-2.7-.5-4-1-1.3-3.3-1.8-7-.8-12.3m4.9-.1s-3.6-.5-5.3-.7l2.2-1.6h.3l2.8 2.3zm9-2.1v.2L24.6 45c-1.7-.2-3.7-.4-4.9-.5l-3.2-2.6v-.1l5.5-3.9s.2.1.4 0l5.6 4.4zm.3-9.1s.1.1.3 0l2.7 2.1c-.6 1.1.6 2.3 1.7 1.8 0 0 .2.5-.2 1.8l-4.2 3c-.2-.1-.3 0-.3 0l-5.7-4.5v-.1l5.7-4.1zm3.2-7.7c-.6 2-1 3.3-1.5 5l.9-.8c.4-1.3.7-2.3 1.4-3.6l2.4 1.9v.1l-6 4.3c-.2-.1-.4 0-.4 0l-6.1-4.8 6.4-4.4 2.9 2.3zm.1-.3L28.9 23l5.1-3.6c-1 1.5-1.8 4.2-2.4 5.8m9.7-6.7c-2.9.7-5.6 2.4-8.7 6 1.3-3.8 2.2-7.7 8.7-6m4.5-2.1c-.1.2-2.8-.2-3.3-.2-.6 0-.8.3-.8.6s.4.6.8.5c.4-.1 3.1-.5 3.3-.4.1.1-1.7 1-2.1 1.5-1.8-.5-3.7-.9-5.4-1 1.8-1.1 3.7-1.8 5.4-2.4.3.4 2.2 1.2 2.1 1.4m.3 2.6c-.5-.1-1-.3-1.5-.5.6-.6 1.7-1.8 1.9-1.6.3.3-.9 1.6-.4 2.1m10.3 3.5l-1.7 1.2s-.1-.1-.3 0l-.9-.7c.2-.2.1-.4-.1-.4-1-.2-1.2-.1-2.2-.4 0 0-.4-.2-.3.4 0 1.8-.1 2.7-.8 4.2-.2.4-.4.4-.5-.1-.5-1.6-.7-3.1-.6-4.8 0 0 .1-.4-.3-.3-.4.2-.8.2-1.4.4.3.7.4 1.2.6 1.8-.3 1-.5 1.6-.9 2.4-.2.4-.4.4-.5 0-1.1-4.3-.6-4.9-.2-5.2.3-.2.2-.5-.1-.4-.5.1-2.2-.2-2.8-.4-.3-.1-.4.2-.2.3.5.4.6.6.8 1.2l-2.1 1.5c-.2-.1-.4 0-.4 0l-3.4-2.7c1.9-1.1 4-1.9 6.9-1 6.4 2 7.8 2.5 11.4 3m-.8-7.6l-.4.5h-3v.4h2.6l-.4.5h-2.2c-1.7-.5-3.2-2.2-3.2-2.2l-.3.5s.9 1.1 2.4 1.8c-1.1.1-3.2-.1-3.2-.1-1.4-.2-1.5-1.7-.8-2.4 1.8-.4 3.2-.6 3.7-.6.6 1.8 1.9 1.5 4.8 1.6m.7-.9l-.4.5c-2.4 0-4.1.2-4.4-1.2l1.3-.1c.2.7.7.8 3.5.8m-3.5 5.9h2.7l.4.6c-2.5 0-2.8-.2-3.2.4l-1.3-.4c.1-.4.6-.6 1.4-.6m-4.2-.6s1.4-1.4 3.4-1.6c.7.1 2.4.1 2.4.1l.3.6h-2.6v.5h2.8l.3.5c-2.8 0-4.2-.2-4.9.9-.8-.2-1.9-.6-3.3-1-.6-.9-.4-2.4.8-2.4 0 0 2.1.1 3.1.4-1.4.5-2.5 1.5-2.5 1.5l.2.5zm10.6-4.1c0 1.3.7 1.9 1.4 2.1-.8.2-1.5 1.3-1.5 2.2 0 1 .3 2 1.3 2.3-1.6.2-5.3-.2-6.9-.6.1-.3.4-.4 1.3-.3h1c.7.1 1.2.1 1.4-.3.3-.5-.2-1-.8-.8-.4-.4-.6-1-.8-1.2-.5-.8.2-1.1.6-1.1.8 0 1.6.3 2.4 1.3.3-.3.1-.5-.1-.9-.2-.7.3-.4-.2-1.2-.2-.3-.4-.4-.7-.5-.9-.1-.4.3-1.4.4-.7.1-1-.3-.6-.9.2-.2.6-.8 1-1.2.3.4 1 .2 1-.3 0-.6-.6-.7-1.3-.8h-1.5c-1.1 0-1.2-.2-1.2-.5 1.6-.1 4.9-.1 7.1.1-.7.2-1.6 1.1-1.5 2.2m1.6 1.7c-1.5-.3-1.4-3.2.2-3.3l-.2 3.3zm0 1l-.2 3.6c-1.2-.4-1.3-3.3.2-3.6m2.7 15.2l-2.7 1.7.1-2.4.9-.5c.4.8.9 1.2 1.7 1.2m1.4-.7c-.9.4-2 .5-2.6-.8.6-.3 1.4-.9 1.8-1.1.3.3.6 1.1.8 1.9m1.4-1.8c0 .7-.5 1.5-1 1.6-.1-.8-.3-1.4-.7-2.1l.4-.4c.5.5.9.7 1.3.9m.1-3.7c3 1.3 4.3-.7 4.6-1.7h.6c0 1.4.3 2.4.9 3.4-1.1 1.5-4.2 3-7.3.8.5-.6.8-1.5 1.2-2.5m2.8-3.9c-.1-.6-.1-1.1 1-1.1.7 0 1.1.1 1 .7-.2.8-.3 1.2-.6 1.5-.6.3-1.1-.1-1.4-1.1m-1.5 1.2h1.2c.2.3.3.2.3.5.1.3 0 .4-.3.5-.4.1-.9.1-1.2 0-.3-.1-.4-.2-.4-.4 0-.3.3-.3.4-.6m1.1-.4h-1.1c0-.4.1-.5.6-.4.3.1.6.1.5.4m-2.9-2.5c.4-.7 1.4-.5 1.5-.1 0 .5-1.1.6-1.5.1m4.8-.2c-.3.5-1.4.6-1.6.1 0-.4 1.1-.6 1.6-.1m-6.4-3c0-1.8 1.8-1.8 3.4-1.9-.1-.7.3-1 1-1 .9 0 .9.9.9 1.2 1 .2 2.5-.3 3.1.7.3.6 0 1.4.2 1.8.3.3.2.7-.2.7-.7 0-.4-.2-2.5-.2-1.6 0-2-.2-3.2-.2-.9 0-1.6.4-2.3.4h-.6v-.4c.3-.1.2-.7.2-1.1m.2 2c.3.1.7.1.9.1-.1.7-.5 1.6 0 2.6.2.4.3.3.5.2-.1-.2-.3-1.1.5-1.1 1.2 0 1.5-.1 1.5-.1 0 .1 0-.5-.1-.8-.2-.5-1.1-.6-1.9-.6 0-.6.6-.7 1.2-.8.6-.1 2.9 0 3 .6-1 .2-1.4.4-1.5 1.1 0 .7 0 1 .1 1.6h-1.1c-.2.4-.1 1.4-.9 1.3-.3 0-.3-.3-.6-.5-.4 0-.8.1-1.1.1-.4-.1-.6-.4-.3-.6.1-.1.2-.1.3-.3-.5-.7-.7-.6-.5-2.8m6.4.3c-.3-.2-.1-.4.2-.4.5 0 1.1-.1 2 0 .1.2.8 2.1-.2 2.4 0 0-.3.1-.5.2s-.5.2-.1.6c.2.1.5.4.7.6-.3.5-1.1.8-1.8.7.1-.7.2-1.9.5-2.1.7-.4-.5-1.8-.8-2m1.7 6c-.1-.5-.2-.7-.2-1.3.5-.3.9-.7 1.1-1.1.1-.3.1-.3-.3-.6-.5-.4 0-.5 0-.5.8-.6.9-.8.7-1.8-.1-.5-.2-.9-.3-1.3.4-.8-.3-.9-.2-1.4.1-1.3-.3-1.8-.6-2-.9-.6-1.7-.4-2.7-.5-.1-1.5-2.4-1.5-2.9-.1-.6.1-.9.1-2 .4-.5.2-1.1.6-1.2 1.4-.2 1.3-.3 1.2-.5 1.5-.2.5-.1 1 .4 1.1 0 1.7-.3 1.9.4 2.8-.4.5-.7.6.1 1.3.6.4 1.1.3 1.7.2.1.2.2.7.5 1 .5.6 1.9 1.3 3.6.2-1 1.8-3.6.9-4.3.3l-.2.5c-2.4-1.2-3.6-3.9-3.2-6.9.4-3 3.2-5.2 6.2-5.3 4.3-.1 7.1 3.5 7.1 6.6 0 3.9-2.1 5-3.2 5.5m6.3-1.3l-5.2 3.7c-.2-.2-.6-1-.8-1.6 1.7-.9 2.9-2 3.4-4.1l2.6 2zm1 7.8c-.1-1.6-.4-4.7-.4-4.7-1.3.5-2.9 1.5-3.9 2.3 0 0-.8-.4-1.6-1.5l5.1-3.7c.1 0 .3.1.4 0l5.3 3.9v.1c0 .1-4.9 3.6-4.9 3.6m4.3 5.5l-3.9-2.9-.3-2.2 5-3.6h.3l5.7 4.1v.1l-6.4 4.6c-.1-.1-.3-.1-.4-.1m-2.9 7.5l-.7-.4v-3.7l3.7-2.6h.3l6 4.4v.1l-2.8 2.1-6.5.1zm11.1 1.3l-.4-.7-.4.7-.7-.6v.7l-.4.4h-1.1c-.2 0-.4.1-.4.4v1c1 0 2.5-.1 2.3 1.2h-.2c-.4-1.5-2.5-.4-3.1-1v.4c.3.3.5.2.9.2.6 0 1.5-.2 1.7.4l-1-.1v.5s1.1.1 1.6.1c-.4.6-1.6.2-3.2.6l-.6-.4c-.2-.7-.9-1.5-.9-1.5.3-.4.3-.8-.4-1.4-.1.4-.1.5-.3.8-.4-.5-.9-.5-1.4-.3.2.4.2.6.4.8.2.2.9.3.7.6-.3-.2-.9-.1-1.2.4.5.1.5.4 1.2.3.1 1.1.8.8.9 1.9h-1c-.9-.7-1.3-.9-1.3-.9 0-.7-.4-1-1-1.1 0 0 .1.6.1.8-.2-.1-.5-.3-1 .1-.2-1.8-.1-5-.1-5l10.9-.2-.6.9zm.3 5.6l-.5-.6c-.9.4-1.3 1.1-1 3.6-.9 0-1.9-.5-2.7-1-.5.2-.8.4-1.5.7-.6-1.4 0-2.7.7-3.2 1.8-1.1 3.3 0 3.9-1.5 0 0 .1-.2.1-.5 0-1-.4-1.6-2.3-1.6v-.5h1.2l.5-.4h1.4l.5-.5c0-.1 1.7 3.8-.3 5.5m-1.8 12.8c.8.3-.5.9.5 1.5l-.3.3c-.5-.4-1.1-.8-1.5-1.1.4 0 1 .1 1.3-.7M86 62.4c.2-.1 1.1-.7 2.4.9.4-.5 1.1-1.1 1.5-1.4 1.6 2.1.7 2.8.7 2.8-.8-.5-1.3-.2-1.5.2.2.2.8.3.8.3-.3.2-.7.3-1 .3-.7-.5-2.1-2-2.9-3.1m-5.3.9v-4.7l1.8-1.2c1.1 2.7 2.1 4.6 4.4 7.1l-2.3 1.6c-.1 0-.2-.1-.3 0l-3.6-2.8zm7.2-7.6l.5-.3c.6.4 1.6.8 2.2.9 0 .6 0 1 .2 1.5l-.8.7c-.7-.9-1.5-1.9-2.1-2.8m.4 6.8c-.5-.4-1.1-1.1-2.2-.8.2-.3.6-.5 1-.6.4.2.7.5 1 .7.5-.3.6-.8.5-1.2-.2-.7-1.6-2.4.5-2.4.2.2.3.4.5.7-.9 1.6 1 1.8-1.3 3.6m-2.2-12.6c.4.6.7.9.9 1.6l.5.3c-.3.2-.7.6-.7.6-.3-1-1.4-1.3-.7-2.5m.2 4.4h-.6l-2-1.3-.2-.8c.7.2 1.7 1.1 1.7 1.1h1.2c-.2.3-.1 1-.1 1m-3.9-.7c.5-.1.8-.2 1.1-.2l2 1.5h.7c.1.6.3 1 .5 1.4.2-.1.7-.3.7-.3.4.6.8 1.2 1.2 1.6-.4.2-1 .4-1.2 1.1-.1 1 1.2 2.1.6 2.4-.3-.2-.4-.3-.7-.5 0 0 0-1-1-1.4-.1.5 0 .8 0 .9-.8-.2-1.1 0-1.4.2.4.5.7.6 1.2.8-.3.1-.4.3-.5.6-1.9-2.9-3.1-6-3.4-9.6.3.2.2.2.5.3.3.1.6-.1.6.1-.4.2-1 .4-.9 1.1m-.1 3.5l-1.6 1.1c-.1-4.3-.1-8.2-.1-12.3l.6.3c-.1 4.9 0 7.8 1.1 10.9m-1.6 6.7l3.3 2.6v.1l-2.4 1.7c-.4-1.2-1-3.1-.9-4.4m-.4-27.7l3.7 2.7v.1l-3.5 2.5c0-1.9 0-3.2-.2-5.3m-7.8 14.8c1.2-.2 1.9.3 2.4 1.7 2.3 6.1 5.8 15.2 6.9 19.4.4 1.1-.4 1.4-.9.4-1.7-3.7-5.6-13.6-8.4-21.5m7.4 22.2l4 3.2v.2l-2.6 1.9H80l-.1-5.3zm-5.3 6.7c-1-.6-1.5-1.3-1.1-2.9.9-3.4.9-4.2.8-5.7.1-.3.2-1.6.3-2.3.3-.8.5-.8.7-3.2l.7-.3-1.3 11.4c-.1 1.2.1 1.5 1 1.9l3.5 1.5c.9.4 1.4.6 1.7 1.5l.8 2.2s.4 1 .5 1.3c-.1 0-3.7-3-7.6-5.4m-44.7-.2c2.4.3 7-.2 8.4-.4 0 .6-.1 2.2-.5 3.2-2-.2-5.4-.5-5.4-.5.8.7 1.3 1.8 2 2.1.9.3.8 1.1.6 1.1-4.1-.1-2.9-1.2-4.9-2.3-2.2-1.2-2.3-3.4-.2-3.2m3.5-.6c-1.1.1-2.5.1-3.1 0-.1-.4.2-.6.8-.5.9.1 2 .5 2.3.5m0-.8c-.9 0-1.9-.7-2.7-.3.6-1.4 2.6-7.4 2.8-7.7-.2 4-.2 6.5-.1 8m.3-13.8s-.2 2.7-.3 3.7c-.9 2.5-2.1 6.2-3.4 9.5-.4 1-.7.9-.6-.2.4-2.4 2.6-9.4 4.3-13M27.5 69l4.9-3.6c-1.1 2.8-2.1 5.9-2.1 5.9l-2.8-2.2V69zm.3-8.6l5.1 4-.2.5-5.4 3.9s-.2-.1-.4 0l-3.9-3c1.7-1.6 3.2-3.2 4.8-5.4m-6 1.9c.3.5.9 1.5 1.7 1.9l-1.8 1.6c.1-1 .3-2.3.1-3.5m5.4-2.5s-.5.9-.8 1.2c-.2-.7-.8-1.5-1.2-2.2.5.1 1.5.5 2 1m.3-.6c-.7-.3-1.6-.6-2.3-.9.6-.1 2.1-.2 2.7-.1 0 .3-.2.6-.4 1m6-3.4l-5.4 3.7c.9-1.7 1.8-3.7 2.4-6l3 2.3zm-1.4-10.2c4-4.1.6-3.8 1.6-7.1l.5-.1c-.1.3-.1.8-.1.8.2-.3.4-.4.7-.8l.7-.1c-.5.7-.7 1.3-.8 2.3l.3-.1c.4-1.5 1.1-2.1 2.3-2.5.7-.2.8 0 .4.5-.6.8-.8 1.8-.8 2.5 0 .9.3 1.5.1 1.8-.4.5-1.2.4-2 1-.8.5-.5 1.5-.3 3.4 0 0 1.8.7 2.2 3.6.4 2.8-2.3 4.5-4.1 1.3-1-1.5-.2-4.6 1-5v-2c-2 2.5-2.6 4.8-2 6.6.5 1.7.9 1.5 2 3.9l-3.1-2.4c.4-2 .7-5.1.7-7.6-1.9-.1-4.3-.3-6.2-.5l3.1-2.2c.1.1.4 0 .4 0l3.4 2.7zm1.3-3.2c0 .6-.6 1.8-1.8 2.2-.8-.6-1.6-1.3-2.8-2.2v-.1l4-2.9c-.1 1.3.6 2.4.6 3m-.8-7.5c-.1-.3-.4-1.1-.1-1.6.4-.1.9.3 1.2.9.7-.6 1.3-.6 1.6 0 .4.7-.1 1.3-1 1.2.7 1.3 3.2 1 3.3-.6-1.1.4-1.4-.1-1.4-.6s.6-1 1.4-.8c0-.5.1-1.1.5-1.4.3.2.7.8.7 1.4.7-.2 1.3.1 1.4.6.1.6-.4 1.4-1.5.8.1 1.2.8 1.5 1.6 1.6 1.1 0 1.5-.4 1.7-.6-.6.3-1.4-.2-1.2-1 .3-.9 1.2-.7 1.7-.2.2-.3.7-.8 1.4-.7.1.6-.1 1.1-.3 1.4.9.3.8 1.1.6 1.4-.6.5-1.2.2-1.4-.3-.4.6-.6.9-.8 1.6-2.5-.4-5.5-.1-8 .2 0-.8 0-1.2-.3-2-.1.4-.9.8-1.5.2-.7-.8 0-1.3.4-1.5m2.7-6.4l5.9 4.7-.5.3c-.2-.4-.6-.8-1.3-.8-.1-.9-.8-1.4-1.4-1.7-.3.2-1 .8-1.1 1.7-.7.1-1 .4-1.3.9-.6-.5-1.2-.5-1.7-.3-.6-.6-1.3-.7-1.9-.7-.4.6-.4 1.3-.2 2.1l-.3.3-2.6-2.1v-.2l6-4.2s.2.1.4 0m-.1-.7s-.2-.1-.3 0l-2.4-1.9c1-1.8 4.3-4.7 5.3-5.2l3.5 2.8v.1l-6.1 4.2zm13.1.4c-.1-.1-.3-.1-.4 0l-1-.8 1.1-2.1c.1-.3.3-.2.4 0l.8 2.2-.9.7zm9.8-1.6L55 24.1V24l2-1.4c1.1.1 2 .2 3.5 0l-.1 1c-1 .9-1.7 1.9-2.3 3m2 4.3c-.1 2.2-.6 8.6-.6 8.5-.2 1.6-3.3 1.9-2.7-5 .2-1.9.6-4 1.3-5.8.4.8.9 1.1 1.7 1.5.4.2.3.4.3.8m4.7 4c-1.1.7-1.6 1.2-2.7 1.9l-.1-2 2.9-1.9c.1.7 0 1.5-.1 2M66 36c0 .6-.6 2-1.4 1.9.2-.6.5-1.6.6-2.3.3.2.5.3.8.4m1.7-2.7c-1.2-.3-1.2-1.9-.7-2.6.9.4 1.6.3 2.8.2.3 1.4-.3 2.9-2.1 2.4m3.2 2.2c-.6.4-2.5.7-2.5-1.4 1.9 0 2-1.9 2-1.9.9.2 2.2 2 .5 3.3m1.3-3.3c-1.3.3-1.6-.9-1.8-1.5 1-.3 1.9-.8 2.5-1.6.8.9.5 2.8-.7 3.1m-1 15.2c2-.2 2.1.4 2.9 2.4l-1.8.6-1.1-3zm-.3 7.1l-.2-3.3 1.2-.2 1.3 3.6-2.3-.1zm1.8 4.5l-.4-3.8h1.1l1.4 3.6c-.1.1-.9 0-2.1.2m-9.5-5.5l-.4 3.8-1.6-1s.1-2.1.3-3.9c.5.4 1.3.9 1.7 1.1m-1-5.2l.9.8-.5 3.3c-.4-.2-.5-.4-.9-.7.1-1.4.5-3.4.5-3.4m4.3 6.5c.8.2 1.4.2 2.3.2v4.1c-1.7 0-2.5-.4-2.5-.4l.2-3.9zm-1.2-.9l.4-3.1s1 .4 1.9.5l-.2 3.1c-.5-.1-1.4-.3-2.1-.5M63 52.8l.5-3.2s1 .9 1.7 1.1c0 .1-.4 3.1-.4 3.1-.9-.4-1.3-.7-1.8-1m.8 1c.6.3 1.4.7 2.2.9l-.3 3.9c-1.2-.4-2.2-1.1-2.2-1.1l.3-3.7zm7.9 1.4L72 59c-1.3.2-2.6.2-2.6.2v-4.1c.8 0 1.6 0 2.3.1m-3.6-.8l.1-3.1s1.1.1 2 0l.1 3.3c-.7-.1-1.7-.1-2.2-.2m2.8-6.2c.2.3.6 1.7.9 2.4-3.4.7-6.9.4-9.6-3.5l.4-2.2c1.9 2.9 5.1 4.2 8.3 3.3m-6.3-4.6c.3.5.5.6.9 1-.2 1.5-1.2 1.5-1.9 1-.6-.5-.7-1.1-.6-1.9.3.1 1.2.2 1.6-.1m2 3.9c-1.4-.4-.9-1.9-.8-2.6.7.5 1.5.8 2.4.9.1 1 .1 2.1-1.6 1.7m-2.1-5c.6 0 .9-.2 1.2-.4.1.4.6 1.7 1.8 1.9 1.1.2 1.6-.1 2.1-.5l.4 1.6s-.3.2-.9.2c-1.1.1-3.1-.5-4.3-2.2-.4.2-1.3.3-1.6.1l.3-1.2c.1.2.5.5 1 .5m-2.3-2.9l-.1-2.2 2.6-1.8c-.4 1.9-1 3.4-2.5 4m3.5 1.4c0 .8-1.1 1.5-2.1.5l.6-2.1c0 .9.7 1.5 1.5 1.6m2.4-2.1c0 .8-.6 1.9-2.1 1.6-1.5-.3-1.6-1.4-1.6-2.1.6 0 1.2-.4 1.7-1.1.1.9.9 1.7 2 1.6m0-.5c-1.8-.1-1.6-1.9-1.6-2.4.8-.1 1.2-.4 1.6-.9.2.7.9 1.1 1.6 1.1-.1.7.2 2.2-1.6 2.2m-.2 5.1c-1.3-.2-1.8-1.3-1.6-2.4.6.1 1.5.1 1.9-.7.1.7.7.9 1.2 1 0 .5.2 2.3-1.5 2.1m3.3-4c.1.6-.2 1.2-.9 1.4-1.2.3-1.6-.2-1.7-.7-.1-.6.1-1.3.9-1.5.7-.2 1.5 0 1.7.8m.1-1c-.3 0-1.3-.2-1.1-2.3.4.1 1.1-.2 1.4-.6-.2.8-.4 1.8-.3 2.9m.3 7.2c.4-.1.8-.2 1.1-.5.1.4.2.8.3 1.1-1.3.3-2.5.8-3.9 1.5-.2-.4-.3-1.1-.4-1.6.7-.1 1.4 0 2.1-.3-.4-1.5-.9-2.8-1.1-4.4 1-.1 1.8.6 2.2 1.8.6 1.6-.5 1.6-.3 2.4m-6.4 16.1c-1.4-.3-3.2-.3-4.2-.4 0 0 0-2.4.1-4.2 1.2.7 4 2.3 6.6 2.7 2.2.4 5.2-.6 7.3-.3l1 2.6c-3.8-.8-6.7.6-10.8-.4m2.6 2.9c-1.8 0-2.6-2-6.8.2v-2.8c3.7-.5 5 .8 8.1.7 2.1-.1 4.4-.8 7.1.1l-.2 1.6c-5.9-1.1-6.1.3-8.2.2m6 3.9H73c.2-1.3.3-2.7.1-3.9.5.2.9.3 1.4.6-.1.9.1 2.2-.7 3.3m-2.5-3.9c.3 0 .8 0 1.1.1.2.8.1 3.2.1 3.9-.5.1-1 .1-1 .1-.1-1.1-.3-3-.2-4.1m-.3 5.4h-.9v-1.2c1 .7 2.6.1 3.9.4l-.1 1.5c-1.1.3-1.6-.7-2.9-.7m0-1.4c-.4-.1-.7-.3-1-.5-.2-.9-.4-2.1-.2-3.1.4-.2.5-.3 1-.4-.1 1.2-.2 2.9.2 4m-4 12.5c.6-1.5.3-2-.1-10.7 0-.4 0-1 .1-1.7.4-1 .6-2.1.6-2.8l1.4-.5c-.2 1.9.4 3.6.5 5.1-.2.8-.4 1.6-.4 2.2 0 2 1.5 2.9.9 7.2-.3 2.7 2.2 1.5 3 2.8.2.2.6.5.8.6-4.6.2-4.4-1.6-6.8-2.2m-.2 1.3c-.1-.5.1-.8.6-.5.6.3 1.3.9 1.3.9-.3.5-.6.7-1.2 1-.1-.2-.6-1-.7-1.4m-1.3-.7c.3-1-.4-1.4.1-3.5.2-.9.5-1.9 1-2.7.2 6-.3 4.7-.5 6.1-.1.9.5 1.5.9 2.3-1.3-.1-2.4-.6-3.3-.9.7-.6 1.6-.5 1.8-1.3m-6.7 1.4c1.5-.8 1.4-1.2 2.2-1.9.7-.6 1.7-1 1.9-1.8.4-1.6-.5-5-.5-7.3 0-2.1.9-2.1 2.6-1.5 1.9.7 1.7 2.8.7 4.9-.5 1-.8 2.6-.8 3.7 0 .9.8 2.3-.7 2.8-2.6.7-1.8 2.2-5 2.3-1.3 0-1.8-.7-.4-1.2M63 67.9c-.3-.3-.7-.5-1-.8-.1-.4-.2-1.5-.2-1.9.5-.4.8-.5 1.4-.7-.4 1.4-.4 1.9-.2 3.4m2.2-3.4c.5.1 1.2.6 1.6 1.1.1.8 0 1.6-.3 2.6l-1.3.2c.4-1.2.3-2.5 0-3.9m-1.4.1l.9-.2c.3 1.4.4 2.8.1 4-.4 0-.9-.2-1.2-.4-.2-.9-.1-2.1.2-3.4m2.5 4.5v.8c-1.5.2-2.6 0-3.9-.3l-.2-1.4c1.1.8 2.6 1.1 4.1.9m-5.7 9.1c.3-.7.5-1.8.6-2.8 0-2.3-.3-9.7-.3-9.7l.4.3.5 4.5c-.2 3.3.1 4.4.4 6.6.1 1.4.3 2.3-.6 2.9-2.8 1.9-1.5 1.9-3.7 3l2.7-4.8zm-.5-.6c.1.6-2.4 4.5-3.1 6-.4-.2-.9-.8-1.3-1.7-.2-.3-.4-.5-.8-.4-.5.1-1 0-1.2-.1 2-1.2 4-2.1 6.4-3.8m-2.3-3.4l-.2 4.1H52l5.8-4.1zm-10.9-8.1l4.5 3.3v.1l-3.8 2.6c-.1-1.7-.4-4-.7-6m.1 7.3l.2 1.8c-4.6-.1-8.2 1.7-12.9.6v-3.3c7.4 3.3 8.2.6 12.7.9m-14-9.5L28 60l5.8-4.1c1.1 3.1 0 5.9-.8 8m3.4-8.1c.2 2.2-1.2 2-1.2 2-.1-.9-.6-2.6-.9-3.4.5.3 1.7 1.1 2.1 1.4m2.7-.5l-.4 1-3.2-2c.8-.1 1.2-.4 1.5-.8l2.1 1.8zm1.2-3.8l-.4 1.2-2.3-1.7c-.1-.8-.4-1.8-.9-2.7l3.6 3.2zm-2.2-6.7c.9.4 1.7.6 2.4.5.1 2.3 1.3 3.3 2.4 4.4-.7.6-2 .8-2.8.5-1.6-.5-3.2-2.6-4.9-3.6-.3-1.2-.7-2.5 1.5-3.1.2.4.6.9 1.4 1.3m1.7-4.3c-.1 1.1-1.4 3-1.4 3 .4.1 1.4-.8 1.7-1.1h.9c.1.1.3.6-.5.6 1.3 1.5-.5 1.8-2.2 1-.3-.2-.6-.3-.7-.8-.2-.6-.4-1.6-.2-2 .6-1 1.7.1 2.4-.7m-.1-.4c-.3.3-1 .5-1.7 0 .3-.5 1.6-.8 1.7 0m1.7-1c-.2.1-.2.4-.2.7 0 .6.1 1.4.1 1.9l-1.2-.1c-.2-.2.2-.2.3-.9v-1c0-.3 0-.5-.6-.8-.5-.2-1.3-.2-1.8-.1.1-.5.4-.7.9-.9.6-.1 1.6-.1 2 .1.5.2.6.2.6.5.1.4 0 .5-.1.6m.6 4.7l4.5 3.5v.2l-2.7 1.9c-1.2-1-2.5-2.4-2.5-4.2.3-.1 1-.3.7-1.4m5.3-5.4h.3l4.4 3.5v1.8l-4.9 3.5c-.2-.1-.4-.1-.4 0l-4.9-3.8v-.9l5.5-4.1zM44.7 36l2.4 1.9v.1l-5.2 3.8c-.2-2 .3-3.5.9-4.7.8.7 2.2.2 1.9-1.1m7.5 33.5l6-4.2-.5 8.4-5.5-4.2zm-.3-8.2s.2.1.4 0l2.3 1.7c-.1 1.4 1 2.3 2.4 1.8l.6.5-5.7 4s-.2-.1-.3 0L47 65.7l-.1-.9 5-3.5zm-5.2 1.8l-.4-.2-.2-2.3 2.8-1.9 2.8 2.1v.1l-4.8 3.4-.2-1.2zm-.1 6.9l.3 2.8s-1.4-.1-2.4.1l-.3-3.2c.7 0 1.5.1 2.4.3m-4.2-.9l-.2-2.6h2.1l.2 2.5c-.7.1-1.3.1-2.1.1m1.1.6l.3 3.3s-1.4.4-2.5.4l-.3-3.6c.7 0 1.9-.1 2.5-.1m-4.1-.4l-.2-2.8c.8.1 2.3.1 2.3.1l.1 2.6c-.8 0-1.4.1-2.2.1m1 .6l.2 3.6c-1.1 0-2.3-.3-2.3-.3l-.2-3.3h2.3m-3.7-.7v-3.4c.8.3 2.1.6 2.1.6l.1 2.9c-.8 0-1.4 0-2.2-.1m-.9.5c.6.1 1.3.2 1.9.2l.1 3.3s-1.2-.3-2-.7v-2.8zm10.7-.3c-.5-.1-.7-.2-1.3-.3l-.3-2.6 1.2-.1.4 3zm-.6-5.9l.3 2.4c-5.7 0-8.9 0-11.9-2.3l.4-1.8c2.9 2.1 6.7 2.2 11.2 1.7m-8.3-2.9c.5 1.4 2 1.6 3.1 1.7.8 0 2-.4 2.5-1.2.4.6 1.4.7 2.1.3l.2 1.6c-.5 0-.9-.1-1.5-.4l-.3-.2-.3.2c-1.7 1.2-4.3.8-5.5-.6 0-.1-.2-.1-.2-.2 0 0-.2.1-.3.2-.8.3-2.1.1-2.7-.6l.3-1c.5.3 1.7 1.1 2.6.2m1.8-3.1c0 1.1-.9 1.3-1.7 1.2-.7-.2-1-1-.7-2.5.5.3 1.8 1.1 2.4 1.3m-.2-2.8l-1.9-1.6.3-1.4 2.1 1.6-.5 1.4zm1.5 5.2c.6.1 1.7.1 2.1-.9.1.8.2 2.2-1 2.4-1.2.2-1.2-.9-1.1-1.5m-.4-.2c0 1-.4 1.7-1.3 1.5-.8-.2-1.1-.9-.9-1.9.8.1.9-.1 1.3-.4 0 0 .2.7.9.8m-.4-1.9c.6.3 1.3.7 2.3 1-.1 1.3-3 .7-2.3-1m4.3 3.3c-1-.1-1-1.1-.9-1.8.4.2 1.5.3 2 .3.1.7 0 1.6-1.1 1.5m-.1-7.9c-.5.6-.9.2-1-.1-.3-1.1-.3-2 .3-3 1.1 1.3 1.8 1.5.7 3.1m4.4-4.3c-1.1.9-2 1.7-3 2.6-.3-.7-1-1.3-1.4-1.7l2.8-1.9s.2.1.4 0l1.2 1zm3.6-3.7c-1.4 1.7-1.5 2.3-3.3 3.4l-1.4-1.1v-.1l4.7-3.3v1.1zm4.1 10.4l.3-2.7c-.3-.2-1.4-.1-1.6.7-.2-.2-.7-.2-.9.2-.3-.2-.8-.2-.9.2-.1 0-.2-.1-.3-.1v-2c.9-.1 2.2-.6 1.5-1.6.6-.3.5-1 .2-1.2.4-.4.5-.6.5-1V47c0-.8-.1-.8-.5-.9.5-1.7-.2-2.3-1-1.1-.2.3-.9 1.3-.9 1.3v-3.9h4.7l-.5 13.1-.6.1zm-7.4-1.1c.6-1.3 1-2.7 3.3-2.6V54c-.6.5-2.1.4-3.3.5m2.7.4c.3 0 .5-.1.5.4.1.3.5.3.5 0s-.1-.4-.1-.6c-.1-.5.4-.5.5-.2.1.3.1.4.1.7 0 .3.4.3.4 0s-.1-.5-.1-.8c-.1-.5.4-.4.5-.1.1.2.1.7.1 1 0 .3.4.3.4 0s-.1-.7-.1-1.1c0-.4.5-.4.5 0v1.1c0 .3.4.3.4 0 0-.4 0-.8.1-1.4.1-.3.2-.7.7-.7-.2 1.3-.2 2.2-.4 3.2-.1.9-.7.8-1.6.6-.8-.1-3.2-.5-4-1.3v1c-1 .8-3.3 2.2-3.8 2.5l2.2-4.2c1.3.2 1.9.1 3.2-.1m4.9 2.8l-4.1 2.9s-.2-.1-.4 0l-2.7-2 1.3-.9v-.6c1 .4 1.9.6 3.2.9 2.1.3 2.3-.3 2.4-1.5h.3v1.2zm-1.7 4.8l-2.2-1.6v-.1l3.9-2.7s0 1.8-.1 2.8c-.1.4-.2.4-.3.4-.6.2-1.2.7-1.3 1.2m1.3-.6c.8-.1 1.3.5 1.3 1 0 .7-.4 1.2-1 1.2-.6.1-1.2-.3-1.2-1 0-.6.4-1.2.9-1.2M51.8 48c.1.1.9-.6 1.1-.9.4-.6.6-1.3 1-1.9.2-.4.5-.2.4.2-.1.3-.8 2-1 2.3-.2.2-.5.4-.8.6l.3.4 1-.8.4-1.2c.1-.2.4-.4.4.1 0 .6-.2 1.2-.3 1.5 0 0-.5.5-.8.7-.3.2-.4.2-.3.4.1.3.3 0 .5 0 .4-.1.7.4.1.6-.3.1-.5.1-.4.3 0 .2.2.2.3.1.4 0 .4.5-.1.6-1.2.3-2.8-.1-3.6.2-1.2.4-1.8-.6-2.1-1 .4-.6 1.1-1 1.8-1.4 1.1-.6 1.9-1.8 2.4-2.8.4.7-.5 1.9-.3 2m-11.3 2.9c.8.1 1.6 0 2.1-.2-.1.4-.3 1.2-.3 2.1l-1.8-1.9zm.3 1.3c.6.5 1.3 1.1 1.9 1.6.8.7 1.3.5 1.9-.2 0 0 1.7-2.1 2.9-3 0 0 1 1.3 1.5 1.8-1 2.2-1.5 3.4-2.6 5-1.2 2-2.8 1.1-3.4.9-1.3-.4-2.6-1.1-3.7-1.8l1.5-4.3zm-5.6 6.2c.3 0 .8-.1 1.2-.5.1.6.5 1.2 1 1.3.2 1.2-1.1 1.9-2.3.6.1-.6.1-.8.1-1.4m.1 11.1v2.7l-1.1-.4v-2.7l1.1.4zm-1.1-1c0-.9.2-3.8.2-3.8.7.5 1.7.9 1.7.9v3.6c-.6-.2-1.2-.4-1.9-.7m24-3.3l-.9-.7c1.3-1.1.6-2.6 0-2.9-.3-.2-.5-.2-.5-.5 0-.4.2-3.1.3-4.7h.5l.6-14.6h-2.9l1.8-1.3c.7.6 1.2.6 2.4.6l-1.3 24.1zm-3.8-31.9l1.9-1.4s-.2 1.2-.3 2.7l-1.6-1.3zm1.6 1.8c0 2.1.1 4.1.9 5.2l-2.2 1.5-2.2-.1-4.6-3.7v-.1l6-4.2c.1.1.4 0 .4 0l1.7 1.4zM44.1 33c-.7 0-1.2.1-1.8.5l-.4-.3 6-4.3s.3.1.4 0l5.4 4.3v.2l-6 4.2c-.2-.1-.4 0-.4 0l-3.1-2.4c.2-.7.2-1.5-.1-2.2m-4.2 46c0 1.3-.1 2.7-.5 3.8l-.9-.1c.2-1.3.4-2.6.4-3.7h1zm-5.7-.1v-2.5c6.4.7 7.8-.8 13-.7l.1 1.7c-4.4-.7-4.3 1.1-13.1 1.5m6.2 1.6l.1-1.6c1.2-.2 2.2-.7 2.9.3-.9.7-2 1.2-3 1.3m2.7 1.8c-.6.9-2.1.7-3.1.5l.2-.8c1.1.3 2 .4 2.9.3m-2.8-.7l.1-.4c1.1-.3 2.2-.6 3.1-1.4.3.4.2 1.4 0 1.7-1 .6-2.3.3-3.2.1m4-2.1c-.1-1.6.9-1.8 3-1.3.6 2.9-1.9 2.9-2.9 2.7.1-.5-.1-.7-.1-1.4m7.4-1.1h-3.6l-.1-2.6 3.7 2.6zM48 75.3c-.1-.8-.2-1.9-.3-2.8l3.9-2.7s.1.1.4 0l5.5 4.1-5.7 4-3.8-2.6zM72.8 79c.4 1 1.5 1.1 2.8 2.1.5.4.8 1.1 1.3 1.7.4.5-.2 1-.9.6-.7-.5-1-.1-1.7-.5-.6-.3-1.1-1-1.7-1.4-.9-.6-2.3.5-2-2.4 0-.5.4-2.2-.6-4.8-.3-1.2-.2-2.5.3-3.5 1-.1 2.3.3 2.9 1.2 1.2 2-1.1 5.1-.4 7m6.2-9.4l.1 8.8c-1.1-1.5-1.7-3.1-1.7-5.5.3-.9 1-2.4 1.6-3.3m-.8-.2l-1.6 4.2c-.5 1.3-.9 2.4-.8 3.8l.7-.2c-.1-.6 0-2.2.5-3.1.1 2.1 1.1 4 2.2 5.3 0 0-2.3-.8-3.1-1.1-1.1-.4-1.2-.6-1-2.1l1.7-11.9c1.2 2.7 1.8 3.9 1.4 5.1m1.6-20.8l-.6-.3c-.2-1.2-.6-2.8-.6-2.8l-.5-2.9h-.6l.4 2.6c.1.8-.6.9-.9.9-.1-1.5-.3-3.6-.3-3.6l-.6-.5.3 4.5c.1 2 .1 3.5-1.4 4l-.8-2.7c1.6-.5 1.6-1.9 1.4-4l-.2-2.2-.8-.6.3 2.8c.1 1.3.5 3.2-.9 3.5l-.6-2c.8-.3.9-.9.7-2.6l-.2-1.8-.7-.9.4 2.7c.1 1.6.1 1.7-.4 1.9-1-3.1-1.2-5.4-1.2-5.4-.2-3.9.5-4.6 1.5-4.6.6 0 1.1.5 1 1.1-.1 1-1.4.8-1.4.8s-.1 1.2.5 2.1c1 1.3 2.9 2 4.7 1.9.8-2.4 1.1-3.3 1.3-4 .2 5.4.2 12.1.2 12.1m-2.3 4.1l-1.6.3c-.3-.8-.5-1.3-.5-1.3.5.2 1.8.8 2.1 1m-.4-5.9s.7.1 1.1-.5c0 0 .4 1.3.5 2.3.1 1.1-.2 2.2-.6 3.7l-.8-1.7-.5.2s.4.9.6 1.1l-2.1-1c1.6-.4 1.9-1.6 1.8-4.1m.1 9.8c-.2-.6-.7-2-1.1-3.1l3.3-.7v-.5l-.8.1c.2-.9.4-1.9.8-3.2l.4.2v4.2c-.4 0-.8.1-.8.5 0 .3.4.4.8.4 0 1.3-.7 2.1-2.6 2.1m2.6 7.1c-.6-1.5-.9-2.4-1.4-3.9l1.5-1.9c.1.4.1 4-.1 5.8m.1-6.9L78.2 59c-.2-.6-.4-1.1-.6-1.8.9 0 1.7-.1 2.4-1.1l-.1.7zm-.7-21.1c-.4 1.4-1 3.2-1.4 4.3-1.5.1-4.1-.9-4.1-2.8 1.2.1 1.5-.9 1.4-1.7-.2-1.2-1.3-1.5-2.4-1.2 1.7-1.9 3.5-3.3 6.1-4.8-1.7 3.5 1.1 3.6.4 6.2m-5.3-5.5c.3.3.7.7 1.1 1-.9.7-2 1.7-2.7 2.6 0-.3-.1-.5-.2-.9 1.1-.4 1.9-1 1.8-2.7m-8.4 2.5s.5-.1.7-.4c.3.9.9 1.4 1.6 1.6 0 1.4-1.2 1.9-2.4 1.2.1-.6.1-1.5.1-2.4m-5 7.5l.2-4.6.7-.4c.1 1.5.2 4.7.2 4.7-.3.1-.6.2-1.1.3m2.5-.1c-.2.7-.6 2.6-.8 3.4l-.4.5-.6 3.4.3.6c-2.2 9.8-1.3 20.9-1.2 26.5 0 2.5-.3 2.4-1.7 3.3l1.9-36.6c.7-.3 1.8-.5 2.5-1.1M51.1 26.2c.5-1 1.4-2.4 2.1-3l.9.7v.1l-3 2.2zm3.3-1.8c.1.1.2.1.4 0L58 27c-.6 1.4-1 2.3-1.5 4.4L54.2 33c-.2-.1-.3 0-.3 0l-5.4-4.3v-.1l.8-.5.3.7c.1.3.3.3.4 0 .3-.6.5-1.1 1-1.8l3.4-2.6zM42 23.6v-.1l2-1.5c.6 1.4 1.2 3.3 1.6 4.4L42 23.6zm3.7 3.3s.4 1 .5 1.4c.1.3.2.3.4.1l.3-.5.9.7v.1L41.5 33l-6-4.8V28l6-4.2h.3l3.9 3.1zm-24 32.4c0-1 .5-2.1 1.4-3.2l.5 1.8c-.2 0-.8.1-.8.1v1c1.1-1.5 3 .6 2.7 2.9-.4.6-1.2 1.5-1.8 2-.2-.2-.9-1.5-1.1-1.9.8 0 1.7-.3 1.4-1.6-.6.9-2.4 1.5-2.4-.3.2 0 .8.1.8-.5 0-.2-.3-.3-.7-.3m3-4.6c-.5-.1-.8-.3-1-1.1-.1-.4-.1-.5-.2-1 .3-.1.8-.2 1.1-.4l.1 2.5zm2.1 1.7c-.5 0-1.5-.1-1.6-2 0-.7-.1-1.3-.1-2.4.3-.2.7-.3 1-.5.2 1.5.2 3.7.7 4.9m.4-8.4c0-.4.4-.8.9-.7.8.1.8.9.8 1.7 0 .7-.1 1.5 0 2.9-.6 0-.9-.3-.9-1.1v-1.2l-.4.3c0 1.5.1 3 .4 4.2-1.5 0-1.2-1.9-1.3-3.6-1.1.7-2.3 1.3-3.5 1.6l-.2-.7c1.7-.5 3.2-1.2 4.6-2.5-.4-.2-.4-.5-.4-.9M20 46.1c.5.2.8.7 1.2 1.1.2-.1.5-.4.8-.1 1 .7.7 2.4-.2 2.4-.6-.1-1.4-2-1.8-3.4m-.4 6.3c0 1.1-.4 2-1.5 2 .1-.6.3-1.5.4-2.4.3.1.8.2 1.1.4m1.8 13.4s-1.5-1.1-2-1.7c.6-.5 1.3-1.1 1.6-1.8 0 1 .2 2.6.4 3.5m-.1-9c-.7-.3-1.3-1.8-1.3-2.6 0-.6.1-1.6.5-2.4-.9.3-1.6-.2-2.4-.6-.3 2-.3 4.6-2.1 4.6.5-1.1.9-2.7 1.2-4.9l-.4-.3c-.1.8-.2 1.8-.4 2.7-.2.5-.6.5-1 .5.4-1.1.5-2.6.6-4.2l-.4-.4c-.1.6-.2 1-.9 1.3.2-.7.2-2.1.2-3.2 0-.8.4-1.1.9-1 .5 0 .8.4.8 1 0 .5-.2.8-.9.9 1.3 1.8 3.2 2.9 5.3 3.1.2-.6.2-.6.3-1.2h1.1c-.1 2.1.7 1.9.9 3.8 0 1.4-1.3 3.3-2 2.9m12.5 29.1h4.6c-.9.2-1 .8-1 1.7-.3 0-1.2.1-1.6.6-.2-.4-.5-.7-1.2-.6 0-.7-.3-1.5-.8-1.7m9.5 1.5s-.8 0-1.4.6c-.2-.4-.6-.6-1.2-.6 0-1-.5-1.4-1.1-1.6H44c-.7.4-.7 1.6-.7 1.6M53 91c.8 0 1-.1 1.3-.6.3.6.8.8 1.4.7 0 .7.3 1.5 1.2 1.9H52c1-.5 1.1-1.4 1-2m-3-.3c-.5 0-1.6-.1-1.6-1.3-.1-1.2 1-1.4 1.6-1.4 0-.4-.2-1.8 1.1-1.8 1.4 0 1.3 1.4 1.3 1.8.5 0 1.6 0 1.7 1.1.2 1.8-1.2 1.4-1.6 1.4 0 .7.3 2-1 2.1-1.5.1-1.5-1.5-1.5-1.9m-3.2-3.1c0-1.1-.3-1.4-.7-1.7h4.1c-.6.3-.8.9-.8 1.6-.6 0-1 .4-1.3.7-.5-.4-.7-.6-1.3-.6m-.1 3.5c.7 0 1.1-.3 1.3-.7.2.4.8.8 1.5.8 0 .9.2 1.5 1.1 1.8h-4.8c.6-.3 1-1.2.9-1.9m9-3.7c-.7 0-1.1.4-1.5.7-.4-.4-.6-.6-1.4-.6 0-.8-.2-1.2-.7-1.7h4.3c-.4.4-.7.9-.7 1.6m9.3 3.5c.5 0 .8-.3 1-.6.3.4.6.7 1.1.6 0 .8.4 1.6 1.2 2H64c.8-.3 1-1.3 1-2m2.3-3.5c-.5 0-1 .2-1.2.6-.4-.4-.7-.6-1.2-.5 0-.8-.3-1.2-.6-1.6H68c-.5.3-.7 1-.7 1.5m-7.1.6c-.4-.3-.6-.5-1.2-.4 0-.9-.2-1.3-.8-1.7h4.1c-.6.4-.8.9-.8 1.6-.4-.1-.9 0-1.3.5m1.9 0c0-.5-.1-1.8 1-1.8 1.3-.1 1.1 1.4 1.2 1.8.4 0 1.6 0 1.6 1.2 0 1.4-1.5 1.1-1.5 1.1 0 .6.2 2.3-1.2 2.1-1.3-.2-1-1.4-1.1-1.9-.5 0-1.5.1-1.6-1.3-.1-1.3 1.1-1.2 1.6-1.2m6.9 4.4c-1.4 0-1.3-1.6-1.4-2-.3 0-1.2.1-1.3-1.1-.1-1.2 1-1.2 1.5-1.2 0-.5-.3-1.7 1-1.8 1.3-.1 1.2 1.4 1.2 1.8.6 0 1.5-.1 1.5 1.2s-1.1 1.2-1.5 1.3c.1.3.4 1.7-1 1.8m4.3-5.1c-.7 0-1.1.3-1.5.8-.2-.3-.5-.5-1.1-.6-.1-.8-.3-1.3-.8-1.7H74c-.6.3-.7 1-.7 1.5m6.7-1.5c-.4.4-.6.9-.6 1.4-.6 0-1.2.1-1.5.8-.3-.6-.6-.7-1.2-.7 0-.9-.3-1.2-.7-1.6l4 .1zm-44-.5c.2-1.5-1.6-1.4-1.8-2.4 6 .4 8.8 2.3 10-1 1.6.3 3.8-.3 4-2.5l7.6-.1s-2.4 1.3-3.9 2.2c1 1.1 2.2.5 2.9 1 .6.4.7 1.5 2.3 2.1 3.5 1.3 4.5-.4 5.8-1 .6.2 2.4 1.1 4.6 1.3l1.7-1.4c1.7.5 3.2.8 5.8.5 1.3.6 3.2.4 2.2-1.5l3.6 2.7-44.8.1zm56.1-21.4c-.1.4-.4.9-.6 1.3-.7-.3-.1-.5-.2-1.2-.2-2.4-3-3.8-.4-5.6 1.4 2.1-.3 3.4 1.2 5.5m3.1-8.8s2.2 3.2-.7 4.6c-1.1-.7-1.9-3.1.7-4.6m-.6-5c0-.4.2-.8.4-.8s.4.3.4.7c0 .4-.2.7-.4.7s-.4-.2-.4-.6m.3 4.4c-1.3 1.1-2 1.8-2.1 3.1 0 2.1 1.9 2.5.8 3.3-.6.3-1-.5-1.6-.7.1-1.2-1-2.3-.8-3.8h.6c-.2-1.2-.5-3.2.2-3.5l.5.7c1.6-1 1.6-2.9 1.6-2.9l.3.4c-.1 1.1 0 2.3.5 3.4M61.2 25.4c.3.3.4-.6.7-.2.4.6-.9 1-.5 1.4.2.2.4-.5.6-.2.3.4-.5.7-.4 1 .2.4.5-.3.7.1.2.4-.7 1.3-1.4 1.8-1 .6-2.8 0-2.1-2.5.4-1.3 1.2-2.2 2.2-2.9.4-.3 1-.1.6.5-.2.4-.6.7-.4 1m-14.7-9.1c-.2.2-1.5-1.1-1.9-1.7.5-.2 1-.3 1.5-.4-.7.6.7 1.8.4 2.1m34.5 76c-1.2 0-1.2-1.4-1.2-1.9-.5 0-1.7 0-1.6-1.3 0-1.4 1.2-1.4 1.7-1.4 0-.4-.1-1.6 1.1-1.7 1.1-.1 1 1.2 1.1 1.8 0 0 1.5-.1 1.6 1.1.1 1.2-1 1.3-1.5 1.4 0 .6 0 2-1.2 2m3.3-6.4c-.5.3-.9 1-.9 1.6-.2-.1-.5-.2-.8-.2 0-.6-.1-1.2-.7-1.5H83l1.3-1.5c-.1.4-.1 1 0 1.6m4.5-6.6l.1 4.4c-.4-.4-1.2-.5-1.9 0-.1-.5-.8-1-1.6-.7l3.4-3.7zm-6 5.7s-1.4-3.5-1.5-3.9c-.3-.8-.5-1-1.5-1.4V79h8.4l-5.4 6zm15.3-46.4l-6.3-4.7v-.1l2.7-1.9c1.2 2 2.5 4.5 3.6 6.7m-9.4-14.4C81.4 17 72.1 12.5 62 11.3c.3-1.4.9-3.1 1.4-4.5-.4-1.5-.8-3.1-1.2-4.6h-.3c-.6 1.6-1.2 2.8-1.8 4.4.3 2 .8 3.3 1 4.7 0 0-3.1-.2-4.7-.2-25.2-.1-45.6 20.4-45.6 45.6 0 12.2 4.7 23.7 13.4 32.3 8.6 8.6 20.2 13.3 32.4 13.5 12.3.1 23.7-5 32.2-13.7 8.7-8.7 13.4-20.1 13.4-32.3 0-12.2-4.8-23.6-13.5-32.3"/><path class="st0" d="M32.7 90.1c.4 0 .8-.4.8-.8s-.4-.8-.8-.8-.8.4-.8.8c0 .5.3.8.8.8m36.2-1.7c-.4 0-.8.4-.8.8s.4.8.8.8.8-.4.8-.8-.4-.8-.8-.8M63.2 90c.4 0 .8-.4.8-.8s-.4-.8-.8-.8-.8.4-.8.8c0 .5.3.8.8.8m-5.9-1.5c-.4 0-.8.4-.8.8s.4.8.8.8.8-.4.8-.8c.1-.4-.3-.8-.8-.8M51 90.1c.4 0 .8-.4.8-.8 0-.5-.4-.8-.8-.8s-.8.4-.8.8c0 .5.3.8.8.8m-5.2-.8c0-.4-.4-.8-.8-.8s-.8.4-.8.8.4.8.8.8c.5 0 .8-.3.8-.8m-6.1.1c0-.4-.4-.8-.8-.8s-.8.4-.8.8.4.8.8.8c.5 0 .8-.3.8-.8m46.7-3.9c-.4.1-.7.5-.7.9 0 .5.5.9.9.8.4-.1.6-.4.6-.8 0-.6-.4-1-.8-.9m-58.9 1c0-.4-.4-.8-.7-.8-.5 0-.6.5-.6.8 0 .4.4.8.7.8.4 0 .6-.4.6-.8M81 88.3c-.4 0-.8.4-.8.8s.4.8.8.8.8-.4.8-.8-.4-.8-.8-.8m-5.4.8c0-.4-.4-.8-.8-.8s-.8.4-.8.8.4.8.8.8c.5 0 .8-.3.8-.8M63.5 37.7c0 .2-.2.4-.4.4s-.4-.2-.4-.4.2-.4.4-.4.4.2.4.4M62 33.2c0 .2-.2.4-.4.4s-.4-.2-.4-.4.2-.4.4-.4.4.2.4.4m1.4 2c0 .2-.2.4-.4.4s-.4-.2-.4-.4.2-.4.4-.4.4.2.4.4M39 53.4c0 .2-.2.4-.4.4s-.4-.2-.4-.4.2-.4.4-.4.4.1.4.4m-.8 1.6c0 .2-.2.4-.4.4s-.4-.2-.4-.4.2-.4.4-.4c.2.1.4.2.4.4m1.5-3.5c0 .2-.2.4-.4.4s-.4-.2-.4-.4.2-.4.4-.4.4.1.4.4M41 67.8c0 .2-.2.4-.4.4s-.4-.2-.4-.4.2-.4.4-.4.4.2.4.4m-2.8-.1c0 .2-.2.4-.4.4s-.4-.2-.4-.4.2-.4.4-.4.4.2.4.4m5.6.1c0 .2-.2.4-.4.4s-.4-.2-.4-.4.2-.4.4-.4.4.2.4.4m-6.7 3.4c0 .2-.2.4-.4.4s-.4-.2-.4-.4.2-.4.4-.4.4.2.4.4m8.8 0c0 .2-.2.4-.4.4s-.4-.2-.4-.4.2-.4.4-.4.4.2.4.4m-3 .2c0 .2-.2.4-.4.4s-.4-.2-.4-.4.2-.4.4-.4c.2-.1.4.1.4.4m-3 .2c0 .2-.2.4-.4.4s-.4-.2-.4-.4.2-.4.4-.4c.2-.1.4.1.4.4m-4.4-4.5c0 .2-.2.4-.4.4s-.4-.2-.4-.4.2-.4.4-.4c.2-.1.4.1.4.4M68 56.9c0 .2-.2.4-.4.4s-.4-.2-.4-.4.2-.4.4-.4c.3 0 .4.2.4.4m-2.9-.9c0 .2-.2.4-.4.4s-.4-.2-.4-.4.2-.4.4-.4.4.2.4.4m6 1c0 .2-.2.4-.4.4s-.4-.2-.4-.4.2-.4.4-.4.4.2.4.4m-1.4-4.2c0 .2-.2.4-.4.4s-.4-.2-.4-.4.2-.4.4-.4.4.2.4.4m-2.7-.2c0 .2-.2.4-.4.4s-.4-.2-.4-.4.2-.4.4-.4.4.2.4.4m-2.4-.9c0 .2-.2.4-.4.4s-.4-.2-.4-.4.2-.4.4-.4.4.2.4.4m-2.1 3.1c0 .2-.2.4-.4.4s-.4-.2-.4-.4.2-.4.4-.4.4.2.4.4m9.7-2c0 .2-.2.4-.4.4s-.4-.2-.4-.4.2-.4.4-.4.4.2.4.4M35.9 63.3c0 .3-.2.5-.5.5s-.5-.2-.5-.5.2-.5.5-.5.5.2.5.5m1.6.8c0 .3-.2.5-.5.5s-.5-.2-.5-.5.2-.5.5-.5.5.2.5.5m1.8.5c0 .3-.2.5-.5.5s-.5-.2-.5-.5.2-.5.5-.5.5.2.5.5m2 .2c0 .3-.2.5-.5.5s-.5-.2-.5-.5.2-.5.5-.5.5.2.5.5m2 0c0 .3-.2.5-.5.5s-.5-.2-.5-.5.2-.5.5-.5.5.3.5.5m1.9-.1c0 .3-.2.5-.5.5s-.5-.2-.5-.5.2-.5.5-.5c.3.1.5.3.5.5m21.6-15.6c0 .3-.2.5-.5.5s-.5-.2-.5-.5.2-.5.5-.5c.3.1.5.3.5.5m-1.7-.9c0 .3-.2.5-.5.5s-.5-.2-.5-.5.2-.5.5-.5c.3.1.5.3.5.5M63.7 47c0 .3-.2.5-.5.5s-.5-.2-.5-.5.2-.5.5-.5c.2 0 .5.2.5.5m5.1 2.6c0 .3-.2.5-.5.5s-.5-.2-.5-.5.2-.5.5-.5.5.2.5.5m2-.1c0 .3-.2.5-.5.5s-.5-.2-.5-.5.2-.5.5-.5c.3.1.5.3.5.5m2.4-.6c0 .3-.2.5-.5.5s-.5-.2-.5-.5.2-.5.5-.5.5.2.5.5M51.9 73c-.5 0-.9.4-.9.9s.4.9.9.9.9-.4.9-.9-.4-.9-.9-.9zm0 1.4c-.3 0-.5-.2-.5-.5s.2-.5.5-.5.5.2.5.5-.2.5-.5.5zm-32.1 3.9c-.5 0-.9.4-.9.9s.4.9.9.9.9-.4.9-.9-.4-.9-.9-.9zm0 1.4c-.3 0-.5-.2-.5-.5s.2-.5.5-.5.5.2.5.5-.2.5-.5.5zm.3-11.2c-.5 0-.9.4-.9.9s.4.9.9.9.9-.4.9-.9-.4-.9-.9-.9zm0 1.5c-.3 0-.5-.2-.5-.5s.2-.5.5-.5.5.2.5.5c0 .2-.2.5-.5.5zm7.1-6.5c-.5 0-.9.4-.9.9s.4.9.9.9.9-.4.9-.9-.4-.9-.9-.9zm0 1.4c-.3 0-.5-.2-.5-.5s.2-.5.5-.5.5.2.5.5-.2.5-.5.5zm-.4 8.3c-.5 0-.9.4-.9.9s.4.9.9.9.9-.4.9-.9-.4-.9-.9-.9zm0 1.4c-.3 0-.5-.2-.5-.5s.2-.5.5-.5.5.2.5.5-.2.5-.5.5zm17.5 22.9c-.5 0-.9.4-.9.9s.4.9.9.9.9-.4.9-.9-.4-.9-.9-.9zm0 1.4c-.3 0-.5-.2-.5-.5s.2-.5.5-.5.5.2.5.5-.2.5-.5.5zm27-1.4c-.5 0-.9.4-.9.9s.4.9.9.9.9-.4.9-.9-.4-.9-.9-.9zm0 1.4c-.3 0-.5-.2-.5-.5s.2-.5.5-.5.5.2.5.5-.2.5-.5.5zm-13.5-1.3c-.5 0-.9.4-.9.9s.4.9.9.9.9-.4.9-.9-.4-.9-.9-.9zm0 1.4c-.3 0-.5-.2-.5-.5s.2-.5.5-.5.5.2.5.5c0 .2-.2.5-.5.5zm21.4-79.3c-.5 0-.9.4-.9.9s.4.9.9.9.9-.4.9-.9-.4-.9-.9-.9zm0 1.4c-.3 0-.5-.2-.5-.5s.2-.5.5-.5.5.2.5.5-.3.5-.5.5zm5.9 3c-.5 0-.9.4-.9.9s.4.9.9.9.9-.4.9-.9-.4-.9-.9-.9zm0 1.4c-.3 0-.5-.2-.5-.5s.2-.5.5-.5.5.2.5.5-.2.5-.5.5zm6.1 3.1c-.5 0-.9.4-.9.9s.4.9.9.9.9-.4.9-.9-.4-.9-.9-.9zm0 1.4c-.3 0-.5-.2-.5-.5s.2-.5.5-.5.5.2.5.5-.2.5-.5.5zm6.5 12.7c-.5 0-.9.4-.9.9s.4.9.9.9.9-.4.9-.9-.4-.9-.9-.9zm0 1.4c-.3 0-.5-.2-.5-.5s.2-.5.5-.5.5.2.5.5c0 .2-.2.5-.5.5zm-6.6-6.2c-.5 0-.9.4-.9.9s.4.9.9.9.9-.4.9-.9-.4-.9-.9-.9zm0 1.4c-.3 0-.5-.2-.5-.5s.2-.5.5-.5.5.2.5.5-.2.5-.5.5zm-6.8 3.2c-.5 0-.9.4-.9.9s.4.9.9.9.9-.4.9-.9-.4-.9-.9-.9zm0 1.4c-.3 0-.5-.2-.5-.5s.2-.5.5-.5.5.2.5.5-.2.5-.5.5zm13.6 17.6c-.5 0-.9.4-.9.9s.4.9.9.9.9-.4.9-.9c0-.4-.4-.9-.9-.9zm0 1.5c-.3 0-.5-.2-.5-.5s.2-.5.5-.5.5.2.5.5c0 .2-.2.5-.5.5zm-7.2 12.6c-.5 0-.9.4-.9.9s.4.9.9.9.9-.4.9-.9-.4-.9-.9-.9zm0 1.5c-.3 0-.5-.2-.5-.5s.2-.5.5-.5.5.2.5.5c0 .2-.2.5-.5.5zm-6.3-6.7c-.5 0-.9.4-.9.9s.4.9.9.9.9-.4.9-.9-.4-.9-.9-.9zm0 1.4c-.3 0-.5-.2-.5-.5s.2-.5.5-.5.5.2.5.5-.3.5-.5.5zM47.2 41.7c-.5 0-.9.4-.9.9s.4.9.9.9.9-.4.9-.9-.4-.9-.9-.9zm0 1.5c-.3 0-.5-.2-.5-.5s.2-.5.5-.5.5.2.5.5c0 .2-.2.5-.5.5zM21.9 41c-.5 0-.9.4-.9.9s.4.9.9.9.9-.4.9-.9-.4-.9-.9-.9zm0 1.4c-.3 0-.5-.2-.5-.5s.2-.5.5-.5.5.2.5.5-.2.5-.5.5zm-8.8 21.1c-.5 0-.9.4-.9.9s.4.9.9.9.9-.4.9-.9-.4-.9-.9-.9zm0 1.4c-.3 0-.5-.2-.5-.5s.2-.5.5-.5.5.2.5.5c0 .2-.3.5-.5.5zm38.8-.6c-.5 0-.9.4-.9.9s.4.9.9.9.9-.4.9-.9-.4-.9-.9-.9zm0 1.4c-.3 0-.5-.2-.5-.5s.2-.5.5-.5.5.2.5.5-.2.5-.5.5zm-23.6-29c-.5 0-.9.4-.9.9s.4.9.9.9.9-.4.9-.9-.4-.9-.9-.9zm0 1.4c-.3 0-.5-.2-.5-.5s.2-.5.5-.5.5.2.5.5c0 .2-.2.5-.5.5zm25.5-.9c-.5 0-.9.4-.9.9s.4.9.9.9.9-.4.9-.9-.4-.9-.9-.9zm0 1.4c-.3 0-.5-.2-.5-.5s.2-.5.5-.5.5.2.5.5-.2.5-.5.5zm-31.9-7c-.5 0-.9.4-.9.9s.4.9.9.9.9-.4.9-.9c0-.4-.4-.9-.9-.9zm0 1.5c-.3 0-.5-.2-.5-.5s.2-.5.5-.5.5.2.5.5c0 .2-.2.5-.5.5zm-5.7 3.3c-.5 0-.9.4-.9.9s.4.9.9.9.9-.4.9-.9-.4-.9-.9-.9zm0 1.4c-.3 0-.5-.2-.5-.5s.2-.5.5-.5.5.2.5.5-.2.5-.5.5zM28.5 27c-.5 0-.9.4-.9.9s.4.9.9.9.9-.4.9-.9-.4-.9-.9-.9zm0 1.4c-.3 0-.5-.2-.5-.5s.2-.5.5-.5.5.2.5.5-.2.5-.5.5zm6.7-5.9c-.5 0-.9.4-.9.9s.4.9.9.9.9-.4.9-.9-.4-.9-.9-.9zm0 1.4c-.3 0-.5-.2-.5-.5s.2-.5.5-.5.5.2.5.5-.2.5-.5.5zm62.1 46.7c-.5 0-.9.4-.9.9s.4.9.9.9.9-.4.9-.9-.4-.9-.9-.9zm0 1.4c-.3 0-.5-.2-.5-.5s.2-.5.5-.5.5.2.5.5-.2.5-.5.5zM41.6 27.5c-.5 0-.9.4-.9.9s.4.9.9.9.9-.4.9-.9-.4-.9-.9-.9zm0 1.4c-.3 0-.5-.2-.5-.5s.2-.5.5-.5.5.2.5.5c0 .2-.2.5-.5.5zm6.2 3.5c-.5 0-.9.4-.9.9s.4.9.9.9.9-.4.9-.9-.4-.9-.9-.9zm0 1.4c-.3 0-.5-.2-.5-.5s.2-.5.5-.5.5.2.5.5-.2.5-.5.5zm6.5-6.2c-.5 0-.9.4-.9.9s.4.9.9.9.9-.4.9-.9-.4-.9-.9-.9zm0 1.4c-.3 0-.5-.2-.5-.5s.2-.5.5-.5.5.2.5.5-.2.5-.5.5z"/></svg>