<svg id="Vrstva_1" data-name="Vrstva 1" xmlns="http://www.w3.org/2000/svg" viewBox="0 0 419.53 419.53"><defs><style>.cls-1{fill:#d3323f;}.cls-2{fill:#1e1e1c;}.cls-3{fill:#1f1f1d;}.cls-4{fill:#231f20;}</style></defs><polygon class="cls-1" points="93 303.51 111.15 254.31 94.26 254.3 94.26 244.76 124.49 244.77 124.49 253.34 106.22 302.66 124.46 302.67 124.45 312.21 93 312.2 93 303.51"/><path class="cls-2" d="M130.07,227.55h17c11.38,0,17.13,5.88,17.12,17.51v11.87c0,11.63-5.77,17.5-17.15,17.5h-3.92l0,37.58H130Zm15.77,35.87c4.16,0,5.27-1.47,5.27-7.34V245.92c0-5.88-1.1-7.35-5.26-7.35h-2.7v24.85Z"/><path class="cls-2" d="M166.29,244.58H178v10.65h.24c1.72-8.32,5.27-11.87,11.39-11.87h.74v13.47h-1.72c-7.34,0-9.91,3.42-9.92,12.61l0,42.59H166.26Z"/><path class="cls-2" d="M190,299.43v-9.55c0-11.14,6-18.35,20.09-22.14v-8.57c0-4.16-.85-5.75-3.42-5.75s-3.55,1.59-3.55,5.75v5.26h-12v-4.89c0-10,5.76-16.15,15.68-16.15s15.78,6.13,15.78,16.17l0,52.5H210.69v-6.24h-.25c-1.84,4.89-5.26,7.46-10.16,7.46-6.61,0-10.28-4.91-10.27-13.84m17.91-75h13.83L209.5,238.24H198.61Zm2.16,71.36V278.14c-6.12,2.08-7.59,4.53-7.59,12V299c0,2.69,1,4.28,3.18,4.28,2.7,0,4.41-2.44,4.41-7.46"/><polygon class="cls-2" points="223.45 244.61 236.06 244.62 240.68 293.46 240.93 293.46 245.48 244.63 257.36 244.63 248.75 312.07 231.98 312.06 223.45 244.61"/><path class="cls-2" d="M256.84,299.47v-9.55c0-11.14,6-18.36,20.09-22.14v-8.57c0-4.16-.85-5.76-3.42-5.76S270,255,270,259.2v5.27H258v-4.9c0-10,5.76-16.15,15.68-16.14s15.78,6.13,15.78,16.16l0,52.51H277.52v-6.25h-.24c-1.84,4.9-5.27,7.47-10.17,7.46-6.61,0-10.28-4.9-10.27-13.83m20.07-3.66V278.18c-6.12,2.08-7.59,4.53-7.59,12V299c0,2.7,1,4.29,3.18,4.29,2.7,0,4.41-2.45,4.41-7.46"/><path class="cls-3" d="M153.67,187.12q-4.35,5.25-12.35,6.34t-21.76-3.09l-.1.12a30.64,30.64,0,0,1,1.83,2.72c.75,1.23,1.29,2.18,1.61,2.85q3.52,7,3.72,12.35a13.23,13.23,0,0,1-3.07,9.23,18.59,18.59,0,0,1-10,6.31q-6.06,1.53-15.56-1.21a61.15,61.15,0,0,1-12.15-5.34,141.48,141.48,0,0,1-15.74-10.22q-3.32-2.44-7.26-5.46t-4.72-3.66l2.55-4.54c1.47,1.22,3.71,3,6.7,5.3s6.28,4.75,9.86,7.32q5,3.56,10.56,6.79a49.92,49.92,0,0,0,12,5,23.54,23.54,0,0,0,10.53.67,12.3,12.3,0,0,0,7.55-4.12,12.14,12.14,0,0,0,2.78-9.63q-.68-5.43-5.7-12.52t-7.85-10.84q-2.9-3.7-7-9.65a39.76,39.76,0,0,1-6.31-14q-1.58-7.15,2.38-11.93,4.89-5.91,13.76-6.22t20.26,3.2l.05-.06a28.9,28.9,0,0,1-1.82-2.72,33.4,33.4,0,0,1-1.9-3.49,28.48,28.48,0,0,1-3.13-11.71,14.25,14.25,0,0,1,3.38-9.73,17.88,17.88,0,0,1,10.53-6.38q6.25-1.25,14.59,1.22a70.33,70.33,0,0,1,13.33,5.91,161.23,161.23,0,0,1,14.93,9.45q3.6,2.58,7.46,5.58t4.7,3.69l-2.49,4.58c-.84-.69-2.41-2-4.71-3.85s-6.33-4.86-12.08-8.95a92.09,92.09,0,0,0-11.26-6.76,70.32,70.32,0,0,0-11.29-4.78,20.38,20.38,0,0,0-10.8-.64,13.25,13.25,0,0,0-7.37,4.21,12,12,0,0,0-2.74,9.51q.66,5.38,5.19,12.56,3.3,5.27,6.67,10t7.7,11.17q5.37,7.88,6.71,14.52t-2.18,10.88m-5.24-3.64q3-3.63,1.51-8.87t-7.59-14.29c-.9-1.35-2.25-3.29-4.07-5.84l-4.5-6.3a38,38,0,0,0-5.06-1.73q-2.37-.6-6-1.37a32.48,32.48,0,0,0-12.52-.56,13.87,13.87,0,0,0-8.56,4.74,10.27,10.27,0,0,0-1.9,10.31q1.86,5.77,7.44,13.62l3.48,4.74q2.7,3.72,5.48,7.42,2.22.84,5.28,1.71t6.76,1.62a28.68,28.68,0,0,0,11.47.14,15.09,15.09,0,0,0,8.75-5.34"/><path class="cls-4" d="M68,199.43l-2.2,3.07a2.17,2.17,0,0,1-3,.49L48.44,192.66a2.15,2.15,0,0,1-.49-3l2.21-3.06a2.14,2.14,0,0,1,3-.49l14.35,10.32a2.14,2.14,0,0,1,.49,3"/><rect class="cls-4" x="42.77" y="178.54" width="3.67" height="12.78" transform="translate(-131.55 113.11) rotate(-54.26)"/><path class="cls-4" d="M40.12,179.44l-2.14,3-.27-.19a1,1,0,0,1-.22-1.39l1-1.37a1,1,0,0,1,1.38-.22Z"/><path class="cls-4" d="M34.7,178.33l1,2.27a.84.84,0,0,0,1.45.15l1.11-1.53a.85.85,0,0,0-.61-1.34l-2.48-.25a.5.5,0,0,0-.5.7"/><path class="cls-2" d="M202.35,134.53a58.55,58.55,0,0,0-15.45,20.92c-2.91-2.85-3.23-4.76-1.46-8.37A207.31,207.31,0,0,1,199,124.32c2.68-4.07,5.53-8,8.12-12.15a23.26,23.26,0,0,0,3.12-6.54A23.41,23.41,0,0,1,218.5,93.1a128.75,128.75,0,0,1,22.63-14.68,125.77,125.77,0,0,1,31.45-11.79,3.29,3.29,0,0,0,2.7-2.33,3.18,3.18,0,0,1,3-2.15,91.21,91.21,0,0,1,41.42,3.42q46.49,15.36,62.54,61.78a4,4,0,0,1-.81,4.58,3.6,3.6,0,0,0-.6,2.85c4.21,19.12,3.74,38.23.08,57.34a29.52,29.52,0,0,1-5.09,12.4,8.71,8.71,0,0,1-1.63,1.79c-3.81,2.82-6.15,6.76-8.46,10.76a310.33,310.33,0,0,1-18.63,29.34c-.56.76-1.22,1.45-1.77,2.22-2,2.85-4.71,3-7.87,1.89a58.61,58.61,0,0,0,12.24-22.94c2.59.18,4.3-1.4,5.79-3.16A41.5,41.5,0,0,0,363,212a49.31,49.31,0,0,0,1.6-7.62,50.58,50.58,0,0,1,1-5.54c6.23-19.61,7.44-39.4,2.37-59.46a4.23,4.23,0,0,0-2.76-3.18,3.91,3.91,0,0,1-1.95-2.16,73.72,73.72,0,0,0-19.52-31.35Q317.41,77.82,281.3,82a3.75,3.75,0,0,1-3.65-1.16,3.19,3.19,0,0,0-3.34-.85,102.78,102.78,0,0,0-37.95,15.8,122.3,122.3,0,0,0-15.47,12.42,17,17,0,0,1-3.72,2.64,23.29,23.29,0,0,0-9.27,8.27c-2,3.2-3.87,6.5-5.57,9.86a5.47,5.47,0,0,0,0,5.53"/><path class="cls-2" d="M282.66,67.32l.13.5c20.21-1.59,39,2.8,56.12,13.63s29.17,25.88,36.63,44.77a3.4,3.4,0,0,0,.16-2c-.64-1.88-1.35-3.73-2.16-5.54-9.83-22-25.87-37.56-48.22-46.53a84.9,84.9,0,0,0-40.7-5.59,8.5,8.5,0,0,0-2,.73"/><path class="cls-2" d="M330.12,233.31l-18.2,28.83c-2.21,3.5-5,3.88-8.07,1.13-4.16-3.7-4.91-9.53-1.79-14.49q8.82-14,17.69-28,6.11-9.66,12.2-19.34c3.45-5.43,9.38-7.14,14.89-4.33a4.43,4.43,0,0,1,2,6.59c-.63,1.1-1.34,2.15-2,3.21l-16.68,26.44"/><path class="cls-2" d="M204.13,154.79l18.12-28.72c2.28-3.59,4.91-4,8.16-1.25a11,11,0,0,1,2.74,12.71,18,18,0,0,1-1.1,2q-14.87,23.58-29.75,47.14c-2.36,3.74-5.66,5.82-10.11,5.58a13.45,13.45,0,0,1-4.89-1.33c-2.63-1.22-3.34-4-1.87-6.5.75-1.29,1.58-2.53,2.37-3.79q8.17-12.93,16.33-25.86"/><path class="cls-2" d="M198.93,150.34q7-11.09,14-22.18A4.71,4.71,0,1,1,221,133c-1.22,2-2.49,4-3.74,5.95L193,177.48c-2,3.21-6.1,3.54-8.09.62a4.73,4.73,0,0,1,.06-5.58q7-11.07,14-22.18"/><path class="cls-2" d="M336.19,237.21q-7,11.1-14,22.19a4.69,4.69,0,0,1-8,.24,4.74,4.74,0,0,1,.16-5.46L332.74,225c3.2-5.07,6.38-10.16,9.61-15.21a4.71,4.71,0,1,1,7.91,5.1q-6.51,10.36-13.06,20.7l-1,1.6"/><path class="cls-2" d="M323.3,257.55l25.63-40.61h.32c.08,1.11.25,2.23.22,3.34a33.76,33.76,0,0,1-2.71,11.66c-3.11,7.75-7.38,14.74-13.66,20.36a21,21,0,0,1-9.8,5.25"/><path class="cls-2" d="M186.6,171.21a20.92,20.92,0,0,1,.73-11.7A53.33,53.33,0,0,1,206,133.43a16.14,16.14,0,0,1,6.37-3.05L186.6,171.21"/><path class="cls-1" d="M129.87,323.75l.3.27a.68.68,0,0,0,.36.18l.79.18.83.18a3.71,3.71,0,0,1,1.23.31,5.71,5.71,0,0,1,1,.49c.28.18.53.36.77.53a6.86,6.86,0,0,1,.65.67,9,9,0,0,1,.53.79,4.18,4.18,0,0,1,.48,1,4.36,4.36,0,0,1,.26,1.19c0,.3,0,.6,0,.93v1.05c0,.38,0,.79-.07,1.23a8.83,8.83,0,0,1-.21,1.19c-.06.35-.13.71-.22,1.06s-.18.69-.25,1-.14.68-.2,1-.2.75-.32,1.1-.25.66-.4,1-.25.75-.4,1.1-.3.72-.45,1-.37.59-.6.9a10,10,0,0,1-.64.81,3.62,3.62,0,0,0-.42.61,4,4,0,0,1-.6.79,5.64,5.64,0,0,0-.66.79l-.36.53a1,1,0,0,1-.48.3q0,1,0,2c0,.68,0,1.31.08,1.9s0,1.1,0,1.54a8.41,8.41,0,0,1,0,1.23c0,.32,0,.6,0,.83v1.68a6.07,6.07,0,0,0,0,.66v.3a.75.75,0,0,1-.24.55.79.79,0,0,1-.56.24.82.82,0,0,1-.78-.8v-.3c0-.21,0-.46.05-.75v-1.59c0-.26,0-.57,0-.92a5.75,5.75,0,0,0,0-1.1c0-.44,0-.95,0-1.54s-.05-1.22-.07-1.89,0-1.41,0-2.11,0-1.56,0-2.47l0-7.83c0-.79,0-1.6,0-2.42s0-1.66.05-2.42.06-1.44.06-2,0-1.13,0-1.54.06-.8.09-1.1a2.17,2.17,0,0,1,.14-.52,2.83,2.83,0,0,1-.48-.31l-.27-.23a.84.84,0,0,1-.3-.55.68.68,0,0,1,.16-.57.79.79,0,0,1,.52-.28.89.89,0,0,1,.6.13m.91,19.94c.11-.14.25-.29.39-.44s.31-.36.4-.48c.18-.29.36-.55.53-.79a9.19,9.19,0,0,0,.58-.74,8.46,8.46,0,0,0,.51-.79,7.31,7.31,0,0,0,.38-.79c.12-.35.25-.7.4-1.06s.24-.68.36-1a3.22,3.22,0,0,0,.22-.89c.09-.35.17-.7.25-1s.16-.72.25-1.1a10,10,0,0,0,.22-1,5.35,5.35,0,0,0,.19-1c0-.38,0-.73,0-1.06v-1c0-.33,0-.65,0-1a2.92,2.92,0,0,0-.17-.66,5.11,5.11,0,0,0-.31-.75c-.14-.21-.29-.4-.43-.58a2.12,2.12,0,0,0-.4-.44l-.61-.4a5.3,5.3,0,0,0-.79-.4,7.76,7.76,0,0,0-.79-.22,5.13,5.13,0,0,1-.79-.14.87.87,0,0,0-.09.4,4.28,4.28,0,0,0-.1.92c0,.38,0,.87-.05,1.45s0,1.31-.05,2.07,0,1.54-.06,2.33v2.47l0,7.83v.26"/><path class="cls-1" d="M147,326a.77.77,0,0,1,.79.4l.22.35a6.12,6.12,0,0,1,.44.89,6.71,6.71,0,0,1,.21.83,3.19,3.19,0,0,1,.13.84v.57c0,.24.05.5.08.79a7.4,7.4,0,0,0,.13.8c0,.32.06.63.08.92s.06.62.09,1.06a9.33,9.33,0,0,1,.08,1.1c0,.32,0,.66-.05,1s0,.71,0,1.06,0,.77,0,1.19,0,.67,0,1,0,.74,0,1.15,0,.79,0,1.23,0,.91,0,1.41,0,.95-.06,1.27a4.56,4.56,0,0,0-.05,1.11c0,.52,0,1,0,1.54l-.09,1.49c0,.47,0,.91-.06,1.32s0,.79,0,1.15a9,9,0,0,0-.05,1.09c0,.45,0,.84-.05,1.19s-.07.63-.1.93-.06.57-.09.83a8.8,8.8,0,0,1-.31,1.06,4.94,4.94,0,0,1-.49,1,3.65,3.65,0,0,1-.84.88A4.42,4.42,0,0,1,146,358a3.17,3.17,0,0,1-1.15,0,2,2,0,0,1-1-.45,2.48,2.48,0,0,1-.64-.84,3.69,3.69,0,0,1-.26-.75,3.71,3.71,0,0,0-.13-.53c0-.17-.07-.38-.12-.61l-.18-.71c0-.29-.11-.63-.17-1s-.07-.69-.13-1-.05-.7-.08-1.05l-.12-1.15c0-.5-.06-1-.08-1.49s-.06-.93-.08-1.37,0-.85,0-1.32,0-1.08,0-1.58-.05-1.1-.08-1.54,0-1,0-1.63-.06-1-.08-1.54a14.47,14.47,0,0,1-.08-1.63c0-.53,0-1,0-1.54s0-1,0-1.45v-2.25c0-.53,0-.94.05-1.23a6.59,6.59,0,0,0,.05-.75,5,5,0,0,1,.09-.92,7,7,0,0,1,.23-1.1,4.31,4.31,0,0,1,.45-1.23,3.68,3.68,0,0,1,.75-1.1,4.11,4.11,0,0,1,.84-.7,2,2,0,0,1,1.19-.39,3.12,3.12,0,0,1,1,.19l.31.13a.79.79,0,0,1,.52.53m-.66,1a1.62,1.62,0,0,1-.4-.05l-.3-.13a1.3,1.3,0,0,0-.49-.09.56.56,0,0,0-.35.13,2.56,2.56,0,0,0-.53.48,2,2,0,0,0-.49.66,6.25,6.25,0,0,0-.36,1c-.06.33-.12.63-.18.93s0,.51-.05.74a7.63,7.63,0,0,0,0,.84,9,9,0,0,0-.05,1.06c0,.5,0,.89,0,1.19v1.09c0,.45,0,.9,0,1.37s0,1.07,0,1.63a14,14,0,0,0,.08,1.49c0,.53.06,1.08.08,1.63s0,1.1,0,1.63.05.92.08,1.54,0,1,0,1.54,0,.91,0,1.32,0,.93.08,1.37.06,1,.08,1.41.1.86.13,1.19a5.18,5.18,0,0,0,.08,1c0,.33.07.68.13,1.06a4.64,4.64,0,0,0,.13.84c.05.23.11.47.17.7a5.58,5.58,0,0,1,.13.57,4.83,4.83,0,0,1,.12.62c0,.12.08.25.13.4a2.53,2.53,0,0,0,.22.26,1,1,0,0,0,.31.14c.12,0,.26,0,.44,0a1.51,1.51,0,0,0,.62-.31,1.78,1.78,0,0,0,.4-.35A6.25,6.25,0,0,0,147,355a4.21,4.21,0,0,0,.23-.79,3,3,0,0,0,.09-.75c0-.26.06-.55.09-.88s0-.67,0-1.05,0-.84.05-1.19,0-.72,0-1.1.05-.87.05-1.37.07-.95.1-1.45.05-1,.05-1.45a6.26,6.26,0,0,1,0-1.36,9.75,9.75,0,0,0,.05-1.06c0-.47,0-.91,0-1.32s0-.87,0-1.28a9.75,9.75,0,0,1,0-1.05c0-.36,0-.72,0-1.1s0-.72,0-1.1,0-.77,0-1.15,0-.69,0-1a5.75,5.75,0,0,0-.08-1c0-.44-.05-.79-.08-1.05a4.08,4.08,0,0,0-.09-.8c0-.32-.1-.63-.12-.92a6.31,6.31,0,0,0,0-.79,5.63,5.63,0,0,1,0-.71,1.77,1.77,0,0,0-.09-.48,2.39,2.39,0,0,0-.17-.62,2.12,2.12,0,0,0-.31-.62l-.22-.35-.08-.22"/><path class="cls-1" d="M154.5,326.13,155,326a6,6,0,0,0,.66-.17,3.29,3.29,0,0,1,.84-.26c.26,0,.55-.07.88-.13a3.85,3.85,0,0,1,1,0,8.45,8.45,0,0,1,.92.14l.71.18a2.82,2.82,0,0,1,1.09.44,4,4,0,0,0,.62.45,12.13,12.13,0,0,1,.87.88,4.53,4.53,0,0,1,.74,1.11c.12.23.24.5.37.81s.26.63.37.95.23.68.35,1.06.22.82.3,1.23.12.74.19,1.17.13.87.17,1.32.08.9.1,1.34a7.56,7.56,0,0,1-.05,1.41c0,.5-.07,1-.14,1.45s-.12.91-.18,1.41a11.26,11.26,0,0,1-.27,1.45c-.12.41-.26.86-.41,1.36s-.2.88-.27,1.23a10.87,10.87,0,0,1-.27,1.28c-.12.41-.23.83-.36,1.27s-.29.85-.44,1.23a6.24,6.24,0,0,0-.27.92,8.34,8.34,0,0,1-.31,1,7.18,7.18,0,0,0-.32.81c-.09.27-.17.55-.26.81s-.2.56-.32.88a6.78,6.78,0,0,0-.31.83c-.12.32-.26.67-.42,1s-.34.73-.52,1.08-.28.61-.4.88-.17.39-.26.57a.17.17,0,0,1-.05.13l-.44,1a.82.82,0,0,1-.49.44.75.75,0,0,1-.53.22.71.71,0,0,1-.55-.18.89.89,0,0,1-.28-.53l0-.36v-1.36c0-.23,0-.57,0-1s0-1,0-1.56-.05-1.32-.08-2.14,0-1.69,0-2.69,0-2-.07-3.08-.05-2.14-.07-3.25-.05-2.1-.07-3-.11-1.89-.16-2.86-.11-2.27-.25-3.92-.22-2.8-.24-3.47-.05-1.19-.08-1.63a6.32,6.32,0,0,1,0-.71,2.28,2.28,0,0,1-.53.13l-.53.13a.7.7,0,0,1-.59-.09.73.73,0,0,1-.35-.49.78.78,0,0,1,.11-.59.83.83,0,0,1,.49-.37m4.11,29.28.09-.17c.15-.32.3-.66.45-1s.28-.66.4-.92a9.18,9.18,0,0,1,.31-.88c.12-.29.22-.56.31-.79l.27-.86a7.14,7.14,0,0,1,.31-.81q.13-.39.27-.84a8.34,8.34,0,0,1,.36-1.14c.12-.32.24-.69.36-1.1s.24-.86.36-1.27.2-.75.27-1.1a11.83,11.83,0,0,1,.31-1.36c.12-.5.24-1,.36-1.36s.17-.84.23-1.28.13-.94.22-1.41.11-.85.14-1.32,0-.86,0-1.27-.06-.83-.1-1.26-.09-.82-.15-1.21-.12-.75-.17-1.1-.17-.7-.26-1.06-.22-.71-.32-1-.22-.58-.35-.86-.24-.54-.33-.77a3.38,3.38,0,0,0-.52-.71l-.61-.66a5.55,5.55,0,0,1-.66-.45,1.1,1.1,0,0,0-.4-.17,3.71,3.71,0,0,1-.83-.18,2.76,2.76,0,0,0-.64-.1,5.31,5.31,0,0,0-.68,0h-.18v.05c0,.2.06.53.08,1s.06,1,.08,1.62.11,1.79.25,3.44.22,3,.24,4,.1,1.92.14,2.86.07,2,.09,3.08.05,2.18.08,3.26,0,2.08.07,3.08,0,1.89,0,2.69.05,1.52.07,2.11,0,.92,0,1.27"/><path class="cls-1" d="M177.85,328.28l-.26,0a5.45,5.45,0,0,0-.75-.05,2,2,0,0,0-.7.09,3.46,3.46,0,0,0-.66.26,3.84,3.84,0,0,0-.73.54,4.31,4.31,0,0,0-.82,1,6.91,6.91,0,0,0-.76,1.54,16.13,16.13,0,0,0-.62,1.93c-.19.71-.36,1.42-.54,2.16a16.49,16.49,0,0,0-.41,2.2c-.1.76-.19,1.51-.28,2.24s-.1,1.45-.12,2.24,0,1.59,0,2.38.07,1.55.12,2.28.14,1.44.26,2.12.24,1.26.38,1.85a21.08,21.08,0,0,0,.87,2.16,8.11,8.11,0,0,0,1.31,2.08,6.54,6.54,0,0,0,1,1,2.77,2.77,0,0,0,.64.29q.34,0,1.14.09a5.93,5.93,0,0,0,.92,0l.49-.26.58-.39a3.2,3.2,0,0,0,.55-.42l.51-.5.26-.31a.9.9,0,0,1,.55-.24.75.75,0,0,1,.57.21.76.76,0,0,1,0,1.09l-.22.31-.64.61a6.13,6.13,0,0,1-.69.57l-.7.44a4,4,0,0,1-.76.35,4.45,4.45,0,0,1-1.45.17c-.64,0-1.14-.09-1.49-.14a4.44,4.44,0,0,1-1.08-.45,6.71,6.71,0,0,1-1.4-1.26,10.12,10.12,0,0,1-1.55-2.45,14.61,14.61,0,0,1-.95-2.43,12.56,12.56,0,0,1-.48-2.07c-.08-.7-.16-1.44-.23-2.2s-.11-1.55-.12-2.38,0-1.64,0-2.46a22.81,22.81,0,0,1,.16-2.38c.06-.73.14-1.49.23-2.28s.28-1.59.46-2.38.36-1.45.54-2.15.43-1.39.67-2.07a7.67,7.67,0,0,1,.89-1.84,5.79,5.79,0,0,1,1.1-1.38,6,6,0,0,1,1.07-.76,4.15,4.15,0,0,1,.92-.39,4.21,4.21,0,0,1,1.19-.13,5,5,0,0,1,1.06.09l.26.05a.73.73,0,0,1,.5.33.7.7,0,0,1,.13.6.79.79,0,0,1-.35.5.69.69,0,0,1-.6.11"/><path class="cls-1" d="M185.93,356.44v-.66q0-.61,0-1.41c0-.53.05-1.19.12-2s.12-1.72.19-2.75.18-2.18.37-3.48c0-.23.06-.48.09-.74a.75.75,0,0,1-.17-.49.74.74,0,0,1,.35-.66c.09-.64.18-1.27.28-1.89.21-1.26.39-2.44.54-3.56s.29-2.26.5-3.34.32-2,.42-2.81.19-1.68.32-2.49.22-1.5.31-2.09.16-1.07.19-1.45a4.87,4.87,0,0,1,.22-1,.77.77,0,0,1,.4-.61.64.64,0,0,1,.6,0,3.31,3.31,0,0,1,.5.31,1.35,1.35,0,0,1,.26.2,5,5,0,0,1,.57,1.72c.14.67.3,1.49.47,2.44s.34,1.95.51,3,.32,2.09.45,3.13.23,2.11.31,3.19.16,2.16.23,3.22.09,2.1.09,3.12,0,2,.07,2.95.05,1.82.07,2.73.07,1.61.12,2.2a10.29,10.29,0,0,1,.13,1.54c0,.32.05.58.08.75a3.24,3.24,0,0,1,.09.79l0,.36a.88.88,0,0,1-.22.59.77.77,0,0,1-.53.26.81.81,0,0,1-.58-.2.74.74,0,0,1-.26-.58v-.35l-.09-.57a6,6,0,0,1-.13-1,11,11,0,0,0-.08-1.41,21.76,21.76,0,0,1-.16-2.29c0-.91-.05-1.83-.07-2.77s-.08-1.9-.08-2.95v-.18a1.45,1.45,0,0,0-.35,0c-.23.06-.51.12-.83.18l-.88.08-1.06.08a5.08,5.08,0,0,1-1,.08h-.09l-.09.66c-.16,1.24-.27,2.36-.33,3.39s-.13,1.94-.19,2.73a16.94,16.94,0,0,0-.14,1.91c0,.51,0,1,0,1.34v.66a.62.62,0,0,1-.2.55.82.82,0,0,1-.58.24.74.74,0,0,1-.55-.22,1,1,0,0,1-.26-.53m2.58-12.31a5.48,5.48,0,0,0,.7,0c.32-.06.66-.1,1-.13l.88-.08a2.62,2.62,0,0,0,.67-.13,2.74,2.74,0,0,1,.7-.08v-.05c0-.41,0-.83,0-1.27-.05-1-.12-2.09-.2-3.17s-.22-2.13-.34-3.13-.29-2.05-.46-3.08-.34-2-.52-3c0-.35-.11-.69-.17-1-.06.42-.12.87-.18,1.37-.12.79-.23,1.6-.32,2.42s-.25,1.86-.46,2.94-.35,2.14-.5,3.26-.29,2.39-.5,3.65l-.27,1.49"/><path class="cls-1" d="M206.23,329.26l-.35-.18a1.67,1.67,0,0,0-.57-.26,2,2,0,0,0-.79-.05,4.07,4.07,0,0,0-1,.3,2.63,2.63,0,0,0-.86.7,11.09,11.09,0,0,0-.89,1.27,9.08,9.08,0,0,0-.67,1.52,6.68,6.68,0,0,0-.31,1.65,6.61,6.61,0,0,0,.69,3,13.67,13.67,0,0,0,.78,1.19,12.14,12.14,0,0,0,1.45,1.51l2,1.86c.58.59,1.08,1.13,1.48,1.63a11.32,11.32,0,0,1,1,1.64,10.79,10.79,0,0,1,.7,1.67,14.67,14.67,0,0,1,.41,1.68,13.71,13.71,0,0,1,.19,1.54c0,.44,0,.9-.05,1.38a7.61,7.61,0,0,1-.23,1.39,8,8,0,0,1-.45,1.49c-.24.5-.46.94-.67,1.32a6.13,6.13,0,0,1-.84,1.05,9.11,9.11,0,0,1-.84.75c-.29.17-.59.33-.88.48a7.87,7.87,0,0,1-1.06.34,7.13,7.13,0,0,1-.93.22,2.82,2.82,0,0,1-1,0l-.4-.05a.73.73,0,0,1-.5-.33.77.77,0,0,1-.15-.59.72.72,0,0,1,.33-.51.81.81,0,0,1,.59-.15l.4.09a.68.68,0,0,0,.35,0,5.55,5.55,0,0,0,.88-.21,5.73,5.73,0,0,0,.84-.26,3.66,3.66,0,0,0,.57-.35,3.49,3.49,0,0,0,.67-.52,4.6,4.6,0,0,0,.57-.75,10.29,10.29,0,0,0,.54-1.14,4.9,4.9,0,0,0,.4-1.19,7.45,7.45,0,0,0,.18-1.18c0-.44,0-.85,0-1.24a11.49,11.49,0,0,0-.17-1.27,13.49,13.49,0,0,0-.34-1.5,10.78,10.78,0,0,0-.61-1.43,7.71,7.71,0,0,0-.87-1.35c-.38-.47-.83-1-1.36-1.51L202.6,341a18.8,18.8,0,0,1-1.62-1.68,13,13,0,0,1-.91-1.37,8,8,0,0,1-.7-1.85,7.44,7.44,0,0,1-.21-2.07,10.4,10.4,0,0,1,1.21-3.87,7.9,7.9,0,0,1,1.07-1.45,4.82,4.82,0,0,1,1.32-1.07,4.26,4.26,0,0,1,1.59-.45,2.92,2.92,0,0,1,1.45.09,2.86,2.86,0,0,1,.92.41l.35.22a.73.73,0,0,1,.33.5.74.74,0,0,1-.11.6.8.8,0,0,1-.49.33.73.73,0,0,1-.57-.12"/><path class="cls-1" d="M214.56,327.9l.53-.13a8.85,8.85,0,0,1,1.36-.17l1.67-.08c.62,0,1.29-.08,2-.16s1.57-.16,2.33-.21a18.22,18.22,0,0,1,2.07-.12h1.58a10.14,10.14,0,0,0,1.11,0h.35a.69.69,0,0,1,.59.18.78.78,0,0,1,.26.55.74.74,0,0,1-.2.57.84.84,0,0,1-.53.28h-.35c-.27,0-.68,0-1.23,0H224.5a18,18,0,0,0-1.9.12,4.55,4.55,0,0,0-.52,0,1.26,1.26,0,0,1,0,.27v2.11a9.29,9.29,0,0,0,.08,1.24c0,.49.05,1,.08,1.58s0,1.16,0,1.8,0,1.28,0,2,.05,1.4.08,2.07,0,1.45,0,2.25-.06,1.47-.08,2.22,0,1.51-.07,2.29-.07,1.49-.1,2.13-.07,1.38-.1,2-.07,1.37-.1,2-.1,1.1-.1,1.54,0,.86,0,1.24,0,.67,0,.88v.3a.78.78,0,0,1-.23.55.71.71,0,0,1-.55.24.8.8,0,0,1-.57-.22.75.75,0,0,1-.24-.58v-.26c0-.2,0-.48,0-.83s0-.86,0-1.32a15.86,15.86,0,0,1,.1-1.68q0-.92.09-1.89c0-.67.07-1.35.1-2s.07-1.36.1-2.14.06-1.54.08-2.28,0-1.49.08-2.23,0-1.43,0-2.11-.06-1.41-.08-2.11,0-1.38,0-2,0-1.2,0-1.76-.05-1-.08-1.49a13,13,0,0,1-.08-1.37V329a.79.79,0,0,1,.05-.13.84.84,0,0,1-.27,0c-.76.09-1.47.14-2.13.17s-1.21.05-1.65.08a4.12,4.12,0,0,0-1.1.12l-.53.13a.94.94,0,0,1-.59-.11.67.67,0,0,1-.35-.49.77.77,0,0,1,.11-.61.67.67,0,0,1,.49-.33"/><path class="cls-1" d="M241.08,324.34l.31.27a.62.62,0,0,0,.35.18l.79.18.83.18a3.65,3.65,0,0,1,1.23.31,5.71,5.71,0,0,1,1,.49c.28.18.54.36.77.53a8.36,8.36,0,0,1,.66.67c.17.23.34.5.52.79a4.18,4.18,0,0,1,.48,1,4.36,4.36,0,0,1,.26,1.19c0,.3,0,.6,0,.93v1.05c0,.38,0,.79-.07,1.23a8.83,8.83,0,0,1-.21,1.19c-.06.35-.13.71-.22,1.06s-.18.69-.25,1-.14.68-.2,1-.2.75-.32,1.1-.25.66-.4,1-.25.75-.4,1.1-.3.72-.45,1a10,10,0,0,1-.6.9c-.22.3-.43.57-.64.81a3.62,3.62,0,0,0-.42.61,4,4,0,0,1-.6.79,5.75,5.75,0,0,0-.66.79l-.36.53a.94.94,0,0,1-.48.3c0,.65,0,1.31,0,2s0,1.31.08,1.9,0,1.09,0,1.53a8.55,8.55,0,0,1,0,1.24c0,.32,0,.6,0,.83v.79c0,.3,0,.59,0,.88a6.45,6.45,0,0,0,0,.66v.31a.75.75,0,0,1-.24.55.77.77,0,0,1-.55.24.75.75,0,0,1-.55-.24.79.79,0,0,1-.24-.56v-.3c0-.21,0-.46.05-.75V354a8,8,0,0,1,.05-.92,6.73,6.73,0,0,0,0-1.1c0-.44,0-.95,0-1.54s-.06-1.22-.08-1.89,0-1.41,0-2.12,0-1.55,0-2.46l0-7.83c0-.79,0-1.6,0-2.42s0-1.66,0-2.42.06-1.44.06-2,0-1.13.05-1.54.06-.8.1-1.1a2.19,2.19,0,0,1,.13-.52,2.83,2.83,0,0,1-.48-.31l-.26-.23a.81.81,0,0,1-.31-.55.68.68,0,0,1,.16-.57.79.79,0,0,1,.53-.28.86.86,0,0,1,.59.13m.91,19.94c.11-.14.25-.29.39-.44s.31-.36.4-.48c.18-.29.36-.55.54-.79s.36-.45.57-.74a8.46,8.46,0,0,0,.51-.79,6.45,6.45,0,0,0,.38-.79c.12-.35.25-.7.4-1.06s.24-.68.36-1a3.07,3.07,0,0,0,.22-.88c.09-.35.18-.7.25-1.05s.16-.72.25-1.1.16-.66.23-1a6.35,6.35,0,0,0,.18-1c0-.38,0-.73.05-1.06v-1c0-.33,0-.65,0-1a2.92,2.92,0,0,0-.17-.66,6.51,6.51,0,0,0-.3-.75c-.15-.21-.3-.4-.44-.58a1.89,1.89,0,0,0-.4-.44l-.61-.4a4.86,4.86,0,0,0-.79-.4,7.76,7.76,0,0,0-.79-.22,7.1,7.1,0,0,1-.79-.14.87.87,0,0,0-.09.4,4.28,4.28,0,0,0-.1.92c0,.38,0,.87,0,1.45s0,1.31-.05,2.07,0,1.54-.06,2.33,0,1.64,0,2.47l0,7.83v.26"/><path class="cls-1" d="M253.69,327.93a.81.81,0,0,1,.22-.57.78.78,0,0,1,.58-.22h.35a3.1,3.1,0,0,0,.66-.09l1-.08h1.63c.26,0,.51,0,.74,0l.31.09a.66.66,0,0,1,.48.33.76.76,0,0,1,.09.62.86.86,0,0,1-.36.51.67.67,0,0,1-.57.08l-.31-.09h-1.1c-.2,0-.47,0-.79,0l-.88.06-.75.09a.18.18,0,0,1,0,.09l-.09.35c0,.2-.07.54-.1,1s-.06,1.19-.09,2,0,1.63.07,2.59.08,2.15.07,3.35c0,1,0,2.11-.11,3.26h.18c.23,0,.6,0,1.1,0s.88-.1,1.06-.13l.26,0a.7.7,0,0,1,.57.16.75.75,0,0,1,.31.53.78.78,0,0,1-.16.59.73.73,0,0,1-.51.31l-.31,0c-.17,0-.52,0-1.05.08a12.42,12.42,0,0,1-1.28.08h-.31c-.09.91-.17,1.79-.23,2.64-.06,1-.1,2-.1,2.84s0,1.68,0,2.44.07,1.47.14,2.11l.15,1.41c0,.47.09.84.12,1.1a5.77,5.77,0,0,1,0,.8v.3a.89.89,0,0,1-.22.6.72.72,0,0,1-.55.24.86.86,0,0,1-.57-.23.75.75,0,0,1-.24-.57v-.31a5.89,5.89,0,0,0,0-.66c0-.29-.06-.61-.08-1s-.12-.92-.17-1.54-.1-1.41-.14-2.2-.06-1.64-.06-2.53,0-1.89.11-3,.2-2.26.32-3.61.15-2.53.15-3.72,0-2.26-.07-3.23-.07-1.91-.05-2.75.05-1.5.08-2a9.3,9.3,0,0,1,.14-1.32l.09-.35a.91.91,0,0,1,.31-.44Z"/><path class="cls-1" d="M271,326.88l-.14.31a1.24,1.24,0,0,0,0,.39v2.2c0,.47,0,1,0,1.45s.05.94.08,1.41.1,1,.12,1.5,0,1.08,0,1.67,0,1.16,0,1.81.06,1.29.08,1.93.08,1.34.08,2l0,5.37c0,.53,0,1,0,1.45s.06.84.09,1.19,0,.72,0,1.1.06.69.09,1,.05.59.08.89.11.56.15.81.08.49.11.73.1.39.13.57a1.55,1.55,0,0,0,.17.35.77.77,0,0,0,.22.22.41.41,0,0,0,.26.09,1.56,1.56,0,0,0,.58,0,4.53,4.53,0,0,0,.66-.13,2.53,2.53,0,0,0,.31-.26,3.52,3.52,0,0,0,.35-.57c.09-.27.19-.54.31-.84s.18-.57.27-.92a6.7,6.7,0,0,0,.18-1.23c.07-.47.11-1,.14-1.45s0-1,0-1.54,0-1,0-1.5,0-1.09,0-1.58,0-.93,0-1.46,0-1,0-1.41,0-.89,0-1.36v-1.36c0-.47,0-.91,0-1.32s-.05-.87-.08-1.37,0-1,0-1.41v-1.32c0-.44,0-.83,0-1.19s0-.8,0-1.18v-1c0-.36,0-.66,0-.93s0-.58.05-.88v-1.45l0-.35a.78.78,0,0,1,.74-.85.71.71,0,0,1,.57.2.84.84,0,0,1,.28.53l0,.35v.84c0,.26,0,.54,0,.83a7,7,0,0,0,0,.79,6.19,6.19,0,0,0,0,.84c0,.35,0,.7,0,1.05s0,.72,0,1.1,0,.81,0,1.28v1.32q0,.61,0,1.32c0,.47.06.92.09,1.37s0,.9,0,1.4v1.37c0,.44,0,.87,0,1.3s0,.9.06,1.43,0,1,0,1.49,0,1,0,1.46,0,1.1,0,1.62V350c0,.56-.08,1.08-.14,1.58s-.14,1-.23,1.41a8.6,8.6,0,0,1-.31,1.1l-.32.83a4,4,0,0,1-.62,1,2.45,2.45,0,0,1-1.1.79,6.45,6.45,0,0,1-.93.21,4.69,4.69,0,0,1-.92,0,2.23,2.23,0,0,1-.92-.31,3,3,0,0,1-.75-.76,7.18,7.18,0,0,1-.35-.84c0-.17-.07-.39-.12-.66a5.31,5.31,0,0,1-.15-.7c-.05-.27-.08-.56-.11-.88s-.1-.65-.13-1-.05-.68-.08-1.06,0-.7,0-1.05-.05-.8-.08-1.24,0-1,0-1.54l0-5.36c0-.62,0-1.25-.07-1.9s-.06-1.33-.08-2,0-1.26,0-1.85,0-1.09,0-1.6-.06-1-.08-1.44-.1-1-.13-1.49,0-1,0-1.5v-2.2a2.93,2.93,0,0,1,.18-1l.14-.31a.65.65,0,0,1,.4-.44.81.81,0,0,1,.61,0,.76.76,0,0,1,.44.42.75.75,0,0,1,0,.62"/><path class="cls-1" d="M289.06,327.68l-.18.44a1.31,1.31,0,0,0-.18.48,9,9,0,0,1-.09,1c-.1.59-.16,1-.19,1.19a11.42,11.42,0,0,1-.16,1.16c-.07.43-.16.88-.25,1.34a7,7,0,0,1-.36,1.32c-.14.33-.31.68-.49,1.06a8.81,8.81,0,0,1-.53,1.14,9.61,9.61,0,0,0-.58,1.05c-.21.38-.43.78-.66,1.18s-.52.78-.76,1.1-.47.68-.71,1.05l-.53.71V342a.73.73,0,0,1,.18.14c.35.21.62.38.83.53l.66.44c.23.18.48.39.74.62a8.34,8.34,0,0,1,.7.8c.18.26.35.54.52.84l.53.79c.17.3.35.62.52,1s.33.71.48,1.06l.43,1.15a8.8,8.8,0,0,1,.26,1.32c.06.35.12.69.17,1s.1.74.13,1.06,0,.66,0,1,0,.71,0,1v.75a6,6,0,0,1-.05.75v1.54a.8.8,0,0,1-.81.78.71.71,0,0,1-.55-.24.79.79,0,0,1-.22-.55v-1.67a4.32,4.32,0,0,0,0-.62v-.75c0-.23,0-.53,0-.88s0-.67,0-1-.07-.55-.12-.88-.12-.73-.17-1.14a4.45,4.45,0,0,0-.22-1,5.71,5.71,0,0,0-.34-1c-.15-.32-.31-.65-.48-1a3.33,3.33,0,0,0-.44-.84c-.15-.23-.3-.5-.48-.79s-.33-.47-.48-.71a6.79,6.79,0,0,0-.52-.62,4.44,4.44,0,0,0-.57-.49c-.18-.11-.37-.25-.57-.4,0,0-.05,0-.05,0l.08,1.76c.06.79.1,1.56.14,2.29s.09,1.44.14,2.11.06,1.24.09,1.68a13.14,13.14,0,0,1,.08,1.4c0,.42,0,.77,0,1.06s0,.62,0,.88,0,.5,0,.71,0,.39,0,.57,0,.47,0,.88a8.38,8.38,0,0,1-.05,1l0,.35a.68.68,0,0,1-.27.53.74.74,0,0,1-.59.17.8.8,0,0,1-.53-.29.91.91,0,0,1-.19-.59l0-.31a6.41,6.41,0,0,0,.05-.88c0-.41,0-.72,0-.92a4.21,4.21,0,0,1,0-.62c0-.18,0-.38,0-.62s0-.52,0-1v-1c0-.42,0-.84,0-1.28s-.09-1-.12-1.72-.1-1.38-.14-2.11-.09-1.48-.14-2.25l-.12-2.42c0-.29-.06-.6-.09-.92a.28.28,0,0,0,0-.09,1.19,1.19,0,0,1,0-.79,7.09,7.09,0,0,1,0-.79c0-.91,0-1.75-.08-2.51s0-1.5,0-2.2,0-1.31,0-2-.05-1.3-.06-1.87,0-1.14-.06-1.7,0-1.06,0-1.58a5.93,5.93,0,0,1,.14-1.36l.13-.4a.92.92,0,0,1,.42-.5.7.7,0,0,1,.6-.05.86.86,0,0,1,.46.4.78.78,0,0,1,.06.6l-.13.44a3.67,3.67,0,0,0-.1.88c0,.46,0,1,0,1.54s0,1.11,0,1.67.06,1.18.08,1.87,0,1.37,0,2.05,0,1.39,0,2.15c0,.33,0,.66,0,1l0,0c.21-.29.43-.63.67-1a6,6,0,0,0,.57-1c.21-.38.42-.75.63-1.1a7.16,7.16,0,0,0,.48-1l.45-1.1a3.21,3.21,0,0,0,.27-1c.12-.47.21-.89.27-1.28s.12-.78.16-1.12.1-.74.16-1.21a7,7,0,0,0,.09-.92,5.22,5.22,0,0,1,.27-1l.23-.44a.68.68,0,0,1,.39-.39.75.75,0,0,1,.62,0,.84.84,0,0,1,.44.45.67.67,0,0,1,0,.57"/></svg>