<?xml version="1.0" encoding="utf-8"?>
<!-- Generator: Adobe Illustrator 21.1.0, SVG Export Plug-In . SVG Version: 6.00 Build 0)  -->
<svg version="1.1" id="Vrstva_1" xmlns="http://www.w3.org/2000/svg" xmlns:xlink="http://www.w3.org/1999/xlink" x="0px" y="0px"
	 viewBox="0 0 15 17.9" style="enable-background:new 0 0 15 17.9;" xml:space="preserve" fill="#bb133e">

<g>
	<path class="st0" d="M15,6.3v10.5c0,0.3-0.1,0.6-0.3,0.8s-0.5,0.3-0.8,0.3H1.1c-0.3,0-0.6-0.1-0.8-0.3S0,17.1,0,16.8V1.1
		c0-0.3,0.1-0.6,0.3-0.8S0.8,0,1.1,0h7.5c0.3,0,0.7,0.1,1,0.2c0.3,0.1,0.7,0.3,0.9,0.6l3.7,3.7c0.2,0.2,0.4,0.5,0.6,0.9S15,6,15,6.3
		z M1.5,16.4h12v-9H8.6C8.3,7.4,8,7.3,7.8,7.1C7.6,6.9,7.5,6.6,7.5,6.3V1.4h-6V16.4z M12,9.3v0.8c0,0.1,0,0.2-0.1,0.3
		s-0.2,0.1-0.3,0.1H3.4c-0.1,0-0.2,0-0.3-0.1S3,10.2,3,10.1V9.3C3,9.2,3,9.1,3.1,9s0.2-0.1,0.3-0.1h8.2c0.1,0,0.2,0,0.3,0.1
		S12,9.2,12,9.3z M12,12.3v0.8c0,0.1,0,0.2-0.1,0.3s-0.2,0.1-0.3,0.1H3.4c-0.1,0-0.2,0-0.3-0.1S3,13.2,3,13.1v-0.8
		c0-0.1,0-0.2,0.1-0.3s0.2-0.1,0.3-0.1h8.2c0.1,0,0.2,0,0.3,0.1S12,12.2,12,12.3z M9,5.9h4.4c-0.1-0.2-0.2-0.4-0.3-0.5L9.5,1.8
		C9.4,1.7,9.2,1.6,9,1.5V5.9z"/>
</g>
</svg>
