<svg id="Vrstva_1" xmlns="http://www.w3.org/2000/svg" viewBox="0 0 19.5 21"><style>.st0{fill:gray}</style><path class="st0" d="M19.5 4.5v15c0 .4-.1.8-.4 1.1s-.7.4-1.1.4H1.5c-.4 0-.8-.1-1.1-.4s-.4-.7-.4-1.1v-15c0-.4.1-.8.4-1.1S1.1 3 1.5 3H3V1.9c0-.5.2-1 .6-1.3S4.4 0 4.9 0h.8c.5 0 1 .2 1.3.6s.6.8.6 1.3V3H12V1.9c0-.5.2-1 .6-1.3s.8-.6 1.3-.6h.8c.5 0 1 .2 1.3.6s.6.8.6 1.3V3H18c.4 0 .8.1 1.1.4s.4.7.4 1.1zm-18 6.4h3.4V7.5H1.5v3.4zm0 4.5h3.4v-3.8H1.5v3.8zm0 4.1h3.4v-3.4H1.5v3.4zM6 5.2V1.9c0-.1 0-.2-.1-.3s-.2-.1-.3-.1h-.7c-.1 0-.2 0-.3.1s-.1.2-.1.3v3.4c0 .1 0 .2.1.3s.2.1.3.1h.8c.1 0 .2 0 .3-.1s0-.2 0-.4zm-.4 5.7h3.8V7.5H5.6v3.4zm0 4.5h3.8v-3.8H5.6v3.8zm0 4.1h3.8v-3.4H5.6v3.4zm4.5-8.6h3.8V7.5h-3.8v3.4zm0 4.5h3.8v-3.8h-3.8v3.8zm0 4.1h3.8v-3.4h-3.8v3.4zM15 5.2V1.9c0-.1 0-.2-.1-.3s-.2-.1-.3-.1h-.8c-.1 0-.2 0-.3.1s-.1.2-.1.3v3.4c0 .1 0 .2.1.3s.2.1.3.1h.8c.1 0 .2 0 .3-.1s.1-.2.1-.4zm-.4 5.7H18V7.5h-3.4v3.4zm0 4.5H18v-3.8h-3.4v3.8zm0 4.1H18v-3.4h-3.4v3.4z"/></svg>