<svg id="Vrstva_1" xmlns="http://www.w3.org/2000/svg" viewBox="0 0 94 62.7"><style>.st0{fill:#fff}.st1{fill:#164194}.st2{fill:#ffed00}</style><path class="st1" d="M0 0h94v62.7H0z"/><path class="st2" d="M45 13.7l2-1.5 2 1.5-.8-2.4 2-1.4h-2.4L47 7.5l-.8 2.4h-2.4l2 1.4zm-10.3 2.7l2-1.4 2 1.4-.7-2.3 2-1.5h-2.5l-.8-2.3-.7 2.3h-2.5l2 1.5zm-5.5 1.4l-.7 2.4H26l2 1.4-.8 2.3 2-1.4 2 1.4-.8-2.3 2.1-1.4H30zm-2.7 15l1.9 1.4-.7-2.3 2-1.5h-2.5l-.7-2.4-.8 2.4h-2.5l2 1.5-.7 2.3zm3.5 7.9l-.8-2.4-.7 2.4H26l2 1.5-.8 2.3 2-1.5 2 1.5-.8-2.3 2.1-1.5zm7.5 7.5l-.8-2.3-.7 2.3h-2.5l2 1.5-.7 2.3 1.9-1.4 2 1.4-.7-2.3 2-1.5zM47.8 51l-.8-2.4-.8 2.4h-2.4l2 1.4-.8 2.3 2-1.4 2 1.4-.8-2.3 2-1.4zM58 48.2l-.7-2.3-.8 2.3H54l2 1.5-.7 2.3 2-1.4 1.9 1.4-.7-2.3 2-1.5zm7.5-7.5l-.7-2.4-.8 2.4h-2.5l2.1 1.5-.8 2.3 2-1.5 2 1.5-.8-2.3 2-1.5zm5.3-10.3h-2.5l-.8-2.4-.7 2.4h-2.5l2 1.4-.8 2.4 2-1.5 2 1.5-.8-2.4zm-8-6.5l2-1.4 2 1.4-.8-2.3 2-1.5h-2.5l-.7-2.3-.8 2.3h-2.5l2.1 1.5zm-5.5-13.6l-.8 2.3H54l2.1 1.5-.8 2.3 2-1.4 2 1.4-.8-2.3 2-1.5H58z"/></svg>