<svg id="Layer_1" xmlns="http://www.w3.org/2000/svg" xmlns:xlink="http://www.w3.org/1999/xlink" viewBox="0 0 377.2 99.6"><style>.st0,.st1{clip-path:url(#SVGID_2_);fill:#c6093b}.st1{fill:#fff}.st2{fill:#c6093b}</style><defs><path id="SVGID_1_" d="M0 0h99.6v99.6H0z"/></defs><clipPath id="SVGID_2_"><use xlink:href="#SVGID_1_" overflow="visible"/></clipPath><path class="st0" d="M50 98.9C22.9 98.9.9 77.1.8 50 .8 22.9 22.7.9 49.7.9 76.8.8 98.8 22.7 98.8 49.8c.1 26.7-21.8 49-48.8 49.1M49.7 0C22.2.1-.1 22.4 0 49.9c.1 27.5 22.4 49.8 49.9 49.7 27.5-.1 49.8-22.4 49.7-49.9C99.5 22.2 77.2-.1 49.7 0"/><path class="st0" d="M48.4 5.6c.2 0 .4.2.4.7 0 .7-.1 1.5-.3 2h1.7c-.3-.7-.4-1.6-.4-2-.1-.5.2-.7.5-.7.2 0 1.3 0 1.8.3V4.3c-.6.3-1.2.4-1.8.4-.3 0-.5-.1-.6-.5-.1-.7 0-1.6.2-2.2-.6 0-.9-.1-1.5 0 .4.6.4 1.8.4 2.1 0 .2-.2.6-.5.6-.6 0-1.2-.1-1.8-.3v1.5c.5-.3 1.3-.4 1.9-.3"/><path class="st1" d="M74.9 29.8c0 .2-.2.4-.4.4s-.4-.2-.4-.4.2-.4.4-.4.4.2.4.4m-55.2-1.4c0 .2-.2.4-.4.4s-.4-.2-.4-.4.2-.4.4-.4.4.2.4.4"/><path class="st0" d="M42.4 7.4c.1-.2.2-.4.4-.9.4.3 1.7.7 1.1 1.6-.2.4-.9.1-1.3 0s-.4-.3-.2-.7m-.5-3.6c.2-.4 1.1-.2 1.5.2.2.2.1.4 0 .5l-.5.8c-1.2-.7-1.3-1-1-1.5m-5.7 1.1c.5-.1.7-.3.8.1.4 1.3.7 2.2 1 3.7.2.7-.4.6-.6.7-.4.2-.2.8.2.7 1.1-.4 2.1-.6 3.3-.8.3 0 .5-.3.7-.5.2-.2.4 0 .8.1.5.2 2.4.6 2.9-.9.4-1-.7-1.9-1.7-2.5.4-.8 1.2-2.2 1.6-2.7.2-.2-.3-.6-.5-.4-.1.1-.3.4-.4.5-.2.2-.3.3-.8 0-.8-.5-2.5-.4-3 .8-.3.7.2 1.6 1.4 2.3.2.2.1.4.1.6-.3.8-.6 1.1-1.1 1.9-.1.2-1.2.6-1.5-.3-.5-1.4-.6-1.9-1-3.4-.1-.5.7-.6 1-.6.4-.1.2-.7-.1-.7-1.2.3-2.1.5-3.3.9-.2 0-.1.6.2.5m22.1 2.9c.1-.1.3-.3.4-.5.3-.2.5-.4.7-.2.4.4 1.2 1.1.5 1.7-.5.4-1.1.1-1.5-.4-.2-.2-.3-.4-.1-.6m1.3-3.6c.3-.3.8-.2 1.1.1.2.1.1 0 .2.2.2.2.3.5.1.6-.2.2-.3.3-.5.4-.2.1-.4.5-.7.2l-.3-.3c-.2-.3-.2-.9.1-1.2m-2.7 4.9c.3-.2.5-.5 1.1 0 1.5 1.3 2.8.6 3.3-.1.4-.6.3-1.6-.8-2.6l2.6-2.1c.2-.2-.1-.6-.3-.5-.4.3-.9.4-1.2.1-2.6-2.2-4.6.4-3 2.5l-2.1 2.3c-.3.2.2.6.4.4M32.1 6.5c.1-.6 2.1-.7 2 0 0 .3-.2.7-.2.9-.5-.1-1.9.1-1.8-.9M35 9.8c-.1.9-1.5.6-1.7.6-.1 0-.2-.1-.1-.3 0-.3.2-1.2.2-1.2.7 0 1.7.1 1.6.9m-2.5-1.1c-.1.9-.4 2.2-.6 3.2-.1.4.5.5.6.2.1-.3.2-.6.4-.8 1.4.3 3.3.2 3.5-1.6.2-1.6-1.2-1.8-1.8-2 .1-.9.3-2.2.6-3 .1-.3-.4-.5-.6-.1-.1.2-.2.4-.3.8-2.5-.3-3.5.5-3.6 1.5-.2.7.4 1.5 1.8 1.8m29.7.9c-.3 0-.4.5-.2.5 1.1.3 1.9.6 3.1 1.1.3.1.4-.4.2-.5-.3-.2-.9-.5-.7-1.2.3-1.2.6-2 1.1-3.3.2-.5.6-.2 1-.2.3 0 .4-.4.2-.5-.6-.3-2.3-.8-3-1-.3-.1-.5.4-.2.6.2.1.8.2.7.7-.4 1.3-.6 2.3-1.1 3.5-.1.4-.8.3-1.1.3m5.5 2.9c.5.3 1.5.6 2.4.1.8-.4 1.8-2.2.6-2.8-.3-.2-1-.5-1.6-.7-.3-.1-.6.4-.2.6 1.8.7.7 2.6-.7 2.1-.3-.1-.6-.3-.5-.8.1-.7.9-2.7 1.4-3.3 1-.8 2.1 0 2.3.7.1.3 0 .4-.2.6-.2.1 0 .6.3.5.8-.4 1.3-.7 2.1-1 .2-.1 0-.6-.3-.5-.3.1-1.1.4-1.4-.2-.8-1.5-3.3-2.3-4.8.7-1.4 2.6-.1 3.7.6 4m-47.7.8c1.2-.9 1.7.1 1.8.3.2.2.2.3 0 .5-.3.2-.6.5-.8.7-.2.2-.5.4-.7.3-.3-.2-1-1.3-.3-1.8m2.7 1.4c.3.3.5.6.8 1 .2.2.2.4.1.6-.1.2-.8 1.8-2.3-.1-.1-.2-.2-.3 0-.6l.9-.9c.2-.1.4-.1.5 0m-2.1 3c.7.5 1.5.9 2.3.5.7-.4 1.4-1.2 1.7-1.9 0 0 .6-.1 1.1-.3.3-.2 2.3-1.5 3.5-2.2.3-.2 0-.6-.3-.6-.4.1-.7.3-1 .1-.3-.3-1.4-2.2-2.1-3.5-.2-.3.2-.4.7-.7.4-.2 1-.4 1.2 0 .9 1.9 1.7 3.7 2.2 3.9.4.2 1.2-.1 1.4-.6.2-.5-.2-.7-.5-.6-.3.2-.5.2-.7-.1-.6-.8 0-2.1-.3-2.8-.2-.5-1.9-1.3-2.3-1.3-.6.1-2.4 1.1-4.2 2.5-.3.2 0 .6.3.5.3-.1.7-.4.9-.1l2.1 3.3c.2.4-.3.8-.8 1.1-1.1.7-1.7-.3-2.4-1.2-.9-1.3-1-2.1-.8-2.5.2-.3 0-.5-.2-.5-.4.1-.7.5-.8 1-.1.3-.2.3-.5.4-1.1.3-2.4.7-2.5 1.8-.1 1.5.7 2.8 2 3.8m53.5-7.3c-.6 1.2-1 2-1.7 3-.4.5-.7.2-1.3-.1-.3-.1-.5.4-.3.5.5.3 1.8 1.2 2.8 1.8.2.2.6-.2.4-.5-.2-.2-.7-.4-.4-1 .7-1.3 1-2 1.8-3.1.3-.5.9-.2 1.1-.1.3.1.5-.4.3-.5-.9-.5-1.8-1.1-2.7-1.6-.3-.2-.7.2-.4.5.3.4.6.6.4 1.1m3.6 2.4c-.9 1.3-1.2 1.8-2.3 3.2-.2.2-.5-.1-.7-.1-.2-.1-.5.4-.3.6.4.3 2.6 2 3.7 3 .2.2.6 0 .4-.4-.1-.3-.5-.7 0-1.2 1-1 1.7-1.4 2.8-2 .4-.3.6 0 .9-.1.3 0 .3-.4.1-.6-1.3-.8-3.6 1.1-5 1.9-.4.3-.9-.1-.6-.6.8-1.1 1.3-1.8 2.2-2.9.4-.4.7-.1.9 0 .2.1.6-.3.4-.4-.9-.7-1.3-1.1-2.2-1.8-.3-.3-.7.2-.4.4-.1.2.5.5.1 1m-58.4 9.1c.9-.9 1.4-2.2.4-3.3-.9-1.1-2.4-.4-2.9.5-.3.5 0 .8.3.6.6-.3.9-.6 1.5.1.5.7.7 1 .3 1.5-.4.4-1.1.3-1.6.1-.7-.3-1.6-1.1-2.3-2.1-.4-.5-.2-1.3.2-1.7 1.4-1.1 1.6.1 3-.1.3 0 .4-.4.2-.5-1.1-.6-1.3-1.1-1.5-1.9-.1-.4-.6-.2-.6.1 0 .4.1.7-.3 1-1 .6-1.4.8-1.9 1.5-.9 1-.4 2.6.8 3.9 1.3 1.2 2.9 1.7 4.4.3m63.4-4.7c-.9 1-1.4 1.6-2.6 2.7-.2.2-.4 0-.6 0-.3-.1-.6.2-.4.5 1 1.2 2.4 2.6 3.2 3.6.2.3.6 0 .5-.4-.2-.5-.5-.6 0-1.1.7-.7 1.6-1.2 2.8-1.8.7-.3 1.2.7.9 1.3-.9 1.6-1.5 2.5-2.3 4.2-.1.1.1.3.2.4 2.6.2 4.9-.5 5.7-.1.3.3.8 0 .6-.3-.5-.9-.7-1.2-1.3-2.2-.2-.3-.6-.1-.6.2 0 .3.2.4-.2.6-1.1.6-1.8.8-3.2 1-.3 0-.4 0-.2-.2.8-1 1.5-1.8 2.4-2.5.2-.2.4-.1.5.1.2.2.6-.1.5-.4-.7-1-1-1.6-1.8-2.6-.8-1.2-3.5.5-4.9 1.1-.5.2-1.1-.2-.6-.7l2.4-2.4c.5-.4.7.1.9.2.3.2.7-.2.4-.5 0 0-1.6-1.5-1.8-1.8-.2-.2-.6 0-.5.3.1.4.3.5 0 .8M11 23.5c.2-.2.5-.6.7-.4.2.2 1 .7 1.2.9.3.2-.1.6-.2.7 0 0-.4.6-.5.7-.1.2-.3.3-.4.2-.4-.3-.5-.5-.8-1-.2-.3-.3-.6 0-1.1m-1.8 2.8c.3-.6.5-.9.7-1.2.2-.2.3.1.3.1 0 .2 0 1.3.4 1.8.6.6 1.8.1 2.2.6.3.3.4.7.3 1-.2.8.8 1.2 1 .3.3-1.1-.7-1.5-1.2-2.3-.2-.2-.1-.2.1-.5.1-.2.7-1.1.9-1.4.5.3.5.3.9.7.5.5-.2 1.1-.4 1.5-.1.3.4.7.6.4.7-1.2 1.6-2.5 2.2-3.3.3-.4-.3-.7-.6-.5-.4.3-.7.9-1.2.6-1.1-.8-1.8-1.2-3-2.1-.4-.3.2-.9.4-1.4.1-.3-.3-.6-.5-.4-1.3 1.8-2.6 3.7-3.7 5.7-.2.3.4.8.6.4M7 30.4c.2-.5.5-1.1 1.1-.9 1 .5.2 1.8 0 2.2 0 0-1-.3-1.2-.4-.1-.1 0-.7.1-.9m-1.4 2.5c.2-.3.3-.5.7-.4 1.5.5 3.5 1.3 3.5 1.3.6.2.5.5.3 1.4-.1.3.5.6.6.3.4-1.2 1.3-3.2 1.3-3.2.1-.2-.4-.5-.6-.3-.1.2-.4.8-.8.7L9 32.1c.7-2.1 2.1-.5 3.3-.8.7-.2.9-.7.8-1.5-.1-.5-.6-.4-.6-.1 0 .4-.3.5-.5.5-.4 0-.8-.5-1.2-.6-.4-.1-.8 0-1 .3-.1.2-.3.2-.3 0 .1-.8-.2-1.4-.8-1.7-.5-.2-1.3-.1-1.8.9 0 0-1.1 2.4-1.7 3.8-.3.1.2.3.4 0m83.5-6c-.9.3-1.5 2.1-2.2 2.2-.5.1-.5-1.2-1-.7s.4 2 1.6 1.3c1.2-.6 1.7-.8 2.9-1.4.3-.1.7-.4.9 0 .2.4-.3.7-.6.9l-2.4 1.2c-.3.1-.4.3-.7.1-.2-.1-.4.1-.4.3.2.4.3.7.4.9.1.2.5.1.4-.1 0-.2.1-.1.3-.3 1.3-.7 1.5-.9 2.8-1.4.7-.3 1.4.3.5.7-1.3.6-1.9.9-3.2 1.5-1 .5-.3 2 .1 1.9.6-.2 0-1.1.5-1.4.3-.2 2.2 0 2.8-.1.5-.2 1.3-2.2 1.2-2.5-.1-.2-1-.9-1-1.1-.1-.2 0-1.2-.1-1.4 0-.3-2.1-.8-2.8-.6M4.7 36.3c.3-.9.3-1.2 1.4-1 1.1.2.9 1 .8 1.6 0 .3-.2.5-.3.4-.8-.2-1-.3-1.8-.5-.2 0-.2-.2-.1-.5M4 38.8c.1-.4.3-.7.6-.6 1.6.4 2.1.6 3.6 1.1.6.1.3.9.2 1.4-.1.3.6.5.6.1.1-.5.7-2.9 1.1-3.9.2-.4-.5-.5-.6-.2-.3.5-.4 1.4-1 1.3-.5-.1-.6-.2-1.1-.3.2-1.1 1-3.2-1-3.6-1-.2-1.7 0-2 .6-.6 1.3-.9 2.9-1.1 4.1 0 .1.6.2.7 0M92.6 34c-.4.2-.5.6-.4 1 .2.4.6.4.9.3.3-.1.6-.4.4-.9-.1-.3-.5-.5-.9-.4m-2.5 1.1c-.4.2-.5.6-.3 1s.7.4 1 .2c.2-.2.5-.5.3-1-.3-.4-.7-.4-1-.2m6.7 14c0 .4-.1 1.1-.6 1.1 0 0-2.9.1-3.5.1-.4 0-.6-.3-.6-.7-.1-1 .1-1.7.7-1.8 1.2-.2 1.5.7 2.3.7.5 0 2.4-1 2.3-2-.2-2.1-.3-4.4-.9-6.3-.1-.3-.2-.3-.5-.3-1.3.3-2.3.2-3.7.1-.5 0-.4-.2-.2-.4 1.1-.8 1.9-1.2 2.8-1.6 1.1-.4 1.1 0 .9-.7-.3-1-.3-1.3-.6-1.9-.1-.3-.6-.2-.6.1.1 1.4-2.4 2.7-3.9 4.2-.2.2-.1.5.1.5 2 .7 2.9.4 4.8 1.3.3.2.5.5.6 1 0 .3.2.6-.4.7-1.2.1-2.1.2-3.6.2-.5 0-.6-.7-.8-1.5-.1-.3-.6-.2-.6.1 0 .3.4 4.1.4 4.1 0 .3.6.3.6 0 .1-.5-.2-1.3.4-1.3 1.4-.2 2.1-.2 3.6-.3.6 0 .5.2.6.6v.4c0 .4-.3.8-.6.8-.4 0-3 .2-3 .2-2.4.3-1.1 2.4-1.7 6.3-.1.5.6.5.7 0 .1-.6.2-1.5.7-1.5.4 0 3-.1 3.5-.1.4 0 .4.4.5.8v.8c-.1.2-.1.4-.4.6-1.6.6-5 1.4-5.1 1.9 0 .7 2.9 2.3 4.2 3.7.4.3.4.8.4 1.1.1.3.5.3.6-.1.3-1.3.5-2.5.5-2.9 0-.4-.5-.3-.6-.1-.1.3 0 .5-.6.3-.7-.2-3-1.2-3.4-1.5-.3-.2-.3-.3.1-.3 1.5-.2 3.8-.3 4.3-.1.2.1.3.4.5-.4.3-2.3.3-5.4.3-5.9.1-.4-.5-.3-.5 0M4.2 40.8c-.2.4-.2.8.1 1 .3.3.9.2 1.1-.1.2-.3.2-1-.2-1.2-.4-.1-.9.1-1 .3m-1.3 5.5c0-.4.1-1.1.2-1.3.4.2.5 1.1 1.3 1.2.6.1 1.5-.7 2.3-.7.8.1.9.8 1 1.3 0 .2.4.2.5 0 .2-.5.3-1.5-.4-2-.8-.5-1.6-.3-3.1-.4-1-.1-1.5-.8-1.5-1.7 0-.3-.5-.4-.6-.1-.1.3-.4 2.8-.3 3.5 0 .4.6.5.6.2m3.8-5c-.4.2-.5.5-.4.9.2.4.6.5 1 .3.3-.2.4-.6.3-1-.1-.2-.5-.4-.9-.2m-3.8 9.5c.1-.5 0-.8.4-.8 1.4-.1 2.2-.1 3.6 0 .4 0 .3.6.4 1.1.1.3.6.3.6 0 0-.7 0-2.4.1-3.1 0-.5-.6-.5-.7 0-.1.3.1.8-.5.8-1 0-2.5-.1-3.5-.1-.5 0-.3-.7-.5-1.1-.1-.3-.6-.3-.6.1 0 .6.1 2.3 0 3.3.1.1.6.1.7-.2m.4 4.2c-.1-.4-.1-.8-.1-1.1 0-.2.1-.6.4-.7 1.2-.1 2-.2 3.2-.2.4 0 .6.5.7.7 0 .2.1.5.1.9-1.4.3-2.9.4-4.3.4m1.5 9c.3-1.7 2.8-2.6 4.4-4.1.1-.1.1-.4-.1-.4-2-.7-3.9-.8-4.8-1.2-.8-.3-.8-.8-.8-1.3 0-.2 0-.5.3-.6 1.3-.2 2.3-.2 3.6-.2.6 0 .5.3.7 1.1.1.3.6.3.6-.1-.3-2.4-.2-3.4-.7-4.4-.8-1.4-5.3-1.5-5.5.5-.2 1.1.3 3.9.8 6.9 0 .3.5.2.6-.1.1-.6.4-.5.6-.5.8 0 2.3 0 3.4.2.4 0 .4.1.1.3-1.2.7-2 1.2-3.3 1.6-.2.1-.3.1-.5-.2-.2-.2-.6.1-.5.3.3 1 .4 1.3.7 2.3-.1.2.4.3.4-.1m3.7 4.6c-.4-.1-.6-.1-1.1-.2-.2 0-.5 0-.6-.4-.2-.5.2-.6.5-.7.6-.3 2-.9 2.7-1.2.6-.3.7.4 1.3 1.1.2.3.8 0 .6-.3-.8-1.3-1.2-2.5-1.8-3.9-.2-.4-.7-.1-.6.2.3 1.1.6 1.5 0 1.7-1.1.4-2.4 1-2.8 1.2-.3.2-.7.3-.8-.1-.2-.4 0-.5.2-.7.3-.4.7-.7.8-.9.1-.2 0-.6-.4-.4-.5.2-1.2.4-2 .9.6 1.7 1.3 3.1 2 4.8.9-.2 1.2-.3 2.1-.5.4-.1.4-.6-.1-.6m86.1-5.3c-.6 0-1.1-.2-1.6-.4.1-.4.4-1.5.5-2 1.2.3 2.1 1.2 1.1 2.4m-2.3-.7c-.6-.1-1.1-.3-1.8-.5-.4-1.8.9-1.9 2.2-1.5 0 .6-.3 1.6-.4 2m-.9 4.6l1.6.6c-.6 2.7-3 1.7-1.6-.6m-3.6 5.3c-.9.5-1.6.8-1.9.1-.1-.3 0-1 .7-1.2.3-.1.7 0 1.2 1.1m2.3 1.2c.1.3-.2.9-.9 1.1-.8.2-1.1-.3-1.3-.9.6-.2 1.9-1.2 2.2-.2m5.4-12.9c-1.1-1.6-3.5-2.4-4.9-1.5-1.3.7-.6 2.9-1 3.5-.6.9-1 2.2-1.5 3.5-.1.4.3.6.5.3s.4-.3.6-.2c.4.2.9.4 1.5.6-.5 1.3-1.1 1.3-1.9.9-.7-.4-2.4.2-2 2.2.1.7-.3.7-.6.9-.3.1-2.2 1-1.1 2.8.5.9 1.3 1 2.4.6.3.7.6 1.2.9 2 .1.3-.1.6-.4 1-.3.3-.8.9-1.2.7l-2.6-2c-.5-.3 0-.7.2-1.5.1-.3-.3-.6-.5-.3-.9 1.2-1.4 1.8-2.4 3-.3.3.2.6.5.4.8-.6.9-1.1 1.5-.6l2.4 1.8c.4.3 0 .9-.3 1.4-.1.3.2.7.6.3 1-1.1 1.9-2.4 2.8-3.6 0-.3-.1-.4-.1-.7-.1-.6.4-.6.9-.8.6-.2 1.8-1.3 1.2-2.7-.5-1.1-1.8-.9-2.6-.5-.4-.8-1.5-2.4-.8-2.9.5-.4 1.5.6 2.2 0 .4-.4.5-.4.5.2 0 .6.3 1.1.9 1.3.7.2 1.5 0 2.1-1.2.4-.9.8-1.6 1.3-3.3.1-.4-.3-.6-.5-.2-.3.3-.7.5-1.1.3-1.3-.5-1.7-.6-3-1.2-.4-.2-.5-.5-.1-1.2.3-.6.8-1.1 2.8-.3 2 .7 1.5.8 1.9 1.5.2.4.7.3.6-.1-.4-2.5 1.5-2.7.3-4.4M12.2 72.2c-.8 0-1.1 0-1-.5.1-.6.2-1 .8-1.1.6 0 .8.4.9 1 .1.7-.1.6-.7.6m-3.2.3c-.4 0-.6-.8-.5-1.3 0-.3.5-.5 1.5-.3-.1.7.1 1.8-1 1.6m5.5-.1c-1.8-.1-.1-2.7-2.4-3.1-1-.2-1.6.1-1.9.8-1.1.1-2.1-.1-3.1 0-.2 0-.4 0-.4.2 0 .3.1.5.3.4 1.5 0-.3 2.6 1.9 3.3 1.2.3 1.8-.6 2.1-1.1 1.3-.1 2.4.1 3.6.1.4.1.3-.6-.1-.6M13 75.5c.3-.1.5-.5.3-.9-.2-.5-.7-.5-1-.4-.3.2-.5.6-.3.9.1.5.6.6 1 .4m4.4 3.7c.1-.8 1-.4 1.2-.4.2.1.7 0 .3-.7-.2-.4-.7-.5-1.2-.2-1.3.6-2.1 2.2-2.7 2.7-.4.4-.8 0-.9-.1-.2-.3 0-.3.1-.4 1-.9 1.7-1.6 2.7-2.5.1-.1.2-.1.2-.1.2.1.4-.1.3-.3-.1-.1-.3-.4-.4-.6-.2-.4-.5-.1-.5 0 .1.1 0 .2-.1.3-.9.9-1.7 1.6-2.7 2.5-.2.2-.2.3-.4.1-.2-.3-.2-.6 0-.8.9-1 1.8-1.4 2.8-2.3.2-.2.4-.7-.1-1.3-.6-.6-1 .3-.7.5.2.1.4.2.1.5-.8.7-1.9.3-2.3.5-.4.2-.8 1.6-.7 2.5.1.5.5 1 .9 1.5s.7 1 1.2 1c.7.1 2.3-.1 2.5-.4.3-.4.2-1 .4-2m9.8 11.3c-.1.2-.4.1-.6 0-.3-.2-1.4-.6-.8-1.4.5-.6 1.6 0 2 .2-.3.6-.4.7-.6 1.2m1.1.4l1.4-2.9c.2-.3.4-.5.9-.3.2.1.4-.3.2-.5-.5-.4-1.4-.9-1.9-1.2-.4-.3-.7.2-.4.4.2.2.4.4.2.8l-.7 1.4c-2.1-1.1-.1-2.3-.6-3.3-.3-.5-.9-.5-2-1.4-.9-.6-1.6-1.2-2-1.7-.2-.2-.6.2-.4.5.3.3.9.9.5 1.5-.4.7-.8 1.2-1.1 1.7-.4.6-.8 1.1-1.5.5-.5-.4-.4-.5-.2-1.3.3-1 .7-2.3 1.1-4.2 0-.2-.2-.4-.4-.3-1.7.6-3.1 1.1-3.7 1.3-.5.2-1.2.4-1.7.2-.3-.1-.7.2-.4.5.6.7 1.1 1.1 1.6 1.6.2.2.6-.1.5-.3-.1-.2.1-.4.2-.5.8-.8 1.5-1.2 2.8-1.8.2-.1.3-.1.2.2-.5 1.4-1 2.7-2.2 3.7 1.3 1.3 3.8 3.2 4.3 3.5.2.2.6-.2.4-.5-.3-.3-.6-.6-.4-1l1.5-2.4c.3-.5.8-.3 1.3.1 1.5 1.1-1 1.4.2 2.7.3.3.1.3-.1.2-.3-.1-1-.1-1.3.3-1.3 1.8 3.5 3.8 4 4.1.2.1.5-.4.3-.6-.5-.4-.7-.5-.6-1m55.1-11.1c.1.3.2.5.4 1.1.2.5.2.5-.1.9-.4.4-.5.3-1.1-.2-.8-.8-1.1-1.1-2-1.9-.3-.3.3-.8.5-1.2.2-.3-.1-.7-.4-.4-1 .9-1.7 1.5-2.7 2.3-.2.2 0 .6.4.5.9-.2 1-.6 1.4-.3l1.9 1.9c.5.5.6.6.3.8-.4.3-.5.1-1 0-.4-.1-.4-.1-1.1-.3-.2 0-.5.3-.2.5.9.6 1 .7 1.9 1.2 1.4-1 2.2-2 3.5-3.2-.5-.8-1.1-1.8-1.4-2 0-.1-.3 0-.3.3"/><path class="st0" d="M77.7 87c-.2.4-.7.8-1 .3-.2-.4-.5-.8-.9-1.5l1.5-1.5c.4.9.9 1.5.4 2.7m2.8-2c-.6.4-1 .8-1.5 1-.1-.6.4-1.3.1-1.7-.3-.4-2.3-.9-1.6-2.5.3-.5-.1-.8-.6-.4-.9.6-.3 1.4-.1 2.3-.3.4-1 1.1-1.5 1.6-.4-.6-.8-1.1-1.1-1.7-.5.3-1.6 1.1-1.7 1.2-.3.2-.1.6.2.5.4-.2.7-.5 1-.1.8 1.2 1.2 1.9 2 3.1.2.3.1.5-.2.7-.2.2.1.7.4.5.2-.2 5.1-3.9 5.1-3.9.3-.3-.2-.8-.5-.6m-48.9 7.7c-.6-.3-.4-.8.2-1.7.1-.1.3-.1.6-.1l1.1.4c-.3.4-.8 1.9-1.9 1.4m9.7-1.8c-1.5-.4-2.3-.6-3.8-1.1-.4-.2-.7.4-.4.5.2.2.2.4.2.5-.5 1.2-.8 1.7-1.8 2.8-.5.5-1.3.1-2-.1-.2-.1-.2-.2 0-.3.4-.1.8-.1 1.2-.7.5-.6 0-1.8.5-2.4.4-.4 1.1.1 1.3-.5.1-.4-.4-.6-.5-.6-1.2-.3-1.7 1.1-2 1.6-.5-.2-1.2-.4-1.2-.4-.3-.1-.5-.2-.3-.6.2-.4.5-.9.6-1.4-.6-.3-.9-.4-1.4-.7-.3-.2-.5.2-.4.3.3.4.2.6.1.9-.4 1-1.2 2.5-1.5 3-.2.4-.3.3-.6.2-.3 0-.4.4-.2.5 1.8 1 4.5 1.9 5.4 2.1 1.2.3 2.9-1.6 3.9-3.3.2-.3.8-.1.7.2-.3 1.3-.3 1.8-.6 3.1-.1.5-.4.5-1 .4-.3 0-.4.5-.1.6 1.1.3 1.9.5 3.1.7.3 0 .4-.5.1-.6-.7-.2-1-.3-.9-.9.1-.6.6-2.9.6-2.9.1-.5.4-.4.7-.4.5.1.7-.4.3-.5m21.6.8c-.1.5-.3.8-.6.6-.8-.5-1.4-.7-1.1-1.4.4-.7 1.9-.3 1.7.8m-.1 3.1c-.2.5-.7.4-1.1.4-.6-.1-.6-.2-.4-.8.2-.8.3-1 .8-.8.6.3.9.6.7 1.2m6.1-2.2c-.8.2-.9.5-1.2-.1-.7-1.3-.6-1.1-1.2-2.6-.4-1 .3-1.1.7-1.4.3-.2.1-.8-.3-.6-.7.4-1.9.8-2.7 1.2-.5.2-.7.3-.9.7-.2.5-.4.4-1.3 0-.7-.3-2-.1-2.4.9-.3 1 .2 1.7 1.3 2.3-.2 1-.8 2.3-1 3.2-.1.4.4.5.6.1.4-.8.5-.8 1.3-.6.8.2 2.1 0 2.4-1.2.2-.9-.3-1.3-1-1.8.2-.8.5-1.6.8-2.4.2-.6 1-.9 1.3-.3.5 1.1.7 1.7 1.1 2.8.3.9-.4.9-.7 1.2-.3.3 0 .8.3.6 1.3-.5 2.7-1.2 3.2-1.4.4 0 .2-.7-.3-.6M44.7 96c-.1.5-.4.6-.9.5-.4 0-.8-.1-.8-.6-.1-1.3 0-2.1.2-3.3.1-.5.3-.6.9-.6.6.1.8.3.8.7.1 1.4 0 2-.2 3.3m-.4-4.7c-2.1-.2-2.4 1.1-2.6 2.6-.1 1.1-.3 3 2 3.3 2.1.2 2.6-1.1 2.7-2.9-.1-1.1 0-2.9-2.1-3m11.4 1.5c-.2.3-.4 1-.8.7-.4-.3-.9-.6-.7-1.2.3-.6 1-.4 1.3-.2.3.3.4.3.2.7m-.3 3.2c-.2.6-1 .5-1.6.2-.4-.2.2-1.3.3-1.6 1 .5 1.4.8 1.3 1.4m1.4-4.9c-.5.5-.5.7-1.4.3-1-.4-2.1-.2-2.5.6-.5.9-.2 1.6.6 2.3 0 .6-1.2 2.6-1.4 3-.2.4.4.6.6.3.2-.4.6-.9 1.2-.5 1.1.7 2 .5 2.7-.4.6-1 .1-2.1-.7-2.5.4-1 .8-1.8 1.3-2.6.3-.5-.2-.8-.4-.5M49 96.6c-.3 0-.5 0-.5-.8v-2.4c0-.6.2-.7.6-.8.8-.2 1.4-.4 1.4 2 0 2.3-.9 2.1-1.5 2m0-4.8c-.6.3-.8.4-1.9-.2-.2-.2-.6.3-.3.5.5.3.6.5.6 1.1 0 .9.1 1.5 0 2.4-.1.5-.3.8-.8 1.1-.3.2-.1.6.3.5.8-.2 1.1-.2 1.6.1 2.5 1 3.4-.4 3.4-2.8-.1-3-1.6-3.3-2.9-2.7m9.1 1.8c-.3.2-.5.5-.3.9.1.3.5.4.8.3.3-.1.5-.5.4-.9-.1-.3-.5-.5-.9-.3"/><path class="st0" d="M74.8 89.2c-.4-.2-.7-.2-.9-.1-.3.2-.5.2-.6 0-.3-1.7-1.1-3.8-3.5-2.7-2.4 1.2-1.8 4.3 0 4 1.1-.2.5-.6.1-.9-.5-.4-.7-2 .4-2.4 1-.3 1.5 1.6 1.7 2.4.2.8.2 1.3-.5 1.7-.5.4-.8.2-1.5.6-.5.3-.6.7-.1.7.4.1 1.9-.1 2.5-.4.9-.5 1.3-2.5 2.5-2.2.2 0 .5-.4-.1-.7M86.7 51c.8-2.7 1.3-4.1.9-11-.8.1-3.8.1-5 .1 0 0-2.1-1.6-2.3-1.7v-.2l5.9-4.3c2.1 4.9 3.3 10.3 3.3 15.8 0 1.4 0 2.2-.1 3.5L86.7 51zm2.2 5.4l-3.1 2.1c-.2-.1-.3-.1-.4 0l-2.2-1.6c1.5-2 2.1-2.9 3.3-5.6l2.8 2.2c0 1-.3 2.3-.4 2.9m-.9 4.1L86 59v-.1l2.9-2c-.3 1.4-.5 2.2-.9 3.6m-2.5 6.6L80.2 63v-.1l5.2-3.7h.3l2.1 1.6c-.3 1.4-1.3 4.3-2.3 6.3m-3.9 6.3l-2.2-1.8 5.9-4.3c-1.2 2.5-2.2 4.2-3.7 6.1m-2.5 3l-.1-4.7 2.4 2c-.8 1-1.4 1.8-2.3 2.7m-.2-7.7h-2.6l-1.9-1.5V67l5.4-3.8c.1.1.2 0 .2 0l5.1 3.9-6.1 4.5-.1-2.9zm-1.2 8.5s.1-.5-.1-.9c.3-.2.4-.3.7-.6v1l-.6.5zm-.9 1.3c-.9.4-1.2-.5-1.4-.8-.4.4-1.3.5-1.5-.5-.2-1.1.3-1.2.8-1.5-.1-.7-.2-1.7.5-2.2.8-.5 1.2.4 1.3.8.6-.7 1.7-.7 1.8.1.1 1-.7 1.5-1 1.8-.1.5.4 1.9-.5 2.3m-4 3h-1c.8-.4 1-1.1.9-1.8.6 0 1.2-.4 1.3-1.3.3.2.9.1 1.2 0 .2.2.3.4.6.6 0 0-1.5 1.5-3 2.5m-5.5 4l-4.1-3.2h9.2c-1.5 1.2-3.7 2.4-5.1 3.2m-7.8 3l-2.3-1.8v-.1l5.6-4.1 4.1 3.3c-2.7 1.2-4.6 1.9-7.4 2.7m-6.4 1.1l3.7-2.7c.1.1.2 0 .3 0l2.1 1.7c-1.6.4-4.2.8-6.1 1m-4.2.1l-3.8-3v-.1l5.9-4.2 5.4 4.2v.1l-4.1 3h-3.4m-7.1-.8l2.8-2s.2.1.3 0l3.5 2.8c-2-.1-4.6-.4-6.6-.8m-8.2-2.7l5.7-3.9 5.2 4.2v.1l-3.1 2.2c-2.6-.6-5.1-1.4-7.8-2.6m-6.4-3.6h11.1l-5 3.4c-2.1-.9-4.2-2-6.1-3.4m-3.8-3.5c.5-.1.7-.3.9-.8.4.3.7.3 1.2.1 0 .8.3 2 1.7 1.8-.1 1.1.6 1.5.9 1.6h-1.3c-.8-.5-3.4-2.7-3.4-2.7m-1.1-2.8c-.4-.2-1.6-.7-1.4-1.7.4-1.3 1.5-.5 1.9-.4.4-1.1 1-1.1 1.5-.7.9.6.6 1.5.5 2.1.4.2 1.5.7 1 1.8-.6 1.2-1.6.5-1.8.3 0 .3-.2 1.3-1.4.9-.9-.5-.5-2-.3-2.3m-.7 1.3l-.5-.5v-.9s.2.2.6.4c-.1.3-.1.6-.1 1m2.1-4.8c-.7 0-1 .3-1.2.8-.5-.2-1-.4-1.4 0v-3.5l2.6 2.7zm-5.6 1.3l2.4-1.7V77c-.8-.9-1.7-2-2.4-2.9m-4-6.2l3.2-2.3h.3l4.8 3.3h-2.1V72l-2.5 1.8c-1.3-1.7-2.5-3.7-3.7-5.9m-2.6-6.7l5.7 3.9v.1L14 67.6c-.9-1.7-1.7-3.6-2.5-6.4M10 53.7l2.9-1.9c1.2 2.4 2.7 4 4.2 5.4l-5.6 4c-.5-1.8-1.2-4.7-1.5-7.5m2.5-18.2l1.3 1v.2L12 38c-.8 3.8-1.2 8.7.8 13.5L10 53.3c-.4-5 .1-12 2.5-17.8m2.8-5.8l3.8 3v.1l-4.9 3.5c-.1-.1-.2-.1-.3 0l-1.3-1.1c.7-1.9 1.6-3.8 2.7-5.5m3.7-5.3l5.7 4.5v.1l-5.1 3.6s-.1-.1-.3 0l-3.8-3.1c1-1.8 2.2-3.6 3.5-5.1m2.4-2.7C28.9 14.2 38.8 10 49.6 10c1.4 0 4.1.2 4.1.2v.7c-9.3-.4-15.4.4-24.2 6.2l-10.1 7c.6-.8 1.3-1.6 2-2.4M54.5 2.9L54.1 9l-.5-3.4.9-2.7zm13.8 11.7l-1.7 1.1C65 13 62.2 12 60.4 12.1c-3 .1-5.8 2.2-5.9 5.9 0 2.4.8 4.5 3 5.8-.3.8-.6 1.5-1 2-.9.9-2.1 1.5-3 1.9 0-.5 0-.8.2-1.2.8-.8 2.2-1.8 1.3-2.8.2-.4.2-.7-.1-.9.4-.7-.1-1.1-.2-1.2.3-.9-.4-1.1-.7-1.1v-.7c.2 0 .4-.1.4-.4 0-.3-.2-.4-.4-.4l.2-3.4c.2 0 .4-.1.4-.4 0-.3-.2-.4-.4-.4l.2-3c.2 0 .4-.1.4-.4 0-.2-.1-.4-.4-.4v-.6c5 .5 9.6 2 13.9 4.2m5.9 3.9l-4.4 3.2h-.3l-2.4-1.8c.2-1.4.1-2.6-.4-3.8l1.9-1.3c2 1.1 3.9 2.3 5.6 3.7m3.5 3.1l1.1 1.1-3.8 2.8c-.1 0-.2-.1-.3 0L70 22v-.1l4.5-3.2c1.1.9 2.2 1.9 3.2 2.9m5.1 6.1c-.4.3-2.4 1.7-2.4 1.7-.1-.1-.2 0-.3 0l-4.9-3.6v-.1l3.9-2.8c1.3 1.5 2.5 3.1 3.7 4.8M79.7 38l-5.2-3.8v-.1l5.6-4h.3l5.3 3.9-5.6 4c-.1-.1-.3-.1-.4 0m-2.1 2.2l2.1-1.6c.1 0 .2.1.3 0l2 1.5-4.4.1zm9.5 2.8c-.1-.5-.3-.8-.7-1.1-.7.6-1.2 1.6-.5 2.5 0 .7-.3 1.6-2 3.1-.3-.6-.5-1.7-.3-2.5 1-.5.6-1.8.1-2.3-.4.2-.7.6-.9 1.2 0-1-.4-2.2-.7-3.1l5-.1V43m-1.1.3c0-.4.2-.7.4-.7s.4.3.3.8c0 .4-.3.7-.4.7-.2-.1-.3-.4-.3-.8m-5 15.2c-.5-.5 0-1.6.5-2.2-.5-.7-.8-1.5-.6-2.6.5.1.7.7 1.6.4.4-.1.7-.3 1.2-.4-.1-.3-.1-.5-.3-.7 2.5-1.5 1.3-4 .7-4.9 1.1-.9 2-1.8 2.4-3.6 0 0 .4 0 .6-.9 0 3.2-.1 8.9-6.1 14.9m-6.5 0v-.1l2-1.4c.6.7 2.3 2.2 3.8 3.2 1-.9 2.8-3 2.8-3l2.2 1.7v.2l-5.2 3.6c-.1-.1-.2-.1-.4 0 0-.1-3.4-2.8-5.2-4.2m-.6 8.2s-2.6-2.1-2.8-2.3c.8.6 1.7 0 1.6-.6 0-.7-.9-3.6-.9-3.6l2.2-1.5c.1.1.2.1.3 0l5.3 4.2v.1l-5.4 3.8c-.1-.1-.2-.1-.3-.1m-2 2.1l1.9-1.4h.2l1.7 1.3-3.8.1zm-4.6 11c.6 0 1-.3 1.1-.6.1.3.6.7 1.3.6 0 .8.3 1.3.9 1.6h-3.9c.3-.2.7-.7.6-1.6m-2.5-.3c-.9-.1-1.3-.1-1.3-1.2 0-.9.8-1.2 1.5-1.2 0-.6.1-1.4 1-1.4 1 0 .9.9.9 1.5.6 0 1.4.2 1.4 1 0 .9-.4 1.1-1.3 1.2 0 .5.2 1.7-.9 1.7-1.3-.1-1.3-1.2-1.3-1.6m-3.5 2c.5-.3.9-.7.8-1.6.5 0 .9-.2 1.1-.6.3.4.5.6 1.1.6 0 .6.2 1.2 1 1.6h-4zm.9.9L57 86.3c-.1-.1-.2-.1-.4 0l-4.9-3.8 10.5-.1zM52.1 80c.5-.1.7-.1.9-.5.3.5.5.5 1.1.5 0 .9.3 1.4 1.1 1.6h-4c.6-.3.9-.9.9-1.6m-2.7-.4c-.5 0-1.4.1-1.4-1.1-.1-1.2 1.1-1.2 1.5-1.3 0-.4 0-1.6 1-1.5 1.1.1.9 1.2 1 1.6.5 0 1.3 0 1.3 1 .1 1.1-.8 1.2-1.2 1.2 0 .4.3 1.7-.9 1.7-1.3.1-1.2-1.2-1.3-1.6m.8 2.9L45 86.2c-.2-.1-.3 0-.3 0L40 82.5h10.2zm-11.7-2.9c-.5 0-1.3-.1-1.3-1.2 0-1.2 1.1-1.2 1.4-1.2 0-.3-.3-1.4.9-1.5 1.3-.1 1.1 1.2 1.1 1.6.3 0 1.4-.1 1.5 1.1 0 1.1-1.1 1.2-1.5 1.2 0 .7.1 1.7-1 1.7-1.2.1-1.1-1.2-1.1-1.7m-2.7.3c.4 0 .8-.1 1.1-.6.2.4.6.7 1.1.6 0 .9.3 1.6.9 1.7h-4.2c.8-.1 1.2-.8 1.1-1.7m-2.7-.3c-.5 0-1.4 0-1.4-1.1s1.2-1.1 1.6-1.1c0-.5-.1-1.6 1.1-1.6 1.1.1 1 1.2 1 1.6.5 0 1.3-.1 1.4 1 .1 1.2-.9 1.3-1.5 1.3 0 .5.2 1.7-.9 1.8-1.2 0-1.3-1.3-1.3-1.9m-2.7.5c.6-.1.8-.3 1.1-.6.4.3.7.5 1.2.5 0 .6.1 1.5.9 1.8h-3.8c.3-.3.6-.6.6-1.7m-2.7-2.9c0-.6-.1-1.5 1.1-1.6 1.3-.1 1.1 1.2 1.1 1.6.4 0 1.3-.1 1.4 1.1 0 1.1-.9 1.2-1.4 1.3 0 .5.2 1.8-1 1.7-1.2 0-1.1-1.2-1.1-1.7-.2 0-1.7.4-1.6-1.4-.1-.7.7-1 1.5-1m-2.3-2.8l1.1 1.1h1.4c-.7.3-.8.9-.8 1.3-.2 0-.4.1-.7.2 0-.9-.7-1.4-1.1-1.6.2-.3.2-.6.1-1m-.6-4.9c-1.3 1.4-.1 2.8 1.7 3.9 1.1.7.8 1.3 1.8 1.5h-1.5c-2-1.8-5.4-5.3-5.4-5.3l3.4-.1zm-6.9-4.4l5.7-4.1h.3l2.5 2c-.5 1.8-1.2 3.8-1.2 5.8H23l-5.1-3.5v-.2zm-.5-7.7c.5.4 1.2 1 1.6 1.2.5-.3.8-.6 1-.7l3.4 2.7v.1l-5.6 4.1s-.2-.1-.4 0L12 61.2l5.4-3.8zm-.2-5.7c0-.3 0-.6.1-.9l-.5-.1.8-1.5c.6.7.9 2 .9 2.9-.4 0-.7.1-.7.4 0 .3.5.3.7.4.1 1.6-1.6 1-2.1.4-.3.9.8 1.3 1.4 1.3l-.8 1.6c-.5-.4-1.6-1.7-1.9-2.2-.5-3 1.7-3.1 2.1-2.3m-1.7-.5c-.5.4-1 1-1.2 1.6-.2-.3-.4-.7-.6-1 .6-.3 1.2-.5 1.8-.6m-.2-.3c-.3.1-1.4.3-1.9.4-.2-.3-.2-.5-.3-.9.5 0 1.5.4 2.2.5m-2.9-11.8c4.6.6 9.7 1.2 14.4 1.5-.2 4.1-.6 7-2 9.9-.4.3-2.6.3-3.6.4l-.4-2.9c.2.3.6.5.9.5.4 1.8 2.1 1.6 2.5 1.4-.3-.7-.6-1.6-.6-2.3.4.3 1.1.4 1.5.4-.2-.6-.4-1.5-.5-2.3.2.2.8.3 1.1.3-.2-1.6.1-2.4.1-3.9 0-.4-.4-1-1.1-1.1-.7 0-1.3.4-1.3.9 0 .3 0 .7.2.9-.9.8-2.3 1.5-3.2 1.7-.1-.1-.2-.4-.2-.6h.7c-.1-.2-.3-.5-.4-.6 0-1.4.1-1.9-1.2-2.6-.2-.1-.3 0-.6.2-.4-.5-1.5-1.7-2.2-.5.2-.1.5-.1.6-.1.2 1.2 1.1 2.4 1 2.7-.1.3-.2.5-.6.9h.7c0 .3-.1.4-.2.6-.7 0-3-.8-3.5-2.1.3-.3.4-.4.4-1 0-.5-.4-1.2-1.1-1.3-.7-.1-1.3.4-1.3 1-.1.9.1 2.7-.3 3.7.5 0 .9-.2 1.2-.5-.1 1.1-.1 2.3-.8 3.3.6 0 1 0 1.4-.1-.1.5-.3 1.2-.8 1.7.8.3 2-.1 2.6-1.1.6-.1 1-.3 1.3-.6.1.5-.5 2.5-.8 2.9-1.2 0-2.4-.4-3.5-.9-.8-2.5-1.3-5.8-.4-10.4m4.3-.1s-3.2-.4-4.7-.6l1.9-1.4h.3l2.5 2zm7.9-1.9v.1l-3 2.2c-1.5-.1-3.2-.3-4.3-.5l-2.8-2.3v-.1l4.9-3.5s.2.1.3 0l4.9 4.1zm.3-7.9s.1.1.3 0l2.4 1.9c-.7.9.4 1.9 1.4 1.5 0 0 .2.4-.1 1.6l-3.7 2.7c-.1-.1-.3 0-.3 0l-5-4v-.1l5-3.6zm2.7-6.8c-.5 1.8-.9 2.9-1.3 4.4l.8-.7c.4-1.1.6-2 1.2-3.2l2.1 1.7v.1l-5.3 3.7c-.2-.1-.4 0-.4 0l-5.4-4.2 5.6-3.9 2.7 2.1zm.2-.3l-2.3-1.9 4.5-3.1c-1 1.3-1.8 3.6-2.2 5m8.5-5.9c-2.6.6-4.9 2.1-7.7 5.3 1.2-3.3 1.9-6.7 7.7-5.3m4-1.8c-.1.2-2.5-.2-2.9-.2-.5 0-.7.2-.7.5 0 .2.3.5.7.4.4-.1 2.7-.5 2.9-.3.1.1-1.5.9-1.9 1.3-1.6-.4-3.3-.8-4.7-.8 1.6-1 3.3-1.6 4.8-2.1.2.4 1.9 1.1 1.8 1.2m.2 2.3c-.4-.1-.9-.3-1.3-.4.5-.6 1.5-1.6 1.7-1.4.2.2-.8 1.3-.4 1.8m9.1 3.1l-1.5 1s-.1-.1-.3 0l-.8-.6c.2-.2.1-.3-.1-.3-.9-.1-1.1-.1-1.9-.3 0 0-.3-.2-.3.3 0 1.6-.1 2.4-.7 3.7-.1.3-.4.3-.5 0-.4-1.4-.6-2.7-.5-4.2 0 0 .1-.4-.3-.2-.4.1-.7.2-1.3.3.2.6.4 1.1.5 1.5-.3.9-.5 1.4-.8 2.1-.2.3-.4.3-.5 0-1-3.8-.5-4.3-.2-4.5.3-.2.2-.4-.1-.4-.4.1-1.9-.2-2.5-.4-.3-.1-.4.1-.2.3.4.3.5.5.7 1l-1.8 1.3c-.2-.1-.3 0-.3 0l-3-2.3c1.6-1 3.5-1.7 6.1-.9 5.9 1.7 7.1 2.1 10.3 2.6m-.8-6.7l-.3.4h-2.6v.4h2.3l-.4.5h-2c-1.5-.5-2.9-1.9-2.9-1.9l-.2.4s.8 1 2.1 1.6c-1 .1-2.8-.1-2.8-.1-1.2-.1-1.3-1.5-.7-2.1 1.6-.4 2.8-.5 3.3-.6.5 1.6 1.7 1.3 4.2 1.4m.6-.8l-.3.4c-2.1 0-3.6.2-3.8-1.1l1.1-.1c.1.7.6.8 3 .8m-3.1 5.2h2.3l.4.5c-2.2 0-2.5-.2-2.8.4l-1.2-.3c.3-.5.7-.6 1.3-.6m-3.6-.6s1.3-1.2 3-1.4c.6.1 2.1.1 2.1.1l.3.5h-2.2v.4h2.4l.2.5c-2.5 0-3.7-.2-4.3.8-.7-.2-1.7-.5-2.9-.9-.5-.8-.4-2.1.7-2.1 0 0 1.8.1 2.7.4-1.2.4-2.2 1.3-2.2 1.3l.2.4zm9.3-3.5c0 1.1.7 1.7 1.3 1.9-.7.2-1.3 1.1-1.3 1.9 0 .9.3 1.7 1.2 2.1-1.4.2-4.6-.1-6.1-.6.1-.3.3-.3 1.2-.3h.9c.6 0 1 .1 1.2-.2.3-.4-.2-.9-.7-.7-.4-.4-.6-.9-.7-1.1-.4-.7.2-1 .5-1 .7 0 1.4.2 2.1 1.2.3-.2.1-.4 0-.8-.2-.6.3-.4-.2-1.1-.2-.3-.3-.4-.6-.4-.8-.1-.4.3-1.2.4-.6.1-.9-.2-.5-.8.2-.2.5-.7.9-1 .3.3.9.2.9-.3s-.5-.7-1.1-.7h-1.3c-.9 0-1.1-.2-1.1-.4 1.4-.1 4.3-.1 6.2.1-.9 0-1.6.8-1.6 1.8m1.4 1.4c-1.3-.3-1.2-2.8.2-2.9l-.2 2.9zm0 .9l-.2 3.2c-1-.4-1.1-2.9.2-3.2m2.4 13.4l-2.4 1.5.1-2.1.8-.4c.3.6.8 1 1.5 1m1.2-.6c-.8.3-1.8.4-2.3-.7.5-.3 1.3-.8 1.6-1 .3.3.5 1 .7 1.7m1.3-1.6c0 .6-.4 1.3-.9 1.4-.1-.7-.3-1.2-.6-1.8l.4-.4c.3.4.7.6 1.1.8m.1-3.3c2.6 1.2 3.8-.6 4.1-1.5h.6c0 1.2.3 2.1.8 3-.9 1.3-3.7 2.6-6.4.7.2-.5.5-1.3.9-2.2m2.4-3.4c-.1-.5-.1-1 .9-1 .6 0 .9 0 .8.6-.2.7-.2 1-.5 1.3-.5.4-1 0-1.2-.9m-1.3 1.1h1.1c.1.2.3.2.3.4s0 .4-.3.4c-.3.1-.8.1-1.1 0-.2-.1-.4-.2-.4-.4s.3-.2.4-.4m1-.4h-1c0-.3.1-.5.6-.4.1.1.4.1.4.4m-2.6-2.2c.3-.6 1.3-.4 1.3-.1 0 .5-1 .5-1.3.1m4.2-.1c-.2.5-1.2.5-1.4.1 0-.4 1-.6 1.4-.1m-5.6-2.7c0-1.6 1.6-1.6 3-1.7-.1-.6.3-.9.9-.9.8 0 .8.8.8 1 .9.1 2.2-.2 2.7.6.3.5 0 1.2.2 1.6.2.3.2.6-.1.6-.6 0-.3-.2-2.2-.2-1.4 0-1.8-.2-2.8-.2-.8 0-1.4.4-2 .3h-.5v-.3c.1.1 0-.4 0-.8m.2 1.8c.3.1.6.1.8.1-.1.6-.5 1.4 0 2.3.2.3.2.2.4.1 0-.2-.3-1 .4-1 1 0 1.3-.1 1.3-.1 0 .1 0-.5-.1-.7-.2-.5-1-.5-1.6-.5 0-.5.5-.6 1-.7.5-.1 2.6 0 2.6.5-.9.1-1.3.4-1.3.9 0 .6 0 .9.1 1.4h-1c-.1.3 0 1.2-.8 1.2-.3 0-.3-.2-.5-.5-.3 0-.7.1-1 .1-.3-.1-.5-.4-.3-.6.1 0 .2-.1.3-.2-.4-.5-.5-.4-.3-2.3m5.6.2c-.2-.2-.1-.4.2-.3.4 0 1-.1 1.7 0 .1.2.7 1.8-.2 2.1 0 0-.3.1-.5.2s-.5.2 0 .6c.1.1.4.4.6.5-.3.4-1 .7-1.6.6.1-.6.2-1.6.5-1.8.6-.5-.4-1.7-.7-1.9m1.5 5.3c-.1-.4-.1-.6-.2-1.1.4-.2.7-.6 1-1 .1-.3.1-.3-.2-.6-.4-.3 0-.5 0-.5.7-.5.8-.7.6-1.6l-.3-1.2c.3-.7-.3-.8-.2-1.2.1-1.2-.3-1.6-.5-1.8-.8-.5-1.5-.3-2.4-.4-.1-1.3-2.1-1.3-2.5-.1-.5.1-.8.1-1.8.4-.5.2-.9.5-1.1 1.2-.2 1.2-.3 1-.4 1.3-.2.4-.1.9.4 1 0 1.5-.2 1.7.4 2.4-.3.4-.6.6.1 1.1.5.3 1 .2 1.5.2.1.2.2.7.4.9.4.5 1.6 1.2 3.2.2-.9 1.6-3.2.8-3.8.3l-.2.5c-2.1-1.1-3.1-3.4-2.8-6.1.3-2.7 2.8-4.6 5.5-4.7 3.8-.1 6.2 3.1 6.2 5.8-.1 3.6-2 4.5-2.9 5m5.5-1.2l-4.6 3.3c-.1-.2-.5-.8-.7-1.4 1.5-.8 2.5-1.7 3-3.6l2.3 1.7zm.9 6.9c-.1-1.4-.4-4.1-.4-4.1-1.1.5-2.5 1.3-3.5 2.1 0 0-.7-.4-1.4-1.3l4.5-3.2c.1 0 .3.1.3 0l4.6 3.4v.1c.2-.1-4.1 3-4.1 3m3.8 4.9l-3.4-2.5-.2-2 4.4-3.1h.2l5 3.6v.1l-5.6 4c-.2-.2-.4-.1-.4-.1m-2.6 6.5l-.6-.3v-3.3l3.2-2.3h.3l5.3 3.9v.1l-2.5 1.8-5.7.1zm9.7 1.1l-.4-.6-.3.6-.6-.6v.6l-.4.4h-1c-.2 0-.4.1-.4.3v.8c.9 0 2.2-.1 2 1.1h-.2c-.4-1.3-2.2-.4-2.8-.9v.4c.3.3.5.2.8.2.6 0 1.3-.2 1.5.4l-.9-.1v.5s.9.1 1.4.1c-.4.6-1.4.2-2.8.6l-.5-.3c-.1-.6-.8-1.3-.8-1.3.3-.4.2-.7-.3-1.3-.1.4-.1.5-.2.7-.4-.5-.7-.5-1.3-.2.2.3.2.5.3.7.2.2.8.3.7.5-.3-.1-.8-.1-1.1.4.5.1.4.3 1 .3.1 1 .7.7.8 1.7h-.9c-.8-.6-1.2-.8-1.2-.8 0-.6-.3-.9-.9-1 0 0 .1.5.1.7-.2-.1-.5-.3-.9.1-.2-1.5-.1-4.4-.1-4.4l9.6-.2-.2.6zm.3 5l-.5-.5c-.8.4-1.1.9-.8 3.1-.8 0-1.7-.4-2.4-.8-.4.2-.7.4-1.2.7-.6-1.2 0-2.4.6-2.8 1.6-1 2.9 0 3.4-1.3 0 0 .1-.2.1-.5 0-.9-.3-1.4-2-1.4v-.5h1l.5-.4h1.2l.4-.5c0-.1 1.5 3.4-.3 4.9m-1.5 11.2c.7.3-.4.8.5 1.3l-.3.2c-.5-.3-1-.7-1.3-1 .3.1.8.2 1.1-.5m-4.4-2.8c.1-.1 1-.7 2.1.8.3-.5 1-1 1.3-1.2 1.4 1.8.6 2.5.6 2.5-.7-.4-1.1-.1-1.3.2.2.2.7.3.7.3l-.9.3c-.5-.6-1.7-1.9-2.5-2.9m-4.6.8v-4.1l1.5-1.1c1 2.4 1.8 4 3.8 6.2l-2 1.4s-.1-.1-.3 0l-3-2.4zm6.3-6.6l.4-.3c.6.3 1.4.7 2 .8 0 .5 0 .9.2 1.3l-.8.6c-.6-.8-1.3-1.6-1.8-2.4m.4 5.9c-.4-.3-.9-1-1.9-.7.2-.3.5-.5.9-.5l.9.6c.4-.3.6-.7.5-1.1-.1-.6-1.4-2.1.4-2.1.2.2.3.4.4.6-.9 1.5.8 1.7-1.2 3.2m-2-11c.4.5.6.8.8 1.4l.5.3c-.3.2-.6.6-.6.6-.3-1.1-1.3-1.3-.7-2.3m.2 3.8h-.6l-1.7-1.1s-.1-.4-.2-.7c.6.2 1.5 1 1.5 1h1c-.1.2 0 .8 0 .8m-3.4-.6c.4-.1.7-.1 1-.2l1.8 1.3h.6c.1.5.3.9.4 1.2l.6-.3c.3.5.7 1 1 1.4-.3.2-.9.3-1 1-.1.9 1.1 1.9.5 2.2-.3-.2-.4-.3-.6-.4 0 0 0-.9-.9-1.2-.1.4 0 .7 0 .8-.7-.2-1 0-1.3.2.4.5.6.5 1 .7-.3.1-.3.3-.5.5-1.7-2.6-2.7-5.3-3-8.4.3.1.2.2.5.3.3.1.5-.1.6.1-.3 0-.8.2-.7.8m-.1 3.1l-1.4 1c-.1-3.8-.1-7.2-.1-10.8l.5.3c0 4.2.1 6.7 1 9.5M70.9 56l2.9 2.3v.1l-2.1 1.5c-.4-1-.9-2.7-.8-3.9m-.4-24.3l3.2 2.4v.1l-3 2.2c0-1.7 0-2.8-.2-4.7m-6.8 13c1-.2 1.6.3 2.1 1.5 2.1 5.4 5.1 13.3 6.1 17.1.3 1-.4 1.2-.8.3-1.5-3.3-4.9-11.9-7.4-18.9m6.5 19.5l3.5 2.8v.1l-2.3 1.6h-1.2v-4.5zm-4.7 5.9c-.9-.5-1.3-1.2-.9-2.5.8-3 .8-3.7.7-5 .1-.3.2-1.4.2-2 .3-.7.5-.7.6-2.8l.6-.3-1.2 10c-.1 1 0 1.3.8 1.7l3.1 1.3c.8.3 1.2.6 1.5 1.3l.7 1.9.4 1.2c.2 0-3-2.7-6.5-4.8M26.3 70c2.1.3 6.1-.2 7.4-.3 0 .5-.1 1.9-.4 2.8-1.7-.2-4.7-.4-4.7-.4.7.6 1.2 1.6 1.8 1.8.8.3.7 1 .5 1-3.6 0-2.6-1-4.3-2.1-2.1-1.1-2.1-3.1-.3-2.8m3-.6c-1 .1-2.2.1-2.7 0-.1-.4.2-.5.7-.5.8.1 1.7.5 2 .5m0-.7c-.8 0-1.7-.6-2.4-.3.5-1.3 2.3-6.5 2.4-6.8-.1 3.6 0 5.8 0 7.1m.3-12.1s-.2 2.4-.2 3.2c-.8 2.2-1.9 5.4-3 8.4-.3.9-.7.7-.5-.1.3-2.2 2.2-8.3 3.7-11.5m-5.5 4l4.3-3.1c-1 2.4-1.9 5.2-1.9 5.2l-2.4-1.9v-.2zm.3-7.6l4.4 3.5-.2.4-4.7 3.4s-.2-.1-.4 0l-3.4-2.6c1.6-1.3 2.9-2.7 4.3-4.7m-5.2 1.7c.2.4.8 1.3 1.5 1.7l-1.6 1.4c0-.8.2-2.1.1-3.1m4.7-2.2s-.5.8-.7 1.1c-.2-.6-.7-1.3-1.1-1.9.5.1 1.3.4 1.8.8m.3-.5c-.6-.3-1.4-.6-2-.7.5-.1 1.8-.2 2.4-.1l-.4.8m5.2-3l-4.7 3.3c.8-1.5 1.6-3.2 2.1-5.3l2.6 2zm-1.2-9c3.5-3.6.6-3.3 1.4-6.2l.4-.1c-.1.2-.1.7-.1.7.2-.2.3-.4.6-.7l.6-.1c-.4.6-.7 1.2-.7 2h.3c.4-1.3.9-1.8 2-2.2.6-.1.7 0 .4.4-.5.7-.7 1.5-.7 2.2 0 .8.3 1.3.1 1.5-.4.4-1.1.4-1.7.9-.7.5-.5 1.4-.2 3 0 0 1.6.6 1.9 3.1.4 2.5-2 3.9-3.6 1.1-.8-1.3-.2-4 .9-4.4v-1.7c-1.8 2.2-2.3 4.2-1.8 5.8.5 1.4.8 1.3 1.8 3.4l-2.7-2.1c.3-1.8.7-4.5.7-6.7-1.7-.1-3.8-.3-5.5-.4l2.7-2c.1.1.3 0 .3 0l2.9 2.5zm1.1-2.7c0 .5-.5 1.6-1.6 2-.7-.6-1.4-1.1-2.5-2v-.1l3.5-2.5c.1 1.1.6 2 .6 2.6m-.6-6.7c-.1-.2-.4-1-.1-1.4.4-.1.8.3 1.1.8.6-.5 1.1-.5 1.4 0 .3.6-.1 1.2-.9 1 .6 1.2 2.8.9 2.9-.5-1 .4-1.2-.1-1.3-.5 0-.5.5-.9 1.2-.7 0-.5.1-1 .5-1.2.3.1.6.7.6 1.2.6-.2 1.2.1 1.2.5 0 .5-.3 1.3-1.3.7.1 1 .7 1.3 1.4 1.4.9 0 1.3-.3 1.5-.6-.5.2-1.2-.2-1.1-.8.2-.8 1.1-.6 1.5-.2.2-.3.6-.7 1.3-.6.1.5-.1 1-.3 1.3.7.2.7 1 .5 1.2-.5.4-1.1.1-1.3-.3-.4.5-.5.8-.7 1.4-2.2-.4-4.8-.1-7 .2 0-.7 0-1.1-.3-1.7-.1.4-.8.7-1.3.2-.5-.8.1-1.2.5-1.4m2.3-5.5l5.2 4.1-.4.3c-.2-.4-.6-.7-1.1-.7-.1-.8-.7-1.2-1.2-1.5-.3.1-.9.7-1 1.4-.6 0-.9.4-1.1.8-.5-.5-1.1-.4-1.5-.2-.6-.5-1.1-.6-1.6-.6-.3.6-.4 1.2-.2 1.8l-.3.3-2.3-1.8v-.2l5.2-3.7h.3m0-.7s-.2-.1-.3 0l-2.1-1.7c.9-1.6 3.8-4.1 4.6-4.6l3.1 2.4v.1L31 24.4zm11.4.4c-.1 0-.2-.1-.3 0l-.8-.7.9-1.9c.1-.2.3-.2.3 0l.7 2-.8.6zm8.7-1.4l-2.8-2.2v-.1l1.8-1.2c.9.1 1.7.1 3.1 0v.9c-1.1.7-1.7 1.6-2.1 2.6m1.7 3.8c-.1 1.9-.5 7.5-.5 7.4-.1 1.4-2.9 1.6-2.4-4.4.1-1.7.5-3.5 1.1-5.1.4.7.8 1 1.5 1.4.4.1.3.3.3.7m4.2 3.5c-1 .7-1.4 1-2.4 1.7l-.1-1.8 2.6-1.7c0 .6-.1 1.3-.1 1.8m1 .9c0 .5-.5 1.7-1.2 1.7.2-.5.4-1.4.5-2 .2.2.4.2.7.3m1.5-2.3c-1.1-.3-1.1-1.7-.6-2.2.8.3 1.4.3 2.5.1.2 1.2-.3 2.5-1.9 2.1m2.8 1.8c-.5.4-2.2.6-2.2-1.2 1.6 0 1.8-1.6 1.8-1.6.7.2 1.9 1.7.4 2.8m1.1-2.8c-1.1.3-1.4-.8-1.6-1.3.9-.3 1.7-.7 2.2-1.4.8.8.5 2.4-.6 2.7m-.8 13.3c1.8-.2 1.9.3 2.5 2.1l-1.6.5-.9-2.6zm-.3 6.3l-.2-2.9 1.1-.2 1.1 3.1h-2zm1.5 3.9l-.3-3.3h.9l1.2 3.2c.1 0-.7-.1-1.8.1M55.6 47l-.4 3.3-1.4-.9s0-1.9.3-3.4c.4.4 1.1.8 1.5 1m-1-4.5l.8.7-.4 2.9c-.4-.2-.5-.3-.8-.6.1-1.3.4-3 .4-3m3.8 5.7c.7.1 1.2.2 2 .2V52c-1.5 0-2.2-.4-2.2-.4l.2-3.4zm-1-.8l.4-2.7s.9.4 1.7.4l-.2 2.7c-.5-.1-1.4-.3-1.9-.4m-2-1.1l.5-2.8s.9.8 1.5 1c0 .1-.4 2.7-.4 2.7-.9-.3-1.3-.6-1.6-.9m.6 1c.5.3 1.3.6 1.9.7l-.3 3.4c-1-.3-1.9-.9-1.9-.9l.3-3.2zm7 1.2l.3 3.4c-1.2.2-2.3.1-2.3.1v-3.6c.7 0 1.3 0 2 .1m-3.2-.7l.1-2.7s1 .1 1.7 0l.1 2.9c-.6-.1-1.4-.1-1.9-.2m2.5-5.5c.1.3.5 1.5.8 2.1-2.9.6-6.1.3-8.5-3.1l.4-1.9c1.7 2.6 4.4 3.7 7.3 2.9m-5.6-4c.3.4.4.5.8.8-.2 1.3-1 1.3-1.7.9-.6-.4-.6-1-.5-1.7.3.2 1.1.2 1.4 0m1.8 3.4c-1.2-.3-.8-1.7-.7-2.3.6.4 1.3.7 2.1.8.1.9.1 1.9-1.4 1.5m-1.9-4.3c.5 0 .8-.1 1-.3.1.3.5 1.5 1.6 1.7 1 .2 1.4-.1 1.8-.5l.3 1.4s-.3.1-.8.2c-.9.1-2.7-.4-3.8-2-.4.1-1.1.3-1.4.1l.2-1.1c.4.2.7.4 1.1.5m-1.9-2.6l-.1-1.9 2.3-1.6c-.4 1.6-1 3-2.2 3.5m3 1.2c0 .7-1 1.4-1.9.4l.5-1.8c.1.8.7 1.3 1.4 1.4m2.1-1.8c0 .7-.6 1.7-1.8 1.4-1.3-.3-1.4-1.2-1.4-1.9.6 0 1.1-.3 1.5-.9.1.8.7 1.4 1.7 1.4m.1-.4c-1.6 0-1.4-1.7-1.4-2.1.7-.1 1-.3 1.4-.8.2.6.8 1 1.4 1-.1.5.1 1.9-1.4 1.9m-.3 4.4c-1.2-.2-1.5-1.1-1.4-2.1.5.1 1.3 0 1.6-.6.1.6.6.8 1.1.9 0 .4.2 1.9-1.3 1.8m3-3.5c.1.5-.2 1-.8 1.2-1 .2-1.4-.2-1.5-.6-.1-.5.1-1.2.8-1.3.6-.2 1.3 0 1.5.7m0-.9c-.3 0-1.1-.2-1-2 .3 0 .9-.1 1.3-.5-.2.7-.3 1.6-.3 2.5m.3 6.4c.3-.1.7-.2 1-.4.1.3.2.7.3 1-1.2.2-2.2.6-3.4 1.2-.1-.4-.3-1-.4-1.4.6-.1 1.2 0 1.9-.3-.4-1.3-.8-2.5-1-3.9.9-.1 1.6.5 1.9 1.5.5 1.6-.5 1.5-.3 2.3m-5.6 14.1c-1.3-.3-2.9-.3-3.7-.4 0 0 0-2.1.1-3.7 1 .6 3.5 2 5.8 2.4 1.9.3 4.5-.5 6.4-.2l.8 2.2c-3.3-.7-5.8.6-9.4-.3m2.2 2.5c-1.6 0-2.3-1.7-6 .2v-2.5c3.3-.4 4.4.7 7.1.6 1.8-.1 3.9-.7 6.3.1l-.1 1.3c-5.3-.8-5.4.4-7.3.3m5.4 3.5h-.7c.2-1.1.3-2.3.1-3.4.4.1.8.2 1.2.6-.1.7 0 1.8-.6 2.8m-2.2-3.5c.2 0 .7 0 1 .1.2.7.1 2.8.1 3.5-.5.1-.9.1-.9.1-.2-1-.3-2.7-.2-3.7m-.4 4.8h-.8v-1.1c.9.6 2.3.1 3.4.3l-.1 1.3c-.9.4-1.3-.5-2.5-.5m.1-1.2c-.4-.1-.6-.3-.9-.4-.1-.8-.4-1.8-.2-2.7.4-.2.4-.3.9-.4-.1 1-.2 2.5.2 3.5m-3.5 10.9c.6-1.3.3-1.8-.1-9.4 0-.3 0-.9.1-1.5.4-.8.5-1.8.5-2.5l1.3-.4c-.1 1.7.3 3.2.4 4.5-.2.7-.3 1.4-.4 1.9 0 1.8 1.3 2.5.8 6.3-.3 2.3 1.9 1.3 2.6 2.5.1.2.5.4.7.5-4 .2-3.9-1.4-5.9-1.9m-.2 1.2c-.1-.4.1-.7.6-.4.5.2 1.2.8 1.2.8-.3.4-.5.7-1 .9-.3-.3-.7-1-.8-1.3m-1.1-.6c.2-.8-.3-1.3.1-3.1.2-.8.4-1.6.9-2.4.2 5.3-.3 4.2-.5 5.3-.1.8.4 1.3.8 2-1.2 0-2.1-.6-2.9-.8.5-.4 1.3-.4 1.6-1m-5.9 1.2c1.3-.7 1.2-1.1 1.9-1.7.6-.5 1.5-.9 1.7-1.6.3-1.4-.5-4.4-.4-6.4 0-1.8.8-1.8 2.3-1.3 1.6.6 1.5 2.5.6 4.3-.4.9-.7 2.3-.7 3.2 0 .8.7 2-.6 2.5-2.3.6-1.6 1.9-4.4 2-1.3 0-1.6-.5-.4-1m3.7-13.4c-.3-.2-.6-.5-.8-.7-.1-.3-.2-1.3-.2-1.6.4-.4.7-.5 1.2-.6-.4 1.1-.4 1.5-.2 2.9m1.9-3c.5.1 1 .5 1.4 1 .1.7 0 1.4-.3 2.3l-1.1.2c.3-1.2.3-2.3 0-3.5m-1.3.1l.8-.1c.2 1.3.3 2.4.1 3.5-.3 0-.8-.1-1.1-.3-.1-1 0-2 .2-3.1m2.3 3.9v.7c-1.3.2-2.3 0-3.4-.3l-.2-1.3c.9.8 2.2 1 3.6.9m-5.1 8c.3-.6.5-1.5.5-2.4 0-2-.2-8.5-.2-8.5l.4.2s.5 4 .5 3.9c-.2 2.9.1 3.9.4 5.8.1 1.3.3 2-.5 2.6-2.4 1.7-1.3 1.7-3.2 2.6l2.1-4.2zm-.4-.5c.1.5-2.1 4-2.8 5.2-.3-.2-.8-.7-1.2-1.5-.1-.3-.3-.4-.7-.4-.5 0-.9 0-1.1-.1 1.9-.9 3.7-1.7 5.8-3.2m-2-3l-.2 3.6h-4.9l5.1-3.6zm-9.6-7.1l4 2.9v.1l-3.3 2.3c-.2-1.6-.5-3.6-.7-5.3m0 6.4l.1 1.5c-4-.1-7.2 1.5-11.4.6v-2.9c6.8 2.9 7.5.5 11.3.8M29 56.2l-4.4-3.4 5.1-3.6c1 2.7 0 5.1-.7 7m3-7.2c.2 2-1.1 1.7-1.1 1.7-.1-.8-.5-2.2-.8-3 .5.4 1.5 1 1.9 1.3m2.3-.4l-.3.9-2.8-1.7c.7-.1 1-.3 1.3-.7l1.8 1.5zm1.1-3.3l-.4 1-2-1.5c0-.7-.4-1.6-.8-2.3l3.2 2.8zm-1.9-6c.8.4 1.5.5 2.1.4.1 2 1.2 2.9 2.1 3.9-.6.6-1.7.7-2.5.5-1.4-.4-2.8-2.3-4.3-3.1-.3-1-.6-2.2 1.3-2.7.2.3.6.7 1.3 1m1.5-3.7c-.1 1-1.2 2.7-1.2 2.7.3 0 1.2-.7 1.5-1h.8c0 .1.3.5-.4.6 1.2 1.3-.4 1.5-1.9.9-.3-.1-.5-.3-.6-.7-.2-.5-.3-1.4-.2-1.7.4-1.1 1.3-.1 2-.8m-.1-.4c-.3.3-.9.4-1.5 0 .3-.4 1.4-.7 1.5 0m1.5-.8c-.2.1-.2.4-.2.6 0 .5.1 1.3.1 1.7l-1-.1c-.2-.2.2-.1.2-.8v-.9c0-.3 0-.4-.5-.7-.4-.1-1.1-.1-1.6-.1 0-.4.3-.6.8-.7.5-.1 1.4-.1 1.7.1.4.2.5.2.5.5.1.1.1.3 0 .4m.5 4.1l4 3.1v.2l-2.4 1.7c-1.1-.9-2.2-2.1-2.2-3.7.3-.2.9-.4.6-1.3m4.7-4.8h.3l3.9 3.1v1.6l-4.3 3c-.1-.1-.3-.1-.4 0L36.8 38v-.8l4.8-3.5zm-2.3-2.1l2.1 1.7v.1l-4.6 3.3c-.1-1.7.3-3 .8-4.1.7.6 1.9.2 1.7-1M45.9 61l5.3-3.7-.4 7.4-4.9-3.7zm-.3-7.2s.2.1.4 0l2 1.5c-.1 1.2.8 2 2.1 1.5l.6.4-5 3.5s-.1-.1-.3 0l-4-3-.1-.8 4.3-3.1zM41 55.5l-.3-.2-.2-2 2.4-1.7 2.5 1.8v.1l-4.2 3-.2-1zm-.1 6l.3 2.4s-1.2-.1-2.1 0l-.3-2.8c.6.2 1.3.2 2.1.4m-3.6-.8l-.2-2.3H39l.2 2.2c-.7.1-1.3.1-1.9.1m.9.5l.3 2.9s-1.2.4-2.2.3l-.2-3.1c.5 0 1.6 0 2.1-.1m-3.6-.3l-.2-2.5c.7.1 2.1.1 2.1.1l.1 2.3c-.7 0-1.3.1-2 .1m.9.5l.2 3.1c-1 0-2-.2-2-.2l-.1-2.9h1.9m-3.3-.6v-3c.7.3 1.8.5 1.8.5l.1 2.6c-.6 0-1.2 0-1.9-.1m-.8.4c.5.1 1.2.2 1.7.2l.1 2.9s-1.1-.3-1.8-.6v-2.5zm9.4-.2c-.4-.1-.6-.2-1.2-.2l-.3-2.3 1.1-.1.4 2.6zm-.5-5.2c.1.7.2 1.4.2 2.1-5 0-7.8 0-10.4-2l.4-1.6c2.5 1.8 5.8 1.9 9.8 1.5M33 53.2c.5 1.2 1.8 1.4 2.7 1.5.7 0 1.7-.3 2.2-1 .4.5 1.2.6 1.9.3l.2 1.4c-.4 0-.8-.1-1.3-.3l-.3-.2-.2.1c-1.5 1-3.8.7-4.8-.5 0-.1-.1-.1-.1-.2 0 0-.1.1-.2.1-.7.2-1.8.1-2.4-.6l.2-.9c.2.4 1.4 1.2 2.1.3m1.6-2.7c0 1-.8 1.2-1.5 1-.6-.2-.9-.8-.7-2.2.5.4 1.7 1 2.2 1.2m-.1-2.4l-1.7-1.4.2-1.2 1.9 1.4-.4 1.2zm1.3 4.6c.6.1 1.5.1 1.8-.8.1.7.2 1.9-.9 2.1-1.1.2-1-.9-.9-1.3m-.4-.2c0 .9-.3 1.5-1.1 1.3-.7-.2-1-.8-.8-1.7.7.1.8-.1 1.2-.4-.1 0 .1.6.7.8m-.3-1.7c.5.3 1.2.6 2.1.9-.2 1.1-2.7.5-2.1-.9m3.8 2.8c-.9-.1-.8-1-.8-1.6.4.2 1.3.3 1.8.2 0 .8-.1 1.6-1 1.4m-.1-6.8c-.5.6-.8.2-.9-.1-.2-.9-.2-1.8.3-2.6.9 1 1.5 1.3.6 2.7m3.8-3.9c-1 .7-1.7 1.5-2.6 2.3-.3-.7-.9-1.1-1.3-1.5l2.4-1.7s.2.1.3 0l1.2.9zm3.2-3.2c-1.2 1.5-1.3 2-2.9 3l-1.2-1v-.1l4.2-2.9-.1 1zm3.6 9.1s.2-1.6.2-2.4c-.3-.2-1.2-.1-1.4.6-.2-.2-.6-.2-.8.2-.3-.2-.7-.2-.8.2-.1 0-.2-.1-.3-.1v-1.7c.8-.1 1.9-.5 1.3-1.4.6-.3.5-.9.2-1 .4-.3.4-.5.5-.9.1-.3.1-.6.1-1 0-.7-.1-.7-.4-.8.4-1.5-.1-2-.8-1-.2.2-.8 1.2-.8 1.2v-3.4h4.1L50 48.8h-.6zm-6.6-.9c.6-1.1.9-2.4 2.9-2.3v1.8c-.5.4-1.8.4-2.9.5m2.5.4c.2 0 .4 0 .5.3.1.3.4.3.4 0s0-.4-.1-.5c-.1-.4.3-.4.4-.2.1.3.1.4.1.7 0 .3.3.3.3 0s-.1-.5-.1-.7c-.1-.4.4-.4.4-.1 0 .2.1.6.1.9 0 .2.3.3.3 0s-.1-.6-.1-.9c0-.4.5-.4.5 0v1c0 .3.3.3.3 0s0-.7.1-1.2c.1-.3.2-.6.6-.6-.1 1.1-.2 1.9-.3 2.8-.1.8-.6.7-1.4.6-.7-.1-2.8-.4-3.5-1.1v.9c-.9.7-2.9 2-3.3 2.2l1.9-3.7c1.2-.2 1.7-.3 2.9-.4m4.2 2.4l-3.6 2.5s-.2-.1-.3 0l-2.4-1.8 1.1-.8V50c.8.4 1.7.6 2.8.8 1.9.3 2-.3 2.1-1.3h.3v1.2zM48 54.9l-1.9-1.4v-.1l3.4-2.4s0 1.6-.1 2.5c0 .3-.1.4-.3.4-.4.1-1 .6-1.1 1m1.2-.5c.7-.1 1.1.5 1.1.9 0 .6-.3 1-.9 1-.5.1-1-.2-1-.9 0-.5.4-1 .8-1m-3.7-12.2c.1.1.8-.5.9-.8.3-.6.5-1.1.9-1.7.2-.3.4-.2.4.2-.1.3-.7 1.8-.9 2.1-.2.2-.4.3-.7.5l.3.3.8-.7.4-1.1c.1-.2.4-.4.4.1s-.2 1-.2 1.3c0 0-.4.4-.7.6-.2.2-.4.2-.3.3.1.2.2 0 .4 0 .3-.1.7.3 0 .6-.3.1-.4.1-.4.2 0 .2.2.1.3.1.3 0 .4.4-.1.6-1.1.2-2.5-.1-3.2.2-1.1.4-1.6-.5-1.8-.9.4-.5 1-.9 1.5-1.2 1-.5 1.7-1.6 2.1-2.4.5.5-.2 1.6-.1 1.7m-9.9 2.5c.7.1 1.4 0 1.9-.2-.1.3-.3 1.1-.2 1.9l-1.7-1.7zm.2 1.2c.5.5 1.1 1 1.7 1.4.7.6 1.2.5 1.7-.1 0 0 1.5-1.8 2.6-2.7 0 0 .9 1.1 1.3 1.6-.8 1.9-1.3 3-2.2 4.4-1 1.7-2.4 1-3 .8-1.1-.4-2.3-.9-3.3-1.6l1.2-3.8zM31 51.3c.3 0 .7-.1 1.1-.4.1.5.4 1 .9 1.1.1 1-1 1.6-2 .5-.1-.5 0-.7 0-1.2m0 9.8v2.3l-1-.4v-2.3l1 .4zm-1-.9c0-.8.2-3.4.2-3.4.7.4 1.5.8 1.5.8v3.1c-.5-.1-1.1-.2-1.7-.5m21.1-3l-.8-.6c1.2-1 .5-2.2 0-2.5-.3-.1-.4-.1-.4-.5 0-.3.2-2.7.2-4.1h.5l.5-12.8h-2.5l1.6-1.1c.6.5 1.1.5 2.1.5l-1.2 21.1zm-3.3-28l1.7-1.2s-.2 1.1-.3 2.4l-1.4-1.2zm1.4 1.6c0 1.8.1 3.6.8 4.5l-1.9 1.4h-1.9l-4.1-3.2v-.1l5.2-3.7c.1.1.3 0 .3 0l1.6 1.1zM38.7 29c-.6 0-1.1.1-1.6.4l-.4-.2 5.3-3.7s.2.1.4 0l4.7 3.7v.2l-5.2 3.7c-.2-.1-.3 0-.3 0L38.9 31c.1-.7.1-1.4-.2-2m-3.6 40.4c0 1.2-.1 2.4-.5 3.3l-.8-.1c.2-1.1.3-2.3.4-3.3l.9.1zm-5 0v-2.2c5.6.6 6.8-.7 11.4-.6l.1 1.5c-3.9-.8-3.8.9-11.5 1.3m5.4 1.4l.1-1.4c1.1-.2 2-.6 2.5.3-.7.5-1.7.9-2.6 1.1m2.4 1.5c-.5.8-1.9.6-2.7.5l.2-.7c.9.2 1.7.2 2.5.2m-2.5-.6l.1-.3c1-.3 1.9-.5 2.7-1.2.3.3.2 1.2 0 1.5-.9.4-2 .2-2.8 0m3.5-1.8c-.1-1.4.8-1.6 2.7-1.1.5 2.6-1.7 2.6-2.6 2.4.1-.6-.1-.8-.1-1.3m6.6-1.1h-3.1l-.2-2.2 3.3 2.2zm-3.4-2.6c0-.7-.2-1.7-.2-2.4l3.5-2.4s.1.1.3 0l4.9 3.6-5 3.5-3.5-2.3zM64 69.4c.4.9 1.4 1 2.4 1.9.4.4.7 1 1.1 1.5.4.4-.1.8-.8.5-.6-.4-.9-.1-1.5-.4-.5-.3-1-.9-1.5-1.3-.8-.5-2.1.4-1.8-2.1 0-.4.4-1.9-.5-4.2-.3-1-.2-2.2.3-3.1.9 0 2 .3 2.5 1 1.2 1.8-.8 4.5-.2 6.2m5.4-8.3l.1 7.7c-1-1.4-1.5-2.7-1.5-4.8.3-.7.9-2 1.4-2.9m-.7-.1l-1.4 3.7c-.5 1.1-.8 2.1-.7 3.3l.6-.1c-.1-.5 0-2 .4-2.7.1 1.8 1 3.5 2 4.7 0 0-2-.7-2.7-1-.9-.4-1-.6-.9-1.8l1.5-10.5c1.1 2.2 1.5 3.3 1.2 4.4m1.4-18.3l-.5-.2c-.2-1-.5-2.4-.5-2.4l-.4-2.6h-.6l.3 2.3c.1.7-.5.8-.8.8-.1-1.3-.2-3.1-.2-3.1l-.6-.5.3 3.9c.1 1.7.1 3.1-1.3 3.5l-.6-2.4c1.4-.4 1.4-1.7 1.2-3.5l-.2-2-.6-.5.3 2.5c.1 1.1.4 2.8-.8 3.1l-.5-1.8c.7-.3.8-.8.6-2.3l-.2-1.6-.6-.7.3 2.4c.1 1.4.1 1.5-.3 1.7-.9-2.7-1.1-4.7-1.1-4.7-.2-3.5.4-4 1.3-4 .5 0 1 .5.9 1-.1.9-1.2.7-1.2.7s-.1 1.1.5 1.9c.8 1.1 2.5 1.7 4.1 1.7.7-2.1 1-2.9 1.1-3.5.1 4.4.1 10.3.1 10.3m-2 3.6l-1.4.3c-.2-.7-.4-1.2-.4-1.2.4.2 1.5.7 1.8.9m-.4-5.2s.6.1 1-.4c0 0 .3 1.2.4 2.1.1.9-.2 2-.5 3.3l-.7-1.5-.4.2.5 1-1.8-.9c1.4-.5 1.7-1.6 1.5-3.8m.1 8.6c-.2-.5-.6-1.7-1-2.7l2.9-.6v-.5l-.7.1c.2-.8.4-1.7.7-2.8l.3.1V47c-.3 0-.7.1-.7.4 0 .3.3.4.7.3.1 1.3-.5 2-2.2 2m2.3 6.2c-.5-1.3-.8-2.1-1.2-3.5l1.3-1.7c.1.5.1 3.7-.1 5.2m.1-6l-1.5 1.9c-.2-.6-.4-1-.6-1.5.8 0 1.5-.1 2.1-1v.6zm-.7-18.6c-.4 1.2-.8 2.8-1.2 3.8-1.3.1-3.6-.8-3.6-2.5 1 .1 1.4-.8 1.2-1.5-.2-1.1-1.2-1.4-2.1-1.1 1.5-1.6 3.1-2.9 5.4-4.3-1.5 3.3 1 3.4.3 5.6m-4.6-4.8c.2.3.6.6.9.9-.8.6-1.7 1.5-2.4 2.2 0-.3-.1-.5-.2-.8 1.1-.2 1.8-.8 1.7-2.3m-7.4 2.2s.4-.1.6-.3c.2.8.8 1.3 1.4 1.4 0 1.2-1.1 1.6-2.1 1 .1-.5.2-1.3.1-2.1m-4.3 6.6l.2-4.1.6-.4c.1 1.3.2 4.1.2 4.1-.4.2-.6.3-1 .4m2.2 0c-.2.6-.5 2.3-.7 3l-.4.4-.5 3s.2.3.3.5C52.2 50.8 53 60.6 53 65.5c0 2.2-.3 2.1-1.5 2.9l1.7-32.2c.6-.2 1.5-.5 2.2-.9M44.9 23.1c.4-.9 1.2-2.1 1.9-2.7l.8.7v.1l-2.7 1.9zm2.9-1.7h.3l2.8 2.3c-.5 1.3-.9 2-1.3 3.9l-2 1.4c-.1-.1-.3 0-.3 0l-4.8-3.8v-.1l.7-.5.3.6c.1.2.2.3.4 0 .3-.5.4-.9.9-1.6l3-2.2zm-10.9-.7l1.8-1.4c.5 1.2 1.1 2.9 1.4 3.9l-3.2-2.5zm3.2 3s.3.8.4 1.2c.1.3.2.3.3 0l.2-.5.8.6v.1L36.5 29l-5.3-4.2v-.1l5.2-3.7h.3l3.4 2.7zm-21 28.4c0-.9.4-1.9 1.3-2.8l.4 1.6c-.2 0-.7.1-.7.1v.9c1-1.3 2.6.5 2.4 2.5-.4.5-1.1 1.3-1.6 1.8-.2-.2-.8-1.3-1-1.7.7 0 1.5-.2 1.2-1.4-.5.8-2.1 1.3-2.1-.2.2 0 .7.1.7-.4 0-.4-.3-.4-.6-.4m2.6-4c-.4-.1-.7-.3-.9-1 0-.3-.1-.5-.1-.9.3-.1.7-.2 1-.3v2.2zm1.9 1.5c-.5 0-1.3 0-1.4-1.8 0-.6-.1-1.2-.1-2.1.3-.1.6-.3.9-.4.1 1.3.1 3.2.6 4.3m.3-7.4c0-.4.4-.7.8-.6.7.1.7.8.7 1.5 0 .6-.1 1.3 0 2.5-.5 0-.8-.2-.8-1v-1.1l-.4.3c0 1.3.1 2.6.4 3.7-1.3 0-1.1-1.7-1.1-3.2-1 .6-2 1.1-3 1.4l-.2-.7c1.5-.4 2.9-1.1 4.1-2.2-.5-.1-.5-.3-.5-.6m-6.4-1.7c.4.2.7.6 1.1.9.2-.1.4-.3.7-.1.9.6.6 2.1-.2 2.1-.5 0-1.1-1.7-1.6-2.9m-.2 5.5c0 .9-.3 1.7-1.3 1.8.1-.5.3-1.3.3-2.1.2 0 .6.2 1 .3m1.5 11.8s-1.3-.9-1.7-1.5c.5-.4 1.1-1 1.4-1.6 0 .9.1 2.3.3 3.1m-.1-7.9c-.6-.3-1.1-1.6-1.1-2.3 0-.5.1-1.4.5-2.1-.8.2-1.4-.2-2.1-.5-.3 1.8-.3 4.1-1.8 4 .5-1 .8-2.4 1-4.3l-.4-.3c-.1.7-.2 1.6-.4 2.4-.1.4-.6.5-.9.4.4-1 .5-2.3.5-3.7l-.4-.3c-.1.5-.2.9-.7 1.1.2-.6.1-1.9.1-2.8 0-.7.4-.9.8-.9s.7.4.7.8-.2.7-.8.8c1.1 1.6 2.8 2.5 4.6 2.7.2-.5.2-.5.2-1.1h1c-.1 1.9.6 1.7.8 3.4.2 1.4-1 3.1-1.6 2.7m11 25.6h4c-.8.2-.8.7-.9 1.5-.2 0-1.1.1-1.4.5-.1-.4-.4-.6-1.1-.5.1-.7-.1-1.3-.6-1.5m8.4 1.3s-.7 0-1.2.6c-.2-.3-.5-.5-1.1-.5 0-.9-.4-1.2-.9-1.4h3.9c-.8.2-.7 1.3-.7 1.3m8.5 3.1c.7 0 .9-.1 1.2-.5.2.5.7.7 1.2.6 0 .6.3 1.3 1.1 1.6h-4.3c.7-.3.8-1.1.8-1.7m-2.7-.2c-.5 0-1.4-.1-1.4-1.2-.1-1.1.9-1.2 1.4-1.3 0-.4-.2-1.6 1-1.6s1.1 1.2 1.2 1.6c.4 0 1.4 0 1.5 1 .2 1.6-1 1.3-1.4 1.3 0 .6.3 1.8-.9 1.8-1.4.1-1.4-1.2-1.4-1.6M41.1 77c0-1-.3-1.2-.6-1.5h3.6c-.6.2-.7.8-.7 1.4-.5 0-.9.3-1.2.6-.4-.4-.6-.6-1.1-.5m-.1 3c.7 0 1-.2 1.2-.6.2.4.7.7 1.3.7 0 .8.2 1.3 1 1.6h-4.2c.5-.2.8-1 .7-1.7m8-3.2c-.6 0-.9.3-1.3.6-.3-.4-.6-.5-1.2-.5 0-.7-.2-1-.6-1.5h3.7c-.4.3-.7.7-.6 1.4m8.1 3c.4 0 .7-.2.9-.5.3.4.5.6 1 .6 0 .7.3 1.4 1 1.7h-3.8c.7-.3.9-1.1.9-1.8m2-3c-.4 0-.9.2-1.1.5-.4-.4-.6-.5-1.1-.5 0-.7-.2-1-.6-1.4h3.2c-.2.3-.4.9-.4 1.4m-6.2.5c-.3-.3-.6-.4-1-.3 0-.8-.2-1.1-.7-1.5h3.6c-.5.3-.7.8-.7 1.4-.4-.1-.8 0-1.2.4m1.6 0c0-.4-.1-1.6.9-1.6 1.1-.1 1 1.3 1 1.5.3 0 1.4 0 1.4 1.1 0 1.2-1.3 1-1.3 1 0 .5.2 2-1 1.9-1.1-.2-.9-1.2-1-1.7-.5 0-1.3.1-1.4-1.2 0-1 1.1-1 1.4-1m6.1 3.8c-1.2 0-1.2-1.4-1.2-1.8-.3 0-1.1.1-1.2-1-.1-1.1.9-1 1.4-1.1 0-.5-.2-1.5.9-1.6 1.1-.1 1 1.2 1.1 1.6.5 0 1.3-.1 1.3 1.1 0 1.1-1 1.1-1.3 1.1 0 .5.2 1.7-1 1.7m3.8-4.5c-.6 0-1 .3-1.3.7-.2-.2-.4-.5-1-.5 0-.7-.3-1.2-.7-1.5H65c-.5.4-.6.9-.6 1.3m5.8-1.2c-.4.4-.5.8-.5 1.2-.5 0-1 .1-1.4.7-.3-.5-.5-.6-1.1-.6 0-.8-.3-1.1-.6-1.4l3.6.1zm-38.6-.5c.1-1.3-1.4-1.2-1.6-2.1 5.3.3 7.7 2 8.8-.9 1.4.3 3.4-.2 3.5-2.2l6.6-.1s-2.1 1.1-3.5 1.9c.9.9 1.9.4 2.6.9.5.4.6 1.3 2.1 1.9 3.1 1.2 3.9-.3 5.1-.9.5.1 2.1 1 4.1 1.1l1.5-1.2c1.5.5 2.8.7 5.1.4 1.2.6 2.8.3 2-1.3l3.1 2.4-39.4.1zm49.3-18.8c-.1.4-.3.8-.5 1.2-.6-.2-.1-.4-.1-1.1-.2-2.1-2.7-3.3-.3-4.9 1.1 1.9-.4 3 .9 4.8m2.7-7.7s2 2.8-.6 4c-1-.6-1.6-2.7.6-4m-.5-4.4c0-.3.2-.7.4-.7s.3.3.3.6-.2.6-.4.6c-.2.1-.3-.2-.3-.5m.3 3.9c-1.2.9-1.8 1.5-1.8 2.7 0 1.9 1.7 2.2.7 2.9-.6.3-.8-.5-1.4-.6.1-1-.9-2-.7-3.3h.5c-.2-1.1-.4-2.8.1-3.1l.4.6c1.4-.9 1.4-2.5 1.4-2.5l.2.3c0 1 .2 2 .6 3M53.8 22.3c.3.3.4-.5.7-.2.4.5-.8.9-.5 1.2.2.1.4-.4.6-.1.3.4-.4.7-.3.9.2.4.4-.3.6.1.2.4-.6 1.2-1.2 1.6-.9.5-2.4 0-1.8-2.2.4-1.1 1.1-1.9 1.9-2.6.4-.3.9 0 .5.4s-.7.7-.5.9m-13-8c-.2.1-1.3-.9-1.7-1.5.5-.1.9-.3 1.3-.4-.5.6.7 1.7.4 1.9m30.3 66.8c-1.1 0-1-1.2-1-1.7-.5 0-1.5 0-1.4-1.2s1.1-1.2 1.5-1.2c0-.3 0-1.4.9-1.5 1 0 .9 1.1 1 1.5 0 0 1.3-.1 1.4 1 .1 1.1-.9 1.2-1.3 1.2 0 .7 0 1.9-1.1 1.9m3-5.7c-.4.3-.8.9-.8 1.4-.2-.1-.4-.2-.7-.2 0-.5-.1-1.1-.6-1.3h1l1.1-1.3c-.1.4-.1 1 0 1.4m3.9-5.7l.1 3.9c-.4-.4-1-.4-1.6 0-.1-.4-.7-.9-1.4-.6l2.9-3.3zm-5.2 5s-1.2-3.1-1.3-3.4c-.3-.7-.4-.9-1.3-1.2v-.6h7.4l-4.8 5.2zm13.4-40.8l-5.6-4.1v-.1l2.3-1.7c1.2 1.7 2.4 4 3.3 5.9m-8.3-12.6C71.5 14.9 63.3 11 54.5 9.9c.3-1.2.8-2.7 1.2-4-.3-1.4-.7-2.7-1-4.1h-.3c-.5 1.4-1 2.5-1.6 3.8.3 1.7.7 2.9.8 4.2 0 0-2.7-.2-4.1-.2-22.1 0-40.1 18.1-40 40.2 0 10.7 4.2 20.8 11.8 28.4C28.9 85.8 39 89.9 49.7 90c10.8.1 20.8-4.4 28.3-12 7.6-7.7 11.8-17.7 11.7-28.4.1-10.7-4.2-20.7-11.8-28.3"/><path class="st0" d="M28.7 79.2c.4 0 .7-.3.7-.7 0-.4-.3-.7-.7-.7-.4 0-.7.3-.7.7 0 .4.3.7.7.7m31.8-1.5c-.4 0-.7.3-.7.7 0 .4.3.7.7.7.4 0 .7-.3.7-.7s-.3-.7-.7-.7m-5 1.4c.4 0 .7-.3.7-.7 0-.4-.3-.7-.7-.7-.4 0-.7.3-.7.7 0 .4.3.7.7.7m-5.1-1.3c-.4 0-.7.3-.7.7 0 .4.3.7.7.7.4 0 .7-.3.7-.7 0-.4-.3-.7-.7-.7m-5.6 1.4c.4 0 .7-.3.7-.7 0-.4-.3-.7-.7-.7-.4 0-.7.3-.7.7 0 .4.3.7.7.7m-4.5-.7c0-.4-.3-.7-.7-.7-.4 0-.7.3-.7.7 0 .4.3.7.7.7.3 0 .7-.3.7-.7m-5.4.1c0-.4-.3-.7-.7-.7-.4 0-.7.3-.7.7 0 .4.3.7.7.7.4 0 .7-.4.7-.7m41-3.5c-.3.1-.6.4-.6.8 0 .5.4.8.8.7.4-.1.5-.4.5-.7 0-.5-.3-.8-.7-.8m-51.7.9c0-.3-.3-.7-.6-.7-.4 0-.6.4-.6.7 0 .3.3.7.7.7.3 0 .5-.4.5-.7m46.9 1.6c-.4 0-.7.3-.7.7 0 .4.3.7.7.7.4 0 .7-.3.7-.7 0-.4-.3-.7-.7-.7m-4.7.7c0-.4-.3-.7-.7-.7-.4 0-.7.3-.7.7 0 .4.3.7.7.7.4 0 .7-.3.7-.7M55.8 33.2c0 .2-.2.3-.3.3-.2 0-.3-.2-.3-.3 0-.2.2-.3.3-.3.1-.1.3.1.3.3m-1.4-4c0 .2-.2.3-.3.3-.2 0-.3-.2-.3-.3 0-.2.2-.3.3-.3.2-.1.3.1.3.3m1.3 1.7c0 .2-.2.3-.3.3-.2 0-.3-.2-.3-.3 0-.2.2-.3.3-.3.1 0 .3.1.3.3m-21.4 16c0 .2-.2.3-.3.3-.2 0-.3-.2-.3-.3 0-.2.1-.3.3-.3.1-.1.3.1.3.3m-.8 1.5c0 .2-.2.3-.3.3-.2 0-.3-.2-.3-.3 0-.2.2-.3.3-.3.2-.1.3.1.3.3m1.4-3.2c0 .2-.2.3-.3.3-.2 0-.3-.2-.3-.3 0-.2.2-.3.3-.3.1 0 .3.1.3.3M36 59.6c0 .2-.2.4-.4.4s-.4-.2-.4-.4.2-.4.4-.4.4.2.4.4m-2.4-.1c0 .2-.2.4-.4.4s-.4-.2-.4-.4.2-.4.4-.4.4.2.4.4m4.9.1c0 .2-.2.4-.4.4s-.4-.2-.4-.4.2-.4.4-.4.4.2.4.4m-5.9 3c0 .2-.2.4-.4.4s-.4-.2-.4-.4.2-.4.4-.4c.3 0 .4.2.4.4m7.7 0c0 .2-.2.4-.4.4s-.4-.2-.4-.4.2-.4.4-.4c.3 0 .4.2.4.4m-2.6.1c0 .2-.2.4-.4.4s-.4-.2-.4-.4.2-.4.4-.4.4.2.4.4m-2.7.2c0 .2-.2.4-.4.4s-.4-.2-.4-.4.2-.4.4-.4c.3 0 .4.2.4.4m-3.8-4c0 .2-.2.4-.4.4s-.4-.2-.4-.4.2-.4.4-.4.4.2.4.4M59.8 50c0 .2-.2.4-.4.4s-.4-.2-.4-.4.2-.4.4-.4.4.2.4.4m-2.6-.8c0 .2-.2.4-.4.4s-.4-.2-.4-.4.2-.4.4-.4c.3 0 .4.2.4.4m5.2.9c0 .2-.2.4-.4.4s-.4-.2-.4-.4.2-.4.4-.4c.3 0 .4.2.4.4m-1.2-3.7c0 .2-.2.4-.4.4s-.4-.2-.4-.4.2-.4.4-.4.4.2.4.4m-2.3-.2c0 .2-.2.4-.4.4s-.4-.2-.4-.4.2-.4.4-.4c.2.1.4.2.4.4m-2.2-.7c0 .2-.2.4-.4.4s-.4-.2-.4-.4.2-.4.4-.4c.3 0 .4.1.4.4m-1.8 2.7c0 .2-.2.4-.4.4s-.4-.2-.4-.4.2-.4.4-.4.4.1.4.4m8.5-1.8c0 .2-.2.4-.4.4s-.4-.2-.4-.4.2-.4.4-.4c.3 0 .4.2.4.4m-31.9 9.2c0 .2-.2.4-.4.4s-.4-.2-.4-.4.2-.4.4-.4.4.2.4.4m1.5.7c0 .2-.2.4-.4.4s-.4-.2-.4-.4.2-.4.4-.4.4.1.4.4m1.6.4c0 .2-.2.4-.4.4s-.4-.2-.4-.4.2-.4.4-.4.4.2.4.4m1.7.2c0 .2-.2.4-.4.4s-.4-.2-.4-.4.2-.4.4-.4.4.2.4.4m1.7.1c0 .2-.2.4-.4.4s-.4-.2-.4-.4.2-.4.4-.4.4.1.4.4m1.7-.1c0 .2-.2.4-.4.4s-.4-.2-.4-.4.2-.4.4-.4.4.1.4.4m19-13.7c0 .2-.2.4-.4.4s-.4-.2-.4-.4.2-.4.4-.4.4.1.4.4m-1.5-.8c0 .2-.2.4-.4.4s-.4-.2-.4-.4.2-.4.4-.4.4.1.4.4m-1.3-1.2c0 .2-.2.4-.4.4s-.4-.2-.4-.4.2-.4.4-.4.4.2.4.4m4.5 2.3c0 .2-.2.4-.4.4s-.4-.2-.4-.4.2-.4.4-.4.4.2.4.4m1.8 0c0 .2-.2.4-.4.4s-.4-.2-.4-.4.2-.4.4-.4.4.2.4.4m2.1-.6c0 .2-.2.4-.4.4s-.4-.2-.4-.4.2-.4.4-.4.4.2.4.4m-17.9 22c0 .4-.4.8-.8.8s-.8-.4-.8-.8.4-.8.8-.8.8.4.8.8"/><path class="st1" d="M46.1 64.9c0 .2-.2.4-.4.4s-.4-.2-.4-.4.2-.4.4-.4c.2-.1.4.2.4.4"/><path class="st0" d="M18.2 69.6c0 .4-.4.8-.8.8s-.8-.4-.8-.8.4-.8.8-.8c.5 0 .8.3.8.8"/><path class="st1" d="M17.9 69.6c0 .2-.2.4-.4.4s-.4-.2-.4-.4.2-.4.4-.4c.2-.1.4.1.4.4"/><path class="st0" d="M18.5 61c0 .4-.4.8-.8.8s-.8-.4-.8-.8.4-.8.8-.8.8.4.8.8"/><path class="st1" d="M18.1 61c0 .2-.2.4-.4.4s-.4-.2-.4-.4.2-.4.4-.4.4.2.4.4"/><path class="st0" d="M24.7 56.6c0 .4-.4.8-.8.8s-.8-.4-.8-.8.4-.8.8-.8c.5 0 .8.3.8.8"/><path class="st1" d="M24.4 56.6c0 .2-.2.4-.4.4s-.4-.2-.4-.4.2-.4.4-.4c.2-.1.4.1.4.4"/><path class="st0" d="M24.3 65.1c0 .4-.4.8-.8.8s-.8-.4-.8-.8.4-.8.8-.8c.5 0 .8.4.8.8"/><path class="st1" d="M24 65.1c0 .2-.2.4-.4.4s-.4-.2-.4-.4.2-.4.4-.4.4.2.4.4"/><path class="st0" d="M39.7 86.5c0 .4-.4.8-.8.8s-.8-.4-.8-.8.4-.8.8-.8c.5 0 .8.3.8.8"/><path class="st1" d="M39.4 86.5c0 .2-.2.4-.4.4s-.4-.2-.4-.4.2-.4.4-.4c.2-.1.4.1.4.4"/><path class="st0" d="M63.5 86.4c0 .4-.4.8-.8.8s-.8-.4-.8-.8.4-.8.8-.8.8.4.8.8"/><path class="st1" d="M63.1 86.4c0 .2-.2.4-.4.4s-.4-.2-.4-.4.2-.4.4-.4.4.2.4.4"/><path class="st0" d="M51.6 86.5c0 .4-.4.8-.8.8s-.8-.4-.8-.8.4-.8.8-.8.8.4.8.8"/><path class="st1" d="M51.2 86.5c0 .2-.2.4-.4.4s-.4-.2-.4-.4.2-.4.4-.4c.2-.1.4.1.4.4"/><path class="st0" d="M70.3 18.1c0 .4-.4.8-.8.8s-.8-.4-.8-.8.4-.8.8-.8c.5 0 .8.4.8.8"/><path class="st1" d="M70 18.1c0 .2-.2.4-.4.4s-.4-.2-.4-.4.2-.4.4-.4c.2-.1.4.1.4.4"/><path class="st0" d="M75.5 21.9c0 .4-.4.8-.8.8s-.8-.4-.8-.8.4-.8.8-.8c.5 0 .8.4.8.8"/><path class="st1" d="M75.2 21.9c0 .2-.2.4-.4.4s-.4-.2-.4-.4.2-.4.4-.4.4.2.4.4"/><path class="st0" d="M75.2 29.8c0 .4-.4.8-.8.8s-.8-.4-.8-.8.4-.8.8-.8c.5 0 .8.4.8.8"/><path class="st1" d="M74.9 29.8c0 .2-.2.4-.4.4s-.4-.2-.4-.4.2-.4.4-.4.4.2.4.4"/><path class="st0" d="M80.9 25.9c0 .4-.4.8-.8.8s-.8-.4-.8-.8.4-.8.8-.8.8.3.8.8"/><path class="st1" d="M80.6 25.9c0 .2-.2.4-.4.4s-.4-.2-.4-.4.2-.4.4-.4c.2-.1.4.1.4.4"/><path class="st0" d="M86.7 38.3c0 .4-.4.8-.8.8s-.8-.4-.8-.8.4-.8.8-.8.8.3.8.8"/><path class="st1" d="M86.3 38.3c0 .2-.2.4-.4.4s-.4-.2-.4-.4.2-.4.4-.4c.2-.1.4.1.4.4"/><path class="st0" d="M80.8 34.1c0 .4-.4.8-.8.8s-.8-.4-.8-.8.4-.8.8-.8c.5 0 .8.4.8.8"/><path class="st1" d="M80.5 34.1c0 .2-.2.4-.4.4s-.4-.2-.4-.4.2-.4.4-.4.4.2.4.4"/><path class="st0" d="M74.9 38.1c0 .4-.4.8-.8.8s-.8-.4-.8-.8.4-.8.8-.8.8.4.8.8"/><path class="st1" d="M74.5 38.1c0 .2-.2.4-.4.4s-.4-.2-.4-.4.2-.4.4-.4.4.2.4.4"/><path class="st0" d="M86.8 54.9c0 .4-.4.8-.8.8s-.8-.4-.8-.8.4-.8.8-.8c.5 0 .8.3.8.8"/><path class="st1" d="M86.5 54.9c0 .2-.2.4-.4.4s-.4-.2-.4-.4.2-.4.4-.4c.2-.1.4.1.4.4"/><path class="st0" d="M80.5 67.2c0 .4-.4.8-.8.8s-.8-.4-.8-.8.4-.8.8-.8.8.4.8.8"/><path class="st1" d="M80.1 67.2c0 .2-.2.4-.4.4s-.4-.2-.4-.4.2-.4.4-.4.4.2.4.4"/><path class="st0" d="M74.9 62.6c0 .4-.4.8-.8.8s-.8-.4-.8-.8.4-.8.8-.8.8.4.8.8"/><path class="st1" d="M74.6 62.6c0 .2-.2.4-.4.4s-.4-.2-.4-.4.2-.4.4-.4.4.2.4.4"/><path class="st0" d="M42.3 37.5c0 .4-.4.8-.8.8s-.8-.4-.8-.8.4-.8.8-.8.8.3.8.8"/><path class="st1" d="M41.9 37.5c0 .2-.2.4-.4.4s-.4-.2-.4-.4.2-.4.4-.4c.2-.1.4.1.4.4"/><path class="st0" d="M20 36.8c0 .4-.4.8-.8.8s-.8-.4-.8-.8.4-.8.8-.8c.5 0 .8.4.8.8"/><path class="st1" d="M19.7 36.8c0 .2-.2.4-.4.4s-.4-.2-.4-.4.2-.4.4-.4c.2-.1.4.1.4.4"/><path class="st0" d="M12.3 56.5c0 .4-.4.8-.8.8s-.8-.4-.8-.8.4-.8.8-.8.8.4.8.8"/><path class="st1" d="M11.9 56.5c0 .2-.2.4-.4.4s-.4-.2-.4-.4.2-.4.4-.4.4.2.4.4"/><path class="st0" d="M46.4 57.3c0 .4-.4.8-.8.8s-.8-.4-.8-.8.4-.8.8-.8.8.3.8.8"/><path class="st1" d="M46.1 57.3c0 .2-.2.4-.4.4s-.4-.2-.4-.4.2-.4.4-.4.4.1.4.4"/><path class="st0" d="M25.7 33c0 .4-.4.8-.8.8s-.8-.4-.8-.8.4-.8.8-.8.8.4.8.8"/><path class="st1" d="M25.3 33c0 .2-.2.4-.4.4s-.4-.2-.4-.4.2-.4.4-.4.4.2.4.4"/><path class="st0" d="M37.3 24.9c0 .4-.4.8-.8.8s-.8-.4-.8-.8.4-.8.8-.8c.5 0 .8.4.8.8"/><path class="st1" d="M37 24.9c0 .2-.2.4-.4.4s-.4-.2-.4-.4.2-.4.4-.4.4.2.4.4"/><path class="st0" d="M48.1 33.5c0 .4-.4.8-.8.8s-.8-.4-.8-.8.4-.8.8-.8.8.4.8.8"/><path class="st1" d="M47.7 33.5c0 .2-.2.4-.4.4s-.4-.2-.4-.4.2-.4.4-.4c.2-.1.4.1.4.4"/><path class="st0" d="M48.5 25c0 .4-.4.8-.8.8s-.8-.4-.8-.8.4-.8.8-.8c.5 0 .8.4.8.8"/><path class="st1" d="M48.2 25c0 .2-.2.4-.4.4s-.4-.2-.4-.4.2-.4.4-.4.4.2.4.4"/><path class="st0" d="M42.8 29.3c0 .4-.4.8-.8.8s-.8-.4-.8-.8.4-.8.8-.8c.5 0 .8.3.8.8"/><path class="st1" d="M42.5 29.3c0 .2-.2.4-.4.4s-.4-.2-.4-.4.2-.4.4-.4c.2-.1.4.1.4.4"/><path class="st0" d="M20 28.6c0 .4-.4.8-.8.8s-.8-.4-.8-.8.4-.8.8-.8c.5 0 .8.4.8.8"/><path class="st1" d="M19.7 28.6c0 .2-.2.4-.4.4s-.4-.2-.4-.4.2-.4.4-.4.4.2.4.4"/><path class="st0" d="M15 32.7c0 .4-.4.8-.8.8s-.8-.4-.8-.8.4-.8.8-.8c.5 0 .8.4.8.8"/><path class="st1" d="M14.7 32.7c0 .2-.2.4-.4.4s-.4-.2-.4-.4.2-.4.4-.4.4.2.4.4"/><path class="st0" d="M25.8 24.5c0 .4-.4.8-.8.8s-.8-.4-.8-.8.4-.8.8-.8.8.4.8.8"/><path class="st1" d="M25.5 24.5c0 .2-.2.4-.4.4s-.4-.2-.4-.4.2-.4.4-.4.4.2.4.4"/><path class="st0" d="M31.7 20.6c0 .4-.4.8-.8.8s-.8-.4-.8-.8.4-.8.8-.8c.5 0 .8.3.8.8"/><path class="st1" d="M31.4 20.6c0 .2-.2.4-.4.4s-.4-.2-.4-.4.2-.4.4-.4c.2-.1.4.1.4.4"/><path class="st0" d="M86.3 62.8c0 .4-.4.8-.8.8s-.8-.4-.8-.8.3-.8.8-.8c.4 0 .8.4.8.8"/><path class="st1" d="M85.9 62.8c0 .2-.2.4-.4.4s-.4-.2-.4-.4.2-.4.4-.4.4.2.4.4"/><path d="M220.7 34.9h-2.2v.4h6.8v-.4h-2.2v-6.5c.1-.1.1-.2.1-.2l.4-.8.3-.5 3.2-5.8h1.6v-.4h-4.5v.4h2.3l-3.6 6.4c-.1-.2-.1-.3-.3-.6l-3.6-5.8h2v-.4h-6v.4h1.2l4.5 7.3v6.5zm-16.8 0h-2.2v.4h6.9v-.4h-2.2V21.1h.8c1.6 0 2.1.2 2.7.9.7.9 1.1 1.8 1.4 3.3h.3l-.2-4.6h-12.7l-.2 4.6h.4c.3-1.5.7-2.4 1.4-3.3.7-.8 1.1-.9 2.7-.9h.8v13.8zm-17.3 0h-1.9v.4h11.6l.4-4.5h-.3c-.4 1.8-.8 2.6-1.4 3.3s-1.2.8-3.1.8h-2.8V21.1h1.9v-.4h-6.4v.4h1.9v13.8zm-8.3-13.8v8.4c0 2.4-.1 2.9-.5 3.8-.6 1.2-1.7 1.8-3.2 1.8-1.3 0-2.4-.5-2.9-1.3-.6-.8-.7-1.2-.7-4.3v-8.4h1.9v-.4h-6.4v.4h1.9v8.4c0 2.9.2 3.8 1.2 4.7.9.9 2.6 1.4 4.4 1.4 1.8 0 3.1-.5 3.9-1.6.7-1 .8-1.7.8-4.5v-8.4h1.9v-.4h-4.4v.4h2.1zm-15.7 10.1h-.3c-1 2.6-2.4 3.9-4.5 3.9-1.3 0-2.5-.5-3.1-1.4-.6-.8-.7-2.1-.7-5.1 0-3.2.2-5.1.7-6 .6-1.1 1.8-1.7 3.3-1.7 2.2 0 3.7 1.3 4.3 3.6h.3v-3.9h-.3l-.8 1c-1.1-.8-2.4-1.3-3.6-1.3-1.3 0-2.8.5-3.9 1.4-1.8 1.4-2.9 3.7-2.9 6.2 0 4.1 3 7.5 6.6 7.5 1.3 0 2.5-.4 3.8-1.3l.8 1.1h.3v-4zm-19.8-1h-4.4l2.2-6.1 2.2 6.1zm.2.4l1.5 4.3h-2v.4h6.3v-.4h-1.6l-5-14.2h-.7l-5.3 14.2H135v.4h3.8v-.4h-2l1.5-4.3h4.7zm-18.8 4.3h-1.9v.4h6.4v-.4h-1.9v-6.8h.7c1.4 0 2 .2 2.3.9.2.4.3.7.4 2h.3v-6h-.3c0 2.4-.5 2.8-3.4 2.7v-6.6h1.4c1.9 0 2 0 2.4.1.7.1 1.1.4 1.6.9.6.6.9 1.3 1.2 2.7h.3l-.3-4.1h-11.1v.4h1.9v13.8zm252.2 7.5h-.4l-.8.9c-1-.6-1.9-.9-2.9-.9-2.4 0-4.3 2-4.3 4.5 0 1.1.4 2 1.1 2.6.6.5 1.3.8 3.2 1.3 1.8.4 2.2.6 2.7.9.7.5 1 1.3 1 2.2 0 1.9-1.4 3.1-3.4 3.1-1.4 0-2.7-.6-3.5-1.7-.5-.7-.8-1.3-1-2.6h-.3v4.5h.5l.9-1.1c1.1.9 2.2 1.3 3.5 1.3 2.7 0 4.6-2.1 4.6-5 0-1.4-.5-2.5-1.4-3.3-.6-.5-1.1-.7-3-1.2-1.5-.4-2.2-.6-2.6-.8-.7-.4-1-.9-1-1.7 0-1.5 1.3-2.6 3.1-2.6 1.1 0 2.1.5 2.8 1.3.5.6.7 1.1.9 2.1h.4v-3.8zm-23.3 14.4h-1.9v.4h11.6l.4-4.6h-.3c-.7 2.4-1.1 3.1-2 3.7-.5.4-.7.4-2.3.4h-3V50h.7c1.4 0 2 .2 2.3.9.2.4.3.7.4 2h.3v-6h-.3c0 2.4-.5 2.8-3.4 2.7V43h1.8c1.2 0 1.5 0 1.8.1.8.1 1.5.5 1.9 1 .5.6.8 1.3 1.1 2.5h.3l-.2-4h-11.2v.4h1.9v13.8zm-6.2-3.7h-.3c-1 2.6-2.4 3.9-4.5 3.9-1.3 0-2.5-.5-3.1-1.4-.6-.8-.7-2.1-.7-5.1 0-3.2.2-5.1.7-6 .6-1.1 1.8-1.7 3.3-1.7 2.2 0 3.7 1.3 4.3 3.6h.3v-3.9h-.3l-.8 1c-1.1-.8-2.4-1.3-3.6-1.3-1.3 0-2.8.5-3.9 1.4-1.8 1.4-2.9 3.7-2.9 6.2 0 4.1 3 7.5 6.6 7.5 1.3 0 2.5-.4 3.8-1.3l.8 1.1h.3v-4zm-27.6 3.7h-1.9v.4h4.4v-.4h-2V43.4l9.5 13.8h.5V43h1.9v-.4h-4.4v.4h2v9.9c-.7-1.2-.8-1.3-2.6-3.9l-4.5-6.4h-4.9v.4h1.9v13.8zm-15.9 0h-1.9v.4h11.6l.4-4.6h-.3c-.7 2.4-1.1 3.1-2 3.7-.5.4-.7.4-2.3.4h-3V50h.7c1.4 0 2 .2 2.3.9.2.4.3.7.4 2h.3v-6h-.3c0 2.4-.5 2.8-3.4 2.7V43h1.8c1.2 0 1.5 0 1.8.1.8.1 1.5.5 1.9 1 .5.6.8 1.3 1.1 2.5h.3l-.2-4h-11.2v.4h1.9v13.8zm-10.4 0h-1.9v.4h6.4v-.4h-1.9V43h1.9v-.4h-6.4v.4h1.9v13.8zm-6.1-3.7h-.3c-1 2.6-2.4 3.9-4.5 3.9-1.3 0-2.5-.5-3.1-1.4-.6-.8-.7-2.1-.7-5.1 0-3.2.2-5.1.7-6 .6-1.1 1.8-1.7 3.3-1.7 2.2 0 3.7 1.3 4.3 3.6h.3v-3.9h-.3l-.8 1c-1.1-.8-2.4-1.3-3.6-1.3-1.3 0-2.8.5-3.9 1.4-1.8 1.4-2.9 3.7-2.9 6.2 0 4.1 3 7.5 6.6 7.5 1.3 0 2.5-.4 3.8-1.3l.8 1.1h.3v-4zm-16.8-10.7h-.3l-.8.9c-1-.6-1.9-.9-2.9-.9-2.4 0-4.3 2-4.3 4.5 0 1.1.4 2 1.1 2.6.6.5 1.3.8 3.2 1.3 1.8.4 2.2.6 2.7.9.7.5 1 1.3 1 2.2 0 1.9-1.4 3.1-3.4 3.1-1.4 0-2.7-.6-3.5-1.7-.5-.7-.8-1.3-1-2.6h-.4v4.5h.5l.9-1.1c1.1.9 2.2 1.3 3.5 1.3 2.7 0 4.6-2.1 4.6-5 0-1.4-.5-2.5-1.4-3.3-.6-.5-1.1-.7-3-1.2-1.5-.4-2.2-.6-2.6-.8-.7-.4-1-.9-1-1.7 0-1.5 1.3-2.6 3.1-2.6 1.1 0 2.1.5 2.8 1.3.5.6.7 1.1.9 2.1h.3v-3.8zm-30.7 14.4h-1.9v.4h11.6l.4-4.5h-.3c-.4 1.8-.8 2.6-1.4 3.3-.6.7-1.2.8-3.1.8h-2.8V43h1.9v-.4h-6.4v.4h1.9v13.8zm-11.5-4.7h-4.4l2.2-6.1 2.2 6.1zm.2.4l1.5 4.3h-2v.4h6.3v-.4h-1.6l-5-14.2h-.7l-5.3 14.2h-1.1v.4h3.8v-.4h-2l1.5-4.3h4.6zM212 56.8h-2v.4h6.4v-.4h-1.9V43h1.9v-.4H210v.4h1.9v13.8zm-6.2-3.7h-.4c-1 2.6-2.4 3.9-4.5 3.9-1.3 0-2.5-.5-3.1-1.4-.6-.8-.7-2.1-.7-5.1 0-3.2.2-5.1.7-6 .6-1.1 1.8-1.7 3.3-1.7 2.2 0 3.7 1.3 4.3 3.6h.4v-3.9h-.4l-.8 1c-1.1-.8-2.4-1.3-3.6-1.3-1.3 0-2.8.5-3.9 1.4-1.8 1.4-2.9 3.7-2.9 6.2 0 4.1 3 7.5 6.6 7.5 1.3 0 2.5-.4 3.8-1.3l.8 1.1h.4v-4zm-22.6-10.2c1.2 0 2.3.5 2.9 1.3.7.9.9 2.4.9 5.9 0 3-.2 4.6-.7 5.4-.6 1-1.7 1.5-3.1 1.5-1.2 0-2.3-.5-2.9-1.3-.7-.9-.9-2.4-.9-5.7 0-3.1.2-4.7.7-5.5.6-1.1 1.7-1.6 3.1-1.6m-.1-.5c-3.6 0-6.8 3.5-6.8 7.5 0 4.1 3.1 7.6 6.8 7.6 1.7 0 3.3-.7 4.5-2 1.4-1.5 2.3-3.6 2.3-5.5 0-4.2-3.1-7.6-6.8-7.6m-11.9 0h-.3l-.8.9c-1-.6-1.9-.9-2.9-.9-2.4 0-4.3 2-4.3 4.5 0 1.1.4 2 1.1 2.6.6.5 1.3.8 3.2 1.3 1.8.4 2.2.6 2.7.9.7.5 1 1.3 1 2.2 0 1.9-1.4 3.1-3.4 3.1-1.4 0-2.7-.6-3.5-1.7-.5-.7-.8-1.3-1-2.6h-.4v4.5h.5l.9-1.1c1.1.9 2.2 1.3 3.5 1.3 2.7 0 4.6-2.1 4.6-5 0-1.4-.5-2.5-1.4-3.3-.6-.5-1.1-.7-3-1.2-1.5-.4-2.2-.6-2.6-.8-.7-.4-1-.9-1-1.7 0-1.5 1.3-2.6 3.1-2.6 1.1 0 2.1.5 2.8 1.3.5.6.7 1.1.9 2.1h.3v-3.8zm-29.8 14.4h-1.9v.4h6.4v-.4H144V50h.7c1.4 0 2 .2 2.3.9.2.4.3.7.4 2h.3v-6h-.3c0 2.4-.5 2.8-3.4 2.7V43h1.4c1.9 0 2 0 2.4.1.7.1 1.1.4 1.6.9.6.6.9 1.3 1.2 2.7h.3l-.3-4.1h-11.1v.4h1.9v13.8zM129 42.9c1.2 0 2.3.5 2.9 1.3.7.9.9 2.4.9 5.9 0 3-.2 4.6-.7 5.4-.6 1-1.7 1.5-3.1 1.5-1.2 0-2.3-.5-2.9-1.3-.7-.9-.9-2.4-.9-5.7 0-3.1.2-4.7.7-5.5.6-1.1 1.8-1.6 3.1-1.6m0-.5c-3.6 0-6.8 3.5-6.8 7.5 0 4.1 3.1 7.6 6.8 7.6 1.7 0 3.3-.7 4.5-2 1.4-1.5 2.3-3.6 2.3-5.5 0-4.2-3.1-7.6-6.8-7.6"/><path class="st2" d="M296.9 71.3h.9v-.4h-3.2v.4h1.8l-2.1 5.4-2.5-5.4h1.6v-.4h-4.7v.4h1l3.8 7.8-1.2 3.1c-.4 1-.5 1.1-.7 1.1-.1 0-.2-.1-.3-.2-.2-.3-.5-.4-.9-.4-.6 0-1.1.4-1.1 1s.5 1 1.3 1c1 0 1.6-.6 2.3-2.2l4-11.2zm-12.6-3.6h-.3c-.5 1.5-1.5 2.6-3 3.3v.3h1.4v5.3c0 1.3 0 1.5.4 2s1.1.8 1.9.8c1.3 0 2.1-.6 2.3-1.8h-.4c-.2.8-.5 1.1-1.2 1.1-.4 0-.7-.1-.8-.4-.2-.2-.2-.4-.2-1v-6h2.2v-.4h-2.2v-3.2zm-7.4-2.3c-.7 0-1.2.5-1.2 1.2s.5 1.2 1.2 1.2 1.3-.5 1.3-1.2c0-.6-.6-1.2-1.3-1.2m-.9 13.3h-1.5v.4h5v-.4H278v-7.8h-3.5v.4h1.5v7.4zm-4.2-7.9h-.3l-.4.7c-.8-.6-1.4-.8-2.2-.8-1.5 0-2.6 1.1-2.6 2.6 0 .7.2 1.3.7 1.8.4.5 1 .7 2.3.9 1.6.2 2.1.6 2.1 1.4 0 .9-.9 1.6-2 1.6-.8 0-1.6-.4-2.1-1-.3-.5-.6-1-.8-1.9h-.3l.1 3.1h.2l.5-.7c.8.7 1.5.9 2.3.9 1.6 0 2.8-1.2 2.8-2.8 0-.7-.2-1.3-.6-1.7-.5-.5-1-.8-2.4-1-1.7-.3-2.2-.5-2.2-1.2 0-.8.8-1.4 1.9-1.4 1.3 0 2.3.8 2.5 2.1h.3l.2-2.6zm-13.7 7.9h-1.5v.4h5v-.4h-1.5v-2c0-2.4.2-3.6.9-4.7.2-.3.4-.5.6-.5.1 0 .2.1.2.3 0 .4 0 .4.1.6.2.4.5.6.9.6.6 0 1.1-.5 1.1-1.1 0-.7-.6-1.2-1.4-1.2-1 0-1.8.7-2.4 2.2v-2h-3.5v.4h1.5v7.4zm-9.4-4.8v-.4c0-1 .1-1.4.4-1.8.3-.4.8-.5 1.4-.5.7 0 1.2.3 1.4.8.2.4.2.5.2 1.9h-3.4zm5.8.4c0-.9-.2-1.4-.6-2-.7-1.1-1.9-1.7-3.3-1.7-2.2 0-4.2 2-4.2 4.3s2 4.3 4.3 4.3c1.8 0 3.3-1.2 3.6-3h-.5c-.4 1.6-1.5 2.5-3 2.5-.8 0-1.5-.4-1.8-1-.2-.4-.3-.9-.3-3v-.6h5.8zm-10.4-3h.9v-.4h-3.2v.4h1.7l-2.3 5.6-2.3-5.6h1.6v-.4h-4.7v.4h.9l3.4 8h.8l3.2-8zM232 65.4c-.7 0-1.2.5-1.2 1.2s.5 1.2 1.2 1.2 1.3-.5 1.3-1.2c0-.6-.6-1.2-1.3-1.2m-.9 13.3h-1.5v.4h5v-.4h-1.5v-7.8h-3.5v.4h1.5v7.4zm-13.1 0h-1.5v.4h4.8v-.4H220v-2.5c0-2.6.1-3.5.6-4.1.4-.5 1-.8 1.6-.8.4 0 .8.2 1.1.5.3.4.4 1.2.4 3.7v3.2h-1.3v.4h4.8v-.4h-1.5V74c0-1.6-.1-2-.6-2.6-.5-.5-1.4-.8-2.3-.8-1.2 0-2.1.4-2.8 1.3v-1.1h-3.5v.4h1.5v7.5zm-5.3-13.1v8c0 2.3-.1 2.8-.4 3.6-.5 1.1-1.6 1.7-3 1.7-1.2 0-2.2-.4-2.8-1.2-.6-.8-.6-1.1-.6-4.1v-8h1.8v-.4h-6.1v.4h1.8v8c0 2.8.2 3.6 1.1 4.5.9.8 2.4 1.3 4.2 1.3 1.7 0 3-.5 3.7-1.5.7-.9.8-1.6.8-4.3v-8h1.8v-.4h-4.2v.4h1.9zm-20.4 5.2h-.3l-.4.7c-.8-.6-1.4-.8-2.2-.8-1.5 0-2.6 1.1-2.6 2.6 0 .7.2 1.3.7 1.8.4.5 1 .7 2.3.9 1.6.2 2.1.6 2.1 1.4 0 .9-.9 1.6-2 1.6-.8 0-1.6-.4-2.1-1-.3-.5-.6-1-.8-1.9h-.3l.1 3.1h.2l.5-.7c.8.7 1.5.9 2.3.9 1.6 0 2.8-1.2 2.8-2.8 0-.7-.2-1.3-.6-1.7-.5-.5-1-.8-2.4-1-1.7-.3-2.2-.5-2.2-1.2 0-.8.8-1.4 1.9-1.4 1.3 0 2.3.8 2.5 2.1h.3l.2-2.6zm-14.1 3.1v-.4c0-1 .1-1.4.4-1.8.3-.4.8-.5 1.4-.5.7 0 1.2.3 1.4.8.2.4.2.5.2 1.9h-3.4zm5.8.4c0-.9-.2-1.4-.6-2-.7-1.1-1.9-1.7-3.3-1.7-2.2 0-4.2 2-4.2 4.3s2 4.3 4.3 4.3c1.8 0 3.3-1.2 3.6-3h-.5c-.4 1.6-1.5 2.5-3 2.5-.8 0-1.5-.4-1.8-1-.2-.4-.3-.9-.3-3v-.6h5.8zm-13.5 4.4H169v.4h5v-.4h-1.5V65.1H169v.4h1.5v13.2zm-8.7 0h-1.5v.4h5v-.4h-1.5v-2c0-2.4.2-3.6.9-4.7.2-.3.4-.5.6-.5.1 0 .2.1.2.3 0 .4 0 .4.1.6.2.4.5.6.9.6.6 0 1.1-.5 1.1-1.1 0-.7-.6-1.2-1.4-1.2-1 0-1.8.7-2.4 2.2v-2h-3.5v.4h1.5v7.4zm-7.3-3.3c0 1.1-.1 1.7-.4 2.1-.4.6-.9.9-1.6.9-.8 0-1.3-.5-1.3-1.4 0-.7.3-1.2 1-1.6.5-.3 1.1-.4 2.3-.5v.5zm3.1 3c-.4.3-.4.3-.7.3-.2 0-.3-.1-.4-.3-.1-.2-.1-.2-.1-2.2V74c0-1.8 0-2-.5-2.4-.5-.5-1.5-.9-2.6-.9-1.8 0-3.5 1-3.5 2.1 0 .5.4.9 1 .9.5 0 .9-.4.9-.9 0-.2-.1-.4-.3-.7-.1-.1-.1-.1-.1-.2 0-.4.9-.9 1.7-.9.5 0 1 .2 1.2.4.2.3.3.5.3 1.7v1.4c-1.5 0-2.4.2-3.2.5-1.3.5-2 1.3-2 2.4 0 1.2 1 2 2.4 2 1.2 0 2.2-.6 2.9-1.6.1 1.1.8 1.6 1.9 1.6.6 0 1-.2 1.5-.6l-.4-.4zm-20.2.3h-1.5v.4h4.8v-.4h-1.3v-3c0-1.6.1-2.3.4-2.9.4-.9 1.3-1.5 2.3-1.5.5 0 1 .2 1.2.5.2.3.2.5.2 2v5h-1.3v.4h4.8v-.4h-1.5v-5c0-1.5-.1-1.8-.5-2.3-.4-.5-1.3-.8-2.3-.8-1.5 0-2.5.5-3.3 1.7v-7.2h-3.5v.4h1.5v13.1zm-4-3.5h-.4c-.9 2.5-2.3 3.7-4.3 3.7-1.3 0-2.4-.5-2.9-1.3-.5-.7-.7-2-.7-4.9 0-3.1.2-4.9.7-5.7.6-1 1.7-1.6 3.1-1.6 2.1 0 3.6 1.2 4.1 3.4h.3v-3.7h-.3l-.8 1c-1.1-.8-2.3-1.2-3.5-1.2-1.2 0-2.6.5-3.8 1.3-1.8 1.3-2.8 3.5-2.8 5.9 0 3.9 2.9 7.2 6.3 7.2 1.3 0 2.4-.4 3.7-1.2l.8 1h.3v-3.9z"/></svg>