<?xml version="1.0" encoding="utf-8"?>
<!-- Generator: Adobe Illustrator 21.1.0, SVG Export Plug-In . SVG Version: 6.00 Build 0)  -->
<svg version="1.1" id="Vrstva_1" xmlns="http://www.w3.org/2000/svg" xmlns:xlink="http://www.w3.org/1999/xlink" x="0px" y="0px"
	 viewBox="0 0 19.5 21" style="enable-background:new 0 0 19.5 21;" xml:space="preserve">
<style type="text/css">
	.st0{fill:#808080;}
</style>
<g>
	<path class="st0" d="M19.5,4.5v15c0,0.4-0.1,0.8-0.4,1.1S18.4,21,18,21H1.5c-0.4,0-0.8-0.1-1.1-0.4S0,19.9,0,19.5v-15
		c0-0.4,0.1-0.8,0.4-1.1S1.1,3,1.5,3H3V1.9c0-0.5,0.2-1,0.6-1.3S4.4,0,4.9,0h0.8c0.5,0,1,0.2,1.3,0.6s0.6,0.8,0.6,1.3V3H12V1.9
		c0-0.5,0.2-1,0.6-1.3S13.4,0,13.9,0h0.8c0.5,0,1,0.2,1.3,0.6s0.6,0.8,0.6,1.3V3H18c0.4,0,0.8,0.1,1.1,0.4S19.5,4.1,19.5,4.5z
		 M1.5,10.9h3.4V7.5H1.5V10.9z M1.5,15.4h3.4v-3.8H1.5V15.4z M1.5,19.5h3.4v-3.4H1.5V19.5z M6,5.2V1.9c0-0.1,0-0.2-0.1-0.3
		S5.7,1.5,5.6,1.5H4.9c-0.1,0-0.2,0-0.3,0.1S4.5,1.8,4.5,1.9v3.4c0,0.1,0,0.2,0.1,0.3s0.2,0.1,0.3,0.1h0.8c0.1,0,0.2,0,0.3-0.1
		S6,5.4,6,5.2z M5.6,10.9h3.8V7.5H5.6V10.9z M5.6,15.4h3.8v-3.8H5.6V15.4z M5.6,19.5h3.8v-3.4H5.6V19.5z M10.1,10.9h3.8V7.5h-3.8
		V10.9z M10.1,15.4h3.8v-3.8h-3.8V15.4z M10.1,19.5h3.8v-3.4h-3.8V19.5z M15,5.2V1.9c0-0.1,0-0.2-0.1-0.3s-0.2-0.1-0.3-0.1h-0.8
		c-0.1,0-0.2,0-0.3,0.1s-0.1,0.2-0.1,0.3v3.4c0,0.1,0,0.2,0.1,0.3s0.2,0.1,0.3,0.1h0.8c0.1,0,0.2,0,0.3-0.1S15,5.4,15,5.2z
		 M14.6,10.9H18V7.5h-3.4V10.9z M14.6,15.4H18v-3.8h-3.4V15.4z M14.6,19.5H18v-3.4h-3.4V19.5z"/>
</g>
</svg>
