<?xml version="1.0" encoding="utf-8"?>
<!-- Generator: Adobe Illustrator 21.1.0, SVG Export Plug-In . SVG Version: 6.00 Build 0)  -->
<svg version="1.1" id="Vrstva_1" xmlns="http://www.w3.org/2000/svg" xmlns:xlink="http://www.w3.org/1999/xlink" x="0px" y="0px"
	 viewBox="0 0 73.9 73.9" style="enable-background:new 0 0 73.9 73.9;" xml:space="preserve">
<style type="text/css">
	.st0{fill:#1D1D1B;}
	.st1{fill:#FFFFFF;}
	.st2{clip-path:url(#SVGID_2_);fill:#1D1D1B;}
	.st3{clip-path:url(#SVGID_2_);fill:#FFFFFF;}
	.st4{clip-path:url(#SVGID_4_);fill:#FFFFFF;}
</style>
<polygon class="st0" points="36.9,0 36.9,0 0,36.9 36.9,73.9 73.9,36.9 "/>
<rect x="21.8" y="23.3" transform="matrix(0.7071 -0.7071 0.7071 0.7071 -16.3808 37.3894)" class="st1" width="30.3" height="30.3"/>
<path class="st1" d="M1.9,37l35-35l35,35l-35,35L1.9,37z M1,37l35.9,35.9L72.8,37L36.9,1.1L1,37z"/>
<g>
	<defs>
		<rect id="SVGID_1_" x="0" width="73.9" height="73.9"/>
	</defs>
	<clipPath id="SVGID_2_">
		<use xlink:href="#SVGID_1_"  style="overflow:visible;"/>
	</clipPath>
	<path class="st2" d="M37.4,24.8c-0.5-0.2-1.9,0.5-2.1-0.1c-0.4,0.1-0.9,0.5-1.2,0.9l-0.2,4.6c0,1.1,0.2,2.9,0.7,3.8
		c-0.7,0.9-2.5,7.2-3,8.4c-0.6,1.4-0.6,2.4-1,2.7c-0.7-1-1.2-1-1.5-0.7c0,2.4,1.2,3.3,2.2,3.3c0.9-1.8,2.6-9.3,3.4-10.1
		c0.4-0.3,1.7-2.6,1.7-0.2c-0.1,0,3,8.3,3.3,8.9c0.4,0,0.3,1,0.9,1.8c0.9-0.4,1.3-0.6,1.4-1.2c-0.4-2.2-0.8-3.7-1.7-2
		c-1-2.7-2.5-6.4-3.2-9.3c-0.1-0.9-0.2-1.8-0.1-2.5C37.7,31.2,37.8,25.9,37.4,24.8"/>
	<path class="st2" d="M37.1,22.9c0.6-2.3-0.7-1.5-1.2-1c-0.1,0.1-0.2,0.2-0.3,0.3c-0.1,0.4,0,0.7-0.3,0.8c-0.3,1.6,0.7,1.8,1.6,1.6
		C37.1,24.1,37,23.1,37.1,22.9"/>
	<path class="st2" d="M33.2,33.6c-3.5,0.1-7.1,0.3-10.6,0.4c0.4,1.5,0.2,4.3,0.3,6.6c1.6,2.4,3.2,4.8,4.8,7.2
		c0.1,0.2,0.2,0.5,0.3,0.7c0.4,0.2,0.8,0.4,1.2,0.6c-0.2-0.5-0.5-1-0.7-1.5c-0.2-0.2-0.4-0.4-0.5-0.6c-0.3-0.4-0.6-0.9-0.9-1.3
		c0.2-1.7,0.4-3.3,0.6-5c0.2,0,0.5-0.1,0.8-0.1c0.7,0.8,1.5,2,1.8,1.9c0.1-0.2,0.2-0.3,0.3-0.5c-0.5-0.4-1.3-0.9-1.4-1.5
		c0.9,0,1.9,0,2.9,0c0-0.2,0-0.4,0-0.6c-1,0-2.2-0.1-2.9-0.1c-0.5-1.9-0.4-3.7-0.6-5.6c0.8-0.1,1.7-0.2,2.6-0.1
		c0.1,1.8,0.2,3.7,0.3,5.6c0.2-0.1,0.4-0.2,0.6-0.3c-0.3-1.5-0.3-3.4-0.3-5.3c0.5,0,0.9,0,1.4,0C33.1,33.9,33.1,33.7,33.2,33.6
		 M25.2,34.3c0.1,0.5,0,1.1,0,1.8c-0.5-0.5-1.1-1.1-1.5-1.7C24.3,34.4,24,34.1,25.2,34.3 M23.8,40.2c-0.1,0-0.2-0.1-0.3-0.1
		c0-0.3-0.1-0.7-0.1-1.1c0-0.3-0.1-0.8-0.2-1.1c0-0.4,0-0.8,0-1.2c0.1-0.3-0.1-0.7,0-1.2c0.2-0.6-0.1-0.9,0.6,0.1
		c0.2-0.1,0.5,0,0.6,1c-0.3,0.9,0,1.1-0.2,1.5c-0.1,0.7-0.1,1.3-0.2,1.9C24,40.2,23.9,40.2,23.8,40.2 M26.5,44.8
		c-0.6-0.8-1.2-1.8-1.8-2.7c-0.4-0.5-0.5-1-0.8-1.2c0.1-0.2,0.4-0.1,1-0.2c0.7-0.1,1.4-0.1,2.1,0C26.9,42.3,26.7,43.7,26.5,44.8
		 M27.3,40.1c-0.4,0.2-1.2,0.1-1.4,0c0,0.2-0.8,0.1-1,0.1c0.1-0.2-0.1-0.1-0.1-0.5c0-0.2,0-1.2,0.1-1.8c-0.2-0.8,0.1-0.6,0.1-0.8
		c0.1,0.1,0.1,0.1,0.2,0.2c0.1,0.6,0,1,0.2,2.6c0.2,0,0.4,0,0.4,0l-0.1-0.5c0-0.3,0-0.8,0-1.2c1,0.5,0.9,1.1,1.4,1.2
		c0.1,0.1,0.2,0.2,0.2,0.5C27.3,40.2,27.4,40,27.3,40.1 M25.7,36.6c0.2-0.8,0-1.4,0.3-2.3c0.7-0.1,1.4-0.2,2.1,0
		c0.2,2.1,0.3,4,0.3,5.5C27.5,38.8,26.6,37.6,25.7,36.6"/>
	<path class="st2" d="M51.5,39.4l-0.7-6.3c-4,0.1-8.1,0.1-12.2,0.2c0,0.1,0.1,0.3,0.1,0.4l0.6,0.1l0.2,5.9l-0.5,0.2l0.2,0.5l6.2-0.1
		l-2.1,2.9c0.1,2.7,0.3,5.3,1.1,7.7l1.8-2.8l0.6,0c1.1-2.4,2.6-4.8,4.6-7.1L51.5,39.4z M40.1,39.5c-0.1-1.9-0.2-3.8-0.2-5.7
		c0.7-0.3,1.4-0.3,2.4-0.1c0.3,2.6,0.3,5.4,0.4,6C41.8,39.6,40.1,39.8,40.1,39.5 M43.2,39.6c-0.2-2-0.3-4-0.5-5.9
		c0.8-0.2,1.7-0.2,2.5,0c-0.1,2,0,4,0.3,5.9C44.7,39.6,43.9,39.6,43.2,39.6 M50,33.6c-0.3,0.5-0.7,1.1-1.1,1.7
		c-0.1-0.3-0.2-0.6-0.1-1c-0.1-0.2-0.1-0.5-0.1-0.7C49.5,33.5,49.5,33.6,50,33.6 M48.6,38.7c0.1,0.2,0.2,0.5,0.2,0.7
		c-0.8,0.1-0.8,0-1.3,0c0.2-1.1,0.7-1.6,1-2.1C48.6,37.8,48.7,38.2,48.6,38.7 M48.2,33.5c0.1,1,0.2,1.9,0.2,2.7
		c-0.7,1.2-1.4,2.1-2.1,3.2c-0.8-0.4-0.7-3.7-0.7-5.8C46.5,33.5,47.3,33.4,48.2,33.5 M44.9,49.3c-0.1,0-0.2-0.1-0.2-0.1
		c-0.1-2-0.7-3.9-0.6-6.1c0.4-0.6,0.8-1.1,1.2-1.5c-0.1-0.4,0.6-0.3,0.6-0.3c0-0.4,0.5-0.4,0.5-0.3c0,0.8,0.1,1.6,0.1,1.6
		c0.2,0.9,0.4,1.8,0.5,2.6C46.5,46.5,45.8,47.6,44.9,49.3 M48.7,42.9c0.2-0.2,0.1,1.2-0.8,1.8c-0.3-0.5,0.2,0.2-0.2-0.6
		c-0.3,0-0.1-0.5-0.2-0.6c-0.4-0.5-0.3-1.1-0.3-1.5c-0.1-0.8-0.2-1.4-0.2-1.9c0.4-0.1,1-0.1,1.1-0.1c0.9-0.1,1.1,0.5,1,0.6
		c0.2,0.3-0.1,0.8,0.2,1C49.4,42.3,48.8,42.5,48.7,42.9 M49,36.8c-0.1-0.2,0.2-0.2,0.1-0.7c0.4-0.7,0.9-1.3,1.3-1.8
		c0.2,0.3,0.3,2.7,0.5,5.1c-0.4,0.1-0.9,0.1-1.3,0.1C48.9,37.6,49.8,36.6,49,36.8 M50.2,41.2c-0.1-0.1-0.3-0.2-0.3-0.3
		c0-0.2,0-0.5,0-0.7c0.7-0.1,0.7,0,1.1,0C50.7,40.5,50.5,40.8,50.2,41.2"/>
	<path class="st3" d="M12.8,37.5c-0.2,0.2-0.3,0.4-0.6,0.7C10.4,40,8.9,39.7,8.1,39c-0.9-0.9-1.2-2.8,0.3-5.1l1.3,0.8
		C8.8,36,8.8,37,9.3,37.5c0.4,0.4,1.2,0.3,1.9-0.4c0.2-0.2,0.4-0.4,0.5-0.5L12.8,37.5z"/>
	<path class="st3" d="M11.1,31.4c0.1,0.1,1.2,1.3,1.9,2l1,1c0.1-0.1,0.8-0.8,1.2-1.2l1,1c-0.1,0.1-2.1,2-2.5,2.4
		c-0.3-0.3-1.4-1.5-1.6-1.6l-0.7-0.7c-0.1-0.1-1.5-1.4-1.6-1.5L11.1,31.4z"/>
	<path class="st3" d="M14.8,31.9c-1.1-1.1-1.4-2.9,0.2-4.6c1.3-1.3,2.8-1.4,4-0.2c0.8,0.8,1.6,2.7-0.3,4.5
		C17.3,33.1,15.7,32.7,14.8,31.9 M17.8,28.5c-0.7-0.7-1.4-0.8-2-0.3c-0.6,0.6-0.4,1.6,0.3,2.2c0.7,0.7,1.5,0.7,1.9,0.3
		C18.6,30.1,18.6,29.3,17.8,28.5"/>
	<path class="st3" d="M22.5,21c0.1,0.5,1.1,4.9,1.3,5.9l-0.1,0.1c-1.4-0.3-5.2-1.3-5.7-1.4l0.5-1.8c0.4,0.1,2.8,1,3.3,1.2
		c-0.2-0.5-1.1-3.1-1.2-3.4L22.5,21z"/>
	<path class="st3" d="M29,21.4c-0.2,0.2-2.2,2.1-2.5,2.4c-0.3-0.3-1.4-1.5-1.6-1.6l-0.7-0.7c-0.1-0.1-1.4-1.4-1.6-1.5
		c0.3-0.3,2.1-2.2,2.2-2.4l0.9,0.9c-0.2,0.2-1,1.1-1.1,1.2l0.7,0.7c0.1-0.1,0.7-0.8,0.9-1l0.9,0.9c-0.1,0.1-0.9,0.8-1,1l0.6,0.6
		c0.1-0.1,1-1,1.2-1.2L29,21.4z"/>
	<path class="st3" d="M30,20.4c-0.2-0.2-1.1-1.1-1.7-1.7l-0.6-0.6c-0.5-0.5-1.6-1.6-1.7-1.7l1.3-1.3c0.1,0.1,1.1,1.2,1.6,1.7L29,17
		l0,0c-0.1-0.7-0.3-3-0.4-3.3l1.7-0.1c0,0.4,0,1.7,0,2.3c0.4,0,2,0.1,2.5,0.1l-0.1,1.8c-0.2,0-2.5-0.3-3.4-0.5l0,0l0.1,0.1
		c0.4,0.4,1.7,1.6,1.8,1.7L30,20.4z"/>
	<path class="st3" d="M42.4,18.6c0.2-0.1,0.9-0.9,1.5-1.5l1.4-1.4c-0.3-0.3-1.1-1-1.2-1.2l1-1c0.2,0.3,1.5,1.6,1.6,1.6l0.5,0.5
		c0.1,0.1,1.3,1.3,1.6,1.5l-1,1c-0.1-0.1-1.1-1.1-1.2-1.2L45,18.5c-0.6,0.6-1.3,1.3-1.4,1.4L42.4,18.6z"/>
	<path class="st3" d="M48.5,21.4C47.9,22,47,23,46.8,23.1l-1.3-1.3c0.3-0.2,1.5-1.5,1.7-1.6l0.6-0.6c0.1-0.1,1.5-1.5,1.6-1.6
		l1.3,1.3c-0.1,0.1-1,1-1.7,1.6L48.5,21.4z M52,17.8l-0.2,0.9l-1.5-0.6l0.2-0.6L52,17.8z"/>
	<path class="st3" d="M48.8,23.4c0.5,0.5,1.2,1,1.5,0.7c0.1-0.1,0.1-0.3-0.1-1c-0.1-0.5-0.3-1.2,0.2-1.7c0.6-0.6,2.1-0.5,3.6,0.8
		l-0.8,1.1c-0.7-0.7-1.1-0.9-1.4-0.7c-0.1,0.1,0,0.4,0.1,0.9c0.1,0.4,0.4,1.1-0.1,1.6c-0.6,0.6-2,0.7-3.8-0.7L48.8,23.4z"/>
	<path class="st3" d="M51.2,27.5c0.4-0.4,3.3-3,4.1-3.7l0.1,0c0.2,1.3,0.6,4.4,0.7,4.8c0.3-0.3,1.7-1.8,2-2l1.1,1.1
		c-0.5,0.4-1.3,1.2-2.2,1.9c-0.8,0.7-1.6,1.5-2,1.8l-0.1,0c-0.2-1.1-0.6-4.6-0.6-4.8c-0.2,0.2-1.8,1.8-2,2L51.2,27.5z"/>
	<path class="st3" d="M59.4,32.4c-0.5,0.5-1.5,1.5-1.6,1.7l-1.3-1.3c0.3-0.2,1.5-1.5,1.7-1.6l0.6-0.6c0.1-0.1,1.5-1.5,1.6-1.6
		l1.3,1.3c-0.1,0.1-1,1-1.7,1.6L59.4,32.4z"/>
	<path class="st3" d="M40.2,9.8c-0.3,0.4-2.7,4.2-3.2,5.1h-0.1c-0.8-1.2-2.8-4.7-3-5.1L35.5,9c0.2,0.3,1.3,2.7,1.5,3.2
		c0.2-0.5,1.4-2.9,1.5-3.2L40.2,9.8z"/>
</g>
<polygon class="st1" points="21.9,18.8 21.8,18.1 22.8,17.9 22.9,16.9 23.6,17.1 23.3,18.5 "/>
<polygon class="st1" points="5.4,35.3 5.2,34.6 6.3,34.4 6.4,33.4 7.1,33.6 6.8,34.9 "/>
<g>
	<defs>
		<rect id="SVGID_3_" x="0" width="73.9" height="73.9"/>
	</defs>
	<clipPath id="SVGID_4_">
		<use xlink:href="#SVGID_3_"  style="overflow:visible;"/>
	</clipPath>
	<path class="st4" d="M15.1,47c-0.2-0.1-0.3-0.3-0.5-0.4c-1.3-1.3-1.2-2.5-0.7-3c0.6-0.6,2-0.8,3.7,0.4L17,44.8
		c-1-0.7-1.6-0.7-2-0.3c-0.3,0.3-0.2,0.8,0.3,1.3c0.2,0.2,0.3,0.3,0.4,0.4L15.1,47z M17.2,42.1l0.6-0.1l0.2,0.8l0.7,0.1l-0.1,0.5
		l-1.1-0.2L17.2,42.1z"/>
	<path class="st4" d="M18.6,50.5c-0.2-0.2-1.6-1.7-1.8-1.9c0.2-0.2,1-1,1.1-1.1l0.5-0.5c0.1-0.1,1-1,1.1-1.1
		c0.3,0.3,1.7,1.6,1.8,1.7l-0.6,0.7c-0.2-0.2-0.8-0.8-0.9-0.8l-0.5,0.5c0.1,0.1,0.6,0.5,0.8,0.7l-0.6,0.6c-0.1-0.1-0.6-0.7-0.7-0.7
		l-0.4,0.4c0.1,0.1,0.7,0.7,0.9,0.9L18.6,50.5z"/>
	<path class="st4" d="M20.9,51.5c0.4,0.4,1,0.8,1.1,0.7c0.1-0.1,0.1-0.2-0.1-0.7c-0.1-0.4-0.3-0.9,0.1-1.3c0.5-0.5,1.6-0.3,2.7,0.7
		l-0.6,0.8c-0.6-0.6-0.9-0.8-1-0.6c-0.1,0.1,0,0.3,0.2,0.7c0.1,0.3,0.4,0.9,0,1.2c-0.5,0.5-1.5,0.5-2.9-0.7L20.9,51.5z"/>
	<path class="st4" d="M23.8,55.7c0.1-0.1,0.8-0.7,1.2-1.2l0.4-0.4c0.3-0.3,1.1-1.1,1.2-1.2l1,1c-0.1,0.1-0.8,0.7-1.1,1.1l-0.1,0.1
		l0,0c0.4,0,2.1-0.2,2.3-0.2l0.1,1.3c-0.3,0-1.2,0-1.6,0c0,0.3,0,1.4,0,1.7l-1.4-0.1c0-0.1,0.2-1.8,0.3-2.3l0,0l-0.1,0.1
		c-0.3,0.3-1.1,1.1-1.1,1.2L23.8,55.7z"/>
	<path class="st4" d="M28.1,59.3c0.3-0.1,3.2-0.8,4.2-0.9l0.1,0.1c-0.2,1.2-0.7,3.8-0.8,4.2l-1.3-0.4c0.1-0.3,0.2-0.9,0.2-0.9
		l-1.2-1.1c-0.1,0-0.5,0.2-0.8,0.3L28.1,59.3z M30.8,60.6c0.1-0.3,0.2-0.7,0.3-1c-0.3,0.1-0.7,0.2-1,0.3L30.8,60.6z M33.8,58
		l-0.2,0.7l-1.2-0.4l0.1-0.5L33.8,58z"/>
	<path class="st4" d="M36.9,66.7c0.1,0.1,1.1,1.1,1.2,1.1l-1,1c-0.1-0.1-1-1-1.1-1.1l-0.6-0.6c-0.1-0.1-0.9-0.9-1-1
		c0.6-0.6,1.1-1.1,1.6-1.5c0.7-0.5,1.2-0.6,1.6-0.3c0.3,0.3,0.4,0.7,0.3,1.3c0.2,0,1.4,0,1.6,0L39.2,67c-0.2,0-2-0.4-2.3-0.4
		c0.1-0.3,0.2-0.7-0.1-1c-0.2-0.2-0.4-0.2-0.8,0.2L36.9,66.7z"/>
	<path class="st4" d="M42.9,63.1c-0.2,0.2-1.7,1.6-1.9,1.8c-0.2-0.2-1-1-1.1-1.1l-0.5-0.5c-0.1-0.1-1-1-1.1-1.1
		c0.3-0.3,1.6-1.7,1.7-1.8l0.7,0.6c-0.2,0.2-0.8,0.8-0.8,0.9l0.5,0.5c0.1-0.1,0.5-0.6,0.7-0.8l0.6,0.6c-0.1,0.1-0.7,0.6-0.7,0.7
		l0.4,0.4c0.1-0.1,0.7-0.7,0.9-0.9L42.9,63.1z"/>
	<path class="st4" d="M44.3,61.6c-0.2-0.2-1.1-1.1-1.3-1.4l-0.4-0.4c-0.1-0.1-0.9-0.9-0.9-0.9c0.9-0.9,1.4-1.3,1.8-1.6
		c0.5-0.3,1.1-0.4,1.5,0c0.5,0.5,0.5,1.6-0.3,2.7l0.1,0.1c0.1,0.1,0.5,0.5,0.6,0.5L44.3,61.6z M44,59.5c0.2-0.2,0.3-0.7,0-1.1
		c-0.2-0.2-0.5-0.2-0.9,0.1L44,59.5z"/>
	<path class="st4" d="M47.1,55.3c0.6,0.6,0.9,0.8,1.2,0.9c0.2,0,0.3-0.1,0.4-0.2c0.1-0.1,0.2-0.3,0.2-0.5c0-0.3-0.2-0.4-1-1.3
		L47.7,54c-0.3-0.3-0.5-0.5-0.7-0.6l1-1c0.1,0.1,0.4,0.4,0.7,0.7l0.2,0.2c0.7,0.7,1.1,1.2,1.2,1.9c0,0.5-0.2,1.1-0.7,1.5
		c-0.3,0.3-0.9,0.8-1.6,0.7c-0.5-0.1-0.8-0.3-1.7-1.2l-0.2-0.2c-0.2-0.2-0.5-0.5-0.6-0.6l1-1c0.1,0.1,0.3,0.3,0.6,0.7L47.1,55.3z"/>
	<path class="st4" d="M50.4,51.9c-0.1-0.1-0.8-0.8-0.9-0.9c0.6-0.6,1-1,1.4-1.3c0.9-0.7,1.4-0.5,1.6-0.3c0.1,0.1,0.3,0.5,0,1.1l0,0
		c0.3-0.3,0.9-0.5,1.3-0.1c0.4,0.4,0.3,1.4-1.1,2.8l-0.4,0.5c-0.2-0.2-1.3-1.4-1.4-1.4L50.4,51.9z M51.5,51.2c0.2-0.2,0.3-0.5,0-0.8
		c-0.3-0.3-0.6,0-0.7,0.2L51.5,51.2z M52.6,52.3c0.2-0.2,0.4-0.7,0.2-0.9c-0.2-0.2-0.6-0.1-0.9,0.2L52.6,52.3z"/>
	<path class="st4" d="M54.2,46.3c0.1,0.1,0.8,0.9,1.3,1.4l0.7,0.7c0.1-0.1,0.6-0.6,0.9-0.9l0.7,0.7c-0.1,0.1-1.6,1.5-1.9,1.8
		c-0.2-0.2-1-1-1.1-1.1l-0.5-0.5c-0.1-0.1-1-1-1.1-1.1L54.2,46.3z"/>
	<path class="st4" d="M58.9,44.7c0.4,0.4,1.1,1,1.2,1.1l-1,1c-0.2-0.2-1-1.1-1.1-1.2l-0.4-0.4c-0.1-0.1-1-1-1.1-1.1l1-1
		c0.1,0.1,0.7,0.7,1.1,1.2L58.9,44.7z"/>
	<path class="st4" d="M61.6,44.3c-0.1-0.1-0.7-0.8-1.2-1.2l-0.4-0.4c-0.3-0.3-1.1-1.1-1.2-1.2l1-1c0.1,0.1,0.7,0.8,1.1,1.1l0.1,0.1
		l0,0c0-0.4-0.2-2.1-0.2-2.3l1.3-0.1c0,0.3,0,1.2,0,1.6c0.3,0,1.4,0,1.7,0l-0.1,1.4c-0.1,0-1.8-0.2-2.3-0.3l0,0l0.1,0.1
		c0.3,0.3,1.1,1.1,1.2,1.1L61.6,44.3z"/>
	<path class="st4" d="M64.9,40.4c-0.1-0.3-0.8-3.2-0.9-4.2l0.1-0.1c1.2,0.2,3.8,0.7,4.2,0.8l-0.4,1.3C67.6,38.2,67.1,38,67,38
		l-1.1,1.2c0,0.1,0.2,0.5,0.3,0.8L64.9,40.4z M66.2,37.7c-0.3-0.1-0.7-0.2-1-0.3c0.1,0.3,0.2,0.7,0.3,1L66.2,37.7z"/>
</g>
</svg>
