<?xml version="1.0" encoding="utf-8"?>
<!-- Generator: Adobe Illustrator 21.1.0, SVG Export Plug-In . SVG Version: 6.00 Build 0)  -->
<svg version="1.1" id="Vrstva_1" xmlns="http://www.w3.org/2000/svg" xmlns:xlink="http://www.w3.org/1999/xlink" x="0px" y="0px"
	 viewBox="0 0 75 75" style="enable-background:new 0 0 75 75;" xml:space="preserve">
<style type="text/css">
	.st0{fill:#3D5A98;}
	.st1{fill:#FFFFFF;}
</style>
<path id="Blue_1_" class="st0" d="M70.9,75c2.3,0,4.1-1.9,4.1-4.1V4.1C75,1.9,73.1,0,70.9,0H4.1C1.9,0,0,1.9,0,4.1v66.7
	C0,73.1,1.9,75,4.1,75H70.9z"/>
<path id="f" class="st1" d="M51.7,75V46h9.7L63,34.6H51.7v-7.2c0-3.3,0.9-5.5,5.6-5.5l6,0V11.8c-1-0.1-4.6-0.4-8.7-0.4
	c-8.6,0-14.6,5.3-14.6,15v8.3h-9.8V46h9.8v29H51.7z"/>
</svg>
