<?xml version="1.0" encoding="utf-8"?>
<!-- Generator: Adobe Illustrator 21.1.0, SVG Export Plug-In . SVG Version: 6.00 Build 0)  -->
<svg version="1.1" id="Vrstva_1" xmlns="http://www.w3.org/2000/svg" xmlns:xlink="http://www.w3.org/1999/xlink" x="0px" y="0px"
	 viewBox="0 0 21 16.6" style="enable-background:new 0 0 21 16.6;" xml:space="preserve">
<style type="text/css">
	.st0{fill:#BB133E;}
</style>
<g>
	<path class="st0" d="M21,1.9c0,0.6-0.2,1.2-0.6,1.8s-0.9,1-1.4,1.4c-2.9,2-4.8,3.3-5.5,3.8C13.4,9,13.3,9.1,13,9.3
		c-0.3,0.2-0.5,0.3-0.6,0.4s-0.4,0.2-0.6,0.4c-0.2,0.2-0.5,0.2-0.7,0.3s-0.4,0.1-0.6,0.1l0,0l0,0c-0.2,0-0.4,0-0.6-0.1
		s-0.4-0.2-0.7-0.3S8.8,9.8,8.6,9.7C8.4,9.6,8.2,9.4,8,9.3C7.8,9.2,7.6,9,7.5,8.9C6.8,8.4,5.8,7.7,4.4,6.8S2.3,5.3,2,5.1
		C1.5,4.8,1.1,4.3,0.6,3.8S0,2.7,0,2.2c0-0.6,0.2-1.1,0.5-1.6S1.3,0,1.9,0h17.2c0.5,0,0.9,0.2,1.3,0.6S21,1.4,21,1.9z M21,5.4v9.3
		c0,0.5-0.2,1-0.6,1.3s-0.8,0.6-1.3,0.6H1.9c-0.5,0-1-0.2-1.3-0.6S0,15.2,0,14.7V5.4c0.3,0.4,0.7,0.7,1.2,1C4,8.3,6,9.7,7,10.4
		c0.4,0.3,0.8,0.6,1.1,0.8c0.3,0.2,0.6,0.4,1.1,0.6s0.9,0.3,1.3,0.3l0,0l0,0c0.4,0,0.8-0.1,1.3-0.3s0.8-0.4,1.1-0.6s0.6-0.4,1.1-0.8
		c1.3-1,3.3-2.3,5.8-4C20.3,6.1,20.7,5.7,21,5.4z"/>
</g>
</svg>
