<?xml version="1.0" encoding="utf-8"?>
<!-- Generator: Adobe Illustrator 21.1.0, SVG Export Plug-In . SVG Version: 6.00 Build 0)  -->
<svg version="1.1" id="Vrstva_1" xmlns="http://www.w3.org/2000/svg" xmlns:xlink="http://www.w3.org/1999/xlink" x="0px" y="0px"
	 viewBox="0 0 157 74.5" style="enable-background:new 0 0 157 74.5;" xml:space="preserve">
<style type="text/css">
	.st0{fill:#428E9B;}
	.st1{fill:#878787;}
</style>
<g>
	<g>
		<path class="st0" d="M94,28.2V23h-5.6l-4.6,5.9c-1.9-0.5-3.6-1.4-4.9-2.7l-2.3,0.9c1.5,1.4,3.7,2.4,6.3,2.9l-8.8,11.4h-0.1
			L59.7,23.2L76,2.6v20h4.8v-5.5c2.5,1,6,1.7,9.5,2.5c5.2,1.1,6.7,3.1,6.7,5C96.9,26,95.9,27.3,94,28.2 M95.9,29.5
			c3.4-1.1,5.9-3,6.2-5.7c0-3.8-4.4-5.3-8.7-6.2c-6.3-1.3-10.8-2.3-11.5-5c-0.1-0.4-0.1-0.6-0.1-0.9C81.9,8.8,86,7,89.8,7
			c3.8,0,6.3,0.5,8.7,2.8l2.1-0.7C97.9,6.7,94.2,6,89.8,6c-3.7,0-6.8,0.6-9.1,1.7V0h-5.6L60.9,18.5h-0.1L46.3,0h-5.4v22.6h2.7V2.9
			L59.4,23h-4.9v22.6h2.2V25.9l16.1,20.4H73l16.3-20.7v20H94v-15h8.4v21.1h4.9V30.6h10.1v-1.1H95.9z M92.1,4.6L99.8,0h-2.4l-7.1,3.2
			L83,0h-2.3l7.8,4.6H92.1z"/>
	</g>
	<polygon class="st1" points="0,57.4 1.1,57.4 4.2,63.8 7.2,57.4 8.3,57.4 8.3,64.5 7.6,64.5 7.6,58 4.6,64.5 3.7,64.5 0.6,58 
		0.7,64.5 0,64.5 	"/>
	<rect x="11" y="57.4" class="st1" width="0.7" height="7.1"/>
	<polygon class="st1" points="14.4,57.4 15.3,57.4 20.3,63.8 20.3,57.4 21,57.4 21,64.5 20.1,64.5 15.1,58.1 15.1,64.5 14.4,64.5 	
		"/>
	<rect x="23.7" y="57.4" class="st1" width="0.7" height="7.1"/>
	<g>
		<path class="st1" d="M27.6,62.1L27.6,62.1c0,1.1,0.9,1.8,2.3,1.8c1.4,0,2.2-0.6,2.2-1.5c0-0.8-0.6-1-1.8-1.2L28.8,61
			c-1.1-0.2-1.7-0.8-1.7-1.8c0-1.2,1-2.1,2.7-2.1c1.7,0,2.8,0.8,2.8,2.2h-0.7c-0.1-1-0.8-1.5-2.1-1.5c-1.3,0-2,0.6-2,1.4
			c0,0.7,0.6,1,1.8,1.2l1.4,0.2c1.3,0.2,1.9,0.8,1.9,1.8c0,1.4-1.1,2.2-2.9,2.2c-1.9,0-3.1-0.9-3.1-2.4v-0.1H27.6z"/>
	</g>
	<polygon class="st1" points="37.2,58 34.5,58 34.5,57.4 40.7,57.4 40.7,58 37.9,58 37.9,64.5 37.2,64.5 	"/>
	<polygon class="st1" points="42.5,57.4 48,57.4 48,58 43.3,58 43.3,60.5 47.7,60.5 47.7,61.2 43.3,61.2 43.3,63.8 48,63.8 48,64.5 
		42.5,64.5 	"/>
	<g>
		<path class="st1" d="M51,58v2.7h2.6c1.3,0,1.9-0.4,1.9-1.4c0-1.1-0.6-1.4-2-1.4H51z M50.3,57.4h3.4c1.7,0,2.6,0.6,2.6,1.9
			c0,0.9-0.4,1.5-1.2,1.8c0.8,0.1,1,0.5,1.1,1.4c0.1,0.9,0,1.7,0.3,2.1h-0.8c-0.2-0.7-0.2-1.4-0.2-2.1c-0.1-0.7-0.5-1-1.4-1h-3v3.1
			h-0.7V57.4z"/>
		<path class="st1" d="M59.3,62.1L59.3,62.1c0,1.1,0.9,1.8,2.3,1.8c1.4,0,2.2-0.6,2.2-1.5c0-0.8-0.6-1-1.8-1.2L60.4,61
			c-1.1-0.2-1.7-0.8-1.7-1.8c0-1.2,1-2.1,2.7-2.1c1.7,0,2.8,0.8,2.8,2.2h-0.7c-0.1-1-0.8-1.5-2.1-1.5c-1.3,0-2,0.6-2,1.4
			c0,0.7,0.6,1,1.8,1.2l1.4,0.2c1.3,0.2,1.9,0.8,1.9,1.8c0,1.4-1.1,2.2-2.9,2.2c-1.9,0-3.1-0.9-3.1-2.4v-0.1H59.3z"/>
	</g>
	<polygon class="st1" points="68.8,58 66.1,58 66.1,57.4 72.3,57.4 72.3,58 69.5,58 69.5,64.5 68.8,64.5 	"/>
	<polygon class="st1" points="73.4,57.4 74.1,57.4 77,63.9 79.9,57.4 80.7,57.4 77.5,64.5 76.6,64.5 	"/>
	<g>
		<path class="st1" d="M88.8,60.9c0-1.9-1.1-3.1-3-3.1c-1.9,0-3,1.1-3,3.1c0,1.9,1.1,3.1,3,3.1C87.6,64,88.8,62.8,88.8,60.9
			 M85.8,64.7c-2.3,0-3.7-1.4-3.7-3.8c0-2.3,1.4-3.8,3.7-3.8c2.3,0,3.8,1.4,3.8,3.8C89.5,63.3,88.1,64.7,85.8,64.7"/>
		<path class="st1" d="M99.7,55.2h0.8l-1.4,1.5h-0.8l-1.4-1.5h0.8l1,1.1L99.7,55.2z M96.5,62.1L96.5,62.1c0,1.1,0.9,1.8,2.3,1.8
			c1.4,0,2.2-0.6,2.2-1.5c0-0.8-0.6-1-1.8-1.2L97.7,61c-1.1-0.2-1.7-0.8-1.7-1.8c0-1.2,1-2.1,2.7-2.1c1.7,0,2.8,0.8,2.8,2.2h-0.7
			c-0.1-1-0.8-1.5-2.1-1.5c-1.3,0-2,0.6-2,1.4c0,0.7,0.6,1,1.8,1.2l1.4,0.2c1.3,0.2,1.9,0.8,1.9,1.8c0,1.4-1.1,2.2-2.9,2.2
			c-1.9,0-3.1-0.9-3.1-2.4v-0.1H96.5z"/>
	</g>
	<polygon class="st1" points="104.1,57.4 104.8,57.4 104.8,61.3 109.3,57.4 110.3,57.4 106.9,60.3 110.3,64.5 109.3,64.5 
		106.4,60.8 104.8,62.1 104.8,64.5 104.1,64.5 	"/>
	<g>
		<path class="st1" d="M118.2,60.9c0-1.9-1.1-3.1-3-3.1c-1.9,0-3,1.1-3,3.1c0,1.9,1.1,3.1,3,3.1C117.1,64,118.2,62.8,118.2,60.9
			 M115.2,64.7c-2.3,0-3.7-1.4-3.7-3.8c0-2.3,1.4-3.8,3.7-3.8c2.3,0,3.8,1.4,3.8,3.8C119,63.3,117.6,64.7,115.2,64.7"/>
	</g>
	<polygon class="st1" points="121.3,57.4 122,57.4 122,63.8 126.5,63.8 126.5,64.5 121.3,64.5 	"/>
	<g>
		<path class="st1" d="M129.1,62.1L129.1,62.1c0,1.1,0.9,1.8,2.3,1.8c1.4,0,2.2-0.6,2.2-1.5c0-0.8-0.6-1-1.8-1.2l-1.5-0.3
			c-1.1-0.2-1.7-0.8-1.7-1.8c0-1.2,1-2.1,2.7-2.1c1.7,0,2.8,0.8,2.8,2.2h-0.7c-0.1-1-0.8-1.5-2.1-1.5c-1.3,0-2,0.6-2,1.4
			c0,0.7,0.6,1,1.8,1.2l1.4,0.2c1.3,0.2,1.9,0.8,1.9,1.8c0,1.4-1.1,2.2-2.9,2.2c-1.9,0-3.1-0.9-3.1-2.4v-0.1H129.1z"/>
	</g>
	<polygon class="st1" points="138.6,58 135.9,58 135.9,57.4 142.1,57.4 142.1,58 139.4,58 139.4,64.5 138.6,64.5 	"/>
	<polygon class="st1" points="143.2,57.4 144,57.4 146.8,63.9 149.7,57.4 150.5,57.4 147.3,64.5 146.4,64.5 	"/>
	<path class="st1" d="M153.3,55.2h0.9l-1.2,1.5h-0.6L153.3,55.2z M152.4,57.4h0.7v7.1h-0.7V57.4z"/>
	<g>
		<path class="st1" d="M156.2,63.6h0.8v1.2c0,0.7-0.2,1-0.8,1.3v-0.5c0.3-0.1,0.4-0.3,0.4-0.7v-0.4h-0.4V63.6z"/>
	</g>
	<polygon class="st1" points="12.1,68.5 13,68.5 15.5,73.8 18.1,68.5 18.9,68.5 18.9,74.4 18.4,74.4 18.4,69 15.9,74.4 15.2,74.4 
		12.6,69 12.7,74.4 12.1,74.4 	"/>
	<polygon class="st1" points="21,68.5 21.6,68.5 21.6,73.8 25.3,73.8 25.3,74.4 21,74.4 	"/>
	<path class="st1" d="M29.8,66.6h0.7l-1,1.2h-0.5L29.8,66.6z M30.7,72l-1.4-3L28,72H30.7z M29,68.5h0.7l2.7,5.9h-0.6L31,72.5h-3.2
		l-0.8,1.8h-0.6L29,68.5z"/>
	<g>
		<path class="st1" d="M34.4,69v4.8H36c0.8,0,1.5-0.1,1.9-0.4c0.6-0.4,0.8-1.1,0.8-2.1c0-1-0.3-1.6-0.8-2C37.4,69,36.8,69,35.8,69
			H34.4z M38.4,69c0.7,0.5,1,1.3,1,2.4c0,1.1-0.3,1.9-1,2.4c-0.6,0.5-1.4,0.5-2.4,0.5h-2.2v-5.9H36C37,68.5,37.8,68.5,38.4,69"/>
	</g>
	<polygon class="st1" points="41.1,68.5 45.7,68.5 45.7,69 41.7,69 41.7,71.1 45.4,71.1 45.4,71.6 41.7,71.6 41.7,73.8 45.7,73.8 
		45.7,74.4 41.1,74.4 	"/>
	<path class="st1" d="M50.8,66.6h0.6l-1.1,1.2h-0.7l-1.1-1.2h0.6l0.8,0.9L50.8,66.6z M47,73.8l4.4-4.8h-4.1v-0.6h5V69l-4.4,4.8h4.4
		v0.6H47V73.8z"/>
	<polygon class="st1" points="53.8,68.5 58.3,68.5 58.3,69 54.4,69 54.4,71.1 58,71.1 58,71.6 54.4,71.6 54.4,73.8 58.3,73.8 
		58.3,74.4 53.8,74.4 	"/>
	<path class="st1" d="M67.2,72l-1.4-3l-1.4,3H67.2z M65.5,68.5h0.7l2.7,5.9h-0.6l-0.8-1.8h-3.2l-0.8,1.8h-0.6L65.5,68.5z"/>
	<polygon class="st1" points="75.2,69 73,69 73,68.5 78.1,68.5 78.1,69 75.8,69 75.8,74.4 75.2,74.4 	"/>
	<path class="st1" d="M82.7,66.6h0.6l-1.1,1.2h-0.7l-1.1-1.2H81l0.8,0.9L82.7,66.6z M79.5,68.5h4.6V69h-4v2.1h3.7v0.6h-3.7v2.2h4
		v0.6h-4.6V68.5z"/>
	<polygon class="st1" points="85.8,68.5 86.4,68.5 86.4,73.8 90.1,73.8 90.1,74.4 85.8,74.4 	"/>
	<g>
		<path class="st1" d="M96.4,71.4c0-1.6-0.9-2.5-2.5-2.5c-1.6,0-2.5,1-2.5,2.5c0,1.6,0.9,2.5,2.5,2.5C95.5,74,96.4,73,96.4,71.4
			 M93.9,74.5c-1.9,0-3.1-1.2-3.1-3.1c0-1.9,1.2-3.1,3.1-3.1c1.9,0,3.1,1.2,3.1,3.1C97,73.3,95.9,74.5,93.9,74.5"/>
	</g>
	<polygon class="st1" points="98,68.5 98.6,68.5 101,73.9 103.4,68.5 104,68.5 101.4,74.4 100.6,74.4 	"/>
	<path class="st1" d="M108.3,66.6h0.7l-1,1.2h-0.5L108.3,66.6z M107.4,71.8l-2.6-3.4h0.8l2.1,2.9l2.1-2.9h0.7l-2.6,3.4v2.6h-0.6
		V71.8z"/>
	<g>
		<path class="st1" d="M114.8,68.9c-1.6,0-2.5,1-2.5,2.5c0,1.6,1,2.5,2.4,2.5c1.2,0,2.1-0.7,2.3-1.8h0.6c-0.3,1.5-1.4,2.4-3,2.4
			c-1.8,0-3-1.2-3-3.1c0-1.9,1.2-3.1,3.1-3.1c1.5,0,2.6,0.8,2.7,2.1H117C116.7,69.4,116,68.9,114.8,68.9"/>
	</g>
	<polygon class="st1" points="119.3,68.5 119.9,68.5 119.9,70.9 123.8,70.9 123.8,68.5 124.3,68.5 124.3,74.4 123.8,74.4 
		123.8,71.5 119.9,71.5 119.9,74.4 119.3,74.4 	"/>
	<g>
		<path class="st1" d="M131.7,71.4c0-1.6-0.9-2.5-2.5-2.5c-1.6,0-2.5,1-2.5,2.5c0,1.6,0.9,2.5,2.5,2.5C130.8,74,131.7,73,131.7,71.4
			 M129.2,74.5c-1.9,0-3.1-1.2-3.1-3.1c0-1.9,1.2-3.1,3.1-3.1c1.9,0,3.1,1.2,3.1,3.1C132.4,73.3,131.2,74.5,129.2,74.5"/>
	</g>
	<polygon class="st1" points="133.3,68.5 134,68.5 136.3,73.9 138.7,68.5 139.4,68.5 136.7,74.4 136,74.4 	"/>
	<polygon class="st1" points="142.7,71.8 140.2,68.5 140.9,68.5 143,71.3 145.1,68.5 145.9,68.5 143.3,71.8 143.3,74.4 142.7,74.4 	
		"/>
</g>
</svg>
