<?xml version="1.0" encoding="utf-8"?>
<!-- Generator: Adobe Illustrator 21.1.0, SVG Export Plug-In . SVG Version: 6.00 Build 0)  -->
<svg version="1.1" id="Vrstva_1" xmlns="http://www.w3.org/2000/svg" xmlns:xlink="http://www.w3.org/1999/xlink" x="0px" y="0px"
	 viewBox="0 0 16.4 18" style="enable-background:new 0 0 16.4 18;" xml:space="preserve">
<style type="text/css">
	.st0{fill:#808080;}
</style>
<g>
	<path class="st0" d="M16.4,15c0,0.9-0.3,1.7-0.9,2.2c-0.6,0.5-1.2,0.8-2.2,0.8H3.1c-0.9,0-1.7-0.3-2.3-0.8S0,15.9,0,15
		c0-0.4,0-0.8,0-1.2s0.1-0.8,0.2-1.3c0.1-0.5,0.2-0.9,0.3-1.3s0.3-0.8,0.5-1.1s0.5-0.7,0.7-0.9s0.6-0.5,1-0.6S3.5,8.4,4,8.4
		c0.1,0,0.2,0.1,0.5,0.3S5,9.1,5.4,9.3s0.7,0.4,1.3,0.6s1,0.3,1.6,0.3s1-0.1,1.6-0.3s0.9-0.4,1.3-0.6s0.6-0.4,0.9-0.6
		c0.3-0.2,0.4-0.3,0.5-0.3c0.5,0,0.9,0.1,1.3,0.2s0.7,0.4,1,0.6s0.5,0.6,0.7,0.9s0.4,0.8,0.5,1.1s0.1,0.8,0.1,1.3s0.1,0.9,0.2,1.3
		S16.4,14.6,16.4,15z M11.4,1.3c0.9,0.9,1.3,1.9,1.3,3.2s-0.4,2.3-1.3,3.2S9.4,9,8.2,9S5.9,8.6,5,7.7s-1.3-2-1.3-3.2S4.1,2.2,5,1.3
		C5.9,0.4,7,0,8.2,0S10.5,0.4,11.4,1.3z"/>
</g>
</svg>
