<svg id="Vrstva_1" xmlns="http://www.w3.org/2000/svg" viewBox="0 0 18.9 15"><style>.st0{fill:#222}</style><path class="st0" d="M18.8 7.9l-.7.9c-.1.1-.1.1-.2.1s-.2 0-.2-.1L9.4 2 1.3 8.8c-.1 0-.2.1-.2 0-.1 0-.2 0-.3-.1l-.7-.8C0 7.8 0 7.7 0 7.6s.1-.2.1-.3l8.4-7c.3-.2.6-.3.9-.3s.6.1.9.3l2.9 2.4V.4c0-.1 0-.2.1-.3s.2-.1.3-.1h2.2c.1 0 .2 0 .3.1s.1.2.1.3v4.8l2.6 2.1c.1.1.1.1.1.3s0 .2-.1.3zm-2.6.8v5.6c0 .2-.1.4-.2.5-.2.2-.4.2-.6.2h-4.5v-4.5h-3V15H3.4c-.2 0-.4-.1-.5-.2s-.2-.3-.2-.5V8.7L9.4 3l6.8 5.7c0-.1 0-.1 0 0z"/></svg>