<svg id="Vrstva_1" xmlns="http://www.w3.org/2000/svg" viewBox="0 0 92 74.8"><style>.st0{fill:#1da1f2}</style><path class="st0" d="M28.9 74.8c34.7 0 53.7-28.8 53.7-53.7 0-.8 0-1.6-.1-2.4 3.7-2.7 6.9-6 9.4-9.8-3.4 1.5-7 2.5-10.8 3 3.9-2.3 6.9-6 8.3-10.4-3.6 2.2-7.7 3.7-12 4.6C74 2.3 69.1 0 63.7 0 53.3 0 44.8 8.5 44.8 18.9c0 1.5.2 2.9.5 4.3-15.7-.8-29.6-8.3-38.9-19.7-1.6 2.8-2.6 6-2.6 9.5 0 6.5 3.3 12.3 8.4 15.7-3.1-.1-6-.9-8.5-2.4v.2c0 9.1 6.5 16.8 15.1 18.5-1.6.4-3.3.7-5 .7-1.2 0-2.4-.1-3.5-.3 2.4 7.5 9.4 13 17.6 13.1-6.5 5.1-14.6 8.1-23.4 8.1-1.5 0-3-.1-4.5-.3 8.4 5.3 18.3 8.5 28.9 8.5"/></svg>