<?xml version="1.0" encoding="utf-8"?>
<!-- Generator: Adobe Illustrator 22.1.0, SVG Export Plug-In . SVG Version: 6.00 Build 0)  -->
<svg version="1.1" id="Vrstva_1" xmlns="http://www.w3.org/2000/svg" xmlns:xlink="http://www.w3.org/1999/xlink" x="0px" y="0px"
	 viewBox="0 0 457 113.4" style="enable-background:new 0 0 457 113.4;" xml:space="preserve">
<style type="text/css">
	.st0{fill:#BB133E;}
	.st1{fill:#FFFFFF;}
</style>
<g>
	<g>
		<g>
			<g>
				<path d="M140.8,12.1h-2.1v-0.5h6.8v0.5h-2.1v15.7h2.9c2,0,2.7-0.2,3.3-0.9c0.6-0.8,1.1-1.7,1.5-3.7h0.4l-0.4,5.1h-12.4v-0.5h2.1
					V12.1z"/>
				<path d="M158.8,12.1h-2.1v-0.5h6.8v0.5h-2.1v15.7h2.1v0.5h-6.8v-0.5h2.1V12.1z"/>
				<path d="M170.9,12.1h-2.1v-0.5h5.5c3.1,0,4.4,0.3,5.7,1.2c0.9,0.7,1.4,1.7,1.4,2.8c0,2-1.5,3.3-4.3,3.9c3.2,0.3,5,1.8,5,4.3
					c0,1.3-0.6,2.5-1.9,3.3c-1.1,0.8-2.4,1-5.5,1h-6v-0.5h2.1L170.9,12.1L170.9,12.1z M173.6,19.3c0.8,0,1,0,1.4,0
					c2.7,0,3.8-1,3.8-3.5c0-1.4-0.4-2.5-1.1-3c-0.7-0.5-1.4-0.7-3.4-0.7h-0.7L173.6,19.3L173.6,19.3z M175.1,27.8
					c1.7,0,2.5-0.2,3.1-0.8c0.7-0.7,1-1.7,1-3.2c0-3-1.1-4-4.1-4c-0.4,0-0.8,0-1.4,0.1v7.9C173.6,27.8,175.1,27.8,175.1,27.8z"/>
				<path d="M189.3,12.1h-2.1v-0.5h5.8c3.4,0,4.3,0.2,5.5,0.9c1.1,0.7,1.6,1.6,1.6,2.9c0,2.3-2,3.8-5.1,4c1.8,0.2,3.1,1.1,3.9,2.3
					c0.5,0.8,0.7,1.7,0.7,2.9v0.5v0.7c0,1.3,0.4,1.9,1.1,1.9c0.2,0,0.5-0.1,1-0.3l0.2,0.4c-0.6,0.3-1.2,0.4-1.8,0.4
					c-1.3,0-2.4-0.7-3-1.8c-0.4-0.8-0.5-1.3-0.5-3.2c0-1.6-0.2-2.3-0.7-2.9c-0.6-0.7-1.4-0.9-3.1-0.9H192v8.1h2.1v0.5h-6.8v-0.5h2.1
					L189.3,12.1L189.3,12.1z M192.9,19.1c1.8,0,2.6-0.2,3.2-0.6c0.7-0.5,1.1-1.6,1.1-2.9c0-1.2-0.4-2.3-1.1-2.8
					c-0.7-0.5-1.4-0.7-3.1-0.7h-1v7H192.9z"/>
				<path d="M210.2,22.9l-1.6,4.9h2.2v0.5h-4v-0.5h1.2l5.6-16.2h0.8l5.4,16.2h1.8v0.5h-6.8v-0.5h2.2l-1.6-4.9H210.2z M212.7,15.5
					l-2.4,6.9h4.7L212.7,15.5z"/>
				<path d="M228.4,12.1h-2.1v-0.5h5.8c3.4,0,4.3,0.2,5.5,0.9c1.1,0.7,1.6,1.6,1.6,2.9c0,2.3-2,3.8-5.1,4c1.8,0.2,3.1,1.1,3.9,2.3
					c0.5,0.8,0.7,1.7,0.7,2.9v0.5v0.7c0,1.3,0.4,1.9,1.1,1.9c0.2,0,0.5-0.1,1-0.3l0.2,0.4c-0.6,0.3-1.2,0.4-1.8,0.4
					c-1.3,0-2.4-0.7-3-1.8c-0.4-0.8-0.5-1.3-0.5-3.2c0-1.6-0.2-2.3-0.7-2.9c-0.6-0.7-1.4-0.9-3.1-0.9h-0.8v8.1h2.1v0.5h-6.8v-0.5
					h2.1L228.4,12.1L228.4,12.1z M232,19.1c1.8,0,2.6-0.2,3.2-0.6c0.7-0.5,1.1-1.6,1.1-2.9c0-1.2-0.4-2.3-1.1-2.8
					c-0.7-0.5-1.4-0.7-3.1-0.7h-1v7H232z"/>
				<path d="M250.1,20.4l-4.8-8.3H244v-0.5h6.5v0.5h-2.1l3.8,6.6c0.2,0.3,0.3,0.5,0.4,0.7l3.9-7.3h-2.5v-0.5h4.9v0.5h-1.8l-3.5,6.6
					c-0.2,0.4-0.4,0.7-0.4,0.8c-0.1,0.2-0.2,0.4-0.2,0.6l-0.1,0.3v7.4h2.3v0.5h-7.3v-0.5h2.3L250.1,20.4L250.1,20.4z"/>
			</g>
			<g>
				<path d="M283.6,22.4v1.6h-14.5v-1.6H283.6z"/>
			</g>
			<g>
				<path d="M304.4,15.8h-0.4c-0.3-2.4-1.8-3.8-4-3.8c-1.9,0-3.3,1.2-3.3,3c0,0.9,0.4,1.6,1.1,2c0.5,0.2,1.2,0.5,2.8,0.9
					c2,0.6,2.6,0.8,3.2,1.4c0.9,0.9,1.4,2.1,1.4,3.6c0,3.3-2.1,5.7-5,5.7c-1.4,0-2.5-0.4-3.7-1.4l-0.9,1.2h-0.5v-5.1h0.4
					c0.2,1.4,0.5,2.2,1,2.9c0.9,1.2,2.2,1.9,3.8,1.9c2.1,0,3.6-1.4,3.6-3.6c0-1.1-0.4-2-1.2-2.5c-0.5-0.3-1-0.5-2.8-1
					c-2.1-0.6-2.8-0.9-3.5-1.5c-0.7-0.7-1.1-1.7-1.1-2.9c0-2.9,2-5.1,4.6-5.1c1.1,0,2,0.3,3.1,1l0.9-1h0.4L304.4,15.8L304.4,15.8z"
					/>
				<path d="M323.5,28.3h-0.4l-0.9-1.2c-1.4,1-2.7,1.5-4.1,1.5c-3.9,0-7.1-3.9-7.1-8.5c0-4.7,3.3-8.6,7.3-8.6c1.3,0,2.7,0.5,3.9,1.4
					l0.9-1.2h0.4V16h-0.4c-0.6-2.6-2.3-4.1-4.6-4.1c-1.6,0-2.9,0.7-3.6,2c-0.5,1-0.7,3.1-0.7,6.7c0,3.5,0.2,5,0.9,5.8
					c0.7,0.9,1.9,1.5,3.2,1.5c2.2,0,3.8-1.5,4.8-4.4h0.4L323.5,28.3L323.5,28.3z"/>
				<path d="M331,12.1h-2.1v-0.5h6.8v0.5h-2.1v15.7h2.1v0.5h-6.8v-0.5h2.1V12.1z"/>
				<path d="M343.1,12.1h-2.1v-0.5h12l0.2,4.6h-0.3c-0.3-1.4-0.6-2.2-1.1-2.8c-0.5-0.7-1.2-1-2.1-1.2c-0.3-0.1-0.6-0.1-1.9-0.1h-1.9
					v7.5c3.1,0,3.6-0.4,3.6-3.1h0.3v6.9h-0.3c-0.1-1.5-0.1-1.8-0.4-2.3c-0.4-0.7-1-1-2.4-1h-0.8v7.7h3.2c1.7,0,1.9-0.1,2.5-0.5
					c0.9-0.7,1.4-1.5,2.1-4.2h0.3l-0.5,5.2h-12.4v-0.5h2.1L343.1,12.1L343.1,12.1z"/>
				<path d="M361.1,12.1h-2.1v-0.5h5.2l4.8,7.3c1.9,3,2,3.1,2.8,4.4V12.1h-2.1v-0.5h4.7v0.5h-2.1v16.2h-0.6l-10.2-15.7v15.2h2.1v0.5
					h-4.7v-0.5h2.1L361.1,12.1L361.1,12.1z"/>
				<path d="M385.1,12.1h-0.9c-1.7,0-2.2,0.2-2.9,1.1c-0.8,1-1.2,2-1.5,3.7h-0.4l0.2-5.3h13.6l0.2,5.3h-0.4
					c-0.3-1.7-0.7-2.7-1.5-3.7c-0.7-0.9-1.2-1.1-2.9-1.1h-0.9v15.7h2.3v0.5h-7.4v-0.5h2.4V12.1z"/>
				<path d="M400.6,12.1h-2.1v-0.5h6.8v0.5h-2.1v15.7h2.1v0.5h-6.8v-0.5h2.1V12.1z"/>
				<path d="M412.7,12.1h-2.1v-0.5h11.9l0.3,4.6h-0.3c-0.4-1.7-0.6-2.4-1.3-3.1c-0.5-0.6-1-0.8-1.6-0.9c-0.4-0.1-0.5-0.1-2.7-0.1
					h-1.5v7.5c3.1,0,3.6-0.4,3.6-3.1h0.3v6.9H419c-0.1-1.5-0.1-1.8-0.4-2.3c-0.4-0.7-1-1-2.4-1h-0.8v7.7h2.1v0.5h-6.8v-0.5h2.1
					L412.7,12.1L412.7,12.1z"/>
				<path d="M429.9,12.1h-2.1v-0.5h6.8v0.5h-2.1v15.7h2.1v0.5h-6.8v-0.5h2.1V12.1z"/>
				<path d="M452,28.3h-0.4l-0.8-1.2c-1.4,1-2.7,1.5-4.1,1.5c-3.9,0-7.1-3.9-7.1-8.5c0-4.7,3.3-8.6,7.3-8.6c1.3,0,2.7,0.5,3.9,1.4
					l0.8-1.2h0.4V16h-0.4c-0.6-2.6-2.3-4.1-4.6-4.1c-1.6,0-2.9,0.7-3.6,2c-0.5,1-0.7,3.1-0.7,6.7c0,3.5,0.2,5,0.9,5.8
					c0.7,0.9,1.9,1.5,3.2,1.5c2.2,0,3.8-1.5,4.8-4.4h0.4L452,28.3L452,28.3z"/>
			</g>
			<g>
				<path d="M140.8,37.1h-2.1v-0.5h6.8v0.5h-2.1v15.7h2.1v0.5h-6.8v-0.5h2.1V37.1z"/>
				<path d="M152.9,37.1h-2.1v-0.5h5.2l4.8,7.3c1.9,3,2,3.1,2.8,4.4V37.1h-2.1v-0.5h4.7v0.5h-2.1v16.2h-0.6l-10.2-15.7v15.2h2.1v0.5
					h-4.7v-0.5h2.1L152.9,37.1L152.9,37.1z"/>
				<path d="M173.6,37.1h-2.1v-0.5h11.9l0.3,4.6h-0.3c-0.4-1.7-0.6-2.4-1.3-3.1c-0.5-0.6-1-0.8-1.6-0.9c-0.4-0.1-0.5-0.1-2.7-0.1
					h-1.5v7.5c3.1,0,3.6-0.4,3.6-3.1h0.3v6.9H180c-0.1-1.5-0.1-1.8-0.4-2.3c-0.4-0.7-1-1-2.4-1h-0.8v7.7h2.1v0.5h-6.8v-0.5h2.1
					L173.6,37.1L173.6,37.1z"/>
				<path d="M203.2,45.1c0,2.2-0.9,4.5-2.4,6.2c-1.3,1.4-3,2.2-4.8,2.2c-3.9,0-7.3-3.9-7.3-8.6c0-4.6,3.3-8.6,7.2-8.6
					C200,36.4,203.2,40.3,203.2,45.1z M192.6,38.8c-0.5,1-0.8,2.7-0.8,6.2c0,3.9,0.2,5.6,1,6.6c0.7,0.9,1.8,1.4,3.1,1.4
					c1.5,0,2.7-0.7,3.3-1.8c0.5-0.9,0.8-2.7,0.8-6c0-4.1-0.2-5.7-1-6.7c-0.7-0.9-1.8-1.4-3-1.4C194.5,36.9,193.2,37.6,192.6,38.8z"
					/>
				<path d="M210.2,37.1h-2.1v-0.5h5.8c3.4,0,4.3,0.2,5.5,0.9c1.1,0.7,1.6,1.6,1.6,2.9c0,2.3-2,3.8-5.1,4c1.8,0.2,3.1,1.1,3.9,2.3
					c0.5,0.8,0.7,1.7,0.7,2.9v0.5v0.7c0,1.3,0.4,1.9,1.1,1.9c0.2,0,0.5-0.1,1-0.3l0.2,0.4c-0.6,0.3-1.2,0.4-1.8,0.4
					c-1.3,0-2.4-0.7-3-1.8c-0.4-0.8-0.5-1.3-0.5-3.2c0-1.6-0.2-2.3-0.7-2.9c-0.6-0.7-1.4-0.9-3.1-0.9h-0.8v8.1h2.1v0.5h-6.8v-0.5
					h2.1L210.2,37.1L210.2,37.1z M213.8,44.1c1.8,0,2.6-0.2,3.2-0.6c0.7-0.5,1.1-1.6,1.1-2.9c0-1.2-0.4-2.3-1.1-2.8
					c-0.7-0.5-1.4-0.7-3.1-0.7h-1v7H213.8z"/>
				<path d="M230,37.1h-2.1v-0.5h5.2l3.7,12.3l3.7-12.3h5v0.5h-2.1v15.7h2.1v0.5h-6.8v-0.5h2.1V37.5l-4.7,15.7h-0.6l-4.9-15.9v15.4
					h2.1v0.5h-4.7v-0.5h2.1L230,37.1L230,37.1z"/>
				<path d="M254.1,47.9l-1.6,4.9h2.2v0.5h-4v-0.5h1.2l5.6-16.2h0.8l5.4,16.2h1.8v0.5h-6.8v-0.5h2.2l-1.6-4.9
					C259.2,47.9,254.1,47.9,254.1,47.9z M256.7,40.5l-2.3,6.9h4.7L256.7,40.5z"/>
				<path d="M273.9,37.1h-0.9c-1.7,0-2.2,0.2-2.9,1.1c-0.8,1-1.2,2-1.5,3.7h-0.4l0.2-5.3h13.6l0.2,5.3h-0.4
					c-0.3-1.7-0.7-2.7-1.5-3.7c-0.7-0.9-1.2-1.1-2.9-1.1h-0.9v15.7h2.3v0.5h-7.4v-0.5h2.3L273.9,37.1L273.9,37.1z"/>
				<path d="M289.4,37.1h-2.1v-0.5h6.8v0.5h-2.1v15.7h2.1v0.5h-6.8v-0.5h2.1V37.1z"/>
				<path d="M313.6,45.1c0,2.2-0.9,4.5-2.4,6.2c-1.3,1.4-3,2.2-4.8,2.2c-3.9,0-7.3-3.9-7.3-8.6c0-4.6,3.3-8.6,7.2-8.6
					C310.3,36.4,313.6,40.3,313.6,45.1z M303,38.8c-0.5,1-0.8,2.7-0.8,6.2c0,3.9,0.2,5.6,1,6.6c0.7,0.9,1.8,1.4,3.1,1.4
					c1.4,0,2.7-0.7,3.3-1.8c0.5-0.9,0.7-2.7,0.7-6c0-4.1-0.2-5.7-1-6.7c-0.7-0.9-1.8-1.4-3-1.4C304.8,36.9,303.6,37.6,303,38.8z"/>
				<path d="M320.5,37.1h-2.1v-0.5h5.2l4.8,7.3c1.9,3,2,3.1,2.8,4.4V37.1h-2.1v-0.5h4.7v0.5h-2.1v16.2h-0.6L321,37.6v15.2h2.1v0.5
					h-4.7v-0.5h2.1L320.5,37.1L320.5,37.1z"/>
				<path d="M361.5,53.3h-0.4l-0.9-1.2c-1.4,1-2.7,1.5-4.1,1.5c-3.9,0-7.1-3.9-7.1-8.5c0-4.7,3.3-8.6,7.3-8.6c1.3,0,2.7,0.5,3.9,1.4
					l0.9-1.2h0.4V41h-0.4c-0.6-2.6-2.3-4.1-4.6-4.1c-1.6,0-2.9,0.7-3.6,2c-0.5,1-0.7,3.1-0.7,6.7c0,3.5,0.2,5,0.9,5.8
					c0.7,0.9,1.9,1.5,3.2,1.5c2.2,0,3.8-1.5,4.8-4.4h0.4L361.5,53.3L361.5,53.3z"/>
				<path d="M369,37.1h-2.1v-0.5h12l0.2,4.6h-0.3c-0.3-1.4-0.6-2.2-1.1-2.8c-0.5-0.7-1.2-1-2.1-1.2c-0.3-0.1-0.6-0.1-1.9-0.1h-1.9
					v7.5c3.1,0,3.6-0.4,3.6-3.1h0.3v6.9h-0.3c-0.1-1.5-0.1-1.8-0.4-2.3c-0.4-0.7-1-1-2.4-1h-0.8v7.7h3.2c1.7,0,1.9-0.1,2.5-0.5
					c0.9-0.6,1.4-1.5,2.1-4.2h0.3l-0.5,5.2h-12.4v-0.5h2.1L369,37.1L369,37.1z"/>
				<path d="M387,37.1h-2.1v-0.5h5.2l4.8,7.3c1.9,3,2,3.1,2.8,4.4V37.1h-2.1v-0.5h4.7v0.5h-2.1v16.2h-0.6l-10.2-15.7v15.2h2.1v0.5
					h-4.7v-0.5h2.1L387,37.1L387,37.1z"/>
				<path d="M411,37.1h-0.9c-1.7,0-2.2,0.2-2.9,1.1c-0.8,1-1.2,2-1.5,3.7h-0.4l0.2-5.3h13.6l0.2,5.3h-0.4c-0.3-1.7-0.7-2.7-1.5-3.7
					c-0.7-0.9-1.2-1.1-2.9-1.1h-0.9v15.7h2.3v0.5h-7.4v-0.5h2.4V37.1z"/>
				<path d="M426.4,37.1h-2.1v-0.5h5.8c3.4,0,4.3,0.2,5.5,0.9c1.1,0.7,1.6,1.6,1.6,2.9c0,2.3-2,3.8-5.1,4c1.8,0.2,3.1,1.1,3.9,2.3
					c0.5,0.8,0.7,1.7,0.7,2.9v0.5v0.7c0,1.3,0.4,1.9,1.1,1.9c0.2,0,0.4-0.1,0.9-0.3L439,53c-0.6,0.3-1.2,0.4-1.8,0.4
					c-1.3,0-2.4-0.7-3-1.8c-0.4-0.8-0.5-1.3-0.5-3.2c-0.1-1.6-0.2-2.3-0.7-2.9c-0.6-0.7-1.4-0.9-3.1-0.9h-0.8v8.1h2.1v0.5h-6.8v-0.5
					h2.1L426.4,37.1L426.4,37.1z M430,44.1c1.8,0,2.6-0.2,3.2-0.6c0.7-0.5,1.1-1.6,1.1-2.9c0-1.2-0.4-2.3-1.1-2.8
					c-0.7-0.5-1.4-0.7-3.1-0.7h-1v7H430z"/>
				<path d="M446.2,37.1h-2.1v-0.5h12l0.2,4.6H456c-0.3-1.4-0.6-2.2-1.1-2.8c-0.5-0.7-1.2-1-2.1-1.2c-0.3-0.1-0.6-0.1-1.9-0.1h-1.9
					v7.5c3.1,0,3.6-0.4,3.6-3.1h0.3v6.9h-0.3c-0.1-1.5-0.2-1.8-0.4-2.3c-0.3-0.7-1-1-2.4-1h-0.8v7.7h3.2c1.7,0,1.9-0.1,2.5-0.5
					c0.9-0.6,1.3-1.5,2.1-4.2h0.3l-0.5,5.2h-12.4v-0.5h2.1L446.2,37.1L446.2,37.1z"/>
			</g>
			<g>
				<path d="M140.8,62.1h-2.1v-0.5h11.9l0.3,4.6h-0.3c-0.4-1.6-0.6-2.4-1.3-3.1c-0.5-0.6-1-0.8-1.6-0.9c-0.4-0.1-0.5-0.1-2.7-0.1
					h-1.5v7.5c3.1,0,3.6-0.4,3.6-3.1h0.3v6.9h-0.3c-0.1-1.5-0.1-1.8-0.4-2.3c-0.4-0.7-1-1-2.4-1h-0.8v7.7h2.1v0.5h-6.8v-0.5h2.1
					L140.8,62.1L140.8,62.1z"/>
				<path d="M161.9,77.8c-0.6,0.6-1.1,0.8-1.7,0.8c-1.2,0-1.9-0.7-2.1-1.9c-0.7,1.2-1.9,1.9-3.2,1.9c-1.6,0-2.6-0.9-2.6-2.3
					c0-1.3,0.9-2.3,2.4-2.9c0.9-0.3,1.9-0.5,3.5-0.5v-1.7c0-1.4-0.1-1.7-0.4-2c-0.2-0.3-0.8-0.5-1.3-0.5c-0.9,0-1.9,0.6-1.9,1.1
					c0,0.1,0,0.1,0.1,0.3c0.3,0.3,0.4,0.5,0.4,0.8c0,0.6-0.4,1.1-1,1.1c-0.6,0-1.1-0.4-1.1-1.1c0-1.3,1.9-2.5,3.9-2.5
					c1.2,0,2.3,0.4,2.9,1.1c0.6,0.6,0.6,0.7,0.6,2.9v2.7c0,2.4,0,2.4,0.1,2.6c0.1,0.2,0.2,0.3,0.4,0.3s0.3,0,0.8-0.4L161.9,77.8z
					 M158.1,73.3c-1.4,0.1-2,0.2-2.6,0.6c-0.7,0.5-1.1,1.1-1.1,1.9c0,1.1,0.6,1.7,1.5,1.7c0.8,0,1.4-0.4,1.8-1.2
					c0.2-0.5,0.4-1.2,0.4-2.5L158.1,73.3L158.1,73.3z"/>
				<path d="M173.2,75.1c-0.9,2.3-2.2,3.4-4.1,3.4c-2.6,0-4.8-2.4-4.8-5.1c0-2.8,2.3-5.2,5-5.2c1.9,0,3.5,1.2,3.5,2.6
					c0,0.8-0.5,1.3-1.2,1.3c-0.6,0-1.1-0.5-1.1-1.2c0-0.4,0.2-0.8,0.5-1.2c0.1-0.1,0.1-0.1,0.1-0.2c0-0.4-0.9-0.8-1.7-0.8
					c-0.9,0-1.6,0.4-2,1.1c-0.3,0.6-0.5,2.1-0.5,4.2c0,1.9,0.1,2.6,0.6,3.1c0.4,0.5,1,0.7,1.8,0.7c1.5,0,2.7-1,3.3-2.8L173.2,75.1
					L173.2,75.1z"/>
				<path d="M185.9,77.8h1.6v0.5h-3.9v-1.4c-0.7,1.1-1.8,1.6-3.3,1.6c-1.1,0-2-0.3-2.6-0.9c-0.6-0.6-0.8-1.2-0.8-3.4V69h-1.7v-0.5
					h3.9v5.8c0,2.5,0.1,2.9,0.4,3.3c0.2,0.2,0.7,0.4,1.2,0.4c0.9,0,1.8-0.5,2.2-1.2c0.5-0.8,0.6-1.6,0.6-4.3V69H182v-0.5h3.9
					L185.9,77.8L185.9,77.8z"/>
				<path d="M192,62.1h-1.7v-0.5h3.9v16.2h1.6v0.5h-5.6v-0.5h1.7L192,62.1L192,62.1z"/>
				<path d="M201.6,68.5h2.5V69h-2.5v7.1c0,0.7,0,0.9,0.2,1.2c0.2,0.3,0.5,0.5,1,0.5c0.8,0,1.1-0.4,1.4-1.4h0.5
					c-0.2,1.4-1.1,2.1-2.6,2.1c-0.9,0-1.6-0.3-2.1-0.9c-0.5-0.5-0.5-0.8-0.5-2.4V69h-1.5v-0.4c1.6-0.9,2.8-2.2,3.4-4h0.4L201.6,68.5
					L201.6,68.5z"/>
				<path d="M211.1,82.3c-0.7,1.9-1.4,2.6-2.5,2.6c-0.8,0-1.4-0.5-1.4-1.2c0-0.7,0.5-1.2,1.2-1.2c0.5,0,0.8,0.2,1,0.5
					c0.1,0.2,0.2,0.3,0.4,0.3c0.3,0,0.3-0.1,0.8-1.3l1.4-3.7l-4.2-9.3h-1.1v-0.5h5.3V69h-1.8l2.8,6.4l2.3-6.4h-2v-0.5h3.6V69h-1
					L211.1,82.3z"/>
				<path d="M237.2,73.4c0,2.8-2.3,5.1-5.1,5.1c-2.8,0-5-2.3-5-5.2c0-2.8,2.3-5.1,5-5.1C234.9,68.2,237.2,70.5,237.2,73.4z
					 M230,69.9c-0.2,0.5-0.2,0.9-0.2,3.4c0,2.9,0,3.2,0.4,3.8c0.4,0.6,1,0.8,2,0.8c1,0,1.8-0.4,2.1-1.1c0.2-0.5,0.2-0.9,0.2-3.4
					c0-3,0-3.2-0.4-3.8c-0.4-0.6-1-0.8-2-0.8C231,68.8,230.3,69.2,230,69.9z"/>
				<path d="M243.7,77.8h2v0.5h-6v-0.5h1.7V69h-1.7v-0.5h1.7v-2c0-1.9,0.3-2.8,1-3.8c0.7-0.9,1.6-1.3,2.6-1.3c1.2,0,2.2,0.8,2.2,1.6
					c0,0.6-0.5,1.1-1,1.1c-0.6,0-1-0.5-1-1.1c0-0.4,0.1-0.7,0.5-1.1c-0.2-0.1-0.4-0.2-0.7-0.2c-0.5,0-0.9,0.3-1.1,0.8
					c-0.2,0.4-0.2,0.5-0.2,2.5v3.4h2.3V69h-2.3L243.7,77.8L243.7,77.8z"/>
				<path d="M266.3,65.8H266c-0.3-2.4-1.8-3.8-4-3.8c-1.9,0-3.3,1.2-3.3,3c0,0.9,0.4,1.6,1.1,2c0.5,0.2,1.2,0.5,2.8,0.9
					c2,0.6,2.6,0.8,3.2,1.4c0.9,0.9,1.4,2.1,1.4,3.6c0,3.3-2.1,5.7-5,5.7c-1.4,0-2.5-0.4-3.7-1.4l-0.9,1.2h-0.5v-5.1h0.4
					c0.2,1.4,0.5,2.1,1,2.9c0.9,1.2,2.2,1.9,3.8,1.9c2.1,0,3.6-1.4,3.6-3.6c0-1.1-0.4-2-1.2-2.5c-0.5-0.3-1-0.5-2.8-1
					c-2.1-0.6-2.8-0.9-3.5-1.6c-0.7-0.7-1.1-1.7-1.1-2.9c0-2.9,2-5.1,4.6-5.1c1.1,0,2,0.3,3.1,1l0.9-1h0.4L266.3,65.8L266.3,65.8z"
					/>
				<path d="M281,73.4c0,2.8-2.3,5.1-5.1,5.1c-2.8,0-5-2.3-5-5.2c0-2.8,2.3-5.1,5-5.1C278.7,68.2,281,70.5,281,73.4z M273.8,69.9
					c-0.2,0.5-0.2,0.9-0.2,3.4c0,2.9,0,3.2,0.4,3.8c0.4,0.6,1,0.8,2,0.8c1,0,1.8-0.4,2.1-1.1c0.2-0.5,0.2-0.9,0.2-3.4
					c0-3,0-3.2-0.4-3.8c-0.4-0.6-1-0.8-2-0.8C274.8,68.8,274.1,69.2,273.8,69.9z"/>
				<path d="M293,75.1c-0.9,2.3-2.2,3.4-4.1,3.4c-2.6,0-4.8-2.4-4.8-5.1c0-2.8,2.3-5.2,5-5.2c1.9,0,3.5,1.2,3.5,2.6
					c0,0.8-0.5,1.3-1.2,1.3c-0.6,0-1.1-0.5-1.1-1.2c0-0.4,0.2-0.8,0.5-1.2c0.1-0.1,0.1-0.1,0.1-0.2c0-0.4-0.9-0.8-1.7-0.8
					c-0.9,0-1.6,0.4-2,1.1c-0.3,0.6-0.5,2.1-0.5,4.2c0,1.9,0.1,2.6,0.5,3.1c0.4,0.5,1,0.7,1.8,0.7c1.5,0,2.7-1,3.3-2.8L293,75.1
					L293,75.1z"/>
				<path d="M297.1,69h-1.7v-0.5h3.9v9.3h1.6v0.5h-5.6v-0.5h1.7V69z M299.6,63.4c0,0.8-0.6,1.4-1.4,1.4s-1.4-0.6-1.4-1.4
					s0.6-1.4,1.4-1.4S299.6,62.6,299.6,63.4z"/>
				<path d="M313.5,77.8c-0.6,0.6-1.1,0.8-1.7,0.8c-1.2,0-1.9-0.7-2.1-1.9c-0.7,1.2-1.9,1.9-3.2,1.9c-1.6,0-2.6-0.9-2.6-2.3
					c0-1.3,0.9-2.3,2.4-2.9c0.9-0.3,1.9-0.5,3.5-0.5v-1.7c0-1.4,0-1.7-0.4-2c-0.2-0.3-0.8-0.5-1.3-0.5c-0.9,0-1.9,0.6-1.9,1.1
					c0,0.1,0,0.1,0.1,0.3c0.3,0.3,0.4,0.5,0.4,0.8c0,0.6-0.4,1.1-1,1.1c-0.6,0-1.1-0.4-1.1-1.1c0-1.3,1.9-2.5,3.9-2.5
					c1.2,0,2.4,0.4,2.9,1.1c0.5,0.6,0.6,0.7,0.6,2.9v2.7c0,2.4,0,2.4,0.1,2.6c0.1,0.2,0.2,0.3,0.4,0.3s0.3,0,0.8-0.4L313.5,77.8z
					 M309.7,73.3c-1.4,0.1-2,0.2-2.6,0.6c-0.7,0.5-1,1.1-1,1.9c0,1.1,0.5,1.7,1.5,1.7c0.8,0,1.4-0.4,1.8-1.2
					c0.2-0.5,0.4-1.2,0.4-2.5L309.7,73.3L309.7,73.3z"/>
				<path d="M317.9,62.1h-1.7v-0.5h3.9v16.2h1.6v0.5h-5.6v-0.5h1.7V62.1z"/>
				<path d="M341.9,65.8h-0.4c-0.3-2.4-1.8-3.8-4-3.8c-1.9,0-3.3,1.2-3.3,3c0,0.9,0.4,1.6,1.1,2c0.5,0.2,1.2,0.5,2.8,0.9
					c2,0.6,2.6,0.8,3.2,1.4c0.9,0.9,1.4,2.1,1.4,3.6c0,3.3-2.1,5.7-5,5.7c-1.4,0-2.5-0.4-3.7-1.4l-0.9,1.2h-0.5v-5.1h0.4
					c0.2,1.4,0.5,2.1,1,2.9c0.9,1.2,2.2,1.9,3.8,1.9c2.1,0,3.6-1.4,3.6-3.6c0-1.1-0.4-2-1.2-2.5c-0.5-0.3-1-0.5-2.8-1
					c-2.1-0.6-2.8-0.9-3.5-1.6c-0.7-0.7-1.1-1.7-1.1-2.9c0-2.9,2-5.1,4.6-5.1c1.1,0,2,0.3,3.1,1l0.9-1h0.4L341.9,65.8L341.9,65.8z"
					/>
				<path d="M355.3,75.1c-0.9,2.3-2.2,3.4-4.1,3.4c-2.6,0-4.8-2.4-4.8-5.1c0-2.8,2.3-5.2,5-5.2c1.9,0,3.5,1.2,3.5,2.6
					c0,0.8-0.5,1.3-1.2,1.3c-0.6,0-1.1-0.5-1.1-1.2c0-0.4,0.2-0.8,0.5-1.2c0.1-0.1,0.1-0.1,0.1-0.2c0-0.4-0.9-0.8-1.7-0.8
					c-0.9,0-1.6,0.4-2,1.1c-0.3,0.6-0.5,2.1-0.5,4.2c0,1.9,0.1,2.6,0.5,3.1c0.4,0.5,1,0.7,1.7,0.7c1.5,0,2.7-1,3.3-2.8L355.3,75.1
					L355.3,75.1z"/>
				<path d="M359.4,69h-1.7v-0.5h3.9v9.3h1.6v0.5h-5.6v-0.5h1.7V69z M361.9,63.4c0,0.8-0.6,1.4-1.4,1.4s-1.4-0.6-1.4-1.4
					s0.6-1.4,1.4-1.4S361.9,62.6,361.9,63.4z"/>
				<path d="M368.3,72.6v0.7c0,2.6,0,3.1,0.4,3.6c0.4,0.7,1.1,1.1,2,1.1c1.6,0,2.9-1.1,3.3-3h0.6c-0.4,2.1-2.1,3.5-4.1,3.5
					c-2.5,0-4.8-2.4-4.8-5.2s2.2-5.1,4.7-5.1c1.6,0,3,0.8,3.8,2.1c0.4,0.6,0.5,1.2,0.6,2.2L368.3,72.6L368.3,72.6z M372.2,72.1
					c0-1.6,0-1.9-0.2-2.3c-0.2-0.6-0.8-1-1.6-1c-0.7,0-1.3,0.2-1.6,0.7c-0.4,0.4-0.4,0.9-0.4,2v0.6L372.2,72.1L372.2,72.1z"/>
				<path d="M379,69h-1.7v-0.5h3.9v1.3c0.8-1.1,1.8-1.6,3.1-1.6c1,0,2,0.4,2.5,1c0.6,0.6,0.7,1.2,0.7,3v5.5h1.6v0.5h-5.4v-0.5h1.5
					v-3.8c0-3.1-0.1-3.9-0.5-4.4c-0.3-0.4-0.7-0.6-1.2-0.6c-0.6,0-1.4,0.4-1.8,1c-0.5,0.7-0.6,1.8-0.6,4.8v3h1.5v0.5h-5.4v-0.5h1.7
					L379,69L379,69z"/>
				<path d="M400.6,75.1c-0.9,2.3-2.2,3.4-4.1,3.4c-2.6,0-4.8-2.4-4.8-5.1c0-2.8,2.3-5.2,5-5.2c1.9,0,3.5,1.2,3.5,2.6
					c0,0.8-0.5,1.3-1.2,1.3c-0.6,0-1.1-0.5-1.1-1.2c0-0.4,0.2-0.8,0.5-1.2c0.1-0.1,0.1-0.1,0.1-0.2c0-0.4-0.9-0.8-1.7-0.8
					c-0.9,0-1.6,0.4-2,1.1c-0.3,0.6-0.5,2.1-0.5,4.2c0,1.9,0.1,2.6,0.5,3.1c0.4,0.5,1,0.7,1.7,0.7c1.5,0,2.7-1,3.3-2.8L400.6,75.1
					L400.6,75.1z"/>
				<path d="M406,72.6v0.7c0,2.6,0,3.1,0.4,3.6c0.4,0.7,1.1,1.1,2,1.1c1.6,0,2.9-1.1,3.3-3h0.6c-0.4,2.1-2.1,3.5-4.1,3.5
					c-2.5,0-4.8-2.4-4.8-5.2s2.2-5.1,4.7-5.1c1.6,0,3,0.8,3.8,2.1c0.4,0.6,0.5,1.2,0.6,2.2L406,72.6L406,72.6z M409.8,72.1
					c0-1.6,0-1.9-0.2-2.3c-0.2-0.6-0.8-1-1.6-1c-0.7,0-1.3,0.2-1.6,0.7c-0.4,0.4-0.4,0.9-0.4,2v0.6L409.8,72.1L409.8,72.1z"/>
				<path d="M422.1,71.3h-0.4c-0.2-1.5-1.4-2.5-2.9-2.5c-1.2,0-2.1,0.8-2.1,1.7c0,0.8,0.5,1.1,2.4,1.4c1.6,0.3,2.2,0.6,2.8,1.2
					c0.4,0.5,0.6,1.2,0.6,2c0,1.9-1.4,3.4-3.2,3.4c-1,0-1.6-0.3-2.6-1.1l-0.6,0.8h-0.3l-0.1-3.7h0.4c0.6,2.4,1.6,3.4,3.2,3.4
					c1.3,0,2.2-0.8,2.2-1.9c0-0.9-0.6-1.4-2.4-1.6c-1.6-0.3-2.2-0.5-2.7-1.1c-0.4-0.5-0.7-1.2-0.7-2.1c0-1.7,1.3-3.1,2.9-3.1
					c0.9,0,1.6,0.3,2.4,0.9l0.4-0.8h0.4L422.1,71.3z"/>
			</g>
		</g>
	</g>
	<g>
		<path class="st0" d="M151.5,103.3h-0.4l-0.9-1.2c-1.4,1-2.7,1.5-4.1,1.5c-3.9,0-7.1-3.9-7.1-8.5c0-4.7,3.3-8.6,7.3-8.6
			c1.3,0,2.7,0.5,3.9,1.4l0.9-1.2h0.4V91h-0.4c-0.6-2.6-2.3-4.1-4.6-4.1c-1.6,0-2.9,0.7-3.6,2c-0.5,1-0.7,3.1-0.7,6.7s0.2,5,0.9,5.8
			c0.7,0.9,1.9,1.5,3.2,1.5c2.2,0,3.8-1.5,4.8-4.4h0.4V103.3z"/>
		<path class="st0" d="M156.2,87.1h-1.7v-0.5h3.9v8.6c0.9-1.4,2-2,3.7-2c1.2,0,2.1,0.4,2.6,1c0.4,0.5,0.5,0.9,0.5,2.6v5.9h1.7v0.5
			h-5.4v-0.5h1.5v-5.9c0-1.8,0-2-0.3-2.4c-0.2-0.3-0.7-0.5-1.3-0.5c-1.1,0-2.1,0.7-2.5,1.8c-0.3,0.8-0.4,1.6-0.4,3.4v3.6h1.5v0.5
			h-5.4v-0.5h1.7L156.2,87.1L156.2,87.1z"/>
		<path class="st0" d="M179.5,102.8c-0.6,0.6-1.1,0.8-1.7,0.8c-1.2,0-1.9-0.7-2.1-1.9c-0.7,1.2-1.9,1.9-3.2,1.9
			c-1.6,0-2.6-0.9-2.6-2.3c0-1.3,0.9-2.3,2.4-2.9c0.9-0.3,1.9-0.5,3.5-0.5v-1.7c0-1.4-0.1-1.7-0.4-2c-0.2-0.3-0.8-0.5-1.3-0.5
			c-0.9,0-1.9,0.6-1.9,1.1c0,0.1,0,0.1,0.1,0.3c0.3,0.3,0.4,0.5,0.4,0.8c0,0.6-0.4,1.1-1,1.1c-0.6,0-1.1-0.4-1.1-1.1
			c0-1.3,1.9-2.5,3.9-2.5c1.2,0,2.3,0.4,2.9,1.1c0.6,0.6,0.6,0.7,0.6,2.9v2.7c0,2.4,0,2.4,0.1,2.6c0.1,0.2,0.2,0.3,0.4,0.3
			s0.3,0,0.8-0.4L179.5,102.8z M175.7,98.3c-1.4,0.1-2,0.2-2.6,0.6c-0.7,0.5-1,1.1-1,1.9c0,1.1,0.6,1.7,1.5,1.7
			c0.8,0,1.4-0.4,1.8-1.2c0.2-0.5,0.4-1.2,0.4-2.5L175.7,98.3L175.7,98.3z"/>
		<path class="st0" d="M184,94h-1.7v-0.5h3.9v2.4c0.7-1.8,1.6-2.6,2.7-2.6c0.9,0,1.6,0.6,1.6,1.4c0,0.7-0.5,1.3-1.2,1.3
			c-0.4,0-0.8-0.2-1-0.7c-0.1-0.2-0.1-0.2-0.1-0.7c0-0.2-0.1-0.4-0.2-0.4c-0.2,0-0.4,0.2-0.7,0.6c-0.8,1.3-1,2.7-1,5.6v2.3h1.6v0.5
			h-5.6v-0.5h1.7L184,94L184,94z"/>
		<path class="st0" d="M194,87.1h-1.7v-0.5h3.9v16.2h1.6v0.5h-5.6v-0.5h1.7L194,87.1L194,87.1z"/>
		<path class="st0" d="M202.9,97.6v0.7c0,2.6,0,3.1,0.4,3.6c0.4,0.7,1.1,1.1,2,1.1c1.6,0,2.8-1.1,3.3-3h0.6
			c-0.4,2.1-2.1,3.5-4.1,3.5c-2.5,0-4.8-2.4-4.8-5.2s2.2-5.1,4.7-5.1c1.6,0,3,0.8,3.8,2.1c0.4,0.6,0.5,1.2,0.6,2.2L202.9,97.6
			L202.9,97.6z M206.8,97.1c0-1.6,0-1.9-0.2-2.3c-0.2-0.6-0.8-1-1.6-1c-0.7,0-1.3,0.2-1.6,0.7c-0.4,0.4-0.4,0.9-0.4,2v0.6
			L206.8,97.1L206.8,97.1z"/>
		<path class="st0" d="M219,96.3h-0.4c-0.2-1.5-1.4-2.5-2.8-2.5c-1.2,0-2.1,0.8-2.1,1.7c0,0.8,0.5,1.1,2.4,1.4
			c1.6,0.3,2.2,0.6,2.8,1.2c0.4,0.5,0.6,1.2,0.6,2c0,1.9-1.4,3.4-3.2,3.4c-1,0-1.6-0.3-2.6-1.1l-0.6,0.8h-0.3l-0.1-3.7h0.4
			c0.6,2.4,1.6,3.4,3.2,3.4c1.3,0,2.2-0.8,2.2-1.9c0-0.9-0.6-1.4-2.4-1.6c-1.6-0.3-2.2-0.5-2.7-1.1c-0.5-0.5-0.7-1.2-0.7-2.1
			c0-1.7,1.3-3.1,3-3.1c0.9,0,1.6,0.3,2.4,0.9l0.4-0.8h0.4L219,96.3z"/>
		<path class="st0" d="M240.3,87.1v-0.5h4.7v0.5H243v9.5c0,3.2-0.1,4-0.9,5.1c-0.8,1.1-2.2,1.8-4.1,1.8c-1.9,0-3.7-0.6-4.7-1.6
			c-1-1-1.3-2-1.3-5.3v-9.5h-2.1v-0.5h6.8v0.5h-2.1v9.5c0,3.5,0,3.9,0.7,4.9c0.6,0.9,1.8,1.4,3.1,1.4c1.7,0,2.8-0.7,3.4-2.1
			c0.4-0.9,0.5-1.5,0.5-4.2v-9.5H240.3z"/>
		<path class="st0" d="M248.6,94H247v-0.5h3.9v1.3c0.8-1.1,1.8-1.6,3.1-1.6c1,0,2,0.4,2.5,1c0.6,0.6,0.7,1.2,0.7,3v5.5h1.6v0.5h-5.4
			v-0.5h1.5v-3.8c0-3.1-0.1-3.9-0.5-4.4c-0.3-0.4-0.7-0.6-1.2-0.6c-0.6,0-1.4,0.4-1.8,1c-0.5,0.7-0.6,1.8-0.6,4.8v3h1.5v0.5H247
			v-0.5h1.7L248.6,94L248.6,94z"/>
		<path class="st0" d="M263.5,94h-1.7v-0.5h3.9v9.3h1.6v0.5h-5.6v-0.5h1.7V94z M266,88.4c0,0.8-0.6,1.4-1.4,1.4s-1.4-0.6-1.4-1.4
			s0.6-1.4,1.4-1.4S266,87.6,266,88.4z"/>
		<path class="st0" d="M274.8,103.5h-0.9l-3.8-9.6h-1v-0.5h5.3V94h-1.8l2.6,6.7l2.6-6.7h-1.9v-0.5h3.5V94h-1L274.8,103.5z"/>
		<path class="st0" d="M283.8,97.6v0.7c0,2.6,0,3.1,0.4,3.6c0.4,0.7,1.1,1.1,2,1.1c1.6,0,2.9-1.1,3.3-3h0.6
			c-0.4,2.1-2.1,3.5-4.1,3.5c-2.5,0-4.8-2.4-4.8-5.2s2.2-5.1,4.7-5.1c1.6,0,3,0.8,3.8,2.1c0.4,0.6,0.5,1.2,0.6,2.2L283.8,97.6
			L283.8,97.6z M287.6,97.1c0-1.6,0-1.9-0.2-2.3c-0.2-0.6-0.8-1-1.6-1c-0.7,0-1.3,0.2-1.6,0.7c-0.4,0.4-0.4,0.9-0.4,2v0.6
			L287.6,97.1L287.6,97.1z"/>
		<path class="st0" d="M294.4,94h-1.7v-0.5h3.9v2.4c0.7-1.8,1.5-2.6,2.7-2.6c0.9,0,1.6,0.6,1.6,1.4c0,0.7-0.5,1.3-1.2,1.3
			c-0.4,0-0.8-0.2-1-0.7c-0.1-0.2-0.1-0.2-0.1-0.7c0-0.2-0.1-0.4-0.2-0.4c-0.2,0-0.5,0.2-0.7,0.6c-0.8,1.3-1,2.7-1,5.6v2.3h1.6v0.5
			h-5.6v-0.5h1.7L294.4,94L294.4,94z"/>
		<path class="st0" d="M310.1,96.3h-0.4c-0.2-1.5-1.4-2.5-2.9-2.5c-1.2,0-2.1,0.8-2.1,1.7c0,0.8,0.5,1.1,2.4,1.4
			c1.6,0.3,2.2,0.6,2.8,1.2c0.4,0.5,0.6,1.2,0.6,2c0,1.9-1.4,3.4-3.2,3.4c-1,0-1.6-0.3-2.6-1.1l-0.6,0.8h-0.3l-0.1-3.7h0.4
			c0.6,2.4,1.6,3.4,3.2,3.4c1.3,0,2.2-0.8,2.2-1.9c0-0.9-0.6-1.4-2.4-1.6c-1.6-0.3-2.2-0.5-2.7-1.1c-0.4-0.5-0.7-1.2-0.7-2.1
			c0-1.7,1.3-3.1,2.9-3.1c0.9,0,1.6,0.3,2.4,0.9l0.4-0.8h0.4L310.1,96.3z"/>
		<path class="st0" d="M315,94h-1.7v-0.5h3.9v9.3h1.6v0.5h-5.6v-0.5h1.7V94z M317.5,88.4c0,0.8-0.6,1.4-1.4,1.4s-1.4-0.6-1.4-1.4
			s0.6-1.4,1.4-1.4S317.5,87.6,317.5,88.4z"/>
		<path class="st0" d="M324.6,93.5h2.5V94h-2.5v7.1c0,0.7,0,0.9,0.2,1.2c0.2,0.3,0.5,0.5,1,0.5c0.7,0,1.1-0.4,1.4-1.4h0.5
			c-0.2,1.4-1.1,2.1-2.6,2.1c-0.9,0-1.6-0.3-2.1-0.9c-0.5-0.5-0.5-0.8-0.5-2.4V94h-1.5v-0.4c1.6-0.9,2.8-2.2,3.4-4h0.4L324.6,93.5
			L324.6,93.5z"/>
		<path class="st0" d="M334,107.3c-0.7,1.9-1.4,2.6-2.5,2.6c-0.8,0-1.4-0.5-1.4-1.2c0-0.7,0.5-1.2,1.2-1.2c0.5,0,0.8,0.2,1,0.5
			c0.1,0.2,0.2,0.3,0.4,0.3c0.3,0,0.3-0.1,0.8-1.3l1.4-3.7l-4.2-9.3h-1.1v-0.5h5.3V94h-1.7l2.8,6.4l2.3-6.4h-1.9v-0.5h3.6V94h-1
			L334,107.3z"/>
	</g>
</g>
<g>
	<circle class="st1" cx="56.7" cy="56.7" r="56.5"/>
	<g>
		<path class="st0" d="M56.9,112.6C26.1,112.6,1,87.7,1,56.9C0.9,26.1,25.8,1.1,56.6,1c30.8-0.1,55.8,24.9,55.9,55.7
			C112.6,87.1,87.6,112.5,56.9,112.6 M56.6,0C25.3,0.1-0.1,25.5,0,56.8c0.1,31.3,25.5,56.6,56.8,56.6c31.3-0.1,56.6-25.5,56.6-56.8
			C113.3,25.3,87.9-0.1,56.6,0"/>
		<path class="st0" d="M55.1,6.3c0.2,0.1,0.5,0.2,0.5,0.8c0,0.8-0.1,1.7-0.3,2.3c0.8,0,1.2,0,1.9-0.1c-0.3-0.8-0.4-1.8-0.5-2.3
			c-0.1-0.6,0.2-0.8,0.5-0.8c0.2,0,1.5,0,2,0.4l0-1.8c-0.7,0.3-1.3,0.5-2,0.4c-0.3,0-0.6-0.1-0.7-0.5c-0.1-0.8,0-1.9,0.2-2.5
			c-0.6,0-1-0.1-1.7,0c0.4,0.7,0.4,2,0.4,2.4c0,0.3-0.3,0.7-0.5,0.7c-0.7,0-1.4-0.2-2-0.4l0,1.7C53.5,6.4,54.5,6.2,55.1,6.3"/>
		<path class="st0" d="M84.7,33.1c-0.5,0-0.9,0.4-0.9,0.9c0,0.5,0.4,0.9,0.9,0.9c0.5,0,0.9-0.4,0.9-0.9
			C85.6,33.5,85.2,33.1,84.7,33.1z M84.7,34.5c-0.3,0-0.5-0.2-0.5-0.5c0-0.3,0.2-0.5,0.5-0.5c0.3,0,0.5,0.2,0.5,0.5
			C85.3,34.2,85,34.5,84.7,34.5z"/>
		<path class="st0" d="M48.2,8.5c0.1-0.3,0.2-0.5,0.4-1c0.5,0.3,1.9,0.8,1.3,1.9c-0.3,0.5-1.1,0.1-1.5,0C48.1,9.1,48.1,8.8,48.2,8.5
			 M47.7,4.3C48,3.9,48.9,4,49.4,4.5c0.2,0.2,0.1,0.4,0,0.6L48.9,6C47.5,5.2,47.3,4.9,47.7,4.3 M41.3,5.6c0.5-0.1,0.8-0.4,0.9,0.1
			c0.5,1.5,0.8,2.5,1.2,4.2c0.2,0.8-0.4,0.7-0.7,0.8c-0.4,0.2-0.2,0.9,0.2,0.8c1.3-0.4,2.3-0.6,3.7-0.9c0.4-0.1,0.6-0.3,0.8-0.6
			c0.2-0.2,0.5,0,0.9,0.1c0.5,0.2,2.7,0.7,3.3-1C52,8,50.8,7,49.6,6.4c0.5-0.9,1.4-2.5,1.9-3.1c0.2-0.2-0.3-0.7-0.6-0.4
			c-0.1,0.1-0.4,0.4-0.5,0.6c-0.2,0.2-0.4,0.4-0.9,0.1c-0.9-0.6-2.9-0.5-3.4,0.9c-0.3,0.9,0.2,1.8,1.6,2.6c0.2,0.1,0.2,0.3,0.1,0.5
			c-0.4,0.9-0.7,1.3-1.2,2.2c-0.1,0.2-1.4,0.7-1.7-0.3c-0.5-1.6-0.7-2.2-1.1-3.9c-0.2-0.6,0.8-0.6,1.2-0.7c0.4-0.1,0.3-0.8-0.1-0.8
			c-1.3,0.3-2.4,0.5-3.7,1C40.7,5,40.9,5.7,41.3,5.6"/>
		<path class="st0" d="M66.4,8.8c0.1-0.1,0.3-0.4,0.5-0.5c0.3-0.2,0.6-0.5,0.8-0.2c0.4,0.4,1.4,1.2,0.6,2c-0.6,0.5-1.3,0.1-1.7-0.4
			C66.2,9.3,66.1,9.1,66.4,8.8 M67.8,4.8c0.4-0.3,0.9-0.2,1.2,0.1c0.2,0.2,0.1,0.1,0.3,0.2c0.3,0.2,0.3,0.6,0.2,0.8
			c-0.2,0.2-0.3,0.3-0.5,0.4c-0.2,0.1-0.5,0.5-0.8,0.2l-0.4-0.3C67.5,5.8,67.5,5.1,67.8,4.8 M64.7,10.4c0.3-0.2,0.6-0.6,1.2,0
			c1.7,1.4,3.2,0.7,3.8-0.1c0.5-0.7,0.3-1.8-0.9-3l2.9-2.4c0.3-0.2-0.1-0.7-0.4-0.5c-0.5,0.3-1,0.4-1.3,0.2c-3-2.6-5.2,0.4-3.4,2.7
			l-2.4,2.6C64,10.1,64.5,10.6,64.7,10.4"/>
		<path class="st0" d="M36.5,7.4c0.1-0.7,2.4-0.8,2.3,0c0,0.4-0.2,0.8-0.2,1C38,8.3,36.4,8.5,36.5,7.4 M39.9,11.1
			c-0.1,1.1-1.7,0.7-1.9,0.7c-0.1,0-0.2-0.1-0.2-0.4c0-0.3,0.2-1.4,0.2-1.4C38.9,10.1,40,10.2,39.9,11.1 M37,9.9
			c-0.1,1.1-0.5,2.5-0.7,3.6C36.2,14,36.9,14,37,13.7c0.1-0.4,0.3-0.7,0.4-1c1.6,0.4,3.7,0.2,4-1.9c0.2-1.8-1.4-2.1-2-2.3
			c0.1-1,0.4-2.5,0.7-3.5c0.1-0.3-0.5-0.5-0.7-0.1c-0.1,0.2-0.2,0.5-0.4,0.9c-2.8-0.3-4,0.6-4.2,1.7C34.8,8.7,35.4,9.5,37,9.9"/>
		<path class="st0" d="M70.8,10.9c-0.4,0-0.5,0.5-0.2,0.6c1.3,0.4,2.2,0.7,3.5,1.2c0.3,0.1,0.5-0.5,0.2-0.6c-0.4-0.2-1-0.6-0.8-1.4
			C74,9.3,74.3,8.4,74.8,7c0.2-0.5,0.7-0.2,1.1-0.2c0.3,0.1,0.5-0.5,0.2-0.6c-0.7-0.3-2.7-0.9-3.4-1.1c-0.3-0.1-0.6,0.4-0.2,0.6
			c0.2,0.2,1,0.2,0.8,0.9c-0.4,1.5-0.7,2.6-1.3,4C71.9,11.1,71.2,10.9,70.8,10.9"/>
		<path class="st0" d="M77,14.3c0.6,0.3,1.7,0.6,2.7,0.1c0.9-0.4,2.1-2.5,0.7-3.2c-0.4-0.2-1.2-0.6-1.8-0.8
			c-0.4-0.2-0.6,0.5-0.3,0.6c2,0.8,0.8,3-0.8,2.4c-0.3-0.1-0.6-0.4-0.6-0.9c0.2-0.8,1-3.1,1.6-3.7c1.1-0.9,2.4,0,2.6,0.8
			c0.1,0.4,0,0.4-0.3,0.7c-0.2,0.2,0,0.7,0.3,0.5c0.9-0.5,1.5-0.8,2.4-1.2c0.2-0.1,0-0.7-0.3-0.6c-0.4,0.1-1.2,0.4-1.6-0.3
			c-0.9-1.8-3.8-2.7-5.5,0.8C74.8,12.6,76.3,13.9,77,14.3"/>
		<path class="st0" d="M22.7,15.2c1.3-1,1.9,0.1,2.1,0.3c0.2,0.3,0.3,0.4,0,0.6c-0.3,0.3-0.6,0.5-0.9,0.8c-0.3,0.2-0.6,0.5-0.8,0.3
			C22.8,16.9,21.9,15.8,22.7,15.2 M25.8,16.8c0.4,0.4,0.6,0.7,0.9,1.1c0.2,0.2,0.2,0.5,0.1,0.7c-0.1,0.2-0.9,2-2.6-0.1
			c-0.2-0.2-0.2-0.4,0-0.6c0.3-0.3,0.7-0.7,1-1C25.5,16.6,25.7,16.6,25.8,16.8 M23.4,20.1c0.8,0.6,1.7,1,2.6,0.5
			c0.8-0.4,1.6-1.4,1.9-2.1c0,0,0.7-0.1,1.2-0.4c0.4-0.2,2.6-1.7,4-2.5c0.3-0.2,0-0.7-0.3-0.6c-0.4,0.1-0.8,0.4-1.1,0.1
			c-0.3-0.3-1.6-2.5-2.4-4c-0.2-0.3,0.3-0.5,0.8-0.8c0.4-0.3,1.1-0.4,1.4,0c1,2.1,2,4.2,2.5,4.4c0.5,0.2,1.3-0.1,1.6-0.7
			c0.3-0.5-0.2-0.8-0.5-0.6s-0.5,0.2-0.8-0.1c-0.6-0.9,0-2.3-0.3-3.2c-0.2-0.5-2.2-1.5-2.6-1.4c-0.6,0.1-2.7,1.3-4.7,2.8
			c-0.3,0.2,0,0.7,0.3,0.6c0.3-0.1,0.8-0.5,1-0.1l2.4,3.8c0.2,0.5-0.4,0.9-0.9,1.2c-1.2,0.8-1.9-0.4-2.7-1.4
			c-1.1-1.4-1.1-2.4-0.9-2.8c0.2-0.3,0-0.6-0.3-0.5c-0.4,0.1-0.8,0.6-0.9,1.1c-0.1,0.3-0.2,0.4-0.6,0.4c-1.3,0.4-2.7,0.8-2.8,2
			C21.1,17.5,22,19,23.4,20.1"/>
		<path class="st0" d="M84.4,11.8c-0.7,1.4-1.1,2.2-1.9,3.5c-0.4,0.5-0.8,0.2-1.5-0.1c-0.3-0.1-0.6,0.4-0.3,0.6
			c0.6,0.4,2.1,1.4,3.2,2.1c0.3,0.2,0.6-0.2,0.4-0.6c-0.2-0.2-0.8-0.4-0.5-1.2c0.8-1.5,1.2-2.3,2-3.5c0.3-0.5,1-0.2,1.2-0.1
			c0.4,0.1,0.6-0.4,0.3-0.6c-1.1-0.5-2.1-1.2-3.1-1.9c-0.4-0.3-0.8,0.2-0.5,0.5C84.2,11.1,84.6,11.3,84.4,11.8"/>
		<path class="st0" d="M88.4,14.6c-1,1.5-1.4,2-2.6,3.6c-0.3,0.3-0.6-0.1-0.8-0.1c-0.3-0.1-0.6,0.4-0.3,0.6c0.5,0.3,3,2.2,4.2,3.5
			c0.2,0.3,0.7,0,0.5-0.4c-0.2-0.3-0.6-0.8,0-1.3c1.1-1.1,1.9-1.6,3.2-2.3c0.5-0.3,0.7,0,1-0.1c0.3,0,0.3-0.5,0.1-0.6
			c-1.5-1-4.1,1.2-5.7,2.1c-0.5,0.3-1.1-0.2-0.7-0.6c0.9-1.2,1.5-2.1,2.5-3.3c0.4-0.5,0.8-0.1,1.1,0c0.2,0.1,0.6-0.3,0.4-0.5
			c-1-0.8-1.5-1.2-2.5-2.1c-0.4-0.3-0.7,0.2-0.5,0.5C88.2,13.7,88.9,13.9,88.4,14.6"/>
		<path class="st0" d="M22,24.9c1-1,1.6-2.5,0.5-3.8c-1.1-1.3-2.8-0.4-3.3,0.6c-0.3,0.5,0,0.9,0.3,0.7c0.7-0.4,1.1-0.6,1.7,0.2
			c0.6,0.8,0.8,1.2,0.3,1.7c-0.5,0.5-1.2,0.4-1.8,0.1c-0.8-0.4-1.9-1.2-2.6-2.4c-0.4-0.6-0.2-1.5,0.3-1.9c1.6-1.3,1.8,0.1,3.4-0.1
			c0.4,0,0.5-0.5,0.3-0.6c-1.2-0.7-1.5-1.2-1.7-2.2c-0.1-0.5-0.6-0.2-0.7,0.1c-0.1,0.4,0.1,0.8-0.3,1.1c-1.1,0.7-1.6,0.9-2.2,1.7
			c-1,1.1-0.5,2.9,0.9,4.4C18.5,26,20.3,26.6,22,24.9"/>
		<path class="st0" d="M94.2,19.6c-1,1.2-1.6,1.8-3,3c-0.3,0.2-0.5,0.1-0.6,0c-0.3-0.2-0.7,0.2-0.4,0.5c1.2,1.4,2.7,3,3.7,4.2
			c0.2,0.3,0.7-0.1,0.5-0.4c-0.2-0.6-0.6-0.7,0-1.3c0.8-0.8,1.8-1.3,3.1-2.1c0.9-0.4,1.3,0.8,1,1.5c-1,1.9-1.7,2.9-2.6,4.8
			c-0.1,0.2,0.1,0.4,0.3,0.4c3,0.2,5.5-0.6,6.4-0.1c0.4,0.4,0.9,0,0.7-0.3c-0.6-1.1-0.8-1.3-1.5-2.5c-0.2-0.4-0.7-0.1-0.6,0.2
			c0,0.4,0.2,0.5-0.2,0.7c-1.2,0.7-2.1,0.9-3.6,1.1c-0.3,0.1-0.4,0-0.2-0.3c0.9-1.1,1.7-2.1,2.7-2.8c0.2-0.2,0.4-0.1,0.6,0.1
			c0.2,0.2,0.7-0.2,0.5-0.4c-0.8-1.2-1.2-1.8-2-2.9c-0.9-1.3-4,0.6-5.6,1.2c-0.6,0.3-1.2-0.2-0.6-0.8c1.1-1.1,1.5-1.6,2.7-2.7
			c0.5-0.4,0.8,0.1,1,0.2c0.4,0.3,0.8-0.3,0.5-0.5c0,0-1.8-1.7-2-2c-0.2-0.3-0.7,0-0.6,0.4C94.2,19.1,94.5,19.2,94.2,19.6"/>
		<path class="st0" d="M12.5,26.8c0.2-0.3,0.6-0.7,0.8-0.5c0.2,0.2,1.2,0.8,1.4,1c0.3,0.2-0.1,0.6-0.3,0.8c0,0-0.5,0.7-0.6,0.9
			s-0.3,0.3-0.5,0.2c-0.4-0.4-0.6-0.6-0.9-1.1C12.2,27.6,12.2,27.3,12.5,26.8 M10.5,29.9c0.4-0.7,0.5-1,0.8-1.4
			c0.2-0.3,0.3,0.1,0.3,0.1c0,0.2,0,1.5,0.5,2c0.7,0.7,2,0.2,2.5,0.7c0.3,0.4,0.5,0.8,0.4,1.1c-0.3,0.9,0.9,1.3,1.2,0.3
			c0.3-1.3-0.8-1.7-1.4-2.7c-0.2-0.2-0.1-0.3,0.1-0.6c0.1-0.2,0.9-1.3,1.1-1.6c0.6,0.4,0.6,0.3,1,0.7c0.5,0.6-0.3,1.3-0.4,1.8
			c-0.1,0.4,0.5,0.8,0.7,0.5c0.8-1.4,1.9-2.9,2.6-3.8c0.3-0.4-0.3-0.8-0.6-0.5c-0.4,0.3-0.8,1-1.4,0.7c-1.3-0.9-2.1-1.4-3.4-2.4
			c-0.4-0.3,0.2-1,0.5-1.6c0.1-0.3-0.4-0.7-0.6-0.4c-1.6,2.1-3.1,4.3-4.3,6.5C9.5,29.9,10.2,30.4,10.5,29.9"/>
		<path class="st0" d="M8,34.6c0.3-0.5,0.6-1.3,1.3-1c1.1,0.5,0.3,2,0.1,2.5c0,0-1.2-0.4-1.4-0.5C7.7,35.5,7.9,34.9,8,34.6
			 M6.4,37.5c0.2-0.3,0.3-0.6,0.8-0.5c1.7,0.5,4,1.5,4,1.5c0.7,0.3,0.6,0.5,0.3,1.6c-0.1,0.4,0.6,0.6,0.7,0.3
			c0.5-1.4,1.5-3.7,1.5-3.7c0.1-0.3-0.5-0.6-0.7-0.3c-0.2,0.3-0.4,0.9-0.9,0.8l-1.9-0.8c0.8-2.4,2.4-0.5,3.7-0.9
			c0.7-0.2,1.1-0.9,0.9-1.8c-0.1-0.5-0.7-0.4-0.7-0.1c0,0.4-0.3,0.5-0.6,0.5c-0.4,0-0.9-0.6-1.4-0.7c-0.4-0.2-0.9,0-1.1,0.3
			c-0.1,0.3-0.4,0.2-0.3,0c0.1-0.9-0.2-1.6-0.9-1.9c-0.5-0.2-1.5-0.1-2.1,1.1c0,0-1.3,2.8-2,4.3C5.6,37.5,6.2,37.8,6.4,37.5"/>
		<path class="st0" d="M101.4,30.6c-1,0.3-1.7,2.4-2.5,2.5c-0.6,0.1-0.5-1.3-1.2-0.8c-0.6,0.6,0.4,2.3,1.9,1.5
			c1.4-0.7,1.9-0.9,3.3-1.6c0.3-0.1,0.8-0.4,1,0c0.2,0.5-0.3,0.8-0.7,1c-0.9,0.5-1.8,0.9-2.7,1.3c-0.3,0.1-0.5,0.4-0.8,0.1
			c-0.2-0.1-0.5,0.2-0.4,0.3c0.2,0.4,0.4,0.8,0.5,1.1c0.1,0.2,0.5,0.1,0.5-0.1c0-0.2,0.1-0.2,0.4-0.3c1.4-0.8,1.7-1,3.2-1.6
			c0.8-0.3,1.6,0.3,0.6,0.8c-1.5,0.7-2.1,1-3.7,1.7c-1.1,0.5-0.4,2.3,0.1,2.1c0.7-0.2,0-1.2,0.6-1.5c0.4-0.2,2.6,0,3.1-0.1
			c0.6-0.2,1.5-2.5,1.4-2.9c-0.1-0.3-1.1-1-1.2-1.2c-0.1-0.2,0-1.4-0.2-1.6C104.6,31,102.3,30.3,101.4,30.6"/>
		<path class="st0" d="M5.3,41.3c0.3-1,0.4-1.4,1.6-1.1c1.2,0.3,1,1.2,0.9,1.8c-0.1,0.3-0.2,0.6-0.4,0.5c-0.9-0.2-1.2-0.3-2-0.6
			C5.2,41.9,5.2,41.6,5.3,41.3 M4.5,44.1c0.1-0.4,0.4-0.8,0.7-0.7c1.8,0.5,2.4,0.7,4.1,1.2c0.6,0.1,0.3,1,0.2,1.6
			c-0.1,0.3,0.6,0.6,0.7,0.2c0.1-0.5,0.8-3.3,1.3-4.4c0.2-0.4-0.5-0.6-0.7-0.2c-0.3,0.6-0.5,1.6-1.2,1.4C9.2,43,9.1,43,8.5,42.8
			c0.2-1.3,1.2-3.6-1.1-4.1c-1.1-0.2-1.9,0-2.3,0.7c-0.7,1.5-1,3.3-1.3,4.6C3.7,44.3,4.4,44.4,4.5,44.1"/>
		<path class="st0" d="M105.4,38.7c-0.4,0.2-0.6,0.7-0.4,1.1c0.2,0.4,0.7,0.5,1,0.4c0.3-0.1,0.7-0.5,0.5-1
			C106.3,38.8,105.8,38.6,105.4,38.7"/>
		<path class="st0" d="M102.6,39.9c-0.4,0.2-0.5,0.7-0.3,1.2c0.3,0.5,0.8,0.4,1.1,0.3c0.3-0.2,0.6-0.6,0.3-1.1
			C103.4,39.7,102.9,39.8,102.6,39.9"/>
		<path class="st0" d="M110.2,55.9c0,0.4-0.1,1.2-0.7,1.2c0,0-3.3,0.1-4,0.1c-0.4,0-0.7-0.3-0.7-0.7c-0.1-1.2,0.2-2,0.8-2
			c1.3-0.2,1.8,0.8,2.6,0.8c0.6,0,2.7-1.1,2.7-2.3c-0.2-2.4-0.4-5-1-7.2c-0.1-0.3-0.2-0.4-0.6-0.3c-1.5,0.3-2.6,0.3-4.2,0.1
			c-0.6,0-0.5-0.2-0.2-0.4c1.3-0.9,2.1-1.4,3.2-1.8c1.2-0.4,1.2,0,1-0.8c-0.3-1.1-0.4-1.4-0.6-2.1c-0.2-0.4-0.7-0.2-0.7,0.1
			c0.1,1.6-2.7,3.1-4.4,4.8c-0.3,0.3-0.1,0.5,0.2,0.6c2.3,0.8,3.3,0.4,5.5,1.5c0.4,0.2,0.5,0.5,0.6,1.2c0,0.4,0.3,0.7-0.4,0.7
			c-1.4,0.1-2.4,0.2-4.1,0.3c-0.6,0-0.7-0.8-0.9-1.7c-0.1-0.4-0.7-0.2-0.7,0.1c0,0.3,0.5,4.7,0.5,4.7c0,0.4,0.6,0.3,0.7,0
			c0.1-0.5-0.2-1.4,0.5-1.5c1.5-0.2,2.4-0.3,4-0.3c0.7,0,0.6,0.2,0.7,0.7c0,0.2,0,0.3,0,0.5c0,0.5-0.3,0.9-0.7,0.9
			c-0.5,0-3.4,0.2-3.4,0.2c-2.8,0.3-1.3,2.7-1.9,7.1c-0.1,0.6,0.7,0.5,0.8,0c0.1-0.6,0.2-1.7,0.9-1.7c0.4-0.1,3.4-0.1,4-0.1
			c0.5,0,0.5,0.5,0.5,0.9c0,0.2,0,0.5,0,0.9c-0.1,0.3-0.1,0.5-0.4,0.7c-1.9,0.6-5.7,1.6-5.8,2.2c-0.1,0.6,3.2,2.4,4.7,4
			c0.4,0.4,0.4,0.9,0.5,1.2c0.1,0.3,0.6,0.4,0.7-0.1c0.4-1.4,0.6-2.8,0.6-3.2c0-0.4-0.6-0.4-0.7-0.1c-0.1,0.3,0,0.6-0.6,0.4
			c-0.8-0.3-3.4-1.4-3.9-1.8c-0.3-0.2-0.3-0.3,0.1-0.4c1.7-0.2,4.3-0.3,4.9-0.1c0.2,0.1,0.4,0.5,0.5-0.5c0.4-2.6,0.4-6.2,0.4-6.7
			C110.9,55.4,110.2,55.5,110.2,55.9"/>
		<path class="st0" d="M4.8,46.5c-0.2,0.4-0.2,0.9,0.1,1.2c0.3,0.3,1,0.2,1.3-0.1c0.3-0.3,0.2-1.1-0.2-1.3C5.4,46,4.9,46.2,4.8,46.5
			"/>
		<path class="st0" d="M3.3,52.7c0-0.4,0.1-1.2,0.2-1.5C4,51.5,4.1,52.5,5,52.6c0.7,0.1,1.7-0.8,2.6-0.8c0.9,0.1,1,0.9,1.1,1.5
			c0,0.3,0.5,0.2,0.6,0c0.2-0.6,0.3-1.7-0.5-2.2c-1-0.6-1.8-0.3-3.5-0.4c-1.2-0.1-1.7-0.9-1.7-1.9c0-0.4-0.6-0.4-0.7-0.1
			c-0.1,0.3-0.4,3.1-0.4,4C2.6,53,3.3,53,3.3,52.7"/>
		<path class="st0" d="M7.6,47C7.2,47.2,7,47.6,7.2,48c0.2,0.4,0.6,0.6,1.2,0.4c0.4-0.2,0.5-0.7,0.3-1.1C8.5,47,8.1,46.8,7.6,47"/>
		<path class="st0" d="M3.3,57.8c0.1-0.6,0-0.9,0.5-1c1.6-0.1,2.4-0.1,4.1,0c0.4,0,0.3,0.7,0.5,1.2c0.1,0.3,0.7,0.4,0.7-0.1
			c0-0.8,0-2.8,0.1-3.5c0-0.5-0.7-0.5-0.8,0c-0.1,0.3,0.1,0.9-0.6,0.9c-1.2,0-2.9-0.1-4-0.2c-0.6,0-0.3-0.8-0.5-1.2
			c-0.1-0.4-0.7-0.4-0.7,0.1c0,0.7,0.1,2.6,0,3.7C2.6,58.2,3.2,58.1,3.3,57.8"/>
		<path class="st0" d="M3.7,62.6c-0.1-0.5-0.1-0.9-0.1-1.3c0-0.3,0.1-0.7,0.5-0.7c1.4-0.2,2.3-0.2,3.7-0.2c0.4,0,0.7,0.5,0.8,0.8
			c0,0.3,0.1,0.6,0.1,1.1C7,62.4,5.3,62.6,3.7,62.6 M5.5,72.9c0.4-1.9,3.2-2.9,5-4.7c0.1-0.1,0.1-0.4-0.1-0.5
			c-2.3-0.8-4.4-0.9-5.5-1.4C4,65.9,4,65.4,4,64.8c0-0.2,0-0.6,0.3-0.7c1.4-0.2,2.7-0.2,4.1-0.3c0.7,0,0.6,0.3,0.8,1.2
			c0.1,0.4,0.7,0.3,0.7-0.1c-0.3-2.7-0.2-3.9-0.8-5c-0.9-1.6-6-1.7-6.3,0.6c-0.2,1.3,0.3,4.5,0.9,7.9c0,0.3,0.6,0.3,0.7-0.1
			c0.1-0.7,0.5-0.6,0.6-0.6c0.9,0,2.6,0,3.8,0.2c0.4,0,0.5,0.1,0.1,0.3c-1.4,0.8-2.2,1.4-3.7,1.8C5,70.3,4.9,70.3,4.7,70
			c-0.2-0.2-0.7,0.1-0.6,0.4c0.4,1.2,0.5,1.4,0.7,2.6C4.9,73.2,5.4,73.3,5.5,72.9"/>
		<path class="st0" d="M9.7,78.1C9.2,78,9.1,78,8.5,77.9c-0.3,0-0.5,0-0.7-0.5c-0.2-0.5,0.2-0.6,0.5-0.8c0.7-0.4,2.3-1,3.1-1.3
			c0.7-0.3,0.8,0.4,1.5,1.3c0.2,0.3,0.9,0,0.7-0.4c-0.9-1.5-1.4-2.8-2.1-4.4c-0.2-0.5-0.8-0.1-0.7,0.3c0.3,1.3,0.7,1.7,0.1,1.9
			c-1.3,0.4-2.8,1.2-3.2,1.4c-0.3,0.1-0.7,0.3-0.9-0.1c-0.2-0.5,0-0.6,0.2-0.8c0.3-0.4,0.8-0.8,1-1c0.2-0.2-0.1-0.6-0.4-0.5
			c-0.5,0.2-1.3,0.5-2.2,1c0.7,2,1.5,3.5,2.3,5.5c1-0.2,1.4-0.3,2.3-0.6C10.2,78.7,10.2,78.1,9.7,78.1"/>
		<path class="st0" d="M107.7,72c-0.7,0.1-1.2-0.2-1.8-0.5c0.1-0.5,0.4-1.7,0.6-2.3C107.8,69.7,108.8,70.7,107.7,72 M105,71.3
			c-0.7-0.1-1.3-0.3-2-0.6c-0.4-2,1-2.1,2.5-1.7C105.5,69.6,105.2,70.8,105,71.3 M104,76.5l1.9,0.7C105.2,80.3,102.5,79.1,104,76.5
			 M99.9,82.6c-1,0.6-1.8,0.9-2.1,0.1c-0.2-0.4,0-1.1,0.8-1.4C98.9,81.2,99.4,81.2,99.9,82.6 M102.5,83.9c0.1,0.3-0.3,1.1-1,1.3
			c-0.9,0.3-1.2-0.3-1.5-1C100.7,83.9,102.2,82.8,102.5,83.9 M108.7,69.2c-1.3-1.9-3.9-2.8-5.5-1.7c-1.5,0.8-0.7,3.3-1.2,4
			c-0.6,1-1.2,2.5-1.8,4c-0.2,0.4,0.3,0.7,0.6,0.3c0.2-0.3,0.4-0.4,0.7-0.3c0.5,0.2,1.1,0.4,1.7,0.7c-0.5,1.5-1.2,1.5-2.2,1.1
			c-0.8-0.4-2.7,0.2-2.3,2.5c0.1,0.8-0.3,0.8-0.7,1c-0.4,0.2-2.5,1.1-1.3,3.2c0.6,1,1.5,1.1,2.7,0.6c0.3,0.8,0.7,1.3,1,2.2
			c0.1,0.3-0.1,0.7-0.4,1.1c-0.3,0.3-0.9,1-1.3,0.8l-2.9-2.2c-0.5-0.4,0-0.8,0.3-1.7c0.1-0.4-0.3-0.7-0.6-0.4
			c-1,1.4-1.6,2.1-2.7,3.4c-0.3,0.4,0.2,0.7,0.5,0.5c0.9-0.6,1-1.2,1.7-0.7l2.7,2c0.5,0.4-0.1,1.1-0.3,1.6c-0.2,0.3,0.3,0.9,0.7,0.4
			c1.1-1.3,2.2-2.7,3.2-4c0-0.3-0.1-0.5-0.1-0.8c-0.1-0.6,0.5-0.6,1.1-0.9c0.7-0.3,2.1-1.5,1.4-3.1c-0.5-1.2-2-1-3-0.5
			c-0.5-0.9-1.7-2.7-1-3.3c0.6-0.5,1.7,0.7,2.5,0c0.5-0.4,0.6-0.4,0.6,0.3c0,0.7,0.4,1.3,1,1.5c0.8,0.2,1.7-0.1,2.4-1.4
			c0.5-1,0.9-1.8,1.5-3.8c0.2-0.5-0.3-0.7-0.6-0.2c-0.3,0.4-0.8,0.6-1.2,0.4c-1.5-0.6-1.9-0.7-3.4-1.4c-0.4-0.2-0.5-0.6-0.1-1.4
			c0.3-0.7,0.9-1.2,3.2-0.4c2.3,0.8,1.8,0.9,2.1,1.8c0.2,0.4,0.8,0.4,0.7-0.1C107.9,71.4,110,71.1,108.7,69.2"/>
		<path class="st0" d="M13.9,82.2c-1,0-1.3,0-1.2-0.6c0.1-0.7,0.3-1.2,0.9-1.2c0.6,0,0.9,0.5,1,1.1C14.8,82.3,14.5,82.2,13.9,82.2
			 M10.2,82.6c-0.5,0-0.6-0.9-0.5-1.5c0.1-0.3,0.6-0.5,1.7-0.4C11.3,81.5,11.5,82.7,10.2,82.6 M16.5,82.4c-2-0.1-0.2-3.1-2.7-3.6
			c-1.1-0.2-1.8,0.2-2.2,0.9c-1.2,0.1-2.3-0.1-3.5,0c-0.3,0-0.4,0-0.4,0.3c0,0.3,0.1,0.5,0.4,0.5c1.7,0-0.3,3,2.2,3.8
			c1.4,0.3,2.1-0.6,2.4-1.2c1.5-0.1,2.7,0.1,4,0.1C17.1,83.2,16.9,82.4,16.5,82.4"/>
		<path class="st0" d="M14.7,86c0.4-0.1,0.6-0.6,0.4-1c-0.2-0.6-0.7-0.6-1.2-0.4c-0.4,0.2-0.5,0.7-0.4,1.1
			C13.8,86.1,14.4,86.1,14.7,86"/>
		<path class="st0" d="M19.8,90.1c0.2-1,1.2-0.5,1.4-0.4c0.2,0.1,0.8,0,0.4-0.8c-0.2-0.4-0.8-0.5-1.4-0.2c-1.4,0.7-2.4,2.5-3.1,3
			c-0.5,0.4-0.9,0-1-0.1c-0.3-0.3,0-0.4,0.2-0.5c1.1-1,1.9-1.9,3.1-2.8c0.1-0.1,0.2-0.2,0.3-0.1c0.2,0.1,0.5-0.2,0.3-0.4
			c-0.1-0.1-0.3-0.4-0.5-0.6c-0.3-0.4-0.6-0.1-0.5,0c0.1,0.1,0,0.3-0.2,0.4c-1,1-2,1.8-3.1,2.8c-0.3,0.2-0.3,0.3-0.5,0.1
			c-0.2-0.3-0.2-0.6,0-0.9c1.1-1.1,2.1-1.5,3.2-2.7c0.2-0.2,0.5-0.9-0.1-1.5c-0.7-0.7-1.2,0.4-0.8,0.6c0.2,0.1,0.4,0.3,0.1,0.5
			c-0.9,0.7-2.1,0.3-2.6,0.6c-0.5,0.3-1,1.8-0.8,2.9c0.1,0.6,0.6,1.1,1,1.7c0.5,0.6,0.8,1.1,1.4,1.2c0.8,0.1,2.6-0.1,2.9-0.5
			C19.7,92,19.6,91.3,19.8,90.1"/>
		<path class="st0" d="M30.9,103c-0.1,0.2-0.5,0.1-0.7,0c-0.3-0.2-1.6-0.7-0.9-1.6c0.6-0.7,1.9,0,2.2,0.2
			C31.2,102.3,31.2,102.4,30.9,103 M32.3,103.5l1.6-3.3c0.2-0.3,0.5-0.5,1-0.4c0.3,0.1,0.5-0.4,0.3-0.5c-0.6-0.5-1.6-1.1-2.2-1.4
			c-0.4-0.3-0.8,0.2-0.5,0.5c0.2,0.2,0.4,0.5,0.2,0.9l-0.8,1.6c-2.4-1.3-0.1-2.6-0.7-3.8c-0.4-0.6-1-0.5-2.3-1.6
			c-1-0.7-1.8-1.4-2.3-1.9c-0.3-0.3-0.7,0.3-0.5,0.5c0.3,0.4,1,1,0.6,1.7c-0.5,0.8-0.9,1.4-1.3,2c-0.4,0.7-0.9,1.3-1.7,0.5
			c-0.6-0.5-0.5-0.6-0.3-1.5c0.3-1.2,0.8-2.6,1.2-4.8c0-0.2-0.3-0.4-0.5-0.4c-1.9,0.7-3.5,1.2-4.2,1.5c-0.6,0.3-1.4,0.5-2,0.2
			c-0.3-0.1-0.8,0.3-0.5,0.6c0.7,0.8,1.3,1.3,1.8,1.8c0.2,0.2,0.6-0.1,0.5-0.3c-0.1-0.3,0.1-0.5,0.3-0.6c0.9-0.9,1.7-1.3,3.2-2.1
			c0.3-0.1,0.4-0.1,0.2,0.2c-0.5,1.6-1.2,3-2.5,4.2c1.5,1.5,4.3,3.6,4.9,4c0.3,0.2,0.7-0.3,0.5-0.6c-0.3-0.4-0.7-0.7-0.4-1.2
			l1.7-2.7c0.4-0.5,0.9-0.3,1.4,0.1c1.7,1.3-1.1,1.6,0.2,3.1c0.3,0.3,0.1,0.4-0.2,0.2c-0.4-0.2-1.1-0.2-1.5,0.4
			c-1.5,2,4,4.3,4.6,4.6c0.3,0.1,0.5-0.5,0.3-0.6C32.3,104.1,32.1,104,32.3,103.5"/>
		<path class="st0" d="M95,90.9c0.1,0.4,0.2,0.5,0.5,1.3c0.2,0.5,0.3,0.6-0.1,1c-0.4,0.4-0.6,0.3-1.2-0.2c-1-0.9-1.3-1.2-2.2-2.2
			c-0.3-0.3,0.3-0.9,0.6-1.3c0.2-0.3-0.1-0.8-0.5-0.5c-1.1,1-1.9,1.7-3.1,2.6c-0.3,0.2,0,0.7,0.4,0.5c1.1-0.3,1.2-0.7,1.5-0.3
			c0,0,1.9,1.9,2.1,2.1c0.5,0.5,0.7,0.7,0.4,1c-0.4,0.3-0.6,0.1-1.1,0c-0.4-0.1-0.5-0.1-1.3-0.3c-0.2,0-0.5,0.4-0.2,0.6
			c1,0.6,1.1,0.8,2.2,1.3c1.6-1.2,2.5-2.3,4-3.6c-0.6-0.9-1.3-2-1.5-2.2C95.2,90.4,94.9,90.5,95,90.9"/>
		<path class="st0" d="M88.4,99.1c-0.2,0.5-0.8,0.9-1.1,0.4c-0.3-0.4-0.6-0.9-1.1-1.7l1.8-1.7C88.5,97,89,97.7,88.4,99.1 M91.7,96.8
			c-0.7,0.4-1.1,0.9-1.7,1.2c-0.1-0.7,0.5-1.5,0.1-2c-0.3-0.5-2.6-1-1.8-2.8c0.3-0.5-0.1-0.9-0.6-0.4c-1,0.7-0.4,1.6-0.1,2.6
			c-0.4,0.4-1.1,1.2-1.7,1.8c-0.4-0.7-0.9-1.3-1.3-2c-0.5,0.3-1.8,1.2-2,1.4c-0.4,0.2-0.1,0.7,0.3,0.5c0.5-0.2,0.8-0.5,1.1-0.1
			c1,1.4,1.4,2.2,2.2,3.6c0.2,0.3,0.1,0.5-0.2,0.8c-0.3,0.2,0.2,0.8,0.5,0.6c0.3-0.2,5.8-4.5,5.8-4.5C92.5,97.1,92,96.6,91.7,96.8"
			/>
		<path class="st0" d="M35.9,105.5c-0.7-0.3-0.4-0.9,0.2-2c0.1-0.1,0.4-0.2,0.7-0.1l1.3,0.4C37.8,104.4,37.2,106.1,35.9,105.5
			 M47,103.4c-1.7-0.4-2.7-0.7-4.3-1.3c-0.4-0.2-0.7,0.4-0.5,0.6c0.3,0.2,0.3,0.4,0.2,0.6c-0.6,1.4-0.9,2-2.1,3.2
			c-0.5,0.6-1.5,0.1-2.2-0.1c-0.2-0.1-0.2-0.2,0-0.3c0.4-0.2,0.9-0.1,1.4-0.8c0.5-0.7,0-2.1,0.6-2.7c0.4-0.5,1.3,0.1,1.5-0.5
			c0.1-0.5-0.4-0.6-0.6-0.7c-1.3-0.4-1.9,1.2-2.3,1.8c-0.5-0.2-1.3-0.5-1.3-0.5c-0.4-0.1-0.6-0.2-0.3-0.7c0.3-0.5,0.6-1.1,0.7-1.6
			c-0.7-0.3-1-0.5-1.6-0.8c-0.4-0.2-0.6,0.2-0.4,0.4c0.3,0.4,0.3,0.7,0.2,1.1c-0.5,1.2-1.4,2.9-1.7,3.4c-0.2,0.4-0.3,0.3-0.7,0.3
			c-0.3,0-0.4,0.5-0.2,0.6c2,1.1,5.1,2.1,6.1,2.4c1.4,0.4,3.3-1.8,4.5-3.8c0.2-0.3,0.9-0.1,0.8,0.2c-0.3,1.5-0.4,2.1-0.7,3.6
			c-0.1,0.6-0.5,0.5-1.1,0.4c-0.3-0.1-0.5,0.6-0.2,0.7c1.3,0.4,2.2,0.6,3.6,0.8c0.3,0,0.5-0.6,0.1-0.7c-0.8-0.3-1.1-0.3-1-1
			c0.1-0.6,0.7-3.3,0.7-3.3c0.1-0.6,0.5-0.4,0.8-0.4C47.2,104.1,47.4,103.6,47,103.4"/>
		<path class="st0" d="M71.6,104.3c-0.1,0.6-0.3,0.9-0.6,0.7c-1-0.5-1.5-0.8-1.2-1.6C70.1,102.7,71.9,103.2,71.6,104.3 M71.5,107.9
			c-0.2,0.6-0.7,0.5-1.2,0.4c-0.7-0.1-0.7-0.2-0.5-0.9c0.3-0.9,0.4-1.1,0.9-0.9C71.3,106.9,71.8,107.2,71.5,107.9 M78.5,105.5
			c-0.9,0.2-1,0.6-1.3-0.1c-0.8-1.5-0.7-1.3-1.3-2.9c-0.4-1.2,0.3-1.2,0.8-1.6c0.4-0.2,0.1-1-0.4-0.7c-0.8,0.5-2.2,0.9-3.1,1.4
			c-0.5,0.2-0.8,0.3-1,0.8c-0.2,0.6-0.5,0.5-1.5,0c-0.8-0.4-2.3-0.1-2.7,1c-0.4,1.1,0.2,1.9,1.5,2.6c-0.3,1.1-0.9,2.6-1.2,3.7
			c-0.1,0.4,0.4,0.6,0.6,0.2c0.4-0.9,0.5-0.9,1.5-0.7c0.9,0.2,2.3,0,2.8-1.3c0.3-1-0.4-1.5-1.1-2.1c0.2-0.9,0.6-1.8,0.9-2.7
			c0.2-0.7,1.1-1.1,1.4-0.4c0.6,1.3,0.8,1.9,1.3,3.1c0.4,1-0.5,1-0.8,1.3c-0.4,0.3-0.1,0.9,0.4,0.7c1.4-0.6,3.1-1.4,3.6-1.6
			C79.2,106.1,79,105.3,78.5,105.5"/>
		<path class="st0" d="M50.9,109.3c-0.1,0.5-0.4,0.6-1.1,0.6c-0.5,0-0.9-0.1-0.9-0.7c-0.1-1.5-0.1-2.4,0.2-3.7
			c0.1-0.6,0.4-0.7,1-0.7c0.7,0.1,0.9,0.3,1,0.8C51.2,107.1,51.2,107.8,50.9,109.3 M50.4,103.9c-2.4-0.2-2.7,1.2-3,3
			c-0.2,1.3-0.3,3.4,2.2,3.8c2.4,0.2,3-1.3,3-3.3C52.7,106,52.8,104.1,50.4,103.9"/>
		<path class="st0" d="M63.4,105.7c-0.3,0.4-0.5,1.1-1,0.8c-0.5-0.3-1.1-0.7-0.7-1.3c0.3-0.7,1.1-0.5,1.5-0.3
			C63.5,105.1,63.7,105.2,63.4,105.7 M63,109.3c-0.2,0.7-1.2,0.6-1.8,0.3c-0.4-0.3,0.2-1.5,0.4-1.8C62.8,108.3,63.2,108.6,63,109.3
			 M64.6,103.7c-0.6,0.6-0.6,0.7-1.6,0.3c-1.1-0.5-2.3-0.2-2.8,0.6c-0.6,1.1-0.3,1.8,0.7,2.6c0,0.7-1.4,2.9-1.6,3.4
			c-0.2,0.5,0.5,0.7,0.7,0.4c0.3-0.5,0.7-1,1.3-0.6c1.3,0.8,2.3,0.6,3.1-0.4c0.7-1.1,0.1-2.3-0.8-2.9c0.5-1.2,0.9-2.1,1.5-3
			C65.5,103.7,64.9,103.4,64.6,103.7"/>
		<path class="st0" d="M55.7,110c-0.4,0-0.6,0-0.6-0.9c0-1.3,0-1.7,0-2.8c0-0.6,0.2-0.8,0.7-0.9c1-0.2,1.5-0.5,1.6,2.2
			C57.5,110.3,56.4,110,55.7,110 M55.7,104.5c-0.6,0.3-0.9,0.5-2.1-0.2c-0.3-0.2-0.7,0.4-0.3,0.6c0.5,0.4,0.7,0.6,0.7,1.2
			c0,1,0.1,1.7,0,2.7c-0.1,0.5-0.3,0.9-1,1.2c-0.4,0.2-0.2,0.7,0.3,0.6c0.9-0.3,1.3-0.2,1.9,0.1c2.8,1.1,3.9-0.4,3.9-3.2
			C59,104.2,57.2,103.9,55.7,104.5"/>
		<path class="st0" d="M66.1,106.5c-0.4,0.2-0.6,0.6-0.4,1.1c0.2,0.3,0.5,0.4,0.9,0.3c0.3-0.1,0.6-0.5,0.5-1
			C67,106.6,66.6,106.4,66.1,106.5"/>
		<path class="st0" d="M85.1,101.5c-0.5-0.3-0.7-0.2-1-0.1c-0.3,0.2-0.6,0.3-0.6,0c-0.3-1.9-1.2-4.4-4-3.1c-2.7,1.3-2.1,4.9,0,4.5
			c1.2-0.2,0.6-0.7,0.1-1c-0.6-0.4-0.8-2.3,0.4-2.7c1.2-0.3,1.7,1.8,1.9,2.7c0.2,0.9,0.2,1.4-0.5,1.9c-0.6,0.4-0.9,0.2-1.7,0.7
			c-0.6,0.3-0.7,0.8-0.1,0.8c0.5,0.1,2.2-0.2,2.8-0.5c1.1-0.6,1.5-2.8,2.8-2.5C85.5,102.4,85.8,101.9,85.1,101.5"/>
		<path class="st0" d="M98.6,58.1c0.9-3.1,1.4-4.7,1.1-12.6c-0.9,0.1-4.4,0.1-5.7,0.2c0,0-2.4-1.8-2.6-1.9c0,0,0-0.2,0-0.2l6.7-4.9
			c2.4,5.6,3.7,11.7,3.7,18c0,1.6,0,2.5-0.1,4L98.6,58.1z M101.2,64.3l-3.5,2.4c-0.2-0.1-0.3-0.1-0.5,0l-2.5-1.9
			c1.7-2.2,2.4-3.2,3.7-6.3l3.2,2.5C101.6,62.1,101.4,63.5,101.2,64.3 M100.2,68.8l-2.3-1.7l0-0.1l3.3-2.3
			C100.8,66.4,100.6,67.3,100.2,68.8 M97.3,76.3l-6-4.6l0-0.1l6-4.2c0,0,0.2,0.1,0.3,0l2.4,1.8C99.6,70.8,98.5,74.1,97.3,76.3
			 M92.9,83.6l-2.5-2l6.7-4.8C95.7,79.5,94.6,81.4,92.9,83.6 M90.1,87l-0.2-5.4l2.8,2.3C91.8,85,91,85.9,90.1,87 M89.8,78.2l-2.9,0
			l-2.2-1.7c0-0.1,0-0.2,0-0.2l6.2-4.3c0.1,0.1,0.3,0,0.3,0l5.8,4.4l-7,5.1L89.8,78.2z M88.5,87.9c0,0,0.1-0.6-0.1-1
			c0.3-0.2,0.5-0.4,0.7-0.7l0,1.1L88.5,87.9z M87.4,89.4c-1,0.4-1.4-0.6-1.6-0.9c-0.4,0.5-1.5,0.6-1.8-0.5c-0.2-1.2,0.4-1.4,0.9-1.8
			c-0.1-0.8-0.2-1.9,0.6-2.5c0.9-0.6,1.3,0.4,1.5,0.9c0.7-0.8,1.9-0.8,2,0.1c0.1,1.2-0.7,1.7-1.2,2.1C87.9,87.3,88.4,89,87.4,89.4
			 M82.9,92.7l-1.1,0c0.9-0.5,1.1-1.3,1-2.1c0.6,0,1.4-0.5,1.5-1.4c0.4,0.3,1.1,0.2,1.4,0c0.2,0.3,0.4,0.5,0.7,0.7
			C86.3,89.9,84.6,91.6,82.9,92.7 M76.6,97.4l-4.6-3.6l10.5,0C80.7,95,78.2,96.4,76.6,97.4 M67.7,100.7l-2.6-2.1c0-0.1,0-0.2,0-0.2
			l6.3-4.6l4.7,3.7C73.1,99,70.9,99.9,67.7,100.7 M60.4,102l4.2-3.1c0.1,0.1,0.2,0,0.3,0l2.4,1.9C65.5,101.3,62.6,101.8,60.4,102
			 M55.7,102.1l-4.3-3.5c0,0,0-0.1,0-0.1l6.7-4.8l6.2,4.8c0,0,0,0.1,0,0.1l-4.6,3.4C58.3,102.1,56.9,102.1,55.7,102.1 M47.5,101.2
			l3.2-2.3c0,0,0.2,0.1,0.4,0l3.9,3.2C52.8,102,49.8,101.6,47.5,101.2 M38.2,98.1l6.5-4.4l5.9,4.8c0,0,0,0.1,0,0.1l-3.5,2.5
			C44.2,100.5,41.3,99.5,38.2,98.1 M31,94l12.6,0l-5.7,3.9C35.5,96.8,33.2,95.6,31,94 M26.7,90c0.6-0.1,0.8-0.3,1-0.9
			c0.5,0.3,0.8,0.3,1.4,0.1c0,0.9,0.3,2.3,1.9,2c-0.1,1.2,0.6,1.7,1,1.8l-1.5,0C29.6,92.5,26.7,90,26.7,90 M25.4,86.9
			c-0.5-0.3-1.8-0.8-1.6-1.9c0.5-1.5,1.7-0.6,2.1-0.4c0.4-1.3,1.2-1.2,1.7-0.8c1,0.7,0.7,1.8,0.6,2.3c0.5,0.3,1.7,0.8,1.2,2
			c-0.7,1.4-1.8,0.5-2,0.4c-0.1,0.4-0.3,1.5-1.8,1C24.7,88.9,25.1,87.2,25.4,86.9 M24.6,88.3l-0.6-0.6l0-1.1c0,0,0.2,0.3,0.7,0.4
			C24.6,87.5,24.6,87.9,24.6,88.3 M27,82.9c-0.8,0-1.2,0.4-1.4,0.9c-0.6-0.3-1.1-0.4-1.5,0l0-4L27,82.9z M20.6,84.3l2.7-1.9l0.1,5.2
			C22.4,86.6,21.4,85.4,20.6,84.3 M16.1,77.3l3.7-2.7c0,0,0.3,0,0.4,0l5.4,3.8l-2.4,0l0,3.6l-2.9,2.1C18.8,82,17.4,79.8,16.1,77.3
			 M13.1,69.7l6.4,4.5l0,0.1l-3.7,2.7C14.9,75,14,72.8,13.1,69.7 M11.4,61.1l3.3-2.2c1.4,2.7,3.1,4.5,4.8,6.2l-6.4,4.5
			C12.5,67.7,11.7,64.3,11.4,61.1 M14.2,40.4l1.4,1.2c0,0,0,0.1,0,0.2l-2,1.4c-0.9,4.3-1.3,9.9,0.9,15.4l-3.2,2.1
			C10.9,55,11.5,47,14.2,40.4 M17.4,33.8l4.4,3.5l0,0.2l-5.5,3.9c-0.1-0.1-0.3-0.1-0.4,0l-1.5-1.2C15.2,37.9,16.2,35.8,17.4,33.8
			 M21.7,27.7l6.4,5.1l0,0.1L22.3,37c0,0-0.2-0.1-0.3,0l-4.4-3.5C18.8,31.5,20.2,29.5,21.7,27.7 M24.4,24.7
			c8.5-8.6,19.8-13.3,32-13.3c1.6,0,4.6,0.2,4.6,0.2c0,0.2,0,0.5,0,0.8c-10.6-0.5-17.5,0.4-27.6,7l-11.5,8
			C22.7,26.5,23.5,25.6,24.4,24.7 M62,3.3l-0.4,6.9L61,6.3L62,3.3z M77.7,16.6l-2,1.3c-1.7-3.1-5-4.2-7.1-4.1
			c-3.4,0.1-6.6,2.5-6.7,6.7c0,2.8,0.9,5.1,3.4,6.6c-0.3,1-0.6,1.7-1.1,2.2c-1,1-2.4,1.7-3.4,2.2c0-0.6,0-1,0.2-1.3
			c0.9-0.9,2.5-2.1,1.5-3.2c0.2-0.4,0.3-0.8-0.1-1c0.4-0.8-0.1-1.3-0.2-1.4c0.3-1-0.4-1.3-0.8-1.2l0-0.8c0.2,0,0.5-0.1,0.5-0.5
			c0-0.3-0.2-0.4-0.4-0.4l0.2-3.9c0.2,0,0.5-0.1,0.5-0.4c0-0.4-0.2-0.5-0.4-0.5l0.2-3.4c0.3,0,0.5-0.1,0.5-0.5
			c0-0.3-0.1-0.5-0.5-0.5c0-0.2,0-0.7,0.1-0.7C67.6,12.4,72.9,14.1,77.7,16.6 M84.5,21l-5,3.6c-0.1,0-0.2,0-0.3,0l-2.7-2
			c0.2-1.6,0.1-3-0.5-4.4c0,0,2.1-1.5,2.1-1.5C80.3,18.1,82.5,19.4,84.5,21 M88.5,24.6c0.4,0.4,0.8,0.8,1.2,1.2L85.3,29
			c-0.1,0-0.2-0.1-0.3,0l-5.3-3.9l0-0.1l5.1-3.7C86.1,22.3,87.3,23.4,88.5,24.6 M94.2,31.5c-0.4,0.3-2.7,2-2.7,2
			c-0.1-0.1-0.2,0-0.3,0l-5.6-4.1l0-0.1l4.4-3.2C91.5,27.8,92.9,29.6,94.2,31.5 M90.7,43.3l-5.9-4.4l0-0.1l6.4-4.6
			c0.1,0.1,0.2,0.1,0.3,0l6,4.4l-6.3,4.6C91.1,43.2,90.8,43.2,90.7,43.3 M88.4,45.8l2.4-1.8c0.1,0,0.2,0.1,0.3,0l2.3,1.7L88.4,45.8z
			 M99.1,49c-0.1-0.6-0.4-0.9-0.8-1.3c-0.8,0.6-1.3,1.8-0.6,2.8c-0.1,0.8-0.4,1.9-2.3,3.6c-0.3-0.6-0.6-2-0.3-2.9
			c1.2-0.6,0.7-2.1,0.1-2.6c-0.5,0.2-0.9,0.7-1,1.4c0-1.1-0.4-2.4-0.8-3.6l5.7-0.1C99.1,46.7,99.2,48.3,99.1,49 M97.9,49.3
			c0-0.5,0.2-0.8,0.4-0.8c0.2,0,0.4,0.4,0.4,0.9c0,0.5-0.3,0.8-0.5,0.8S97.8,49.7,97.9,49.3 M92.2,66.5c-0.5-0.5,0-1.8,0.5-2.5
			c-0.6-0.8-1-1.8-0.7-3c0.5,0.1,0.8,0.8,1.8,0.5c0.4-0.2,0.8-0.4,1.4-0.4c-0.1-0.3-0.2-0.5-0.4-0.8c2.8-1.7,1.5-4.5,0.8-5.6
			c1.2-1,2.3-2,2.7-4.1c0,0,0.5,0,0.7-1C99.1,53.2,99,59.7,92.2,66.5 M84.8,66.6l0-0.2l2.3-1.6c0.7,0.8,2.6,2.5,4.3,3.7
			c1.1-1,3.1-3.4,3.1-3.4l2.5,1.9l0,0.2l-5.9,4.1c-0.1-0.1-0.3-0.1-0.5,0C90.7,71.2,86.8,68.2,84.8,66.6 M84.1,76c0,0-3-2.4-3.2-2.6
			c0.9,0.7,1.9,0,1.9-0.7c0-0.7-1-4.1-1-4.1l2.5-1.7c0.1,0.1,0.2,0.1,0.4,0l6,4.7l0,0.1L84.5,76C84.4,75.9,84.2,75.9,84.1,76
			 M81.9,78.3l2.2-1.6c0.1,0,0.2,0,0.3,0l1.9,1.5L81.9,78.3z M76.6,90.9c0.6,0,1.1-0.3,1.2-0.7c0.2,0.4,0.7,0.7,1.5,0.7
			c0,1,0.3,1.4,1,1.8h-4.5C76.3,92.5,76.8,91.9,76.6,90.9 M73.7,90.4c-1-0.1-1.5-0.2-1.5-1.3c0-1.1,0.9-1.4,1.7-1.4
			c0-0.7,0.1-1.6,1.1-1.6c1.1,0,1.1,1,1.1,1.7c0.7,0,1.6,0.2,1.6,1.2c0,1-0.5,1.2-1.5,1.3c0,0.6,0.2,2-1,1.9
			C73.7,92.2,73.8,91,73.7,90.4 M69.8,92.8c0.6-0.4,1-0.8,0.9-1.8c0.6,0,1-0.2,1.3-0.7c0.3,0.5,0.6,0.7,1.3,0.7
			c0,0.7,0.2,1.3,1.1,1.8L69.8,92.8z M70.9,93.8l-5.9,4.4c-0.1-0.1-0.3-0.1-0.4,0l-5.6-4.3L70.9,93.8z M59.3,91.1
			c0.6-0.1,0.8-0.2,1-0.6c0.3,0.5,0.6,0.6,1.3,0.6c0,1,0.4,1.6,1.2,1.8l-4.6,0C59,92.6,59.3,91.8,59.3,91.1 M56.2,90.6
			c-0.5,0-1.6,0.2-1.6-1.2c-0.1-1.4,1.3-1.4,1.7-1.5c0-0.4-0.1-1.8,1.2-1.7c1.2,0.1,1.1,1.3,1.1,1.9c0.6,0,1.4,0,1.5,1.1
			c0.1,1.3-0.9,1.3-1.4,1.4c0,0.4,0.3,1.9-1,2C56.2,92.5,56.3,91.1,56.2,90.6 M57.1,93.9l-6,4.2c-0.2-0.1-0.4,0-0.4,0l-5.2-4.2
			L57.1,93.9z M43.8,90.6c-0.5,0-1.5-0.1-1.5-1.4c0-1.3,1.3-1.3,1.6-1.4c0-0.3-0.3-1.6,1-1.7c1.4-0.1,1.3,1.4,1.2,1.8
			c0.4,0,1.6-0.1,1.7,1.2c0.1,1.3-1.3,1.3-1.7,1.3c0,0.8,0.1,1.9-1.1,2C43.7,92.6,43.8,91.1,43.8,90.6 M40.8,91
			c0.5,0,0.9-0.1,1.2-0.6c0.3,0.5,0.7,0.8,1.3,0.7c0,1.1,0.4,1.8,1.1,1.9h-4.7C40.4,92.7,40.8,92,40.8,91 M37.7,90.6
			c-0.6-0.1-1.6-0.1-1.6-1.3C36,88,37.5,88,37.9,88c0-0.6-0.1-1.8,1.2-1.8c1.3,0.1,1.1,1.4,1.1,1.8c0.5,0,1.5-0.1,1.6,1.1
			c0.1,1.3-1,1.4-1.7,1.4c0,0.6,0.2,1.9-1.1,2C37.7,92.8,37.7,91.3,37.7,90.6 M34.6,91.2c0.6-0.1,0.9-0.3,1.2-0.7
			c0.4,0.3,0.8,0.6,1.4,0.6c0,0.7,0.1,1.7,1,2l-4.3,0C34.2,92.7,34.6,92.4,34.6,91.2 M31.5,87.9c0-0.7-0.1-1.7,1.2-1.8
			c1.4-0.1,1.2,1.3,1.3,1.8c0.4,0,1.5-0.1,1.5,1.3c0.1,1.2-1,1.4-1.6,1.4c0,0.5,0.2,2-1.2,2c-1.4,0-1.2-1.4-1.3-1.9
			c-0.2,0-1.9,0.5-1.8-1.6C29.7,88.2,30.7,87.8,31.5,87.9 M28.9,84.7l1.3,1.2l1.6,0c-0.8,0.3-0.9,1.1-0.9,1.5
			c-0.2,0-0.5,0.1-0.7,0.2c0-1-0.8-1.6-1.3-1.9C29,85.4,29,85.1,28.9,84.7 M28.2,79.2c-1.5,1.6-0.1,3.2,1.9,4.4
			c1.2,0.8,0.9,1.4,2,1.7l-1.7,0c-2.2-2-6.1-6.1-6.1-6.1L28.2,79.2z M20.4,74.1l6.5-4.7c0,0,0.2,0.1,0.4,0l2.9,2.3
			c-0.6,2.1-1.3,4.3-1.4,6.6l-2.5,0l-5.8-4L20.4,74.1z M19.8,65.4c0.5,0.5,1.3,1.1,1.8,1.4c0.6-0.4,0.9-0.7,1.1-0.8l3.9,3.1l0,0.2
			l-6.4,4.7c0,0-0.3-0.1-0.4,0l-6-4.2L19.8,65.4z M19.6,58.9c0-0.4,0-0.6,0.1-1l-0.5-0.1L20,56c0.7,0.8,1.1,2.2,1,3.3
			c-0.5,0-0.8,0.1-0.8,0.5c0,0.4,0.5,0.4,0.8,0.4c0.1,1.8-1.9,1.1-2.4,0.4c-0.3,1.1,0.9,1.5,1.6,1.4c-0.3,0.7-1,1.9-1,1.9
			c-0.5-0.5-1.8-1.9-2.2-2.5C16.6,58.1,19.1,57.9,19.6,58.9 M17.6,58.3c-0.6,0.4-1.1,1.2-1.4,1.9c-0.2-0.3-0.5-0.8-0.6-1.2
			C16.2,58.6,17,58.4,17.6,58.3 M17.4,58c-0.4,0.1-1.6,0.3-2.1,0.4c-0.2-0.3-0.3-0.6-0.4-1C15.5,57.4,16.6,57.8,17.4,58 M14.1,44.5
			c5.3,0.7,11.1,1.3,16.4,1.7c-0.2,4.6-0.7,8-2.2,11.2c-0.4,0.3-2.9,0.4-4.1,0.4l-0.5-3.1c0.3,0.3,0.7,0.5,1.1,0.6
			c0.4,2,2.4,1.8,2.8,1.6c-0.4-0.8-0.7-1.8-0.7-2.6c0.4,0.4,1.3,0.5,1.8,0.4c-0.2-0.6-0.5-1.7-0.5-2.6c0.3,0.3,0.9,0.4,1.3,0.3
			c-0.2-1.8,0.2-2.8,0.1-4.5c0-0.5-0.4-1.2-1.3-1.2c-0.8,0-1.5,0.5-1.5,1.1c0,0.3,0,0.8,0.2,1.1c-1,0.9-2.6,1.7-3.7,2
			c-0.1-0.1-0.2-0.4-0.2-0.7l0.8,0c-0.1-0.2-0.3-0.5-0.4-0.7c0-1.6,0.1-2.2-1.3-3c-0.2-0.1-0.4,0-0.7,0.2c-0.5-0.6-1.7-1.9-2.5-0.5
			c0.3-0.1,0.5-0.1,0.7-0.1c0.2,1.4,1.2,2.8,1.1,3.1c-0.1,0.3-0.3,0.6-0.7,1c0.2,0,0.8,0,0.8,0c-0.1,0.4-0.1,0.4-0.2,0.7
			c-0.8,0-3.4-0.9-3.9-2.4c0.3-0.4,0.5-0.5,0.5-1.1c0-0.6-0.4-1.4-1.2-1.5c-0.8-0.1-1.4,0.4-1.5,1.2c-0.1,1,0.1,3.1-0.3,4.2
			c0.6,0,1-0.2,1.4-0.5c-0.1,1.3-0.2,2.6-0.9,3.8c0.7,0,1.2,0,1.6-0.1c-0.1,0.6-0.4,1.4-0.9,2c1,0.4,2.3-0.1,2.9-1.3
			c0.7-0.1,1.2-0.3,1.4-0.7c0.1,0.5-0.6,2.8-0.9,3.3c-1.3,0-2.7-0.5-4-1C13.6,53.5,13.1,49.8,14.1,44.5 M19,44.4
			c0,0-3.6-0.5-5.3-0.7l2.2-1.6c0.1,0,0.3,0,0.3,0L19,44.4z M28,42.3l0,0.2l-3.4,2.5c-1.7-0.2-3.7-0.4-4.9-0.5l-3.2-2.6l0-0.1
			l5.5-3.9c0,0,0.2,0.1,0.4,0L28,42.3z M28.3,33.2c0,0,0.1,0.1,0.3,0l2.7,2.1c-0.6,1.1,0.6,2.3,1.7,1.8c0,0,0.2,0.5-0.2,1.8l-4.2,3
			c-0.2-0.1-0.3,0-0.3,0l-5.7-4.5l0-0.1L28.3,33.2z M31.5,25.5c-0.6,2-1,3.3-1.5,5l0.9-0.8c0.4-1.3,0.7-2.3,1.4-3.6l2.4,1.9l0,0.1
			l-6,4.3c-0.2-0.1-0.4,0-0.4,0l-6.1-4.8l6.4-4.4L31.5,25.5z M31.6,25.2L28.9,23l5.1-3.6C33,20.9,32.2,23.6,31.6,25.2 M41.3,18.5
			c-2.9,0.7-5.6,2.4-8.7,6C33.9,20.7,34.8,16.8,41.3,18.5 M45.8,16.4c-0.1,0.2-2.8-0.2-3.3-0.2c-0.6,0-0.8,0.3-0.8,0.6
			c0,0.3,0.4,0.6,0.8,0.5c0.4-0.1,3.1-0.5,3.3-0.4c0.1,0.1-1.7,1-2.1,1.5c-1.8-0.5-3.7-0.9-5.4-1c1.8-1.1,3.7-1.8,5.4-2.4
			C44,15.4,45.9,16.2,45.8,16.4 M46.1,19c-0.5-0.1-1-0.3-1.5-0.5c0.6-0.6,1.7-1.8,1.9-1.6C46.8,17.2,45.6,18.5,46.1,19 M56.4,22.5
			l-1.7,1.2c0,0-0.1-0.1-0.3,0L53.5,23c0.2-0.2,0.1-0.4-0.1-0.4c-1-0.2-1.2-0.1-2.2-0.4c0,0-0.4-0.2-0.3,0.4c0,1.8-0.1,2.7-0.8,4.2
			c-0.2,0.4-0.4,0.4-0.5-0.1c-0.5-1.6-0.7-3.1-0.6-4.8c0,0,0.1-0.4-0.3-0.3c-0.4,0.2-0.8,0.2-1.4,0.4c0.3,0.7,0.4,1.2,0.6,1.8
			c-0.3,1-0.5,1.6-0.9,2.4c-0.2,0.4-0.4,0.4-0.5,0c-1.1-4.3-0.6-4.9-0.2-5.2c0.3-0.2,0.2-0.5-0.1-0.4c-0.5,0.1-2.2-0.2-2.8-0.4
			c-0.3-0.1-0.4,0.2-0.2,0.3c0.5,0.4,0.6,0.6,0.8,1.2l-2.1,1.5c-0.2-0.1-0.4,0-0.4,0l-3.4-2.7c1.9-1.1,4-1.9,6.9-1
			C51.4,21.5,52.8,22,56.4,22.5 M55.6,14.9l-0.4,0.5l-3,0l0,0.4l2.6,0l-0.4,0.5c0,0-0.9,0-2.2,0c-1.7-0.5-3.2-2.2-3.2-2.2l-0.3,0.5
			c0,0,0.9,1.1,2.4,1.8c-1.1,0.1-3.2-0.1-3.2-0.1c-1.4-0.2-1.5-1.7-0.8-2.4c1.8-0.4,3.2-0.6,3.7-0.6C51.4,15.1,52.7,14.8,55.6,14.9
			 M56.3,14l-0.4,0.5c-2.4,0-4.1,0.2-4.4-1.2l1.3-0.1C53,13.9,53.5,14,56.3,14 M52.8,19.9l2.7,0l0.4,0.6c-2.5,0-2.8-0.2-3.2,0.4
			l-1.3-0.4C51.5,20.1,52,19.9,52.8,19.9 M48.6,19.3c0,0,1.4-1.4,3.4-1.6c0.7,0.1,2.4,0.1,2.4,0.1l0.3,0.6h-2.6l0,0.5l2.8,0l0.3,0.5
			c-2.8,0-4.2-0.2-4.9,0.9c-0.8-0.2-1.9-0.6-3.3-1c-0.6-0.9-0.4-2.4,0.8-2.4c0,0,2.1,0.1,3.1,0.4c-1.4,0.5-2.5,1.5-2.5,1.5
			L48.6,19.3z M59.2,15.2c0,1.3,0.7,1.9,1.4,2.1c-0.8,0.2-1.5,1.3-1.5,2.2c0,1,0.3,2,1.3,2.3c-1.6,0.2-5.3-0.2-6.9-0.6
			c0.1-0.3,0.4-0.4,1.3-0.3c0.4,0,0.7,0,1,0c0.7,0.1,1.2,0.1,1.4-0.3c0.3-0.5-0.2-1-0.8-0.8c-0.4-0.4-0.6-1-0.8-1.2
			c-0.5-0.8,0.2-1.1,0.6-1.1c0.8,0,1.6,0.3,2.4,1.3c0.3-0.3,0.1-0.5-0.1-0.9c-0.2-0.7,0.3-0.4-0.2-1.2c-0.2-0.3-0.4-0.4-0.7-0.5
			c-0.9-0.1-0.4,0.3-1.4,0.4c-0.7,0.1-1-0.3-0.6-0.9c0.2-0.2,0.6-0.8,1-1.2c0.3,0.4,1,0.2,1-0.3c0-0.6-0.6-0.7-1.3-0.8
			c-0.5,0-1.1,0-1.5,0c-1.1,0-1.2-0.2-1.2-0.5c1.6-0.1,4.9-0.1,7.1,0.1C60,13.2,59.1,14.1,59.2,15.2 M60.8,16.9
			c-1.5-0.3-1.4-3.2,0.2-3.3L60.8,16.9z M60.8,17.9l-0.2,3.6C59.4,21.1,59.3,18.2,60.8,17.9 M63.5,33.1l-2.7,1.7l0.1-2.4l0.9-0.5
			C62.2,32.7,62.7,33.1,63.5,33.1 M64.9,32.4c-0.9,0.4-2,0.5-2.6-0.8c0.6-0.3,1.4-0.9,1.8-1.1C64.4,30.8,64.7,31.6,64.9,32.4
			 M66.3,30.6c0,0.7-0.5,1.5-1,1.6c-0.1-0.8-0.3-1.4-0.7-2.1l0.4-0.4C65.5,30.2,65.9,30.4,66.3,30.6 M66.4,26.9
			c3,1.3,4.3-0.7,4.6-1.7l0.6,0c0,1.4,0.3,2.4,0.9,3.4c-1.1,1.5-4.2,3-7.3,0.8C65.7,28.8,66,27.9,66.4,26.9 M69.2,23
			c-0.1-0.6-0.1-1.1,1-1.1c0.7,0,1.1,0.1,1,0.7c-0.2,0.8-0.3,1.2-0.6,1.5C70,24.4,69.5,24,69.2,23 M67.7,24.2c0.3,0,0.9,0,1.2,0
			c0.2,0.3,0.3,0.2,0.3,0.5c0.1,0.3,0,0.4-0.3,0.5c-0.4,0.1-0.9,0.1-1.2,0c-0.3-0.1-0.4-0.2-0.4-0.4C67.3,24.5,67.6,24.5,67.7,24.2
			 M68.8,23.8l-1.1,0c0-0.4,0.1-0.5,0.6-0.4C68.6,23.5,68.9,23.5,68.8,23.8 M65.9,21.3c0.4-0.7,1.4-0.5,1.5-0.1
			C67.4,21.7,66.3,21.8,65.9,21.3 M70.7,21.1c-0.3,0.5-1.4,0.6-1.6,0.1C69.1,20.8,70.2,20.6,70.7,21.1 M64.3,18.1
			c0-1.8,1.8-1.8,3.4-1.9c-0.1-0.7,0.3-1,1-1c0.9,0,0.9,0.9,0.9,1.2c1,0.2,2.5-0.3,3.1,0.7c0.3,0.6,0,1.4,0.2,1.8
			c0.3,0.3,0.2,0.7-0.2,0.7c-0.7,0-0.4-0.2-2.5-0.2c-1.6,0-2-0.2-3.2-0.2c-0.9,0-1.6,0.4-2.3,0.4l-0.6,0c0-0.1,0-0.2,0-0.4
			C64.4,19.1,64.3,18.5,64.3,18.1 M64.5,20.1c0.3,0.1,0.7,0.1,0.9,0.1c-0.1,0.7-0.5,1.6,0,2.6c0.2,0.4,0.3,0.3,0.5,0.2
			c-0.1-0.2-0.3-1.1,0.5-1.1c1.2,0,1.5-0.1,1.5-0.1c0,0.1,0-0.5-0.1-0.8c-0.2-0.5-1.1-0.6-1.9-0.6c0-0.6,0.6-0.7,1.2-0.8
			c0.6-0.1,2.9,0,3,0.6c-1,0.2-1.4,0.4-1.5,1.1c0,0.7,0,1,0.1,1.6c-0.3,0-1.1,0-1.1,0c-0.2,0.4-0.1,1.4-0.9,1.3
			c-0.3,0-0.3-0.3-0.6-0.5c-0.4,0-0.8,0.1-1.1,0.1c-0.4-0.1-0.6-0.4-0.3-0.6c0.1-0.1,0.2-0.1,0.3-0.3C64.5,22.2,64.3,22.3,64.5,20.1
			 M70.9,20.4c-0.3-0.2-0.1-0.4,0.2-0.4c0.5,0,1.1-0.1,2,0c0.1,0.2,0.8,2.1-0.2,2.4c0,0-0.3,0.1-0.5,0.2c-0.2,0.1-0.5,0.2-0.1,0.6
			c0.2,0.1,0.5,0.4,0.7,0.6c-0.3,0.5-1.1,0.8-1.8,0.7c0.1-0.7,0.2-1.9,0.5-2.1C72.4,22,71.2,20.6,70.9,20.4 M72.6,26.4
			c-0.1-0.5-0.2-0.7-0.2-1.3c0.5-0.3,0.9-0.7,1.1-1.1c0.1-0.3,0.1-0.3-0.3-0.6c-0.5-0.4,0-0.5,0-0.5c0.8-0.6,0.9-0.8,0.7-1.8
			c-0.1-0.5-0.2-0.9-0.3-1.3c0.4-0.8-0.3-0.9-0.2-1.4c0.1-1.3-0.3-1.8-0.6-2c-0.9-0.6-1.7-0.4-2.7-0.5c-0.1-1.5-2.4-1.5-2.9-0.1
			c-0.6,0.1-0.9,0.1-2,0.4c-0.5,0.2-1.1,0.6-1.2,1.4c-0.2,1.3-0.3,1.2-0.5,1.5c-0.2,0.5-0.1,1,0.4,1.1c0,1.7-0.3,1.9,0.4,2.8
			c-0.4,0.5-0.7,0.6,0.1,1.3c0.6,0.4,1.1,0.3,1.7,0.2c0.1,0.2,0.2,0.7,0.5,1c0.5,0.6,1.9,1.3,3.6,0.2c-1,1.8-3.6,0.9-4.3,0.3
			l-0.2,0.5c-2.4-1.2-3.6-3.9-3.2-6.9c0.4-3,3.2-5.2,6.2-5.3c4.3-0.1,7.1,3.5,7.1,6.6C75.8,24.8,73.7,25.9,72.6,26.4 M78.9,25.1
			l-5.2,3.7c-0.2-0.2-0.6-1-0.8-1.6c1.7-0.9,2.9-2,3.4-4.1L78.9,25.1L78.9,25.1z M79.9,32.9c-0.1-1.6-0.4-4.7-0.4-4.7
			c-1.3,0.5-2.9,1.5-3.9,2.3c0,0-0.8-0.4-1.6-1.5l5.1-3.7c0.1,0,0.3,0.1,0.4,0l5.3,3.9l0,0.1C84.8,29.4,79.9,32.9,79.9,32.9
			 M84.2,38.4l-3.9-2.9L80,33.3l5-3.6c0.1,0,0.2,0,0.3,0l5.7,4.1l0,0.1l-6.4,4.6C84.5,38.4,84.3,38.4,84.2,38.4 M81.3,45.9l-0.7-0.4
			l0-3.7l3.7-2.6c0.1,0,0.2,0,0.3,0l6,4.4c0,0,0,0,0,0.1l-2.8,2.1L81.3,45.9z M92.4,47.2l-0.4-0.7l-0.4,0.7l-0.7-0.6l0,0.7l-0.4,0.4
			l-1.1,0c-0.2,0-0.4,0.1-0.4,0.4l0,1c1,0,2.5-0.1,2.3,1.2l-0.2,0c-0.4-1.5-2.5-0.4-3.1-1l0,0.4c0.3,0.3,0.5,0.2,0.9,0.2
			c0.6,0,1.5-0.2,1.7,0.4l-1-0.1l0,0.5c0,0,1.1,0.1,1.6,0.1c-0.4,0.6-1.6,0.2-3.2,0.6l-0.6-0.4c-0.2-0.7-0.9-1.5-0.9-1.5
			c0.3-0.4,0.3-0.8-0.4-1.4c-0.1,0.4-0.1,0.5-0.3,0.8c-0.4-0.5-0.9-0.5-1.4-0.3c0.2,0.4,0.2,0.6,0.4,0.8c0.2,0.2,0.9,0.3,0.7,0.6
			c-0.3-0.2-0.9-0.1-1.2,0.4c0.5,0.1,0.5,0.4,1.2,0.3c0.1,1.1,0.8,0.8,0.9,1.9l-1,0c-0.9-0.7-1.3-0.9-1.3-0.9c0-0.7-0.4-1-1-1.1
			c0,0,0.1,0.6,0.1,0.8c-0.2-0.1-0.5-0.3-1,0.1c-0.2-1.8-0.1-5-0.1-5l10.9-0.2L92.4,47.2z M92.7,52.8l-0.5-0.6
			c-0.9,0.4-1.3,1.1-1,3.6c-0.9,0-1.9-0.5-2.7-1C88,55,87.7,55.2,87,55.5c-0.6-1.4,0-2.7,0.7-3.2c1.8-1.1,3.3,0,3.9-1.5
			c0,0,0.1-0.2,0.1-0.5c0-1-0.4-1.6-2.3-1.6l0-0.5l1.2,0l0.5-0.4l1.4,0l0.5-0.5C93,47.2,94.7,51.1,92.7,52.8 M90.9,65.6
			c0.8,0.3-0.5,0.9,0.5,1.5l-0.3,0.3c-0.5-0.4-1.1-0.8-1.5-1.1C90,66.3,90.6,66.4,90.9,65.6 M86,62.4c0.2-0.1,1.1-0.7,2.4,0.9
			c0.4-0.5,1.1-1.1,1.5-1.4c1.6,2.1,0.7,2.8,0.7,2.8c-0.8-0.5-1.3-0.2-1.5,0.2c0.2,0.2,0.8,0.3,0.8,0.3c-0.3,0.2-0.7,0.3-1,0.3
			C88.2,65,86.8,63.5,86,62.4 M80.7,63.3l0-4.7l1.8-1.2c1.1,2.7,2.1,4.6,4.4,7.1l-2.3,1.6c-0.1,0-0.2-0.1-0.3,0L80.7,63.3z
			 M87.9,55.7l0.5-0.3c0.6,0.4,1.6,0.8,2.2,0.9c0,0.6,0,1,0.2,1.5L90,58.5C89.3,57.6,88.5,56.6,87.9,55.7 M88.3,62.5
			c-0.5-0.4-1.1-1.1-2.2-0.8c0.2-0.3,0.6-0.5,1-0.6c0.4,0.2,0.7,0.5,1,0.7c0.5-0.3,0.6-0.8,0.5-1.2c-0.2-0.7-1.6-2.4,0.5-2.4
			c0.2,0.2,0.3,0.4,0.5,0.7C88.7,60.5,90.6,60.7,88.3,62.5 M86.1,49.9c0.4,0.6,0.7,0.9,0.9,1.6l0.5,0.3c-0.3,0.2-0.7,0.6-0.7,0.6
			C86.5,51.4,85.4,51.1,86.1,49.9 M86.3,54.3l-0.6,0L83.7,53c0,0-0.1-0.4-0.2-0.8c0.7,0.2,1.7,1.1,1.7,1.1l1.2,0
			C86.2,53.6,86.3,54.3,86.3,54.3 M82.4,53.6c0.5-0.1,0.8-0.2,1.1-0.2l2,1.5l0.7,0c0.1,0.6,0.3,1,0.5,1.4c0.2-0.1,0.7-0.3,0.7-0.3
			c0.4,0.6,0.8,1.2,1.2,1.6c-0.4,0.2-1,0.4-1.2,1.1c-0.1,1,1.2,2.1,0.6,2.4c-0.3-0.2-0.4-0.3-0.7-0.5c0,0,0-1-1-1.4
			c-0.1,0.5,0,0.8,0,0.9c-0.8-0.2-1.1,0-1.4,0.2c0.4,0.5,0.7,0.6,1.2,0.8c-0.3,0.1-0.4,0.3-0.5,0.6c-1.9-2.9-3.1-6-3.4-9.6
			c0.3,0.2,0.2,0.2,0.5,0.3c0.3,0.1,0.6-0.1,0.6,0.1C82.9,52.7,82.3,52.9,82.4,53.6 M82.3,57.1l-1.6,1.1c-0.1-4.3-0.1-8.2-0.1-12.3
			l0.6,0.3C81.1,51.1,81.2,54,82.3,57.1 M80.7,63.8l3.3,2.6l0,0.1l-2.4,1.7C81.2,67,80.6,65.1,80.7,63.8 M80.3,36.1l3.7,2.7l0,0.1
			l-3.5,2.5C80.5,39.5,80.5,38.2,80.3,36.1 M72.5,50.9c1.2-0.2,1.9,0.3,2.4,1.7c2.3,6.1,5.8,15.2,6.9,19.4c0.4,1.1-0.4,1.4-0.9,0.4
			C79.2,68.7,75.3,58.8,72.5,50.9 M79.9,73.1l4,3.2l0,0.2l-2.6,1.9l-1.3,0L79.9,73.1z M74.6,79.8c-1-0.6-1.5-1.3-1.1-2.9
			c0.9-3.4,0.9-4.2,0.8-5.7c0.1-0.3,0.2-1.6,0.3-2.3c0.3-0.8,0.5-0.8,0.7-3.2c0,0,0.7-0.3,0.7-0.3l-1.3,11.4c-0.1,1.2,0.1,1.5,1,1.9
			l3.5,1.5c0.9,0.4,1.4,0.6,1.7,1.5l0.8,2.2c0,0,0.4,1,0.5,1.3C82.1,85.2,78.5,82.2,74.6,79.8 M29.9,79.6c2.4,0.3,7-0.2,8.4-0.4
			c0,0.6-0.1,2.2-0.5,3.2c-2-0.2-5.4-0.5-5.4-0.5c0.8,0.7,1.3,1.8,2,2.1c0.9,0.3,0.8,1.1,0.6,1.1c-4.1-0.1-2.9-1.2-4.9-2.3
			C27.9,81.6,27.8,79.4,29.9,79.6 M33.4,79c-1.1,0.1-2.5,0.1-3.1,0c-0.1-0.4,0.2-0.6,0.8-0.5C32,78.6,33.1,79,33.4,79 M33.4,78.2
			c-0.9,0-1.9-0.7-2.7-0.3c0.6-1.4,2.6-7.4,2.8-7.7C33.3,74.2,33.3,76.7,33.4,78.2 M33.7,64.4c0,0-0.2,2.7-0.3,3.7
			c-0.9,2.5-2.1,6.2-3.4,9.5c-0.4,1-0.7,0.9-0.6-0.2C29.8,75,32,68,33.7,64.4 M27.5,69l4.9-3.6c-1.1,2.8-2.1,5.9-2.1,5.9l-2.8-2.2
			L27.5,69z M27.8,60.4l5.1,4l-0.2,0.5l-5.4,3.9c0,0-0.2-0.1-0.4,0l-3.9-3C24.7,64.2,26.2,62.6,27.8,60.4 M21.8,62.3
			c0.3,0.5,0.9,1.5,1.7,1.9l-1.8,1.6C21.8,64.8,22,63.5,21.8,62.3 M27.2,59.8c0,0-0.5,0.9-0.8,1.2c-0.2-0.7-0.8-1.5-1.2-2.2
			C25.7,58.9,26.7,59.3,27.2,59.8 M27.5,59.2c-0.7-0.3-1.6-0.6-2.3-0.9c0.6-0.1,2.1-0.2,2.7-0.1C27.9,58.5,27.7,58.8,27.5,59.2
			 M33.5,55.8l-5.4,3.7c0.9-1.7,1.8-3.7,2.4-6L33.5,55.8z M32.1,45.6c4-4.1,0.6-3.8,1.6-7.1l0.5-0.1c-0.1,0.3-0.1,0.8-0.1,0.8
			c0.2-0.3,0.4-0.4,0.7-0.8l0.7-0.1c-0.5,0.7-0.7,1.3-0.8,2.3l0.3-0.1c0.4-1.5,1.1-2.1,2.3-2.5c0.7-0.2,0.8,0,0.4,0.5
			c-0.6,0.8-0.8,1.8-0.8,2.5c0,0.9,0.3,1.5,0.1,1.8c-0.4,0.5-1.2,0.4-2,1c-0.8,0.5-0.5,1.5-0.3,3.4c0,0,1.8,0.7,2.2,3.6
			c0.4,2.8-2.3,4.5-4.1,1.3c-1-1.5-0.2-4.6,1-5c0-0.7,0-1,0-2c-2,2.5-2.6,4.8-2,6.6c0.5,1.7,0.9,1.5,2,3.9l-3.1-2.4
			c0.4-2,0.7-5.1,0.7-7.6c-1.9-0.1-4.3-0.3-6.2-0.5l3.1-2.2c0.1,0.1,0.4,0,0.4,0L32.1,45.6z M33.4,42.4c0,0.6-0.6,1.8-1.8,2.2
			c-0.8-0.6-1.6-1.3-2.8-2.2l0-0.1l4-2.9C32.7,40.7,33.4,41.8,33.4,42.4 M32.6,34.9c-0.1-0.3-0.4-1.1-0.1-1.6
			c0.4-0.1,0.9,0.3,1.2,0.9c0.7-0.6,1.3-0.6,1.6,0c0.4,0.7-0.1,1.3-1,1.2c0.7,1.3,3.2,1,3.3-0.6c-1.1,0.4-1.4-0.1-1.4-0.6
			c0-0.5,0.6-1,1.4-0.8c0-0.5,0.1-1.1,0.5-1.4c0.3,0.2,0.7,0.8,0.7,1.4c0.7-0.2,1.3,0.1,1.4,0.6c0.1,0.6-0.4,1.4-1.5,0.8
			c0.1,1.2,0.8,1.5,1.6,1.6c1.1,0,1.5-0.4,1.7-0.6c-0.6,0.3-1.4-0.2-1.2-1c0.3-0.9,1.2-0.7,1.7-0.2c0.2-0.3,0.7-0.8,1.4-0.7
			c0.1,0.6-0.1,1.1-0.3,1.4c0.9,0.3,0.8,1.1,0.6,1.4c-0.6,0.5-1.2,0.2-1.4-0.3c-0.4,0.6-0.6,0.9-0.8,1.6c-2.5-0.4-5.5-0.1-8,0.2
			c0-0.8,0-1.2-0.3-2c-0.1,0.4-0.9,0.8-1.5,0.2C31.5,35.6,32.2,35.1,32.6,34.9 M35.3,28.5l5.9,4.7l-0.5,0.3
			c-0.2-0.4-0.6-0.8-1.3-0.8c-0.1-0.9-0.8-1.4-1.4-1.7c-0.3,0.2-1,0.8-1.1,1.7c-0.7,0.1-1,0.4-1.3,0.9c-0.6-0.5-1.2-0.5-1.7-0.3
			c-0.6-0.6-1.3-0.7-1.9-0.7c-0.4,0.6-0.4,1.3-0.2,2.1L31.5,35l-2.6-2.1c0-0.1,0-0.2,0-0.2l6-4.2C34.9,28.5,35.1,28.6,35.3,28.5
			 M35.2,27.8c0,0-0.2-0.1-0.3,0l-2.4-1.9c1-1.8,4.3-4.7,5.3-5.2l3.5,2.8l0,0.1L35.2,27.8z M48.3,28.2c-0.1-0.1-0.3-0.1-0.4,0
			l-1-0.8l1.1-2.1c0.1-0.3,0.3-0.2,0.4,0l0.8,2.2L48.3,28.2z M58.1,26.6L55,24.1V24l2-1.4c1.1,0.1,2,0.2,3.5,0l-0.1,1
			C59.4,24.5,58.7,25.5,58.1,26.6 M60.1,30.9c-0.1,2.2-0.6,8.6-0.6,8.5c-0.2,1.6-3.3,1.9-2.7-5c0.2-1.9,0.6-4,1.3-5.8
			c0.4,0.8,0.9,1.1,1.7,1.5C60.2,30.3,60.1,30.5,60.1,30.9 M64.8,34.9c-1.1,0.7-1.6,1.2-2.7,1.9l-0.1-2l2.9-1.9
			C65,33.6,64.9,34.4,64.8,34.9 M66,36c0,0.6-0.6,2-1.4,1.9c0.2-0.6,0.5-1.6,0.6-2.3C65.5,35.8,65.7,35.9,66,36 M67.7,33.3
			c-1.2-0.3-1.2-1.9-0.7-2.6c0.9,0.4,1.6,0.3,2.8,0.2C70.1,32.3,69.5,33.8,67.7,33.3 M70.9,35.5c-0.6,0.4-2.5,0.7-2.5-1.4
			c1.9,0,2-1.9,2-1.9C71.3,32.4,72.6,34.2,70.9,35.5 M72.2,32.2c-1.3,0.3-1.6-0.9-1.8-1.5c1-0.3,1.9-0.8,2.5-1.6
			C73.7,30,73.4,31.9,72.2,32.2 M71.2,47.4c2-0.2,2.1,0.4,2.9,2.4l-1.8,0.6L71.2,47.4z M70.9,54.5l-0.2-3.3l1.2-0.2l1.3,3.6
			L70.9,54.5z M72.7,59l-0.4-3.8c0,0,0.6,0,1.1,0l1.4,3.6C74.7,58.9,73.9,58.8,72.7,59 M63.2,53.5l-0.4,3.8l-1.6-1
			c0,0,0.1-2.1,0.3-3.9C62,52.8,62.8,53.3,63.2,53.5 M62.2,48.3l0.9,0.8l-0.5,3.3c-0.4-0.2-0.5-0.4-0.9-0.7
			C61.8,50.3,62.2,48.3,62.2,48.3 M66.5,54.8c0.8,0.2,1.4,0.2,2.3,0.2l0,4.1c-1.7,0-2.5-0.4-2.5-0.4L66.5,54.8z M65.3,53.9l0.4-3.1
			c0,0,1,0.4,1.9,0.5l-0.2,3.1C66.9,54.3,66,54.1,65.3,53.9 M63,52.8l0.5-3.2c0,0,1,0.9,1.7,1.1c0,0.1-0.4,3.1-0.4,3.1
			C63.9,53.4,63.5,53.1,63,52.8 M63.8,53.8c0.6,0.3,1.4,0.7,2.2,0.9l-0.3,3.9c-1.2-0.4-2.2-1.1-2.2-1.1L63.8,53.8z M71.7,55.2L72,59
			c-1.3,0.2-2.6,0.2-2.6,0.2l0-4.1C70.2,55.1,71,55.1,71.7,55.2 M68.1,54.4l0.1-3.1c0,0,1.1,0.1,2,0l0.1,3.3
			C69.6,54.5,68.6,54.5,68.1,54.4 M70.9,48.2c0.2,0.3,0.6,1.7,0.9,2.4c-3.4,0.7-6.9,0.4-9.6-3.5l0.4-2.2
			C64.5,47.8,67.7,49.1,70.9,48.2 M64.6,43.6c0.3,0.5,0.5,0.6,0.9,1c-0.2,1.5-1.2,1.5-1.9,1c-0.6-0.5-0.7-1.1-0.6-1.9
			C63.3,43.8,64.2,43.9,64.6,43.6 M66.6,47.5c-1.4-0.4-0.9-1.9-0.8-2.6c0.7,0.5,1.5,0.8,2.4,0.9C68.3,46.8,68.3,47.9,66.6,47.5
			 M64.5,42.5c0.6,0,0.9-0.2,1.2-0.4c0.1,0.4,0.6,1.7,1.8,1.9c1.1,0.2,1.6-0.1,2.1-0.5l0.4,1.6c0,0-0.3,0.2-0.9,0.2
			c-1.1,0.1-3.1-0.5-4.3-2.2c-0.4,0.2-1.3,0.3-1.6,0.1l0.3-1.2C63.6,42.2,64,42.5,64.5,42.5 M62.2,39.6l-0.1-2.2l2.6-1.8
			C64.3,37.5,63.7,39,62.2,39.6 M65.7,41c0,0.8-1.1,1.5-2.1,0.5l0.6-2.1C64.2,40.3,64.9,40.9,65.7,41 M68.1,38.9
			c0,0.8-0.6,1.9-2.1,1.6c-1.5-0.3-1.6-1.4-1.6-2.1c0.6,0,1.2-0.4,1.7-1.1C66.2,38.2,67,39,68.1,38.9 M68.1,38.4
			c-1.8-0.1-1.6-1.9-1.6-2.4c0.8-0.1,1.2-0.4,1.6-0.9c0.2,0.7,0.9,1.1,1.6,1.1C69.6,36.9,69.9,38.4,68.1,38.4 M67.9,43.5
			c-1.3-0.2-1.8-1.3-1.6-2.4c0.6,0.1,1.5,0.1,1.9-0.7c0.1,0.7,0.7,0.9,1.2,1C69.4,41.9,69.6,43.7,67.9,43.5 M71.2,39.5
			c0.1,0.6-0.2,1.2-0.9,1.4c-1.2,0.3-1.6-0.2-1.7-0.7c-0.1-0.6,0.1-1.3,0.9-1.5C70.2,38.5,71,38.7,71.2,39.5 M71.3,38.5
			c-0.3,0-1.3-0.2-1.1-2.3c0.4,0.1,1.1-0.2,1.4-0.6C71.4,36.4,71.2,37.4,71.3,38.5 M71.6,45.7c0.4-0.1,0.8-0.2,1.1-0.5
			c0.1,0.4,0.2,0.8,0.3,1.1c-1.3,0.3-2.5,0.8-3.9,1.5c-0.2-0.4-0.3-1.1-0.4-1.6c0.7-0.1,1.4,0,2.1-0.3c-0.4-1.5-0.9-2.8-1.1-4.4
			c1-0.1,1.8,0.6,2.2,1.8C72.5,44.9,71.4,44.9,71.6,45.7 M65.2,61.8c-1.4-0.3-3.2-0.3-4.2-0.4c0,0,0-2.4,0.1-4.2
			c1.2,0.7,4,2.3,6.6,2.7c2.2,0.4,5.2-0.6,7.3-0.3l1,2.6C72.2,61.4,69.3,62.8,65.2,61.8 M67.8,64.7c-1.8,0-2.6-2-6.8,0.2l0-2.8
			c3.7-0.5,5,0.8,8.1,0.7c2.1-0.1,4.4-0.8,7.1,0.1L76,64.5C70.1,63.4,69.9,64.8,67.8,64.7 M73.8,68.6l-0.8,0
			c0.2-1.3,0.3-2.7,0.1-3.9c0.5,0.2,0.9,0.3,1.4,0.6C74.4,66.2,74.6,67.5,73.8,68.6 M71.3,64.7c0.3,0,0.8,0,1.1,0.1
			c0.2,0.8,0.1,3.2,0.1,3.9c-0.5,0.1-1,0.1-1,0.1C71.4,67.7,71.2,65.8,71.3,64.7 M71,70.1l-0.9,0l0-1.2c1,0.7,2.6,0.1,3.9,0.4
			l-0.1,1.5C72.8,71.1,72.3,70.1,71,70.1 M71,68.7c-0.4-0.1-0.7-0.3-1-0.5c-0.2-0.9-0.4-2.1-0.2-3.1c0.4-0.2,0.5-0.3,1-0.4
			C70.7,65.9,70.6,67.6,71,68.7 M67,81.2c0.6-1.5,0.3-2-0.1-10.7c0-0.4,0-1,0.1-1.7c0.4-1,0.6-2.1,0.6-2.8l1.4-0.5
			c-0.2,1.9,0.4,3.6,0.5,5.1c-0.2,0.8-0.4,1.6-0.4,2.2c0,2,1.5,2.9,0.9,7.2c-0.3,2.7,2.2,1.5,3,2.8c0.2,0.2,0.6,0.5,0.8,0.6
			C69.2,83.6,69.4,81.8,67,81.2 M66.8,82.5c-0.1-0.5,0.1-0.8,0.6-0.5c0.6,0.3,1.3,0.9,1.3,0.9c-0.3,0.5-0.6,0.7-1.2,1
			C67.4,83.7,66.9,82.9,66.8,82.5 M65.5,81.8c0.3-1-0.4-1.4,0.1-3.5c0.2-0.9,0.5-1.9,1-2.7c0.2,6-0.3,4.7-0.5,6.1
			c-0.1,0.9,0.5,1.5,0.9,2.3c-1.3-0.1-2.4-0.6-3.3-0.9C64.4,82.5,65.3,82.6,65.5,81.8 M58.8,83.2c1.5-0.8,1.4-1.2,2.2-1.9
			c0.7-0.6,1.7-1,1.9-1.8c0.4-1.6-0.5-5-0.5-7.3c0-2.1,0.9-2.1,2.6-1.5c1.9,0.7,1.7,2.8,0.7,4.9c-0.5,1-0.8,2.6-0.8,3.7
			c0,0.9,0.8,2.3-0.7,2.8c-2.6,0.7-1.8,2.2-5,2.3C57.9,84.4,57.4,83.7,58.8,83.2 M63,67.9c-0.3-0.3-0.7-0.5-1-0.8
			c-0.1-0.4-0.2-1.5-0.2-1.9c0.5-0.4,0.8-0.5,1.4-0.7C62.8,65.9,62.8,66.4,63,67.9 M65.2,64.5c0.5,0.1,1.2,0.6,1.6,1.1
			c0.1,0.8,0,1.6-0.3,2.6l-1.3,0.2C65.6,67.2,65.5,65.9,65.2,64.5 M63.8,64.6l0.9-0.2c0.3,1.4,0.4,2.8,0.1,4c-0.4,0-0.9-0.2-1.2-0.4
			C63.4,67.1,63.5,65.9,63.8,64.6 M66.3,69.1l0,0.8c-1.5,0.2-2.6,0-3.9-0.3l-0.2-1.4C63.3,69,64.8,69.3,66.3,69.1 M60.6,78.2
			c0.3-0.7,0.5-1.8,0.6-2.8c0-2.3-0.3-9.7-0.3-9.7l0.4,0.3c0,0,0.5,4.5,0.5,4.5c-0.2,3.3,0.1,4.4,0.4,6.6c0.1,1.4,0.3,2.3-0.6,2.9
			c-2.8,1.9-1.5,1.9-3.7,3L60.6,78.2z M60.1,77.6c0.1,0.6-2.4,4.5-3.1,6c-0.4-0.2-0.9-0.8-1.3-1.7c-0.2-0.3-0.4-0.5-0.8-0.4
			c-0.5,0.1-1,0-1.2-0.1C55.7,80.2,57.7,79.3,60.1,77.6 M57.8,74.2l-0.2,4.1L52,78.3L57.8,74.2z M46.9,66.1l4.5,3.3l0,0.1l-3.8,2.6
			C47.5,70.4,47.2,68.1,46.9,66.1 M47,73.4l0.2,1.8c-4.6-0.1-8.2,1.7-12.9,0.6l0-3.3C41.7,75.8,42.5,73.1,47,73.4 M33,63.9l-5-3.9
			l5.8-4.1C34.9,59,33.8,61.8,33,63.9 M36.4,55.8c0.2,2.2-1.2,2-1.2,2c-0.1-0.9-0.6-2.6-0.9-3.4C34.8,54.7,36,55.5,36.4,55.8
			 M39.1,55.3l-0.4,1l-3.2-2c0.8-0.1,1.2-0.4,1.5-0.8L39.1,55.3z M40.3,51.5l-0.4,1.2L37.6,51c-0.1-0.8-0.4-1.8-0.9-2.7L40.3,51.5z
			 M38.1,44.8c0.9,0.4,1.7,0.6,2.4,0.5c0.1,2.3,1.3,3.3,2.4,4.4c-0.7,0.6-2,0.8-2.8,0.5c-1.6-0.5-3.2-2.6-4.9-3.6
			c-0.3-1.2-0.7-2.5,1.5-3.1C36.9,43.9,37.3,44.4,38.1,44.8 M39.8,40.5c-0.1,1.1-1.4,3-1.4,3c0.4,0.1,1.4-0.8,1.7-1.1l0.9,0
			c0.1,0.1,0.3,0.6-0.5,0.6c1.3,1.5-0.5,1.8-2.2,1c-0.3-0.2-0.6-0.3-0.7-0.8c-0.2-0.6-0.4-1.6-0.2-2C38,40.2,39.1,41.3,39.8,40.5
			 M39.7,40.1c-0.3,0.3-1,0.5-1.7,0C38.3,39.6,39.6,39.3,39.7,40.1 M41.4,39.1c-0.2,0.1-0.2,0.4-0.2,0.7c0,0.6,0.1,1.4,0.1,1.9
			l-1.2-0.1c-0.2-0.2,0.2-0.2,0.3-0.9c0-0.2,0-0.6,0-1c0-0.3,0-0.5-0.6-0.8c-0.5-0.2-1.3-0.2-1.8-0.1c0.1-0.5,0.4-0.7,0.9-0.9
			c0.6-0.1,1.6-0.1,2,0.1c0.5,0.2,0.6,0.2,0.6,0.5C41.6,38.9,41.5,39,41.4,39.1 M42,43.8l4.5,3.5l0,0.2l-2.7,1.9
			c-1.2-1-2.5-2.4-2.5-4.2C41.6,45.1,42.3,44.9,42,43.8 M47.3,38.4c0,0,0.2,0,0.3,0l4.4,3.5l0,1.8l-4.9,3.5c-0.2-0.1-0.4-0.1-0.4,0
			l-4.9-3.8c0-0.3,0-0.9,0-0.9L47.3,38.4z M44.7,36l2.4,1.9l0,0.1l-5.2,3.8c-0.2-2,0.3-3.5,0.9-4.7C43.6,37.8,45,37.3,44.7,36
			 M52.2,69.5l6-4.2l-0.5,8.4L52.2,69.5L52.2,69.5L52.2,69.5z M51.9,61.3c0,0,0.2,0.1,0.4,0l2.3,1.7c-0.1,1.4,1,2.3,2.4,1.8l0.6,0.5
			l-5.7,4c0,0-0.2-0.1-0.3,0L47,65.7l-0.1-0.9L51.9,61.3z M46.7,63.1l-0.4-0.2l-0.2-2.3l2.8-1.9l2.8,2.1l0,0.1l-4.8,3.4L46.7,63.1z
			 M46.6,70l0.3,2.8c0,0-1.4-0.1-2.4,0.1l-0.3-3.2C44.9,69.7,45.7,69.8,46.6,70 M42.4,69.1l-0.2-2.6l2.1,0l0.2,2.5
			C43.8,69.1,43.2,69.1,42.4,69.1 M43.5,69.7l0.3,3.3c0,0-1.4,0.4-2.5,0.4L41,69.8C41.7,69.8,42.9,69.7,43.5,69.7 M39.4,69.3
			l-0.2-2.8c0.8,0.1,2.3,0.1,2.3,0.1l0.1,2.6C40.8,69.2,40.2,69.3,39.4,69.3 M40.4,69.9l0.2,3.6c-1.1,0-2.3-0.3-2.3-0.3l-0.2-3.3
			C39,69.9,39.6,69.9,40.4,69.9 M36.7,69.2l0-3.4c0.8,0.3,2.1,0.6,2.1,0.6l0.1,2.9C38.1,69.3,37.5,69.3,36.7,69.2 M35.8,69.7
			c0.6,0.1,1.3,0.2,1.9,0.2l0.1,3.3c0,0-1.2-0.3-2-0.7L35.8,69.7z M46.5,69.4c-0.5-0.1-0.7-0.2-1.3-0.3l-0.3-2.6l1.2-0.1L46.5,69.4z
			 M45.9,63.5c0.1,0.8,0.2,1.6,0.3,2.4c-5.7,0-8.9,0-11.9-2.3l0.4-1.8C37.6,63.9,41.4,64,45.9,63.5 M37.6,60.6
			c0.5,1.4,2,1.6,3.1,1.7c0.8,0,2-0.4,2.5-1.2c0.4,0.6,1.4,0.7,2.1,0.3l0.2,1.6c-0.5,0-0.9-0.1-1.5-0.4l-0.3-0.2l-0.3,0.2
			c-1.7,1.2-4.3,0.8-5.5-0.6c0-0.1-0.2-0.1-0.2-0.2c0,0-0.2,0.1-0.3,0.2c-0.8,0.3-2.1,0.1-2.7-0.6l0.3-1
			C35.5,60.7,36.7,61.5,37.6,60.6 M39.4,57.5c0,1.1-0.9,1.3-1.7,1.2c-0.7-0.2-1-1-0.7-2.5C37.5,56.5,38.8,57.3,39.4,57.5 M39.2,54.7
			l-1.9-1.6l0.3-1.4l2.1,1.6L39.2,54.7z M40.7,59.9c0.6,0.1,1.7,0.1,2.1-0.9c0.1,0.8,0.2,2.2-1,2.4C40.6,61.6,40.6,60.5,40.7,59.9
			 M40.3,59.7c0,1-0.4,1.7-1.3,1.5c-0.8-0.2-1.1-0.9-0.9-1.9c0.8,0.1,0.9-0.1,1.3-0.4C39.4,58.9,39.6,59.6,40.3,59.7 M39.9,57.8
			c0.6,0.3,1.3,0.7,2.3,1C42.1,60.1,39.2,59.5,39.9,57.8 M44.2,61.1c-1-0.1-1-1.1-0.9-1.8c0.4,0.2,1.5,0.3,2,0.3
			C45.4,60.3,45.3,61.2,44.2,61.1 M44.1,53.2c-0.5,0.6-0.9,0.2-1-0.1c-0.3-1.1-0.3-2,0.3-3C44.5,51.4,45.2,51.6,44.1,53.2
			 M48.5,48.9c-1.1,0.9-2,1.7-3,2.6c-0.3-0.7-1-1.3-1.4-1.7l2.8-1.9c0,0,0.2,0.1,0.4,0L48.5,48.9z M52.1,45.2
			c-1.4,1.7-1.5,2.3-3.3,3.4l-1.4-1.1l0-0.1l4.7-3.3L52.1,45.2z M56.2,55.6c0,0,0.2-1.8,0.3-2.7c-0.3-0.2-1.4-0.1-1.6,0.7
			c-0.2-0.2-0.7-0.2-0.9,0.2c-0.3-0.2-0.8-0.2-0.9,0.2c-0.1,0-0.2-0.1-0.3-0.1c0-0.3,0-1.5,0-2c0.9-0.1,2.2-0.6,1.5-1.6
			c0.6-0.3,0.5-1,0.2-1.2c0.4-0.4,0.5-0.6,0.5-1C55,47.8,55,47.5,55,47c0-0.8-0.1-0.8-0.5-0.9c0.5-1.7-0.2-2.3-1-1.1
			c-0.2,0.3-0.9,1.3-0.9,1.3l0-3.9l4.7,0l-0.5,13.1L56.2,55.6z M48.8,54.5c0.6-1.3,1-2.7,3.3-2.6c0,0.6,0,1.4,0,2.1
			C51.5,54.5,50,54.4,48.8,54.5 M51.5,54.9c0.3,0,0.5-0.1,0.5,0.4c0.1,0.3,0.5,0.3,0.5,0c0-0.3-0.1-0.4-0.1-0.6
			c-0.1-0.5,0.4-0.5,0.5-0.2c0.1,0.3,0.1,0.4,0.1,0.7c0,0.3,0.4,0.3,0.4,0c0-0.3-0.1-0.5-0.1-0.8c-0.1-0.5,0.4-0.4,0.5-0.1
			c0.1,0.2,0.1,0.7,0.1,1c0,0.3,0.4,0.3,0.4,0c0-0.3-0.1-0.7-0.1-1.1c0-0.4,0.5-0.4,0.5,0c0,0.3,0,0.8,0,1.1c0,0.3,0.4,0.3,0.4,0
			c0-0.4,0-0.8,0.1-1.4c0.1-0.3,0.2-0.7,0.7-0.7c-0.2,1.3-0.2,2.2-0.4,3.2c-0.1,0.9-0.7,0.8-1.6,0.6c-0.8-0.1-3.2-0.5-4-1.3l0,1
			c-1,0.8-3.3,2.2-3.8,2.5l2.2-4.2C49.6,55.2,50.2,55.1,51.5,54.9 M56.4,57.7l-4.1,2.9c0,0-0.2-0.1-0.4,0l-2.7-2l1.3-0.9l0-0.6
			c1,0.4,1.9,0.6,3.2,0.9c2.1,0.3,2.3-0.3,2.4-1.5l0.3,0L56.4,57.7z M54.7,62.5l-2.2-1.6l0-0.1l3.9-2.7c0,0,0,1.8-0.1,2.8
			c-0.1,0.4-0.2,0.4-0.3,0.4C55.4,61.5,54.8,62,54.7,62.5 M56,61.9c0.8-0.1,1.3,0.5,1.3,1c0,0.7-0.4,1.2-1,1.2
			c-0.6,0.1-1.2-0.3-1.2-1C55.1,62.5,55.5,61.9,56,61.9 M51.8,48c0.1,0.1,0.9-0.6,1.1-0.9c0.4-0.6,0.6-1.3,1-1.9
			c0.2-0.4,0.5-0.2,0.4,0.2c-0.1,0.3-0.8,2-1,2.3c-0.2,0.2-0.5,0.4-0.8,0.6l0.3,0.4l1-0.8l0.4-1.2c0.1-0.2,0.4-0.4,0.4,0.1
			c0,0.6-0.2,1.2-0.3,1.5c0,0-0.5,0.5-0.8,0.7c-0.3,0.2-0.4,0.2-0.3,0.4c0.1,0.3,0.3,0,0.5,0c0.4-0.1,0.7,0.4,0.1,0.6
			c-0.3,0.1-0.5,0.1-0.4,0.3c0,0.2,0.2,0.2,0.3,0.1c0.4,0,0.4,0.5-0.1,0.6c-1.2,0.3-2.8-0.1-3.6,0.2c-1.2,0.4-1.8-0.6-2.1-1
			c0.4-0.6,1.1-1,1.8-1.4c1.1-0.6,1.9-1.8,2.4-2.8C52.5,46.7,51.6,47.9,51.8,48 M40.5,50.9c0.8,0.1,1.6,0,2.1-0.2
			c-0.1,0.4-0.3,1.2-0.3,2.1L40.5,50.9z M40.8,52.2c0.6,0.5,1.3,1.1,1.9,1.6c0.8,0.7,1.3,0.5,1.9-0.2c0,0,1.7-2.1,2.9-3
			c0,0,1,1.3,1.5,1.8c-1,2.2-1.5,3.4-2.6,5c-1.2,2-2.8,1.1-3.4,0.9c-1.3-0.4-2.6-1.1-3.7-1.8L40.8,52.2z M35.2,58.4
			c0.3,0,0.8-0.1,1.2-0.5c0.1,0.6,0.5,1.2,1,1.3c0.2,1.2-1.1,1.9-2.3,0.6C35.2,59.2,35.2,59,35.2,58.4 M35.3,69.5l0,2.7l-1.1-0.4
			l0-2.7L35.3,69.5z M34.2,68.5c0-0.9,0.2-3.8,0.2-3.8c0.7,0.5,1.7,0.9,1.7,0.9l0,3.6C35.5,69,34.9,68.8,34.2,68.5 M58.2,65.2
			l-0.9-0.7c1.3-1.1,0.6-2.6,0-2.9c-0.3-0.2-0.5-0.2-0.5-0.5c0-0.4,0.2-3.1,0.3-4.7l0.5,0l0.6-14.6l-2.9,0l1.8-1.3
			c0.7,0.6,1.2,0.6,2.4,0.6L58.2,65.2z M54.4,33.3l1.9-1.4c0,0-0.2,1.2-0.3,2.7L54.4,33.3L54.4,33.3z M56,35.1
			c0,2.1,0.1,4.1,0.9,5.2l-2.2,1.5l-2.2-0.1l-4.6-3.7c0,0,0-0.1,0-0.1l6-4.2c0.1,0.1,0.4,0,0.4,0L56,35.1z M44.1,33
			c-0.7,0-1.2,0.1-1.8,0.5l-0.4-0.3l6-4.3c0,0,0.3,0.1,0.4,0l5.4,4.3l0,0.2l-6,4.2c-0.2-0.1-0.4,0-0.4,0l-3.1-2.4
			C44.4,34.5,44.4,33.7,44.1,33 M39.9,79c0,1.3-0.1,2.7-0.5,3.8l-0.9-0.1c0.2-1.3,0.4-2.6,0.4-3.7L39.9,79z M34.2,78.9l0-2.5
			c6.4,0.7,7.8-0.8,13-0.7l0.1,1.7C42.9,76.7,43,78.5,34.2,78.9 M40.4,80.5l0.1-1.6c1.2-0.2,2.2-0.7,2.9,0.3
			C42.5,79.9,41.4,80.4,40.4,80.5 M43.1,82.3C42.5,83.2,41,83,40,82.8l0.2-0.8C41.3,82.3,42.2,82.4,43.1,82.3 M40.3,81.6l0.1-0.4
			c1.1-0.3,2.2-0.6,3.1-1.4c0.3,0.4,0.2,1.4,0,1.7C42.5,82.1,41.2,81.8,40.3,81.6 M44.3,79.5c-0.1-1.6,0.9-1.8,3-1.3
			c0.6,2.9-1.9,2.9-2.9,2.7C44.5,80.4,44.3,80.2,44.3,79.5 M51.7,78.4l-3.6,0L48,75.8L51.7,78.4z M48,75.3c-0.1-0.8-0.2-1.9-0.3-2.8
			l3.9-2.7c0,0,0.1,0.1,0.4,0l5.5,4.1l-5.7,4L48,75.3z M72.8,79c0.4,1,1.5,1.1,2.8,2.1c0.5,0.4,0.8,1.1,1.3,1.7
			c0.4,0.5-0.2,1-0.9,0.6c-0.7-0.5-1-0.1-1.7-0.5c-0.6-0.3-1.1-1-1.7-1.4c-0.9-0.6-2.3,0.5-2-2.4c0-0.5,0.4-2.2-0.6-4.8
			c-0.3-1.2-0.2-2.5,0.3-3.5c1-0.1,2.3,0.3,2.9,1.2C74.4,74,72.1,77.1,72.8,79 M79,69.6l0.1,8.8c-1.1-1.5-1.7-3.1-1.7-5.5
			C77.7,72,78.4,70.5,79,69.6 M78.2,69.4l-1.6,4.2c-0.5,1.3-0.9,2.4-0.8,3.8l0.7-0.2c-0.1-0.6,0-2.2,0.5-3.1c0.1,2.1,1.1,4,2.2,5.3
			c0,0-2.3-0.8-3.1-1.1c-1.1-0.4-1.2-0.6-1-2.1l1.7-11.9C78,67,78.6,68.2,78.2,69.4 M79.8,48.6l-0.6-0.3c-0.2-1.2-0.6-2.8-0.6-2.8
			l-0.5-2.9l-0.6,0l0.4,2.6c0.1,0.8-0.6,0.9-0.9,0.9c-0.1-1.5-0.3-3.6-0.3-3.6L76.1,42l0.3,4.5c0.1,2,0.1,3.5-1.4,4l-0.8-2.7
			c1.6-0.5,1.6-1.9,1.4-4l-0.2-2.2L74.6,41l0.3,2.8c0.1,1.3,0.5,3.2-0.9,3.5l-0.6-2c0.8-0.3,0.9-0.9,0.7-2.6l-0.2-1.8L73.2,40
			l0.4,2.7c0.1,1.6,0.1,1.7-0.4,1.9c-1-3.1-1.2-5.4-1.2-5.4c-0.2-3.9,0.5-4.6,1.5-4.6c0.6,0,1.1,0.5,1,1.1c-0.1,1-1.4,0.8-1.4,0.8
			s-0.1,1.2,0.5,2.1c1,1.3,2.9,2,4.7,1.9c0.8-2.4,1.1-3.3,1.3-4C79.8,41.9,79.8,48.6,79.8,48.6 M77.5,52.7L75.9,53
			c-0.3-0.8-0.5-1.3-0.5-1.3C75.9,51.9,77.2,52.5,77.5,52.7 M77.1,46.8c0,0,0.7,0.1,1.1-0.5c0,0,0.4,1.3,0.5,2.3
			c0.1,1.1-0.2,2.2-0.6,3.7l-0.8-1.7l-0.5,0.2c0,0,0.4,0.9,0.6,1.1l-2.1-1C76.9,50.5,77.2,49.3,77.1,46.8 M77.2,56.6
			c-0.2-0.6-0.7-2-1.1-3.1l3.3-0.7v-0.5l-0.8,0.1c0.2-0.9,0.4-1.9,0.8-3.2l0.4,0.2c0,1.1,0,4.2,0,4.2c-0.4,0-0.8,0.1-0.8,0.5
			c0,0.3,0.4,0.4,0.8,0.4C79.8,55.8,79.1,56.6,77.2,56.6 M79.8,63.7c-0.6-1.5-0.9-2.4-1.4-3.9l1.5-1.9C80,58.3,80,61.9,79.8,63.7
			 M79.9,56.8L78.2,59c-0.2-0.6-0.4-1.1-0.6-1.8c0.9,0,1.7-0.1,2.4-1.1L79.9,56.8z M79.2,35.7c-0.4,1.4-1,3.2-1.4,4.3
			c-1.5,0.1-4.1-0.9-4.1-2.8c1.2,0.1,1.5-0.9,1.4-1.7c-0.2-1.2-1.3-1.5-2.4-1.2c1.7-1.9,3.5-3.3,6.1-4.8
			C77.1,33,79.9,33.1,79.2,35.7 M73.9,30.2c0.3,0.3,0.7,0.7,1.1,1c-0.9,0.7-2,1.7-2.7,2.6c0-0.3-0.1-0.5-0.2-0.9
			C73.2,32.5,74,31.9,73.9,30.2 M65.5,32.7c0,0,0.5-0.1,0.7-0.4c0.3,0.9,0.9,1.4,1.6,1.6c0,1.4-1.2,1.9-2.4,1.2
			C65.5,34.5,65.5,33.6,65.5,32.7 M60.5,40.2l0.2-4.6l0.7-0.4c0.1,1.5,0.2,4.7,0.2,4.7C61.3,40,61,40.1,60.5,40.2 M63,40.1
			c-0.2,0.7-0.6,2.6-0.8,3.4L61.8,44l-0.6,3.4c0,0,0.2,0.4,0.3,0.6c-2.2,9.8-1.3,20.9-1.2,26.5c0,2.5-0.3,2.4-1.7,3.3l1.9-36.6
			C61.2,40.9,62.3,40.7,63,40.1 M51.1,26.2c0.5-1,1.4-2.4,2.1-3l0.9,0.7l0,0.1L51.1,26.2z M54.4,24.4c0.1,0.1,0.2,0.1,0.4,0L58,27
			c-0.6,1.4-1,2.3-1.5,4.4L54.2,33c-0.2-0.1-0.3,0-0.3,0l-5.4-4.3l0-0.1l0.8-0.5l0.3,0.7c0.1,0.3,0.3,0.3,0.4,0
			c0.3-0.6,0.5-1.1,1-1.8L54.4,24.4z M42,23.6l0-0.1l2-1.5c0.6,1.4,1.2,3.3,1.6,4.4L42,23.6z M45.7,26.9c0,0,0.4,1,0.5,1.4
			c0.1,0.3,0.2,0.3,0.4,0.1l0.3-0.5c0,0,0.9,0.7,0.9,0.7l0,0.1L41.5,33l-6-4.8c0-0.1,0-0.2,0-0.2l6-4.2c0,0,0.2,0,0.3,0L45.7,26.9z
			 M21.7,59.3c0-1,0.5-2.1,1.4-3.2l0.5,1.8c-0.2,0-0.8,0.1-0.8,0.1l0,1c1.1-1.5,3,0.6,2.7,2.9c-0.4,0.6-1.2,1.5-1.8,2
			c-0.2-0.2-0.9-1.5-1.1-1.9c0.8,0,1.7-0.3,1.4-1.6c-0.6,0.9-2.4,1.5-2.4-0.3c0.2,0,0.8,0.1,0.8-0.5C22.4,59.4,22.1,59.3,21.7,59.3
			 M24.7,54.7c-0.5-0.1-0.8-0.3-1-1.1c-0.1-0.4-0.1-0.5-0.2-1c0.3-0.1,0.8-0.2,1.1-0.4L24.7,54.7z M26.8,56.4c-0.5,0-1.5-0.1-1.6-2
			c0-0.7-0.1-1.3-0.1-2.4c0.3-0.2,0.7-0.3,1-0.5C26.3,53,26.3,55.2,26.8,56.4 M27.2,48c0-0.4,0.4-0.8,0.9-0.7
			c0.8,0.1,0.8,0.9,0.8,1.7c0,0.7-0.1,1.5,0,2.9c-0.6,0-0.9-0.3-0.9-1.1l0-1.2l-0.4,0.3c0,1.5,0.1,3,0.4,4.2c-1.5,0-1.2-1.9-1.3-3.6
			c-1.1,0.7-2.3,1.3-3.5,1.6L23,51.4c1.7-0.5,3.2-1.2,4.6-2.5C27.2,48.7,27.2,48.4,27.2,48 M20,46.1c0.5,0.2,0.8,0.7,1.2,1.1
			c0.2-0.1,0.5-0.4,0.8-0.1c1,0.7,0.7,2.4-0.2,2.4C21.2,49.4,20.4,47.5,20,46.1 M19.6,52.4c0,1.1-0.4,2-1.5,2
			c0.1-0.6,0.3-1.5,0.4-2.4C18.8,52.1,19.3,52.2,19.6,52.4 M21.4,65.8c0,0-1.5-1.1-2-1.7c0.6-0.5,1.3-1.1,1.6-1.8
			C21,63.3,21.2,64.9,21.4,65.8 M21.3,56.8C20.6,56.5,20,55,20,54.2c0-0.6,0.1-1.6,0.5-2.4c-0.9,0.3-1.6-0.2-2.4-0.6
			c-0.3,2-0.3,4.6-2.1,4.6c0.5-1.1,0.9-2.7,1.2-4.9l-0.4-0.3c-0.1,0.8-0.2,1.8-0.4,2.7c-0.2,0.5-0.6,0.5-1,0.5
			c0.4-1.1,0.5-2.6,0.6-4.2l-0.4-0.4c-0.1,0.6-0.2,1-0.9,1.3c0.2-0.7,0.2-2.1,0.2-3.2c0-0.8,0.4-1.1,0.9-1c0.5,0,0.8,0.4,0.8,1
			c0,0.5-0.2,0.8-0.9,0.9c1.3,1.8,3.2,2.9,5.3,3.1c0.2-0.6,0.2-0.6,0.3-1.2l1.1,0c-0.1,2.1,0.7,1.9,0.9,3.8
			C23.3,55.3,22,57.2,21.3,56.8 M33.8,85.9l4.6,0c-0.9,0.2-1,0.8-1,1.7c-0.3,0-1.2,0.1-1.6,0.6c-0.2-0.4-0.5-0.7-1.2-0.6
			C34.6,86.9,34.3,86.1,33.8,85.9 M43.3,87.4c0,0-0.8,0-1.4,0.6c-0.2-0.4-0.6-0.6-1.2-0.6c0-1-0.5-1.4-1.1-1.6l4.4,0
			C43.3,86.2,43.3,87.4,43.3,87.4 M53,91c0.8,0,1-0.1,1.3-0.6c0.3,0.6,0.8,0.8,1.4,0.7c0,0.7,0.3,1.5,1.2,1.9l-4.9,0
			C53,92.5,53.1,91.6,53,91 M50,90.7c-0.5,0-1.6-0.1-1.6-1.3c-0.1-1.2,1-1.4,1.6-1.4c0-0.4-0.2-1.8,1.1-1.8c1.4,0,1.3,1.4,1.3,1.8
			c0.5,0,1.6,0,1.7,1.1c0.2,1.8-1.2,1.4-1.6,1.4c0,0.7,0.3,2-1,2.1C50,92.7,50,91.1,50,90.7 M46.8,87.6c0-1.1-0.3-1.4-0.7-1.7l4.1,0
			c-0.6,0.3-0.8,0.9-0.8,1.6c-0.6,0-1,0.4-1.3,0.7C47.6,87.8,47.4,87.6,46.8,87.6 M46.7,91.1c0.7,0,1.1-0.3,1.3-0.7
			c0.2,0.4,0.8,0.8,1.5,0.8c0,0.9,0.2,1.5,1.1,1.8l-4.8,0C46.4,92.7,46.8,91.8,46.7,91.1 M55.7,87.4c-0.7,0-1.1,0.4-1.5,0.7
			c-0.4-0.4-0.6-0.6-1.4-0.6c0-0.8-0.2-1.2-0.7-1.7l4.3,0C56,86.2,55.7,86.7,55.7,87.4 M65,90.9c0.5,0,0.8-0.3,1-0.6
			c0.3,0.4,0.6,0.7,1.1,0.6c0,0.8,0.4,1.6,1.2,2l-4.3,0C64.8,92.6,65,91.6,65,90.9 M67.3,87.4c-0.5,0-1,0.2-1.2,0.6
			c-0.4-0.4-0.7-0.6-1.2-0.5c0-0.8-0.3-1.2-0.6-1.6l3.7,0C67.5,86.2,67.3,86.9,67.3,87.4 M60.2,88c-0.4-0.3-0.6-0.5-1.2-0.4
			c0-0.9-0.2-1.3-0.8-1.7l4.1,0c-0.6,0.4-0.8,0.9-0.8,1.6C61.1,87.4,60.6,87.5,60.2,88 M62.1,88c0-0.5-0.1-1.8,1-1.8
			c1.3-0.1,1.1,1.4,1.2,1.8c0.4,0,1.6,0,1.6,1.2c0,1.4-1.5,1.1-1.5,1.1c0,0.6,0.2,2.3-1.2,2.1c-1.3-0.2-1-1.4-1.1-1.9
			c-0.5,0-1.5,0.1-1.6-1.3C60.4,87.9,61.6,88,62.1,88 M69,92.4c-1.4,0-1.3-1.6-1.4-2c-0.3,0-1.2,0.1-1.3-1.1c-0.1-1.2,1-1.2,1.5-1.2
			c0-0.5-0.3-1.7,1-1.8c1.3-0.1,1.2,1.4,1.2,1.8c0.6,0,1.5-0.1,1.5,1.2c0,1.3-1.1,1.2-1.5,1.3C70.1,90.9,70.4,92.3,69,92.4
			 M73.3,87.3c-0.7,0-1.1,0.3-1.5,0.8c-0.2-0.3-0.5-0.5-1.1-0.6c-0.1-0.8-0.3-1.3-0.8-1.7l4.1,0C73.4,86.1,73.3,86.8,73.3,87.3
			 M80,85.8c-0.4,0.4-0.6,0.9-0.6,1.4c-0.6,0-1.2,0.1-1.5,0.8c-0.3-0.6-0.6-0.7-1.2-0.7c0-0.9-0.3-1.2-0.7-1.6L80,85.8z M36,85.3
			c0.2-1.5-1.6-1.4-1.8-2.4c6,0.4,8.8,2.3,10-1c1.6,0.3,3.8-0.3,4-2.5l7.6-0.1c0,0-2.4,1.3-3.9,2.2c1,1.1,2.2,0.5,2.9,1
			c0.6,0.4,0.7,1.5,2.3,2.1c3.5,1.3,4.5-0.4,5.8-1c0.6,0.2,2.4,1.1,4.6,1.3l1.7-1.4c1.7,0.5,3.2,0.8,5.8,0.5
			c1.3,0.6,3.2,0.4,2.2-1.5l3.6,2.7L36,85.3z M92.1,63.9c-0.1,0.4-0.4,0.9-0.6,1.3c-0.7-0.3-0.1-0.5-0.2-1.2c-0.2-2.4-3-3.8-0.4-5.6
			C92.3,60.5,90.6,61.8,92.1,63.9 M95.2,55.1c0,0,2.2,3.2-0.7,4.6C93.4,59,92.6,56.6,95.2,55.1 M94.6,50.1c0-0.4,0.2-0.8,0.4-0.8
			c0.2,0,0.4,0.3,0.4,0.7c0,0.4-0.2,0.7-0.4,0.7C94.8,50.7,94.6,50.5,94.6,50.1 M94.9,54.5c-1.3,1.1-2,1.8-2.1,3.1
			c0,2.1,1.9,2.5,0.8,3.3c-0.6,0.3-1-0.5-1.6-0.7c0.1-1.2-1-2.3-0.8-3.8l0.6,0c-0.2-1.2-0.5-3.2,0.2-3.5l0.5,0.7
			c1.6-1,1.6-2.9,1.6-2.9l0.3,0.4C94.3,52.2,94.4,53.4,94.9,54.5 M61.2,25.4c0.3,0.3,0.4-0.6,0.7-0.2c0.4,0.6-0.9,1-0.5,1.4
			c0.2,0.2,0.4-0.5,0.6-0.2c0.3,0.4-0.5,0.7-0.4,1c0.2,0.4,0.5-0.3,0.7,0.1c0.2,0.4-0.7,1.3-1.4,1.8c-1,0.6-2.8,0-2.1-2.5
			c0.4-1.3,1.2-2.2,2.2-2.9c0.4-0.3,1-0.1,0.6,0.5C61.4,24.8,61,25.1,61.2,25.4 M46.5,16.3c-0.2,0.2-1.5-1.1-1.9-1.7
			c0.5-0.2,1-0.3,1.5-0.4C45.4,14.8,46.8,16,46.5,16.3 M81,92.3c-1.2,0-1.2-1.4-1.2-1.9c-0.5,0-1.7,0-1.6-1.3c0-1.4,1.2-1.4,1.7-1.4
			c0-0.4-0.1-1.6,1.1-1.7c1.1-0.1,1,1.2,1.1,1.8c0,0,1.5-0.1,1.6,1.1c0.1,1.2-1,1.3-1.5,1.4C82.2,90.9,82.2,92.3,81,92.3 M84.3,85.9
			c-0.5,0.3-0.9,1-0.9,1.6c-0.2-0.1-0.5-0.2-0.8-0.2c0-0.6-0.1-1.2-0.7-1.5l1.1,0l1.3-1.5C84.2,84.7,84.2,85.3,84.3,85.9 M88.8,79.3
			l0.1,4.4c-0.4-0.4-1.2-0.5-1.9,0c-0.1-0.5-0.8-1-1.6-0.7L88.8,79.3z M82.8,85c0,0-1.4-3.5-1.5-3.9c-0.3-0.8-0.5-1-1.5-1.4v-0.7
			l8.4,0L82.8,85z M98.1,38.6l-6.3-4.7l0-0.1l2.7-1.9C95.7,33.9,97,36.4,98.1,38.6 M88.7,24.2C81.4,17,72.1,12.5,62,11.3
			c0.3-1.4,0.9-3.1,1.4-4.5c-0.4-1.5-0.8-3.1-1.2-4.6l-0.3,0c-0.6,1.6-1.2,2.8-1.8,4.4c0.3,2,0.8,3.3,1,4.7c0,0-3.1-0.2-4.7-0.2
			C31.2,11,10.8,31.5,10.8,56.7c0,12.2,4.7,23.7,13.4,32.3c8.6,8.6,20.2,13.3,32.4,13.5c12.3,0.1,23.7-5,32.2-13.7
			c8.7-8.7,13.4-20.1,13.4-32.3C102.2,44.3,97.4,32.9,88.7,24.2"/>
		<path class="st0" d="M32.7,90.1c0.4,0,0.8-0.4,0.8-0.8s-0.4-0.8-0.8-0.8c-0.4,0-0.8,0.4-0.8,0.8C31.9,89.8,32.2,90.1,32.7,90.1"/>
		<path class="st0" d="M68.9,88.4c-0.4,0-0.8,0.4-0.8,0.8c0,0.4,0.4,0.8,0.8,0.8c0.4,0,0.8-0.4,0.8-0.8
			C69.7,88.8,69.3,88.4,68.9,88.4"/>
		<path class="st0" d="M63.2,90c0.4,0,0.8-0.4,0.8-0.8c0-0.4-0.4-0.8-0.8-0.8c-0.4,0-0.8,0.4-0.8,0.8C62.4,89.7,62.7,90,63.2,90"/>
		<path class="st0" d="M57.3,88.5c-0.4,0-0.8,0.4-0.8,0.8c0,0.4,0.4,0.8,0.8,0.8c0.4,0,0.8-0.4,0.8-0.8
			C58.2,88.9,57.8,88.5,57.3,88.5"/>
		<path class="st0" d="M51,90.1c0.4,0,0.8-0.4,0.8-0.8c0-0.5-0.4-0.8-0.8-0.8c-0.4,0-0.8,0.4-0.8,0.8C50.2,89.8,50.5,90.1,51,90.1"
			/>
		<path class="st0" d="M45.8,89.3c0-0.4-0.4-0.8-0.8-0.8c-0.4,0-0.8,0.4-0.8,0.8c0,0.4,0.4,0.8,0.8,0.8
			C45.5,90.1,45.8,89.8,45.8,89.3"/>
		<path class="st0" d="M39.7,89.4c0-0.4-0.4-0.8-0.8-0.8c-0.4,0-0.8,0.4-0.8,0.8c0,0.4,0.4,0.8,0.8,0.8
			C39.4,90.2,39.7,89.9,39.7,89.4"/>
		<path class="st0" d="M86.4,85.5c-0.4,0.1-0.7,0.5-0.7,0.9c0,0.5,0.5,0.9,0.9,0.8c0.4-0.1,0.6-0.4,0.6-0.8
			C87.2,85.8,86.8,85.4,86.4,85.5"/>
		<path class="st0" d="M27.5,86.5c0-0.4-0.4-0.8-0.7-0.8c-0.5,0-0.6,0.5-0.6,0.8c0,0.4,0.4,0.8,0.7,0.8
			C27.3,87.3,27.5,86.9,27.5,86.5"/>
		<path class="st0" d="M81,88.3c-0.4,0-0.8,0.4-0.8,0.8c0,0.4,0.4,0.8,0.8,0.8c0.4,0,0.8-0.4,0.8-0.8C81.8,88.7,81.4,88.3,81,88.3"
			/>
		<path class="st0" d="M75.6,89.1c0-0.4-0.4-0.8-0.8-0.8c-0.4,0-0.8,0.4-0.8,0.8c0,0.4,0.4,0.8,0.8,0.8
			C75.3,89.9,75.6,89.6,75.6,89.1"/>
		<path class="st0" d="M63.5,37.7c0,0.2-0.2,0.4-0.4,0.4c-0.2,0-0.4-0.2-0.4-0.4c0-0.2,0.2-0.4,0.4-0.4
			C63.3,37.3,63.5,37.5,63.5,37.7"/>
		<path class="st0" d="M62,33.2c0,0.2-0.2,0.4-0.4,0.4c-0.2,0-0.4-0.2-0.4-0.4c0-0.2,0.2-0.4,0.4-0.4C61.8,32.8,62,33,62,33.2"/>
		<path class="st0" d="M63.4,35.2c0,0.2-0.2,0.4-0.4,0.4c-0.2,0-0.4-0.2-0.4-0.4c0-0.2,0.2-0.4,0.4-0.4C63.2,34.8,63.4,35,63.4,35.2
			"/>
		<path class="st0" d="M39,53.4c0,0.2-0.2,0.4-0.4,0.4c-0.2,0-0.4-0.2-0.4-0.4c0-0.2,0.2-0.4,0.4-0.4C38.8,53,39,53.1,39,53.4"/>
		<path class="st0" d="M38.2,55c0,0.2-0.2,0.4-0.4,0.4c-0.2,0-0.4-0.2-0.4-0.4c0-0.2,0.2-0.4,0.4-0.4C38,54.7,38.2,54.8,38.2,55"/>
		<path class="st0" d="M39.7,51.5c0,0.2-0.2,0.4-0.4,0.4c-0.2,0-0.4-0.2-0.4-0.4c0-0.2,0.2-0.4,0.4-0.4
			C39.5,51.1,39.7,51.2,39.7,51.5"/>
		<path class="st0" d="M41,67.8c0,0.2-0.2,0.4-0.4,0.4c-0.2,0-0.4-0.2-0.4-0.4c0-0.2,0.2-0.4,0.4-0.4S41,67.6,41,67.8"/>
		<path class="st0" d="M38.2,67.7c0,0.2-0.2,0.4-0.4,0.4c-0.2,0-0.4-0.2-0.4-0.4c0-0.2,0.2-0.4,0.4-0.4C38,67.3,38.2,67.5,38.2,67.7
			"/>
		<path class="st0" d="M43.8,67.8c0,0.2-0.2,0.4-0.4,0.4c-0.2,0-0.4-0.2-0.4-0.4c0-0.2,0.2-0.4,0.4-0.4
			C43.6,67.4,43.8,67.6,43.8,67.8"/>
		<path class="st0" d="M37.1,71.2c0,0.2-0.2,0.4-0.4,0.4c-0.2,0-0.4-0.2-0.4-0.4c0-0.2,0.2-0.4,0.4-0.4C36.9,70.8,37.1,71,37.1,71.2
			"/>
		<path class="st0" d="M45.9,71.2c0,0.2-0.2,0.4-0.4,0.4c-0.2,0-0.4-0.2-0.4-0.4c0-0.2,0.2-0.4,0.4-0.4C45.7,70.8,45.9,71,45.9,71.2
			"/>
		<path class="st0" d="M42.9,71.4c0,0.2-0.2,0.4-0.4,0.4c-0.2,0-0.4-0.2-0.4-0.4s0.2-0.4,0.4-0.4C42.7,70.9,42.9,71.1,42.9,71.4"/>
		<path class="st0" d="M39.9,71.6c0,0.2-0.2,0.4-0.4,0.4c-0.2,0-0.4-0.2-0.4-0.4c0-0.2,0.2-0.4,0.4-0.4
			C39.7,71.1,39.9,71.3,39.9,71.6"/>
		<path class="st0" d="M35.5,67.1c0,0.2-0.2,0.4-0.4,0.4c-0.2,0-0.4-0.2-0.4-0.4c0-0.2,0.2-0.4,0.4-0.4
			C35.3,66.6,35.5,66.8,35.5,67.1"/>
		<path class="st0" d="M68,56.9c0,0.2-0.2,0.4-0.4,0.4c-0.2,0-0.4-0.2-0.4-0.4s0.2-0.4,0.4-0.4C67.9,56.5,68,56.7,68,56.9"/>
		<path class="st0" d="M65.1,56c0,0.2-0.2,0.4-0.4,0.4c-0.2,0-0.4-0.2-0.4-0.4c0-0.2,0.2-0.4,0.4-0.4C64.9,55.6,65.1,55.8,65.1,56"
			/>
		<path class="st0" d="M71.1,57c0,0.2-0.2,0.4-0.4,0.4c-0.2,0-0.4-0.2-0.4-0.4c0-0.2,0.2-0.4,0.4-0.4C70.9,56.6,71.1,56.8,71.1,57"
			/>
		<path class="st0" d="M69.7,52.8c0,0.2-0.2,0.4-0.4,0.4c-0.2,0-0.4-0.2-0.4-0.4c0-0.2,0.2-0.4,0.4-0.4
			C69.5,52.4,69.7,52.6,69.7,52.8"/>
		<path class="st0" d="M67,52.6c0,0.2-0.2,0.4-0.4,0.4s-0.4-0.2-0.4-0.4s0.2-0.4,0.4-0.4S67,52.4,67,52.6"/>
		<path class="st0" d="M64.6,51.7c0,0.2-0.2,0.4-0.4,0.4c-0.2,0-0.4-0.2-0.4-0.4c0-0.2,0.2-0.4,0.4-0.4
			C64.4,51.3,64.6,51.5,64.6,51.7"/>
		<path class="st0" d="M62.5,54.8c0,0.2-0.2,0.4-0.4,0.4c-0.2,0-0.4-0.2-0.4-0.4c0-0.2,0.2-0.4,0.4-0.4
			C62.3,54.4,62.5,54.6,62.5,54.8"/>
		<path class="st0" d="M72.2,52.8c0,0.2-0.2,0.4-0.4,0.4s-0.4-0.2-0.4-0.4c0-0.2,0.2-0.4,0.4-0.4S72.2,52.6,72.2,52.8"/>
		<path class="st0" d="M35.9,63.3c0,0.3-0.2,0.5-0.5,0.5c-0.3,0-0.5-0.2-0.5-0.5c0-0.3,0.2-0.5,0.5-0.5C35.7,62.8,35.9,63,35.9,63.3
			"/>
		<path class="st0" d="M37.5,64.1c0,0.3-0.2,0.5-0.5,0.5c-0.3,0-0.5-0.2-0.5-0.5s0.2-0.5,0.5-0.5C37.3,63.6,37.5,63.8,37.5,64.1"/>
		<path class="st0" d="M39.3,64.6c0,0.3-0.2,0.5-0.5,0.5s-0.5-0.2-0.5-0.5s0.2-0.5,0.5-0.5S39.3,64.3,39.3,64.6"/>
		<path class="st0" d="M41.3,64.8c0,0.3-0.2,0.5-0.5,0.5s-0.5-0.2-0.5-0.5c0-0.3,0.2-0.5,0.5-0.5S41.3,64.5,41.3,64.8"/>
		<path class="st0" d="M43.3,64.8c0,0.3-0.2,0.5-0.5,0.5c-0.3,0-0.5-0.2-0.5-0.5c0-0.3,0.2-0.5,0.5-0.5S43.3,64.6,43.3,64.8"/>
		<path class="st0" d="M45.2,64.7c0,0.3-0.2,0.5-0.5,0.5c-0.3,0-0.5-0.2-0.5-0.5s0.2-0.5,0.5-0.5C45,64.3,45.2,64.5,45.2,64.7"/>
		<path class="st0" d="M66.8,49.1c0,0.3-0.2,0.5-0.5,0.5c-0.3,0-0.5-0.2-0.5-0.5s0.2-0.5,0.5-0.5C66.6,48.7,66.8,48.9,66.8,49.1"/>
		<path class="st0" d="M65.1,48.2c0,0.3-0.2,0.5-0.5,0.5c-0.3,0-0.5-0.2-0.5-0.5c0-0.3,0.2-0.5,0.5-0.5C64.9,47.8,65.1,48,65.1,48.2
			"/>
		<path class="st0" d="M63.7,47c0,0.3-0.2,0.5-0.5,0.5c-0.3,0-0.5-0.2-0.5-0.5c0-0.3,0.2-0.5,0.5-0.5C63.4,46.5,63.7,46.7,63.7,47"
			/>
		<path class="st0" d="M68.8,49.6c0,0.3-0.2,0.5-0.5,0.5c-0.3,0-0.5-0.2-0.5-0.5c0-0.3,0.2-0.5,0.5-0.5
			C68.6,49.1,68.8,49.3,68.8,49.6"/>
		<path class="st0" d="M70.8,49.5c0,0.3-0.2,0.5-0.5,0.5c-0.3,0-0.5-0.2-0.5-0.5s0.2-0.5,0.5-0.5C70.6,49.1,70.8,49.3,70.8,49.5"/>
		<path class="st0" d="M73.2,48.9c0,0.3-0.2,0.5-0.5,0.5c-0.3,0-0.5-0.2-0.5-0.5c0-0.3,0.2-0.5,0.5-0.5C73,48.4,73.2,48.6,73.2,48.9
			"/>
		<path class="st0" d="M51.9,73c-0.5,0-0.9,0.4-0.9,0.9s0.4,0.9,0.9,0.9c0.5,0,0.9-0.4,0.9-0.9S52.4,73,51.9,73z M51.9,74.4
			c-0.3,0-0.5-0.2-0.5-0.5c0-0.3,0.2-0.5,0.5-0.5c0.3,0,0.5,0.2,0.5,0.5C52.4,74.2,52.2,74.4,51.9,74.4z"/>
		<path class="st0" d="M19.8,78.3c-0.5,0-0.9,0.4-0.9,0.9s0.4,0.9,0.9,0.9c0.5,0,0.9-0.4,0.9-0.9S20.3,78.3,19.8,78.3z M19.8,79.7
			c-0.3,0-0.5-0.2-0.5-0.5s0.2-0.5,0.5-0.5c0.3,0,0.5,0.2,0.5,0.5S20.1,79.7,19.8,79.7z"/>
		<path class="st0" d="M20.1,68.5c-0.5,0-0.9,0.4-0.9,0.9c0,0.5,0.4,0.9,0.9,0.9s0.9-0.4,0.9-0.9C21,68.9,20.6,68.5,20.1,68.5z
			 M20.1,70c-0.3,0-0.5-0.2-0.5-0.5c0-0.3,0.2-0.5,0.5-0.5c0.3,0,0.5,0.2,0.5,0.5C20.6,69.7,20.4,70,20.1,70z"/>
		<path class="st0" d="M27.2,63.5c-0.5,0-0.9,0.4-0.9,0.9c0,0.5,0.4,0.9,0.9,0.9c0.5,0,0.9-0.4,0.9-0.9
			C28.1,63.9,27.7,63.5,27.2,63.5z M27.2,64.9c-0.3,0-0.5-0.2-0.5-0.5s0.2-0.5,0.5-0.5c0.3,0,0.5,0.2,0.5,0.5S27.5,64.9,27.2,64.9z"
			/>
		<path class="st0" d="M26.8,73.2c-0.5,0-0.9,0.4-0.9,0.9c0,0.5,0.4,0.9,0.9,0.9c0.5,0,0.9-0.4,0.9-0.9
			C27.7,73.6,27.3,73.2,26.8,73.2z M26.8,74.6c-0.3,0-0.5-0.2-0.5-0.5s0.2-0.5,0.5-0.5c0.3,0,0.5,0.2,0.5,0.5S27.1,74.6,26.8,74.6z"
			/>
		<path class="st0" d="M44.3,97.5c-0.5,0-0.9,0.4-0.9,0.9c0,0.5,0.4,0.9,0.9,0.9c0.5,0,0.9-0.4,0.9-0.9
			C45.2,97.9,44.8,97.5,44.3,97.5z M44.3,98.9c-0.3,0-0.5-0.2-0.5-0.5c0-0.3,0.2-0.5,0.5-0.5c0.3,0,0.5,0.2,0.5,0.5
			C44.8,98.7,44.6,98.9,44.3,98.9z"/>
		<path class="st0" d="M71.3,97.5c-0.5,0-0.9,0.4-0.9,0.9c0,0.5,0.4,0.9,0.9,0.9s0.9-0.4,0.9-0.9C72.2,97.9,71.8,97.5,71.3,97.5z
			 M71.3,98.9c-0.3,0-0.5-0.2-0.5-0.5c0-0.3,0.2-0.5,0.5-0.5c0.3,0,0.5,0.2,0.5,0.5C71.8,98.7,71.6,98.9,71.3,98.9z"/>
		<path class="st0" d="M57.8,97.6c-0.5,0-0.9,0.4-0.9,0.9c0,0.5,0.4,0.9,0.9,0.9c0.5,0,0.9-0.4,0.9-0.9C58.7,98,58.3,97.6,57.8,97.6
			z M57.8,99c-0.3,0-0.5-0.2-0.5-0.5c0-0.3,0.2-0.5,0.5-0.5c0.3,0,0.5,0.2,0.5,0.5C58.3,98.7,58.1,99,57.8,99z"/>
		<path class="st0" d="M79.2,19.7c-0.5,0-0.9,0.4-0.9,0.9c0,0.5,0.4,0.9,0.9,0.9s0.9-0.4,0.9-0.9C80.1,20.1,79.7,19.7,79.2,19.7z
			 M79.2,21.1c-0.3,0-0.5-0.2-0.5-0.5c0-0.3,0.2-0.5,0.5-0.5s0.5,0.2,0.5,0.5C79.7,20.9,79.4,21.1,79.2,21.1z"/>
		<path class="st0" d="M85.1,24.1c-0.5,0-0.9,0.4-0.9,0.9c0,0.5,0.4,0.9,0.9,0.9c0.5,0,0.9-0.4,0.9-0.9C86,24.5,85.6,24.1,85.1,24.1
			z M85.1,25.5c-0.3,0-0.5-0.2-0.5-0.5s0.2-0.5,0.5-0.5c0.3,0,0.5,0.2,0.5,0.5S85.4,25.5,85.1,25.5z"/>
		<path class="st0" d="M91.2,28.6c-0.5,0-0.9,0.4-0.9,0.9c0,0.5,0.4,0.9,0.9,0.9c0.5,0,0.9-0.4,0.9-0.9C92.1,29,91.7,28.6,91.2,28.6
			z M91.2,30c-0.3,0-0.5-0.2-0.5-0.5s0.2-0.5,0.5-0.5c0.3,0,0.5,0.2,0.5,0.5S91.5,30,91.2,30z"/>
		<path class="st0" d="M97.7,42.7c-0.5,0-0.9,0.4-0.9,0.9s0.4,0.9,0.9,0.9s0.9-0.4,0.9-0.9S98.2,42.7,97.7,42.7z M97.7,44.1
			c-0.3,0-0.5-0.2-0.5-0.5c0-0.3,0.2-0.5,0.5-0.5c0.3,0,0.5,0.2,0.5,0.5C98.2,43.8,98,44.1,97.7,44.1z"/>
		<path class="st0" d="M91.1,37.9c-0.5,0-0.9,0.4-0.9,0.9c0,0.5,0.4,0.9,0.9,0.9c0.5,0,0.9-0.4,0.9-0.9C92,38.3,91.6,37.9,91.1,37.9
			z M91.1,39.3c-0.3,0-0.5-0.2-0.5-0.5s0.2-0.5,0.5-0.5c0.3,0,0.5,0.2,0.5,0.5S91.4,39.3,91.1,39.3z"/>
		<path class="st0" d="M84.3,42.5c-0.5,0-0.9,0.4-0.9,0.9c0,0.5,0.4,0.9,0.9,0.9c0.5,0,0.9-0.4,0.9-0.9
			C85.2,42.9,84.8,42.5,84.3,42.5z M84.3,43.9c-0.3,0-0.5-0.2-0.5-0.5c0-0.3,0.2-0.5,0.5-0.5c0.3,0,0.5,0.2,0.5,0.5
			C84.8,43.7,84.6,43.9,84.3,43.9z"/>
		<path class="st0" d="M97.9,61.5c-0.5,0-0.9,0.4-0.9,0.9c0,0.5,0.4,0.9,0.9,0.9s0.9-0.4,0.9-0.9C98.8,62,98.4,61.5,97.9,61.5z
			 M97.9,63c-0.3,0-0.5-0.2-0.5-0.5c0-0.3,0.2-0.5,0.5-0.5c0.3,0,0.5,0.2,0.5,0.5C98.4,62.7,98.2,63,97.9,63z"/>
		<path class="st0" d="M90.7,75.6c-0.5,0-0.9,0.4-0.9,0.9c0,0.5,0.4,0.9,0.9,0.9s0.9-0.4,0.9-0.9C91.6,76,91.2,75.6,90.7,75.6z
			 M90.7,77.1c-0.3,0-0.5-0.2-0.5-0.5c0-0.3,0.2-0.5,0.5-0.5c0.3,0,0.5,0.2,0.5,0.5C91.2,76.8,91,77.1,90.7,77.1z"/>
		<path class="st0" d="M84.4,70.4c-0.5,0-0.9,0.4-0.9,0.9s0.4,0.9,0.9,0.9s0.9-0.4,0.9-0.9S84.9,70.4,84.4,70.4z M84.4,71.8
			c-0.3,0-0.5-0.2-0.5-0.5s0.2-0.5,0.5-0.5c0.3,0,0.5,0.2,0.5,0.5S84.6,71.8,84.4,71.8z"/>
		<path class="st0" d="M47.2,41.7c-0.5,0-0.9,0.4-0.9,0.9s0.4,0.9,0.9,0.9s0.9-0.4,0.9-0.9S47.7,41.7,47.2,41.7z M47.2,43.2
			c-0.3,0-0.5-0.2-0.5-0.5c0-0.3,0.2-0.5,0.5-0.5c0.3,0,0.5,0.2,0.5,0.5C47.7,42.9,47.5,43.2,47.2,43.2z"/>
		<path class="st0" d="M21.9,41c-0.5,0-0.9,0.4-0.9,0.9c0,0.5,0.4,0.9,0.9,0.9c0.5,0,0.9-0.4,0.9-0.9C22.8,41.4,22.4,41,21.9,41z
			 M21.9,42.4c-0.3,0-0.5-0.2-0.5-0.5s0.2-0.5,0.5-0.5c0.3,0,0.5,0.2,0.5,0.5S22.2,42.4,21.9,42.4z"/>
		<path class="st0" d="M13.1,63.5c-0.5,0-0.9,0.4-0.9,0.9c0,0.5,0.4,0.9,0.9,0.9c0.5,0,0.9-0.4,0.9-0.9C14,63.9,13.6,63.5,13.1,63.5
			z M13.1,64.9c-0.3,0-0.5-0.2-0.5-0.5c0-0.3,0.2-0.5,0.5-0.5s0.5,0.2,0.5,0.5C13.6,64.6,13.3,64.9,13.1,64.9z"/>
		<path class="st0" d="M51.9,64.3c-0.5,0-0.9,0.4-0.9,0.9c0,0.5,0.4,0.9,0.9,0.9s0.9-0.4,0.9-0.9C52.8,64.7,52.4,64.3,51.9,64.3z
			 M51.9,65.7c-0.3,0-0.5-0.2-0.5-0.5c0-0.3,0.2-0.5,0.5-0.5c0.3,0,0.5,0.2,0.5,0.5C52.4,65.5,52.2,65.7,51.9,65.7z"/>
		<path class="st0" d="M28.3,36.7c-0.5,0-0.9,0.4-0.9,0.9c0,0.5,0.4,0.9,0.9,0.9s0.9-0.4,0.9-0.9C29.2,37.1,28.8,36.7,28.3,36.7z
			 M28.3,38.1c-0.3,0-0.5-0.2-0.5-0.5c0-0.3,0.2-0.5,0.5-0.5c0.3,0,0.5,0.2,0.5,0.5C28.8,37.8,28.6,38.1,28.3,38.1z"/>
		<path class="st0" d="M53.8,37.2c-0.5,0-0.9,0.4-0.9,0.9s0.4,0.9,0.9,0.9s0.9-0.4,0.9-0.9S54.3,37.2,53.8,37.2z M53.8,38.6
			c-0.3,0-0.5-0.2-0.5-0.5s0.2-0.5,0.5-0.5c0.3,0,0.5,0.2,0.5,0.5S54.1,38.6,53.8,38.6z"/>
		<path class="st0" d="M21.9,31.6c-0.5,0-0.9,0.4-0.9,0.9c0,0.5,0.4,0.9,0.9,0.9s0.9-0.4,0.9-0.9C22.8,32.1,22.4,31.6,21.9,31.6z
			 M21.9,33.1c-0.3,0-0.5-0.2-0.5-0.5c0-0.3,0.2-0.5,0.5-0.5s0.5,0.2,0.5,0.5C22.4,32.8,22.2,33.1,21.9,33.1z"/>
		<path class="st0" d="M16.2,36.4c-0.5,0-0.9,0.4-0.9,0.9c0,0.5,0.4,0.9,0.9,0.9s0.9-0.4,0.9-0.9C17.1,36.8,16.7,36.4,16.2,36.4z
			 M16.2,37.8c-0.3,0-0.5-0.2-0.5-0.5c0-0.3,0.2-0.5,0.5-0.5c0.3,0,0.5,0.2,0.5,0.5C16.7,37.6,16.5,37.8,16.2,37.8z"/>
		<path class="st0" d="M28.5,27c-0.5,0-0.9,0.4-0.9,0.9c0,0.5,0.4,0.9,0.9,0.9c0.5,0,0.9-0.4,0.9-0.9C29.4,27.4,29,27,28.5,27z
			 M28.5,28.4c-0.3,0-0.5-0.2-0.5-0.5c0-0.3,0.2-0.5,0.5-0.5c0.3,0,0.5,0.2,0.5,0.5C29,28.2,28.8,28.4,28.5,28.4z"/>
		<path class="st0" d="M35.2,22.5c-0.5,0-0.9,0.4-0.9,0.9s0.4,0.9,0.9,0.9c0.5,0,0.9-0.4,0.9-0.9S35.7,22.5,35.2,22.5z M35.2,23.9
			c-0.3,0-0.5-0.2-0.5-0.5c0-0.3,0.2-0.5,0.5-0.5c0.3,0,0.5,0.2,0.5,0.5C35.7,23.7,35.5,23.9,35.2,23.9z"/>
		<path class="st0" d="M97.3,70.6c-0.5,0-0.9,0.4-0.9,0.9c0,0.5,0.4,0.9,0.9,0.9s0.9-0.4,0.9-0.9C98.2,71,97.8,70.6,97.3,70.6z
			 M97.3,72c-0.3,0-0.5-0.2-0.5-0.5c0-0.3,0.2-0.5,0.5-0.5c0.3,0,0.5,0.2,0.5,0.5C97.8,71.8,97.6,72,97.3,72z"/>
		<path class="st0" d="M41.6,27.5c-0.5,0-0.9,0.4-0.9,0.9s0.4,0.9,0.9,0.9c0.5,0,0.9-0.4,0.9-0.9S42.1,27.5,41.6,27.5z M41.6,28.9
			c-0.3,0-0.5-0.2-0.5-0.5c0-0.3,0.2-0.5,0.5-0.5c0.3,0,0.5,0.2,0.5,0.5C42.1,28.6,41.9,28.9,41.6,28.9z"/>
		<path class="st0" d="M47.8,32.4c-0.5,0-0.9,0.4-0.9,0.9s0.4,0.9,0.9,0.9c0.5,0,0.9-0.4,0.9-0.9S48.3,32.4,47.8,32.4z M47.8,33.8
			c-0.3,0-0.5-0.2-0.5-0.5c0-0.3,0.2-0.5,0.5-0.5c0.3,0,0.5,0.2,0.5,0.5C48.3,33.6,48.1,33.8,47.8,33.8z"/>
		<path class="st0" d="M54.3,27.6c-0.5,0-0.9,0.4-0.9,0.9c0,0.5,0.4,0.9,0.9,0.9s0.9-0.4,0.9-0.9C55.2,28,54.8,27.6,54.3,27.6z
			 M54.3,29c-0.3,0-0.5-0.2-0.5-0.5c0-0.3,0.2-0.5,0.5-0.5c0.3,0,0.5,0.2,0.5,0.5C54.8,28.8,54.6,29,54.3,29z"/>
	</g>
</g>
</svg>
