<svg xmlns="http://www.w3.org/2000/svg" viewBox="0 0 15 17.9" fill="#bb133e"><path class="st0" d="M15 6.3v10.5c0 .3-.1.6-.3.8s-.5.3-.8.3H1.1c-.3 0-.6-.1-.8-.3s-.3-.5-.3-.8V1.1C0 .8.1.5.3.3s.5-.3.8-.3h7.5c.3 0 .7.1 1 .2.3.1.7.3.9.6l3.7 3.7c.2.2.4.5.6.9s.2.6.2.9zM1.5 16.4h12v-9H8.6c-.3 0-.6-.1-.8-.3-.2-.2-.3-.5-.3-.8V1.4h-6v15zM12 9.3v.8c0 .1 0 .2-.1.3s-.2.1-.3.1H3.4c-.1 0-.2 0-.3-.1s-.1-.2-.1-.3v-.8c0-.1 0-.2.1-.3s.2-.1.3-.1h8.2c.1 0 .2 0 .3.1s.1.2.1.3zm0 3v.8c0 .1 0 .2-.1.3s-.2.1-.3.1H3.4c-.1 0-.2 0-.3-.1s-.1-.2-.1-.3v-.8c0-.1 0-.2.1-.3s.2-.1.3-.1h8.2c.1 0 .2 0 .3.1s.1.2.1.3zM9 5.9h4.4c-.1-.2-.2-.4-.3-.5L9.5 1.8c-.1-.1-.3-.2-.5-.3v4.4z"/></svg>