<svg id="Vrstva_1" xmlns="http://www.w3.org/2000/svg" viewBox="0 0 18 15"><style>.st0{fill:#bb133e}</style><path class="st0" d="M13.9 7.5c0 .2-.1.4-.2.5l-6.4 6.4c-.1.1-.3.2-.5.2s-.4 0-.6-.2-.2-.3-.2-.5v-3.4H.8c-.2 0-.4-.1-.5-.2S0 10 0 9.8V5.3c0-.2.1-.4.2-.5s.3-.2.5-.2H6V1.2c0-.2.1-.4.2-.6s.3-.2.5-.2.4.1.5.2L13.6 7c.2.2.3.3.3.5zM18 3.4v8.2c0 .9-.3 1.7-1 2.4s-1.5 1-2.4 1h-3.8c-.1 0-.2 0-.3-.1s-.1-.2-.1-.3v-.8c0-.1.1-.2.1-.2s.1-.1.2-.1h3.8c.5 0 1-.2 1.3-.6s.6-.8.6-1.3V3.4c0-.5-.2-1-.6-1.3s-.8-.6-1.3-.6h-3.9s-.1 0-.1-.1-.1-.1-.1-.1v-1c0-.1.1-.2.1-.2s.1-.1.2-.1h3.8c.9 0 1.7.3 2.4 1S18 2.5 18 3.4z"/></svg>