<svg xmlns="http://www.w3.org/2000/svg" viewBox="0 0 284.9 90"><path d="M45.1 89.3C20.7 89.4.8 69.6.7 45.2.7 20.7 20.5.8 44.9.8 69.4.7 89.2 20.5 89.3 45c.1 24.1-19.8 44.3-44.2 44.3M44.9 0C20 .1-.1 20.2 0 45.1 0 70 20.2 90.1 45.1 90s45-20.2 44.9-45.1C89.9 20 69.7-.1 44.9 0"/><path d="M43.7 5c.2 0 .4.2.4.6 0 .6-.1 1.3-.3 1.8h1.5c-.2-.6-.3-1.4-.4-1.8 0-.4.3-.6.5-.6.1 0 1.2 0 1.6.3V3.9c-.6.3-1 .4-1.6.4-.3 0-.5-.1-.5-.4-.1-.6 0-1.5.2-2-.5 0-.8-.1-1.3 0 .3.5.3 1.6.3 1.9 0 .2-.2.5-.4.5-.6 0-1.1-.1-1.6-.3v1.4c.4-.3 1.1-.5 1.6-.4m23.9 22c0 .2-.2.4-.4.4s-.4-.2-.4-.4.2-.4.4-.4c.3-.1.4.1.4.4m-49.8-1.3c0 .2-.2.4-.4.4s-.4-.2-.4-.4.2-.4.4-.4.4.2.4.4m20.5-19c.1-.2.1-.4.3-.8.4.2 1.5.7 1 1.5-.2.4-.9.1-1.2 0-.3-.2-.3-.4-.1-.7m-.5-3.3c.2-.3 1-.2 1.4.1.2.2.1.3 0 .5l-.4.8c-1.1-.7-1.3-.9-1-1.4m-5.1 1.1c.4-.1.6-.3.7.1.4 1.2.6 2 .9 3.3.2.6-.3.5-.6.7-.4.2-.2.7.1.6 1-.3 1.9-.5 3-.7.3 0 .5-.3.6-.5.2-.2.4 0 .7.1.4.2 2.2.6 2.6-.8.3-.9-.6-1.8-1.6-2.3.7-.7 1.4-2 1.7-2.4.1-.2-.3-.6-.5-.3-.1.1-.3.3-.4.5-.1.2-.3.3-.7 0-.7-.5-2.3-.4-2.7.7-.2.7.2 1.4 1.3 2.1.2.1.1.2.1.4-.3.7-.6 1-1 1.7-.1.1-1.1.5-1.3-.3-.4-1.3-.5-1.7-.9-3.1-.1-.5.6-.5.9-.6.3-.1.2-.7-.1-.6-1.1.2-1.9.4-3 .8-.2.1-.1.6.2.6m20 2.5c.1-.1.2-.3.4-.4.2-.2.4-.4.6-.2.3.3 1.1 1 .4 1.6-.5.4-1 .1-1.4-.4-.1-.2-.2-.4 0-.6m1.1-3.2c.3-.3.7-.2 1 .1.1.1 0 0 .2.1.2.2.3.5.1.6l-.4.4c-.2.1-.4.4-.6.2l-.3-.3c-.3-.3-.3-.9 0-1.1m-2.4 4.4c.3-.2.5-.4 1 0 1.4 1.1 2.6.5 3-.1.4-.5.3-1.4-.7-2.3L57 3.9c.2-.1-.1-.6-.3-.4-.4.2-.8.3-1.1.1-2.4-2.1-4.2.3-2.7 2.1l-1.9 2c-.2.3.2.7.4.5M29 5.9c.1-.6 1.9-.6 1.8 0 0 .3-.1.6-.2.8-.5-.1-1.8.1-1.6-.8m2.6 2.9c-.1.9-1.4.6-1.5.5-.1 0-.2-.1-.1-.3 0-.2.1-1.1.1-1.1.7.1 1.6.2 1.5.9m-2.2-1c-.1.8-.4 2-.6 2.9-.1.4.5.4.6.1.1-.3.2-.5.3-.8 1.2.3 3 .2 3.2-1.5.2-1.3-1.1-1.5-1.6-1.7 0-.8.3-2 .5-2.7.1-.3-.4-.4-.6-.1-.1.2-.2.4-.3.7-2.2-.3-3.1.5-3.2 1.3-.1.9.3 1.6 1.7 1.8m26.8.9c-.3 0-.4.4-.1.5 1 .3 1.7.5 2.8 1 .3.1.4-.4.2-.5-.3-.2-.8-.4-.6-1.1.3-1.1.5-1.8.9-2.9.2-.4.6-.2.9-.1.2 0 .4-.4.1-.5-.6-.4-2.1-.9-2.7-1.1-.3-.1-.5.3-.1.5.2.1.8.2.7.7-.3 1.2-.6 2.1-1 3.2-.3.4-.8.3-1.1.3m4.9 2.6c.5.2 1.3.5 2.1.1.7-.3 1.6-2 .5-2.5-.3-.2-.9-.5-1.5-.6-.3-.1-.5.4-.2.5 1.6.6.6 2.4-.7 1.9-.3-.1-.5-.3-.5-.7.1-.6.8-2.5 1.3-2.9.9-.7 1.9 0 2.1.6.1.3 0 .3-.2.5-.2.1 0 .5.2.4.7-.4 1.2-.6 1.9-.9.2-.1 0-.5-.3-.4s-1 .3-1.3-.2c-.7-1.4-3-2.1-4.3.7-.9 2.2.3 3.2.9 3.5m-43.1.8c1.1-.8 1.5.1 1.7.3s.2.3 0 .5c-.3.2-.5.4-.7.6-.2.2-.4.4-.6.3-.3-.4-1-1.3-.4-1.7m2.4 1.2c.3.3.5.6.7.9.1.2.2.4.1.6-.1.2-.7 1.6-2.1-.1-.1-.2-.1-.3 0-.5.3-.3.6-.5.8-.8.3-.2.5-.2.5-.1M18.5 16c.6.5 1.3.8 2.1.4.7-.3 1.2-1.1 1.5-1.7 0 0 .5-.1 1-.3.3-.2 2.1-1.3 3.2-2 .2-.1 0-.6-.3-.5-.4.1-.7.3-.9.1-.2-.3-1.3-2-1.9-3.2-.2-.3.2-.4.7-.7.3-.2.9-.3 1.1 0 .8 1.7 1.6 3.4 1.9 3.5.4.1 1-.1 1.3-.5.2-.4-.1-.7-.4-.5s-.4.2-.6 0c-.5-.7 0-1.9-.3-2.5-.2-.4-1.7-1.2-2-1.1-.5.1-2.1 1-3.8 2.2-.2.2 0 .6.2.5.3-.1.6-.4.8-.1l1.9 3c.2.4-.3.7-.7 1-1 .7-1.5-.3-2.2-1.1-.9-1.1-.9-1.9-.7-2.3.1-.3 0-.4-.2-.4-.4.1-.6.5-.7.9-.1.2-.2.3-.5.4-1 .3-2.2.7-2.2 1.6-.1 1.2.6 2.4 1.7 3.3m48.4-6.6c-.6 1.1-.9 1.8-1.5 2.7-.3.4-.6.1-1.2-.1-.3-.1-.5.3-.2.5.5.3 1.6 1.1 2.6 1.6.2.1.5-.2.3-.4-.1-.2-.6-.4-.4-.9.6-1.2.9-1.8 1.6-2.8.3-.4.8-.2 1-.1.3.1.5-.3.3-.4-.8-.4-1.7-1-2.4-1.5-.3-.2-.6.2-.4.4.2.4.5.6.3 1m3.3 2.2c-.8 1.2-1.1 1.6-2.1 2.9-.2.2-.5-.1-.6-.1-.2-.1-.5.3-.2.5.4.3 2.4 1.8 3.3 2.7.2.2.5 0 .4-.3s-.5-.6 0-1.1c.9-.9 1.5-1.2 2.5-1.8.4-.2.6 0 .8-.1.2 0 .3-.4.1-.5-1.2-.8-3.2 1-4.5 1.7-.4.2-.8-.1-.6-.5.8-1 1.2-1.6 2-2.6.3-.4.6-.1.8 0 .2.1.5-.2.3-.4-.8-.7-1.2-1-2-1.7-.3-.2-.6.2-.4.4 0 .2.6.4.2.9m-52.7 8.2c.8-.8 1.2-1.9.4-3-.8-1-2.2-.4-2.6.5-.2.4 0 .7.3.5.5-.3.8-.5 1.3.1s.7.9.3 1.3c-.4.4-1 .3-1.4.1-.6-.3-1.5-1-2.1-1.9-.3-.5-.2-1.2.2-1.5 1.2-1 1.5.1 2.7-.1.3 0 .4-.4.2-.5-1-.6-1.2-1-1.4-1.7-.1-.4-.5-.1-.5.1 0 .3.1.6-.3.9-.9.6-1.2.7-1.8 1.3-.8.9-.4 2.3.7 3.5s2.6 1.7 4 .4m57.2-4.3c-.8.9-1.3 1.4-2.4 2.4-.2.2-.4 0-.5 0-.3-.1-.5.2-.3.4.9 1.1 2.2 2.4 2.9 3.3.2.2.5 0 .4-.3-.2-.5-.5-.5 0-1 .6-.7 1.4-1.1 2.5-1.7.7-.3 1.1.7.8 1.2-.8 1.5-1.4 2.3-2.1 3.8-.1.1.1.3.2.3 2.3.2 4.4-.5 5.1-.1.3.3.7 0 .5-.2-.5-.8-.6-1.1-1.2-2-.2-.3-.5-.1-.5.2 0 .3.1.4-.2.6-1 .5-1.6.7-2.9.9-.2 0-.3 0-.2-.2.7-.9 1.4-1.6 2.2-2.3.2-.2.3-.1.5.1.1.2.5-.1.4-.3-.6-.9-.9-1.5-1.6-2.3-.7-1.1-3.2.5-4.5 1-.5.2-1-.2-.5-.7.9-.9 1.2-1.3 2.1-2.1.4-.3.6.1.8.2.3.2.6-.2.4-.4 0 0-1.4-1.3-1.6-1.6-.2-.2-.6 0-.4.3.2.2.4.3.1.5M9.9 21.2c.1-.2.5-.6.7-.4s.9.6 1.1.8c.3.2-.1.5-.2.7 0 0-.4.5-.5.7-.1.1-.2.3-.4.1-.3-.3-.5-.5-.7-.9-.2-.3-.3-.6 0-1m-1.6 2.6c.3-.5.4-.8.6-1.1.2-.2.2.1.2.1 0 .1 0 1.2.4 1.6.5.5 1.6.1 2 .6.2.3.4.6.3.9-.2.7.7 1.1.9.2.2-1-.6-1.4-1.1-2.1-.1-.2-.1-.2 0-.4s.7-1 .9-1.3c.5.3.5.3.8.6.4.4-.2 1-.3 1.4-.1.3.4.6.6.4.6-1.1 1.5-2.3 2-3 .3-.3-.2-.6-.5-.4-.3.3-.6.8-1.1.5-1-.7-1.7-1.1-2.7-1.9-.3-.3.2-.8.4-1.3.1-.2-.3-.5-.5-.3-1.3 1.7-2.4 3.4-3.4 5.2-.3.2.3.6.5.3m-2 3.7c.2-.4.5-1 1-.8.9.4.2 1.6 0 2 0 0-.9-.3-1.1-.4-.1-.1 0-.6.1-.8m-1.2 2.3c.2-.2.2-.5.6-.4 1.4.4 3.1 1.2 3.1 1.2.6.2.5.4.2 1.2-.1.3.5.5.5.2.4-1.1 1.2-2.9 1.2-2.9.1-.2-.4-.5-.5-.2-.1.2-.3.7-.7.6L8.1 29c.7-1.9 1.9-.4 3-.7.6-.2.8-.7.7-1.4-.1-.4-.5-.3-.5-.1 0 .4-.3.4-.4.4-.3 0-.7-.5-1.1-.6-.3-.1-.7 0-.9.3-.1.2-.3.1-.3 0 .1-.7-.2-1.3-.7-1.5-.4-.1-1.2-.1-1.6.8 0 0-1 2.2-1.6 3.4-.3.2.2.4.4.2m75.4-5.5c-.8.3-1.4 1.9-2 2-.4.1-.4-1.1-.9-.6s.3 1.8 1.5 1.2c1.1-.6 1.5-.7 2.6-1.3.2-.1.6-.4.8 0 .2.4-.3.6-.6.8-.7.4-1.4.7-2.1 1.1-.2.1-.4.3-.7.1-.1-.1-.4.1-.3.3.2.3.3.6.4.8.1.2.4.1.4-.1s.1-.1.3-.2c1.1-.6 1.4-.8 2.6-1.3.6-.2 1.3.3.5.6-1.2.5-1.7.8-2.9 1.4-.9.4-.3 1.8.1 1.7.6-.2 0-1 .4-1.2.3-.2 2 0 2.5-.1s1.2-2 1.1-2.3c-.1-.2-.9-.8-.9-1-.1-.2 0-1.1-.1-1.3-.2-.3-2.1-.8-2.7-.6"/><path d="M4.2 32.8c.2-.8.3-1.1 1.3-.9 1 .2.8.9.7 1.5 0 .2-.1.4-.3.4-.7-.2-.9-.3-1.6-.4-.2-.1-.2-.4-.1-.6M3.6 35c.1-.3.3-.6.6-.6 1.4.4 1.9.6 3.3 1 .5.1.3.8.2 1.3-.1.3.5.5.6.1s.7-2.6 1-3.5c0-.3-.5-.4-.7-.2-.2.4-.4 1.3-.9 1.1-.4-.1-.5-.1-1-.3.2-1 .9-2.9-.9-3.3-.9-.2-1.5 0-1.8.6-.6 1.2-.8 2.6-1 3.7-.1.3.5.4.6.1m80-4.2c-.3.1-.5.5-.3.9.2.3.5.4.8.3.2-.1.5-.4.4-.8-.1-.4-.5-.6-.9-.4m-2.2.9c-.3.2-.4.6-.2.9.2.4.6.3.9.2.2-.1.5-.5.2-.9s-.6-.3-.9-.2m6 12.7c0 .3-.1 1-.6 1 0 0-2.6.1-3.2 0-.3 0-.5-.2-.5-.6-.1-.9.1-1.6.6-1.6 1.1-.1 1.4.7 2.1.7.5 0 2.1-.9 2.1-1.8-.1-1.9-.3-3.9-.8-5.7-.1-.2-.2-.3-.4-.2-1.2.2-2 .2-3.3.1-.5 0-.4-.2-.1-.3 1-.7 1.7-1.1 2.6-1.4 1-.3 1 0 .8-.6-.3-.9-.3-1.1-.5-1.7-.1-.3-.5-.2-.5.1 0 1.3-2.1 2.5-3.5 3.8-.2.2-.1.4.1.5 1.8.6 2.7.3 4.4 1.2.3.2.4.4.5.9 0 .3.2.5-.3.6-1.1.1-1.9.2-3.2.2-.5 0-.5-.6-.7-1.3-.1-.3-.6-.2-.5.1 0 .3.4 3.7.4 3.7 0 .3.5.2.5 0 .1-.4-.2-1.1.4-1.2 1.2-.1 1.9-.2 3.2-.3.5 0 .5.2.5.5v.4c0 .4-.2.7-.6.7s-2.7.2-2.7.2c-2.2.3-1 2.2-1.5 5.7-.1.5.6.4.6 0 .1-.5.2-1.3.7-1.4.3 0 2.7-.1 3.1-.1s.4.4.4.7v.7c-.1.2-.1.4-.4.5-1.5.5-4.5 1.3-4.6 1.7 0 .5 2.5 1.9 3.7 3.2.3.3.3.7.4 1 .1.2.5.3.6-.1.3-1.1.5-2.2.5-2.6 0-.3-.5-.3-.5-.1-.1.2 0 .4-.5.3-.6-.2-2.7-1.1-3.1-1.4-.3-.2-.2-.2.1-.3 1.4-.2 3.4-.2 3.9-.1.2 0 .3.4.4-.4.3-2 .3-4.9.3-5.3-.3-.4-.9-.4-.9 0M3.8 36.9c-.2.3-.2.7.1.9.3.2.8.2 1-.1.2-.2.2-.9-.2-1.1-.4-.1-.8 0-.9.3m-1.2 4.9c0-.3.1-1 .2-1.2.4.2.5 1 1.2 1.1.6.1 1.4-.7 2.1-.6.7.2.7.8.8 1.3 0 .2.4.2.5 0 .1-.5.2-1.4-.4-1.8-.8-.4-1.4-.2-2.8-.3-.9-.1-1.4-.7-1.4-1.5 0-.3-.5-.4-.5-.1-.1.3-.3 2.5-.3 3.2 0 .1.6.2.6-.1M6 37.3c-.3.2-.4.5-.3.8s.5.4.9.3c.3-.2.4-.5.3-.9-.1-.2-.5-.4-.9-.2m-3.4 8.6c.1-.5 0-.7.4-.8 1.3-.1 1.9-.1 3.3 0 .3 0 .3.5.4 1 .1.2.6.3.6 0 0-.7 0-2.2.1-2.8 0-.4-.6-.4-.6 0-.1.3.1.7-.5.7-.9 0-2.3-.1-3.2-.1-.5 0-.3-.7-.4-1-.1-.3-.5-.3-.6.1 0 .5.1 2.1 0 3-.1.2.4.2.5-.1m.3 3.8c0-.4-.1-.7-.1-1 0-.2.1-.5.4-.6 1.2-.1 1.9-.1 3-.1.3 0 .6.4.6.6 0 .2.1.5.1.8-1.4.2-2.7.3-4 .3m1.4 8.1c.3-1.5 2.6-2.3 4-3.7.1-.1.1-.3-.1-.4-1.8-.6-3.5-.7-4.4-1.1-.7-.3-.7-.7-.7-1.2 0-.2 0-.5.3-.5 1.2-.1 2.1-.2 3.3-.2.5 0 .5.2.6 1 .1.3.6.2.5-.1-.2-2.1-.2-3.1-.7-3.9-.7-1.3-4.8-1.4-5 .5-.2 1 .3 3.6.7 6.3 0 .2.5.2.5-.1.1-.6.4-.5.5-.5.7 0 2.1 0 3 .2.3 0 .4.1.1.3-1.1.7-1.8 1.1-3 1.4-.2 0-.2.1-.5-.2-.2-.2-.5.1-.5.3.6.9.7 1.1.9 2 0 .2.5.3.5-.1M7.7 62c-.4-.1-.5-.1-1-.1-.2 0-.4 0-.6-.4s.2-.5.4-.6c.6-.3 1.8-.8 2.4-1s.6.3 1.2 1c.2.3.7 0 .6-.3-.7-1.2-1.1-2.2-1.6-3.5-.1-.4-.7-.1-.6.2.2 1 .5 1.4 0 1.5-1 .3-2.2.9-2.5 1.1-.3.1-.6.2-.7-.1-.2-.4 0-.5.2-.7l.8-.8c.1-.2 0-.5-.3-.4-.4.2-1 .4-1.8.8.6 1.6 1.2 2.8 1.8 4.3.8-.2 1.1-.2 1.9-.5.2-.1.2-.5-.2-.5m77.7-4.8c-.5 0-1-.2-1.4-.4.1-.4.3-1.4.5-1.8 1 .3 1.8 1.1.9 2.2m-2.1-.6c-.6-.1-1-.3-1.6-.5-.4-1.6.8-1.7 2-1.3 0 .5-.2 1.4-.4 1.8m-.8 4.1l1.5.6c-.5 2.4-2.7 1.5-1.5-.6m-3.2 4.8c-.8.5-1.5.7-1.7.1-.1-.3 0-.9.6-1.1.3 0 .7 0 1.1 1m2.1 1.1c.1.3-.2.8-.8 1-.7.2-1-.2-1.2-.8.5-.2 1.7-1.1 2-.2m4.9-11.7c-1-1.5-3.1-2.2-4.4-1.4-1.2.6-.6 2.6-.9 3.1-.5.8-.9 2-1.4 3.2-.1.3.3.5.5.3s.3-.3.6-.2c.4.2.8.4 1.3.5-.4 1.2-1 1.2-1.7.8-.7-.3-2.1.2-1.8 2 .1.6-.2.7-.5.8-.3.1-2 .9-1 2.5.5.8 1.2.9 2.1.5.3.6.6 1 .8 1.8.1.2-.1.6-.3.9-.2.3-.7.8-1.1.6l-2.3-1.8c-.4-.3 0-.6.2-1.3.1-.3-.3-.6-.4-.3-.8 1.1-1.2 1.6-2.1 2.7-.2.3.2.6.4.4.8-.5.8-1 1.3-.5l2.2 1.6c.4.3 0 .8-.3 1.2-.1.2.2.7.6.3.9-1 1.7-2.1 2.6-3.2 0-.3-.1-.4-.1-.7-.1-.5.4-.5.8-.7.6-.2 1.7-1.2 1.1-2.5-.4-1-1.6-.8-2.4-.4-.4-.7-1.3-2.1-.8-2.6.4-.4 1.3.6 2 0 .4-.3.5-.3.4.2 0 .5.3 1 .8 1.2.6.2 1.4 0 1.9-1.1.4-.8.7-1.5 1.2-3 .1-.4-.2-.5-.5-.2-.2.3-.6.5-1 .3-1.2-.5-1.5-.6-2.7-1.1-.3-.2-.4-.5-.1-1.1.3-.5.7-1 2.5-.3 1.8.6 1.4.7 1.7 1.4.1.3.6.3.6-.1-.4-2 1.2-2.2.2-3.8M11 65.2c-.8 0-1 0-.9-.4.1-.6.2-.9.7-.9s.7.4.8.9c.1.5-.1.4-.6.4m-2.9.3c-.4 0-.5-.7-.4-1.2 0-.3.5-.4 1.4-.3-.2.7 0 1.6-1 1.5m5-.1c-1.6 0-.1-2.5-2.1-2.8-.9-.2-1.4.1-1.8.7-1 .1-1.9-.1-2.8 0-.2 0-.3 0-.3.2s.1.4.3.4c1.3 0-.2 2.4 1.7 3 1.1.3 1.7-.5 1.9-1 1.2-.1 2.1.1 3.2.1.3.1.2-.6-.1-.6m-1.4 2.8c.3-.1.4-.5.3-.8-.2-.4-.6-.5-.9-.3-.3.1-.4.6-.3.8.1.4.6.5.9.3m4 3.3c.1-.8.9-.4 1.1-.3s.6 0 .3-.6c-.2-.3-.6-.4-1.1-.2-1.1.6-1.9 2-2.5 2.4-.4.3-.7 0-.8-.1-.2-.3 0-.3.1-.4.9-.8 1.5-1.5 2.5-2.2.1-.1.2-.1.2-.1.2.1.4-.1.2-.3-.1-.1-.3-.3-.4-.5-.2-.3-.5-.1-.4 0 0 .1 0 .2-.1.3-.8.8-1.6 1.5-2.4 2.2-.2.2-.2.3-.4.1-.2-.3-.2-.5 0-.7.9-.9 1.7-1.2 2.5-2.1.2-.2.4-.7-.1-1.2-.5-.6-.9.3-.6.5.2.1.3.2.1.4-.7.6-1.7.2-2.1.5-.4.2-.8 1.4-.7 2.3 0 .5.5.9.8 1.3.4.5.6.9 1.1.9.6.1 2-.1 2.3-.4.3-.3.2-.8.4-1.8m8.8 10.2c-.1.1-.4.1-.5 0-.3-.2-1.3-.6-.7-1.3.5-.6 1.5 0 1.8.2-.3.6-.3.7-.6 1.1m1.1.4l1.3-2.6c.2-.2.4-.4.8-.3.2.1.4-.3.2-.4-.5-.4-1.3-.8-1.7-1.1-.3-.2-.6.2-.4.4.2.2.3.4.2.7l-.6 1.2c-1.9-1-.1-2.1-.5-3-.3-.5-.8-.4-1.8-1.3-.8-.6-1.4-1.1-1.8-1.5-.2-.2-.5.2-.4.4.2.3.8.8.5 1.3-.4.6-.7 1.1-1 1.6-.4.5-.7 1-1.3.4-.5-.4-.4-.5-.2-1.2.3-.9.6-2 1-3.8 0-.2-.2-.3-.4-.3-1.5.5-2.8 1-3.3 1.2s-1.1.4-1.6.2c-.2-.1-.6.2-.4.4.5.6 1 1 1.4 1.4.2.2.5-.1.4-.3-.1-.2.1-.4.2-.5.7-.7 1.4-1.1 2.5-1.6.2-.1.3-.1.2.2-.4 1.2-.9 2.4-2 3.3 1.2 1.2 3.4 2.8 3.9 3.1.2.1.5-.2.4-.5-.2-.3-.5-.6-.3-.9l1.4-2.1c.3-.4.7-.3 1.1.1 1.4 1-.9 1.2.2 2.5.2.3.1.3-.1.2-.3-.1-.9-.1-1.2.3-1.2 1.6 3.1 3.4 3.6 3.7.2.1.4-.4.3-.5-.6-.1-.8-.2-.6-.7m49.8-10c.1.3.2.4.4 1 .1.4.2.5-.1.8-.3.4-.5.3-1-.2-.8-.7-1-.9-1.8-1.8-.3-.3.2-.7.4-1.1.1-.2-.1-.7-.4-.4-.9.8-1.5 1.4-2.4 2.1-.2.2 0 .5.3.4.8-.2.9-.5 1.2-.2l1.7 1.7c.4.4.6.6.3.8-.3.3-.5.1-.9 0-.3-.1-.4-.1-1-.2-.1 0-.4.3-.2.5.8.5.9.6 1.7 1 1.2-.9 2-1.8 3.2-2.9-.5-.8-1-1.6-1.2-1.8 0-.1-.3.1-.2.3"/><path d="M70.2 78.6c-.2.4-.6.7-.9.3-.2-.3-.5-.7-.8-1.3l1.4-1.4c.3.8.7 1.3.3 2.4m2.5-1.8c-.6.4-.9.7-1.4.9-.1-.5.4-1.2.1-1.6-.2-.4-2.1-.8-1.4-2.2.3-.4 0-.7-.5-.4-.8.6-.3 1.3 0 2-.3.4-.9 1-1.4 1.4-.3-.5-.7-1-1-1.6-.4.3-1.4 1-1.6 1.1-.3.2-.1.5.2.4.4-.2.7-.4.9-.1.8 1.1 1.1 1.7 1.8 2.8.1.2 0 .4-.2.6s.1.6.4.5c.2-.1 4.6-3.6 4.6-3.6.2.1-.2-.4-.5-.2m-44.2 7c-.6-.3-.3-.7.2-1.6.1-.1.3-.1.5-.1l1 .3c-.2.5-.7 1.8-1.7 1.4m8.8-1.7c-1.3-.3-2.1-.6-3.4-1-.4-.2-.6.3-.4.5.2.2.2.3.2.5-.5 1.1-.7 1.6-1.6 2.6-.4.5-1.2.1-1.8-.1-.2-.1-.2-.2 0-.2.3-.1.7-.1 1.1-.6s0-1.7.5-2.2c.3-.4 1 .1 1.2-.4.1-.4-.3-.5-.5-.6-1-.3-1.5.9-1.8 1.4-.4-.1-1-.4-1-.4-.3-.1-.5-.2-.3-.6s.5-.8.6-1.3c-.6-.2-.8-.4-1.3-.7-.3-.2-.4.2-.3.3.2.4.2.5.1.8-.4.9-1.1 2.3-1.3 2.7-.2.3-.2.2-.6.2-.2 0-.4.4-.1.5 1.6.9 4 1.7 4.9 1.9 1.1.3 2.6-1.4 3.5-3 .2-.3.7 0 .6.2-.2 1.2-.3 1.6-.5 2.8-.1.5-.4.4-.9.4-.3 0-.4.5-.1.6 1 .3 1.8.5 2.8.6.3 0 .4-.5.1-.6-.6-.2-.9-.2-.8-.8.1-.5.5-2.6.5-2.6.1-.5.4-.3.7-.3.1 0 .2-.5-.1-.6m19.5.7c-.1.5-.2.7-.5.6-.8-.4-1.2-.6-1-1.2.3-.7 1.7-.3 1.5.6m0 2.8c-.1.5-.6.4-1 .4-.6-.1-.5-.2-.4-.7.2-.7.3-.9.7-.7.5.3.8.5.7 1m5.5-1.9c-.7.2-.8.5-1-.1-.6-1.2-.5-1-1.1-2.3-.3-.9.2-1 .7-1.3.3-.2.1-.8-.3-.5-.6.4-1.7.7-2.4 1.1-.4.2-.7.2-.8.6-.1.5-.4.4-1.2 0-.7-.3-1.8-.1-2.1.8s.2 1.5 1.2 2.1c-.2.9-.7 2.1-.9 2.9-.1.3.3.5.5.1.3-.7.4-.7 1.2-.5.7.2 1.9 0 2.2-1.1.2-.8-.3-1.2-.9-1.6.1-.7.5-1.5.7-2.1s.9-.8 1.2-.3c.5 1 .6 1.5 1 2.5.3.8-.4.8-.6 1-.3.2 0 .7.3.5 1.1-.5 2.5-1.1 2.8-1.3 0 0-.1-.6-.5-.5m-21.9 3c-.1.4-.3.5-.8.5-.4 0-.7-.1-.7-.6-.1-1.2 0-1.9.2-3 .1-.4.3-.5.8-.5.6 0 .7.2.8.7-.1 1.2-.1 1.8-.3 2.9m-.4-4.2c-1.9-.1-2.1 1-2.4 2.3-.1 1-.2 2.7 1.8 3 1.9.2 2.4-1 2.4-2.6 0-1 .1-2.6-1.8-2.7m10.3 1.4c-.2.3-.4.9-.8.6-.4-.2-.8-.5-.6-1 .3-.5.9-.4 1.2-.2.3.2.4.2.2.6m-.3 2.8c-.2.6-.9.5-1.4.2-.3-.2.2-1.2.3-1.5.9.5 1.3.8 1.1 1.3m1.3-4.4c-.5.5-.5.6-1.3.3-.9-.4-1.9-.2-2.2.5-.5.8-.2 1.4.5 2.1 0 .5-1.1 2.3-1.2 2.7-.1.4.4.6.5.3.2-.4.6-.8 1.1-.5 1 .6 1.8.5 2.5-.3.6-.9.1-1.9-.6-2.3.4-.9.7-1.6 1.2-2.4.1-.4-.3-.6-.5-.4m-7.1 5c-.3 0-.5 0-.5-.7v-2.2c0-.5.2-.6.5-.7.8-.2 1.2-.4 1.2 1.8.2 2-.6 1.8-1.2 1.8m0-4.3c-.5.2-.7.4-1.7-.2-.2-.2-.6.3-.3.5.4.3.5.5.6 1 0 .8.1 1.4 0 2.1-.1.4-.3.7-.8 1-.3.2-.1.6.3.4.7-.2 1-.2 1.5.1 2.2.9 3.1-.3 3.1-2.6-.1-2.6-1.5-2.9-2.7-2.3m8.3 1.6c-.3.1-.4.5-.3.8.1.3.4.3.7.3.3-.1.5-.4.4-.8-.1-.3-.5-.5-.8-.3"/><path d="M67.5 80.6c-.4-.2-.6-.2-.8 0-.3.2-.5.2-.5 0-.2-1.5-1-3.5-3.1-2.4-2.2 1-1.7 3.9 0 3.6 1-.2.5-.5.1-.8-.5-.3-.7-1.8.3-2.1.9-.3 1.3 1.4 1.5 2.2.2.7.2 1.1-.4 1.5-.5.3-.7.2-1.4.5-.5.3-.5.6-.1.7s1.8-.1 2.2-.4c.8-.5 1.2-2.2 2.3-2 .3-.1.5-.5-.1-.8m10.8-34.5c.7-2.4 1.1-3.7.8-10-.7 0-3.5.1-4.5.1 0 0-1.9-1.4-2.1-1.5v-.2l5.3-3.9c1.9 4.4 3 9.3 3 14.3 0 1.2 0 2-.1 3.1l-2.4-1.9zm2 4.9l-2.8 1.9c-.1-.1-.3-.1-.4 0l-2-1.5c1.4-1.8 1.9-2.6 3-5l2.5 2c0 .9-.2 2-.3 2.6m-.8 3.6l-1.8-1.4v-.1l2.6-1.8c-.3 1.4-.4 2.1-.8 3.3m-2.3 6l-4.7-3.7v-.1l4.7-3.3h.2l1.9 1.5c-.2 1.2-1.2 3.8-2.1 5.6m-3.5 5.7l-1.9-1.6 5.3-3.8c-1.2 2.2-2.1 3.7-3.4 5.4M71.5 69l-.1-4.3 2.2 1.8c-.8 1-1.4 1.7-2.1 2.5m-.3-6.9h-2.3l-1.8-1.3v-.2l4.9-3.4h.2l4.6 3.5-5.6 4v-2.6zm-1 7.7s0-.4-.1-.8c.3-.2.4-.3.6-.6v.9l-.5.5zm-.9 1.1c-.8.3-1.1-.5-1.3-.7-.4.4-1.2.5-1.4-.4-.2-.9.3-1.1.7-1.4-.1-.6-.2-1.5.5-2s1 .4 1.2.7c.6-.6 1.5-.6 1.6.1.1.9-.6 1.4-.9 1.6.1.5.4 1.8-.4 2.1m-3.5 2.7h-.9c.7-.4.9-1 .8-1.6.5 0 1.1-.4 1.2-1.1.3.2.9.1 1.1 0 .1.2.3.4.6.6-.1-.1-1.5 1.2-2.8 2.1m-5.1 3.7L57 74.4h8.3c-1.3 1-3.2 2.1-4.6 2.9m-7 2.6l-2.1-1.6v-.1l5-3.7 3.7 2.9c-2.3 1.2-4 1.9-6.6 2.5m-5.8 1l3.3-2.4h.2l1.9 1.5c-1.3.4-3.6.8-5.4.9m-3.7.1l-3.4-2.7v-.1l5.3-3.8 4.9 3.8v.1L47.4 81c-1.2.1-2.2.1-3.2 0m-6.5-.7l2.6-1.8s.2.1.3 0l3.1 2.5c-1.8 0-4.2-.4-6-.7m-7.4-2.4l5.1-3.5 4.7 3.8v.1l-2.8 2c-2.2-.6-4.5-1.4-7-2.4m-5.7-3.3h10l-4.5 3.1c-2-.8-3.8-1.8-5.5-3.1m-3.4-3.2c.5-.1.6-.2.8-.7.4.3.7.2 1.1.1 0 .7.2 1.8 1.5 1.6-.1 1 .5 1.4.8 1.4h-1.2c-.7-.3-3-2.4-3-2.4m-1-2.4c-.4-.2-1.4-.6-1.2-1.5.4-1.2 1.4-.5 1.7-.3.3-1 .9-1 1.4-.7.8.6.5 1.4.5 1.9.4.2 1.4.6.9 1.6-.5 1.1-1.4.4-1.6.3-.1.3-.3 1.2-1.4.8-.9-.5-.6-1.9-.3-2.1m-.7 1.1l-.4-.5v-.8s.2.2.5.3c-.1.3-.1.6-.1 1m1.9-4.3c-.6 0-.9.3-1.1.7-.5-.2-.9-.3-1.2 0v-3.2l2.3 2.5zm-5.1 1.1l2.1-1.5v4.1c-.7-.8-1.5-1.7-2.1-2.6m-3.6-5.6l2.9-2.1h.3l4.3 3h-1.9V65L16 66.7c-1.1-1.6-2.2-3.3-3.3-5.4m-2.3-6l5.1 3.5v.1L12.6 61c-.8-1.5-1.5-3.2-2.2-5.7M9 48.5l2.6-1.7c1.1 2.2 2.4 3.6 3.8 4.9l-5.1 3.6c-.4-1.6-1-4.3-1.3-6.8m2.2-16.4l1.1.9v.2l-1.5 1.1c-.7 3.4-1.1 7.8.7 12.2L9 48.1c-.4-4.4.1-10.8 2.2-16m2.6-5.3l3.5 2.8v.1l-4.5 3.1c-.1-.1-.2-.1-.3 0l-1.2-1c.7-1.7 1.5-3.4 2.5-5m3.4-4.8l5.1 4v.1l-4.6 3.3s-.1-.1-.3 0l-3.5-2.8c1-1.6 2.1-3.2 3.3-4.6m2.1-2.4C26.1 12.8 35 9.1 44.8 9c1.2 0 3.7.2 3.7.2v.6c-8.4-.4-13.9.4-21.9 5.6l-9.2 6.4c.6-.8 1.2-1.5 1.9-2.2m29.9-17l-.3 5.5-.5-3.1.8-2.4zm12.5 10.6l-1.6 1c-1.4-2.5-3.9-3.3-5.6-3.3-2.7.1-5.2 2-5.3 5.3 0 2.2.7 4.1 2.7 5.3-.3.8-.5 1.4-.9 1.8-.8.8-1.9 1.4-2.7 1.7 0-.5 0-.8.2-1.1.7-.7 2-1.7 1.2-2.6.2-.4.2-.6-.1-.8.3-.7-.1-1-.2-1.1.2-.8-.4-1-.6-1v-.6c.2 0 .4-.1.4-.4s-.2-.3-.3-.3l.2-3.1c.2 0 .4-.1.4-.3 0-.3-.1-.4-.4-.4l.1-2.7c.2 0 .4-.1.4-.4 0-.2-.1-.4-.4-.4v-.6c4.4.6 8.6 2 12.5 4m5.3 3.5l-4 2.9h-.2L60.6 18c.2-1.2.1-2.4-.4-3.5l1.7-1.2c1.8 1 3.6 2.1 5.1 3.4m3.2 2.8l1 1-3.5 2.5c-.1 0-.2-.1-.3 0l-4.2-3.1v-.1l4.1-2.9c1 .8 2 1.7 2.9 2.6m4.5 5.5c-.3.2-2.2 1.6-2.2 1.6-.1-.1-.2 0-.2 0l-4.5-3.3v-.1l3.5-2.5c1.3 1.4 2.4 2.8 3.4 4.3M72 34.3l-4.7-3.5v-.1l5.1-3.6h.3l4.8 3.5-5 3.7H72m-1.9 2l1.9-1.4h.2l1.8 1.3-3.9.1zm8.6 2.6c-.1-.4-.3-.7-.7-1-.6.5-1.1 1.4-.4 2.2 0 .6-.3 1.5-1.9 2.8-.3-.5-.5-1.6-.3-2.3.9-.4.5-1.7.1-2.1-.4.2-.7.6-.8 1.1 0-.9-.3-1.9-.6-2.8l4.5-.1c0 .4.1 1.6.1 2.2m-1 .2c0-.4.2-.7.3-.6.1 0 .3.3.3.7s-.3.7-.4.6c-.1 0-.3-.3-.2-.7m-4.5 13.7c-.4-.4 0-1.4.4-2-.5-.6-.8-1.4-.5-2.4.4.1.7.6 1.5.4.3-.1.7-.3 1.1-.3-.1-.2-.1-.4-.3-.6 2.3-1.4 1.2-3.6.6-4.4 1-.8 1.8-1.6 2.2-3.2 0 0 .4 0 .6-.8-.2 2.8-.2 7.9-5.6 13.3m-5.9 0l1.8-1.4c.5.6 2.1 2 3.4 2.9.9-.8 2.5-2.7 2.5-2.7l2 1.5v.1l-4.7 3.3c-.1 0-.2-.1-.4 0 .1 0-3-2.4-4.6-3.7m-.6 7.5s-2.4-1.9-2.5-2c.7.6 1.5 0 1.5-.6s-.8-3.2-.8-3.2l2-1.4c.1 0 .2.1.3 0l4.8 3.8v.1l-4.8 3.4c-.3-.1-.4-.1-.5-.1M65 62.1l1.8-1.2h.2l1.5 1.2H65zm-4.2 10c.5 0 .9-.3 1-.5.1.3.6.6 1.2.6 0 .8.2 1.1.8 1.4h-3.5c.2-.2.6-.7.5-1.5m-2.3-.3c-.8 0-1.2-.1-1.2-1.1 0-.8.7-1.1 1.3-1.1 0-.6.1-1.3.9-1.3.9 0 .8.8.8 1.3.6 0 1.3.2 1.2.9 0 .8-.4 1-1.2 1 0 .5.2 1.6-.8 1.5-1 .2-1-.8-1-1.2m-3.2 1.9c.4-.3.8-.6.7-1.4.5 0 .8-.2 1-.6.2.4.5.6 1 .5 0 .6.2 1.1.9 1.4l-3.6.1zm.9.8L51.5 78c-.1-.1-.2-.1-.3 0l-4.4-3.5h9.4zM47 72.3c.4-.1.6-.1.8-.5.3.4.5.5 1 .5 0 .8.3 1.3 1 1.5h-3.6c.6-.3.9-.9.8-1.5m-2.4-.4c-.4 0-1.2.1-1.3-1s1-1.1 1.3-1.2c0-.4 0-1.4.9-1.3 1 .1.8 1.1.9 1.5.5 0 1.1 0 1.2.9.1 1-.7 1-1.1 1.1 0 .3.2 1.5-.8 1.6-1.1 0-1-1.2-1.1-1.6m.7 2.7L40.6 78c-.1-.1-.3 0-.3 0l-4.1-3.4h9.1zm-10.6-2.7c-.4 0-1.2-.1-1.2-1.1 0-1.1 1-1 1.3-1.1 0-.3-.2-1.3.8-1.3 1.1-.1 1 1.1 1 1.5.3 0 1.3 0 1.3 1s-1 1.1-1.4 1.1c0 .6 0 1.5-.9 1.6-.9-.1-.9-1.3-.9-1.7m-2.4.3c.4 0 .7-.1 1-.5.2.4.6.6 1 .6 0 .9.3 1.4.9 1.5h-3.8c.6-.2 1-.8.9-1.6m-2.4-.3c-.5 0-1.2 0-1.3-1 0-1 1.1-1 1.4-1 0-.5-.1-1.5 1-1.4 1 .1.9 1.1.9 1.4.4 0 1.2-.1 1.3.9.1 1.1-.8 1.1-1.3 1.1 0 .4.2 1.5-.8 1.6-1.2.1-1.2-1-1.2-1.6m-2.5.5c.5-.1.7-.3 1-.6.3.3.6.5 1.1.5 0 .6.1 1.3.8 1.6h-3.4c.2-.3.6-.6.5-1.5M25 69.8c0-.5-.1-1.3 1-1.4s1 1.1 1 1.5c.3 0 1.2-.1 1.2 1 0 1-.8 1.1-1.2 1.1 0 .4.2 1.6-.9 1.6s-1-1.1-1-1.5c-.2 0-1.5.4-1.5-1.2 0-.9.7-1.2 1.4-1.1m-2.1-2.6l1 1h1.3c-.6.3-.7.8-.7 1.2-.2 0-.4.1-.6.2 0-.8-.7-1.3-1-1.5.1-.3.1-.5 0-.9m-.5-4.4c-1.2 1.3-.1 2.5 1.5 3.5 1 .6.7 1.1 1.6 1.4h-1.3c-1.8-1.6-4.9-4.8-4.9-4.8l3.1-.1zm-6.3-3.9l5.1-3.7h.3l2.3 1.8c-.5 1.6-1.1 3.4-1.1 5.2h-2l-4.6-3.3zm-.4-7c.4.4 1.1.9 1.4 1.1.4-.3.7-.5.9-.7l3.1 2.4v.1L16 58.5s-.2-.1-.4 0l-4.8-3.2 4.9-3.4zm-.2-5.2c0-.3 0-.5.1-.8l-.4-.1.7-1.4c.5.7.8 1.8.8 2.6-.4 0-.7.1-.7.4 0 .3.4.3.6.3.1 1.4-1.5.9-1.9.3-.3.8.7 1.2 1.3 1.1-.3.5-.8 1.5-.8 1.5-.4-.4-1.4-1.5-1.7-2-.3-2.5 1.7-2.6 2-1.9m-1.5-.4c-.5.3-.9.9-1.1 1.5-.2-.3-.4-.6-.5-.9.5-.4 1-.5 1.6-.6m-.2-.3c-.3.1-1.3.3-1.7.3-.1-.2-.2-.5-.3-.8.5.1 1.4.4 2 .5m-2.6-10.7c4.2.6 8.8 1 13 1.3-.2 3.7-.5 6.3-1.8 8.9-.3.2-2.3.3-3.3.4l-.3-2.5c.2.3.6.4.9.5.3 1.6 1.9 1.4 2.2 1.3-.3-.7-.5-1.4-.6-2.1.3.3 1 .4 1.4.3-.2-.5-.4-1.4-.4-2.1.2.2.7.3 1 .2-.1-1.4.1-2.2 0-3.5 0-.4-.4-.9-1-1-.7 0-1.2.4-1.2.8 0 .2 0 .6.1.8-.8.7-2.1 1.4-2.9 1.6-.1-.1-.2-.4-.2-.5h.6l-.3-.6c0-1.3.1-1.8-1.1-2.4-.2-.1-.3 0-.5.2-.4-.5-1.3-1.5-1.9-.4.2-.1.4-.1.6-.1.2 1.1 1 2.2.9 2.5s-.2.4-.5.8h.6c0 .3-.1.4-.1.5-.6 0-2.7-.7-3.1-1.9.2-.3.4-.4.4-.9s-.3-1.1-1-1.2c-.6-.1-1.1.3-1.2.9-.1.8 0 2.4-.3 3.3.5 0 .8-.2 1.1-.4-.1 1-.1 2.1-.7 3 .5 0 .9 0 1.3-.1-.1.5-.3 1.1-.7 1.6.8.3 1.8-.1 2.3-1 .5-.1.9-.3 1.1-.6.1.4-.5 2.2-.7 2.6-1 0-2.1-.4-3.2-.8-.9-2.2-1.3-5.2-.5-9.4m3.9-.1s-2.9-.4-4.2-.6l1.7-1.2h.3l2.2 1.8zm7.1-1.7l-2.7 2.1c-1.4-.1-2.9-.3-3.9-.4L13 33.1V33l4.4-3.1s.1.1.3 0l4.5 3.6zm.3-7.2s.1.1.2 0l2.1 1.7c-.5.8.4 1.8 1.3 1.5 0 0 .1.4-.1 1.4l-3.4 2.4c-.1-.1-.3 0-.3 0l-4.5-3.6v-.1l4.7-3.3zm2.5-6c-.5 1.6-.8 2.6-1.2 4l.7-.6c.3-1 .6-1.8 1.1-2.9l1.9 1.5v.1l-4.7 3.4c-.2-.1-.3 0-.3 0L17.6 22l5.1-3.5 2.3 1.8zm.1-.3L23 18.3l4-2.8c-.8 1.1-1.5 3.2-1.9 4.5m7.6-5.3c-2.3.5-4.4 1.9-6.9 4.8 1.1-3 1.8-6.2 6.9-4.8m3.6-1.7c-.1.1-2.2-.2-2.6-.2-.4 0-.7.2-.7.4s.3.5.6.4c.3 0 2.5-.4 2.6-.3.1.1-1.3.8-1.7 1.2-1.4-.4-3-.7-4.3-.8 1.5-.9 3-1.5 4.3-1.9.4.5 1.9 1.1 1.8 1.2m.3 2.1c-.4-.1-.8-.2-1.2-.4.5-.5 1.3-1.4 1.5-1.3.2.2-.7 1.3-.3 1.7m8.2 2.8l-1.3.9s-.1-.1-.2 0l-.7-.6c.1-.2.1-.3-.1-.3-.8-.1-1-.1-1.7-.3 0 0-.3-.2-.2.3 0 1.4-.1 2.2-.7 3.3-.1.3-.3.3-.4 0-.4-1.3-.5-2.4-.4-3.8 0 0 0-.3-.3-.2-.4.1-.6.2-1.1.3.2.5.4 1 .5 1.4-.2.8-.4 1.3-.7 1.9-.1.3-.3.3-.4 0-.9-3.4-.5-3.9-.2-4.1.2-.2.2-.4-.1-.3-.4 0-1.7-.2-2.2-.3-.3-.1-.3.1-.1.3.4.3.4.5.6.9l-1.7 1.2c-.1-.1-.3 0-.3 0l-2.7-2.1c1.5-.9 3.2-1.5 5.5-.8 4.9 1.4 6 1.9 8.9 2.3m-.7-6.1l-.3.4h-2.4v.4h2.1l-.3.4h-1.8c-1.4-.4-2.6-1.7-2.6-1.7l-.2.4s.7.9 1.9 1.5c-.9.1-2.5-.1-2.5-.1-1.1-.1-1.2-1.4-.7-1.9 1.5-.3 2.6-.5 2.9-.5.6 1.3 1.6 1.1 3.9 1.1m.5-.7l-.3.4c-1.9 0-3.3.1-3.5-1l1-.1c.2.6.6.7 2.8.7m-2.8 4.7h2.1l.3.5c-2 0-2.2-.2-2.6.3l-1.1-.3c.4-.4.8-.5 1.3-.5m-3.2-.5s1.1-1.1 2.7-1.2c.6.1 1.9.1 1.9.1l.2.5h-2v.4h2.2l.2.4c-2.3 0-3.4-.2-3.9.7-.6-.2-1.5-.5-2.6-.8-.5-.7-.4-1.9.6-1.9 0 0 1.6.1 2.4.4-1.1.4-2 1.2-2 1.2l.3.2zm8.3-3.2c0 1 .6 1.5 1.1 1.7-.6.2-1.2 1-1.2 1.7 0 .8.2 1.6 1.1 1.9-1.3.2-4.2-.1-5.5-.5.1-.2.3-.3 1.1-.2h.8c.6 0 .9.1 1.1-.2.2-.4-.2-.8-.6-.6-.3-.3-.5-.8-.6-1-.4-.6.1-.9.4-.9.6 0 1.3.2 1.9 1 .2-.2.1-.4 0-.7-.2-.5.2-.4-.2-1-.2-.2-.3-.3-.5-.4-.7-.1-.4.3-1.1.3-.6.1-.8-.2-.5-.7.1-.1.5-.7.8-.9.3.3.8.2.8-.3s-.4-.6-1-.6h-1.2c-.8 0-1-.2-1-.4 1.3-.1 3.9 0 5.6.1-.6.1-1.3.8-1.3 1.7m1.3 1.3c-1.2-.3-1.1-2.5.1-2.6l-.1 2.6zm0 .8l-.2 2.9c-.9-.4-1-2.7.2-2.9m2.2 12.1l-2.2 1.4.1-1.9.7-.4c.3.5.7.9 1.4.9m1.1-.6c-.7.3-1.6.4-2-.6.5-.3 1.1-.7 1.5-.9.1.2.3.9.5 1.5m1.1-1.4c0 .6-.4 1.2-.8 1.3-.1-.7-.3-1.1-.6-1.6l.3-.3c.4.3.8.4 1.1.6m.1-3c2.4 1.1 3.4-.6 3.7-1.4h.5c0 1.1.2 1.9.7 2.7-.9 1.2-3.4 2.4-5.8.7.3-.4.6-1.1.9-2m2.2-3.1c-.1-.5-.1-.9.8-.9.6 0 .8 0 .8.5-.2.7-.2.9-.5 1.2-.5.4-.9 0-1.1-.8m-1.2 1h1c.1.2.2.2.3.4 0 .2 0 .3-.2.4-.3.1-.7.1-1 0-.2-.1-.3-.1-.4-.4 0-.2.2-.2.3-.4m.9-.3h-.9c0-.3.1-.4.5-.3.2 0 .4 0 .4.3m-2.3-2c.3-.6 1.1-.4 1.2-.1 0 .4-.9.5-1.2.1m3.8-.1c-.2.4-1.1.5-1.3.1.1-.4.9-.6 1.3-.1M51 14.4c0-1.4 1.5-1.4 2.7-1.5-.1-.5.3-.8.8-.8.7 0 .7.7.7.9.8.1 2-.2 2.4.6.2.4 0 1.1.2 1.4.2.2.1.5-.1.5-.6 0-.3-.2-2-.2-1.2 0-1.6-.2-2.6-.1-.8 0-1.3.3-1.8.3h-.5v-.3c.3 0 .2-.5.2-.8m.2 1.6c.2.1.5.1.7.1-.1.5-.4 1.3 0 2.1.1.3.2.2.4.1 0-.2-.3-.9.4-.9.9 0 1.2-.1 1.2-.1 0 .1 0-.4-.1-.6-.2-.4-.9-.5-1.5-.5 0-.5.5-.5.9-.6.5-.1 2.3 0 2.4.5-.8.1-1.1.3-1.2.8 0 .5 0 .8.1 1.3h-.9c-.1.3 0 1.1-.7 1-.2 0-.3-.2-.5-.4-.3 0-.7.1-.9.1-.3-.1-.5-.3-.3-.5.1 0 .2-.1.3-.2-.3-.6-.5-.5-.3-2.2m5.1.2c-.2-.2-.1-.3.1-.3.4 0 .9-.1 1.6 0 .1.2.6 1.6-.1 1.9 0 0-.3.1-.4.2-.2.1-.4.2 0 .5.1.1.4.3.5.5-.3.4-.9.7-1.4.5.1-.6.1-1.5.4-1.7.4-.3-.5-1.5-.7-1.6m1.3 4.8c-.1-.4-.1-.6-.2-1 .4-.2.7-.5.9-.9.1-.2.1-.3-.2-.5-.4-.3 0-.4 0-.4.7-.5.7-.6.6-1.4-.1-.4-.2-.7-.2-1.1.3-.6-.2-.7-.2-1.1.1-1.1-.2-1.4-.5-1.6-.7-.5-1.4-.3-2.1-.4-.1-1.2-1.9-1.2-2.3-.1-.5.1-.7.1-1.6.3-.4.1-.9.5-.9 1.1-.1 1.1-.2.9-.4 1.2-.2.4-.1.8.3.9 0 1.3-.2 1.5.3 2.2-.3.4-.6.5 0 1 .5.3.9.2 1.3.2.1.2.2.6.4.8.4.5 1.5 1.1 2.9.2-.8 1.4-2.9.7-3.4.3l-.2.3c-1.9-1-2.8-3.1-2.5-5.5s2.5-4.2 4.9-4.2c3.4-.1 5.6 2.8 5.6 5.2.1 3.2-1.7 4-2.5 4.5m5-1.1l-4.1 2.9c-.1-.2-.5-.8-.7-1.3 1.4-.7 2.3-1.6 2.7-3.3l2.1 1.7zm.8 6.2c-.1-1.3-.3-3.7-.3-3.7-1 .4-2.3 1.2-3.1 1.9 0 0-.7-.3-1.3-1.2l4.1-2.9c.1 0 .2.1.3 0l4.2 3.1v.1c0-.1-3.9 2.7-3.9 2.7m3.4 4.4l-3.1-2.3-.2-1.8 3.9-2.8h.2l4.5 3.3v.1l-5 3.6c-.1-.1-.2-.1-.3-.1m-2.3 5.9l-.6-.3v-3l2.9-2.1h.2l4.8 3.5v.1l-2.2 1.7-5.1.1zm8.8 1l-.4-.5-.3.6-.5-.5v.6l-.3.3h-.9c-.2 0-.3.1-.4.3v.8c.8 0 2-.1 1.8 1h-.2c-.3-1.2-2-.3-2.5-.8v.3c.2.2.4.1.7.1.5 0 1.2-.2 1.3.3l-.8-.1v.4s.9.1 1.3.1c-.3.5-1.2.2-2.5.5l-.5-.3c-.1-.5-.7-1.2-.7-1.2.2-.3.2-.7-.3-1.1-.1.3-.1.4-.2.6-.3-.4-.7-.4-1.1-.2.1.3.2.5.3.6.1.2.7.3.6.5-.3-.1-.7-.1-1 .3.4.1.4.3.9.3.1.9.6.7.7 1.5h-.8c-.7-.5-1-.7-1-.7 0-.6-.3-.8-.8-.9 0 0 0 .5.1.6-.2-.1-.4-.2-.8.1-.1-1.4-.1-4-.1-4l8.7-.1-.3.6zm.2 4.5l-.4-.5c-.7.3-1 .8-.8 2.8-.7 0-1.5-.4-2.2-.8-.3.2-.6.3-1.1.6-.5-1.1 0-2.1.5-2.5 1.4-.9 2.6 0 3.1-1.2 0 0 .1-.2.1-.4 0-.8-.3-1.3-1.8-1.3v-.4h.9l.4-.3h1.1l.4-.4c.1-.1 1.4 3.1-.2 4.4m-1.3 10.2c.7.2-.4.7.4 1.2l-.3.2c-.4-.3-.9-.6-1.2-.9.3 0 .8.1 1.1-.5m-4-2.6c.1-.1.9-.6 1.9.7.3-.4.9-.9 1.2-1.1 1.2 1.6.5 2.2.5 2.2-.6-.4-1-.1-1.2.2.2.2.7.3.7.3-.2.1-.5.2-.8.2-.5-.4-1.6-1.6-2.3-2.5m-4.2.8v-3.7l1.4-1c.9 2.1 1.7 3.7 3.5 5.6l-1.8 1.3s-.1-.1-.2 0L64 50.3zm5.8-6.1l.4-.3c.5.3 1.2.7 1.8.7 0 .5 0 .8.2 1.2l-.7.6c-.7-.7-1.3-1.4-1.7-2.2m.3 5.4c-.4-.3-.8-.9-1.8-.6.2-.3.5-.4.8-.5.3.1.5.4.8.6.4-.2.5-.6.4-1-.1-.5-1.3-1.9.4-1.9.2.2.3.3.4.6-.7 1.2.8 1.4-1 2.8m-1.8-10c.3.5.5.7.7 1.3l.4.2c-.2.2-.6.5-.6.5-.2-.8-1-1-.5-2m.1 3.5h-.5l-1.5-1s-.1-.3-.1-.7c.5.2 1.4.9 1.4.9h.9c-.2.3-.2.8-.2.8m-3-.6c.4-.1.7-.1.9-.1l1.6 1.2h.5c.1.4.2.8.4 1.1.2-.1.6-.2.6-.2.3.5.6.9.9 1.3-.3.2-.8.3-.9.9-.1.8 1 1.7.4 1.9-.2-.2-.3-.3-.6-.4 0 0 0-.8-.8-1.1v.7c-.6-.1-.9 0-1.1.2.3.4.6.5.9.6-.2.1-.3.3-.4.4-1.5-2.3-2.4-4.7-2.7-7.6.2.1.1.2.4.3s.5-.1.5.1c-.2.1-.7.2-.6.7m-.1 2.8l-1.3.9c-.1-3.4-.1-6.5-.1-9.7l.5.3c0 3.7.1 6 .9 8.5M64 50.6l2.6 2.1v.1l-1.9 1.3c-.3-.9-.7-2.4-.7-3.5m-.3-22l2.9 2.1v.1l-2.8 2c.1-1.4 0-2.5-.1-4.2m-6.2 11.8c.9-.2 1.5.2 1.9 1.3 1.9 4.9 4.6 12 5.5 15.4.3.9-.4 1.1-.7.3-1.3-2.9-4.5-10.7-6.7-17M63.4 58l3.1 2.5v.1l-2.1 1.5h-1.1l.1-4.1zm-4.2 5.3c-.8-.5-1.2-1-.8-2.3.7-2.7.7-3.3.6-4.5.1-.3.2-1.3.2-1.8.2-.6.4-.6.5-2.5l.5-.3-1 9.1c-.1.9 0 1.2.8 1.5l2.8 1.2c.7.3 1.1.5 1.4 1.2l.7 1.7s.3.8.4 1.1c-.1 0-3-2.4-6.1-4.4m-35.5-.1c1.9.2 5.5-.2 6.7-.3 0 .4-.1 1.8-.4 2.6-1.6-.1-4.3-.4-4.3-.4.6.6 1 1.4 1.6 1.6.8.3.7.9.5.9-3.3 0-2.3-.9-3.9-1.9-1.8-.9-1.8-2.7-.2-2.5m2.8-.5c-.9.1-2 .1-2.5 0-.1-.3.2-.5.7-.4.7.1 1.5.4 1.8.4m-.1-.6c-.7 0-1.5-.5-2.2-.3.4-1.1 2.1-5.9 2.2-6.1v6.4m.3-11s-.2 2.2-.2 2.9c-.7 2-1.7 5-2.7 7.6-.3.8-.6.7-.5-.1.3-2 2.1-7.5 3.4-10.4m-4.9 3.7l3.9-2.8c-.9 2.2-1.7 4.7-1.7 4.7l-2.2-1.8v-.1zm.2-6.9l4 3.1-.2.4-4.3 3.1s-.2-.1-.3 0l-3.1-2.4c1.5-1.1 2.7-2.4 3.9-4.2m-4.7 1.5c.2.4.7 1.2 1.4 1.5l-1.4 1.2c0-.6.1-1.7 0-2.7m4.3-2s-.4.7-.7 1c-.2-.6-.6-1.2-1-1.8.5.2 1.2.4 1.7.8m.2-.4c-.5-.3-1.3-.5-1.8-.7.4-.1 1.7-.2 2.2-.1-.1.2-.2.5-.4.8m4.8-2.7l-4.3 3c.7-1.3 1.5-2.9 1.9-4.8l2.4 1.8zm-1.1-8.1c3.2-3.3.5-3 1.2-5.6h.4c-.1.2-.1.6-.1.6.2-.2.3-.4.5-.7l.5-.1c-.4.6-.6 1.1-.6 1.8h.2c.4-1.2.8-1.7 1.8-2 .5-.1.6 0 .3.4-.5.6-.6 1.4-.6 2 0 .7.3 1.2.1 1.4-.3.4-1 .4-1.6.8-.6.4-.4 1.2-.2 2.7 0 0 1.4.6 1.8 2.8.3 2.2-1.8 3.6-3.3 1-.8-1.2-.2-3.6.8-3.9v-1.6c-1.6 2-2.1 3.8-1.6 5.2.4 1.3.7 1.2 1.6 3.1l-2.5-1.9c.3-1.6.6-4 .6-6.1-1.5-.1-3.4-.3-5-.4l2.5-1.8c.1.1.3 0 .3 0l2.9 2.3zm1-2.5c0 .5-.5 1.4-1.4 1.8-.7-.5-1.3-1-2.2-1.8v-.1l3.2-2.3c-.1 1 .4 1.9.4 2.4m-.6-6c-.1-.2-.3-.9-.1-1.3.3-.1.7.3 1 .7.6-.4 1-.5 1.3 0s-.1 1.1-.8.9c.6 1.1 2.5.8 2.6-.5-.9.4-1.1-.1-1.1-.5s.5-.8 1.1-.7c0-.4.1-.9.4-1.1.3.1.5.6.5 1.1.6-.1 1.1.1 1.1.5s-.3 1.1-1.2.6c.1.9.6 1.2 1.3 1.2.8 0 1.2-.3 1.3-.5-.5.2-1.1-.2-1-.8.2-.7 1-.6 1.3-.2.2-.2.6-.6 1.1-.5.1.5-.1.9-.3 1.1.7.2.6.9.4 1.1-.5.4-1 .1-1.1-.3-.3.5-.5.7-.7 1.3-2-.3-4.4-.1-6.3.1 0-.6 0-1-.2-1.6-.1.3-.7.6-1.2.2-.3-.3.2-.7.6-.8m2.1-5.1l4.7 3.7-.4.3c-.2-.3-.5-.6-1-.7-.1-.7-.6-1.1-1.1-1.4-.2.1-.8.7-.9 1.3-.5 0-.8.3-1 .7-.5-.4-1-.4-1.3-.2-.5-.5-1-.6-1.5-.6-.3.5-.3 1-.2 1.7l-.3.3-2.1-1.6v-.2l4.7-3.4c.1.1.3.2.4.1m0-.5s-.2-.1-.3 0l-1.9-1.6c.8-1.4 3.4-3.7 4.2-4.1l2.8 2.2v.1L28 22.1zm10.3.3c-.1 0-.2-.1-.3 0l-.8-.6.8-1.7c.1-.2.2-.1.3 0l.6 1.8-.6.5zm7.8-1.3l-2.5-2V19l1.6-1.1c.8.1 1.6.1 2.8 0v.8c-.9.7-1.5 1.5-1.9 2.4m1.6 3.4c-.1 1.8-.5 6.8-.5 6.7-.1 1.3-2.6 1.5-2.1-4 .1-1.5.5-3.2 1-4.6.3.6.7.9 1.4 1.2.3.2.2.4.2.7m3.7 3.2c-.9.6-1.3.9-2.2 1.5l-.1-1.6 2.3-1.5c.2.5.1 1.2 0 1.6m.9.8c0 .5-.4 1.6-1.1 1.5.2-.5.4-1.3.5-1.8.3.2.4.3.6.3m1.4-2c-1-.2-1-1.5-.6-2 .7.3 1.3.3 2.2.1.3 1.1-.2 2.2-1.6 1.9m2.5 1.6c-.5.3-2 .6-2-1.1 1.5 0 1.6-1.5 1.6-1.5.8.2 1.8 1.6.4 2.6m1.1-2.5c-1 .2-1.3-.7-1.4-1.2.8-.2 1.5-.6 2-1.3.6.7.4 2.2-.6 2.5m-.8 12c1.6-.2 1.7.3 2.3 1.9l-1.4.5-.9-2.4zm-.2 5.7l-.2-2.6 1-.1 1 2.8-1.8-.1zm1.4 3.5l-.3-3h.9l1.1 2.9c-.1 0-.8 0-1.7.1m-7.5-4.3l-.3 3-1.3-.8s0-1.7.3-3.1c.3.3.9.7 1.3.9m-.9-4.1l.7.7-.4 2.6c-.3-.2-.4-.3-.7-.5.1-1.3.4-2.8.4-2.8m3.5 5.1c.6.1 1.1.2 1.8.2V47c-1.3 0-2-.3-2-.3l.2-3.2zm-1-.7l.3-2.5s.8.3 1.5.4l-.2 2.4c-.3 0-1.1-.1-1.6-.3m-1.8-.9l.4-2.6s.8.7 1.3.9c0 .1-.3 2.5-.3 2.5-.7-.3-1.1-.6-1.4-.8m.6.8c.5.2 1.1.6 1.7.7l-.3 3.1c-.9-.3-1.7-.8-1.7-.8l.3-3zm6.3 1.1l.2 3.1c-1 .2-2 .2-2 .2v-3.3c.6-.1 1.2-.1 1.8 0m-2.9-.6l.1-2.5s.9.1 1.6 0v2.6c-.5 0-1.2-.1-1.7-.1m2.2-5c.1.2.5 1.4.7 1.9-2.7.5-5.5.3-7.7-2.8l.3-1.8c1.7 2.5 4.2 3.4 6.7 2.7m-5-3.6c.3.4.4.5.7.8-.2 1.2-.9 1.2-1.5.8-.5-.4-.6-.9-.4-1.5.3.1.9.1 1.2-.1m1.6 3.1c-1.1-.3-.7-1.5-.6-2.1.5.4 1.2.7 1.9.7.1.8.1 1.7-1.3 1.4m-1.7-3.9c.4 0 .7-.1.9-.3.1.3.5 1.3 1.5 1.5.9.1 1.3-.1 1.7-.4l.3 1.2s-.3.1-.7.2c-.8.1-2.4-.4-3.4-1.8-.3.1-1 .3-1.3.1l.2-1c.2.2.4.4.8.5m-1.7-2.4l-.1-1.7 2.1-1.4c-.4 1.5-.9 2.7-2 3.1m2.7 1.1c0 .7-.9 1.2-1.7.4l.4-1.6c.2.7.7 1.2 1.3 1.2m1.9-1.6c0 .6-.5 1.5-1.6 1.3-1.2-.2-1.3-1.1-1.3-1.7.5 0 1-.3 1.3-.9.1.7.7 1.3 1.6 1.3m.1-.4c-1.4 0-1.3-1.5-1.3-1.9.6-.1.9-.3 1.2-.8.2.5.7.9 1.2.9 0 .6.3 1.8-1.1 1.8m-.3 4.1c-1-.1-1.4-1-1.3-1.9.5.1 1.2 0 1.5-.5.1.6.6.8 1 .8 0 .3.2 1.6-1.2 1.6m2.7-3.2c.1.5-.2.9-.7 1.1-.9.2-1.3-.1-1.4-.6-.1-.5.1-1 .7-1.2.6-.1 1.2 0 1.4.7m0-.8c-.2 0-1-.2-.9-1.8.3 0 .8-.1 1.1-.5-.1.6-.2 1.4-.2 2.3m.3 5.7c.3-.1.6-.2.9-.4l.3.9c-1.1.2-2 .6-3.1 1.2-.1-.3-.3-.9-.4-1.3.6-.1 1.1 0 1.7-.3-.4-1.2-.7-2.3-.9-3.5.8-.1 1.5.5 1.7 1.4.5 1.4-.4 1.3-.2 2M51.7 49c-1.1-.3-2.6-.2-3.3-.3 0 0 0-1.9.1-3.4.9.5 3.1 1.8 5.2 2.1 1.7.3 4.1-.5 5.8-.2l.8 2c-3-.5-5.3.6-8.6-.2m2.1 2.4c-1.4 0-2-1.6-5.4.2v-2.2c2.9-.4 3.9.7 6.4.6 1.7-.1 3.5-.6 5.7.1l-.1 1.2c-4.8-1-4.9.1-6.6.1m4.8 3.1h-.7c.2-1 .2-2.1.1-3.1.4.1.8.2 1.1.5 0 .7.1 1.7-.5 2.6m-2-3.2c.2 0 .7 0 .9.1.2.6.1 2.6 0 3.1-.4.1-.8.1-.8.1-.1-.9-.2-2.4-.1-3.3m-.3 4.4h-.7v-1c.8.5 2 .1 3.1.3l-.1 1.2c-.9.2-1.3-.6-2.3-.5m0-1.1c-.3-.1-.5-.2-.8-.4-.1-.7-.3-1.6-.2-2.4.3-.2.4-.3.8-.3 0 .8-.1 2.2.2 3.1m-3.1 9.9c.5-1.2.2-1.6-.1-8.5 0-.3 0-.8.1-1.4.3-.8.5-1.6.4-2.2l1.2-.4c-.1 1.5.3 2.9.4 4-.2.6-.3 1.2-.3 1.7 0 1.6 1.2 2.3.7 5.7-.2 2.1 1.8 1.2 2.4 2.3.1.2.5.4.7.5-3.8.2-3.7-1.3-5.5-1.7m-.2 1c-.1-.4.1-.6.5-.4s1 .7 1 .7c-.3.4-.5.6-.9.8-.1-.2-.5-.8-.6-1.1m-1-.6c.2-.8-.3-1.2.1-2.8.1-.7.4-1.5.8-2.2.2 4.8-.2 3.8-.4 4.8-.1.7.4 1.2.7 1.8-1.1 0-1.9-.5-2.6-.7.5-.3 1.2-.3 1.4-.9M46.7 66c1.2-.6 1.1-1 1.7-1.5.6-.5 1.3-.8 1.5-1.4.3-1.3-.4-4-.4-5.8 0-1.6.7-1.7 2-1.2 1.5.5 1.4 2.2.5 3.9-.4.8-.6 2.1-.6 2.9 0 .7.6 1.8-.6 2.3-2 .5-1.4 1.7-3.9 1.8-1 0-1.3-.5-.2-1M50 53.9c-.3-.2-.5-.4-.8-.6-.1-.3-.2-1.2-.2-1.5.4-.4.7-.4 1.1-.5-.2 1-.3 1.4-.1 2.6m1.7-2.7c.4.1.9.4 1.3.9.1.6 0 1.3-.2 2l-1 .2c.3-1 .2-2-.1-3.1m-1.1.1l.7-.1c.2 1.1.3 2.2.1 3.2-.3 0-.7-.1-1-.3-.1-.8 0-1.8.2-2.8m2 3.5v.7c-1.2.1-2.1 0-3.1-.3l-.2-1.1c.9.6 2.1.9 3.3.7m-4.5 7.3c.3-.5.4-1.4.4-2.2 0-1.8-.2-7.7-.2-7.7l.3.2.4 3.6c-.2 2.6.1 3.5.3 5.2.1 1.1.2 1.8-.5 2.3-2.2 1.5-1.2 1.5-2.9 2.4l2.2-3.8zm-.4-.5c.1.5-1.9 3.6-2.5 4.7-.3-.1-.7-.6-1-1.3-.1-.2-.3-.4-.6-.3-.4 0-.8 0-1-.1 1.5-.9 3.2-1.6 5.1-3m-1.9-2.7l-.2 3.2h-4.4l4.6-3.2zm-8.6-6.4l3.6 2.6v.1l-3 2.1c-.1-1.4-.4-3.3-.6-4.8m0 5.8l.1 1.4c-3.6-.1-6.5 1.4-10.3.5v-2.7c6.1 2.6 6.7.5 10.2.8m-11-7.5l-3.9-3.1 4.6-3.2c.8 2.4-.1 4.5-.7 6.3m2.7-6.5c.1 1.8-1 1.6-1 1.6-.1-.7-.5-2-.7-2.7.4.2 1.4.8 1.7 1.1m2.1-.4l-.3.8-2.6-1.6c.6-.1.9-.3 1.2-.7l1.7 1.5zm1-3l-.3 1-1.9-1.4c0-.7-.3-1.4-.8-2.1l3 2.5zm-1.8-5.4c.7.3 1.3.5 1.9.4.1 1.8 1 2.6 1.9 3.5-.6.5-1.6.6-2.3.4-1.2-.4-2.5-2.1-3.9-2.8-.3-.9-.6-2 1.2-2.5.3.4.6.7 1.2 1m1.4-3.3c-.1.9-1.1 2.4-1.1 2.4.3 0 1.1-.6 1.3-.9h.7c0 .1.3.4-.4.5 1.1 1.2-.4 1.4-1.7.8-.3-.1-.5-.3-.6-.6-.2-.4-.3-1.2-.1-1.6.4-.9 1.3 0 1.9-.6m-.1-.4c-.2.3-.8.4-1.4 0 .3-.4 1.3-.6 1.4 0m1.3-.7c-.1.1-.2.3-.2.6 0 .5.1 1.1.1 1.5l-.9-.1c-.2-.2.2-.1.2-.7v-.8c0-.3 0-.4-.5-.6-.4-.1-1-.1-1.4-.1 0-.4.3-.6.7-.7.5-.1 1.2 0 1.6.1s.4.2.5.4c.1.2 0 .3-.1.4m.5 3.7l3.6 2.8v.2l-2.2 1.5c-1-.8-2-1.9-2-3.4.3-.1.9-.3.6-1.1m4.3-4.3h.3l3.5 2.8v1.4l-3.9 2.7c-.1-.1-.3-.1-.4 0l-3.9-3v-.7l4.4-3.2zm-2.2-1.9l1.9 1.5v.1l-4.1 3c-.1-1.6.3-2.7.7-3.7.7.5 1.8.1 1.5-.9m6 26.5l4.8-3.4-.4 6.8-4.4-3.4zm-.2-6.5s.2.1.3 0l1.8 1.3c-.1 1.1.8 1.8 1.9 1.4l.5.4-4.5 3.1s-.1-.1-.3 0l-3.7-2.7-.1-.8 4.1-2.7zm-4.1 1.5l-.3-.2-.2-1.8 2.2-1.5 2.2 1.6v.1L37.2 51l-.1-.9zm-.2 5.5l.3 2.2s-1.1-.1-1.9 0l-.3-2.5c.6.1 1.2.1 1.9.3m-3.3-.7l-.2-2h1.7l.2 2c-.5-.1-1 0-1.7 0m.9.4l.2 2.6s-1.1.3-2 .3l-.2-2.8c.6 0 1.5-.1 2-.1m-3.2-.3l-.1-2.2c.6.1 1.9.1 1.9.1l.1 2.1c-.8-.1-1.3 0-1.9 0m.8.5l.2 2.8c-.9 0-1.8-.2-1.8-.2l-.1-2.6h1.7m-3-.6v-2.7c.6.3 1.6.5 1.6.5l.1 2.3c-.6 0-1.1 0-1.7-.1m-.7.4c.4.1 1.1.1 1.5.1L30 58s-1-.3-1.6-.6v-2.1zm8.5-.2c-.4-.1-.6-.2-1-.2l-.2-2.1 1-.1.2 2.4zm-.5-4.7c.1.6.1 1.3.2 1.9-4.5 0-7 0-9.4-1.8l.3-1.5c2.3 1.7 5.3 1.8 8.9 1.4m-6.6-2.3c.4 1.1 1.6 1.2 2.5 1.3.6 0 1.6-.3 2-.9.3.5 1.1.5 1.7.2l.2 1.3c-.4 0-.7-.1-1.2-.3l-.3-.2-.2.1c-1.4.9-3.4.7-4.4-.4 0-.1-.1-.1-.1-.1s-.1.1-.2.1c-.6.2-1.7.1-2.1-.5l.2-.8c.2.3 1.2.9 1.9.2m1.4-2.5c0 .9-.7 1.1-1.3.9-.6-.2-.8-.8-.6-2 .4.4 1.5.9 1.9 1.1m-.1-2.2l-1.5-1.3.2-1.1 1.7 1.3-.4 1.1zm1.2 4.2c.5.1 1.3.1 1.7-.7.1.6.2 1.7-.8 1.9-1 .1-1-.8-.9-1.2m-.4-.2c0 .8-.3 1.3-1 1.2-.6-.1-.9-.7-.8-1.5.6.1.7-.1 1-.3.1-.1.3.5.8.6m-.2-1.5c.5.2 1.1.5 1.9.8-.2 1-2.5.5-1.9-.8m3.4 2.6c-.8-.1-.8-.9-.7-1.4.3.2 1.2.2 1.6.2 0 .6-.1 1.3-.9 1.2m-.1-6.3c-.4.5-.7.2-.8-.1-.2-.9-.2-1.6.3-2.4.8 1.1 1.4 1.3.5 2.5m3.5-3.4c-.9.7-1.6 1.3-2.4 2.1-.3-.6-.8-1-1.1-1.4l2.2-1.5s.2.1.3 0l1 .8zm2.9-2.9c-1.1 1.4-1.2 1.8-2.6 2.7l-1.1-.9v-.1l3.8-2.6-.1.9zm3.2 8.2s.2-1.5.2-2.1c-.3-.2-1.1-.1-1.2.6-.1-.2-.6-.2-.8.2-.3-.2-.7-.2-.7.2-.1 0-.2-.1-.3-.1v-1.6c.7-.1 1.7-.4 1.2-1.3.5-.2.4-.8.1-.9.3-.3.4-.5.4-.8s.1-.5.1-.9c0-.6-.1-.7-.4-.7.4-1.3-.1-1.8-.8-.9-.2.2-.7 1.1-.7 1.1v-3.1h3.7L45 44.2l-.4-.1zm-5.9-.8c.5-1 .8-2.2 2.6-2v1.6c-.5.3-1.6.3-2.6.4m2.2.3c.2 0 .4 0 .4.3.1.3.4.3.4 0 0-.2 0-.3-.1-.4-.1-.4.3-.4.4-.1.1.2.1.4.1.6 0 .2.3.3.3 0 0-.2 0-.4-.1-.7-.1-.4.3-.3.4-.1 0 .2.1.5.1.8 0 .2.3.2.3 0 0-.3-.1-.5-.1-.8 0-.4.4-.4.4 0v.9c0 .3.3.3.3 0s0-.7.1-1.1c.1-.3.1-.5.6-.5-.1 1-.2 1.7-.3 2.6-.1.7-.5.6-1.2.5s-2.5-.4-3.2-1v.8c-.8.7-2.6 1.8-3 2l1.7-3.3c.9-.3 1.4-.4 2.5-.5m3.8 2.2l-3.2 2.3s-.1-.1-.3 0l-2.1-1.6 1-.7v-.5c.8.3 1.5.5 2.5.7 1.7.3 1.8-.3 1.9-1.2h.2v1zm-1.3 3.8l-1.7-1.3 3.1-2.2s0 1.4-.1 2.2c0 .3-.1.3-.3.3-.4.2-1 .7-1 1m1-.5c.7-.1 1 .4 1 .8 0 .5-.3.9-.8.9-.5.1-.9-.2-.9-.8 0-.4.4-.8.7-.9m-3.3-11c.1.1.7-.5.9-.7.3-.5.5-1 .8-1.5.2-.3.4-.1.3.2-.1.3-.7 1.6-.8 1.9-.1.2-.4.3-.6.5l.2.3.8-.6.4-1c.1-.2.3-.4.3.1s-.1.9-.2 1.2l-.6.6c-.2.2-.3.2-.2.3.1.2.2 0 .4 0 .3-.1.6.3 0 .5-.3.1-.4.1-.4.2 0 .2.1.1.2.1.3 0 .3.4-.1.5-1 .2-2.2-.1-2.9.2-1 .3-1.4-.4-1.6-.8.4-.5.9-.8 1.4-1.1.9-.5 1.5-1.4 1.9-2.2.3.3-.3 1.2-.2 1.3m-9 2.3c.6.1 1.2 0 1.7-.2-.1.3-.2 1-.2 1.7l-1.5-1.5zm.2 1.1c.5.4 1 .9 1.5 1.3.7.5 1.1.4 1.5-.1 0 0 1.4-1.6 2.3-2.4 0 0 .8 1 1.2 1.4-.8 1.7-1.2 2.7-2 4-.9 1.6-2.2.9-2.7.7-1-.3-2-.9-3-1.4l1.2-3.5zm-4.4 4.8c.2 0 .6-.1 1-.4 0 .5.4.9.8 1 .1.9-.9 1.5-1.8.4v-1m.1 8.9v2.1l-.9-.3v-2.1l.9.3zm-.9-.8c0-.7.2-3 .2-3 .6.4 1.3.7 1.3.7v2.8c-.5-.1-1-.3-1.5-.5m19.1-2.7l-.7-.5c1.1-.9.5-2 0-2.3-.2-.1-.4-.1-.4-.4 0-.3.2-2.5.2-3.7h.4l.4-11.6h-2.3l1.5-1c.5.5 1 .5 1.9.5l-1 19zm-3-25.3l1.5-1.1s-.2 1-.3 2.2l-1.2-1.1zm1.2 1.4c0 1.6.1 3.2.7 4.1l-1.8 1.2h-1.7l-3.7-2.9v-.1l4.7-3.4c.1.1.3 0 .3 0l1.5 1.1zm-9.5-1.6c-.5 0-1 .1-1.4.4l-.3-.2L38 23s.2.1.3 0l4.3 3.4v.1l-4.8 3.4c-.2-.1-.3 0-.3 0L35.1 28c.1-.6.1-1.3-.2-1.8m-3.2 36.5c0 1.1-.1 2.1-.4 3l-.7-.1c.2-1 .3-2 .3-2.9h.8zm-4.6 0v-2c5.1.6 6.2-.6 10.3-.6l.1 1.3c-3.5-.6-3.4.9-10.4 1.3m4.9 1.2l.1-1.3c1-.2 1.8-.6 2.3.2-.7.6-1.5 1-2.4 1.1m2.2 1.4c-.5.7-1.7.6-2.4.4l.2-.6c.7.2 1.5.3 2.2.2m-2.2-.5l.1-.3c.9-.2 1.7-.5 2.5-1.1.3.3.1 1.1 0 1.4-.9.3-1.9.1-2.6 0m3.1-1.7c-.1-1.3.7-1.4 2.4-1 .5 2.3-1.5 2.3-2.3 2.2.1-.5-.1-.7-.1-1.2m5.9-.9h-2.8l-.1-2 2.9 2zm-2.9-2.4c0-.6-.1-1.5-.2-2.2l3.1-2.2s.1.1.3 0l4.4 3.2-4.5 3.2-3.1-2zm19.7 2.9c.3.8 1.2.9 2.2 1.7.4.3.7.9 1 1.4.3.4-.1.8-.7.5-.6-.4-.8-.1-1.3-.4s-.9-.8-1.3-1.1c-.7-.5-1.9.4-1.6-1.9 0-.4.3-1.8-.5-3.8-.3-.9-.2-2 .3-2.8.8 0 1.8.2 2.3.9.9 1.5-1 4-.4 5.5m4.9-7.5l.1 7c-.9-1.2-1.4-2.4-1.3-4.3.2-.7.7-1.9 1.2-2.7m-.7-.1l-1.2 3.3c-.4 1-.7 1.9-.6 3l.5-.1c-.1-.4 0-1.8.4-2.4.1 1.7.9 3.2 1.8 4.2 0 0-1.8-.6-2.5-.9-.8-.3-.9-.5-.8-1.6l1.3-9.5c1 2.1 1.5 3 1.1 4m1.3-16.5l-.4-.2c-.2-.9-.5-2.2-.5-2.2l-.4-2.3h-.5l.3 2c.1.6-.5.7-.7.7-.1-1.2-.2-2.8-.2-2.8l-.5-.5.3 3.6c.1 1.6.1 2.8-1.1 3.2l-.7-2.1c1.3-.4 1.3-1.5 1.1-3.2l-.3-1.8-.5-.5.2 2.2c.1 1 .4 2.5-.8 2.8l-.5-1.6c.6-.3.7-.7.6-2.1l-.2-1.4-.6-.6.3 2.1c.1 1.2.1 1.3-.3 1.5-.8-2.5-1-4.3-1-4.3-.2-3.1.4-3.6 1.2-3.6.5 0 .9.4.8.9-.1.8-1.1.6-1.1.6s-.1 1 .4 1.7c.8 1 2.3 1.6 3.7 1.5.6-1.9.9-2.6 1-3.1.4 4.1.4 9.5.4 9.5m-1.8 3.2l-1.3.3c-.2-.6-.4-1-.4-1 .5.1 1.5.6 1.7.7m-.3-4.7s.6 0 .9-.4c0 0 .3 1 .4 1.9.1.9-.2 1.8-.5 3l-.7-1.3-.4.2s.3.7.4.9l-1.6-.8c1.3-.5 1.6-1.5 1.5-3.5m.1 7.8c-.2-.5-.6-1.6-.9-2.5l2.6-.6v-.4l-.7.1c.2-.7.3-1.5.7-2.5l.3.1v3.4c-.3 0-.6.1-.6.4 0 .3.3.3.6.3 0 1.1-.5 1.7-2 1.7m2 5.6c-.4-1.2-.7-1.9-1.1-3.1l1.2-1.5c.1.4.1 3.3-.1 4.6m.1-5.4L62 46.9c-.2-.5-.3-.9-.5-1.4.7 0 1.3-.1 1.9-.9v.5zm-.6-16.8c-.3 1.1-.8 2.6-1.1 3.4-1.2.1-3.3-.7-3.2-2.2.9.1 1.2-.7 1.1-1.4-.2-1-1-1.2-1.9-1 1.3-1.5 2.8-2.6 4.9-3.9-1.4 3 .8 3.1.2 5.1M58.6 24c.2.3.6.6.8.8-.7.6-1.6 1.4-2.1 2 0-.2-.1-.4-.1-.7.9-.3 1.5-.8 1.4-2.1m-6.7 2s.4-.1.6-.3c.2.8.7 1.1 1.2 1.3 0 1.1-1 1.5-1.9.9.1-.5.2-1.2.1-1.9M48 31.9l.2-3.7.5-.4c.1 1.2.2 3.7.2 3.7-.3.2-.5.3-.9.4m2 0c-.2.5-.5 2.1-.6 2.7l-.4.4-.5 2.7s.2.3.2.5c-1.7 7.8-1 16.6-1 21 0 2-.3 1.9-1.4 2.6l1.5-29.1c.8-.2 1.6-.4 2.2-.8m-9.4-11.1c.4-.8 1.1-1.9 1.7-2.4l.7.6v.1l-2.4 1.7zm2.5-1.4h.3l2.6 2c-.5 1.1-.8 1.8-1.2 3.5L43 26.2c-.1-.1-.3 0-.3 0l-4.3-3.4v-.1l.6-.4.2.6c.1.2.2.3.4 0 .3-.5.4-.9.8-1.4l2.7-2.1zm-9.8-.7l1.6-1.3c.5 1.1 1 2.6 1.2 3.5l-2.8-2.2zm2.9 2.7s.3.8.4 1.1c.1.2.2.2.3 0l.2-.4.7.5v.1l-4.9 3.5-4.8-3.8v-.1l4.7-3.4h.3l3.1 2.5zm-19 25.7c0-.8.4-1.7 1.1-2.5l.4 1.4c-.2 0-.6.1-.6.1v.8c.9-1.2 2.4.4 2.1 2.3-.3.5-1 1.2-1.4 1.6-.2-.2-.7-1.2-.9-1.5.7 0 1.3-.2 1.1-1.2-.5.7-1.9 1.2-1.9-.2.2 0 .6.1.6-.4.1-.4-.2-.4-.5-.4m2.4-3.7c-.4-.1-.7-.2-.8-.9 0-.3-.1-.4-.1-.8l.9-.3v2zm1.7 1.4c-.4 0-1.2 0-1.3-1.6 0-.5-.1-1.1 0-1.9.3-.1.5-.3.8-.4 0 1.2 0 2.9.5 3.9m.2-6.7c0-.4.3-.6.8-.5.6.1.7.7.6 1.3 0 .5-.1 1.2 0 2.3-.4 0-.7-.2-.7-.9v-1l-.4.3c0 1.2.1 2.3.3 3.4-1.2 0-1-1.5-1-2.9-.9.5-1.8 1-2.7 1.3l-.2-.6c1.3-.4 2.6-1 3.7-2-.3-.2-.4-.4-.4-.7m-5.7-1.5c.4.2.6.5 1 .9.2-.1.4-.3.7-.1.8.5.6 1.9-.1 1.9-.6-.1-1.2-1.6-1.6-2.7m-.2 5c0 .8-.3 1.6-1.2 1.6.1-.5.2-1.2.3-1.9.2 0 .6.2.9.3M17 52.2s-1.2-.9-1.6-1.3c.5-.4 1-.9 1.2-1.4.1.8.2 2 .4 2.7m-.2-7.1c-.5-.3-1-1.5-1-2 0-.4.1-1.3.4-1.9-.7.2-1.3-.1-1.9-.4-.2 1.6-.2 3.7-1.6 3.6.4-.9.8-2.1.9-3.9l-.3-.2c-.1.6-.2 1.4-.3 2.1-.1.4-.5.4-.8.4.4-.9.4-2.1.5-3.3l-.3-.3c-.1.5-.2.8-.7 1 .2-.6.1-1.7.1-2.5 0-.6.3-.8.7-.8s.6.4.6.8-.2.7-.7.8c1 1.4 2.6 2.3 4.2 2.5.2-.4.1-.5.2-1h.9c-.1 1.7.5 1.5.7 3 .1.9-1 2.4-1.6 2.1m10 23.1h3.6c-.7.2-.8.6-.8 1.3-.2 0-1 .1-1.3.5-.1-.3-.4-.5-1-.5.1-.6-.1-1.1-.5-1.3m7.6 1.2s-.7 0-1.1.5c-.2-.3-.5-.5-1-.4 0-.8-.4-1.1-.9-1.3h3.5c-.6.2-.5 1.2-.5 1.2m7.7 2.8c.6 0 .8-.1 1.1-.5.2.5.7.6 1.1.6 0 .6.3 1.2 1 1.5h-3.9c.6-.4.7-1.1.7-1.6m-2.5-.2c-.4 0-1.2-.1-1.3-1.1s.8-1.1 1.3-1.1c0-.3-.1-1.4.9-1.5 1.1 0 1 1.1 1 1.5.4 0 1.2 0 1.3.9.1 1.4-.9 1.1-1.3 1.1 0 .6.2 1.6-.8 1.7s-1.1-1.2-1.1-1.5m-2.5-2.5c0-.9-.2-1.1-.5-1.4h3.2c-.5.2-.6.7-.6 1.3-.5 0-.8.3-1.1.6-.4-.3-.5-.5-1-.5m-.1 2.8c.6 0 .9-.2 1.1-.6.2.4.7.7 1.2.6 0 .7.2 1.2.9 1.4h-3.8c.4-.1.7-.8.6-1.4m7.2-2.9c-.6 0-.9.3-1.2.5-.3-.3-.5-.5-1.1-.4 0-.6-.2-.9-.6-1.3h3.4c-.3.2-.5.6-.5 1.2m7.4 2.7c.4 0 .6-.2.8-.5.2.4.4.5.9.5 0 .7.3 1.2.9 1.6h-3.4c.6-.2.8-1 .8-1.6m1.8-2.7c-.4 0-.8.2-1 .5-.3-.4-.5-.4-1-.4 0-.7-.2-.9-.5-1.3h2.9c-.3.2-.4.8-.4 1.2m-5.6.4c-.3-.2-.5-.4-.9-.3 0-.7-.2-1-.6-1.4h3.2c-.5.3-.6.7-.6 1.3-.4 0-.8 0-1.1.4m1.4.1c0-.4-.1-1.4.8-1.5 1-.1.9 1.1.9 1.4.3 0 1.3 0 1.2.9 0 1.1-1.2.9-1.2.9 0 .4.2 1.8-.9 1.7-1-.1-.8-1.1-.9-1.5-.4 0-1.2.1-1.2-1.1 0-.9 1-.9 1.3-.8m5.5 3.4c-1.1 0-1-1.3-1.1-1.6-.3 0-1 .1-1-.9-.1-1 .8-.9 1.2-1 0-.4-.2-1.4.8-1.4 1-.1.9 1.1 1 1.5.5 0 1.2-.1 1.2 1 0 1-.9 1-1.2 1 0 .3.2 1.4-.9 1.4m3.5-4c-.6 0-.9.3-1.2.7-.2-.2-.4-.4-.9-.4 0-.6-.3-1-.7-1.4h3.3c-.4.2-.5.7-.5 1.1m5.2-1.2c-.4.4-.5.7-.5 1.1-.5 0-.9.1-1.2.7-.3-.4-.5-.6-1-.5 0-.7-.2-1-.6-1.2l3.3-.1zm-34.8-.4c.1-1.2-1.3-1.1-1.4-1.9 4.7.3 6.9 1.8 8-.8 1.3.3 3-.2 3.2-2l6-.1s-1.9 1-3.1 1.7c.8.8 1.7.4 2.3.8.5.3.5 1.2 1.9 1.7 2.8 1 3.5-.3 4.6-.8.4.1 1.9.9 3.7 1l1.4-1.1c1.4.4 2.6.6 4.6.4 1.1.5 2.5.3 1.8-1.2l2.8 2.2-35.8.1zm44.5-17c-.1.3-.3.7-.5 1-.5-.2-.1-.4-.1-1-.2-1.9-2.4-3-.3-4.4 1.1 1.7-.3 2.8.9 4.4m2.4-7s1.8 2.6-.5 3.7c-.9-.6-1.5-2.5.5-3.7m-.5-4c0-.3.2-.6.3-.6.2 0 .3.3.3.6s-.2.6-.3.6c-.1 0-.3-.2-.3-.6m.3 3.5c-1.1.8-1.6 1.4-1.6 2.5 0 1.7 1.5 2 .7 2.6-.5.3-.8-.4-1.3-.6.1-.9-.8-1.8-.7-3h.5c-.2-1-.4-2.6.1-2.8l.4.5c1.3-.8 1.3-2.3 1.3-2.3l.2.3c-.1 1 0 2 .4 2.8m-26.8-23c.2.3.3-.5.6-.1.3.5-.7.8-.4 1.1.2.1.4-.4.5-.1.2.4-.4.6-.3.8.2.3.4-.2.5.1.1.3-.6 1.1-1.1 1.5-.8.5-2.2 0-1.7-2 .3-1 1-1.7 1.7-2.3.3-.2.8 0 .5.4-.1.1-.4.3-.3.6m-11.7-7.3c-.2.1-1.2-.8-1.5-1.3l1.2-.3c-.5.4.6 1.4.3 1.6m27.4 60.3c-1 0-.9-1.1-.9-1.5-.4 0-1.3 0-1.3-1.1s1-1.1 1.4-1.1c0-.3 0-1.3.8-1.3.9 0 .8 1 .9 1.4 0 0 1.2-.1 1.3.9.1 1-.8 1.1-1.2 1.1 0 .6 0 1.7-1 1.6m2.7-5.1c-.4.2-.7.8-.7 1.3-.1-.1-.4-.2-.6-.2 0-.5-.1-1-.5-1.2h.9l1-1.2c-.2.4-.2.9-.1 1.3m3.6-5.1l.1 3.5c-.4-.3-.9-.4-1.5 0-.1-.4-.6-.8-1.2-.5l2.6-3zm-4.8 4.5s-1.1-2.8-1.2-3.1c-.3-.7-.4-.8-1.2-1.1v-.6h6.6l-4.2 4.8zm12.1-36.9l-5-3.7v-.1l2.1-1.5c1 1.6 2.1 3.6 2.9 5.3m-7.4-11.4C64.6 13.5 57.2 9.9 49.2 9c.2-1.1.7-2.5 1.1-3.6-.3-1.2-.6-2.4-.9-3.7h-.3c-.5 1.2-.9 2.2-1.5 3.5.2 1.6.7 2.6.8 3.8 0 0-2.5-.2-3.7-.2C24.7 8.7 8.5 25 8.6 45c0 9.7 3.8 18.8 10.6 25.7 6.9 6.8 16 10.6 25.7 10.7 9.8.1 18.8-4 25.6-10.9 6.9-6.9 10.6-16 10.6-25.7 0-9.6-3.9-18.7-10.7-25.6"/><path d="M25.9 71.6c.4 0 .6-.3.6-.6 0-.4-.3-.6-.6-.6-.4 0-.6.3-.6.6s.3.6.6.6m28.8-1.4c-.4 0-.6.3-.6.6 0 .4.3.6.6.6.4 0 .6-.3.6-.6s-.3-.6-.6-.6m-4.6 1.2c.4 0 .6-.3.6-.6 0-.4-.3-.6-.6-.6-.4 0-.6.3-.6.6 0 .4.3.6.6.6m-4.6-1.1c-.4 0-.6.3-.6.6 0 .4.3.6.6.6.4 0 .6-.3.6-.6s-.3-.6-.6-.6m-5.1 1.3c.4 0 .6-.3.6-.6 0-.4-.3-.6-.6-.6-.4 0-.6.3-.6.6s.3.6.6.6m-4.1-.7c0-.4-.3-.6-.6-.6-.4 0-.6.3-.6.6 0 .4.3.6.6.6.4 0 .6-.2.6-.6m-4.8.1c0-.4-.3-.6-.6-.6-.4 0-.6.3-.6.6 0 .4.3.6.6.6s.6-.3.6-.6m37.1-3.1c-.3.1-.5.4-.5.7 0 .4.4.7.7.6.3 0 .5-.3.5-.7-.1-.4-.4-.7-.7-.6m-46.8.8c0-.3-.3-.6-.6-.6-.4 0-.5.4-.5.6 0 .3.3.6.6.6s.5-.3.5-.6m42.4 1.4c-.4 0-.6.3-.6.6 0 .4.3.6.6.6.4 0 .6-.3.6-.6.1-.3-.2-.6-.6-.6m-4.2.7c0-.4-.3-.6-.6-.6-.4 0-.6.3-.6.6 0 .4.3.6.6.6s.6-.3.6-.6M50.4 30c0 .2-.1.3-.3.3s-.3-.1-.3-.3c0-.2.1-.3.3-.3.1-.1.3.1.3.3m-1.2-3.6c0 .2-.1.3-.3.3s-.3-.1-.3-.3c0-.2.1-.3.3-.3.1-.1.3.1.3.3m1.1 1.5c0 .2-.1.3-.3.3s-.3-.1-.3-.3c0-.2.1-.3.3-.3.1 0 .3.2.3.3M30.9 42.4c0 .2-.1.3-.3.3-.2 0-.3-.1-.3-.3s.1-.3.3-.3c.2-.1.3.1.3.3m-.6 1.3c0 .2-.1.3-.3.3-.2 0-.3-.1-.3-.3s.1-.3.3-.3c.1 0 .3.1.3.3m1.2-2.9c0 .2-.1.3-.3.3-.2 0-.3-.1-.3-.3s.1-.3.3-.3c.1 0 .3.2.3.3m1 13c0 .2-.2.3-.3.3-.2 0-.3-.2-.3-.3 0-.2.2-.3.3-.3s.3.2.3.3m-2.2-.1c0 .2-.2.3-.3.3-.2 0-.3-.2-.3-.3 0-.2.2-.3.3-.3s.3.1.3.3m4.5.1c0 .2-.2.3-.3.3-.2 0-.3-.2-.3-.3 0-.2.2-.3.3-.3s.3.2.3.3m-5.3 2.7c0 .2-.2.3-.3.3-.2 0-.3-.2-.3-.3 0-.2.2-.3.3-.3s.3.1.3.3m6.9 0c0 .2-.2.3-.3.3-.2 0-.3-.2-.3-.3 0-.2.2-.3.3-.3.2 0 .3.1.3.3m-2.4.2c0 .2-.2.3-.3.3-.2 0-.3-.2-.3-.3 0-.2.2-.3.3-.3.1-.1.3.1.3.3m-2.4.1c0 .2-.2.3-.3.3-.2 0-.3-.2-.3-.3 0-.2.2-.3.3-.3.2 0 .3.1.3.3m-3.4-3.6c0 .2-.2.3-.3.3-.2 0-.3-.2-.3-.3s.2-.3.3-.3c.1 0 .3.1.3.3m25.8-8c0 .2-.2.3-.3.3-.2 0-.3-.2-.3-.3 0-.2.2-.3.3-.3.1-.1.3.1.3.3m-2.3-.7c0 .2-.2.3-.3.3-.2 0-.3-.2-.3-.3 0-.2.2-.3.3-.3.1-.1.3.1.3.3m4.7.8c0 .2-.2.3-.3.3-.2 0-.3-.2-.3-.3s.2-.3.3-.3c.1-.1.3.1.3.3m-1.1-3.4c0 .2-.2.3-.3.3-.2 0-.3-.2-.3-.3s.2-.3.3-.3c.1 0 .3.1.3.3m-2.1-.1c0 .2-.2.3-.3.3-.2 0-.3-.2-.3-.3s.2-.3.3-.3c.1-.1.3.1.3.3m-2-.7c0 .2-.2.3-.3.3-.2 0-.3-.2-.3-.3s.2-.3.3-.3c.2-.1.3.1.3.3m-1.6 2.4c0 .2-.2.3-.3.3-.2 0-.3-.2-.3-.3 0-.2.2-.3.3-.3s.3.1.3.3m7.7-1.6c0 .2-.2.3-.3.3-.2 0-.3-.2-.3-.3s.2-.3.3-.3c.1 0 .3.1.3.3m-28.8 8.3c0 .2-.2.4-.4.4s-.4-.2-.4-.4.2-.4.4-.4c.2.1.4.2.4.4m1.3.6c0 .2-.2.4-.4.4s-.4-.2-.4-.4.2-.4.4-.4c.2.1.4.2.4.4m1.4.4c0 .2-.2.4-.4.4s-.4-.2-.4-.4.2-.4.4-.4.4.2.4.4m1.5.2c0 .2-.2.4-.4.4s-.4-.2-.4-.4.2-.4.4-.4.4.2.4.4m1.6.1c0 .2-.2.4-.4.4s-.4-.2-.4-.4.2-.4.4-.4.4.2.4.4m1.6-.1c0 .2-.2.4-.4.4s-.4-.2-.4-.4.2-.4.4-.4.4.2.4.4M53 39c0 .2-.2.4-.4.4s-.4-.2-.4-.4.2-.4.4-.4.4.2.4.4m-1.4-.7c0 .2-.2.4-.4.4s-.4-.2-.4-.4.2-.4.4-.4.4.2.4.4m-1.1-1c0 .2-.2.4-.4.4s-.4-.2-.4-.4.2-.4.4-.4.4.2.4.4m4.1 2c0 .2-.2.4-.4.4s-.4-.2-.4-.4.2-.4.4-.4c.2.1.4.2.4.4m1.5 0c0 .2-.2.4-.4.4s-.4-.2-.4-.4.2-.4.4-.4.4.2.4.4m2-.5c0 .2-.2.4-.4.4s-.4-.2-.4-.4.2-.4.4-.4.4.2.4.4M41.9 58.6c0 .4-.3.7-.7.7s-.7-.3-.7-.7.3-.7.7-.7c.4 0 .7.3.7.7"/><path d="M41.6 58.6c0 .2-.2.4-.4.4s-.4-.2-.4-.4.2-.4.4-.4.4.2.4.4m-25.2 4.3c0 .4-.3.7-.7.7-.4 0-.7-.3-.7-.7s.3-.7.7-.7c.4-.1.7.3.7.7"/><path d="M16.1 62.9c0 .2-.2.4-.4.4s-.4-.2-.4-.4.2-.4.4-.4.4.1.4.4m.5-7.8c0 .4-.3.7-.7.7-.4 0-.7-.3-.7-.7s.3-.7.7-.7c.4 0 .7.3.7.7"/><path d="M16.3 55.1c0 .2-.2.4-.4.4s-.4-.2-.4-.4.2-.4.4-.4c.3 0 .4.2.4.4m6-4c0 .4-.3.7-.7.7-.4 0-.7-.3-.7-.7s.3-.7.7-.7c.4 0 .7.3.7.7"/><path d="M22 51.1c0 .2-.2.4-.4.4s-.4-.2-.4-.4.2-.4.4-.4.4.2.4.4m0 7.7c0 .4-.3.7-.7.7-.4 0-.7-.3-.7-.7s.3-.7.7-.7c.3 0 .7.3.7.7"/><path d="M21.6 58.8c0 .2-.2.4-.4.4s-.4-.2-.4-.4.2-.4.4-.4c.3 0 .4.2.4.4m14.3 19.3c0 .4-.3.7-.7.7s-.7-.3-.7-.7.3-.7.7-.7.7.3.7.7"/><path d="M35.6 78.1c0 .2-.2.4-.4.4s-.4-.2-.4-.4.2-.4.4-.4.4.2.4.4m21.7 0c0 .4-.3.7-.7.7s-.7-.3-.7-.7c0-.4.3-.7.7-.7s.7.3.7.7"/><path d="M57 78.1c0 .2-.2.4-.4.4s-.4-.2-.4-.4.2-.4.4-.4.4.2.4.4m-10.4.1c0 .4-.3.7-.7.7s-.7-.3-.7-.7c0-.4.3-.7.7-.7.4-.1.7.3.7.7"/><path d="M46.3 78.2c0 .2-.2.4-.4.4s-.4-.2-.4-.4.2-.4.4-.4c.2-.1.4.1.4.4m17.2-61.9c0 .4-.3.7-.7.7s-.7-.3-.7-.7c0-.4.3-.7.7-.7.4 0 .7.4.7.7"/><path d="M63.2 16.3c0 .2-.2.4-.4.4s-.4-.2-.4-.4.2-.4.4-.4.4.2.4.4m5 3.5c0 .4-.3.7-.7.7-.4 0-.7-.3-.7-.7 0-.4.3-.7.7-.7.4 0 .7.3.7.7"/><path d="M67.9 19.8c0 .2-.2.4-.4.4s-.4-.2-.4-.4.2-.4.4-.4.4.2.4.4m0 7.2c0 .4-.3.7-.7.7-.4 0-.7-.3-.7-.7s.3-.7.7-.7c.4-.1.7.3.7.7"/><path d="M67.6 27c0 .2-.2.4-.4.4s-.4-.2-.4-.4.2-.4.4-.4.4.1.4.4m5.5-3.6c0 .4-.3.7-.7.7-.4 0-.7-.3-.7-.7 0-.4.3-.7.7-.7.3 0 .7.3.7.7"/><path d="M72.8 23.4c0 .2-.2.4-.4.4s-.4-.2-.4-.4.2-.4.4-.4.4.2.4.4m5.5 11.2c0 .4-.3.7-.7.7-.4 0-.7-.3-.7-.7s.3-.7.7-.7c.3 0 .7.3.7.7"/><path d="M78 34.6c0 .2-.2.4-.4.4s-.4-.2-.4-.4.2-.4.4-.4.4.2.4.4m-5-3.8c0 .4-.3.7-.7.7-.4 0-.7-.3-.7-.7s.3-.7.7-.7c.4 0 .7.3.7.7"/><path d="M72.7 30.8c0 .2-.2.4-.4.4s-.4-.2-.4-.4.2-.4.4-.4.4.2.4.4m-5.1 3.6c0 .4-.3.7-.7.7-.4 0-.7-.3-.7-.7s.3-.7.7-.7.7.3.7.7"/><path d="M67.3 34.4c0 .2-.2.4-.4.4s-.4-.2-.4-.4.2-.4.4-.4.4.2.4.4m11.1 15.2c0 .4-.3.7-.7.7-.4 0-.7-.3-.7-.7s.3-.7.7-.7c.4 0 .7.3.7.7"/><path d="M78.1 49.6c0 .2-.2.4-.4.4s-.4-.2-.4-.4.2-.4.4-.4.4.1.4.4m-5.4 11.2c0 .4-.3.7-.7.7-.4 0-.7-.3-.7-.7s.3-.7.7-.7c.4-.1.7.3.7.7"/><path d="M72.4 60.8c0 .2-.2.4-.4.4s-.4-.2-.4-.4.2-.4.4-.4.4.1.4.4m-4.7-4.2c0 .4-.3.7-.7.7s-.7-.3-.7-.7.3-.7.7-.7.7.3.7.7"/><path d="M67.3 56.6c0 .2-.2.4-.4.4s-.4-.2-.4-.4.2-.4.4-.4c.3 0 .4.2.4.4M38.2 33.9c0 .4-.3.7-.7.7s-.7-.3-.7-.7.3-.7.7-.7c.4-.1.7.3.7.7"/><path d="M37.9 33.9c0 .2-.2.4-.4.4s-.4-.2-.4-.4.2-.4.4-.4c.2-.1.4.1.4.4m-19.8-.7c0 .4-.3.7-.7.7s-.7-.3-.7-.7.3-.7.7-.7.7.3.7.7"/><path d="M17.8 33.2c0 .2-.2.4-.4.4s-.4-.2-.4-.4.2-.4.4-.4.4.2.4.4m-6.7 17.9c0 .4-.3.7-.7.7s-.7-.3-.7-.7.3-.7.7-.7.7.3.7.7"/><path d="M10.7 51.1c0 .2-.2.4-.4.4s-.4-.2-.4-.4.2-.4.4-.4c.3 0 .4.2.4.4m31.2.7c0 .4-.3.7-.7.7s-.7-.3-.7-.7.3-.7.7-.7c.4-.1.7.3.7.7"/><path d="M41.6 51.8c0 .2-.2.4-.4.4s-.4-.2-.4-.4.2-.4.4-.4.4.1.4.4m-18.4-22c0 .4-.3.7-.7.7-.4 0-.7-.3-.7-.7s.3-.7.7-.7c.4 0 .7.3.7.7"/><path d="M22.9 29.8c0 .2-.2.4-.4.4s-.4-.2-.4-.4.2-.4.4-.4.4.2.4.4m10.8-7.3c0 .4-.3.7-.7.7s-.7-.3-.7-.7c0-.4.3-.7.7-.7.4 0 .7.3.7.7"/><path d="M33.4 22.5c0 .2-.2.4-.4.4s-.4-.2-.4-.4.2-.4.4-.4.4.2.4.4m10 7.8c0 .4-.3.7-.7.7s-.7-.3-.7-.7.3-.7.7-.7c.4-.1.7.3.7.7"/><path d="M43.1 30.3c0 .2-.2.4-.4.4s-.4-.2-.4-.4.2-.4.4-.4.4.1.4.4m.7-7.7c0 .4-.3.7-.7.7s-.7-.3-.7-.7c0-.4.3-.7.7-.7s.7.3.7.7"/><path d="M43.5 22.6c0 .2-.2.4-.4.4s-.4-.2-.4-.4.2-.4.4-.4.4.2.4.4m-4.8 3.9c0 .4-.3.7-.7.7s-.7-.3-.7-.7.3-.7.7-.7c.3-.1.7.3.7.7"/><path d="M38.3 26.5c0 .2-.2.4-.4.4s-.4-.2-.4-.4.2-.4.4-.4c.3 0 .4.1.4.4m-20.2-.7c0 .4-.3.7-.7.7-.4 0-.7-.3-.7-.7 0-.4.3-.7.7-.7.4 0 .7.3.7.7"/><path d="M17.8 25.8c0 .2-.2.4-.4.4s-.4-.2-.4-.4.2-.4.4-.4.4.2.4.4m-4.2 3.8c0 .4-.3.7-.7.7s-.7-.3-.7-.7c0-.4.3-.7.7-.7s.7.3.7.7"/><path d="M13.2 29.6c0 .2-.2.4-.4.4s-.4-.2-.4-.4.2-.4.4-.4c.3 0 .4.2.4.4m10.1-7.4c0 .4-.3.7-.7.7-.4 0-.7-.3-.7-.7s.3-.7.7-.7c.4-.1.7.3.7.7"/><path d="M23 22.2c0 .2-.2.4-.4.4s-.4-.2-.4-.4.2-.4.4-.4.4.1.4.4m5.6-3.6c0 .4-.3.7-.7.7-.4 0-.7-.3-.7-.7s.3-.7.7-.7.7.3.7.7"/><path d="M28.3 18.6c0 .2-.2.4-.4.4s-.4-.2-.4-.4.2-.4.4-.4.4.2.4.4m49.6 38.2c0 .4-.3.7-.7.7-.4 0-.7-.3-.7-.7s.3-.7.7-.7c.4 0 .7.3.7.7"/><path d="M77.6 56.8c0 .2-.2.4-.4.4s-.4-.2-.4-.4.2-.4.4-.4.4.2.4.4m33.9-20.7l.4.1-1.4 4.5H97.7v-.5h.6c.7 0 1.2-.2 1.5-.7.2-.3.3-.9.3-1.8V27.1c0-1-.1-1.7-.3-1.9-.3-.4-.8-.5-1.4-.5h-.6v-.5h7.5v.5c-.9 0-1.5.1-1.8.2-.4.2-.6.4-.7.6-.1.3-.2.9-.2 1.9v10.4c0 .7.1 1.1.2 1.4.1.2.2.3.5.4.2.1.8.1 1.9.1h1.2c1.3 0 2.2-.1 2.7-.3.5-.2 1-.5 1.4-1 .1-.5.6-1.3 1-2.3zm5-6.9v9c0 .7.1 1.2.2 1.4.1.2.3.4.5.5.2.1.6.2 1.1.2v.4h-5.4v-.4c.5 0 .9-.1 1.1-.2.2-.1.3-.3.4-.5.1-.2.2-.7.2-1.4v-4.3c0-1.2 0-2-.1-2.4-.1-.3-.1-.4-.3-.5-.1-.1-.3-.2-.5-.2s-.5.1-.8.2l-.2-.4 3.4-1.4h.4zm-1-5.9c.3 0 .6.1.9.4.2.2.4.5.4.9s-.1.6-.4.9c-.2.2-.5.4-.9.4s-.6-.1-.9-.4-.4-.5-.4-.9.1-.6.4-.9c.3-.2.6-.4.9-.4zm6.9 8.1c1.1-1.5 2.2-2.3 3.5-2.3 1.1 0 2.1.5 3 1.5.9 1 1.3 2.3 1.3 4 0 2-.7 3.6-2 4.8-1.1 1-2.4 1.6-3.8 1.6-.7 0-1.3-.1-2-.4-.7-.2-1.4-.6-2.1-1.1V28c0-1.3 0-2.1-.1-2.3-.1-.3-.2-.5-.3-.6-.1-.1-.3-.2-.5-.2s-.5.1-.9.2l-.2-.4 3.4-1.4h.5v8.1zm0 .8v6.7c.4.4.8.7 1.3.9.4.2.9.3 1.4.3.7 0 1.4-.4 2.1-1.2.6-.8 1-2 1-3.6 0-1.4-.3-2.5-1-3.3-.6-.8-1.4-1.2-2.2-1.2-.4 0-.9.1-1.3.3-.3.3-.8.6-1.3 1.1zm12.6-3v2.5c.9-1.7 1.9-2.5 2.9-2.5.4 0 .8.1 1.1.4.3.3.4.6.4.9 0 .3-.1.6-.3.8-.2.2-.5.3-.8.3-.3 0-.6-.1-1-.4-.4-.3-.6-.4-.8-.4-.1 0-.3.1-.5.2-.4.3-.7.9-1.1 1.6V38c0 .6.1 1.1.2 1.4.1.2.3.4.6.5s.7.2 1.2.2v.4h-5.7v-.4c.6 0 1-.1 1.3-.3.2-.1.3-.3.4-.6 0-.1.1-.5.1-1.2v-4.3c0-1.3 0-2.1-.1-2.3-.1-.2-.2-.4-.3-.5-.1-.1-.3-.2-.5-.2-.3 0-.5.1-.9.2l-.1-.4 3.4-1.4h.5zm11.5 9.9c-1.1.9-1.9 1.4-2.2 1.5-.4.2-.9.3-1.4.3-.8 0-1.4-.3-1.9-.8s-.8-1.2-.8-2.1c0-.5.1-1 .4-1.4.3-.6.9-1.1 1.7-1.6.8-.5 2.2-1.1 4.1-1.8v-.4c0-1.1-.2-1.9-.5-2.3-.4-.4-.9-.6-1.5-.6-.5 0-.9.1-1.2.4-.3.3-.5.6-.5 1v.7c0 .4-.1.7-.3.9-.2.2-.4.3-.8.3-.3 0-.5-.1-.7-.3-.2-.2-.3-.5-.3-.9 0-.7.4-1.3 1.1-1.9.7-.6 1.7-.9 3-.9 1 0 1.8.2 2.4.5.5.3.8.6 1.1 1.2.1.4.2 1.1.2 2.1v3.8c0 1.1 0 1.7.1 2 0 .2.1.4.2.5.1.1.2.1.3.1.1 0 .2 0 .3-.1.2-.1.5-.4 1-.9v.7c-.9 1.2-1.8 1.8-2.6 1.8-.4 0-.7-.1-1-.4-.1-.3-.2-.8-.2-1.4zm0-.8V34c-1.2.5-2 .8-2.4 1-.6.4-1.1.7-1.4 1.1-.3.4-.4.8-.4 1.3 0 .6.2 1.1.5 1.5.3.4.8.6 1.2.6.6 0 1.5-.4 2.5-1.2zm8.2-9.1v2.5c.9-1.7 1.9-2.5 2.9-2.5.4 0 .8.1 1.1.4.3.3.4.6.4.9 0 .3-.1.6-.3.8-.2.2-.5.3-.8.3-.3 0-.6-.1-1-.4-.4-.3-.6-.4-.8-.4-.1 0-.3.1-.5.2-.4.3-.7.9-1.1 1.6V38c0 .6.1 1.1.2 1.4.1.2.3.4.6.5.3.1.7.2 1.2.2v.4H151v-.4c.6 0 1-.1 1.3-.3.2-.1.3-.3.4-.6 0-.1.1-.5.1-1.2v-4.3c0-1.3 0-2.1-.1-2.3-.1-.2-.2-.4-.3-.5-.1-.1-.3-.2-.5-.2-.3 0-.5.1-.9.2l-.1-.4 3.4-1.4h.4zm5.2.3h5.2v.5h-.3c-.4 0-.6.1-.8.2-.2.2-.3.4-.3.6 0 .3.1.8.4 1.3l2.7 5.6 2.5-6.2c.1-.3.2-.7.2-1 0-.1 0-.3-.1-.3-.1-.1-.2-.2-.3-.2-.1-.1-.4-.1-.7-.1v-.5h3.6v.6c-.3 0-.5.1-.7.2-.2.1-.3.3-.5.5-.1.1-.2.4-.4.9l-4.6 11.2c-.4 1.1-1 1.9-1.7 2.5-.7.6-1.4.8-2.1.8-.5 0-.9-.1-1.2-.4-.3-.3-.5-.6-.5-1 0-.3.1-.6.3-.8.2-.2.5-.3.9-.3.3 0 .6.1 1.1.3.3.1.5.2.6.2.2 0 .5-.1.8-.4.3-.3.6-.7.9-1.5l.8-1.9-4-8.4c-.1-.3-.3-.6-.6-.9-.2-.3-.4-.5-.5-.6-.2-.1-.5-.2-.9-.3v-.6zm-59.1 29.9v4.7h2.2c.5 0 .9-.1 1.1-.3.2-.2.4-.7.5-1.3h.3v4h-.3c0-.5-.1-.8-.2-1s-.3-.4-.5-.5c-.2-.1-.5-.2-.9-.2h-2.2v3.7c0 .6 0 1 .1 1.2.1.1.2.3.4.4.3.1.5.2.8.2h.4v.3h-5.1v-.3h.4c.5 0 .8-.1 1.1-.4.1-.2.2-.6.2-1.4v-7.7c0-.6 0-1-.1-1.2-.1-.1-.2-.3-.4-.4-.3-.1-.5-.2-.8-.2h-.4v-.3h8.9l.1 2.6h-.3c-.2-.6-.3-1-.5-1.2-.2-.3-.5-.4-.7-.6s-.8-.2-1.4-.2h-2.7zm10.5 10.1c-.8.6-1.3 1-1.6 1.1-.3.1-.7.2-1 .2-.6 0-1-.2-1.4-.6s-.5-.9-.5-1.5c0-.4.1-.7.3-1 .2-.4.7-.8 1.3-1.1s1.6-.8 3-1.3V65c0-.8-.1-1.4-.4-1.7s-.6-.4-1.1-.4c-.4 0-.7.1-.9.3-.2.2-.3.4-.3.7v.5c0 .3-.1.5-.2.6s-.3.2-.5.2-.4-.1-.5-.2-.2-.4-.2-.6c0-.5.3-1 .8-1.4s1.2-.6 2.2-.6c.7 0 1.3.1 1.8.4.3.2.6.5.8.9.1.3.2.8.2 1.5v4.1c0 .2.1.3.1.3s.1.1.2.1.2 0 .2-.1c.1-.1.4-.3.7-.6v.5c-.7.9-1.3 1.3-1.9 1.3-.3 0-.5-.1-.7-.3s-.4-.5-.4-1zm0-.5v-3.1c-.9.4-1.5.6-1.7.7-.5.3-.8.5-1 .8s-.3.6-.3.9c0 .4.1.8.4 1.1.3.3.5.4.9.4s1-.3 1.7-.8zm10.3-1.4c-.2 1.1-.6 1.9-1.3 2.4-.6.6-1.3.9-2.1.9-.9 0-1.7-.4-2.4-1.2s-1-1.8-1-3.1.4-2.3 1.1-3.1c.8-.8 1.7-1.2 2.7-1.2.8 0 1.4.2 2 .6.5.4.8.9.8 1.3 0 .2-.1.4-.2.5-.1.1-.3.2-.6.2s-.6-.1-.8-.3c-.1-.1-.2-.4-.2-.7 0-.3-.2-.6-.4-.8-.2-.2-.5-.3-.9-.3-.6 0-1.1.2-1.4.7-.5.6-.7 1.3-.7 2.3 0 1 .2 1.8.7 2.5.5.7 1.1 1.1 1.9 1.1.6 0 1.1-.2 1.5-.6.3-.3.6-.8.9-1.5l.4.3zm8.2-5v4.9c0 .9 0 1.5.1 1.7 0 .2.1.4.2.4s.2.1.3.1c.2 0 .4 0 .6-.1l.1.3-2.4 1h-.4v-1.7c-.7.8-1.2 1.2-1.6 1.4s-.7.3-1.2.3-.8-.1-1.2-.4c-.3-.3-.6-.6-.7-1s-.2-1-.2-1.7v-3.6c0-.4 0-.6-.1-.8s-.2-.3-.4-.3c-.2-.1-.5-.1-.9-.1v-.3h2.8V68c0 .8.1 1.2.4 1.5s.6.4.9.4c.3 0 .5-.1.9-.2s.7-.5 1.1-.9v-4.6c0-.5-.1-.8-.3-.9-.2-.2-.5-.2-1-.3v-.3h3zm4.8-4.4v10.7c0 .5 0 .8.1 1s.2.3.3.4c.2.1.4.1.9.1v.3H132v-.3c.4 0 .6 0 .8-.1s.2-.2.3-.4.1-.5.1-1v-7.3c0-.9 0-1.5-.1-1.7 0-.2-.1-.3-.2-.4s-.2-.1-.3-.1c-.2 0-.3 0-.6.1l-.1-.3 2.4-1h.3zm4.2 1.8v2.6h1.9v.6h-1.9v5.2c0 .5.1.9.2 1.1s.3.3.6.3c.2 0 .4-.1.6-.2.2-.1.3-.3.4-.5h.3c-.2.6-.5 1-.9 1.3-.4.3-.8.4-1.2.4-.3 0-.5-.1-.8-.2-.3-.2-.4-.4-.6-.6-.1-.3-.2-.7-.2-1.3v-5.4h-1.3V63c.3-.1.7-.3 1-.7.3-.3.6-.7.9-1.1l.6-1.2h.4zm2.7 2.6h3.8v.4h-.3c-.3 0-.5.1-.6.2-.1.1-.2.3-.2.4 0 .2.1.5.3.9l2 4.1 1.8-4.4c.1-.2.1-.5.1-.7 0-.1 0-.2-.1-.2 0-.1-.1-.1-.2-.2-.1 0-.3-.1-.5-.1v-.3h2.6v.3c-.2 0-.4.1-.5.1s-.2.2-.4.4c-.1.1-.2.3-.3.7l-3.3 8c-.3.8-.7 1.4-1.2 1.8s-1 .6-1.5.6c-.3 0-.6-.1-.9-.3s-.3-.4-.3-.7c0-.2.1-.4.2-.6.2-.1.4-.2.7-.2.2 0 .5.1.8.2.2.1.4.1.4.1.2 0 .4-.1.6-.3s.4-.5.6-1.1l.6-1.4-2.9-6.1c-.1-.2-.2-.4-.4-.7-.1-.2-.3-.3-.4-.4-.1-.1-.4-.2-.7-.2v-.3zm17.9-.2c1.2 0 2.2.5 2.9 1.4.6.8.9 1.7.9 2.7 0 .7-.2 1.5-.5 2.2s-.8 1.3-1.4 1.7c-.6.4-1.3.6-2 .6-1.2 0-2.2-.5-2.9-1.5-.6-.8-.9-1.7-.9-2.7 0-.7.2-1.5.5-2.2.4-.7.8-1.3 1.4-1.6.7-.4 1.3-.6 2-.6zm-.3.6c-.3 0-.6.1-.9.3-.3.2-.6.5-.8 1-.2.5-.3 1.1-.3 1.8 0 1.2.2 2.2.7 3 .5.8 1.1 1.3 1.8 1.3.6 0 1-.2 1.4-.7s.6-1.3.6-2.4c0-1.4-.3-2.6-.9-3.4-.4-.6-1-.9-1.6-.9zm7.9.3v5.3c0 .8.1 1.2.2 1.4.2.3.5.4.9.4h.7v.3H164v-.3h.4c.2 0 .4-.1.6-.2s.3-.3.4-.5.1-.6.1-1.2v-5.3H164v-.6h1.6v-.5c0-.8.1-1.5.4-2s.7-1 1.2-1.3c.5-.3 1.1-.5 1.8-.5.6 0 1.2.2 1.7.6.3.3.5.6.5.9 0 .2-.1.3-.2.5-.2.2-.3.2-.5.2-.1 0-.3 0-.4-.1-.2-.1-.3-.3-.5-.6s-.4-.5-.6-.6-.4-.2-.6-.2c-.3 0-.5.1-.7.2-.2.1-.3.4-.4.7-.1.3-.1 1.1-.1 2.3v.6h2.1v.6H167zm15-4.8v4.1h-.3c-.1-.8-.3-1.4-.6-1.9s-.7-.8-1.2-1.1-1-.4-1.6-.4c-.6 0-1.1.2-1.5.6-.4.4-.6.8-.6 1.3 0 .4.1.7.4 1 .4.4 1.2 1 2.6 1.8 1.1.6 1.9 1.1 2.3 1.4.4.3.7.7.9 1.1.2.4.3.9.3 1.4 0 .9-.4 1.7-1 2.3-.7.7-1.6 1-2.7 1-.3 0-.7 0-1-.1-.2 0-.6-.1-1.1-.3-.6-.2-.9-.3-1.1-.3-.1 0-.3 0-.3.1-.1.1-.1.3-.2.5h-.3v-4.1h.3c.2.9.4 1.5.6 1.9.3.4.7.8 1.2 1.1s1.1.4 1.7.4c.7 0 1.3-.2 1.7-.6s.6-.8.6-1.4c0-.3-.1-.6-.2-.9-.2-.3-.4-.6-.8-.8-.2-.2-.9-.5-1.9-1.1-1-.6-1.7-1-2.2-1.4-.4-.3-.8-.7-1-1.1s-.3-.9-.3-1.4c0-.9.3-1.6 1-2.2.7-.6 1.5-.9 2.5-.9.6 0 1.3.2 2 .5.3.1.6.2.7.2.2 0 .3 0 .4-.1.1-.1.2-.3.2-.5h.5zm6.1 3.9c1.2 0 2.2.5 2.9 1.4.6.8.9 1.7.9 2.7 0 .7-.2 1.5-.5 2.2s-.8 1.3-1.4 1.7c-.6.4-1.3.6-2 .6-1.2 0-2.2-.5-2.9-1.5-.6-.8-.9-1.7-.9-2.7 0-.7.2-1.5.5-2.2.4-.7.8-1.3 1.4-1.6.7-.4 1.3-.6 2-.6zm-.3.6c-.3 0-.6.1-.9.3-.3.2-.6.5-.8 1-.2.5-.3 1.1-.3 1.8 0 1.2.2 2.2.7 3 .5.8 1.1 1.3 1.8 1.3.6 0 1-.2 1.4-.7s.6-1.3.6-2.4c0-1.4-.3-2.6-.9-3.4-.4-.6-.9-.9-1.6-.9zm12.2 4.6c-.2 1.1-.6 1.9-1.3 2.4-.6.6-1.3.9-2.1.9-.9 0-1.7-.4-2.4-1.2s-1-1.8-1-3.1.4-2.3 1.1-3.1c.8-.8 1.7-1.2 2.7-1.2.8 0 1.4.2 2 .6.5.4.8.9.8 1.3 0 .2-.1.4-.2.5-.1.1-.3.2-.6.2s-.6-.1-.8-.3c-.1-.1-.2-.4-.2-.7 0-.3-.2-.6-.4-.8-.2-.2-.5-.3-.9-.3-.6 0-1.1.2-1.4.7-.5.6-.7 1.3-.7 2.3 0 1 .2 1.8.7 2.5.5.7 1.1 1.1 1.9 1.1.6 0 1.1-.2 1.5-.6.3-.3.6-.8.9-1.5l.4.3zm3.8-5.2v6.5c0 .5 0 .8.1 1 .1.2.2.3.3.4.1.1.4.1.8.1v.3h-3.9v-.3c.4 0 .7 0 .8-.1s.2-.2.3-.4c.1-.2.1-.5.1-1v-3.1c0-.9 0-1.4-.1-1.7 0-.2-.1-.3-.2-.4-.1-.1-.2-.1-.4-.1s-.4 0-.6.1l-.1-.3 2.4-1h.5zm-.8-4.2c.2 0 .5.1.6.3.2.2.3.4.3.6s-.1.5-.3.6-.3.3-.6.3-.5-.1-.6-.3-.3-.4-.3-.6.1-.5.3-.6c.2-.2.4-.3.6-.3zm7.4 11.3c-.8.6-1.3 1-1.6 1.1-.3.1-.7.2-1 .2-.6 0-1-.2-1.4-.6-.4-.4-.5-.9-.5-1.5 0-.4.1-.7.3-1 .2-.4.7-.8 1.3-1.1.6-.4 1.6-.8 3-1.3V65c0-.8-.1-1.4-.4-1.7-.3-.3-.6-.4-1.1-.4-.4 0-.7.1-.9.3-.2.2-.3.4-.3.7v.5c0 .3-.1.5-.2.6-.1.1-.3.2-.5.2s-.4-.1-.5-.2c-.1-.2-.2-.4-.2-.6 0-.5.3-1 .8-1.4s1.2-.6 2.2-.6c.7 0 1.3.1 1.8.4.3.2.6.5.8.9.1.3.2.8.2 1.5v4.1c0 .2.1.3.1.3.1.1.1.1.2.1s.2 0 .2-.1c.1-.1.4-.3.7-.6v.5c-.7.9-1.3 1.3-1.9 1.3-.3 0-.5-.1-.7-.3s-.4-.5-.4-1zm0-.5v-3.1c-.9.4-1.5.6-1.7.7-.5.3-.8.5-1 .8s-.3.6-.3.9c0 .4.1.8.4 1.1.3.3.5.4.9.4s1-.3 1.7-.8zm6.1-10.8v10.7c0 .5 0 .8.1 1 .1.2.2.3.3.4.2.1.4.1.9.1v.3h-3.9v-.3c.4 0 .6 0 .8-.1s.2-.2.3-.4.1-.5.1-1v-7.3c0-.9 0-1.5-.1-1.7 0-.2-.1-.3-.2-.4-.1-.1-.2-.1-.3-.1-.2 0-.3 0-.6.1l-.1-.3 2.4-1h.3zm14.5.3v4.1h-.3c-.1-.8-.3-1.4-.6-1.9s-.7-.8-1.2-1.1-1-.4-1.6-.4c-.6 0-1.1.2-1.5.6-.4.4-.6.8-.6 1.3 0 .4.1.7.4 1 .4.4 1.2 1 2.6 1.8 1.1.6 1.9 1.1 2.3 1.4.4.3.7.7.9 1.1.2.4.3.9.3 1.4 0 .9-.4 1.7-1 2.3-.7.7-1.6 1-2.7 1-.3 0-.7 0-1-.1-.2 0-.6-.1-1.1-.3-.6-.2-.9-.3-1.1-.3-.1 0-.3 0-.3.1-.1.1-.1.3-.2.5h-.3v-4.1h.3c.2.9.4 1.5.6 1.9.3.4.7.8 1.2 1.1s1.1.4 1.7.4c.7 0 1.3-.2 1.7-.6s.6-.8.6-1.4c0-.3-.1-.6-.2-.9-.2-.3-.4-.6-.8-.8-.2-.2-.9-.5-1.9-1.1-1-.6-1.7-1-2.2-1.4-.4-.3-.8-.7-1-1.1s-.3-.9-.3-1.4c0-.9.3-1.6 1-2.2.7-.6 1.5-.9 2.5-.9.6 0 1.3.2 2 .5.3.1.6.2.7.2.2 0 .3 0 .4-.1.1-.1.2-.3.2-.5h.5zm9 9.1c-.2 1.1-.6 1.9-1.3 2.4-.6.6-1.3.9-2.1.9-.9 0-1.7-.4-2.4-1.2s-1-1.8-1-3.1.4-2.3 1.1-3.1c.8-.8 1.7-1.2 2.7-1.2.8 0 1.4.2 2 .6.5.4.8.9.8 1.3 0 .2-.1.4-.2.5-.1.1-.3.2-.6.2s-.6-.1-.8-.3c-.1-.1-.2-.4-.2-.7 0-.3-.2-.6-.4-.8-.2-.2-.5-.3-.9-.3-.6 0-1.1.2-1.4.7-.5.6-.7 1.3-.7 2.3 0 1 .2 1.8.7 2.5.5.7 1.1 1.1 1.9 1.1.6 0 1.1-.2 1.5-.6.3-.3.6-.8.9-1.5l.4.3zm3.7-5.2v6.5c0 .5 0 .8.1 1 .1.2.2.3.3.4.1.1.4.1.8.1v.3H241v-.3c.4 0 .7 0 .8-.1s.2-.2.3-.4c.1-.2.1-.5.1-1v-3.1c0-.9 0-1.4-.1-1.7 0-.2-.1-.3-.2-.4-.1-.1-.2-.1-.4-.1s-.4 0-.6.1l-.1-.3 2.4-1h.5zm-.7-4.2c.2 0 .5.1.6.3.2.2.3.4.3.6s-.1.5-.3.6-.4.3-.6.3-.5-.1-.6-.3-.3-.4-.3-.6.1-.5.3-.6c.1-.2.3-.3.6-.3zm3.9 7.5c0 1.2.3 2.1.9 2.8s1.3 1 2.1 1c.5 0 1-.1 1.4-.4.4-.3.7-.8 1-1.5l.3.2c-.1.8-.5 1.5-1.1 2.2-.6.7-1.3 1-2.2 1-1 0-1.8-.4-2.5-1.1-.7-.8-1-1.8-1-3 0-1.4.4-2.5 1.1-3.2.7-.8 1.6-1.2 2.7-1.2.9 0 1.6.3 2.2.9.6.6.9 1.4.9 2.4h-5.8zm0-.5h3.7c0-.5-.1-.9-.2-1.1-.1-.3-.4-.6-.7-.8-.3-.2-.6-.3-.9-.3-.5 0-.9.2-1.3.6-.3.4-.5.9-.6 1.6zm9.1-1.1c.9-1.1 1.8-1.7 2.7-1.7.4 0 .8.1 1.1.3.3.2.6.6.8 1.1.1.4.2.9.2 1.6v3.4c0 .5 0 .9.1 1 .1.1.2.3.3.3s.4.1.8.1v.3h-4v-.3h.2c.4 0 .6-.1.8-.2.2-.1.3-.3.3-.5v-4.1c0-.7-.1-1.3-.3-1.6-.2-.3-.5-.5-1-.5-.7 0-1.4.4-2.1 1.1v4.2c0 .5 0 .9.1 1 .1.2.2.3.3.4.1.1.4.1.9.1v.3h-4v-.3h.2c.4 0 .7-.1.8-.3.1-.2.2-.6.2-1.2v-3c0-1 0-1.6-.1-1.8 0-.2-.1-.4-.2-.4-.1-.1-.2-.1-.4-.1s-.4 0-.6.1l-.1-.3 2.4-1h.4v2zm13.3 3.5c-.2 1.1-.6 1.9-1.3 2.4-.6.6-1.3.9-2.1.9-.9 0-1.7-.4-2.4-1.2s-1-1.8-1-3.1.4-2.3 1.1-3.1c.8-.8 1.7-1.2 2.7-1.2.8 0 1.4.2 2 .6.5.4.8.9.8 1.3 0 .2-.1.4-.2.5-.1.1-.3.2-.6.2s-.6-.1-.8-.3c-.1-.1-.2-.4-.2-.7 0-.3-.2-.6-.4-.8-.2-.2-.5-.3-.9-.3-.6 0-1.1.2-1.4.7-.5.6-.7 1.3-.7 2.3 0 1 .2 1.8.7 2.5.5.7 1.1 1.1 1.9 1.1.6 0 1.1-.2 1.5-.6.3-.3.6-.8.9-1.5l.4.3zm2.4-1.9c0 1.2.3 2.1.9 2.8s1.3 1 2.1 1c.5 0 1-.1 1.4-.4.4-.3.7-.8 1-1.5l.3.2c-.1.8-.5 1.5-1.1 2.2-.6.7-1.3 1-2.2 1-1 0-1.8-.4-2.5-1.1-.7-.8-1-1.8-1-3 0-1.4.4-2.5 1.1-3.2.7-.8 1.6-1.2 2.7-1.2.9 0 1.6.3 2.2.9.6.6.9 1.4.9 2.4h-5.8zm0-.5h3.7c0-.5-.1-.9-.2-1.1-.1-.3-.4-.6-.7-.8-.3-.2-.6-.3-.9-.3-.5 0-.9.2-1.3.6-.3.4-.5.9-.6 1.6zm11.9-2.8v2.7h-.3c-.2-.9-.5-1.4-.9-1.8-.3-.3-.8-.5-1.3-.5-.4 0-.7.1-1 .3s-.4.5-.4.7c0 .3.1.6.3.8.2.2.6.5 1.1.8l1.3.6c1.2.6 1.8 1.3 1.8 2.3 0 .7-.3 1.3-.8 1.8-.6.4-1.2.7-1.9.7-.5 0-1.1-.1-1.7-.3-.2-.1-.4-.1-.5-.1-.1 0-.2.1-.3.2h-.3v-2.9h.3c.2.8.5 1.4.9 1.9s1 .6 1.6.6c.4 0 .7-.1 1-.4.3-.2.4-.5.4-.9s-.1-.7-.4-1-.9-.6-1.7-1-1.4-.8-1.7-1.1c-.3-.3-.4-.8-.4-1.3 0-.7.2-1.2.7-1.7.5-.4 1-.7 1.8-.7.3 0 .7.1 1.2.2.3.1.5.1.6.1.1 0 .2 0 .2-.1s.1-.1.2-.3h.2z"/></svg>